<?xml version="1.0" encoding="utf-8" standalone="no"?>
<!DOCTYPE svg PUBLIC "-//W3C//DTD SVG 1.1//EN"
  "http://www.w3.org/Graphics/SVG/1.1/DTD/svg11.dtd">
<svg xmlns:xlink="http://www.w3.org/1999/xlink" width="720pt" height="360pt" viewBox="0 0 720 360" xmlns="http://www.w3.org/2000/svg" version="1.1">
 <metadata>
  <rdf:RDF xmlns:dc="http://purl.org/dc/elements/1.1/" xmlns:cc="http://creativecommons.org/ns#" xmlns:rdf="http://www.w3.org/1999/02/22-rdf-syntax-ns#">
   <cc:Work>
    <dc:type rdf:resource="http://purl.org/dc/dcmitype/StillImage"/>
    <dc:date>2025-12-03T17:25:50.997269</dc:date>
    <dc:format>image/svg+xml</dc:format>
    <dc:creator>
     <cc:Agent>
      <dc:title>Matplotlib v3.8.4, https://matplotlib.org/</dc:title>
     </cc:Agent>
    </dc:creator>
   </cc:Work>
  </rdf:RDF>
 </metadata>
 <defs>
  <style type="text/css">*{stroke-linejoin: round; stroke-linecap: butt}</style>
 </defs>
 <g id="figure_1">
  <g id="patch_1">
   <path d="M 0 360 
L 720 360 
L 720 0 
L 0 0 
z
" style="fill: #ffffff"/>
  </g>
  <g id="axes_1">
   <g id="patch_2">
    <path d="M 90 320.4 
L 648 320.4 
L 648 43.2 
L 90 43.2 
z
" style="fill: #ffffff"/>
   </g>
   <g id="PolyCollection_1">
    <defs>
     <path id="m968df3599c" d="M 119.785334 -78.681738 
L 116.014666 -78.681738 
L 115.715226 -80.523677 
L 115.379922 -82.365617 
L 115.00658 -84.207557 
L 114.593266 -86.049497 
L 114.138352 -87.891436 
L 113.640598 -89.733376 
L 113.099227 -91.575316 
L 112.513997 -93.417256 
L 111.88528 -95.259195 
L 111.214123 -97.101135 
L 110.502307 -98.943075 
L 109.752394 -100.785014 
L 108.967759 -102.626954 
L 108.152605 -104.468894 
L 107.311958 -106.310834 
L 106.451646 -108.152773 
L 105.578253 -109.994713 
L 104.699049 -111.836653 
L 103.821902 -113.678592 
L 102.955168 -115.520532 
L 102.107556 -117.362472 
L 101.287983 -119.204412 
L 100.50541 -121.046351 
L 99.768668 -122.888291 
L 99.086278 -124.730231 
L 98.466271 -126.572171 
L 97.916013 -128.41411 
L 97.442032 -130.25605 
L 97.049866 -132.09799 
L 96.743928 -133.939929 
L 96.527392 -135.781869 
L 96.402109 -137.623809 
L 96.368549 -139.465749 
L 96.425782 -141.307688 
L 96.571484 -143.149628 
L 96.80198 -144.991568 
L 97.112323 -146.833507 
L 97.496401 -148.675447 
L 97.947064 -150.517387 
L 98.456293 -152.359327 
L 99.015368 -154.201266 
L 99.615067 -156.043206 
L 100.245863 -157.885146 
L 100.898135 -159.727085 
L 101.562366 -161.569025 
L 102.229344 -163.410965 
L 102.890343 -165.252905 
L 103.537292 -167.094844 
L 104.162923 -168.936784 
L 104.760889 -170.778724 
L 105.325867 -172.620664 
L 105.853618 -174.462603 
L 106.341032 -176.304543 
L 106.786136 -178.146483 
L 107.188074 -179.988422 
L 107.547065 -181.830362 
L 107.864335 -183.672302 
L 108.142023 -185.514242 
L 108.383076 -187.356181 
L 108.591123 -189.198121 
L 108.770344 -191.040061 
L 108.925329 -192.882 
L 109.060932 -194.72394 
L 109.182136 -196.56588 
L 109.293907 -198.40782 
L 109.401072 -200.249759 
L 109.508198 -202.091699 
L 109.619491 -203.933639 
L 109.738704 -205.775579 
L 109.869071 -207.617518 
L 110.013252 -209.459458 
L 110.173298 -211.301398 
L 110.350638 -213.143337 
L 110.546081 -214.985277 
L 110.759835 -216.827217 
L 110.991538 -218.669157 
L 111.24031 -220.511096 
L 111.504804 -222.353036 
L 111.783278 -224.194976 
L 112.073663 -226.036915 
L 112.373641 -227.878855 
L 112.680718 -229.720795 
L 112.9923 -231.562735 
L 113.305766 -233.404674 
L 113.618531 -235.246614 
L 113.928111 -237.088554 
L 114.232168 -238.930494 
L 114.528558 -240.772433 
L 114.815363 -242.614373 
L 115.090918 -244.456313 
L 115.353824 -246.298252 
L 115.602957 -248.140192 
L 115.837471 -249.982132 
L 116.056782 -251.824072 
L 116.260563 -253.666011 
L 116.448723 -255.507951 
L 116.621382 -257.349891 
L 116.778851 -259.19183 
L 116.9216 -261.03377 
L 118.8784 -261.03377 
L 118.8784 -261.03377 
L 119.021149 -259.19183 
L 119.178618 -257.349891 
L 119.351277 -255.507951 
L 119.539437 -253.666011 
L 119.743218 -251.824072 
L 119.962529 -249.982132 
L 120.197043 -248.140192 
L 120.446176 -246.298252 
L 120.709082 -244.456313 
L 120.984637 -242.614373 
L 121.271442 -240.772433 
L 121.567832 -238.930494 
L 121.871889 -237.088554 
L 122.181469 -235.246614 
L 122.494234 -233.404674 
L 122.8077 -231.562735 
L 123.119282 -229.720795 
L 123.426359 -227.878855 
L 123.726337 -226.036915 
L 124.016722 -224.194976 
L 124.295196 -222.353036 
L 124.55969 -220.511096 
L 124.808462 -218.669157 
L 125.040165 -216.827217 
L 125.253919 -214.985277 
L 125.449362 -213.143337 
L 125.626702 -211.301398 
L 125.786748 -209.459458 
L 125.930929 -207.617518 
L 126.061296 -205.775579 
L 126.180509 -203.933639 
L 126.291802 -202.091699 
L 126.398928 -200.249759 
L 126.506093 -198.40782 
L 126.617864 -196.56588 
L 126.739068 -194.72394 
L 126.874671 -192.882 
L 127.029656 -191.040061 
L 127.208877 -189.198121 
L 127.416924 -187.356181 
L 127.657977 -185.514242 
L 127.935665 -183.672302 
L 128.252935 -181.830362 
L 128.611926 -179.988422 
L 129.013864 -178.146483 
L 129.458968 -176.304543 
L 129.946382 -174.462603 
L 130.474133 -172.620664 
L 131.039111 -170.778724 
L 131.637077 -168.936784 
L 132.262708 -167.094844 
L 132.909657 -165.252905 
L 133.570656 -163.410965 
L 134.237634 -161.569025 
L 134.901865 -159.727085 
L 135.554137 -157.885146 
L 136.184933 -156.043206 
L 136.784632 -154.201266 
L 137.343707 -152.359327 
L 137.852936 -150.517387 
L 138.303599 -148.675447 
L 138.687677 -146.833507 
L 138.99802 -144.991568 
L 139.228516 -143.149628 
L 139.374218 -141.307688 
L 139.431451 -139.465749 
L 139.397891 -137.623809 
L 139.272608 -135.781869 
L 139.056072 -133.939929 
L 138.750134 -132.09799 
L 138.357968 -130.25605 
L 137.883987 -128.41411 
L 137.333729 -126.572171 
L 136.713722 -124.730231 
L 136.031332 -122.888291 
L 135.29459 -121.046351 
L 134.512017 -119.204412 
L 133.692444 -117.362472 
L 132.844832 -115.520532 
L 131.978098 -113.678592 
L 131.100951 -111.836653 
L 130.221747 -109.994713 
L 129.348354 -108.152773 
L 128.488042 -106.310834 
L 127.647395 -104.468894 
L 126.832241 -102.626954 
L 126.047606 -100.785014 
L 125.297693 -98.943075 
L 124.585877 -97.101135 
L 123.91472 -95.259195 
L 123.286003 -93.417256 
L 122.700773 -91.575316 
L 122.159402 -89.733376 
L 121.661648 -87.891436 
L 121.206734 -86.049497 
L 120.79342 -84.207557 
L 120.420078 -82.365617 
L 120.084774 -80.523677 
L 119.785334 -78.681738 
z
" style="stroke: #3f3f3f; stroke-width: 1.25"/>
    </defs>
    <g clip-path="url(#pc78f49cf08)">
     <use xlink:href="#m968df3599c" x="0" y="360" style="fill: #3274a1; stroke: #3f3f3f; stroke-width: 1.25"/>
    </g>
   </g>
   <g id="PolyCollection_2">
    <defs>
     <path id="md91221e8d9" d="M 175.427875 -63.859509 
L 171.972125 -63.859509 
L 171.705044 -66.128392 
L 171.407315 -68.397276 
L 171.077318 -70.666159 
L 170.713675 -72.935043 
L 170.315307 -75.203927 
L 169.881505 -77.47281 
L 169.411986 -79.741694 
L 168.906952 -82.010577 
L 168.367153 -84.279461 
L 167.793928 -86.548345 
L 167.189248 -88.817228 
L 166.555744 -91.086112 
L 165.896723 -93.354995 
L 165.216166 -95.623879 
L 164.518716 -97.892762 
L 163.809641 -100.161646 
L 163.094782 -102.43053 
L 162.380485 -104.699413 
L 161.673509 -106.968297 
L 160.980927 -109.23718 
L 160.310004 -111.506064 
L 159.668062 -113.774948 
L 159.062348 -116.043831 
L 158.499879 -118.312715 
L 157.987302 -120.581598 
L 157.53074 -122.850482 
L 157.135661 -125.119366 
L 156.806742 -127.388249 
L 156.547763 -129.657133 
L 156.361505 -131.926016 
L 156.249677 -134.1949 
L 156.212872 -136.463784 
L 156.250537 -138.732667 
L 156.360979 -141.001551 
L 156.541395 -143.270434 
L 156.78793 -145.539318 
L 157.095758 -147.808202 
L 157.45919 -150.077085 
L 157.871795 -152.345969 
L 158.326546 -154.614852 
L 158.815973 -156.883736 
L 159.332323 -159.152619 
L 159.867731 -161.421503 
L 160.414382 -163.690387 
L 160.964671 -165.95927 
L 161.511357 -168.228154 
L 162.0477 -170.497037 
L 162.567582 -172.765921 
L 163.06561 -175.034805 
L 163.5372 -177.303688 
L 163.978636 -179.572572 
L 164.387106 -181.841455 
L 164.760718 -184.110339 
L 165.098489 -186.379223 
L 165.400316 -188.648106 
L 165.666928 -190.91699 
L 165.899816 -193.185873 
L 166.101154 -195.454757 
L 166.273702 -197.723641 
L 166.420706 -199.992524 
L 166.545784 -202.261408 
L 166.652816 -204.530291 
L 166.745831 -206.799175 
L 166.828897 -209.068059 
L 166.906014 -211.336942 
L 166.98102 -213.605826 
L 167.057505 -215.874709 
L 167.138732 -218.143593 
L 167.227576 -220.412476 
L 167.326479 -222.68136 
L 167.437411 -224.950244 
L 167.561853 -227.219127 
L 167.700789 -229.488011 
L 167.854715 -231.756894 
L 168.023658 -234.025778 
L 168.207206 -236.294662 
L 168.404549 -238.563545 
L 168.614524 -240.832429 
L 168.835669 -243.101312 
L 169.066284 -245.370196 
L 169.304484 -247.63908 
L 169.548259 -249.907963 
L 169.795537 -252.176847 
L 170.044232 -254.44573 
L 170.2923 -256.714614 
L 170.537779 -258.983498 
L 170.778832 -261.252381 
L 171.013779 -263.521265 
L 171.241117 -265.790148 
L 171.459547 -268.059032 
L 171.667977 -270.327916 
L 171.865532 -272.596799 
L 172.051554 -274.865683 
L 172.225588 -277.134566 
L 172.387382 -279.40345 
L 172.536865 -281.672333 
L 172.67413 -283.941217 
L 172.799421 -286.210101 
L 172.913104 -288.478984 
L 174.486896 -288.478984 
L 174.486896 -288.478984 
L 174.600579 -286.210101 
L 174.72587 -283.941217 
L 174.863135 -281.672333 
L 175.012618 -279.40345 
L 175.174412 -277.134566 
L 175.348446 -274.865683 
L 175.534468 -272.596799 
L 175.732023 -270.327916 
L 175.940453 -268.059032 
L 176.158883 -265.790148 
L 176.386221 -263.521265 
L 176.621168 -261.252381 
L 176.862221 -258.983498 
L 177.1077 -256.714614 
L 177.355768 -254.44573 
L 177.604463 -252.176847 
L 177.851741 -249.907963 
L 178.095516 -247.63908 
L 178.333716 -245.370196 
L 178.564331 -243.101312 
L 178.785476 -240.832429 
L 178.995451 -238.563545 
L 179.192794 -236.294662 
L 179.376342 -234.025778 
L 179.545285 -231.756894 
L 179.699211 -229.488011 
L 179.838147 -227.219127 
L 179.962589 -224.950244 
L 180.073521 -222.68136 
L 180.172424 -220.412476 
L 180.261268 -218.143593 
L 180.342495 -215.874709 
L 180.41898 -213.605826 
L 180.493986 -211.336942 
L 180.571103 -209.068059 
L 180.654169 -206.799175 
L 180.747184 -204.530291 
L 180.854216 -202.261408 
L 180.979294 -199.992524 
L 181.126298 -197.723641 
L 181.298846 -195.454757 
L 181.500184 -193.185873 
L 181.733072 -190.91699 
L 181.999684 -188.648106 
L 182.301511 -186.379223 
L 182.639282 -184.110339 
L 183.012894 -181.841455 
L 183.421364 -179.572572 
L 183.8628 -177.303688 
L 184.33439 -175.034805 
L 184.832418 -172.765921 
L 185.3523 -170.497037 
L 185.888643 -168.228154 
L 186.435329 -165.95927 
L 186.985618 -163.690387 
L 187.532269 -161.421503 
L 188.067677 -159.152619 
L 188.584027 -156.883736 
L 189.073454 -154.614852 
L 189.528205 -152.345969 
L 189.94081 -150.077085 
L 190.304242 -147.808202 
L 190.61207 -145.539318 
L 190.858605 -143.270434 
L 191.039021 -141.001551 
L 191.149463 -138.732667 
L 191.187128 -136.463784 
L 191.150323 -134.1949 
L 191.038495 -131.926016 
L 190.852237 -129.657133 
L 190.593258 -127.388249 
L 190.264339 -125.119366 
L 189.86926 -122.850482 
L 189.412698 -120.581598 
L 188.900121 -118.312715 
L 188.337652 -116.043831 
L 187.731938 -113.774948 
L 187.089996 -111.506064 
L 186.419073 -109.23718 
L 185.726491 -106.968297 
L 185.019515 -104.699413 
L 184.305218 -102.43053 
L 183.590359 -100.161646 
L 182.881284 -97.892762 
L 182.183834 -95.623879 
L 181.503277 -93.354995 
L 180.844256 -91.086112 
L 180.210752 -88.817228 
L 179.606072 -86.548345 
L 179.032847 -84.279461 
L 178.493048 -82.010577 
L 177.988014 -79.741694 
L 177.518495 -77.47281 
L 177.084693 -75.203927 
L 176.686325 -72.935043 
L 176.322682 -70.666159 
L 175.992685 -68.397276 
L 175.694956 -66.128392 
L 175.427875 -63.859509 
z
" style="stroke: #3f3f3f; stroke-width: 1.25"/>
    </defs>
    <g clip-path="url(#pc78f49cf08)">
     <use xlink:href="#md91221e8d9" x="0" y="360" style="fill: #3274a1; stroke: #3f3f3f; stroke-width: 1.25"/>
    </g>
   </g>
   <g id="PolyCollection_3">
    <defs>
     <path id="m00cfa80c8a" d="M 231.265086 -74.233728 
L 227.734914 -74.233728 
L 227.468099 -76.55662 
L 227.171611 -78.879512 
L 226.844014 -81.202403 
L 226.484121 -83.525295 
L 226.091048 -85.848187 
L 225.664272 -88.171078 
L 225.20369 -90.49397 
L 224.709672 -92.816862 
L 224.183108 -95.139753 
L 223.625449 -97.462645 
L 223.038744 -99.785536 
L 222.425658 -102.108428 
L 221.789483 -104.43132 
L 221.134134 -106.754211 
L 220.464127 -109.077103 
L 219.784544 -111.399995 
L 219.100979 -113.722886 
L 218.419472 -116.045778 
L 217.746419 -118.368669 
L 217.088475 -120.691561 
L 216.452445 -123.014453 
L 215.845156 -125.337344 
L 215.273329 -127.660236 
L 214.743446 -129.983128 
L 214.261616 -132.306019 
L 213.83344 -134.628911 
L 213.463886 -136.951803 
L 213.157178 -139.274694 
L 212.916689 -141.597586 
L 212.744864 -143.920477 
L 212.643153 -146.243369 
L 212.611966 -148.566261 
L 212.650663 -150.889152 
L 212.757554 -153.212044 
L 212.92993 -155.534936 
L 213.164124 -157.857827 
L 213.455579 -160.180719 
L 213.798956 -162.50361 
L 214.188242 -164.826502 
L 214.616883 -167.149394 
L 215.077928 -169.472285 
L 215.564173 -171.795177 
L 216.068316 -174.118069 
L 216.583108 -176.44096 
L 217.101499 -178.763852 
L 217.616776 -181.086744 
L 218.122688 -183.409635 
L 218.613562 -185.732527 
L 219.084392 -188.055418 
L 219.530922 -190.37831 
L 219.949693 -192.701202 
L 220.338084 -195.024093 
L 220.694325 -197.346985 
L 221.017487 -199.669877 
L 221.307456 -201.992768 
L 221.564891 -204.31566 
L 221.791158 -206.638551 
L 221.988262 -208.961443 
L 222.158752 -211.284335 
L 222.305632 -213.607226 
L 222.432256 -215.930118 
L 222.542225 -218.25301 
L 222.639281 -220.575901 
L 222.727206 -222.898793 
L 222.80972 -225.221685 
L 222.890396 -227.544576 
L 222.972575 -229.867468 
L 223.059293 -232.190359 
L 223.153228 -234.513251 
L 223.256648 -236.836143 
L 223.371384 -239.159034 
L 223.498803 -241.481926 
L 223.639812 -243.804818 
L 223.794855 -246.127709 
L 223.963935 -248.450601 
L 224.146646 -250.773492 
L 224.342204 -253.096384 
L 224.549494 -255.419276 
L 224.767121 -257.742167 
L 224.993462 -260.065059 
L 225.226724 -262.387951 
L 225.464998 -264.710842 
L 225.706312 -267.033734 
L 225.948687 -269.356626 
L 226.190181 -271.679517 
L 226.428933 -274.002409 
L 226.663201 -276.3253 
L 226.891391 -278.648192 
L 227.112081 -280.971084 
L 227.324039 -283.293975 
L 227.526235 -285.616867 
L 227.717841 -287.939759 
L 227.898238 -290.26265 
L 228.067002 -292.585542 
L 228.223899 -294.908433 
L 228.368868 -297.231325 
L 228.502007 -299.554217 
L 228.623554 -301.877108 
L 228.733867 -304.2 
L 230.266133 -304.2 
L 230.266133 -304.2 
L 230.376446 -301.877108 
L 230.497993 -299.554217 
L 230.631132 -297.231325 
L 230.776101 -294.908433 
L 230.932998 -292.585542 
L 231.101762 -290.26265 
L 231.282159 -287.939759 
L 231.473765 -285.616867 
L 231.675961 -283.293975 
L 231.887919 -280.971084 
L 232.108609 -278.648192 
L 232.336799 -276.3253 
L 232.571067 -274.002409 
L 232.809819 -271.679517 
L 233.051313 -269.356626 
L 233.293688 -267.033734 
L 233.535002 -264.710842 
L 233.773276 -262.387951 
L 234.006538 -260.065059 
L 234.232879 -257.742167 
L 234.450506 -255.419276 
L 234.657796 -253.096384 
L 234.853354 -250.773492 
L 235.036065 -248.450601 
L 235.205145 -246.127709 
L 235.360188 -243.804818 
L 235.501197 -241.481926 
L 235.628616 -239.159034 
L 235.743352 -236.836143 
L 235.846772 -234.513251 
L 235.940707 -232.190359 
L 236.027425 -229.867468 
L 236.109604 -227.544576 
L 236.19028 -225.221685 
L 236.272794 -222.898793 
L 236.360719 -220.575901 
L 236.457775 -218.25301 
L 236.567744 -215.930118 
L 236.694368 -213.607226 
L 236.841248 -211.284335 
L 237.011738 -208.961443 
L 237.208842 -206.638551 
L 237.435109 -204.31566 
L 237.692544 -201.992768 
L 237.982513 -199.669877 
L 238.305675 -197.346985 
L 238.661916 -195.024093 
L 239.050307 -192.701202 
L 239.469078 -190.37831 
L 239.915608 -188.055418 
L 240.386438 -185.732527 
L 240.877312 -183.409635 
L 241.383224 -181.086744 
L 241.898501 -178.763852 
L 242.416892 -176.44096 
L 242.931684 -174.118069 
L 243.435827 -171.795177 
L 243.922072 -169.472285 
L 244.383117 -167.149394 
L 244.811758 -164.826502 
L 245.201044 -162.50361 
L 245.544421 -160.180719 
L 245.835876 -157.857827 
L 246.07007 -155.534936 
L 246.242446 -153.212044 
L 246.349337 -150.889152 
L 246.388034 -148.566261 
L 246.356847 -146.243369 
L 246.255136 -143.920477 
L 246.083311 -141.597586 
L 245.842822 -139.274694 
L 245.536114 -136.951803 
L 245.16656 -134.628911 
L 244.738384 -132.306019 
L 244.256554 -129.983128 
L 243.726671 -127.660236 
L 243.154844 -125.337344 
L 242.547555 -123.014453 
L 241.911525 -120.691561 
L 241.253581 -118.368669 
L 240.580528 -116.045778 
L 239.899021 -113.722886 
L 239.215456 -111.399995 
L 238.535873 -109.077103 
L 237.865866 -106.754211 
L 237.210517 -104.43132 
L 236.574342 -102.108428 
L 235.961256 -99.785536 
L 235.374551 -97.462645 
L 234.816892 -95.139753 
L 234.290328 -92.816862 
L 233.79631 -90.49397 
L 233.335728 -88.171078 
L 232.908952 -85.848187 
L 232.515879 -83.525295 
L 232.155986 -81.202403 
L 231.828389 -78.879512 
L 231.531901 -76.55662 
L 231.265086 -74.233728 
z
" style="stroke: #3f3f3f; stroke-width: 1.25"/>
    </defs>
    <g clip-path="url(#pc78f49cf08)">
     <use xlink:href="#m00cfa80c8a" x="0" y="360" style="fill: #3274a1; stroke: #3f3f3f; stroke-width: 1.25"/>
    </g>
   </g>
   <g id="PolyCollection_4">
    <defs>
     <path id="m1648832f51" d="M 287.470851 -85.620402 
L 283.129149 -85.620402 
L 282.817848 -87.105879 
L 282.474419 -88.591356 
L 282.097641 -90.076833 
L 281.686586 -91.56231 
L 281.240678 -93.047787 
L 280.759741 -94.533264 
L 280.244052 -96.018741 
L 279.694382 -97.504218 
L 279.112032 -98.989695 
L 278.498863 -100.475172 
L 277.857309 -101.960649 
L 277.190382 -103.446126 
L 276.501664 -104.931603 
L 275.795277 -106.41708 
L 275.075846 -107.902557 
L 274.348442 -109.388034 
L 273.618507 -110.873512 
L 272.891772 -112.358989 
L 272.174153 -113.844466 
L 271.471645 -115.329943 
L 270.790201 -116.81542 
L 270.135605 -118.300897 
L 269.513352 -119.786374 
L 268.928519 -121.271851 
L 268.385649 -122.757328 
L 267.888638 -124.242805 
L 267.440643 -125.728282 
L 267.044 -127.213759 
L 266.700161 -128.699236 
L 266.409662 -130.184713 
L 266.172103 -131.67019 
L 265.986164 -133.155667 
L 265.849636 -134.641144 
L 265.759484 -136.126621 
L 265.711933 -137.612098 
L 265.702568 -139.097575 
L 265.726464 -140.583052 
L 265.778321 -142.068529 
L 265.852612 -143.554006 
L 265.943738 -145.039483 
L 266.046187 -146.52496 
L 266.154683 -148.010437 
L 266.264335 -149.495914 
L 266.370765 -150.981391 
L 266.470228 -152.466869 
L 266.559707 -153.952346 
L 266.636986 -155.437823 
L 266.700702 -156.9233 
L 266.750366 -158.408777 
L 266.786363 -159.894254 
L 266.809928 -161.379731 
L 266.823085 -162.865208 
L 266.828586 -164.350685 
L 266.829806 -165.836162 
L 266.830644 -167.321639 
L 266.835394 -168.807116 
L 266.848615 -170.292593 
L 266.875 -171.77807 
L 266.919235 -173.263547 
L 266.985866 -174.749024 
L 267.079176 -176.234501 
L 267.203063 -177.719978 
L 267.360945 -179.205455 
L 267.555665 -180.690932 
L 267.789425 -182.176409 
L 268.063733 -183.661886 
L 268.379372 -185.147363 
L 268.736388 -186.63284 
L 269.134093 -188.118317 
L 269.571095 -189.603794 
L 270.045333 -191.089271 
L 270.554136 -192.574748 
L 271.094291 -194.060225 
L 271.66212 -195.545703 
L 272.253566 -197.03118 
L 272.864282 -198.516657 
L 273.489727 -200.002134 
L 274.125257 -201.487611 
L 274.766214 -202.973088 
L 275.408011 -204.458565 
L 276.046215 -205.944042 
L 276.676612 -207.429519 
L 277.295272 -208.914996 
L 277.898599 -210.400473 
L 278.483375 -211.88595 
L 279.046783 -213.371427 
L 279.586432 -214.856904 
L 280.100366 -216.342381 
L 280.587057 -217.827858 
L 281.045404 -219.313335 
L 281.474708 -220.798812 
L 281.874652 -222.284289 
L 282.245271 -223.769766 
L 282.586919 -225.255243 
L 282.900231 -226.74072 
L 283.186084 -228.226197 
L 283.445562 -229.711674 
L 283.679911 -231.197151 
L 283.890509 -232.682628 
L 286.709491 -232.682628 
L 286.709491 -232.682628 
L 286.920089 -231.197151 
L 287.154438 -229.711674 
L 287.413916 -228.226197 
L 287.699769 -226.74072 
L 288.013081 -225.255243 
L 288.354729 -223.769766 
L 288.725348 -222.284289 
L 289.125292 -220.798812 
L 289.554596 -219.313335 
L 290.012943 -217.827858 
L 290.499634 -216.342381 
L 291.013568 -214.856904 
L 291.553217 -213.371427 
L 292.116625 -211.88595 
L 292.701401 -210.400473 
L 293.304728 -208.914996 
L 293.923388 -207.429519 
L 294.553785 -205.944042 
L 295.191989 -204.458565 
L 295.833786 -202.973088 
L 296.474743 -201.487611 
L 297.110273 -200.002134 
L 297.735718 -198.516657 
L 298.346434 -197.03118 
L 298.93788 -195.545703 
L 299.505709 -194.060225 
L 300.045864 -192.574748 
L 300.554667 -191.089271 
L 301.028905 -189.603794 
L 301.465907 -188.118317 
L 301.863612 -186.63284 
L 302.220628 -185.147363 
L 302.536267 -183.661886 
L 302.810575 -182.176409 
L 303.044335 -180.690932 
L 303.239055 -179.205455 
L 303.396937 -177.719978 
L 303.520824 -176.234501 
L 303.614134 -174.749024 
L 303.680765 -173.263547 
L 303.725 -171.77807 
L 303.751385 -170.292593 
L 303.764606 -168.807116 
L 303.769356 -167.321639 
L 303.770194 -165.836162 
L 303.771414 -164.350685 
L 303.776915 -162.865208 
L 303.790072 -161.379731 
L 303.813637 -159.894254 
L 303.849634 -158.408777 
L 303.899298 -156.9233 
L 303.963014 -155.437823 
L 304.040293 -153.952346 
L 304.129772 -152.466869 
L 304.229235 -150.981391 
L 304.335665 -149.495914 
L 304.445317 -148.010437 
L 304.553813 -146.52496 
L 304.656262 -145.039483 
L 304.747388 -143.554006 
L 304.821679 -142.068529 
L 304.873536 -140.583052 
L 304.897432 -139.097575 
L 304.888067 -137.612098 
L 304.840516 -136.126621 
L 304.750364 -134.641144 
L 304.613836 -133.155667 
L 304.427897 -131.67019 
L 304.190338 -130.184713 
L 303.899839 -128.699236 
L 303.556 -127.213759 
L 303.159357 -125.728282 
L 302.711362 -124.242805 
L 302.214351 -122.757328 
L 301.671481 -121.271851 
L 301.086648 -119.786374 
L 300.464395 -118.300897 
L 299.809799 -116.81542 
L 299.128355 -115.329943 
L 298.425847 -113.844466 
L 297.708228 -112.358989 
L 296.981493 -110.873512 
L 296.251558 -109.388034 
L 295.524154 -107.902557 
L 294.804723 -106.41708 
L 294.098336 -104.931603 
L 293.409618 -103.446126 
L 292.742691 -101.960649 
L 292.101137 -100.475172 
L 291.487968 -98.989695 
L 290.905618 -97.504218 
L 290.355948 -96.018741 
L 289.840259 -94.533264 
L 289.359322 -93.047787 
L 288.913414 -91.56231 
L 288.502359 -90.076833 
L 288.125581 -88.591356 
L 287.782152 -87.105879 
L 287.470851 -85.620402 
z
" style="stroke: #3f3f3f; stroke-width: 1.25"/>
    </defs>
    <g clip-path="url(#pc78f49cf08)">
     <use xlink:href="#m1648832f51" x="0" y="360" style="fill: #3274a1; stroke: #3f3f3f; stroke-width: 1.25"/>
    </g>
   </g>
   <g id="PolyCollection_5">
    <defs>
     <path id="m90a6bd9be2" d="M 342.291016 -56.404242 
L 339.908984 -56.404242 
L 339.720158 -58.283335 
L 339.508701 -60.162428 
L 339.273198 -62.041522 
L 339.012359 -63.920615 
L 338.725059 -65.799708 
L 338.41038 -67.678802 
L 338.067654 -69.557895 
L 337.6965 -71.436988 
L 337.296863 -73.316082 
L 336.869049 -75.195175 
L 336.413751 -77.074268 
L 335.932076 -78.953362 
L 335.425556 -80.832455 
L 334.896153 -82.711548 
L 334.346257 -84.590642 
L 333.77867 -86.469735 
L 333.196583 -88.348828 
L 332.603532 -90.227922 
L 332.003361 -92.107015 
L 331.400154 -93.986108 
L 330.798178 -95.865202 
L 330.201801 -97.744295 
L 329.615421 -99.623388 
L 329.043378 -101.502482 
L 328.48987 -103.381575 
L 327.958875 -105.260668 
L 327.454067 -107.139762 
L 326.978749 -109.018855 
L 326.535783 -110.897948 
L 326.127541 -112.777042 
L 325.755863 -114.656135 
L 325.422031 -116.535228 
L 325.126752 -118.414322 
L 324.870168 -120.293415 
L 324.651867 -122.172508 
L 324.470922 -124.051602 
L 324.325928 -125.930695 
L 324.21507 -127.809788 
L 324.13618 -129.688882 
L 324.08682 -131.567975 
L 324.064358 -133.447068 
L 324.066053 -135.326162 
L 324.089134 -137.205255 
L 324.130886 -139.084348 
L 324.18872 -140.963442 
L 324.260245 -142.842535 
L 324.343324 -144.721628 
L 324.436125 -146.600722 
L 324.537157 -148.479815 
L 324.645296 -150.358908 
L 324.759798 -152.238002 
L 324.880299 -154.117095 
L 325.006804 -155.996188 
L 325.139662 -157.875282 
L 325.27954 -159.754375 
L 325.427377 -161.633468 
L 325.584337 -163.512562 
L 325.751759 -165.391655 
L 325.931097 -167.270748 
L 326.12386 -169.149842 
L 326.331555 -171.028935 
L 326.555628 -172.908028 
L 326.797405 -174.787122 
L 327.058043 -176.666215 
L 327.338481 -178.545308 
L 327.6394 -180.424402 
L 327.961191 -182.303495 
L 328.303924 -184.182588 
L 328.667337 -186.061682 
L 329.050824 -187.940775 
L 329.453435 -189.819868 
L 329.873885 -191.698962 
L 330.310574 -193.578055 
L 330.761607 -195.457148 
L 331.224832 -197.336242 
L 331.697873 -199.215335 
L 332.178179 -201.094428 
L 332.663064 -202.973522 
L 333.149765 -204.852615 
L 333.635488 -206.731708 
L 334.11746 -208.610802 
L 334.592976 -210.489895 
L 335.059451 -212.368988 
L 335.514457 -214.248082 
L 335.955761 -216.127175 
L 336.381361 -218.006268 
L 336.789504 -219.885362 
L 337.178711 -221.764455 
L 337.547786 -223.643548 
L 337.895817 -225.522642 
L 338.22218 -227.401735 
L 338.526528 -229.280828 
L 338.808776 -231.159922 
L 339.069087 -233.039015 
L 339.307844 -234.918108 
L 339.525632 -236.797202 
L 339.723204 -238.676295 
L 339.901458 -240.555388 
L 340.061408 -242.434482 
L 342.138592 -242.434482 
L 342.138592 -242.434482 
L 342.298542 -240.555388 
L 342.476796 -238.676295 
L 342.674368 -236.797202 
L 342.892156 -234.918108 
L 343.130913 -233.039015 
L 343.391224 -231.159922 
L 343.673472 -229.280828 
L 343.97782 -227.401735 
L 344.304183 -225.522642 
L 344.652214 -223.643548 
L 345.021289 -221.764455 
L 345.410496 -219.885362 
L 345.818639 -218.006268 
L 346.244239 -216.127175 
L 346.685543 -214.248082 
L 347.140549 -212.368988 
L 347.607024 -210.489895 
L 348.08254 -208.610802 
L 348.564512 -206.731708 
L 349.050235 -204.852615 
L 349.536936 -202.973522 
L 350.021821 -201.094428 
L 350.502127 -199.215335 
L 350.975168 -197.336242 
L 351.438393 -195.457148 
L 351.889426 -193.578055 
L 352.326115 -191.698962 
L 352.746565 -189.819868 
L 353.149176 -187.940775 
L 353.532663 -186.061682 
L 353.896076 -184.182588 
L 354.238809 -182.303495 
L 354.5606 -180.424402 
L 354.861519 -178.545308 
L 355.141957 -176.666215 
L 355.402595 -174.787122 
L 355.644372 -172.908028 
L 355.868445 -171.028935 
L 356.07614 -169.149842 
L 356.268903 -167.270748 
L 356.448241 -165.391655 
L 356.615663 -163.512562 
L 356.772623 -161.633468 
L 356.92046 -159.754375 
L 357.060338 -157.875282 
L 357.193196 -155.996188 
L 357.319701 -154.117095 
L 357.440202 -152.238002 
L 357.554704 -150.358908 
L 357.662843 -148.479815 
L 357.763875 -146.600722 
L 357.856676 -144.721628 
L 357.939755 -142.842535 
L 358.01128 -140.963442 
L 358.069114 -139.084348 
L 358.110866 -137.205255 
L 358.133947 -135.326162 
L 358.135642 -133.447068 
L 358.11318 -131.567975 
L 358.06382 -129.688882 
L 357.98493 -127.809788 
L 357.874072 -125.930695 
L 357.729078 -124.051602 
L 357.548133 -122.172508 
L 357.329832 -120.293415 
L 357.073248 -118.414322 
L 356.777969 -116.535228 
L 356.444137 -114.656135 
L 356.072459 -112.777042 
L 355.664217 -110.897948 
L 355.221251 -109.018855 
L 354.745933 -107.139762 
L 354.241125 -105.260668 
L 353.71013 -103.381575 
L 353.156622 -101.502482 
L 352.584579 -99.623388 
L 351.998199 -97.744295 
L 351.401822 -95.865202 
L 350.799846 -93.986108 
L 350.196639 -92.107015 
L 349.596468 -90.227922 
L 349.003417 -88.348828 
L 348.42133 -86.469735 
L 347.853743 -84.590642 
L 347.303847 -82.711548 
L 346.774444 -80.832455 
L 346.267924 -78.953362 
L 345.786249 -77.074268 
L 345.330951 -75.195175 
L 344.903137 -73.316082 
L 344.5035 -71.436988 
L 344.132346 -69.557895 
L 343.78962 -67.678802 
L 343.474941 -65.799708 
L 343.187641 -63.920615 
L 342.926802 -62.041522 
L 342.691299 -60.162428 
L 342.479842 -58.283335 
L 342.291016 -56.404242 
z
" style="stroke: #3f3f3f; stroke-width: 1.25"/>
    </defs>
    <g clip-path="url(#pc78f49cf08)">
     <use xlink:href="#m90a6bd9be2" x="0" y="360" style="fill: #3274a1; stroke: #3f3f3f; stroke-width: 1.25"/>
    </g>
   </g>
   <g id="PolyCollection_6">
    <defs>
     <path id="m600844e800" d="M 399.141939 -84.767315 
L 394.658061 -84.767315 
L 394.337682 -85.997691 
L 393.983691 -87.228067 
L 393.594579 -88.458443 
L 393.169099 -89.688819 
L 392.706311 -90.919195 
L 392.205647 -92.149571 
L 391.666954 -93.379947 
L 391.090553 -94.610323 
L 390.477276 -95.840699 
L 389.828508 -97.071075 
L 389.146216 -98.301451 
L 388.432963 -99.531827 
L 387.691922 -100.762203 
L 386.92686 -101.992579 
L 386.142123 -103.222955 
L 385.342594 -104.453331 
L 384.533644 -105.683707 
L 383.721058 -106.914083 
L 382.910954 -108.144459 
L 382.109685 -109.374835 
L 381.323727 -110.605211 
L 380.559561 -111.835587 
L 379.823543 -113.065963 
L 379.121771 -114.296339 
L 378.459955 -115.526715 
L 377.843284 -116.757091 
L 377.276305 -117.987467 
L 376.762806 -119.217843 
L 376.305718 -120.448219 
L 375.907037 -121.678595 
L 375.567758 -122.908971 
L 375.287841 -124.139347 
L 375.066195 -125.369723 
L 374.900699 -126.600099 
L 374.788234 -127.830475 
L 374.72476 -129.060851 
L 374.705406 -130.291227 
L 374.724585 -131.521603 
L 374.776138 -132.751979 
L 374.853487 -133.982355 
L 374.949804 -135.212731 
L 375.058191 -136.443107 
L 375.171863 -137.673483 
L 375.284328 -138.903859 
L 375.389564 -140.134235 
L 375.482178 -141.364611 
L 375.557563 -142.594987 
L 375.612014 -143.825363 
L 375.64284 -145.055739 
L 375.648432 -146.286115 
L 375.628316 -147.516491 
L 375.583161 -148.746867 
L 375.514765 -149.977243 
L 375.426009 -151.207619 
L 375.320773 -152.437995 
L 375.203838 -153.668371 
L 375.080753 -154.898747 
L 374.957684 -156.129123 
L 374.84125 -157.359499 
L 374.738344 -158.589875 
L 374.655952 -159.820251 
L 374.600964 -161.050627 
L 374.58 -162.281003 
L 374.599234 -163.511379 
L 374.664239 -164.741755 
L 374.77985 -165.972131 
L 374.950044 -167.202507 
L 375.177848 -168.432883 
L 375.465272 -169.663259 
L 375.813271 -170.893635 
L 376.221733 -172.124011 
L 376.689493 -173.354387 
L 377.214375 -174.584763 
L 377.793256 -175.815139 
L 378.422154 -177.045515 
L 379.096328 -178.275891 
L 379.810398 -179.506267 
L 380.55847 -180.736643 
L 381.334275 -181.967019 
L 382.1313 -183.197395 
L 382.942924 -184.427771 
L 383.762553 -185.658147 
L 384.583736 -186.888523 
L 385.400279 -188.118899 
L 386.206345 -189.349275 
L 386.996534 -190.579651 
L 387.765957 -191.810027 
L 388.51028 -193.040403 
L 389.225769 -194.270779 
L 389.909301 -195.501155 
L 390.558375 -196.731531 
L 391.171102 -197.961907 
L 391.74618 -199.192283 
L 392.282868 -200.422659 
L 392.780942 -201.653035 
L 393.240648 -202.883411 
L 393.662653 -204.113787 
L 394.047985 -205.344163 
L 394.397981 -206.574539 
L 399.402019 -206.574539 
L 399.402019 -206.574539 
L 399.752015 -205.344163 
L 400.137347 -204.113787 
L 400.559352 -202.883411 
L 401.019058 -201.653035 
L 401.517132 -200.422659 
L 402.05382 -199.192283 
L 402.628898 -197.961907 
L 403.241625 -196.731531 
L 403.890699 -195.501155 
L 404.574231 -194.270779 
L 405.28972 -193.040403 
L 406.034043 -191.810027 
L 406.803466 -190.579651 
L 407.593655 -189.349275 
L 408.399721 -188.118899 
L 409.216264 -186.888523 
L 410.037447 -185.658147 
L 410.857076 -184.427771 
L 411.6687 -183.197395 
L 412.465725 -181.967019 
L 413.24153 -180.736643 
L 413.989602 -179.506267 
L 414.703672 -178.275891 
L 415.377846 -177.045515 
L 416.006744 -175.815139 
L 416.585625 -174.584763 
L 417.110507 -173.354387 
L 417.578267 -172.124011 
L 417.986729 -170.893635 
L 418.334728 -169.663259 
L 418.622152 -168.432883 
L 418.849956 -167.202507 
L 419.02015 -165.972131 
L 419.135761 -164.741755 
L 419.200766 -163.511379 
L 419.22 -162.281003 
L 419.199036 -161.050627 
L 419.144048 -159.820251 
L 419.061656 -158.589875 
L 418.95875 -157.359499 
L 418.842316 -156.129123 
L 418.719247 -154.898747 
L 418.596162 -153.668371 
L 418.479227 -152.437995 
L 418.373991 -151.207619 
L 418.285235 -149.977243 
L 418.216839 -148.746867 
L 418.171684 -147.516491 
L 418.151568 -146.286115 
L 418.15716 -145.055739 
L 418.187986 -143.825363 
L 418.242437 -142.594987 
L 418.317822 -141.364611 
L 418.410436 -140.134235 
L 418.515672 -138.903859 
L 418.628137 -137.673483 
L 418.741809 -136.443107 
L 418.850196 -135.212731 
L 418.946513 -133.982355 
L 419.023862 -132.751979 
L 419.075415 -131.521603 
L 419.094594 -130.291227 
L 419.07524 -129.060851 
L 419.011766 -127.830475 
L 418.899301 -126.600099 
L 418.733805 -125.369723 
L 418.512159 -124.139347 
L 418.232242 -122.908971 
L 417.892963 -121.678595 
L 417.494282 -120.448219 
L 417.037194 -119.217843 
L 416.523695 -117.987467 
L 415.956716 -116.757091 
L 415.340045 -115.526715 
L 414.678229 -114.296339 
L 413.976457 -113.065963 
L 413.240439 -111.835587 
L 412.476273 -110.605211 
L 411.690315 -109.374835 
L 410.889046 -108.144459 
L 410.078942 -106.914083 
L 409.266356 -105.683707 
L 408.457406 -104.453331 
L 407.657877 -103.222955 
L 406.87314 -101.992579 
L 406.108078 -100.762203 
L 405.367037 -99.531827 
L 404.653784 -98.301451 
L 403.971492 -97.071075 
L 403.322724 -95.840699 
L 402.709447 -94.610323 
L 402.133046 -93.379947 
L 401.594353 -92.149571 
L 401.093689 -90.919195 
L 400.630901 -89.688819 
L 400.205421 -88.458443 
L 399.816309 -87.228067 
L 399.462318 -85.997691 
L 399.141939 -84.767315 
z
" style="stroke: #3f3f3f; stroke-width: 1.25"/>
    </defs>
    <g clip-path="url(#pc78f49cf08)">
     <use xlink:href="#m600844e800" x="0" y="360" style="fill: #3274a1; stroke: #3f3f3f; stroke-width: 1.25"/>
    </g>
   </g>
   <g id="PolyCollection_7">
    <defs>
     <path id="me4a0e5a0cc" d="M 454.253275 -77.501003 
L 451.146725 -77.501003 
L 450.904986 -79.243424 
L 450.6352 -80.985845 
L 450.335808 -82.728266 
L 450.005448 -84.470687 
L 449.643009 -86.213108 
L 449.247678 -87.95553 
L 448.819 -89.697951 
L 448.356919 -91.440372 
L 447.861829 -93.182793 
L 447.334607 -94.925214 
L 446.776644 -96.667635 
L 446.189871 -98.410056 
L 445.576758 -100.152478 
L 444.940318 -101.894899 
L 444.284085 -103.63732 
L 443.612084 -105.379741 
L 442.928779 -107.122162 
L 442.239021 -108.864583 
L 441.547964 -110.607004 
L 440.860984 -112.349426 
L 440.183585 -114.091847 
L 439.521287 -115.834268 
L 438.879529 -117.576689 
L 438.263549 -119.31911 
L 437.678284 -121.061531 
L 437.128264 -122.803952 
L 436.617516 -124.546374 
L 436.149486 -126.288795 
L 435.726966 -128.031216 
L 435.352049 -129.773637 
L 435.026086 -131.516058 
L 434.749684 -133.258479 
L 434.522703 -135.0009 
L 434.344286 -136.743322 
L 434.212905 -138.485743 
L 434.126417 -140.228164 
L 434.082149 -141.970585 
L 434.076976 -143.713006 
L 434.107428 -145.455427 
L 434.169787 -147.197848 
L 434.260193 -148.94027 
L 434.374754 -150.682691 
L 434.509638 -152.425112 
L 434.661174 -154.167533 
L 434.825931 -155.909954 
L 435.000795 -157.652375 
L 435.183023 -159.394796 
L 435.370292 -161.137218 
L 435.560731 -162.879639 
L 435.752935 -164.62206 
L 435.945969 -166.364481 
L 436.139356 -168.106902 
L 436.333056 -169.849323 
L 436.527434 -171.591744 
L 436.723212 -173.334166 
L 436.921427 -175.076587 
L 437.123371 -176.819008 
L 437.330531 -178.561429 
L 437.544531 -180.30385 
L 437.767069 -182.046271 
L 437.999852 -183.788692 
L 438.24454 -185.531114 
L 438.502689 -187.273535 
L 438.775696 -189.015956 
L 439.064757 -190.758377 
L 439.370822 -192.500798 
L 439.694562 -194.243219 
L 440.036344 -195.985641 
L 440.39621 -197.728062 
L 440.773867 -199.470483 
L 441.168685 -201.212904 
L 441.579701 -202.955325 
L 442.005634 -204.697746 
L 442.444905 -206.440167 
L 442.895666 -208.182589 
L 443.355833 -209.92501 
L 443.823126 -211.667431 
L 444.295115 -213.409852 
L 444.769263 -215.152273 
L 445.242976 -216.894694 
L 445.713653 -218.637115 
L 446.178733 -220.379537 
L 446.635742 -222.121958 
L 447.082334 -223.864379 
L 447.516331 -225.6068 
L 447.935753 -227.349221 
L 448.338851 -229.091642 
L 448.724121 -230.834063 
L 449.090324 -232.576485 
L 449.436489 -234.318906 
L 449.761919 -236.061327 
L 450.066181 -237.803748 
L 450.349098 -239.546169 
L 450.610737 -241.28859 
L 450.851382 -243.031011 
L 451.071519 -244.773433 
L 451.271808 -246.515854 
L 451.453056 -248.258275 
L 451.616192 -250.000696 
L 453.783808 -250.000696 
L 453.783808 -250.000696 
L 453.946944 -248.258275 
L 454.128192 -246.515854 
L 454.328481 -244.773433 
L 454.548618 -243.031011 
L 454.789263 -241.28859 
L 455.050902 -239.546169 
L 455.333819 -237.803748 
L 455.638081 -236.061327 
L 455.963511 -234.318906 
L 456.309676 -232.576485 
L 456.675879 -230.834063 
L 457.061149 -229.091642 
L 457.464247 -227.349221 
L 457.883669 -225.6068 
L 458.317666 -223.864379 
L 458.764258 -222.121958 
L 459.221267 -220.379537 
L 459.686347 -218.637115 
L 460.157024 -216.894694 
L 460.630737 -215.152273 
L 461.104885 -213.409852 
L 461.576874 -211.667431 
L 462.044167 -209.92501 
L 462.504334 -208.182589 
L 462.955095 -206.440167 
L 463.394366 -204.697746 
L 463.820299 -202.955325 
L 464.231315 -201.212904 
L 464.626133 -199.470483 
L 465.00379 -197.728062 
L 465.363656 -195.985641 
L 465.705438 -194.243219 
L 466.029178 -192.500798 
L 466.335243 -190.758377 
L 466.624304 -189.015956 
L 466.897311 -187.273535 
L 467.15546 -185.531114 
L 467.400148 -183.788692 
L 467.632931 -182.046271 
L 467.855469 -180.30385 
L 468.069469 -178.561429 
L 468.276629 -176.819008 
L 468.478573 -175.076587 
L 468.676788 -173.334166 
L 468.872566 -171.591744 
L 469.066944 -169.849323 
L 469.260644 -168.106902 
L 469.454031 -166.364481 
L 469.647065 -164.62206 
L 469.839269 -162.879639 
L 470.029708 -161.137218 
L 470.216977 -159.394796 
L 470.399205 -157.652375 
L 470.574069 -155.909954 
L 470.738826 -154.167533 
L 470.890362 -152.425112 
L 471.025246 -150.682691 
L 471.139807 -148.94027 
L 471.230213 -147.197848 
L 471.292572 -145.455427 
L 471.323024 -143.713006 
L 471.317851 -141.970585 
L 471.273583 -140.228164 
L 471.187095 -138.485743 
L 471.055714 -136.743322 
L 470.877297 -135.0009 
L 470.650316 -133.258479 
L 470.373914 -131.516058 
L 470.047951 -129.773637 
L 469.673034 -128.031216 
L 469.250514 -126.288795 
L 468.782484 -124.546374 
L 468.271736 -122.803952 
L 467.721716 -121.061531 
L 467.136451 -119.31911 
L 466.520471 -117.576689 
L 465.878713 -115.834268 
L 465.216415 -114.091847 
L 464.539016 -112.349426 
L 463.852036 -110.607004 
L 463.160979 -108.864583 
L 462.471221 -107.122162 
L 461.787916 -105.379741 
L 461.115915 -103.63732 
L 460.459682 -101.894899 
L 459.823242 -100.152478 
L 459.210129 -98.410056 
L 458.623356 -96.667635 
L 458.065393 -94.925214 
L 457.538171 -93.182793 
L 457.043081 -91.440372 
L 456.581 -89.697951 
L 456.152322 -87.95553 
L 455.756991 -86.213108 
L 455.394552 -84.470687 
L 455.064192 -82.728266 
L 454.7648 -80.985845 
L 454.495014 -79.243424 
L 454.253275 -77.501003 
z
" style="stroke: #3f3f3f; stroke-width: 1.25"/>
    </defs>
    <g clip-path="url(#pc78f49cf08)">
     <use xlink:href="#me4a0e5a0cc" x="0" y="360" style="fill: #3274a1; stroke: #3f3f3f; stroke-width: 1.25"/>
    </g>
   </g>
   <g id="PolyCollection_8">
    <defs>
     <path id="me38c0d6443" d="M 509.623781 -52.2 
L 507.376219 -52.2 
L 507.201694 -54.144199 
L 507.006725 -56.088399 
L 506.79008 -58.032598 
L 506.550645 -59.976797 
L 506.287461 -61.920997 
L 505.999754 -63.865196 
L 505.68698 -65.809396 
L 505.348854 -67.753595 
L 504.985387 -69.697794 
L 504.596916 -71.641994 
L 504.184129 -73.586193 
L 503.748087 -75.530392 
L 503.290235 -77.474592 
L 502.812411 -79.418791 
L 502.316838 -81.36299 
L 501.806116 -83.30719 
L 501.283194 -85.251389 
L 500.75134 -87.195589 
L 500.214098 -89.139788 
L 499.675231 -91.083987 
L 499.138663 -93.028187 
L 498.608407 -94.972386 
L 498.088492 -96.916585 
L 497.582879 -98.860785 
L 497.095381 -100.804984 
L 496.629581 -102.749183 
L 496.188751 -104.693383 
L 495.775778 -106.637582 
L 495.393099 -108.581782 
L 495.042636 -110.525981 
L 494.725761 -112.47018 
L 494.443255 -114.41438 
L 494.195296 -116.358579 
L 493.981458 -118.302778 
L 493.800725 -120.246978 
L 493.651529 -122.191177 
L 493.531795 -124.135376 
L 493.439006 -126.079576 
L 493.370285 -128.023775 
L 493.322479 -129.967975 
L 493.292261 -131.912174 
L 493.276231 -133.856373 
L 493.271023 -135.800573 
L 493.273415 -137.744772 
L 493.280422 -139.688971 
L 493.289399 -141.633171 
L 493.298121 -143.57737 
L 493.304852 -145.521569 
L 493.308404 -147.465769 
L 493.308174 -149.409968 
L 493.304162 -151.354168 
L 493.296969 -153.298367 
L 493.287785 -155.242566 
L 493.278343 -157.186766 
L 493.270871 -159.130965 
L 493.268014 -161.075164 
L 493.272757 -163.019364 
L 493.288327 -164.963563 
L 493.318091 -166.907762 
L 493.365453 -168.851962 
L 493.433745 -170.796161 
L 493.526123 -172.740361 
L 493.64547 -174.68456 
L 493.794307 -176.628759 
L 493.974713 -178.572959 
L 494.188262 -180.517158 
L 494.435973 -182.461357 
L 494.718275 -184.405557 
L 495.034995 -186.349756 
L 495.385351 -188.293955 
L 495.767976 -190.238155 
L 496.180944 -192.182354 
L 496.62182 -194.126554 
L 497.087716 -196.070753 
L 497.575357 -198.014952 
L 498.081155 -199.959152 
L 498.601296 -201.903351 
L 499.131812 -203.84755 
L 499.668671 -205.79175 
L 500.207854 -207.735949 
L 500.745433 -209.680148 
L 501.277638 -211.624348 
L 501.800922 -213.568547 
L 502.31201 -215.512747 
L 502.807949 -217.456946 
L 503.286136 -219.401145 
L 503.744341 -221.345345 
L 504.180727 -223.289544 
L 504.593843 -225.233743 
L 504.982627 -227.177943 
L 505.346388 -229.122142 
L 505.68479 -231.066341 
L 505.99782 -233.010541 
L 506.285761 -234.95474 
L 506.54916 -236.89894 
L 506.788789 -238.843139 
L 507.005609 -240.787338 
L 507.200735 -242.731538 
L 507.375399 -244.675737 
L 509.624601 -244.675737 
L 509.624601 -244.675737 
L 509.799265 -242.731538 
L 509.994391 -240.787338 
L 510.211211 -238.843139 
L 510.45084 -236.89894 
L 510.714239 -234.95474 
L 511.00218 -233.010541 
L 511.31521 -231.066341 
L 511.653612 -229.122142 
L 512.017373 -227.177943 
L 512.406157 -225.233743 
L 512.819273 -223.289544 
L 513.255659 -221.345345 
L 513.713864 -219.401145 
L 514.192051 -217.456946 
L 514.68799 -215.512747 
L 515.199078 -213.568547 
L 515.722362 -211.624348 
L 516.254567 -209.680148 
L 516.792146 -207.735949 
L 517.331329 -205.79175 
L 517.868188 -203.84755 
L 518.398704 -201.903351 
L 518.918845 -199.959152 
L 519.424643 -198.014952 
L 519.912284 -196.070753 
L 520.37818 -194.126554 
L 520.819056 -192.182354 
L 521.232024 -190.238155 
L 521.614649 -188.293955 
L 521.965005 -186.349756 
L 522.281725 -184.405557 
L 522.564027 -182.461357 
L 522.811738 -180.517158 
L 523.025287 -178.572959 
L 523.205693 -176.628759 
L 523.35453 -174.68456 
L 523.473877 -172.740361 
L 523.566255 -170.796161 
L 523.634547 -168.851962 
L 523.681909 -166.907762 
L 523.711673 -164.963563 
L 523.727243 -163.019364 
L 523.731986 -161.075164 
L 523.729129 -159.130965 
L 523.721657 -157.186766 
L 523.712215 -155.242566 
L 523.703031 -153.298367 
L 523.695838 -151.354168 
L 523.691826 -149.409968 
L 523.691596 -147.465769 
L 523.695148 -145.521569 
L 523.701879 -143.57737 
L 523.710601 -141.633171 
L 523.719578 -139.688971 
L 523.726585 -137.744772 
L 523.728977 -135.800573 
L 523.723769 -133.856373 
L 523.707739 -131.912174 
L 523.677521 -129.967975 
L 523.629715 -128.023775 
L 523.560994 -126.079576 
L 523.468205 -124.135376 
L 523.348471 -122.191177 
L 523.199275 -120.246978 
L 523.018542 -118.302778 
L 522.804704 -116.358579 
L 522.556745 -114.41438 
L 522.274239 -112.47018 
L 521.957364 -110.525981 
L 521.606901 -108.581782 
L 521.224222 -106.637582 
L 520.811249 -104.693383 
L 520.370419 -102.749183 
L 519.904619 -100.804984 
L 519.417121 -98.860785 
L 518.911508 -96.916585 
L 518.391593 -94.972386 
L 517.861337 -93.028187 
L 517.324769 -91.083987 
L 516.785902 -89.139788 
L 516.24866 -87.195589 
L 515.716806 -85.251389 
L 515.193884 -83.30719 
L 514.683162 -81.36299 
L 514.187589 -79.418791 
L 513.709765 -77.474592 
L 513.251913 -75.530392 
L 512.815871 -73.586193 
L 512.403084 -71.641994 
L 512.014613 -69.697794 
L 511.651146 -67.753595 
L 511.31302 -65.809396 
L 511.000246 -63.865196 
L 510.712539 -61.920997 
L 510.449355 -59.976797 
L 510.20992 -58.032598 
L 509.993275 -56.088399 
L 509.798306 -54.144199 
L 509.623781 -52.2 
z
" style="stroke: #3f3f3f; stroke-width: 1.25"/>
    </defs>
    <g clip-path="url(#pc78f49cf08)">
     <use xlink:href="#me38c0d6443" x="0" y="360" style="fill: #3274a1; stroke: #3f3f3f; stroke-width: 1.25"/>
    </g>
   </g>
   <g id="PolyCollection_9">
    <defs>
     <path id="m7931c6d7be" d="M 566.076428 -80.667384 
L 562.523572 -80.667384 
L 562.251546 -82.095419 
L 561.948434 -83.523454 
L 561.612535 -84.951489 
L 561.242362 -86.379524 
L 560.836701 -87.807559 
L 560.39467 -89.235594 
L 559.91577 -90.663629 
L 559.399946 -92.091664 
L 558.847632 -93.519699 
L 558.259801 -94.947734 
L 557.63799 -96.375769 
L 556.984337 -97.803804 
L 556.301581 -99.23184 
L 555.593073 -100.659875 
L 554.862747 -102.08791 
L 554.115095 -103.515945 
L 553.355116 -104.94398 
L 552.588246 -106.372015 
L 551.820279 -107.80005 
L 551.05727 -109.228085 
L 550.305421 -110.65612 
L 549.570966 -112.084155 
L 548.860038 -113.51219 
L 548.178542 -114.940225 
L 547.532019 -116.36826 
L 546.925517 -117.796295 
L 546.363477 -119.22433 
L 545.849617 -120.652365 
L 545.386843 -122.0804 
L 544.977177 -123.508435 
L 544.621704 -124.93647 
L 544.320546 -126.364506 
L 544.072864 -127.792541 
L 543.876882 -129.220576 
L 543.729944 -130.648611 
L 543.62859 -132.076646 
L 543.568662 -133.504681 
L 543.545423 -134.932716 
L 543.553704 -136.360751 
L 543.588051 -137.788786 
L 543.642891 -139.216821 
L 543.712694 -140.644856 
L 543.792138 -142.072891 
L 543.87626 -143.500926 
L 543.960605 -144.928961 
L 544.041348 -146.356996 
L 544.115401 -147.785031 
L 544.180495 -149.213066 
L 544.235238 -150.641101 
L 544.279143 -152.069136 
L 544.312626 -153.497172 
L 544.336983 -154.925207 
L 544.354333 -156.353242 
L 544.367542 -157.781277 
L 544.380122 -159.209312 
L 544.396115 -160.637347 
L 544.419961 -162.065382 
L 544.456356 -163.493417 
L 544.510105 -164.921452 
L 544.585979 -166.349487 
L 544.688566 -167.777522 
L 544.82214 -169.205557 
L 544.990533 -170.633592 
L 545.197032 -172.061627 
L 545.44428 -173.489662 
L 545.734213 -174.917697 
L 546.068002 -176.345732 
L 546.446031 -177.773767 
L 546.867883 -179.201802 
L 547.332361 -180.629838 
L 547.837515 -182.057873 
L 548.3807 -183.485908 
L 548.958637 -184.913943 
L 549.567502 -186.341978 
L 550.203007 -187.770013 
L 550.860507 -189.198048 
L 551.535097 -190.626083 
L 552.221718 -192.054118 
L 552.915261 -193.482153 
L 553.610662 -194.910188 
L 554.302996 -196.338223 
L 554.987561 -197.766258 
L 555.659947 -199.194293 
L 556.316107 -200.622328 
L 556.952397 -202.050363 
L 557.56562 -203.478398 
L 558.153051 -204.906433 
L 558.712446 -206.334469 
L 559.242051 -207.762504 
L 559.740586 -209.190539 
L 560.20723 -210.618574 
L 560.641597 -212.046609 
L 561.043701 -213.474644 
L 561.41392 -214.902679 
L 561.75295 -216.330714 
L 562.061768 -217.758749 
L 562.341584 -219.186784 
L 562.593794 -220.614819 
L 562.819942 -222.042854 
L 565.780058 -222.042854 
L 565.780058 -222.042854 
L 566.006206 -220.614819 
L 566.258416 -219.186784 
L 566.538232 -217.758749 
L 566.84705 -216.330714 
L 567.18608 -214.902679 
L 567.556299 -213.474644 
L 567.958403 -212.046609 
L 568.39277 -210.618574 
L 568.859414 -209.190539 
L 569.357949 -207.762504 
L 569.887554 -206.334469 
L 570.446949 -204.906433 
L 571.03438 -203.478398 
L 571.647603 -202.050363 
L 572.283893 -200.622328 
L 572.940053 -199.194293 
L 573.612439 -197.766258 
L 574.297004 -196.338223 
L 574.989338 -194.910188 
L 575.684739 -193.482153 
L 576.378282 -192.054118 
L 577.064903 -190.626083 
L 577.739493 -189.198048 
L 578.396993 -187.770013 
L 579.032498 -186.341978 
L 579.641363 -184.913943 
L 580.2193 -183.485908 
L 580.762485 -182.057873 
L 581.267639 -180.629838 
L 581.732117 -179.201802 
L 582.153969 -177.773767 
L 582.531998 -176.345732 
L 582.865787 -174.917697 
L 583.15572 -173.489662 
L 583.402968 -172.061627 
L 583.609467 -170.633592 
L 583.77786 -169.205557 
L 583.911434 -167.777522 
L 584.014021 -166.349487 
L 584.089895 -164.921452 
L 584.143644 -163.493417 
L 584.180039 -162.065382 
L 584.203885 -160.637347 
L 584.219878 -159.209312 
L 584.232458 -157.781277 
L 584.245667 -156.353242 
L 584.263017 -154.925207 
L 584.287374 -153.497172 
L 584.320857 -152.069136 
L 584.364762 -150.641101 
L 584.419505 -149.213066 
L 584.484599 -147.785031 
L 584.558652 -146.356996 
L 584.639395 -144.928961 
L 584.72374 -143.500926 
L 584.807862 -142.072891 
L 584.887306 -140.644856 
L 584.957109 -139.216821 
L 585.011949 -137.788786 
L 585.046296 -136.360751 
L 585.054577 -134.932716 
L 585.031338 -133.504681 
L 584.97141 -132.076646 
L 584.870056 -130.648611 
L 584.723118 -129.220576 
L 584.527136 -127.792541 
L 584.279454 -126.364506 
L 583.978296 -124.93647 
L 583.622823 -123.508435 
L 583.213157 -122.0804 
L 582.750383 -120.652365 
L 582.236523 -119.22433 
L 581.674483 -117.796295 
L 581.067981 -116.36826 
L 580.421458 -114.940225 
L 579.739962 -113.51219 
L 579.029034 -112.084155 
L 578.294579 -110.65612 
L 577.54273 -109.228085 
L 576.779721 -107.80005 
L 576.011754 -106.372015 
L 575.244884 -104.94398 
L 574.484905 -103.515945 
L 573.737253 -102.08791 
L 573.006927 -100.659875 
L 572.298419 -99.23184 
L 571.615663 -97.803804 
L 570.96201 -96.375769 
L 570.340199 -94.947734 
L 569.752368 -93.519699 
L 569.200054 -92.091664 
L 568.68423 -90.663629 
L 568.20533 -89.235594 
L 567.763299 -87.807559 
L 567.357638 -86.379524 
L 566.987465 -84.951489 
L 566.651566 -83.523454 
L 566.348454 -82.095419 
L 566.076428 -80.667384 
z
" style="stroke: #3f3f3f; stroke-width: 1.25"/>
    </defs>
    <g clip-path="url(#pc78f49cf08)">
     <use xlink:href="#m7931c6d7be" x="0" y="360" style="fill: #3274a1; stroke: #3f3f3f; stroke-width: 1.25"/>
    </g>
   </g>
   <g id="PolyCollection_10">
    <defs>
     <path id="m3ff317435f" d="M 621.950177 -85.903083 
L 618.249823 -85.903083 
L 617.970212 -87.285247 
L 617.659142 -88.66741 
L 617.314945 -90.049574 
L 616.936176 -91.431738 
L 616.521667 -92.813902 
L 616.070589 -94.196065 
L 615.582501 -95.578229 
L 615.05741 -96.960393 
L 614.495817 -98.342557 
L 613.898764 -99.72472 
L 613.267862 -101.106884 
L 612.605322 -102.489048 
L 611.913961 -103.871212 
L 611.197204 -105.253375 
L 610.459067 -106.635539 
L 609.70412 -108.017703 
L 608.937442 -109.399867 
L 608.164549 -110.78203 
L 607.391317 -112.164194 
L 606.62388 -113.546358 
L 605.868521 -114.928522 
L 605.131551 -116.310685 
L 604.419182 -117.692849 
L 603.737387 -119.075013 
L 603.091771 -120.457176 
L 602.48744 -121.83934 
L 601.928872 -123.221504 
L 601.41981 -124.603668 
L 600.963161 -125.985831 
L 600.560921 -127.367995 
L 600.214118 -128.750159 
L 599.922779 -130.132323 
L 599.685929 -131.514486 
L 599.50161 -132.89665 
L 599.366936 -134.278814 
L 599.278167 -135.660978 
L 599.230813 -137.043141 
L 599.219759 -138.425305 
L 599.239411 -139.807469 
L 599.283851 -141.189633 
L 599.347013 -142.571796 
L 599.422854 -143.95396 
L 599.505527 -145.336124 
L 599.589558 -146.718288 
L 599.669995 -148.100451 
L 599.74256 -149.482615 
L 599.803765 -150.864779 
L 599.851014 -152.246943 
L 599.882674 -153.629106 
L 599.898119 -155.01127 
L 599.89774 -156.393434 
L 599.882928 -157.775598 
L 599.856025 -159.157761 
L 599.820248 -160.539925 
L 599.779588 -161.922089 
L 599.738686 -163.304253 
L 599.702688 -164.686416 
L 599.677095 -166.06858 
L 599.667596 -167.450744 
L 599.6799 -168.832907 
L 599.71957 -170.215071 
L 599.791867 -171.597235 
L 599.901598 -172.979399 
L 600.052985 -174.361562 
L 600.249551 -175.743726 
L 600.494023 -177.12589 
L 600.788271 -178.508054 
L 601.133255 -179.890217 
L 601.529013 -181.272381 
L 601.974661 -182.654545 
L 602.468429 -184.036709 
L 603.007707 -185.418872 
L 603.58912 -186.801036 
L 604.208617 -188.1832 
L 604.861566 -189.565364 
L 605.542877 -190.947527 
L 606.247108 -192.329691 
L 606.968595 -193.711855 
L 607.701566 -195.094019 
L 608.440262 -196.476182 
L 609.179044 -197.858346 
L 609.912491 -199.24051 
L 610.635495 -200.622674 
L 611.343329 -202.004837 
L 612.031715 -203.387001 
L 612.696869 -204.769165 
L 613.335534 -206.151329 
L 613.944999 -207.533492 
L 614.523101 -208.915656 
L 615.068222 -210.29782 
L 615.579269 -211.679984 
L 616.055643 -213.062147 
L 616.497207 -214.444311 
L 616.904243 -215.826475 
L 617.277402 -217.208639 
L 617.61766 -218.590802 
L 617.926262 -219.972966 
L 618.204677 -221.35513 
L 618.454543 -222.737293 
L 621.745457 -222.737293 
L 621.745457 -222.737293 
L 621.995323 -221.35513 
L 622.273738 -219.972966 
L 622.58234 -218.590802 
L 622.922598 -217.208639 
L 623.295757 -215.826475 
L 623.702793 -214.444311 
L 624.144357 -213.062147 
L 624.620731 -211.679984 
L 625.131778 -210.29782 
L 625.676899 -208.915656 
L 626.255001 -207.533492 
L 626.864466 -206.151329 
L 627.503131 -204.769165 
L 628.168285 -203.387001 
L 628.856671 -202.004837 
L 629.564505 -200.622674 
L 630.287509 -199.24051 
L 631.020956 -197.858346 
L 631.759738 -196.476182 
L 632.498434 -195.094019 
L 633.231405 -193.711855 
L 633.952892 -192.329691 
L 634.657123 -190.947527 
L 635.338434 -189.565364 
L 635.991383 -188.1832 
L 636.61088 -186.801036 
L 637.192293 -185.418872 
L 637.731571 -184.036709 
L 638.225339 -182.654545 
L 638.670987 -181.272381 
L 639.066745 -179.890217 
L 639.411729 -178.508054 
L 639.705977 -177.12589 
L 639.950449 -175.743726 
L 640.147015 -174.361562 
L 640.298402 -172.979399 
L 640.408133 -171.597235 
L 640.48043 -170.215071 
L 640.5201 -168.832907 
L 640.532404 -167.450744 
L 640.522905 -166.06858 
L 640.497312 -164.686416 
L 640.461314 -163.304253 
L 640.420412 -161.922089 
L 640.379752 -160.539925 
L 640.343975 -159.157761 
L 640.317072 -157.775598 
L 640.30226 -156.393434 
L 640.301881 -155.01127 
L 640.317326 -153.629106 
L 640.348986 -152.246943 
L 640.396235 -150.864779 
L 640.45744 -149.482615 
L 640.530005 -148.100451 
L 640.610442 -146.718288 
L 640.694473 -145.336124 
L 640.777146 -143.95396 
L 640.852987 -142.571796 
L 640.916149 -141.189633 
L 640.960589 -139.807469 
L 640.980241 -138.425305 
L 640.969187 -137.043141 
L 640.921833 -135.660978 
L 640.833064 -134.278814 
L 640.69839 -132.89665 
L 640.514071 -131.514486 
L 640.277221 -130.132323 
L 639.985882 -128.750159 
L 639.639079 -127.367995 
L 639.236839 -125.985831 
L 638.78019 -124.603668 
L 638.271128 -123.221504 
L 637.71256 -121.83934 
L 637.108229 -120.457176 
L 636.462613 -119.075013 
L 635.780818 -117.692849 
L 635.068449 -116.310685 
L 634.331479 -114.928522 
L 633.57612 -113.546358 
L 632.808683 -112.164194 
L 632.035451 -110.78203 
L 631.262558 -109.399867 
L 630.49588 -108.017703 
L 629.740933 -106.635539 
L 629.002796 -105.253375 
L 628.286039 -103.871212 
L 627.594678 -102.489048 
L 626.932138 -101.106884 
L 626.301236 -99.72472 
L 625.704183 -98.342557 
L 625.14259 -96.960393 
L 624.617499 -95.578229 
L 624.129411 -94.196065 
L 623.678333 -92.813902 
L 623.263824 -91.431738 
L 622.885055 -90.049574 
L 622.540858 -88.66741 
L 622.229788 -87.285247 
L 621.950177 -85.903083 
z
" style="stroke: #3f3f3f; stroke-width: 1.25"/>
    </defs>
    <g clip-path="url(#pc78f49cf08)">
     <use xlink:href="#m3ff317435f" x="0" y="360" style="fill: #3274a1; stroke: #3f3f3f; stroke-width: 1.25"/>
    </g>
   </g>
   <g id="matplotlib.axis_1">
    <g id="xtick_1">
     <g id="line2d_1">
      <defs>
       <path id="m95bbf04b5b" d="M 0 0 
L 0 3.5 
" style="stroke: #000000; stroke-width: 0.8"/>
      </defs>
      <g>
       <use xlink:href="#m95bbf04b5b" x="117.9" y="320.4" style="stroke: #000000; stroke-width: 0.8"/>
      </g>
     </g>
     <g id="text_1">
      <!-- 744.5874 -->
      <g transform="translate(94.042188 334.998438) scale(0.1 -0.1)">
       <defs>
        <path id="DejaVuSans-37" d="M 525 4666 
L 3525 4666 
L 3525 4397 
L 1831 0 
L 1172 0 
L 2766 4134 
L 525 4134 
L 525 4666 
z
" transform="scale(0.015625)"/>
        <path id="DejaVuSans-34" d="M 2419 4116 
L 825 1625 
L 2419 1625 
L 2419 4116 
z
M 2253 4666 
L 3047 4666 
L 3047 1625 
L 3713 1625 
L 3713 1100 
L 3047 1100 
L 3047 0 
L 2419 0 
L 2419 1100 
L 313 1100 
L 313 1709 
L 2253 4666 
z
" transform="scale(0.015625)"/>
        <path id="DejaVuSans-2e" d="M 684 794 
L 1344 794 
L 1344 0 
L 684 0 
L 684 794 
z
" transform="scale(0.015625)"/>
        <path id="DejaVuSans-35" d="M 691 4666 
L 3169 4666 
L 3169 4134 
L 1269 4134 
L 1269 2991 
Q 1406 3038 1543 3061 
Q 1681 3084 1819 3084 
Q 2600 3084 3056 2656 
Q 3513 2228 3513 1497 
Q 3513 744 3044 326 
Q 2575 -91 1722 -91 
Q 1428 -91 1123 -41 
Q 819 9 494 109 
L 494 744 
Q 775 591 1075 516 
Q 1375 441 1709 441 
Q 2250 441 2565 725 
Q 2881 1009 2881 1497 
Q 2881 1984 2565 2268 
Q 2250 2553 1709 2553 
Q 1456 2553 1204 2497 
Q 953 2441 691 2322 
L 691 4666 
z
" transform="scale(0.015625)"/>
        <path id="DejaVuSans-38" d="M 2034 2216 
Q 1584 2216 1326 1975 
Q 1069 1734 1069 1313 
Q 1069 891 1326 650 
Q 1584 409 2034 409 
Q 2484 409 2743 651 
Q 3003 894 3003 1313 
Q 3003 1734 2745 1975 
Q 2488 2216 2034 2216 
z
M 1403 2484 
Q 997 2584 770 2862 
Q 544 3141 544 3541 
Q 544 4100 942 4425 
Q 1341 4750 2034 4750 
Q 2731 4750 3128 4425 
Q 3525 4100 3525 3541 
Q 3525 3141 3298 2862 
Q 3072 2584 2669 2484 
Q 3125 2378 3379 2068 
Q 3634 1759 3634 1313 
Q 3634 634 3220 271 
Q 2806 -91 2034 -91 
Q 1263 -91 848 271 
Q 434 634 434 1313 
Q 434 1759 690 2068 
Q 947 2378 1403 2484 
z
M 1172 3481 
Q 1172 3119 1398 2916 
Q 1625 2713 2034 2713 
Q 2441 2713 2670 2916 
Q 2900 3119 2900 3481 
Q 2900 3844 2670 4047 
Q 2441 4250 2034 4250 
Q 1625 4250 1398 4047 
Q 1172 3844 1172 3481 
z
" transform="scale(0.015625)"/>
       </defs>
       <use xlink:href="#DejaVuSans-37"/>
       <use xlink:href="#DejaVuSans-34" x="63.623047"/>
       <use xlink:href="#DejaVuSans-34" x="127.246094"/>
       <use xlink:href="#DejaVuSans-2e" x="190.869141"/>
       <use xlink:href="#DejaVuSans-35" x="222.65625"/>
       <use xlink:href="#DejaVuSans-38" x="286.279297"/>
       <use xlink:href="#DejaVuSans-37" x="349.902344"/>
       <use xlink:href="#DejaVuSans-34" x="413.525391"/>
      </g>
     </g>
    </g>
    <g id="xtick_2">
     <g id="line2d_2">
      <g>
       <use xlink:href="#m95bbf04b5b" x="173.7" y="320.4" style="stroke: #000000; stroke-width: 0.8"/>
      </g>
     </g>
     <g id="text_2">
      <!-- 746.6023 -->
      <g transform="translate(149.842188 334.998438) scale(0.1 -0.1)">
       <defs>
        <path id="DejaVuSans-36" d="M 2113 2584 
Q 1688 2584 1439 2293 
Q 1191 2003 1191 1497 
Q 1191 994 1439 701 
Q 1688 409 2113 409 
Q 2538 409 2786 701 
Q 3034 994 3034 1497 
Q 3034 2003 2786 2293 
Q 2538 2584 2113 2584 
z
M 3366 4563 
L 3366 3988 
Q 3128 4100 2886 4159 
Q 2644 4219 2406 4219 
Q 1781 4219 1451 3797 
Q 1122 3375 1075 2522 
Q 1259 2794 1537 2939 
Q 1816 3084 2150 3084 
Q 2853 3084 3261 2657 
Q 3669 2231 3669 1497 
Q 3669 778 3244 343 
Q 2819 -91 2113 -91 
Q 1303 -91 875 529 
Q 447 1150 447 2328 
Q 447 3434 972 4092 
Q 1497 4750 2381 4750 
Q 2619 4750 2861 4703 
Q 3103 4656 3366 4563 
z
" transform="scale(0.015625)"/>
        <path id="DejaVuSans-30" d="M 2034 4250 
Q 1547 4250 1301 3770 
Q 1056 3291 1056 2328 
Q 1056 1369 1301 889 
Q 1547 409 2034 409 
Q 2525 409 2770 889 
Q 3016 1369 3016 2328 
Q 3016 3291 2770 3770 
Q 2525 4250 2034 4250 
z
M 2034 4750 
Q 2819 4750 3233 4129 
Q 3647 3509 3647 2328 
Q 3647 1150 3233 529 
Q 2819 -91 2034 -91 
Q 1250 -91 836 529 
Q 422 1150 422 2328 
Q 422 3509 836 4129 
Q 1250 4750 2034 4750 
z
" transform="scale(0.015625)"/>
        <path id="DejaVuSans-32" d="M 1228 531 
L 3431 531 
L 3431 0 
L 469 0 
L 469 531 
Q 828 903 1448 1529 
Q 2069 2156 2228 2338 
Q 2531 2678 2651 2914 
Q 2772 3150 2772 3378 
Q 2772 3750 2511 3984 
Q 2250 4219 1831 4219 
Q 1534 4219 1204 4116 
Q 875 4013 500 3803 
L 500 4441 
Q 881 4594 1212 4672 
Q 1544 4750 1819 4750 
Q 2544 4750 2975 4387 
Q 3406 4025 3406 3419 
Q 3406 3131 3298 2873 
Q 3191 2616 2906 2266 
Q 2828 2175 2409 1742 
Q 1991 1309 1228 531 
z
" transform="scale(0.015625)"/>
        <path id="DejaVuSans-33" d="M 2597 2516 
Q 3050 2419 3304 2112 
Q 3559 1806 3559 1356 
Q 3559 666 3084 287 
Q 2609 -91 1734 -91 
Q 1441 -91 1130 -33 
Q 819 25 488 141 
L 488 750 
Q 750 597 1062 519 
Q 1375 441 1716 441 
Q 2309 441 2620 675 
Q 2931 909 2931 1356 
Q 2931 1769 2642 2001 
Q 2353 2234 1838 2234 
L 1294 2234 
L 1294 2753 
L 1863 2753 
Q 2328 2753 2575 2939 
Q 2822 3125 2822 3475 
Q 2822 3834 2567 4026 
Q 2313 4219 1838 4219 
Q 1578 4219 1281 4162 
Q 984 4106 628 3988 
L 628 4550 
Q 988 4650 1302 4700 
Q 1616 4750 1894 4750 
Q 2613 4750 3031 4423 
Q 3450 4097 3450 3541 
Q 3450 3153 3228 2886 
Q 3006 2619 2597 2516 
z
" transform="scale(0.015625)"/>
       </defs>
       <use xlink:href="#DejaVuSans-37"/>
       <use xlink:href="#DejaVuSans-34" x="63.623047"/>
       <use xlink:href="#DejaVuSans-36" x="127.246094"/>
       <use xlink:href="#DejaVuSans-2e" x="190.869141"/>
       <use xlink:href="#DejaVuSans-36" x="222.65625"/>
       <use xlink:href="#DejaVuSans-30" x="286.279297"/>
       <use xlink:href="#DejaVuSans-32" x="349.902344"/>
       <use xlink:href="#DejaVuSans-33" x="413.525391"/>
      </g>
     </g>
    </g>
    <g id="xtick_3">
     <g id="line2d_3">
      <g>
       <use xlink:href="#m95bbf04b5b" x="229.5" y="320.4" style="stroke: #000000; stroke-width: 0.8"/>
      </g>
     </g>
     <g id="text_3">
      <!-- 768.5863 -->
      <g transform="translate(205.642188 334.998438) scale(0.1 -0.1)">
       <use xlink:href="#DejaVuSans-37"/>
       <use xlink:href="#DejaVuSans-36" x="63.623047"/>
       <use xlink:href="#DejaVuSans-38" x="127.246094"/>
       <use xlink:href="#DejaVuSans-2e" x="190.869141"/>
       <use xlink:href="#DejaVuSans-35" x="222.65625"/>
       <use xlink:href="#DejaVuSans-38" x="286.279297"/>
       <use xlink:href="#DejaVuSans-36" x="349.902344"/>
       <use xlink:href="#DejaVuSans-33" x="413.525391"/>
      </g>
     </g>
    </g>
    <g id="xtick_4">
     <g id="line2d_4">
      <g>
       <use xlink:href="#m95bbf04b5b" x="285.3" y="320.4" style="stroke: #000000; stroke-width: 0.8"/>
      </g>
     </g>
     <g id="text_4">
      <!-- 780.5508 -->
      <g transform="translate(261.442187 334.998438) scale(0.1 -0.1)">
       <use xlink:href="#DejaVuSans-37"/>
       <use xlink:href="#DejaVuSans-38" x="63.623047"/>
       <use xlink:href="#DejaVuSans-30" x="127.246094"/>
       <use xlink:href="#DejaVuSans-2e" x="190.869141"/>
       <use xlink:href="#DejaVuSans-35" x="222.65625"/>
       <use xlink:href="#DejaVuSans-35" x="286.279297"/>
       <use xlink:href="#DejaVuSans-30" x="349.902344"/>
       <use xlink:href="#DejaVuSans-38" x="413.525391"/>
      </g>
     </g>
    </g>
    <g id="xtick_5">
     <g id="line2d_5">
      <g>
       <use xlink:href="#m95bbf04b5b" x="341.1" y="320.4" style="stroke: #000000; stroke-width: 0.8"/>
      </g>
     </g>
     <g id="text_5">
      <!-- 782.5656 -->
      <g transform="translate(317.242188 334.998438) scale(0.1 -0.1)">
       <use xlink:href="#DejaVuSans-37"/>
       <use xlink:href="#DejaVuSans-38" x="63.623047"/>
       <use xlink:href="#DejaVuSans-32" x="127.246094"/>
       <use xlink:href="#DejaVuSans-2e" x="190.869141"/>
       <use xlink:href="#DejaVuSans-35" x="222.65625"/>
       <use xlink:href="#DejaVuSans-36" x="286.279297"/>
       <use xlink:href="#DejaVuSans-35" x="349.902344"/>
       <use xlink:href="#DejaVuSans-36" x="413.525391"/>
      </g>
     </g>
    </g>
    <g id="xtick_6">
     <g id="line2d_6">
      <g>
       <use xlink:href="#m95bbf04b5b" x="396.9" y="320.4" style="stroke: #000000; stroke-width: 0.8"/>
      </g>
     </g>
     <g id="text_6">
      <!-- 786.6004 -->
      <g transform="translate(373.042187 334.998438) scale(0.1 -0.1)">
       <use xlink:href="#DejaVuSans-37"/>
       <use xlink:href="#DejaVuSans-38" x="63.623047"/>
       <use xlink:href="#DejaVuSans-36" x="127.246094"/>
       <use xlink:href="#DejaVuSans-2e" x="190.869141"/>
       <use xlink:href="#DejaVuSans-36" x="222.65625"/>
       <use xlink:href="#DejaVuSans-30" x="286.279297"/>
       <use xlink:href="#DejaVuSans-30" x="349.902344"/>
       <use xlink:href="#DejaVuSans-34" x="413.525391"/>
      </g>
     </g>
    </g>
    <g id="xtick_7">
     <g id="line2d_7">
      <g>
       <use xlink:href="#m95bbf04b5b" x="452.7" y="320.4" style="stroke: #000000; stroke-width: 0.8"/>
      </g>
     </g>
     <g id="text_7">
      <!-- 796.525 -->
      <g transform="translate(432.023438 334.998438) scale(0.1 -0.1)">
       <defs>
        <path id="DejaVuSans-39" d="M 703 97 
L 703 672 
Q 941 559 1184 500 
Q 1428 441 1663 441 
Q 2288 441 2617 861 
Q 2947 1281 2994 2138 
Q 2813 1869 2534 1725 
Q 2256 1581 1919 1581 
Q 1219 1581 811 2004 
Q 403 2428 403 3163 
Q 403 3881 828 4315 
Q 1253 4750 1959 4750 
Q 2769 4750 3195 4129 
Q 3622 3509 3622 2328 
Q 3622 1225 3098 567 
Q 2575 -91 1691 -91 
Q 1453 -91 1209 -44 
Q 966 3 703 97 
z
M 1959 2075 
Q 2384 2075 2632 2365 
Q 2881 2656 2881 3163 
Q 2881 3666 2632 3958 
Q 2384 4250 1959 4250 
Q 1534 4250 1286 3958 
Q 1038 3666 1038 3163 
Q 1038 2656 1286 2365 
Q 1534 2075 1959 2075 
z
" transform="scale(0.015625)"/>
       </defs>
       <use xlink:href="#DejaVuSans-37"/>
       <use xlink:href="#DejaVuSans-39" x="63.623047"/>
       <use xlink:href="#DejaVuSans-36" x="127.246094"/>
       <use xlink:href="#DejaVuSans-2e" x="190.869141"/>
       <use xlink:href="#DejaVuSans-35" x="222.65625"/>
       <use xlink:href="#DejaVuSans-32" x="286.279297"/>
       <use xlink:href="#DejaVuSans-35" x="349.902344"/>
      </g>
     </g>
    </g>
    <g id="xtick_8">
     <g id="line2d_8">
      <g>
       <use xlink:href="#m95bbf04b5b" x="508.5" y="320.4" style="stroke: #000000; stroke-width: 0.8"/>
      </g>
     </g>
     <g id="text_8">
      <!-- 798.54 -->
      <g transform="translate(491.004687 334.998438) scale(0.1 -0.1)">
       <use xlink:href="#DejaVuSans-37"/>
       <use xlink:href="#DejaVuSans-39" x="63.623047"/>
       <use xlink:href="#DejaVuSans-38" x="127.246094"/>
       <use xlink:href="#DejaVuSans-2e" x="190.869141"/>
       <use xlink:href="#DejaVuSans-35" x="222.65625"/>
       <use xlink:href="#DejaVuSans-34" x="286.279297"/>
      </g>
     </g>
    </g>
    <g id="xtick_9">
     <g id="line2d_9">
      <g>
       <use xlink:href="#m95bbf04b5b" x="564.3" y="320.4" style="stroke: #000000; stroke-width: 0.8"/>
      </g>
     </g>
     <g id="text_9">
      <!-- 808.5794 -->
      <g transform="translate(540.442188 334.998438) scale(0.1 -0.1)">
       <use xlink:href="#DejaVuSans-38"/>
       <use xlink:href="#DejaVuSans-30" x="63.623047"/>
       <use xlink:href="#DejaVuSans-38" x="127.246094"/>
       <use xlink:href="#DejaVuSans-2e" x="190.869141"/>
       <use xlink:href="#DejaVuSans-35" x="222.65625"/>
       <use xlink:href="#DejaVuSans-37" x="286.279297"/>
       <use xlink:href="#DejaVuSans-39" x="349.902344"/>
       <use xlink:href="#DejaVuSans-34" x="413.525391"/>
      </g>
     </g>
    </g>
    <g id="xtick_10">
     <g id="line2d_10">
      <g>
       <use xlink:href="#m95bbf04b5b" x="620.1" y="320.4" style="stroke: #000000; stroke-width: 0.8"/>
      </g>
     </g>
     <g id="text_10">
      <!-- 824.5538 -->
      <g transform="translate(596.242188 334.998438) scale(0.1 -0.1)">
       <use xlink:href="#DejaVuSans-38"/>
       <use xlink:href="#DejaVuSans-32" x="63.623047"/>
       <use xlink:href="#DejaVuSans-34" x="127.246094"/>
       <use xlink:href="#DejaVuSans-2e" x="190.869141"/>
       <use xlink:href="#DejaVuSans-35" x="222.65625"/>
       <use xlink:href="#DejaVuSans-35" x="286.279297"/>
       <use xlink:href="#DejaVuSans-33" x="349.902344"/>
       <use xlink:href="#DejaVuSans-38" x="413.525391"/>
      </g>
     </g>
    </g>
    <g id="text_11">
     <!-- m/z values -->
     <g transform="translate(341.969531 348.676562) scale(0.1 -0.1)">
      <defs>
       <path id="DejaVuSans-6d" d="M 3328 2828 
Q 3544 3216 3844 3400 
Q 4144 3584 4550 3584 
Q 5097 3584 5394 3201 
Q 5691 2819 5691 2113 
L 5691 0 
L 5113 0 
L 5113 2094 
Q 5113 2597 4934 2840 
Q 4756 3084 4391 3084 
Q 3944 3084 3684 2787 
Q 3425 2491 3425 1978 
L 3425 0 
L 2847 0 
L 2847 2094 
Q 2847 2600 2669 2842 
Q 2491 3084 2119 3084 
Q 1678 3084 1418 2786 
Q 1159 2488 1159 1978 
L 1159 0 
L 581 0 
L 581 3500 
L 1159 3500 
L 1159 2956 
Q 1356 3278 1631 3431 
Q 1906 3584 2284 3584 
Q 2666 3584 2933 3390 
Q 3200 3197 3328 2828 
z
" transform="scale(0.015625)"/>
       <path id="DejaVuSans-2f" d="M 1625 4666 
L 2156 4666 
L 531 -594 
L 0 -594 
L 1625 4666 
z
" transform="scale(0.015625)"/>
       <path id="DejaVuSans-7a" d="M 353 3500 
L 3084 3500 
L 3084 2975 
L 922 459 
L 3084 459 
L 3084 0 
L 275 0 
L 275 525 
L 2438 3041 
L 353 3041 
L 353 3500 
z
" transform="scale(0.015625)"/>
       <path id="DejaVuSans-20" transform="scale(0.015625)"/>
       <path id="DejaVuSans-76" d="M 191 3500 
L 800 3500 
L 1894 563 
L 2988 3500 
L 3597 3500 
L 2284 0 
L 1503 0 
L 191 3500 
z
" transform="scale(0.015625)"/>
       <path id="DejaVuSans-61" d="M 2194 1759 
Q 1497 1759 1228 1600 
Q 959 1441 959 1056 
Q 959 750 1161 570 
Q 1363 391 1709 391 
Q 2188 391 2477 730 
Q 2766 1069 2766 1631 
L 2766 1759 
L 2194 1759 
z
M 3341 1997 
L 3341 0 
L 2766 0 
L 2766 531 
Q 2569 213 2275 61 
Q 1981 -91 1556 -91 
Q 1019 -91 701 211 
Q 384 513 384 1019 
Q 384 1609 779 1909 
Q 1175 2209 1959 2209 
L 2766 2209 
L 2766 2266 
Q 2766 2663 2505 2880 
Q 2244 3097 1772 3097 
Q 1472 3097 1187 3025 
Q 903 2953 641 2809 
L 641 3341 
Q 956 3463 1253 3523 
Q 1550 3584 1831 3584 
Q 2591 3584 2966 3190 
Q 3341 2797 3341 1997 
z
" transform="scale(0.015625)"/>
       <path id="DejaVuSans-6c" d="M 603 4863 
L 1178 4863 
L 1178 0 
L 603 0 
L 603 4863 
z
" transform="scale(0.015625)"/>
       <path id="DejaVuSans-75" d="M 544 1381 
L 544 3500 
L 1119 3500 
L 1119 1403 
Q 1119 906 1312 657 
Q 1506 409 1894 409 
Q 2359 409 2629 706 
Q 2900 1003 2900 1516 
L 2900 3500 
L 3475 3500 
L 3475 0 
L 2900 0 
L 2900 538 
Q 2691 219 2414 64 
Q 2138 -91 1772 -91 
Q 1169 -91 856 284 
Q 544 659 544 1381 
z
M 1991 3584 
L 1991 3584 
z
" transform="scale(0.015625)"/>
       <path id="DejaVuSans-65" d="M 3597 1894 
L 3597 1613 
L 953 1613 
Q 991 1019 1311 708 
Q 1631 397 2203 397 
Q 2534 397 2845 478 
Q 3156 559 3463 722 
L 3463 178 
Q 3153 47 2828 -22 
Q 2503 -91 2169 -91 
Q 1331 -91 842 396 
Q 353 884 353 1716 
Q 353 2575 817 3079 
Q 1281 3584 2069 3584 
Q 2775 3584 3186 3129 
Q 3597 2675 3597 1894 
z
M 3022 2063 
Q 3016 2534 2758 2815 
Q 2500 3097 2075 3097 
Q 1594 3097 1305 2825 
Q 1016 2553 972 2059 
L 3022 2063 
z
" transform="scale(0.015625)"/>
       <path id="DejaVuSans-73" d="M 2834 3397 
L 2834 2853 
Q 2591 2978 2328 3040 
Q 2066 3103 1784 3103 
Q 1356 3103 1142 2972 
Q 928 2841 928 2578 
Q 928 2378 1081 2264 
Q 1234 2150 1697 2047 
L 1894 2003 
Q 2506 1872 2764 1633 
Q 3022 1394 3022 966 
Q 3022 478 2636 193 
Q 2250 -91 1575 -91 
Q 1294 -91 989 -36 
Q 684 19 347 128 
L 347 722 
Q 666 556 975 473 
Q 1284 391 1588 391 
Q 1994 391 2212 530 
Q 2431 669 2431 922 
Q 2431 1156 2273 1281 
Q 2116 1406 1581 1522 
L 1381 1569 
Q 847 1681 609 1914 
Q 372 2147 372 2553 
Q 372 3047 722 3315 
Q 1072 3584 1716 3584 
Q 2034 3584 2315 3537 
Q 2597 3491 2834 3397 
z
" transform="scale(0.015625)"/>
      </defs>
      <use xlink:href="#DejaVuSans-6d"/>
      <use xlink:href="#DejaVuSans-2f" x="97.412109"/>
      <use xlink:href="#DejaVuSans-7a" x="131.103516"/>
      <use xlink:href="#DejaVuSans-20" x="183.59375"/>
      <use xlink:href="#DejaVuSans-76" x="215.380859"/>
      <use xlink:href="#DejaVuSans-61" x="274.560547"/>
      <use xlink:href="#DejaVuSans-6c" x="335.839844"/>
      <use xlink:href="#DejaVuSans-75" x="363.623047"/>
      <use xlink:href="#DejaVuSans-65" x="427.001953"/>
      <use xlink:href="#DejaVuSans-73" x="488.525391"/>
     </g>
    </g>
   </g>
   <g id="matplotlib.axis_2">
    <g id="ytick_1">
     <g id="line2d_11">
      <defs>
       <path id="m339365fd22" d="M 0 0 
L -3.5 0 
" style="stroke: #000000; stroke-width: 0.8"/>
      </defs>
      <g>
       <use xlink:href="#m339365fd22" x="90" y="297.825923" style="stroke: #000000; stroke-width: 0.8"/>
      </g>
     </g>
     <g id="text_12">
      <!-- 0.00 -->
      <g transform="translate(60.734375 301.625142) scale(0.1 -0.1)">
       <use xlink:href="#DejaVuSans-30"/>
       <use xlink:href="#DejaVuSans-2e" x="63.623047"/>
       <use xlink:href="#DejaVuSans-30" x="95.410156"/>
       <use xlink:href="#DejaVuSans-30" x="159.033203"/>
      </g>
     </g>
    </g>
    <g id="ytick_2">
     <g id="line2d_12">
      <g>
       <use xlink:href="#m339365fd22" x="90" y="250.240329" style="stroke: #000000; stroke-width: 0.8"/>
      </g>
     </g>
     <g id="text_13">
      <!-- 0.05 -->
      <g transform="translate(60.734375 254.039547) scale(0.1 -0.1)">
       <use xlink:href="#DejaVuSans-30"/>
       <use xlink:href="#DejaVuSans-2e" x="63.623047"/>
       <use xlink:href="#DejaVuSans-30" x="95.410156"/>
       <use xlink:href="#DejaVuSans-35" x="159.033203"/>
      </g>
     </g>
    </g>
    <g id="ytick_3">
     <g id="line2d_13">
      <g>
       <use xlink:href="#m339365fd22" x="90" y="202.654735" style="stroke: #000000; stroke-width: 0.8"/>
      </g>
     </g>
     <g id="text_14">
      <!-- 0.10 -->
      <g transform="translate(60.734375 206.453953) scale(0.1 -0.1)">
       <defs>
        <path id="DejaVuSans-31" d="M 794 531 
L 1825 531 
L 1825 4091 
L 703 3866 
L 703 4441 
L 1819 4666 
L 2450 4666 
L 2450 531 
L 3481 531 
L 3481 0 
L 794 0 
L 794 531 
z
" transform="scale(0.015625)"/>
       </defs>
       <use xlink:href="#DejaVuSans-30"/>
       <use xlink:href="#DejaVuSans-2e" x="63.623047"/>
       <use xlink:href="#DejaVuSans-31" x="95.410156"/>
       <use xlink:href="#DejaVuSans-30" x="159.033203"/>
      </g>
     </g>
    </g>
    <g id="ytick_4">
     <g id="line2d_14">
      <g>
       <use xlink:href="#m339365fd22" x="90" y="155.06914" style="stroke: #000000; stroke-width: 0.8"/>
      </g>
     </g>
     <g id="text_15">
      <!-- 0.15 -->
      <g transform="translate(60.734375 158.868359) scale(0.1 -0.1)">
       <use xlink:href="#DejaVuSans-30"/>
       <use xlink:href="#DejaVuSans-2e" x="63.623047"/>
       <use xlink:href="#DejaVuSans-31" x="95.410156"/>
       <use xlink:href="#DejaVuSans-35" x="159.033203"/>
      </g>
     </g>
    </g>
    <g id="ytick_5">
     <g id="line2d_15">
      <g>
       <use xlink:href="#m339365fd22" x="90" y="107.483546" style="stroke: #000000; stroke-width: 0.8"/>
      </g>
     </g>
     <g id="text_16">
      <!-- 0.20 -->
      <g transform="translate(60.734375 111.282765) scale(0.1 -0.1)">
       <use xlink:href="#DejaVuSans-30"/>
       <use xlink:href="#DejaVuSans-2e" x="63.623047"/>
       <use xlink:href="#DejaVuSans-32" x="95.410156"/>
       <use xlink:href="#DejaVuSans-30" x="159.033203"/>
      </g>
     </g>
    </g>
    <g id="ytick_6">
     <g id="line2d_16">
      <g>
       <use xlink:href="#m339365fd22" x="90" y="59.897952" style="stroke: #000000; stroke-width: 0.8"/>
      </g>
     </g>
     <g id="text_17">
      <!-- 0.25 -->
      <g transform="translate(60.734375 63.697171) scale(0.1 -0.1)">
       <use xlink:href="#DejaVuSans-30"/>
       <use xlink:href="#DejaVuSans-2e" x="63.623047"/>
       <use xlink:href="#DejaVuSans-32" x="95.410156"/>
       <use xlink:href="#DejaVuSans-35" x="159.033203"/>
      </g>
     </g>
    </g>
    <g id="text_18">
     <!-- Pearson Correlation -->
     <g transform="translate(54.654687 230.820312) rotate(-90) scale(0.1 -0.1)">
      <defs>
       <path id="DejaVuSans-50" d="M 1259 4147 
L 1259 2394 
L 2053 2394 
Q 2494 2394 2734 2622 
Q 2975 2850 2975 3272 
Q 2975 3691 2734 3919 
Q 2494 4147 2053 4147 
L 1259 4147 
z
M 628 4666 
L 2053 4666 
Q 2838 4666 3239 4311 
Q 3641 3956 3641 3272 
Q 3641 2581 3239 2228 
Q 2838 1875 2053 1875 
L 1259 1875 
L 1259 0 
L 628 0 
L 628 4666 
z
" transform="scale(0.015625)"/>
       <path id="DejaVuSans-72" d="M 2631 2963 
Q 2534 3019 2420 3045 
Q 2306 3072 2169 3072 
Q 1681 3072 1420 2755 
Q 1159 2438 1159 1844 
L 1159 0 
L 581 0 
L 581 3500 
L 1159 3500 
L 1159 2956 
Q 1341 3275 1631 3429 
Q 1922 3584 2338 3584 
Q 2397 3584 2469 3576 
Q 2541 3569 2628 3553 
L 2631 2963 
z
" transform="scale(0.015625)"/>
       <path id="DejaVuSans-6f" d="M 1959 3097 
Q 1497 3097 1228 2736 
Q 959 2375 959 1747 
Q 959 1119 1226 758 
Q 1494 397 1959 397 
Q 2419 397 2687 759 
Q 2956 1122 2956 1747 
Q 2956 2369 2687 2733 
Q 2419 3097 1959 3097 
z
M 1959 3584 
Q 2709 3584 3137 3096 
Q 3566 2609 3566 1747 
Q 3566 888 3137 398 
Q 2709 -91 1959 -91 
Q 1206 -91 779 398 
Q 353 888 353 1747 
Q 353 2609 779 3096 
Q 1206 3584 1959 3584 
z
" transform="scale(0.015625)"/>
       <path id="DejaVuSans-6e" d="M 3513 2113 
L 3513 0 
L 2938 0 
L 2938 2094 
Q 2938 2591 2744 2837 
Q 2550 3084 2163 3084 
Q 1697 3084 1428 2787 
Q 1159 2491 1159 1978 
L 1159 0 
L 581 0 
L 581 3500 
L 1159 3500 
L 1159 2956 
Q 1366 3272 1645 3428 
Q 1925 3584 2291 3584 
Q 2894 3584 3203 3211 
Q 3513 2838 3513 2113 
z
" transform="scale(0.015625)"/>
       <path id="DejaVuSans-43" d="M 4122 4306 
L 4122 3641 
Q 3803 3938 3442 4084 
Q 3081 4231 2675 4231 
Q 1875 4231 1450 3742 
Q 1025 3253 1025 2328 
Q 1025 1406 1450 917 
Q 1875 428 2675 428 
Q 3081 428 3442 575 
Q 3803 722 4122 1019 
L 4122 359 
Q 3791 134 3420 21 
Q 3050 -91 2638 -91 
Q 1578 -91 968 557 
Q 359 1206 359 2328 
Q 359 3453 968 4101 
Q 1578 4750 2638 4750 
Q 3056 4750 3426 4639 
Q 3797 4528 4122 4306 
z
" transform="scale(0.015625)"/>
       <path id="DejaVuSans-74" d="M 1172 4494 
L 1172 3500 
L 2356 3500 
L 2356 3053 
L 1172 3053 
L 1172 1153 
Q 1172 725 1289 603 
Q 1406 481 1766 481 
L 2356 481 
L 2356 0 
L 1766 0 
Q 1100 0 847 248 
Q 594 497 594 1153 
L 594 3053 
L 172 3053 
L 172 3500 
L 594 3500 
L 594 4494 
L 1172 4494 
z
" transform="scale(0.015625)"/>
       <path id="DejaVuSans-69" d="M 603 3500 
L 1178 3500 
L 1178 0 
L 603 0 
L 603 3500 
z
M 603 4863 
L 1178 4863 
L 1178 4134 
L 603 4134 
L 603 4863 
z
" transform="scale(0.015625)"/>
      </defs>
      <use xlink:href="#DejaVuSans-50"/>
      <use xlink:href="#DejaVuSans-65" x="56.677734"/>
      <use xlink:href="#DejaVuSans-61" x="118.201172"/>
      <use xlink:href="#DejaVuSans-72" x="179.480469"/>
      <use xlink:href="#DejaVuSans-73" x="220.59375"/>
      <use xlink:href="#DejaVuSans-6f" x="272.693359"/>
      <use xlink:href="#DejaVuSans-6e" x="333.875"/>
      <use xlink:href="#DejaVuSans-20" x="397.253906"/>
      <use xlink:href="#DejaVuSans-43" x="429.041016"/>
      <use xlink:href="#DejaVuSans-6f" x="498.865234"/>
      <use xlink:href="#DejaVuSans-72" x="560.046875"/>
      <use xlink:href="#DejaVuSans-72" x="599.410156"/>
      <use xlink:href="#DejaVuSans-65" x="638.273438"/>
      <use xlink:href="#DejaVuSans-6c" x="699.796875"/>
      <use xlink:href="#DejaVuSans-61" x="727.580078"/>
      <use xlink:href="#DejaVuSans-74" x="788.859375"/>
      <use xlink:href="#DejaVuSans-69" x="828.068359"/>
      <use xlink:href="#DejaVuSans-6f" x="855.851562"/>
      <use xlink:href="#DejaVuSans-6e" x="917.033203"/>
     </g>
    </g>
   </g>
   <g id="patch_3">
    <path d="M 90 320.4 
L 90 43.2 
" style="fill: none; stroke: #000000; stroke-width: 0.8; stroke-linejoin: miter; stroke-linecap: square"/>
   </g>
   <g id="patch_4">
    <path d="M 648 320.4 
L 648 43.2 
" style="fill: none; stroke: #000000; stroke-width: 0.8; stroke-linejoin: miter; stroke-linecap: square"/>
   </g>
   <g id="patch_5">
    <path d="M 90 320.4 
L 648 320.4 
" style="fill: none; stroke: #000000; stroke-width: 0.8; stroke-linejoin: miter; stroke-linecap: square"/>
   </g>
   <g id="patch_6">
    <path d="M 90 43.2 
L 648 43.2 
" style="fill: none; stroke: #000000; stroke-width: 0.8; stroke-linejoin: miter; stroke-linecap: square"/>
   </g>
   <g id="PathCollection_1">
    <defs>
     <path id="mc97a5198ca" d="M 0 2.5 
C 0.663008 2.5 1.29895 2.236584 1.767767 1.767767 
C 2.236584 1.29895 2.5 0.663008 2.5 0 
C 2.5 -0.663008 2.236584 -1.29895 1.767767 -1.767767 
C 1.29895 -2.236584 0.663008 -2.5 0 -2.5 
C -0.663008 -2.5 -1.29895 -2.236584 -1.767767 -1.767767 
C -2.236584 -1.29895 -2.5 -0.663008 -2.5 0 
C -2.5 0.663008 -2.236584 1.29895 -1.767767 1.767767 
C -1.29895 2.236584 -0.663008 2.5 0 2.5 
z
"/>
    </defs>
    <g clip-path="url(#pc78f49cf08)">
     <use xlink:href="#mc97a5198ca" x="117.9" y="221.200209" style="fill: #ffffff"/>
     <use xlink:href="#mc97a5198ca" x="117.9" y="228.101975" style="fill: #ffffff"/>
     <use xlink:href="#mc97a5198ca" x="117.9" y="215.687754" style="fill: #ffffff"/>
     <use xlink:href="#mc97a5198ca" x="117.9" y="152.182517" style="fill: #ffffff"/>
    </g>
   </g>
   <g id="PathCollection_2">
    <g clip-path="url(#pc78f49cf08)">
     <use xlink:href="#mc97a5198ca" x="170.667411" y="219.824642" style="fill: #ffffff"/>
     <use xlink:href="#mc97a5198ca" x="173.7" y="229.983937" style="fill: #ffffff"/>
     <use xlink:href="#mc97a5198ca" x="173.7" y="223.906114" style="fill: #ffffff"/>
     <use xlink:href="#mc97a5198ca" x="173.7" y="137.67757" style="fill: #ffffff"/>
    </g>
   </g>
   <g id="PathCollection_3">
    <g clip-path="url(#pc78f49cf08)">
     <use xlink:href="#mc97a5198ca" x="224.600955" y="216.007886" style="fill: #ffffff"/>
     <use xlink:href="#mc97a5198ca" x="229.5" y="217.805303" style="fill: #ffffff"/>
     <use xlink:href="#mc97a5198ca" x="229.5" y="203.951218" style="fill: #ffffff"/>
     <use xlink:href="#mc97a5198ca" x="229.5" y="123.760969" style="fill: #ffffff"/>
    </g>
   </g>
   <g id="PathCollection_4">
    <g clip-path="url(#pc78f49cf08)">
     <use xlink:href="#mc97a5198ca" x="285.3" y="229.896852" style="fill: #ffffff"/>
     <use xlink:href="#mc97a5198ca" x="280.377819" y="228.157711" style="fill: #ffffff"/>
     <use xlink:href="#mc97a5198ca" x="285.3" y="186.885116" style="fill: #ffffff"/>
     <use xlink:href="#mc97a5198ca" x="285.3" y="171.800118" style="fill: #ffffff"/>
    </g>
   </g>
   <g id="PathCollection_5">
    <g clip-path="url(#pc78f49cf08)">
     <use xlink:href="#mc97a5198ca" x="341.1" y="250.218993" style="fill: #ffffff"/>
     <use xlink:href="#mc97a5198ca" x="341.1" y="232.753782" style="fill: #ffffff"/>
     <use xlink:href="#mc97a5198ca" x="341.1" y="170.942284" style="fill: #ffffff"/>
     <use xlink:href="#mc97a5198ca" x="341.1" y="199.705605" style="fill: #ffffff"/>
    </g>
   </g>
   <g id="PathCollection_6">
    <g clip-path="url(#pc78f49cf08)">
     <use xlink:href="#mc97a5198ca" x="396.9" y="237.390744" style="fill: #ffffff"/>
     <use xlink:href="#mc97a5198ca" x="393.970111" y="233.241789" style="fill: #ffffff"/>
     <use xlink:href="#mc97a5198ca" x="392.022856" y="191.267402" style="fill: #ffffff"/>
     <use xlink:href="#mc97a5198ca" x="396.9" y="193.118054" style="fill: #ffffff"/>
    </g>
   </g>
   <g id="PathCollection_7">
    <g clip-path="url(#pc78f49cf08)">
     <use xlink:href="#mc97a5198ca" x="452.7" y="232.294047" style="fill: #ffffff"/>
     <use xlink:href="#mc97a5198ca" x="452.7" y="224.030031" style="fill: #ffffff"/>
     <use xlink:href="#mc97a5198ca" x="452.7" y="190.086727" style="fill: #ffffff"/>
     <use xlink:href="#mc97a5198ca" x="452.7" y="160.204255" style="fill: #ffffff"/>
    </g>
   </g>
   <g id="PathCollection_8">
    <g clip-path="url(#pc78f49cf08)">
     <use xlink:href="#mc97a5198ca" x="508.5" y="251.605611" style="fill: #ffffff"/>
     <use xlink:href="#mc97a5198ca" x="508.5" y="232.94819" style="fill: #ffffff"/>
     <use xlink:href="#mc97a5198ca" x="508.5" y="171.518652" style="fill: #ffffff"/>
     <use xlink:href="#mc97a5198ca" x="508.5" y="190.132583" style="fill: #ffffff"/>
    </g>
   </g>
   <g id="PathCollection_9">
    <g clip-path="url(#pc78f49cf08)">
     <use xlink:href="#mc97a5198ca" x="564.3" y="237.514083" style="fill: #ffffff"/>
     <use xlink:href="#mc97a5198ca" x="564.3" y="229.378152" style="fill: #ffffff"/>
     <use xlink:href="#mc97a5198ca" x="564.3" y="179.775679" style="fill: #ffffff"/>
     <use xlink:href="#mc97a5198ca" x="564.3" y="194.574264" style="fill: #ffffff"/>
    </g>
   </g>
   <g id="PathCollection_10">
    <g clip-path="url(#pc78f49cf08)">
     <use xlink:href="#mc97a5198ca" x="620.1" y="233.19245" style="fill: #ffffff"/>
     <use xlink:href="#mc97a5198ca" x="620.1" y="225.770997" style="fill: #ffffff"/>
     <use xlink:href="#mc97a5198ca" x="620.1" y="178.167174" style="fill: #ffffff"/>
     <use xlink:href="#mc97a5198ca" x="620.1" y="189.228613" style="fill: #ffffff"/>
    </g>
   </g>
  </g>
 </g>
 <defs>
  <clipPath id="pc78f49cf08">
   <rect x="90" y="43.2" width="558" height="277.2"/>
  </clipPath>
 </defs>
</svg>
