<?xml version="1.0" encoding="utf-8" standalone="no"?>
<!DOCTYPE svg PUBLIC "-//W3C//DTD SVG 1.1//EN"
  "http://www.w3.org/Graphics/SVG/1.1/DTD/svg11.dtd">
<svg xmlns:xlink="http://www.w3.org/1999/xlink" width="460.8pt" height="345.6pt" viewBox="0 0 460.8 345.6" xmlns="http://www.w3.org/2000/svg" version="1.1">
 <metadata>
  <rdf:RDF xmlns:dc="http://purl.org/dc/elements/1.1/" xmlns:cc="http://creativecommons.org/ns#" xmlns:rdf="http://www.w3.org/1999/02/22-rdf-syntax-ns#">
   <cc:Work>
    <dc:type rdf:resource="http://purl.org/dc/dcmitype/StillImage"/>
    <dc:date>2025-12-03T20:42:15.730989</dc:date>
    <dc:format>image/svg+xml</dc:format>
    <dc:creator>
     <cc:Agent>
      <dc:title>Matplotlib v3.8.4, https://matplotlib.org/</dc:title>
     </cc:Agent>
    </dc:creator>
   </cc:Work>
  </rdf:RDF>
 </metadata>
 <defs>
  <style type="text/css">*{stroke-linejoin: round; stroke-linecap: butt}</style>
 </defs>
 <g id="figure_1">
  <g id="patch_1">
   <path d="M 0 345.6 
L 460.8 345.6 
L 460.8 0 
L 0 0 
z
" style="fill: #ffffff"/>
  </g>
  <g id="axes_1">
   <g id="patch_2">
    <path d="M 57.6 307.584 
L 414.72 307.584 
L 414.72 41.472 
L 57.6 41.472 
z
" style="fill: #ffffff"/>
   </g>
   <g id="matplotlib.axis_1">
    <g id="xtick_1">
     <g id="line2d_1">
      <defs>
       <path id="me9bda3dcc8" d="M 0 0 
L 0 3.5 
" style="stroke: #000000; stroke-width: 0.8"/>
      </defs>
      <g>
       <use xlink:href="#me9bda3dcc8" x="73.818841" y="307.584" style="stroke: #000000; stroke-width: 0.8"/>
      </g>
     </g>
     <g id="text_1">
      <!-- 300 -->
      <g transform="translate(64.275091 322.182437) scale(0.1 -0.1)">
       <defs>
        <path id="DejaVuSans-33" d="M 2597 2516 
Q 3050 2419 3304 2112 
Q 3559 1806 3559 1356 
Q 3559 666 3084 287 
Q 2609 -91 1734 -91 
Q 1441 -91 1130 -33 
Q 819 25 488 141 
L 488 750 
Q 750 597 1062 519 
Q 1375 441 1716 441 
Q 2309 441 2620 675 
Q 2931 909 2931 1356 
Q 2931 1769 2642 2001 
Q 2353 2234 1838 2234 
L 1294 2234 
L 1294 2753 
L 1863 2753 
Q 2328 2753 2575 2939 
Q 2822 3125 2822 3475 
Q 2822 3834 2567 4026 
Q 2313 4219 1838 4219 
Q 1578 4219 1281 4162 
Q 984 4106 628 3988 
L 628 4550 
Q 988 4650 1302 4700 
Q 1616 4750 1894 4750 
Q 2613 4750 3031 4423 
Q 3450 4097 3450 3541 
Q 3450 3153 3228 2886 
Q 3006 2619 2597 2516 
z
" transform="scale(0.015625)"/>
        <path id="DejaVuSans-30" d="M 2034 4250 
Q 1547 4250 1301 3770 
Q 1056 3291 1056 2328 
Q 1056 1369 1301 889 
Q 1547 409 2034 409 
Q 2525 409 2770 889 
Q 3016 1369 3016 2328 
Q 3016 3291 2770 3770 
Q 2525 4250 2034 4250 
z
M 2034 4750 
Q 2819 4750 3233 4129 
Q 3647 3509 3647 2328 
Q 3647 1150 3233 529 
Q 2819 -91 2034 -91 
Q 1250 -91 836 529 
Q 422 1150 422 2328 
Q 422 3509 836 4129 
Q 1250 4750 2034 4750 
z
" transform="scale(0.015625)"/>
       </defs>
       <use xlink:href="#DejaVuSans-33"/>
       <use xlink:href="#DejaVuSans-30" x="63.623047"/>
       <use xlink:href="#DejaVuSans-30" x="127.246094"/>
      </g>
     </g>
    </g>
    <g id="xtick_2">
     <g id="line2d_2">
      <g>
       <use xlink:href="#me9bda3dcc8" x="123.878205" y="307.584" style="stroke: #000000; stroke-width: 0.8"/>
      </g>
     </g>
     <g id="text_2">
      <!-- 400 -->
      <g transform="translate(114.334455 322.182437) scale(0.1 -0.1)">
       <defs>
        <path id="DejaVuSans-34" d="M 2419 4116 
L 825 1625 
L 2419 1625 
L 2419 4116 
z
M 2253 4666 
L 3047 4666 
L 3047 1625 
L 3713 1625 
L 3713 1100 
L 3047 1100 
L 3047 0 
L 2419 0 
L 2419 1100 
L 313 1100 
L 313 1709 
L 2253 4666 
z
" transform="scale(0.015625)"/>
       </defs>
       <use xlink:href="#DejaVuSans-34"/>
       <use xlink:href="#DejaVuSans-30" x="63.623047"/>
       <use xlink:href="#DejaVuSans-30" x="127.246094"/>
      </g>
     </g>
    </g>
    <g id="xtick_3">
     <g id="line2d_3">
      <g>
       <use xlink:href="#me9bda3dcc8" x="173.937569" y="307.584" style="stroke: #000000; stroke-width: 0.8"/>
      </g>
     </g>
     <g id="text_3">
      <!-- 500 -->
      <g transform="translate(164.393819 322.182437) scale(0.1 -0.1)">
       <defs>
        <path id="DejaVuSans-35" d="M 691 4666 
L 3169 4666 
L 3169 4134 
L 1269 4134 
L 1269 2991 
Q 1406 3038 1543 3061 
Q 1681 3084 1819 3084 
Q 2600 3084 3056 2656 
Q 3513 2228 3513 1497 
Q 3513 744 3044 326 
Q 2575 -91 1722 -91 
Q 1428 -91 1123 -41 
Q 819 9 494 109 
L 494 744 
Q 775 591 1075 516 
Q 1375 441 1709 441 
Q 2250 441 2565 725 
Q 2881 1009 2881 1497 
Q 2881 1984 2565 2268 
Q 2250 2553 1709 2553 
Q 1456 2553 1204 2497 
Q 953 2441 691 2322 
L 691 4666 
z
" transform="scale(0.015625)"/>
       </defs>
       <use xlink:href="#DejaVuSans-35"/>
       <use xlink:href="#DejaVuSans-30" x="63.623047"/>
       <use xlink:href="#DejaVuSans-30" x="127.246094"/>
      </g>
     </g>
    </g>
    <g id="xtick_4">
     <g id="line2d_4">
      <g>
       <use xlink:href="#me9bda3dcc8" x="223.996933" y="307.584" style="stroke: #000000; stroke-width: 0.8"/>
      </g>
     </g>
     <g id="text_4">
      <!-- 600 -->
      <g transform="translate(214.453183 322.182437) scale(0.1 -0.1)">
       <defs>
        <path id="DejaVuSans-36" d="M 2113 2584 
Q 1688 2584 1439 2293 
Q 1191 2003 1191 1497 
Q 1191 994 1439 701 
Q 1688 409 2113 409 
Q 2538 409 2786 701 
Q 3034 994 3034 1497 
Q 3034 2003 2786 2293 
Q 2538 2584 2113 2584 
z
M 3366 4563 
L 3366 3988 
Q 3128 4100 2886 4159 
Q 2644 4219 2406 4219 
Q 1781 4219 1451 3797 
Q 1122 3375 1075 2522 
Q 1259 2794 1537 2939 
Q 1816 3084 2150 3084 
Q 2853 3084 3261 2657 
Q 3669 2231 3669 1497 
Q 3669 778 3244 343 
Q 2819 -91 2113 -91 
Q 1303 -91 875 529 
Q 447 1150 447 2328 
Q 447 3434 972 4092 
Q 1497 4750 2381 4750 
Q 2619 4750 2861 4703 
Q 3103 4656 3366 4563 
z
" transform="scale(0.015625)"/>
       </defs>
       <use xlink:href="#DejaVuSans-36"/>
       <use xlink:href="#DejaVuSans-30" x="63.623047"/>
       <use xlink:href="#DejaVuSans-30" x="127.246094"/>
      </g>
     </g>
    </g>
    <g id="xtick_5">
     <g id="line2d_5">
      <g>
       <use xlink:href="#me9bda3dcc8" x="274.056297" y="307.584" style="stroke: #000000; stroke-width: 0.8"/>
      </g>
     </g>
     <g id="text_5">
      <!-- 700 -->
      <g transform="translate(264.512547 322.182437) scale(0.1 -0.1)">
       <defs>
        <path id="DejaVuSans-37" d="M 525 4666 
L 3525 4666 
L 3525 4397 
L 1831 0 
L 1172 0 
L 2766 4134 
L 525 4134 
L 525 4666 
z
" transform="scale(0.015625)"/>
       </defs>
       <use xlink:href="#DejaVuSans-37"/>
       <use xlink:href="#DejaVuSans-30" x="63.623047"/>
       <use xlink:href="#DejaVuSans-30" x="127.246094"/>
      </g>
     </g>
    </g>
    <g id="xtick_6">
     <g id="line2d_6">
      <g>
       <use xlink:href="#me9bda3dcc8" x="324.115661" y="307.584" style="stroke: #000000; stroke-width: 0.8"/>
      </g>
     </g>
     <g id="text_6">
      <!-- 800 -->
      <g transform="translate(314.571911 322.182437) scale(0.1 -0.1)">
       <defs>
        <path id="DejaVuSans-38" d="M 2034 2216 
Q 1584 2216 1326 1975 
Q 1069 1734 1069 1313 
Q 1069 891 1326 650 
Q 1584 409 2034 409 
Q 2484 409 2743 651 
Q 3003 894 3003 1313 
Q 3003 1734 2745 1975 
Q 2488 2216 2034 2216 
z
M 1403 2484 
Q 997 2584 770 2862 
Q 544 3141 544 3541 
Q 544 4100 942 4425 
Q 1341 4750 2034 4750 
Q 2731 4750 3128 4425 
Q 3525 4100 3525 3541 
Q 3525 3141 3298 2862 
Q 3072 2584 2669 2484 
Q 3125 2378 3379 2068 
Q 3634 1759 3634 1313 
Q 3634 634 3220 271 
Q 2806 -91 2034 -91 
Q 1263 -91 848 271 
Q 434 634 434 1313 
Q 434 1759 690 2068 
Q 947 2378 1403 2484 
z
M 1172 3481 
Q 1172 3119 1398 2916 
Q 1625 2713 2034 2713 
Q 2441 2713 2670 2916 
Q 2900 3119 2900 3481 
Q 2900 3844 2670 4047 
Q 2441 4250 2034 4250 
Q 1625 4250 1398 4047 
Q 1172 3844 1172 3481 
z
" transform="scale(0.015625)"/>
       </defs>
       <use xlink:href="#DejaVuSans-38"/>
       <use xlink:href="#DejaVuSans-30" x="63.623047"/>
       <use xlink:href="#DejaVuSans-30" x="127.246094"/>
      </g>
     </g>
    </g>
    <g id="xtick_7">
     <g id="line2d_7">
      <g>
       <use xlink:href="#me9bda3dcc8" x="374.175025" y="307.584" style="stroke: #000000; stroke-width: 0.8"/>
      </g>
     </g>
     <g id="text_7">
      <!-- 900 -->
      <g transform="translate(364.631275 322.182437) scale(0.1 -0.1)">
       <defs>
        <path id="DejaVuSans-39" d="M 703 97 
L 703 672 
Q 941 559 1184 500 
Q 1428 441 1663 441 
Q 2288 441 2617 861 
Q 2947 1281 2994 2138 
Q 2813 1869 2534 1725 
Q 2256 1581 1919 1581 
Q 1219 1581 811 2004 
Q 403 2428 403 3163 
Q 403 3881 828 4315 
Q 1253 4750 1959 4750 
Q 2769 4750 3195 4129 
Q 3622 3509 3622 2328 
Q 3622 1225 3098 567 
Q 2575 -91 1691 -91 
Q 1453 -91 1209 -44 
Q 966 3 703 97 
z
M 1959 2075 
Q 2384 2075 2632 2365 
Q 2881 2656 2881 3163 
Q 2881 3666 2632 3958 
Q 2384 4250 1959 4250 
Q 1534 4250 1286 3958 
Q 1038 3666 1038 3163 
Q 1038 2656 1286 2365 
Q 1534 2075 1959 2075 
z
" transform="scale(0.015625)"/>
       </defs>
       <use xlink:href="#DejaVuSans-39"/>
       <use xlink:href="#DejaVuSans-30" x="63.623047"/>
       <use xlink:href="#DejaVuSans-30" x="127.246094"/>
      </g>
     </g>
    </g>
    <g id="text_8">
     <!-- m/z -->
     <g transform="translate(226.981094 335.860562) scale(0.1 -0.1)">
      <defs>
       <path id="DejaVuSans-6d" d="M 3328 2828 
Q 3544 3216 3844 3400 
Q 4144 3584 4550 3584 
Q 5097 3584 5394 3201 
Q 5691 2819 5691 2113 
L 5691 0 
L 5113 0 
L 5113 2094 
Q 5113 2597 4934 2840 
Q 4756 3084 4391 3084 
Q 3944 3084 3684 2787 
Q 3425 2491 3425 1978 
L 3425 0 
L 2847 0 
L 2847 2094 
Q 2847 2600 2669 2842 
Q 2491 3084 2119 3084 
Q 1678 3084 1418 2786 
Q 1159 2488 1159 1978 
L 1159 0 
L 581 0 
L 581 3500 
L 1159 3500 
L 1159 2956 
Q 1356 3278 1631 3431 
Q 1906 3584 2284 3584 
Q 2666 3584 2933 3390 
Q 3200 3197 3328 2828 
z
" transform="scale(0.015625)"/>
       <path id="DejaVuSans-2f" d="M 1625 4666 
L 2156 4666 
L 531 -594 
L 0 -594 
L 1625 4666 
z
" transform="scale(0.015625)"/>
       <path id="DejaVuSans-7a" d="M 353 3500 
L 3084 3500 
L 3084 2975 
L 922 459 
L 3084 459 
L 3084 0 
L 275 0 
L 275 525 
L 2438 3041 
L 353 3041 
L 353 3500 
z
" transform="scale(0.015625)"/>
      </defs>
      <use xlink:href="#DejaVuSans-6d"/>
      <use xlink:href="#DejaVuSans-2f" x="97.412109"/>
      <use xlink:href="#DejaVuSans-7a" x="131.103516"/>
     </g>
    </g>
   </g>
   <g id="matplotlib.axis_2">
    <g id="ytick_1">
     <g id="line2d_8">
      <defs>
       <path id="m393e354509" d="M 0 0 
L -3.5 0 
" style="stroke: #000000; stroke-width: 0.8"/>
      </defs>
      <g>
       <use xlink:href="#m393e354509" x="57.6" y="307.584" style="stroke: #000000; stroke-width: 0.8"/>
      </g>
     </g>
     <g id="text_9">
      <!-- 0 -->
      <g transform="translate(44.2375 311.383219) scale(0.1 -0.1)">
       <use xlink:href="#DejaVuSans-30"/>
      </g>
     </g>
    </g>
    <g id="ytick_2">
     <g id="line2d_9">
      <g>
       <use xlink:href="#m393e354509" x="57.6" y="276.489292" style="stroke: #000000; stroke-width: 0.8"/>
      </g>
     </g>
     <g id="text_10">
      <!-- 100 -->
      <g transform="translate(31.5125 280.288511) scale(0.1 -0.1)">
       <defs>
        <path id="DejaVuSans-31" d="M 794 531 
L 1825 531 
L 1825 4091 
L 703 3866 
L 703 4441 
L 1819 4666 
L 2450 4666 
L 2450 531 
L 3481 531 
L 3481 0 
L 794 0 
L 794 531 
z
" transform="scale(0.015625)"/>
       </defs>
       <use xlink:href="#DejaVuSans-31"/>
       <use xlink:href="#DejaVuSans-30" x="63.623047"/>
       <use xlink:href="#DejaVuSans-30" x="127.246094"/>
      </g>
     </g>
    </g>
    <g id="ytick_3">
     <g id="line2d_10">
      <g>
       <use xlink:href="#m393e354509" x="57.6" y="245.394584" style="stroke: #000000; stroke-width: 0.8"/>
      </g>
     </g>
     <g id="text_11">
      <!-- 200 -->
      <g transform="translate(31.5125 249.193803) scale(0.1 -0.1)">
       <defs>
        <path id="DejaVuSans-32" d="M 1228 531 
L 3431 531 
L 3431 0 
L 469 0 
L 469 531 
Q 828 903 1448 1529 
Q 2069 2156 2228 2338 
Q 2531 2678 2651 2914 
Q 2772 3150 2772 3378 
Q 2772 3750 2511 3984 
Q 2250 4219 1831 4219 
Q 1534 4219 1204 4116 
Q 875 4013 500 3803 
L 500 4441 
Q 881 4594 1212 4672 
Q 1544 4750 1819 4750 
Q 2544 4750 2975 4387 
Q 3406 4025 3406 3419 
Q 3406 3131 3298 2873 
Q 3191 2616 2906 2266 
Q 2828 2175 2409 1742 
Q 1991 1309 1228 531 
z
" transform="scale(0.015625)"/>
       </defs>
       <use xlink:href="#DejaVuSans-32"/>
       <use xlink:href="#DejaVuSans-30" x="63.623047"/>
       <use xlink:href="#DejaVuSans-30" x="127.246094"/>
      </g>
     </g>
    </g>
    <g id="ytick_4">
     <g id="line2d_11">
      <g>
       <use xlink:href="#m393e354509" x="57.6" y="214.299876" style="stroke: #000000; stroke-width: 0.8"/>
      </g>
     </g>
     <g id="text_12">
      <!-- 300 -->
      <g transform="translate(31.5125 218.099095) scale(0.1 -0.1)">
       <use xlink:href="#DejaVuSans-33"/>
       <use xlink:href="#DejaVuSans-30" x="63.623047"/>
       <use xlink:href="#DejaVuSans-30" x="127.246094"/>
      </g>
     </g>
    </g>
    <g id="ytick_5">
     <g id="line2d_12">
      <g>
       <use xlink:href="#m393e354509" x="57.6" y="183.205168" style="stroke: #000000; stroke-width: 0.8"/>
      </g>
     </g>
     <g id="text_13">
      <!-- 400 -->
      <g transform="translate(31.5125 187.004386) scale(0.1 -0.1)">
       <use xlink:href="#DejaVuSans-34"/>
       <use xlink:href="#DejaVuSans-30" x="63.623047"/>
       <use xlink:href="#DejaVuSans-30" x="127.246094"/>
      </g>
     </g>
    </g>
    <g id="ytick_6">
     <g id="line2d_13">
      <g>
       <use xlink:href="#m393e354509" x="57.6" y="152.11046" style="stroke: #000000; stroke-width: 0.8"/>
      </g>
     </g>
     <g id="text_14">
      <!-- 500 -->
      <g transform="translate(31.5125 155.909678) scale(0.1 -0.1)">
       <use xlink:href="#DejaVuSans-35"/>
       <use xlink:href="#DejaVuSans-30" x="63.623047"/>
       <use xlink:href="#DejaVuSans-30" x="127.246094"/>
      </g>
     </g>
    </g>
    <g id="ytick_7">
     <g id="line2d_14">
      <g>
       <use xlink:href="#m393e354509" x="57.6" y="121.015752" style="stroke: #000000; stroke-width: 0.8"/>
      </g>
     </g>
     <g id="text_15">
      <!-- 600 -->
      <g transform="translate(31.5125 124.81497) scale(0.1 -0.1)">
       <use xlink:href="#DejaVuSans-36"/>
       <use xlink:href="#DejaVuSans-30" x="63.623047"/>
       <use xlink:href="#DejaVuSans-30" x="127.246094"/>
      </g>
     </g>
    </g>
    <g id="ytick_8">
     <g id="line2d_15">
      <g>
       <use xlink:href="#m393e354509" x="57.6" y="89.921043" style="stroke: #000000; stroke-width: 0.8"/>
      </g>
     </g>
     <g id="text_16">
      <!-- 700 -->
      <g transform="translate(31.5125 93.720262) scale(0.1 -0.1)">
       <use xlink:href="#DejaVuSans-37"/>
       <use xlink:href="#DejaVuSans-30" x="63.623047"/>
       <use xlink:href="#DejaVuSans-30" x="127.246094"/>
      </g>
     </g>
    </g>
    <g id="ytick_9">
     <g id="line2d_16">
      <g>
       <use xlink:href="#m393e354509" x="57.6" y="58.826335" style="stroke: #000000; stroke-width: 0.8"/>
      </g>
     </g>
     <g id="text_17">
      <!-- 800 -->
      <g transform="translate(31.5125 62.625554) scale(0.1 -0.1)">
       <use xlink:href="#DejaVuSans-38"/>
       <use xlink:href="#DejaVuSans-30" x="63.623047"/>
       <use xlink:href="#DejaVuSans-30" x="127.246094"/>
      </g>
     </g>
    </g>
    <g id="text_18">
     <!-- Intensities [a.u.] -->
     <g transform="translate(25.432812 215.303) rotate(-90) scale(0.1 -0.1)">
      <defs>
       <path id="DejaVuSans-49" d="M 628 4666 
L 1259 4666 
L 1259 0 
L 628 0 
L 628 4666 
z
" transform="scale(0.015625)"/>
       <path id="DejaVuSans-6e" d="M 3513 2113 
L 3513 0 
L 2938 0 
L 2938 2094 
Q 2938 2591 2744 2837 
Q 2550 3084 2163 3084 
Q 1697 3084 1428 2787 
Q 1159 2491 1159 1978 
L 1159 0 
L 581 0 
L 581 3500 
L 1159 3500 
L 1159 2956 
Q 1366 3272 1645 3428 
Q 1925 3584 2291 3584 
Q 2894 3584 3203 3211 
Q 3513 2838 3513 2113 
z
" transform="scale(0.015625)"/>
       <path id="DejaVuSans-74" d="M 1172 4494 
L 1172 3500 
L 2356 3500 
L 2356 3053 
L 1172 3053 
L 1172 1153 
Q 1172 725 1289 603 
Q 1406 481 1766 481 
L 2356 481 
L 2356 0 
L 1766 0 
Q 1100 0 847 248 
Q 594 497 594 1153 
L 594 3053 
L 172 3053 
L 172 3500 
L 594 3500 
L 594 4494 
L 1172 4494 
z
" transform="scale(0.015625)"/>
       <path id="DejaVuSans-65" d="M 3597 1894 
L 3597 1613 
L 953 1613 
Q 991 1019 1311 708 
Q 1631 397 2203 397 
Q 2534 397 2845 478 
Q 3156 559 3463 722 
L 3463 178 
Q 3153 47 2828 -22 
Q 2503 -91 2169 -91 
Q 1331 -91 842 396 
Q 353 884 353 1716 
Q 353 2575 817 3079 
Q 1281 3584 2069 3584 
Q 2775 3584 3186 3129 
Q 3597 2675 3597 1894 
z
M 3022 2063 
Q 3016 2534 2758 2815 
Q 2500 3097 2075 3097 
Q 1594 3097 1305 2825 
Q 1016 2553 972 2059 
L 3022 2063 
z
" transform="scale(0.015625)"/>
       <path id="DejaVuSans-73" d="M 2834 3397 
L 2834 2853 
Q 2591 2978 2328 3040 
Q 2066 3103 1784 3103 
Q 1356 3103 1142 2972 
Q 928 2841 928 2578 
Q 928 2378 1081 2264 
Q 1234 2150 1697 2047 
L 1894 2003 
Q 2506 1872 2764 1633 
Q 3022 1394 3022 966 
Q 3022 478 2636 193 
Q 2250 -91 1575 -91 
Q 1294 -91 989 -36 
Q 684 19 347 128 
L 347 722 
Q 666 556 975 473 
Q 1284 391 1588 391 
Q 1994 391 2212 530 
Q 2431 669 2431 922 
Q 2431 1156 2273 1281 
Q 2116 1406 1581 1522 
L 1381 1569 
Q 847 1681 609 1914 
Q 372 2147 372 2553 
Q 372 3047 722 3315 
Q 1072 3584 1716 3584 
Q 2034 3584 2315 3537 
Q 2597 3491 2834 3397 
z
" transform="scale(0.015625)"/>
       <path id="DejaVuSans-69" d="M 603 3500 
L 1178 3500 
L 1178 0 
L 603 0 
L 603 3500 
z
M 603 4863 
L 1178 4863 
L 1178 4134 
L 603 4134 
L 603 4863 
z
" transform="scale(0.015625)"/>
       <path id="DejaVuSans-20" transform="scale(0.015625)"/>
       <path id="DejaVuSans-5b" d="M 550 4863 
L 1875 4863 
L 1875 4416 
L 1125 4416 
L 1125 -397 
L 1875 -397 
L 1875 -844 
L 550 -844 
L 550 4863 
z
" transform="scale(0.015625)"/>
       <path id="DejaVuSans-61" d="M 2194 1759 
Q 1497 1759 1228 1600 
Q 959 1441 959 1056 
Q 959 750 1161 570 
Q 1363 391 1709 391 
Q 2188 391 2477 730 
Q 2766 1069 2766 1631 
L 2766 1759 
L 2194 1759 
z
M 3341 1997 
L 3341 0 
L 2766 0 
L 2766 531 
Q 2569 213 2275 61 
Q 1981 -91 1556 -91 
Q 1019 -91 701 211 
Q 384 513 384 1019 
Q 384 1609 779 1909 
Q 1175 2209 1959 2209 
L 2766 2209 
L 2766 2266 
Q 2766 2663 2505 2880 
Q 2244 3097 1772 3097 
Q 1472 3097 1187 3025 
Q 903 2953 641 2809 
L 641 3341 
Q 956 3463 1253 3523 
Q 1550 3584 1831 3584 
Q 2591 3584 2966 3190 
Q 3341 2797 3341 1997 
z
" transform="scale(0.015625)"/>
       <path id="DejaVuSans-2e" d="M 684 794 
L 1344 794 
L 1344 0 
L 684 0 
L 684 794 
z
" transform="scale(0.015625)"/>
       <path id="DejaVuSans-75" d="M 544 1381 
L 544 3500 
L 1119 3500 
L 1119 1403 
Q 1119 906 1312 657 
Q 1506 409 1894 409 
Q 2359 409 2629 706 
Q 2900 1003 2900 1516 
L 2900 3500 
L 3475 3500 
L 3475 0 
L 2900 0 
L 2900 538 
Q 2691 219 2414 64 
Q 2138 -91 1772 -91 
Q 1169 -91 856 284 
Q 544 659 544 1381 
z
M 1991 3584 
L 1991 3584 
z
" transform="scale(0.015625)"/>
       <path id="DejaVuSans-5d" d="M 1947 4863 
L 1947 -844 
L 622 -844 
L 622 -397 
L 1369 -397 
L 1369 4416 
L 622 4416 
L 622 4863 
L 1947 4863 
z
" transform="scale(0.015625)"/>
      </defs>
      <use xlink:href="#DejaVuSans-49"/>
      <use xlink:href="#DejaVuSans-6e" x="29.492188"/>
      <use xlink:href="#DejaVuSans-74" x="92.871094"/>
      <use xlink:href="#DejaVuSans-65" x="132.080078"/>
      <use xlink:href="#DejaVuSans-6e" x="193.603516"/>
      <use xlink:href="#DejaVuSans-73" x="256.982422"/>
      <use xlink:href="#DejaVuSans-69" x="309.082031"/>
      <use xlink:href="#DejaVuSans-74" x="336.865234"/>
      <use xlink:href="#DejaVuSans-69" x="376.074219"/>
      <use xlink:href="#DejaVuSans-65" x="403.857422"/>
      <use xlink:href="#DejaVuSans-73" x="465.380859"/>
      <use xlink:href="#DejaVuSans-20" x="517.480469"/>
      <use xlink:href="#DejaVuSans-5b" x="549.267578"/>
      <use xlink:href="#DejaVuSans-61" x="588.28125"/>
      <use xlink:href="#DejaVuSans-2e" x="649.560547"/>
      <use xlink:href="#DejaVuSans-75" x="681.347656"/>
      <use xlink:href="#DejaVuSans-2e" x="744.726562"/>
      <use xlink:href="#DejaVuSans-5d" x="776.513672"/>
     </g>
    </g>
   </g>
   <g id="line2d_17">
    <path d="M 73.832727 307.584 
L 73.865267 307.584 
L 73.895301 304.865931 
L 74.370841 302.524043 
L 74.410882 307.584 
L 74.906449 307.584 
L 75.374488 302.453011 
L 75.387 303.888876 
L 75.915092 307.584 
L 76.340584 305.016693 
L 76.373124 298.012773 
L 76.393137 307.584 
L 77.88734 307.584 
L 77.902357 304.655734 
L 78.397925 307.584 
L 78.880981 302.051461 
L 78.978585 307.584 
L 79.386555 307.584 
L 79.409073 301.604974 
L 79.459135 307.584 
L 80.41773 307.584 
L 80.462767 296.404401 
L 80.9283 307.584 
L 82.852991 307.584 
L 82.883026 290.630498 
L 82.895538 307.584 
L 86.857557 307.584 
L 86.9802 301.901424 
L 87.433206 307.584 
L 88.406819 307.584 
L 88.421836 304.13314 
L 88.919894 307.584 
L 89.397939 307.584 
L 89.870988 298.387504 
L 89.901022 307.584 
L 91.945851 307.584 
L 91.978376 302.150037 
L 92.431397 307.584 
L 92.48146 302.424743 
L 92.987034 307.584 
L 93.85302 307.584 
L 93.900577 305.107296 
L 93.940618 307.584 
L 94.851656 307.584 
L 94.906714 300.908423 
L 94.94926 307.584 
L 95.352219 307.584 
L 95.367237 304.981902 
L 95.439817 307.584 
L 97.912644 307.584 
L 97.947674 303.548211 
L 97.985225 307.584 
L 98.435741 307.584 
L 98.490799 304.701397 
L 98.903764 305.964756 
L 98.956332 307.584 
L 98.996372 300.05966 
L 99.42686 307.584 
L 99.446888 303.234365 
L 99.499441 304.460758 
L 99.985002 307.584 
L 100.002509 303.105347 
L 100.488071 307.584 
L 102.858267 307.584 
L 102.893312 305.96838 
L 102.960882 307.584 
L 103.361336 307.584 
L 103.396381 300.573557 
L 103.433916 307.584 
L 104.492621 307.584 
L 104.910597 305.492899 
L 104.943137 307.584 
L 105.0007 299.186255 
L 105.416186 307.584 
L 105.438705 304.955809 
L 105.506274 307.584 
L 105.934272 307.584 
L 106.011864 304.605721 
L 106.444857 307.584 
L 106.965448 307.584 
L 107.002983 303.333665 
L 107.020506 303.509796 
L 107.503562 307.584 
L 107.523574 298.403451 
L 108.011641 307.584 
L 108.029148 299.308024 
L 108.447125 307.584 
L 108.512204 303.31337 
L 108.534722 283.623678 
L 108.912658 307.584 
L 108.965226 305.478403 
L 109.035301 299.521845 
L 109.458288 307.584 
L 109.540875 304.955809 
L 109.973868 307.584 
L 110.43439 307.584 
L 110.449407 301.147613 
L 110.46693 307.584 
L 111.958628 307.584 
L 112.431662 303.463408 
L 112.521766 307.584 
L 112.967271 307.584 
L 113.007327 305.900247 
L 113.460333 307.584 
L 113.512901 304.154159 
L 114.018474 307.584 
L 114.46899 307.584 
L 114.521543 303.077079 
L 114.932018 307.584 
L 114.949525 297.167636 
L 115.027117 307.584 
L 115.980701 307.584 
L 116.018252 303.424267 
L 116.035775 307.584 
L 116.421211 307.584 
L 116.541349 304.781127 
L 116.974342 307.584 
L 117.429853 307.584 
L 117.932922 305.378378 
L 117.982984 307.584 
L 118.438496 300.238691 
L 118.461029 302.596525 
L 118.976609 307.584 
L 119.469672 307.584 
L 119.932699 303.336564 
L 119.947717 307.584 
L 119.985267 303.112595 
L 120.475824 307.584 
L 120.908817 303.519219 
L 120.978892 307.584 
L 120.99391 304.057759 
L 121.534529 307.584 
L 122.956152 307.584 
L 122.976164 303.806971 
L 123.033728 307.584 
L 123.471732 307.584 
L 123.539302 303.062583 
L 124.00734 307.584 
L 124.042385 298.110624 
L 124.48288 307.584 
L 124.93089 307.584 
L 124.948413 304.62964 
L 124.99597 307.584 
L 125.47901 302.034066 
L 125.491537 307.584 
L 127.491315 307.584 
L 127.956833 303.585177 
L 127.974355 307.584 
L 127.994383 305.52769 
L 128.499957 307.584 
L 129.47606 307.584 
L 129.941593 305.016693 
L 129.994161 307.584 
L 130.517257 307.584 
L 130.53727 305.492899 
L 130.967758 307.584 
L 130.987786 305.632789 
L 131.040354 307.584 
L 131.928859 307.584 
L 132.048996 305.489275 
L 132.451955 304.258533 
L 132.491996 307.584 
L 132.955024 307.584 
L 132.970041 303.319894 
L 133.007592 307.584 
L 133.460598 305.127591 
L 133.500654 307.584 
L 133.515671 303.322793 
L 133.963682 307.584 
L 133.998711 304.307096 
L 134.471761 301.417245 
L 134.524313 307.584 
L 135.009859 307.584 
L 135.497926 304.383927 
L 135.570506 307.584 
L 137.009637 307.584 
L 137.452652 305.72919 
L 137.500194 307.584 
L 138.996902 307.584 
L 139.0845 299.928468 
L 139.49247 307.584 
L 139.552539 301.312872 
L 140.00805 307.584 
L 142.50089 307.584 
L 142.513402 303.748986 
L 143.01398 307.584 
L 144.505678 307.584 
L 144.520695 303.924392 
L 144.953689 307.584 
L 144.971211 305.668305 
L 145.003736 307.584 
L 145.514321 307.584 
L 145.979854 305.332714 
L 146.014899 307.584 
L 147.514098 307.584 
L 147.549143 304.865931 
L 147.962109 307.584 
L 148.032184 303.982378 
L 148.4827 307.584 
L 148.502728 305.081202 
L 148.522756 307.584 
L 148.983278 307.584 
L 149.005796 301.328817 
L 149.043347 304.419443 
L 149.548921 307.584 
L 150.016944 307.584 
L 150.497494 303.763482 
L 150.522518 307.584 
L 151.503647 307.584 
L 151.516159 304.096174 
L 151.548698 307.584 
L 152.03675 307.584 
L 152.457231 304.072255 
L 152.514795 307.584 
L 152.527306 303.909896 
L 153.030375 307.584 
L 153.465874 302.65596 
L 153.523437 307.584 
L 153.535949 301.032367 
L 154.039033 307.584 
L 154.512067 302.176855 
L 154.527084 307.584 
L 157.993536 307.584 
L 158.02357 304.480328 
L 158.061106 307.584 
L 158.984656 307.584 
L 158.999673 304.433939 
L 159.054731 307.584 
L 159.472707 302.640014 
L 159.52778 307.584 
L 159.993298 307.584 
L 160.010821 306.029265 
L 160.048371 307.584 
L 161.50753 307.584 
L 161.532553 299.597227 
L 161.567599 304.830415 
L 162.033132 307.584 
L 162.048149 305.96838 
L 162.103207 307.584 
L 162.5362 307.584 
L 162.969193 304.346961 
L 163.056791 307.584 
L 163.086826 304.085302 
L 163.489785 304.433939 
L 163.519819 304.705021 
L 163.539847 307.584 
L 164.047926 307.584 
L 164.488421 305.142812 
L 164.556006 307.584 
L 165.534614 307.584 
L 165.549631 303.288001 
L 166.052699 307.584 
L 167.04634 307.584 
L 167.061357 302.922693 
L 167.566931 307.584 
L 168.523021 307.584 
L 168.548044 302.267457 
L 168.991044 307.584 
L 169.008567 305.96838 
L 169.09867 307.584 
L 170.557828 307.584 
L 170.995832 303.784502 
L 171.080925 307.584 
L 172.004475 307.584 
L 172.104584 291.247319 
L 172.550105 307.584 
L 172.605163 302.588552 
L 173.050668 307.584 
L 173.070696 306.090149 
L 173.54373 307.584 
L 175.538497 307.584 
L 175.563536 304.845636 
L 175.578553 307.584 
L 176.512109 307.584 
L 176.549644 304.107771 
L 176.567167 307.584 
L 178.011308 307.584 
L 178.046353 304.830415 
L 178.081399 307.584 
L 179.019966 307.584 
L 179.039994 302.663933 
L 179.120076 307.584 
L 179.528045 303.670705 
L 179.623144 307.584 
L 180.016097 306.090149 
L 180.066144 307.584 
L 180.52167 307.584 
L 180.559221 305.242112 
L 180.611774 307.584 
L 181.565358 307.584 
L 181.582896 304.323042 
L 181.620416 307.584 
L 182.030907 307.584 
L 182.050919 300.828693 
L 182.123485 307.584 
L 183.079574 307.584 
L 183.107103 302.817594 
L 183.580168 306.154658 
L 183.610202 307.584 
L 184.07071 307.584 
L 184.088247 305.096423 
L 184.646374 307.584 
L 185.044307 304.294049 
L 185.09689 307.584 
L 185.126924 302.763958 
L 185.149442 302.371831 
L 185.58242 307.584 
L 186.055485 307.584 
L 186.135567 296.64939 
L 186.581072 307.584 
L 186.638635 305.618293 
L 187.066633 307.584 
L 188.075275 307.584 
L 188.092783 302.510996 
L 188.545804 307.584 
L 189.02886 307.584 
L 189.048872 304.057759 
L 189.121468 307.584 
L 189.627042 307.584 
L 190.077558 303.87148 
L 190.130111 301.073681 
L 190.635685 307.584 
L 191.088706 307.584 
L 191.103708 285.244372 
L 191.141259 307.584 
L 191.589269 307.584 
L 191.606776 303.17638 
L 191.644327 307.584 
L 192.535337 307.584 
L 192.567877 305.107296 
L 192.58291 307.584 
L 193.088484 307.584 
L 193.158543 302.725543 
L 193.661642 307.584 
L 194.572665 307.584 
L 195.038183 301.984054 
L 195.090766 307.584 
L 195.543788 305.081202 
L 195.59634 307.584 
L 197.037961 307.584 
L 197.140591 297.384356 
L 197.636143 307.584 
L 198.044128 307.584 
L 198.101692 302.93284 
L 198.139242 307.584 
L 198.60476 307.584 
L 198.642311 306.151034 
L 198.709865 307.584 
L 199.966299 307.584 
L 200.071435 305.618293 
L 200.134009 307.584 
L 202.541741 307.584 
L 202.579292 305.679177 
L 203.044809 302.845862 
L 203.084866 307.584 
L 204.091003 307.584 
L 204.596576 305.317493 
L 204.614084 307.584 
L 205.10215 307.584 
L 205.137196 299.159436 
L 205.607724 307.584 
L 205.637759 304.952909 
L 205.725356 307.584 
L 206.115804 307.584 
L 206.138322 302.001449 
L 206.22592 307.584 
L 210.565875 307.584 
L 210.620932 304.147636 
L 210.723563 307.584 
L 211.066438 307.584 
L 211.106494 301.413621 
L 211.126506 307.584 
L 212.62071 307.584 
L 212.740848 305.642212 
L 213.111282 307.584 
L 213.243916 305.402297 
L 213.74949 305.96838 
L 214.119924 307.584 
L 219.1181 307.584 
L 219.148135 305.367505 
L 219.250765 307.584 
L 219.571121 305.232689 
L 219.668741 307.584 
L 220.07419 307.584 
L 220.129248 302.661034 
L 220.171809 307.584 
L 220.747474 307.584 
L 221.120383 303.816394 
L 222.129025 307.584 
L 224.131308 307.584 
L 224.24894 303.4953 
L 224.496732 307.584 
L 224.754514 306.198872 
L 225.139951 307.584 
L 225.257583 305.439263 
L 225.628017 307.584 
L 225.763187 307.584 
L 226.081039 305.854583 
L 226.148624 307.584 
L 226.266256 304.433939 
L 226.586613 307.584 
L 226.619152 302.761783 
L 226.654198 307.584 
L 227.074679 307.584 
L 227.162277 301.120795 
L 227.274898 304.894924 
L 227.577748 303.598224 
L 227.617773 307.584 
L 227.69538 304.419443 
L 227.780472 307.584 
L 228.083322 303.198124 
L 228.195943 307.584 
L 229.091964 307.584 
L 229.147022 302.911821 
L 229.770228 305.207321 
L 230.138157 307.584 
L 230.761363 307.584 
L 231.091741 305.216018 
L 231.146799 307.584 
L 231.592305 307.584 
L 231.682408 304.178803 
L 231.770006 307.584 
L 233.602104 307.584 
L 233.654656 305.302997 
L 234.140217 307.584 
L 236.00733 307.584 
L 236.107455 304.806496 
L 236.165018 307.584 
L 236.768212 307.584 
L 237.113592 306.154658 
L 237.178672 307.584 
L 237.641684 307.584 
L 237.77936 300.303199 
L 238.162291 307.584 
L 238.279923 299.452262 
L 238.595269 307.584 
L 239.105853 303.323518 
L 239.155931 307.584 
L 239.203473 304.795624 
L 239.709047 307.584 
L 240.602562 307.584 
L 240.62007 302.27833 
L 240.670147 307.584 
L 241.173216 307.584 
L 241.611205 304.13314 
L 241.67879 307.584 
L 243.172993 307.584 
L 243.593475 304.906521 
L 243.676062 307.584 
L 244.171614 307.584 
L 245.160244 305.252984 
L 245.620781 304.981902 
L 247.230112 307.584 
L 247.685638 305.713969 
L 247.73318 301.55786 
L 248.023503 307.584 
L 248.186202 307.584 
L 248.236249 304.36943 
L 248.661741 307.584 
L 248.739317 303.717094 
L 249.187328 307.584 
L 249.600293 307.584 
L 249.672889 305.306621 
L 250.608966 305.907495 
L 250.626473 307.584 
L 252.120677 307.584 
L 252.175735 305.72919 
L 252.598722 307.584 
L 252.68632 303.498199 
L 253.189388 307.584 
L 255.206703 307.584 
L 255.254245 300.144464 
L 255.677232 303.681578 
L 255.759819 301.344039 
L 256.202819 305.804571 
L 256.260382 307.584 
L 258.185089 307.584 
L 259.191226 304.956533 
L 260.134789 307.584 
L 260.199868 304.83114 
L 260.537763 307.584 
L 260.69044 302.474755 
L 260.830591 307.584 
L 261.143462 307.584 
L 261.211016 302.742938 
L 263.21831 303.746087 
L 264.209445 307.584 
L 265.273145 301.383904 
L 265.706154 307.584 
L 265.741169 306.090149 
L 266.209223 303.273505 
L 266.759833 307.584 
L 267.217865 304.623117 
L 268.211505 307.584 
L 271.149835 307.584 
L 271.237433 304.494824 
L 271.783063 307.584 
L 274.233356 307.584 
L 274.758943 305.653084 
L 274.811495 307.584 
L 275.259506 307.584 
L 275.327091 304.76953 
L 275.842686 290.46234 
L 276.235639 304.781127 
L 276.713684 307.584 
L 276.851329 306.215543 
L 278.162821 304.246936 
L 278.225395 307.584 
L 279.158966 307.584 
L 279.777162 299.127544 
L 280.225172 307.584 
L 284.342359 307.584 
L 284.567602 305.256608 
L 284.662716 302.113071 
L 284.805372 305.961132 
L 285.165785 307.584 
L 285.30844 305.42839 
L 285.758956 307.584 
L 285.814045 299.702325 
L 286.176932 307.584 
L 286.317113 307.584 
L 286.332115 297.363336 
L 286.67001 307.584 
L 286.792653 307.584 
L 286.822687 303.540238 
L 287.173078 307.584 
L 287.293216 304.098348 
L 287.325756 307.584 
L 287.83133 307.584 
L 287.853848 305.778477 
L 288.737372 305.398673 
L 288.855005 307.584 
L 289.340535 302.987202 
L 289.360578 307.584 
L 289.843604 307.584 
L 289.861142 303.384402 
L 289.876143 307.584 
L 290.349178 305.116718 
L 290.852277 304.745611 
L 291.790829 305.842986 
L 291.820863 307.584 
L 292.293897 307.584 
L 292.801976 301.521619 
L 292.829505 303.956284 
L 293.302539 302.459534 
L 293.335079 299.62187 
L 293.810619 289.759992 
L 293.835673 307.584 
L 294.171032 307.584 
L 294.313718 294.024823 
L 294.338741 307.584 
L 294.816786 307.584 
L 294.844315 269.514364 
L 295.317349 306.154658 
L 295.347384 290.937097 
L 295.850452 304.960157 
L 296.356026 301.929692 
L 296.819069 302.61682 
L 297.322138 304.022243 
L 297.367174 307.584 
L 297.827712 301.290402 
L 297.867737 307.584 
L 298.373311 307.584 
L 298.836354 302.821943 
L 299.354455 307.584 
L 300.262973 307.584 
L 300.348065 299.887878 
L 300.363097 307.584 
L 300.82611 307.584 
L 300.851133 304.93044 
L 300.866166 307.584 
L 300.878693 288.352394 
L 301.186523 306.215543 
L 301.329178 307.584 
L 301.354233 305.743686 
L 301.829772 307.584 
L 301.857301 301.389702 
L 302.332841 307.584 
L 303.273898 303.838139 
L 303.374023 292.770162 
L 303.874586 306.090149 
L 304.382665 236.077041 
L 304.815674 299.210898 
L 304.885734 296.645042 
L 305.318742 302.11742 
L 305.388802 291.0219 
L 305.824316 303.856984 
L 305.891871 302.789326 
L 306.327385 303.781603 
L 306.700294 307.584 
L 306.832959 291.128449 
L 307.195877 307.584 
L 307.336027 307.584 
L 307.363556 304.483227 
L 307.701451 307.584 
L 307.866625 296.995854 
L 308.094403 307.584 
L 308.34467 305.713969 
L 308.372198 298.18673 
L 308.707588 307.584 
L 308.845233 299.441391 
L 309.210656 307.584 
L 309.350837 297.381457 
L 309.8514 301.873881 
L 310.359479 227.500266 
L 310.389514 299.234092 
L 310.860043 288.101607 
L 310.892582 305.964756 
L 311.398156 307.584 
L 312.361762 307.584 
L 313.337865 304.236789 
L 313.367899 302.146413 
L 313.873473 307.584 
L 314.376542 300.511223 
L 314.714436 303.788126 
L 314.87961 302.643638 
L 315.202472 307.584 
L 315.357655 307.584 
L 315.38769 236.397411 
L 315.708046 307.584 
L 315.860724 307.584 
L 315.888253 286.083712 
L 316.211145 307.584 
L 316.366298 303.585177 
L 316.393827 297.374208 
L 316.714214 307.584 
L 316.869366 306.029265 
L 316.896926 295.838319 
L 317.372465 307.584 
L 317.405005 295.934719 
L 317.908073 307.584 
L 318.356084 307.584 
L 318.413647 289.462091 
L 319.21706 307.584 
L 319.419784 300.487303 
L 319.710107 307.584 
L 319.852762 304.229541 
L 319.922853 307.584 
L 320.10807 307.584 
L 320.355861 304.286076 
L 321.364504 307.584 
L 321.397044 302.71467 
L 321.867572 307.584 
L 321.900112 302.373281 
L 322.373146 290.349268 
L 322.403181 303.996874 
L 322.428204 303.806971 
L 322.876215 303.559084 
L 322.906249 291.793106 
L 322.931273 307.584 
L 323.381789 220.815265 
L 323.409318 300.838115 
L 323.884857 270.218164 
L 324.217741 304.522367 
L 324.387926 287.255019 
L 324.422971 307.584 
L 324.72081 307.584 
L 324.888519 303.040838 
L 325.391588 304.812295 
L 325.411601 307.584 
L 325.434119 302.728442 
L 326.390209 286.781713 
L 326.420243 302.792226 
L 326.893277 304.169381 
L 327.371322 306.124216 
L 327.398882 298.251963 
L 327.721744 307.584 
L 327.874421 307.584 
L 327.90195 294.647442 
L 328.37749 303.521393 
L 328.410029 284.082489 
L 328.880558 307.584 
L 328.913098 296.943667 
L 329.388637 307.584 
L 329.418672 266.050459 
L 329.891706 307.584 
L 329.92174 289.301181 
L 330.377267 307.584 
L 330.394774 304.407846 
L 330.424809 303.721443 
L 330.897843 305.131215 
L 330.962923 299.387029 
L 331.400911 307.584 
L 331.465991 303.870031 
L 331.868965 305.404471 
L 331.90398 307.584 
L 332.409584 307.584 
L 332.912653 304.921017 
L 333.378171 304.740538 
L 333.408205 303.322793 
L 333.420732 307.584 
L 333.881239 304.97103 
L 333.911274 307.584 
L 334.386813 274.233656 
L 334.426869 307.584 
L 334.889882 279.116035 
L 335.395456 295.684656 
L 335.898555 301.504223 
L 336.406634 296.504426 
L 336.907197 298.970983 
L 337.415276 283.337375 
L 337.915839 293.102129 
L 338.351323 305.52769 
L 338.386368 303.655485 
L 338.418908 300.242314 
L 338.919471 307.584 
L 339.397516 297.859837 
L 339.412548 303.511246 
L 339.900584 307.584 
L 339.915617 300.481505 
L 340.396167 307.584 
L 340.423696 280.808484 
L 340.89673 307.584 
L 340.926765 302.205123 
L 341.402304 303.151011 
L 341.905373 307.584 
L 341.967947 297.860561 
L 342.405936 303.106072 
L 342.46851 301.684703 
L 342.909035 307.584 
L 343.414609 303.880178 
L 343.917677 307.584 
L 345.431894 307.584 
L 346.372951 304.679653 
L 346.402985 307.584 
L 346.873545 306.151034 
L 346.976144 307.584 
L 347.411658 297.267661 
L 347.479213 307.584 
L 347.912221 304.697773 
L 348.420301 264.965404 
L 348.885819 307.584 
L 348.923369 290.734147 
L 348.955909 303.638089 
L 349.391393 304.885501 
L 349.426438 286.645446 
L 349.927001 307.584 
L 349.964552 287.783412 
L 350.420078 307.584 
L 350.465115 298.28313 
L 350.920641 305.903871 
L 352.419856 307.584 
L 353.914059 302.405173 
L 354.422139 307.584 
L 355.993918 304.805046 
L 356.939987 307.584 
L 360.00099 307.584 
L 361.522722 303.434415 
L 361.772988 307.584 
L 367.887448 307.584 
L 368.393022 306.029265 
L 372.913183 304.086751 
L 373.921825 303.817119 
L 375.556179 307.584 
L 375.941616 304.955809 
L 376.447189 307.584 
L 380.909787 306.154658 
L 382.804429 307.584 
L 383.813072 307.584 
L 394.940739 304.002672 
L 398.487273 307.584 
L 398.487273 307.584 
" clip-path="url(#p76f6d90ab7)" style="fill: none; stroke: #1f77b4; stroke-width: 1.5; stroke-linecap: square"/>
   </g>
   <g id="patch_3">
    <path d="M 57.6 307.584 
L 57.6 41.472 
" style="fill: none; stroke: #000000; stroke-width: 0.8; stroke-linejoin: miter; stroke-linecap: square"/>
   </g>
   <g id="patch_4">
    <path d="M 414.72 307.584 
L 414.72 41.472 
" style="fill: none; stroke: #000000; stroke-width: 0.8; stroke-linejoin: miter; stroke-linecap: square"/>
   </g>
   <g id="patch_5">
    <path d="M 57.6 307.584 
L 414.72 307.584 
" style="fill: none; stroke: #000000; stroke-width: 0.8; stroke-linejoin: miter; stroke-linecap: square"/>
   </g>
   <g id="patch_6">
    <path d="M 57.6 41.472 
L 414.72 41.472 
" style="fill: none; stroke: #000000; stroke-width: 0.8; stroke-linejoin: miter; stroke-linecap: square"/>
   </g>
   <g id="legend_1">
    <g id="patch_7">
     <path d="M 323.385625 64.150125 
L 407.72 64.150125 
Q 409.72 64.150125 409.72 62.150125 
L 409.72 48.472 
Q 409.72 46.472 407.72 46.472 
L 323.385625 46.472 
Q 321.385625 46.472 321.385625 48.472 
L 321.385625 62.150125 
Q 321.385625 64.150125 323.385625 64.150125 
z
" style="fill: #ffffff; opacity: 0.8; stroke: #cccccc; stroke-linejoin: miter"/>
    </g>
    <g id="line2d_18">
     <path d="M 325.385625 54.570438 
L 335.385625 54.570438 
L 345.385625 54.570438 
" style="fill: none; stroke: #1f77b4; stroke-width: 1.5; stroke-linecap: square"/>
    </g>
    <g id="text_19">
     <!-- (317, 385) -->
     <g transform="translate(353.385625 58.070438) scale(0.1 -0.1)">
      <defs>
       <path id="DejaVuSans-28" d="M 1984 4856 
Q 1566 4138 1362 3434 
Q 1159 2731 1159 2009 
Q 1159 1288 1364 580 
Q 1569 -128 1984 -844 
L 1484 -844 
Q 1016 -109 783 600 
Q 550 1309 550 2009 
Q 550 2706 781 3412 
Q 1013 4119 1484 4856 
L 1984 4856 
z
" transform="scale(0.015625)"/>
       <path id="DejaVuSans-2c" d="M 750 794 
L 1409 794 
L 1409 256 
L 897 -744 
L 494 -744 
L 750 256 
L 750 794 
z
" transform="scale(0.015625)"/>
       <path id="DejaVuSans-29" d="M 513 4856 
L 1013 4856 
Q 1481 4119 1714 3412 
Q 1947 2706 1947 2009 
Q 1947 1309 1714 600 
Q 1481 -109 1013 -844 
L 513 -844 
Q 928 -128 1133 580 
Q 1338 1288 1338 2009 
Q 1338 2731 1133 3434 
Q 928 4138 513 4856 
z
" transform="scale(0.015625)"/>
      </defs>
      <use xlink:href="#DejaVuSans-28"/>
      <use xlink:href="#DejaVuSans-33" x="39.013672"/>
      <use xlink:href="#DejaVuSans-31" x="102.636719"/>
      <use xlink:href="#DejaVuSans-37" x="166.259766"/>
      <use xlink:href="#DejaVuSans-2c" x="229.882812"/>
      <use xlink:href="#DejaVuSans-20" x="261.669922"/>
      <use xlink:href="#DejaVuSans-33" x="293.457031"/>
      <use xlink:href="#DejaVuSans-38" x="357.080078"/>
      <use xlink:href="#DejaVuSans-35" x="420.703125"/>
      <use xlink:href="#DejaVuSans-29" x="484.326172"/>
     </g>
    </g>
   </g>
  </g>
 </g>
 <defs>
  <clipPath id="p76f6d90ab7">
   <rect x="57.6" y="41.472" width="357.12" height="266.112"/>
  </clipPath>
 </defs>
</svg>
