<?xml version="1.0" encoding="utf-8" standalone="no"?>
<!DOCTYPE svg PUBLIC "-//W3C//DTD SVG 1.1//EN"
  "http://www.w3.org/Graphics/SVG/1.1/DTD/svg11.dtd">
<svg xmlns:xlink="http://www.w3.org/1999/xlink" width="460.8pt" height="345.6pt" viewBox="0 0 460.8 345.6" xmlns="http://www.w3.org/2000/svg" version="1.1">
 <metadata>
  <rdf:RDF xmlns:dc="http://purl.org/dc/elements/1.1/" xmlns:cc="http://creativecommons.org/ns#" xmlns:rdf="http://www.w3.org/1999/02/22-rdf-syntax-ns#">
   <cc:Work>
    <dc:type rdf:resource="http://purl.org/dc/dcmitype/StillImage"/>
    <dc:date>2025-12-03T20:42:16.011095</dc:date>
    <dc:format>image/svg+xml</dc:format>
    <dc:creator>
     <cc:Agent>
      <dc:title>Matplotlib v3.8.4, https://matplotlib.org/</dc:title>
     </cc:Agent>
    </dc:creator>
   </cc:Work>
  </rdf:RDF>
 </metadata>
 <defs>
  <style type="text/css">*{stroke-linejoin: round; stroke-linecap: butt}</style>
 </defs>
 <g id="figure_1">
  <g id="patch_1">
   <path d="M 0 345.6 
L 460.8 345.6 
L 460.8 0 
L 0 0 
z
" style="fill: #ffffff"/>
  </g>
  <g id="axes_1">
   <g id="patch_2">
    <path d="M 57.6 307.584 
L 414.72 307.584 
L 414.72 41.472 
L 57.6 41.472 
z
" style="fill: #ffffff"/>
   </g>
   <g id="matplotlib.axis_1">
    <g id="xtick_1">
     <g id="line2d_1">
      <defs>
       <path id="md1969b5577" d="M 0 0 
L 0 3.5 
" style="stroke: #000000; stroke-width: 0.8"/>
      </defs>
      <g>
       <use xlink:href="#md1969b5577" x="73.818841" y="307.584" style="stroke: #000000; stroke-width: 0.8"/>
      </g>
     </g>
     <g id="text_1">
      <!-- 300 -->
      <g transform="translate(64.275091 322.182437) scale(0.1 -0.1)">
       <defs>
        <path id="DejaVuSans-33" d="M 2597 2516 
Q 3050 2419 3304 2112 
Q 3559 1806 3559 1356 
Q 3559 666 3084 287 
Q 2609 -91 1734 -91 
Q 1441 -91 1130 -33 
Q 819 25 488 141 
L 488 750 
Q 750 597 1062 519 
Q 1375 441 1716 441 
Q 2309 441 2620 675 
Q 2931 909 2931 1356 
Q 2931 1769 2642 2001 
Q 2353 2234 1838 2234 
L 1294 2234 
L 1294 2753 
L 1863 2753 
Q 2328 2753 2575 2939 
Q 2822 3125 2822 3475 
Q 2822 3834 2567 4026 
Q 2313 4219 1838 4219 
Q 1578 4219 1281 4162 
Q 984 4106 628 3988 
L 628 4550 
Q 988 4650 1302 4700 
Q 1616 4750 1894 4750 
Q 2613 4750 3031 4423 
Q 3450 4097 3450 3541 
Q 3450 3153 3228 2886 
Q 3006 2619 2597 2516 
z
" transform="scale(0.015625)"/>
        <path id="DejaVuSans-30" d="M 2034 4250 
Q 1547 4250 1301 3770 
Q 1056 3291 1056 2328 
Q 1056 1369 1301 889 
Q 1547 409 2034 409 
Q 2525 409 2770 889 
Q 3016 1369 3016 2328 
Q 3016 3291 2770 3770 
Q 2525 4250 2034 4250 
z
M 2034 4750 
Q 2819 4750 3233 4129 
Q 3647 3509 3647 2328 
Q 3647 1150 3233 529 
Q 2819 -91 2034 -91 
Q 1250 -91 836 529 
Q 422 1150 422 2328 
Q 422 3509 836 4129 
Q 1250 4750 2034 4750 
z
" transform="scale(0.015625)"/>
       </defs>
       <use xlink:href="#DejaVuSans-33"/>
       <use xlink:href="#DejaVuSans-30" x="63.623047"/>
       <use xlink:href="#DejaVuSans-30" x="127.246094"/>
      </g>
     </g>
    </g>
    <g id="xtick_2">
     <g id="line2d_2">
      <g>
       <use xlink:href="#md1969b5577" x="123.878205" y="307.584" style="stroke: #000000; stroke-width: 0.8"/>
      </g>
     </g>
     <g id="text_2">
      <!-- 400 -->
      <g transform="translate(114.334455 322.182437) scale(0.1 -0.1)">
       <defs>
        <path id="DejaVuSans-34" d="M 2419 4116 
L 825 1625 
L 2419 1625 
L 2419 4116 
z
M 2253 4666 
L 3047 4666 
L 3047 1625 
L 3713 1625 
L 3713 1100 
L 3047 1100 
L 3047 0 
L 2419 0 
L 2419 1100 
L 313 1100 
L 313 1709 
L 2253 4666 
z
" transform="scale(0.015625)"/>
       </defs>
       <use xlink:href="#DejaVuSans-34"/>
       <use xlink:href="#DejaVuSans-30" x="63.623047"/>
       <use xlink:href="#DejaVuSans-30" x="127.246094"/>
      </g>
     </g>
    </g>
    <g id="xtick_3">
     <g id="line2d_3">
      <g>
       <use xlink:href="#md1969b5577" x="173.937569" y="307.584" style="stroke: #000000; stroke-width: 0.8"/>
      </g>
     </g>
     <g id="text_3">
      <!-- 500 -->
      <g transform="translate(164.393819 322.182437) scale(0.1 -0.1)">
       <defs>
        <path id="DejaVuSans-35" d="M 691 4666 
L 3169 4666 
L 3169 4134 
L 1269 4134 
L 1269 2991 
Q 1406 3038 1543 3061 
Q 1681 3084 1819 3084 
Q 2600 3084 3056 2656 
Q 3513 2228 3513 1497 
Q 3513 744 3044 326 
Q 2575 -91 1722 -91 
Q 1428 -91 1123 -41 
Q 819 9 494 109 
L 494 744 
Q 775 591 1075 516 
Q 1375 441 1709 441 
Q 2250 441 2565 725 
Q 2881 1009 2881 1497 
Q 2881 1984 2565 2268 
Q 2250 2553 1709 2553 
Q 1456 2553 1204 2497 
Q 953 2441 691 2322 
L 691 4666 
z
" transform="scale(0.015625)"/>
       </defs>
       <use xlink:href="#DejaVuSans-35"/>
       <use xlink:href="#DejaVuSans-30" x="63.623047"/>
       <use xlink:href="#DejaVuSans-30" x="127.246094"/>
      </g>
     </g>
    </g>
    <g id="xtick_4">
     <g id="line2d_4">
      <g>
       <use xlink:href="#md1969b5577" x="223.996933" y="307.584" style="stroke: #000000; stroke-width: 0.8"/>
      </g>
     </g>
     <g id="text_4">
      <!-- 600 -->
      <g transform="translate(214.453183 322.182437) scale(0.1 -0.1)">
       <defs>
        <path id="DejaVuSans-36" d="M 2113 2584 
Q 1688 2584 1439 2293 
Q 1191 2003 1191 1497 
Q 1191 994 1439 701 
Q 1688 409 2113 409 
Q 2538 409 2786 701 
Q 3034 994 3034 1497 
Q 3034 2003 2786 2293 
Q 2538 2584 2113 2584 
z
M 3366 4563 
L 3366 3988 
Q 3128 4100 2886 4159 
Q 2644 4219 2406 4219 
Q 1781 4219 1451 3797 
Q 1122 3375 1075 2522 
Q 1259 2794 1537 2939 
Q 1816 3084 2150 3084 
Q 2853 3084 3261 2657 
Q 3669 2231 3669 1497 
Q 3669 778 3244 343 
Q 2819 -91 2113 -91 
Q 1303 -91 875 529 
Q 447 1150 447 2328 
Q 447 3434 972 4092 
Q 1497 4750 2381 4750 
Q 2619 4750 2861 4703 
Q 3103 4656 3366 4563 
z
" transform="scale(0.015625)"/>
       </defs>
       <use xlink:href="#DejaVuSans-36"/>
       <use xlink:href="#DejaVuSans-30" x="63.623047"/>
       <use xlink:href="#DejaVuSans-30" x="127.246094"/>
      </g>
     </g>
    </g>
    <g id="xtick_5">
     <g id="line2d_5">
      <g>
       <use xlink:href="#md1969b5577" x="274.056297" y="307.584" style="stroke: #000000; stroke-width: 0.8"/>
      </g>
     </g>
     <g id="text_5">
      <!-- 700 -->
      <g transform="translate(264.512547 322.182437) scale(0.1 -0.1)">
       <defs>
        <path id="DejaVuSans-37" d="M 525 4666 
L 3525 4666 
L 3525 4397 
L 1831 0 
L 1172 0 
L 2766 4134 
L 525 4134 
L 525 4666 
z
" transform="scale(0.015625)"/>
       </defs>
       <use xlink:href="#DejaVuSans-37"/>
       <use xlink:href="#DejaVuSans-30" x="63.623047"/>
       <use xlink:href="#DejaVuSans-30" x="127.246094"/>
      </g>
     </g>
    </g>
    <g id="xtick_6">
     <g id="line2d_6">
      <g>
       <use xlink:href="#md1969b5577" x="324.115661" y="307.584" style="stroke: #000000; stroke-width: 0.8"/>
      </g>
     </g>
     <g id="text_6">
      <!-- 800 -->
      <g transform="translate(314.571911 322.182437) scale(0.1 -0.1)">
       <defs>
        <path id="DejaVuSans-38" d="M 2034 2216 
Q 1584 2216 1326 1975 
Q 1069 1734 1069 1313 
Q 1069 891 1326 650 
Q 1584 409 2034 409 
Q 2484 409 2743 651 
Q 3003 894 3003 1313 
Q 3003 1734 2745 1975 
Q 2488 2216 2034 2216 
z
M 1403 2484 
Q 997 2584 770 2862 
Q 544 3141 544 3541 
Q 544 4100 942 4425 
Q 1341 4750 2034 4750 
Q 2731 4750 3128 4425 
Q 3525 4100 3525 3541 
Q 3525 3141 3298 2862 
Q 3072 2584 2669 2484 
Q 3125 2378 3379 2068 
Q 3634 1759 3634 1313 
Q 3634 634 3220 271 
Q 2806 -91 2034 -91 
Q 1263 -91 848 271 
Q 434 634 434 1313 
Q 434 1759 690 2068 
Q 947 2378 1403 2484 
z
M 1172 3481 
Q 1172 3119 1398 2916 
Q 1625 2713 2034 2713 
Q 2441 2713 2670 2916 
Q 2900 3119 2900 3481 
Q 2900 3844 2670 4047 
Q 2441 4250 2034 4250 
Q 1625 4250 1398 4047 
Q 1172 3844 1172 3481 
z
" transform="scale(0.015625)"/>
       </defs>
       <use xlink:href="#DejaVuSans-38"/>
       <use xlink:href="#DejaVuSans-30" x="63.623047"/>
       <use xlink:href="#DejaVuSans-30" x="127.246094"/>
      </g>
     </g>
    </g>
    <g id="xtick_7">
     <g id="line2d_7">
      <g>
       <use xlink:href="#md1969b5577" x="374.175025" y="307.584" style="stroke: #000000; stroke-width: 0.8"/>
      </g>
     </g>
     <g id="text_7">
      <!-- 900 -->
      <g transform="translate(364.631275 322.182437) scale(0.1 -0.1)">
       <defs>
        <path id="DejaVuSans-39" d="M 703 97 
L 703 672 
Q 941 559 1184 500 
Q 1428 441 1663 441 
Q 2288 441 2617 861 
Q 2947 1281 2994 2138 
Q 2813 1869 2534 1725 
Q 2256 1581 1919 1581 
Q 1219 1581 811 2004 
Q 403 2428 403 3163 
Q 403 3881 828 4315 
Q 1253 4750 1959 4750 
Q 2769 4750 3195 4129 
Q 3622 3509 3622 2328 
Q 3622 1225 3098 567 
Q 2575 -91 1691 -91 
Q 1453 -91 1209 -44 
Q 966 3 703 97 
z
M 1959 2075 
Q 2384 2075 2632 2365 
Q 2881 2656 2881 3163 
Q 2881 3666 2632 3958 
Q 2384 4250 1959 4250 
Q 1534 4250 1286 3958 
Q 1038 3666 1038 3163 
Q 1038 2656 1286 2365 
Q 1534 2075 1959 2075 
z
" transform="scale(0.015625)"/>
       </defs>
       <use xlink:href="#DejaVuSans-39"/>
       <use xlink:href="#DejaVuSans-30" x="63.623047"/>
       <use xlink:href="#DejaVuSans-30" x="127.246094"/>
      </g>
     </g>
    </g>
    <g id="text_8">
     <!-- m/z -->
     <g transform="translate(226.981094 335.860562) scale(0.1 -0.1)">
      <defs>
       <path id="DejaVuSans-6d" d="M 3328 2828 
Q 3544 3216 3844 3400 
Q 4144 3584 4550 3584 
Q 5097 3584 5394 3201 
Q 5691 2819 5691 2113 
L 5691 0 
L 5113 0 
L 5113 2094 
Q 5113 2597 4934 2840 
Q 4756 3084 4391 3084 
Q 3944 3084 3684 2787 
Q 3425 2491 3425 1978 
L 3425 0 
L 2847 0 
L 2847 2094 
Q 2847 2600 2669 2842 
Q 2491 3084 2119 3084 
Q 1678 3084 1418 2786 
Q 1159 2488 1159 1978 
L 1159 0 
L 581 0 
L 581 3500 
L 1159 3500 
L 1159 2956 
Q 1356 3278 1631 3431 
Q 1906 3584 2284 3584 
Q 2666 3584 2933 3390 
Q 3200 3197 3328 2828 
z
" transform="scale(0.015625)"/>
       <path id="DejaVuSans-2f" d="M 1625 4666 
L 2156 4666 
L 531 -594 
L 0 -594 
L 1625 4666 
z
" transform="scale(0.015625)"/>
       <path id="DejaVuSans-7a" d="M 353 3500 
L 3084 3500 
L 3084 2975 
L 922 459 
L 3084 459 
L 3084 0 
L 275 0 
L 275 525 
L 2438 3041 
L 353 3041 
L 353 3500 
z
" transform="scale(0.015625)"/>
      </defs>
      <use xlink:href="#DejaVuSans-6d"/>
      <use xlink:href="#DejaVuSans-2f" x="97.412109"/>
      <use xlink:href="#DejaVuSans-7a" x="131.103516"/>
     </g>
    </g>
   </g>
   <g id="matplotlib.axis_2">
    <g id="ytick_1">
     <g id="line2d_8">
      <defs>
       <path id="mf1be052a90" d="M 0 0 
L -3.5 0 
" style="stroke: #000000; stroke-width: 0.8"/>
      </defs>
      <g>
       <use xlink:href="#mf1be052a90" x="57.6" y="307.584" style="stroke: #000000; stroke-width: 0.8"/>
      </g>
     </g>
     <g id="text_9">
      <!-- 0 -->
      <g transform="translate(44.2375 311.383219) scale(0.1 -0.1)">
       <use xlink:href="#DejaVuSans-30"/>
      </g>
     </g>
    </g>
    <g id="ytick_2">
     <g id="line2d_9">
      <g>
       <use xlink:href="#mf1be052a90" x="57.6" y="274.38717" style="stroke: #000000; stroke-width: 0.8"/>
      </g>
     </g>
     <g id="text_10">
      <!-- 100 -->
      <g transform="translate(31.5125 278.186389) scale(0.1 -0.1)">
       <defs>
        <path id="DejaVuSans-31" d="M 794 531 
L 1825 531 
L 1825 4091 
L 703 3866 
L 703 4441 
L 1819 4666 
L 2450 4666 
L 2450 531 
L 3481 531 
L 3481 0 
L 794 0 
L 794 531 
z
" transform="scale(0.015625)"/>
       </defs>
       <use xlink:href="#DejaVuSans-31"/>
       <use xlink:href="#DejaVuSans-30" x="63.623047"/>
       <use xlink:href="#DejaVuSans-30" x="127.246094"/>
      </g>
     </g>
    </g>
    <g id="ytick_3">
     <g id="line2d_10">
      <g>
       <use xlink:href="#mf1be052a90" x="57.6" y="241.19034" style="stroke: #000000; stroke-width: 0.8"/>
      </g>
     </g>
     <g id="text_11">
      <!-- 200 -->
      <g transform="translate(31.5125 244.989559) scale(0.1 -0.1)">
       <defs>
        <path id="DejaVuSans-32" d="M 1228 531 
L 3431 531 
L 3431 0 
L 469 0 
L 469 531 
Q 828 903 1448 1529 
Q 2069 2156 2228 2338 
Q 2531 2678 2651 2914 
Q 2772 3150 2772 3378 
Q 2772 3750 2511 3984 
Q 2250 4219 1831 4219 
Q 1534 4219 1204 4116 
Q 875 4013 500 3803 
L 500 4441 
Q 881 4594 1212 4672 
Q 1544 4750 1819 4750 
Q 2544 4750 2975 4387 
Q 3406 4025 3406 3419 
Q 3406 3131 3298 2873 
Q 3191 2616 2906 2266 
Q 2828 2175 2409 1742 
Q 1991 1309 1228 531 
z
" transform="scale(0.015625)"/>
       </defs>
       <use xlink:href="#DejaVuSans-32"/>
       <use xlink:href="#DejaVuSans-30" x="63.623047"/>
       <use xlink:href="#DejaVuSans-30" x="127.246094"/>
      </g>
     </g>
    </g>
    <g id="ytick_4">
     <g id="line2d_11">
      <g>
       <use xlink:href="#mf1be052a90" x="57.6" y="207.993511" style="stroke: #000000; stroke-width: 0.8"/>
      </g>
     </g>
     <g id="text_12">
      <!-- 300 -->
      <g transform="translate(31.5125 211.792729) scale(0.1 -0.1)">
       <use xlink:href="#DejaVuSans-33"/>
       <use xlink:href="#DejaVuSans-30" x="63.623047"/>
       <use xlink:href="#DejaVuSans-30" x="127.246094"/>
      </g>
     </g>
    </g>
    <g id="ytick_5">
     <g id="line2d_12">
      <g>
       <use xlink:href="#mf1be052a90" x="57.6" y="174.796681" style="stroke: #000000; stroke-width: 0.8"/>
      </g>
     </g>
     <g id="text_13">
      <!-- 400 -->
      <g transform="translate(31.5125 178.5959) scale(0.1 -0.1)">
       <use xlink:href="#DejaVuSans-34"/>
       <use xlink:href="#DejaVuSans-30" x="63.623047"/>
       <use xlink:href="#DejaVuSans-30" x="127.246094"/>
      </g>
     </g>
    </g>
    <g id="ytick_6">
     <g id="line2d_13">
      <g>
       <use xlink:href="#mf1be052a90" x="57.6" y="141.599851" style="stroke: #000000; stroke-width: 0.8"/>
      </g>
     </g>
     <g id="text_14">
      <!-- 500 -->
      <g transform="translate(31.5125 145.39907) scale(0.1 -0.1)">
       <use xlink:href="#DejaVuSans-35"/>
       <use xlink:href="#DejaVuSans-30" x="63.623047"/>
       <use xlink:href="#DejaVuSans-30" x="127.246094"/>
      </g>
     </g>
    </g>
    <g id="ytick_7">
     <g id="line2d_14">
      <g>
       <use xlink:href="#mf1be052a90" x="57.6" y="108.403021" style="stroke: #000000; stroke-width: 0.8"/>
      </g>
     </g>
     <g id="text_15">
      <!-- 600 -->
      <g transform="translate(31.5125 112.20224) scale(0.1 -0.1)">
       <use xlink:href="#DejaVuSans-36"/>
       <use xlink:href="#DejaVuSans-30" x="63.623047"/>
       <use xlink:href="#DejaVuSans-30" x="127.246094"/>
      </g>
     </g>
    </g>
    <g id="ytick_8">
     <g id="line2d_15">
      <g>
       <use xlink:href="#mf1be052a90" x="57.6" y="75.206191" style="stroke: #000000; stroke-width: 0.8"/>
      </g>
     </g>
     <g id="text_16">
      <!-- 700 -->
      <g transform="translate(31.5125 79.00541) scale(0.1 -0.1)">
       <use xlink:href="#DejaVuSans-37"/>
       <use xlink:href="#DejaVuSans-30" x="63.623047"/>
       <use xlink:href="#DejaVuSans-30" x="127.246094"/>
      </g>
     </g>
    </g>
    <g id="ytick_9">
     <g id="line2d_16">
      <g>
       <use xlink:href="#mf1be052a90" x="57.6" y="42.009362" style="stroke: #000000; stroke-width: 0.8"/>
      </g>
     </g>
     <g id="text_17">
      <!-- 800 -->
      <g transform="translate(31.5125 45.80858) scale(0.1 -0.1)">
       <use xlink:href="#DejaVuSans-38"/>
       <use xlink:href="#DejaVuSans-30" x="63.623047"/>
       <use xlink:href="#DejaVuSans-30" x="127.246094"/>
      </g>
     </g>
    </g>
    <g id="text_18">
     <!-- Intensities [a.u.] -->
     <g transform="translate(25.432812 215.303) rotate(-90) scale(0.1 -0.1)">
      <defs>
       <path id="DejaVuSans-49" d="M 628 4666 
L 1259 4666 
L 1259 0 
L 628 0 
L 628 4666 
z
" transform="scale(0.015625)"/>
       <path id="DejaVuSans-6e" d="M 3513 2113 
L 3513 0 
L 2938 0 
L 2938 2094 
Q 2938 2591 2744 2837 
Q 2550 3084 2163 3084 
Q 1697 3084 1428 2787 
Q 1159 2491 1159 1978 
L 1159 0 
L 581 0 
L 581 3500 
L 1159 3500 
L 1159 2956 
Q 1366 3272 1645 3428 
Q 1925 3584 2291 3584 
Q 2894 3584 3203 3211 
Q 3513 2838 3513 2113 
z
" transform="scale(0.015625)"/>
       <path id="DejaVuSans-74" d="M 1172 4494 
L 1172 3500 
L 2356 3500 
L 2356 3053 
L 1172 3053 
L 1172 1153 
Q 1172 725 1289 603 
Q 1406 481 1766 481 
L 2356 481 
L 2356 0 
L 1766 0 
Q 1100 0 847 248 
Q 594 497 594 1153 
L 594 3053 
L 172 3053 
L 172 3500 
L 594 3500 
L 594 4494 
L 1172 4494 
z
" transform="scale(0.015625)"/>
       <path id="DejaVuSans-65" d="M 3597 1894 
L 3597 1613 
L 953 1613 
Q 991 1019 1311 708 
Q 1631 397 2203 397 
Q 2534 397 2845 478 
Q 3156 559 3463 722 
L 3463 178 
Q 3153 47 2828 -22 
Q 2503 -91 2169 -91 
Q 1331 -91 842 396 
Q 353 884 353 1716 
Q 353 2575 817 3079 
Q 1281 3584 2069 3584 
Q 2775 3584 3186 3129 
Q 3597 2675 3597 1894 
z
M 3022 2063 
Q 3016 2534 2758 2815 
Q 2500 3097 2075 3097 
Q 1594 3097 1305 2825 
Q 1016 2553 972 2059 
L 3022 2063 
z
" transform="scale(0.015625)"/>
       <path id="DejaVuSans-73" d="M 2834 3397 
L 2834 2853 
Q 2591 2978 2328 3040 
Q 2066 3103 1784 3103 
Q 1356 3103 1142 2972 
Q 928 2841 928 2578 
Q 928 2378 1081 2264 
Q 1234 2150 1697 2047 
L 1894 2003 
Q 2506 1872 2764 1633 
Q 3022 1394 3022 966 
Q 3022 478 2636 193 
Q 2250 -91 1575 -91 
Q 1294 -91 989 -36 
Q 684 19 347 128 
L 347 722 
Q 666 556 975 473 
Q 1284 391 1588 391 
Q 1994 391 2212 530 
Q 2431 669 2431 922 
Q 2431 1156 2273 1281 
Q 2116 1406 1581 1522 
L 1381 1569 
Q 847 1681 609 1914 
Q 372 2147 372 2553 
Q 372 3047 722 3315 
Q 1072 3584 1716 3584 
Q 2034 3584 2315 3537 
Q 2597 3491 2834 3397 
z
" transform="scale(0.015625)"/>
       <path id="DejaVuSans-69" d="M 603 3500 
L 1178 3500 
L 1178 0 
L 603 0 
L 603 3500 
z
M 603 4863 
L 1178 4863 
L 1178 4134 
L 603 4134 
L 603 4863 
z
" transform="scale(0.015625)"/>
       <path id="DejaVuSans-20" transform="scale(0.015625)"/>
       <path id="DejaVuSans-5b" d="M 550 4863 
L 1875 4863 
L 1875 4416 
L 1125 4416 
L 1125 -397 
L 1875 -397 
L 1875 -844 
L 550 -844 
L 550 4863 
z
" transform="scale(0.015625)"/>
       <path id="DejaVuSans-61" d="M 2194 1759 
Q 1497 1759 1228 1600 
Q 959 1441 959 1056 
Q 959 750 1161 570 
Q 1363 391 1709 391 
Q 2188 391 2477 730 
Q 2766 1069 2766 1631 
L 2766 1759 
L 2194 1759 
z
M 3341 1997 
L 3341 0 
L 2766 0 
L 2766 531 
Q 2569 213 2275 61 
Q 1981 -91 1556 -91 
Q 1019 -91 701 211 
Q 384 513 384 1019 
Q 384 1609 779 1909 
Q 1175 2209 1959 2209 
L 2766 2209 
L 2766 2266 
Q 2766 2663 2505 2880 
Q 2244 3097 1772 3097 
Q 1472 3097 1187 3025 
Q 903 2953 641 2809 
L 641 3341 
Q 956 3463 1253 3523 
Q 1550 3584 1831 3584 
Q 2591 3584 2966 3190 
Q 3341 2797 3341 1997 
z
" transform="scale(0.015625)"/>
       <path id="DejaVuSans-2e" d="M 684 794 
L 1344 794 
L 1344 0 
L 684 0 
L 684 794 
z
" transform="scale(0.015625)"/>
       <path id="DejaVuSans-75" d="M 544 1381 
L 544 3500 
L 1119 3500 
L 1119 1403 
Q 1119 906 1312 657 
Q 1506 409 1894 409 
Q 2359 409 2629 706 
Q 2900 1003 2900 1516 
L 2900 3500 
L 3475 3500 
L 3475 0 
L 2900 0 
L 2900 538 
Q 2691 219 2414 64 
Q 2138 -91 1772 -91 
Q 1169 -91 856 284 
Q 544 659 544 1381 
z
M 1991 3584 
L 1991 3584 
z
" transform="scale(0.015625)"/>
       <path id="DejaVuSans-5d" d="M 1947 4863 
L 1947 -844 
L 622 -844 
L 622 -397 
L 1369 -397 
L 1369 4416 
L 622 4416 
L 622 4863 
L 1947 4863 
z
" transform="scale(0.015625)"/>
      </defs>
      <use xlink:href="#DejaVuSans-49"/>
      <use xlink:href="#DejaVuSans-6e" x="29.492188"/>
      <use xlink:href="#DejaVuSans-74" x="92.871094"/>
      <use xlink:href="#DejaVuSans-65" x="132.080078"/>
      <use xlink:href="#DejaVuSans-6e" x="193.603516"/>
      <use xlink:href="#DejaVuSans-73" x="256.982422"/>
      <use xlink:href="#DejaVuSans-69" x="309.082031"/>
      <use xlink:href="#DejaVuSans-74" x="336.865234"/>
      <use xlink:href="#DejaVuSans-69" x="376.074219"/>
      <use xlink:href="#DejaVuSans-65" x="403.857422"/>
      <use xlink:href="#DejaVuSans-73" x="465.380859"/>
      <use xlink:href="#DejaVuSans-20" x="517.480469"/>
      <use xlink:href="#DejaVuSans-5b" x="549.267578"/>
      <use xlink:href="#DejaVuSans-61" x="588.28125"/>
      <use xlink:href="#DejaVuSans-2e" x="649.560547"/>
      <use xlink:href="#DejaVuSans-75" x="681.347656"/>
      <use xlink:href="#DejaVuSans-2e" x="744.726562"/>
      <use xlink:href="#DejaVuSans-5d" x="776.513672"/>
     </g>
    </g>
   </g>
   <g id="line2d_17">
    <path d="M 73.832727 307.584 
L 73.865267 307.584 
L 73.895301 304.328813 
L 74.370841 301.524144 
L 74.410882 307.584 
L 74.906449 307.584 
L 75.374488 301.439076 
L 75.387 303.158682 
L 75.915092 307.584 
L 76.340584 304.509368 
L 76.373124 296.121402 
L 76.393137 307.584 
L 77.88734 307.584 
L 77.902357 304.077079 
L 78.397925 307.584 
L 78.880981 300.958176 
L 78.978585 307.584 
L 79.386555 307.584 
L 79.409073 300.423458 
L 79.459135 307.584 
L 80.41773 307.584 
L 80.462767 294.1952 
L 80.9283 307.584 
L 82.852991 307.584 
L 82.883026 287.280316 
L 82.895538 307.584 
L 86.857557 307.584 
L 86.9802 300.77849 
L 87.433206 307.584 
L 88.406819 307.584 
L 88.421836 303.451215 
L 88.919894 307.584 
L 89.397939 307.584 
L 89.870988 296.570185 
L 89.901022 307.584 
L 91.945851 307.584 
L 91.978376 301.076231 
L 92.431397 307.584 
L 92.48146 301.405221 
L 92.987034 307.584 
L 93.85302 307.584 
L 93.900577 304.617874 
L 93.940618 307.584 
L 94.851656 307.584 
L 94.906714 299.589262 
L 94.94926 307.584 
L 95.352219 307.584 
L 95.367237 304.467701 
L 95.439817 307.584 
L 97.912644 307.584 
L 97.947674 302.750699 
L 97.985225 307.584 
L 98.435741 307.584 
L 98.490799 304.131766 
L 98.903764 305.644777 
L 98.956332 307.584 
L 98.996372 298.572775 
L 99.42686 307.584 
L 99.446888 302.374833 
L 99.499441 303.843574 
L 99.985002 307.584 
L 100.002509 302.220321 
L 100.488071 307.584 
L 102.858267 307.584 
L 102.893312 305.649117 
L 102.960882 307.584 
L 103.361336 307.584 
L 103.396381 299.188223 
L 103.433916 307.584 
L 104.492621 307.584 
L 104.910597 305.079676 
L 104.943137 307.584 
L 105.0007 297.526775 
L 105.416186 307.584 
L 105.438705 304.436452 
L 105.506274 307.584 
L 105.934272 307.584 
L 106.011864 304.017183 
L 106.444857 307.584 
L 106.965448 307.584 
L 107.002983 302.493756 
L 107.020506 302.704692 
L 107.503562 307.584 
L 107.523574 296.589281 
L 108.011641 307.584 
L 108.029148 297.672607 
L 108.447125 307.584 
L 108.512204 302.469451 
L 108.534722 278.888877 
L 108.912658 307.584 
L 108.965226 305.062315 
L 109.035301 297.928683 
L 109.458288 307.584 
L 109.540875 304.436452 
L 109.973868 307.584 
L 110.43439 307.584 
L 110.449407 299.875718 
L 110.46693 307.584 
L 111.958628 307.584 
L 112.431662 302.649137 
L 112.521766 307.584 
L 112.967271 307.584 
L 113.007327 305.56752 
L 113.460333 307.584 
L 113.512901 303.476388 
L 114.018474 307.584 
L 114.46899 307.584 
L 114.521543 302.186466 
L 114.932018 307.584 
L 114.949525 295.109258 
L 115.027117 307.584 
L 115.980701 307.584 
L 116.018252 302.602262 
L 116.035775 307.584 
L 116.421211 307.584 
L 116.541349 304.227252 
L 116.974342 307.584 
L 117.429853 307.584 
L 117.932922 304.942525 
L 117.982984 307.584 
L 118.438496 298.787184 
L 118.461029 301.610949 
L 118.976609 307.584 
L 119.469672 307.584 
L 119.932699 302.497228 
L 119.947717 307.584 
L 119.985267 302.229001 
L 120.475824 307.584 
L 120.908817 302.715977 
L 120.978892 307.584 
L 120.99391 303.360938 
L 121.534529 307.584 
L 122.956152 307.584 
L 122.976164 303.060593 
L 123.033728 307.584 
L 123.471732 307.584 
L 123.539302 302.169105 
L 124.00734 307.584 
L 124.042385 296.23859 
L 124.48288 307.584 
L 124.93089 307.584 
L 124.948413 304.045829 
L 124.99597 307.584 
L 125.47901 300.937343 
L 125.491537 307.584 
L 127.491315 307.584 
L 127.956833 302.794969 
L 127.974355 307.584 
L 127.994383 305.121343 
L 128.499957 307.584 
L 129.47606 307.584 
L 129.941593 304.509368 
L 129.994161 307.584 
L 130.517257 307.584 
L 130.53727 305.079676 
L 130.967758 307.584 
L 130.987786 305.24721 
L 131.040354 307.584 
L 131.928859 307.584 
L 132.048996 305.075336 
L 132.451955 303.601388 
L 132.491996 307.584 
L 132.955024 307.584 
L 132.970041 302.477263 
L 133.007592 307.584 
L 133.460598 304.642179 
L 133.500654 307.584 
L 133.515671 302.480736 
L 133.963682 307.584 
L 133.998711 303.659547 
L 134.471761 300.198632 
L 134.524313 307.584 
L 135.009859 307.584 
L 135.497926 303.75156 
L 135.570506 307.584 
L 137.009637 307.584 
L 137.452652 305.362661 
L 137.500194 307.584 
L 138.996902 307.584 
L 139.0845 298.415658 
L 139.49247 307.584 
L 139.552539 300.073634 
L 140.00805 307.584 
L 142.50089 307.584 
L 142.513402 302.991149 
L 143.01398 307.584 
L 144.505678 307.584 
L 144.520695 303.201217 
L 144.953689 307.584 
L 144.971211 305.289745 
L 145.003736 307.584 
L 145.514321 307.584 
L 145.979854 304.887837 
L 146.014899 307.584 
L 147.514098 307.584 
L 147.549143 304.328813 
L 147.962109 307.584 
L 148.032184 303.270661 
L 148.4827 307.584 
L 148.502728 304.586624 
L 148.522756 307.584 
L 148.983278 307.584 
L 149.005796 300.092731 
L 149.043347 303.794095 
L 149.548921 307.584 
L 150.016944 307.584 
L 150.497494 303.008509 
L 150.522518 307.584 
L 151.503647 307.584 
L 151.516159 303.406944 
L 151.548698 307.584 
L 152.03675 307.584 
L 152.457231 303.378299 
L 152.514795 307.584 
L 152.527306 303.183855 
L 153.030375 307.584 
L 153.465874 301.68213 
L 153.523437 307.584 
L 153.535949 299.737699 
L 154.039033 307.584 
L 154.512067 301.108349 
L 154.527084 307.584 
L 157.993536 307.584 
L 158.02357 303.867011 
L 158.061106 307.584 
L 158.984656 307.584 
L 158.999673 303.811456 
L 159.054731 307.584 
L 159.472707 301.663032 
L 159.52778 307.584 
L 159.993298 307.584 
L 160.010821 305.722033 
L 160.048371 307.584 
L 161.50753 307.584 
L 161.532553 298.01896 
L 161.567599 304.286279 
L 162.033132 307.584 
L 162.048149 305.649117 
L 162.103207 307.584 
L 162.5362 307.584 
L 162.969193 303.70729 
L 163.056791 307.584 
L 163.086826 303.393924 
L 163.489785 303.811456 
L 163.519819 304.136106 
L 163.539847 307.584 
L 164.047926 307.584 
L 164.488421 304.660408 
L 164.556006 307.584 
L 165.534614 307.584 
L 165.549631 302.439069 
L 166.052699 307.584 
L 167.04634 307.584 
L 167.061357 302.001572 
L 167.566931 307.584 
L 168.523021 307.584 
L 168.548044 301.216855 
L 168.991044 307.584 
L 169.008567 305.649117 
L 169.09867 307.584 
L 170.557828 307.584 
L 170.995832 303.033683 
L 171.080925 307.584 
L 172.004475 307.584 
L 172.104584 288.019026 
L 172.550105 307.584 
L 172.605163 301.601401 
L 173.050668 307.584 
L 173.070696 305.794949 
L 173.54373 307.584 
L 175.538497 307.584 
L 175.563536 304.304508 
L 175.578553 307.584 
L 176.512109 307.584 
L 176.549644 303.420833 
L 176.567167 307.584 
L 178.011308 307.584 
L 178.046353 304.286279 
L 178.081399 307.584 
L 179.019966 307.584 
L 179.039994 301.691678 
L 179.120076 307.584 
L 179.528045 302.897399 
L 179.623144 307.584 
L 180.016097 305.794949 
L 180.066144 307.584 
L 180.52167 307.584 
L 180.559221 304.779331 
L 180.611774 307.584 
L 181.565358 307.584 
L 181.582896 303.678644 
L 181.620416 307.584 
L 182.030907 307.584 
L 182.050919 299.493777 
L 182.123485 307.584 
L 183.079574 307.584 
L 183.107103 301.875705 
L 183.580168 305.872206 
L 183.610202 307.584 
L 184.07071 307.584 
L 184.088247 304.604853 
L 184.646374 307.584 
L 185.044307 303.643922 
L 185.09689 307.584 
L 185.126924 301.811469 
L 185.149442 301.341854 
L 185.58242 307.584 
L 186.055485 307.584 
L 186.135567 294.488601 
L 186.581072 307.584 
L 186.638635 305.229849 
L 187.066633 307.584 
L 188.075275 307.584 
L 188.092783 301.508519 
L 188.545804 307.584 
L 189.02886 307.584 
L 189.048872 303.360938 
L 189.121468 307.584 
L 189.627042 307.584 
L 190.077558 303.137849 
L 190.130111 299.787177 
L 190.635685 307.584 
L 191.088706 307.584 
L 191.103708 280.829838 
L 191.141259 307.584 
L 191.589269 307.584 
L 191.606776 302.305389 
L 191.644327 307.584 
L 192.535337 307.584 
L 192.567877 304.617874 
L 192.58291 307.584 
L 193.088484 307.584 
L 193.158543 301.765462 
L 193.661642 307.584 
L 194.572665 307.584 
L 195.038183 300.877448 
L 195.090766 307.584 
L 195.543788 304.586624 
L 195.59634 307.584 
L 197.037961 307.584 
L 197.140591 295.368804 
L 197.636143 307.584 
L 198.044128 307.584 
L 198.101692 302.013724 
L 198.139242 307.584 
L 198.60476 307.584 
L 198.642311 305.867866 
L 198.709865 307.584 
L 199.966299 307.584 
L 200.071435 305.229849 
L 200.134009 307.584 
L 202.541741 307.584 
L 202.579292 305.302765 
L 203.044809 301.909559 
L 203.084866 307.584 
L 204.091003 307.584 
L 204.596576 304.869608 
L 204.614084 307.584 
L 205.10215 307.584 
L 205.137196 297.494657 
L 205.607724 307.584 
L 205.637759 304.43298 
L 205.725356 307.584 
L 206.115804 307.584 
L 206.138322 300.89828 
L 206.22592 307.584 
L 210.565875 307.584 
L 210.620932 303.468576 
L 210.723563 307.584 
L 211.066438 307.584 
L 211.106494 300.194293 
L 211.126506 307.584 
L 212.62071 307.584 
L 212.740848 305.258495 
L 213.111282 307.584 
L 213.243916 304.97117 
L 213.74949 305.649117 
L 214.119924 307.584 
L 219.1181 307.584 
L 219.148135 304.929504 
L 219.250765 307.584 
L 219.571121 304.768047 
L 219.668741 307.584 
L 220.07419 307.584 
L 220.129248 301.688206 
L 220.171809 307.584 
L 220.747474 307.584 
L 221.120383 303.071877 
L 222.129025 307.584 
L 224.131308 307.584 
L 224.24894 302.687331 
L 224.496732 307.584 
L 224.754514 305.925157 
L 225.139951 307.584 
L 225.257583 305.015441 
L 225.628017 307.584 
L 225.763187 307.584 
L 226.081039 305.512833 
L 226.148624 307.584 
L 226.266256 303.811456 
L 226.586613 307.584 
L 226.619152 301.808865 
L 226.654198 307.584 
L 227.074679 307.584 
L 227.162277 299.8436 
L 227.274898 304.363535 
L 227.577748 302.810594 
L 227.617773 307.584 
L 227.69538 303.794095 
L 227.780472 307.584 
L 228.083322 302.331431 
L 228.195943 307.584 
L 229.091964 307.584 
L 229.147022 301.988551 
L 229.770228 304.737665 
L 230.138157 307.584 
L 230.761363 307.584 
L 231.091741 304.748082 
L 231.146799 307.584 
L 231.592305 307.584 
L 231.682408 303.505902 
L 231.770006 307.584 
L 233.602104 307.584 
L 233.654656 304.852247 
L 234.140217 307.584 
L 236.00733 307.584 
L 236.107455 304.257633 
L 236.165018 307.584 
L 236.768212 307.584 
L 237.113592 305.872206 
L 237.178672 307.584 
L 237.641684 307.584 
L 237.77936 298.86444 
L 238.162291 307.584 
L 238.279923 297.845349 
L 238.595269 307.584 
L 239.105853 302.481604 
L 239.155931 307.584 
L 239.203473 304.244612 
L 239.709047 307.584 
L 240.602562 307.584 
L 240.62007 301.229876 
L 240.670147 307.584 
L 241.173216 307.584 
L 241.611205 303.451215 
L 241.67879 307.584 
L 243.172993 307.584 
L 243.593475 304.377424 
L 243.676062 307.584 
L 244.171614 307.584 
L 245.160244 304.792352 
L 245.620781 304.467701 
L 247.230112 307.584 
L 247.685638 305.344432 
L 247.73318 300.367034 
L 248.023503 307.584 
L 248.186202 307.584 
L 248.236249 303.734199 
L 248.661741 307.584 
L 248.739317 302.952954 
L 249.187328 307.584 
L 249.600293 307.584 
L 249.672889 304.856588 
L 250.608966 305.576201 
L 250.626473 307.584 
L 252.120677 307.584 
L 252.175735 305.362661 
L 252.598722 307.584 
L 252.68632 302.690804 
L 253.189388 307.584 
L 255.206703 307.584 
L 255.254245 298.674337 
L 255.677232 302.91042 
L 255.759819 300.11096 
L 256.202819 305.452938 
L 256.260382 307.584 
L 258.185089 307.584 
L 259.191226 304.43732 
L 260.134789 307.584 
L 260.199868 304.287147 
L 260.537763 307.584 
L 260.69044 301.465117 
L 260.830591 307.584 
L 261.143462 307.584 
L 261.211016 301.786295 
L 263.21831 302.987677 
L 264.209445 307.584 
L 265.273145 300.158702 
L 265.706154 307.584 
L 265.741169 305.794949 
L 266.209223 302.421708 
L 266.759833 307.584 
L 267.217865 304.038017 
L 268.211505 307.584 
L 271.149835 307.584 
L 271.237433 303.884372 
L 271.783063 307.584 
L 274.233356 307.584 
L 274.758943 305.271515 
L 274.811495 307.584 
L 275.259506 307.584 
L 275.327091 304.213363 
L 275.842686 287.078927 
L 276.235639 304.227252 
L 276.713684 307.584 
L 276.851329 305.945122 
L 278.162821 303.587499 
L 278.225395 307.584 
L 279.158966 307.584 
L 279.777162 297.456463 
L 280.225172 307.584 
L 284.342359 307.584 
L 284.567602 304.796692 
L 284.662716 301.03196 
L 284.805372 305.640437 
L 285.165785 307.584 
L 285.30844 305.00242 
L 285.758956 307.584 
L 285.814045 298.144827 
L 286.176932 307.584 
L 286.317113 307.584 
L 286.332115 295.34363 
L 286.67001 307.584 
L 286.792653 307.584 
L 286.822687 302.74115 
L 287.173078 307.584 
L 287.293216 303.409549 
L 287.325756 307.584 
L 287.83133 307.584 
L 287.853848 305.421688 
L 288.737372 304.96683 
L 288.855005 307.584 
L 289.340535 302.078828 
L 289.360578 307.584 
L 289.843604 307.584 
L 289.861142 302.55452 
L 289.876143 307.584 
L 290.349178 304.629158 
L 290.852277 304.184717 
L 291.790829 305.498944 
L 291.820863 307.584 
L 292.293897 307.584 
L 292.801976 300.323631 
L 292.829505 303.239411 
L 293.302539 301.446888 
L 293.335079 298.048473 
L 293.810619 286.237789 
L 293.835673 307.584 
L 294.171032 307.584 
L 294.313718 291.345393 
L 294.338741 307.584 
L 294.816786 307.584 
L 294.844315 261.991419 
L 295.317349 305.872206 
L 295.347384 287.647502 
L 295.850452 304.44166 
L 296.356026 300.812344 
L 296.819069 301.635255 
L 297.322138 303.318404 
L 297.367174 307.584 
L 297.827712 300.046724 
L 297.867737 307.584 
L 298.373311 307.584 
L 298.836354 301.880913 
L 299.354455 307.584 
L 300.262973 307.584 
L 300.348065 298.367047 
L 300.363097 307.584 
L 300.82611 307.584 
L 300.851133 304.40607 
L 300.866166 307.584 
L 300.878693 284.552035 
L 301.186523 305.945122 
L 301.329178 307.584 
L 301.354233 305.380021 
L 301.829772 307.584 
L 301.857301 300.165647 
L 302.332841 307.584 
L 303.273898 303.097918 
L 303.374023 289.842799 
L 303.874586 305.794949 
L 304.382665 221.946543 
L 304.815674 297.556289 
L 304.885734 294.483394 
L 305.318742 301.037169 
L 305.388802 287.749063 
L 305.824316 303.120488 
L 305.891871 301.841851 
L 306.327385 303.030211 
L 306.700294 307.584 
L 306.832959 287.876666 
L 307.195877 307.584 
L 307.336027 307.584 
L 307.363556 303.870483 
L 307.701451 307.584 
L 307.866625 294.903529 
L 308.094403 307.584 
L 308.34467 305.344432 
L 308.372198 296.329735 
L 308.707588 307.584 
L 308.845233 297.832329 
L 309.210656 307.584 
L 309.350837 295.365332 
L 309.8514 300.745504 
L 310.359479 211.674916 
L 310.389514 297.584066 
L 310.860043 284.251691 
L 310.892582 305.644777 
L 311.398156 307.584 
L 312.361762 307.584 
L 313.337865 303.575346 
L 313.367899 301.071891 
L 313.873473 307.584 
L 314.376542 299.113571 
L 314.714436 303.038023 
L 314.87961 301.667373 
L 315.202472 307.584 
L 315.357655 307.584 
L 315.38769 222.330229 
L 315.708046 307.584 
L 315.860724 307.584 
L 315.888253 281.835038 
L 316.211145 307.584 
L 316.366298 302.794969 
L 316.393827 295.356651 
L 316.714214 307.584 
L 316.869366 305.722033 
L 316.896926 293.517254 
L 317.372465 307.584 
L 317.405005 293.632704 
L 317.908073 307.584 
L 318.356084 307.584 
L 318.413647 285.88102 
L 319.21706 307.584 
L 319.419784 299.084924 
L 319.710107 307.584 
L 319.852762 303.566666 
L 319.922853 307.584 
L 320.10807 307.584 
L 320.355861 303.634373 
L 321.364504 307.584 
L 321.397044 301.752442 
L 321.867572 307.584 
L 321.900112 301.34359 
L 322.373146 286.943512 
L 322.403181 303.288021 
L 322.428204 303.060593 
L 322.876215 302.76372 
L 322.906249 288.672667 
L 322.931273 307.584 
L 323.381789 203.668886 
L 323.409318 299.50506 
L 323.884857 262.834298 
L 324.217741 303.917358 
L 324.387926 283.237806 
L 324.422971 307.584 
L 324.72081 307.584 
L 324.888519 302.143064 
L 325.391588 304.264578 
L 325.411601 307.584 
L 325.434119 301.768935 
L 326.390209 282.670971 
L 326.420243 301.845323 
L 326.893277 303.494618 
L 327.371322 305.835748 
L 327.398882 296.407859 
L 327.721744 307.584 
L 327.874421 307.584 
L 327.90195 292.091048 
L 328.37749 302.718581 
L 328.410029 279.438353 
L 328.880558 307.584 
L 328.913098 294.84103 
L 329.388637 307.584 
L 329.418672 257.843011 
L 329.891706 307.584 
L 329.92174 285.688314 
L 330.377267 307.584 
L 330.394774 303.780206 
L 330.424809 302.958163 
L 330.897843 304.64652 
L 330.962923 297.767225 
L 331.400911 307.584 
L 331.465991 303.136113 
L 331.868965 304.973774 
L 331.90398 307.584 
L 332.409584 307.584 
L 332.912653 304.394785 
L 333.378171 304.178641 
L 333.408205 302.480736 
L 333.420732 307.584 
L 333.881239 304.454681 
L 333.911274 307.584 
L 334.386813 267.643292 
L 334.426869 307.584 
L 334.889882 273.490477 
L 335.395456 293.333226 
L 335.898555 300.302798 
L 336.406634 294.314991 
L 336.907197 297.268964 
L 337.415276 278.545998 
L 337.915839 290.240366 
L 338.351323 305.121343 
L 338.386368 302.87917 
L 338.418908 298.791524 
L 338.919471 307.584 
L 339.397516 295.938244 
L 339.412548 302.706428 
L 339.900584 307.584 
L 339.915617 299.07798 
L 340.396167 307.584 
L 340.423696 275.517372 
L 340.89673 307.584 
L 340.926765 301.142202 
L 341.402304 302.275007 
L 341.905373 307.584 
L 341.967947 295.939112 
L 342.405936 302.221189 
L 342.46851 300.518943 
L 342.909035 307.584 
L 343.414609 303.148266 
L 343.917677 307.584 
L 345.431894 307.584 
L 346.372951 304.105725 
L 346.402985 307.584 
L 346.873545 305.867866 
L 346.976144 307.584 
L 347.411658 295.229048 
L 347.479213 307.584 
L 347.912221 304.127426 
L 348.420301 256.54354 
L 348.885819 307.584 
L 348.923369 287.404446 
L 348.955909 302.858337 
L 349.391393 304.352251 
L 349.426438 282.507778 
L 349.927001 307.584 
L 349.964552 283.870615 
L 350.420078 307.584 
L 350.465115 296.445185 
L 350.920641 305.571861 
L 352.419856 307.584 
L 353.914059 301.381784 
L 354.422139 307.584 
L 355.993918 304.255897 
L 356.939987 307.584 
L 360.00099 307.584 
L 361.522722 302.614415 
L 361.772988 307.584 
L 367.887448 307.584 
L 368.393022 305.722033 
L 372.913183 303.39566 
L 373.921825 303.072745 
L 375.556179 307.584 
L 375.941616 304.436452 
L 376.447189 307.584 
L 380.909787 305.872206 
L 382.804429 307.584 
L 383.813072 307.584 
L 394.940739 303.294966 
L 398.487273 307.584 
L 398.487273 307.584 
" clip-path="url(#pcac3a6690e)" style="fill: none; stroke: #1f77b4; stroke-width: 1.5; stroke-linecap: square"/>
   </g>
   <g id="patch_3">
    <path d="M 57.6 307.584 
L 57.6 41.472 
" style="fill: none; stroke: #000000; stroke-width: 0.8; stroke-linejoin: miter; stroke-linecap: square"/>
   </g>
   <g id="patch_4">
    <path d="M 414.72 307.584 
L 414.72 41.472 
" style="fill: none; stroke: #000000; stroke-width: 0.8; stroke-linejoin: miter; stroke-linecap: square"/>
   </g>
   <g id="patch_5">
    <path d="M 57.6 307.584 
L 414.72 307.584 
" style="fill: none; stroke: #000000; stroke-width: 0.8; stroke-linejoin: miter; stroke-linecap: square"/>
   </g>
   <g id="patch_6">
    <path d="M 57.6 41.472 
L 414.72 41.472 
" style="fill: none; stroke: #000000; stroke-width: 0.8; stroke-linejoin: miter; stroke-linecap: square"/>
   </g>
   <g id="legend_1">
    <g id="patch_7">
     <path d="M 323.385625 64.150125 
L 407.72 64.150125 
Q 409.72 64.150125 409.72 62.150125 
L 409.72 48.472 
Q 409.72 46.472 407.72 46.472 
L 323.385625 46.472 
Q 321.385625 46.472 321.385625 48.472 
L 321.385625 62.150125 
Q 321.385625 64.150125 323.385625 64.150125 
z
" style="fill: #ffffff; opacity: 0.8; stroke: #cccccc; stroke-linejoin: miter"/>
    </g>
    <g id="line2d_18">
     <path d="M 325.385625 54.570438 
L 335.385625 54.570438 
L 345.385625 54.570438 
" style="fill: none; stroke: #1f77b4; stroke-width: 1.5; stroke-linecap: square"/>
    </g>
    <g id="text_19">
     <!-- (317, 385) -->
     <g transform="translate(353.385625 58.070438) scale(0.1 -0.1)">
      <defs>
       <path id="DejaVuSans-28" d="M 1984 4856 
Q 1566 4138 1362 3434 
Q 1159 2731 1159 2009 
Q 1159 1288 1364 580 
Q 1569 -128 1984 -844 
L 1484 -844 
Q 1016 -109 783 600 
Q 550 1309 550 2009 
Q 550 2706 781 3412 
Q 1013 4119 1484 4856 
L 1984 4856 
z
" transform="scale(0.015625)"/>
       <path id="DejaVuSans-2c" d="M 750 794 
L 1409 794 
L 1409 256 
L 897 -744 
L 494 -744 
L 750 256 
L 750 794 
z
" transform="scale(0.015625)"/>
       <path id="DejaVuSans-29" d="M 513 4856 
L 1013 4856 
Q 1481 4119 1714 3412 
Q 1947 2706 1947 2009 
Q 1947 1309 1714 600 
Q 1481 -109 1013 -844 
L 513 -844 
Q 928 -128 1133 580 
Q 1338 1288 1338 2009 
Q 1338 2731 1133 3434 
Q 928 4138 513 4856 
z
" transform="scale(0.015625)"/>
      </defs>
      <use xlink:href="#DejaVuSans-28"/>
      <use xlink:href="#DejaVuSans-33" x="39.013672"/>
      <use xlink:href="#DejaVuSans-31" x="102.636719"/>
      <use xlink:href="#DejaVuSans-37" x="166.259766"/>
      <use xlink:href="#DejaVuSans-2c" x="229.882812"/>
      <use xlink:href="#DejaVuSans-20" x="261.669922"/>
      <use xlink:href="#DejaVuSans-33" x="293.457031"/>
      <use xlink:href="#DejaVuSans-38" x="357.080078"/>
      <use xlink:href="#DejaVuSans-35" x="420.703125"/>
      <use xlink:href="#DejaVuSans-29" x="484.326172"/>
     </g>
    </g>
   </g>
  </g>
 </g>
 <defs>
  <clipPath id="pcac3a6690e">
   <rect x="57.6" y="41.472" width="357.12" height="266.112"/>
  </clipPath>
 </defs>
</svg>
