<?xml version="1.0" encoding="utf-8" standalone="no"?>
<!DOCTYPE svg PUBLIC "-//W3C//DTD SVG 1.1//EN"
  "http://www.w3.org/Graphics/SVG/1.1/DTD/svg11.dtd">
<svg xmlns:xlink="http://www.w3.org/1999/xlink" width="460.8pt" height="345.6pt" viewBox="0 0 460.8 345.6" xmlns="http://www.w3.org/2000/svg" version="1.1">
 <metadata>
  <rdf:RDF xmlns:dc="http://purl.org/dc/elements/1.1/" xmlns:cc="http://creativecommons.org/ns#" xmlns:rdf="http://www.w3.org/1999/02/22-rdf-syntax-ns#">
   <cc:Work>
    <dc:type rdf:resource="http://purl.org/dc/dcmitype/StillImage"/>
    <dc:date>2025-12-03T20:42:15.897873</dc:date>
    <dc:format>image/svg+xml</dc:format>
    <dc:creator>
     <cc:Agent>
      <dc:title>Matplotlib v3.8.4, https://matplotlib.org/</dc:title>
     </cc:Agent>
    </dc:creator>
   </cc:Work>
  </rdf:RDF>
 </metadata>
 <defs>
  <style type="text/css">*{stroke-linejoin: round; stroke-linecap: butt}</style>
 </defs>
 <g id="figure_1">
  <g id="patch_1">
   <path d="M 0 345.6 
L 460.8 345.6 
L 460.8 0 
L 0 0 
z
" style="fill: #ffffff"/>
  </g>
  <g id="axes_1">
   <g id="patch_2">
    <path d="M 57.6 307.584 
L 414.72 307.584 
L 414.72 41.472 
L 57.6 41.472 
z
" style="fill: #ffffff"/>
   </g>
   <g id="matplotlib.axis_1">
    <g id="xtick_1">
     <g id="line2d_1">
      <defs>
       <path id="m24ea6eb02b" d="M 0 0 
L 0 3.5 
" style="stroke: #000000; stroke-width: 0.8"/>
      </defs>
      <g>
       <use xlink:href="#m24ea6eb02b" x="73.818841" y="307.584" style="stroke: #000000; stroke-width: 0.8"/>
      </g>
     </g>
     <g id="text_1">
      <!-- 300 -->
      <g transform="translate(64.275091 322.182437) scale(0.1 -0.1)">
       <defs>
        <path id="DejaVuSans-33" d="M 2597 2516 
Q 3050 2419 3304 2112 
Q 3559 1806 3559 1356 
Q 3559 666 3084 287 
Q 2609 -91 1734 -91 
Q 1441 -91 1130 -33 
Q 819 25 488 141 
L 488 750 
Q 750 597 1062 519 
Q 1375 441 1716 441 
Q 2309 441 2620 675 
Q 2931 909 2931 1356 
Q 2931 1769 2642 2001 
Q 2353 2234 1838 2234 
L 1294 2234 
L 1294 2753 
L 1863 2753 
Q 2328 2753 2575 2939 
Q 2822 3125 2822 3475 
Q 2822 3834 2567 4026 
Q 2313 4219 1838 4219 
Q 1578 4219 1281 4162 
Q 984 4106 628 3988 
L 628 4550 
Q 988 4650 1302 4700 
Q 1616 4750 1894 4750 
Q 2613 4750 3031 4423 
Q 3450 4097 3450 3541 
Q 3450 3153 3228 2886 
Q 3006 2619 2597 2516 
z
" transform="scale(0.015625)"/>
        <path id="DejaVuSans-30" d="M 2034 4250 
Q 1547 4250 1301 3770 
Q 1056 3291 1056 2328 
Q 1056 1369 1301 889 
Q 1547 409 2034 409 
Q 2525 409 2770 889 
Q 3016 1369 3016 2328 
Q 3016 3291 2770 3770 
Q 2525 4250 2034 4250 
z
M 2034 4750 
Q 2819 4750 3233 4129 
Q 3647 3509 3647 2328 
Q 3647 1150 3233 529 
Q 2819 -91 2034 -91 
Q 1250 -91 836 529 
Q 422 1150 422 2328 
Q 422 3509 836 4129 
Q 1250 4750 2034 4750 
z
" transform="scale(0.015625)"/>
       </defs>
       <use xlink:href="#DejaVuSans-33"/>
       <use xlink:href="#DejaVuSans-30" x="63.623047"/>
       <use xlink:href="#DejaVuSans-30" x="127.246094"/>
      </g>
     </g>
    </g>
    <g id="xtick_2">
     <g id="line2d_2">
      <g>
       <use xlink:href="#m24ea6eb02b" x="123.878205" y="307.584" style="stroke: #000000; stroke-width: 0.8"/>
      </g>
     </g>
     <g id="text_2">
      <!-- 400 -->
      <g transform="translate(114.334455 322.182437) scale(0.1 -0.1)">
       <defs>
        <path id="DejaVuSans-34" d="M 2419 4116 
L 825 1625 
L 2419 1625 
L 2419 4116 
z
M 2253 4666 
L 3047 4666 
L 3047 1625 
L 3713 1625 
L 3713 1100 
L 3047 1100 
L 3047 0 
L 2419 0 
L 2419 1100 
L 313 1100 
L 313 1709 
L 2253 4666 
z
" transform="scale(0.015625)"/>
       </defs>
       <use xlink:href="#DejaVuSans-34"/>
       <use xlink:href="#DejaVuSans-30" x="63.623047"/>
       <use xlink:href="#DejaVuSans-30" x="127.246094"/>
      </g>
     </g>
    </g>
    <g id="xtick_3">
     <g id="line2d_3">
      <g>
       <use xlink:href="#m24ea6eb02b" x="173.937569" y="307.584" style="stroke: #000000; stroke-width: 0.8"/>
      </g>
     </g>
     <g id="text_3">
      <!-- 500 -->
      <g transform="translate(164.393819 322.182437) scale(0.1 -0.1)">
       <defs>
        <path id="DejaVuSans-35" d="M 691 4666 
L 3169 4666 
L 3169 4134 
L 1269 4134 
L 1269 2991 
Q 1406 3038 1543 3061 
Q 1681 3084 1819 3084 
Q 2600 3084 3056 2656 
Q 3513 2228 3513 1497 
Q 3513 744 3044 326 
Q 2575 -91 1722 -91 
Q 1428 -91 1123 -41 
Q 819 9 494 109 
L 494 744 
Q 775 591 1075 516 
Q 1375 441 1709 441 
Q 2250 441 2565 725 
Q 2881 1009 2881 1497 
Q 2881 1984 2565 2268 
Q 2250 2553 1709 2553 
Q 1456 2553 1204 2497 
Q 953 2441 691 2322 
L 691 4666 
z
" transform="scale(0.015625)"/>
       </defs>
       <use xlink:href="#DejaVuSans-35"/>
       <use xlink:href="#DejaVuSans-30" x="63.623047"/>
       <use xlink:href="#DejaVuSans-30" x="127.246094"/>
      </g>
     </g>
    </g>
    <g id="xtick_4">
     <g id="line2d_4">
      <g>
       <use xlink:href="#m24ea6eb02b" x="223.996933" y="307.584" style="stroke: #000000; stroke-width: 0.8"/>
      </g>
     </g>
     <g id="text_4">
      <!-- 600 -->
      <g transform="translate(214.453183 322.182437) scale(0.1 -0.1)">
       <defs>
        <path id="DejaVuSans-36" d="M 2113 2584 
Q 1688 2584 1439 2293 
Q 1191 2003 1191 1497 
Q 1191 994 1439 701 
Q 1688 409 2113 409 
Q 2538 409 2786 701 
Q 3034 994 3034 1497 
Q 3034 2003 2786 2293 
Q 2538 2584 2113 2584 
z
M 3366 4563 
L 3366 3988 
Q 3128 4100 2886 4159 
Q 2644 4219 2406 4219 
Q 1781 4219 1451 3797 
Q 1122 3375 1075 2522 
Q 1259 2794 1537 2939 
Q 1816 3084 2150 3084 
Q 2853 3084 3261 2657 
Q 3669 2231 3669 1497 
Q 3669 778 3244 343 
Q 2819 -91 2113 -91 
Q 1303 -91 875 529 
Q 447 1150 447 2328 
Q 447 3434 972 4092 
Q 1497 4750 2381 4750 
Q 2619 4750 2861 4703 
Q 3103 4656 3366 4563 
z
" transform="scale(0.015625)"/>
       </defs>
       <use xlink:href="#DejaVuSans-36"/>
       <use xlink:href="#DejaVuSans-30" x="63.623047"/>
       <use xlink:href="#DejaVuSans-30" x="127.246094"/>
      </g>
     </g>
    </g>
    <g id="xtick_5">
     <g id="line2d_5">
      <g>
       <use xlink:href="#m24ea6eb02b" x="274.056297" y="307.584" style="stroke: #000000; stroke-width: 0.8"/>
      </g>
     </g>
     <g id="text_5">
      <!-- 700 -->
      <g transform="translate(264.512547 322.182437) scale(0.1 -0.1)">
       <defs>
        <path id="DejaVuSans-37" d="M 525 4666 
L 3525 4666 
L 3525 4397 
L 1831 0 
L 1172 0 
L 2766 4134 
L 525 4134 
L 525 4666 
z
" transform="scale(0.015625)"/>
       </defs>
       <use xlink:href="#DejaVuSans-37"/>
       <use xlink:href="#DejaVuSans-30" x="63.623047"/>
       <use xlink:href="#DejaVuSans-30" x="127.246094"/>
      </g>
     </g>
    </g>
    <g id="xtick_6">
     <g id="line2d_6">
      <g>
       <use xlink:href="#m24ea6eb02b" x="324.115661" y="307.584" style="stroke: #000000; stroke-width: 0.8"/>
      </g>
     </g>
     <g id="text_6">
      <!-- 800 -->
      <g transform="translate(314.571911 322.182437) scale(0.1 -0.1)">
       <defs>
        <path id="DejaVuSans-38" d="M 2034 2216 
Q 1584 2216 1326 1975 
Q 1069 1734 1069 1313 
Q 1069 891 1326 650 
Q 1584 409 2034 409 
Q 2484 409 2743 651 
Q 3003 894 3003 1313 
Q 3003 1734 2745 1975 
Q 2488 2216 2034 2216 
z
M 1403 2484 
Q 997 2584 770 2862 
Q 544 3141 544 3541 
Q 544 4100 942 4425 
Q 1341 4750 2034 4750 
Q 2731 4750 3128 4425 
Q 3525 4100 3525 3541 
Q 3525 3141 3298 2862 
Q 3072 2584 2669 2484 
Q 3125 2378 3379 2068 
Q 3634 1759 3634 1313 
Q 3634 634 3220 271 
Q 2806 -91 2034 -91 
Q 1263 -91 848 271 
Q 434 634 434 1313 
Q 434 1759 690 2068 
Q 947 2378 1403 2484 
z
M 1172 3481 
Q 1172 3119 1398 2916 
Q 1625 2713 2034 2713 
Q 2441 2713 2670 2916 
Q 2900 3119 2900 3481 
Q 2900 3844 2670 4047 
Q 2441 4250 2034 4250 
Q 1625 4250 1398 4047 
Q 1172 3844 1172 3481 
z
" transform="scale(0.015625)"/>
       </defs>
       <use xlink:href="#DejaVuSans-38"/>
       <use xlink:href="#DejaVuSans-30" x="63.623047"/>
       <use xlink:href="#DejaVuSans-30" x="127.246094"/>
      </g>
     </g>
    </g>
    <g id="xtick_7">
     <g id="line2d_7">
      <g>
       <use xlink:href="#m24ea6eb02b" x="374.175025" y="307.584" style="stroke: #000000; stroke-width: 0.8"/>
      </g>
     </g>
     <g id="text_7">
      <!-- 900 -->
      <g transform="translate(364.631275 322.182437) scale(0.1 -0.1)">
       <defs>
        <path id="DejaVuSans-39" d="M 703 97 
L 703 672 
Q 941 559 1184 500 
Q 1428 441 1663 441 
Q 2288 441 2617 861 
Q 2947 1281 2994 2138 
Q 2813 1869 2534 1725 
Q 2256 1581 1919 1581 
Q 1219 1581 811 2004 
Q 403 2428 403 3163 
Q 403 3881 828 4315 
Q 1253 4750 1959 4750 
Q 2769 4750 3195 4129 
Q 3622 3509 3622 2328 
Q 3622 1225 3098 567 
Q 2575 -91 1691 -91 
Q 1453 -91 1209 -44 
Q 966 3 703 97 
z
M 1959 2075 
Q 2384 2075 2632 2365 
Q 2881 2656 2881 3163 
Q 2881 3666 2632 3958 
Q 2384 4250 1959 4250 
Q 1534 4250 1286 3958 
Q 1038 3666 1038 3163 
Q 1038 2656 1286 2365 
Q 1534 2075 1959 2075 
z
" transform="scale(0.015625)"/>
       </defs>
       <use xlink:href="#DejaVuSans-39"/>
       <use xlink:href="#DejaVuSans-30" x="63.623047"/>
       <use xlink:href="#DejaVuSans-30" x="127.246094"/>
      </g>
     </g>
    </g>
    <g id="text_8">
     <!-- m/z -->
     <g transform="translate(226.981094 335.860562) scale(0.1 -0.1)">
      <defs>
       <path id="DejaVuSans-6d" d="M 3328 2828 
Q 3544 3216 3844 3400 
Q 4144 3584 4550 3584 
Q 5097 3584 5394 3201 
Q 5691 2819 5691 2113 
L 5691 0 
L 5113 0 
L 5113 2094 
Q 5113 2597 4934 2840 
Q 4756 3084 4391 3084 
Q 3944 3084 3684 2787 
Q 3425 2491 3425 1978 
L 3425 0 
L 2847 0 
L 2847 2094 
Q 2847 2600 2669 2842 
Q 2491 3084 2119 3084 
Q 1678 3084 1418 2786 
Q 1159 2488 1159 1978 
L 1159 0 
L 581 0 
L 581 3500 
L 1159 3500 
L 1159 2956 
Q 1356 3278 1631 3431 
Q 1906 3584 2284 3584 
Q 2666 3584 2933 3390 
Q 3200 3197 3328 2828 
z
" transform="scale(0.015625)"/>
       <path id="DejaVuSans-2f" d="M 1625 4666 
L 2156 4666 
L 531 -594 
L 0 -594 
L 1625 4666 
z
" transform="scale(0.015625)"/>
       <path id="DejaVuSans-7a" d="M 353 3500 
L 3084 3500 
L 3084 2975 
L 922 459 
L 3084 459 
L 3084 0 
L 275 0 
L 275 525 
L 2438 3041 
L 353 3041 
L 353 3500 
z
" transform="scale(0.015625)"/>
      </defs>
      <use xlink:href="#DejaVuSans-6d"/>
      <use xlink:href="#DejaVuSans-2f" x="97.412109"/>
      <use xlink:href="#DejaVuSans-7a" x="131.103516"/>
     </g>
    </g>
   </g>
   <g id="matplotlib.axis_2">
    <g id="ytick_1">
     <g id="line2d_8">
      <defs>
       <path id="m4eedb6f0cf" d="M 0 0 
L -3.5 0 
" style="stroke: #000000; stroke-width: 0.8"/>
      </defs>
      <g>
       <use xlink:href="#m4eedb6f0cf" x="57.6" y="307.584" style="stroke: #000000; stroke-width: 0.8"/>
      </g>
     </g>
     <g id="text_9">
      <!-- 0 -->
      <g transform="translate(44.2375 311.383219) scale(0.1 -0.1)">
       <use xlink:href="#DejaVuSans-30"/>
      </g>
     </g>
    </g>
    <g id="ytick_2">
     <g id="line2d_9">
      <g>
       <use xlink:href="#m4eedb6f0cf" x="57.6" y="276.489292" style="stroke: #000000; stroke-width: 0.8"/>
      </g>
     </g>
     <g id="text_10">
      <!-- 100 -->
      <g transform="translate(31.5125 280.288511) scale(0.1 -0.1)">
       <defs>
        <path id="DejaVuSans-31" d="M 794 531 
L 1825 531 
L 1825 4091 
L 703 3866 
L 703 4441 
L 1819 4666 
L 2450 4666 
L 2450 531 
L 3481 531 
L 3481 0 
L 794 0 
L 794 531 
z
" transform="scale(0.015625)"/>
       </defs>
       <use xlink:href="#DejaVuSans-31"/>
       <use xlink:href="#DejaVuSans-30" x="63.623047"/>
       <use xlink:href="#DejaVuSans-30" x="127.246094"/>
      </g>
     </g>
    </g>
    <g id="ytick_3">
     <g id="line2d_10">
      <g>
       <use xlink:href="#m4eedb6f0cf" x="57.6" y="245.394584" style="stroke: #000000; stroke-width: 0.8"/>
      </g>
     </g>
     <g id="text_11">
      <!-- 200 -->
      <g transform="translate(31.5125 249.193803) scale(0.1 -0.1)">
       <defs>
        <path id="DejaVuSans-32" d="M 1228 531 
L 3431 531 
L 3431 0 
L 469 0 
L 469 531 
Q 828 903 1448 1529 
Q 2069 2156 2228 2338 
Q 2531 2678 2651 2914 
Q 2772 3150 2772 3378 
Q 2772 3750 2511 3984 
Q 2250 4219 1831 4219 
Q 1534 4219 1204 4116 
Q 875 4013 500 3803 
L 500 4441 
Q 881 4594 1212 4672 
Q 1544 4750 1819 4750 
Q 2544 4750 2975 4387 
Q 3406 4025 3406 3419 
Q 3406 3131 3298 2873 
Q 3191 2616 2906 2266 
Q 2828 2175 2409 1742 
Q 1991 1309 1228 531 
z
" transform="scale(0.015625)"/>
       </defs>
       <use xlink:href="#DejaVuSans-32"/>
       <use xlink:href="#DejaVuSans-30" x="63.623047"/>
       <use xlink:href="#DejaVuSans-30" x="127.246094"/>
      </g>
     </g>
    </g>
    <g id="ytick_4">
     <g id="line2d_11">
      <g>
       <use xlink:href="#m4eedb6f0cf" x="57.6" y="214.299876" style="stroke: #000000; stroke-width: 0.8"/>
      </g>
     </g>
     <g id="text_12">
      <!-- 300 -->
      <g transform="translate(31.5125 218.099095) scale(0.1 -0.1)">
       <use xlink:href="#DejaVuSans-33"/>
       <use xlink:href="#DejaVuSans-30" x="63.623047"/>
       <use xlink:href="#DejaVuSans-30" x="127.246094"/>
      </g>
     </g>
    </g>
    <g id="ytick_5">
     <g id="line2d_12">
      <g>
       <use xlink:href="#m4eedb6f0cf" x="57.6" y="183.205168" style="stroke: #000000; stroke-width: 0.8"/>
      </g>
     </g>
     <g id="text_13">
      <!-- 400 -->
      <g transform="translate(31.5125 187.004386) scale(0.1 -0.1)">
       <use xlink:href="#DejaVuSans-34"/>
       <use xlink:href="#DejaVuSans-30" x="63.623047"/>
       <use xlink:href="#DejaVuSans-30" x="127.246094"/>
      </g>
     </g>
    </g>
    <g id="ytick_6">
     <g id="line2d_13">
      <g>
       <use xlink:href="#m4eedb6f0cf" x="57.6" y="152.11046" style="stroke: #000000; stroke-width: 0.8"/>
      </g>
     </g>
     <g id="text_14">
      <!-- 500 -->
      <g transform="translate(31.5125 155.909678) scale(0.1 -0.1)">
       <use xlink:href="#DejaVuSans-35"/>
       <use xlink:href="#DejaVuSans-30" x="63.623047"/>
       <use xlink:href="#DejaVuSans-30" x="127.246094"/>
      </g>
     </g>
    </g>
    <g id="ytick_7">
     <g id="line2d_14">
      <g>
       <use xlink:href="#m4eedb6f0cf" x="57.6" y="121.015752" style="stroke: #000000; stroke-width: 0.8"/>
      </g>
     </g>
     <g id="text_15">
      <!-- 600 -->
      <g transform="translate(31.5125 124.81497) scale(0.1 -0.1)">
       <use xlink:href="#DejaVuSans-36"/>
       <use xlink:href="#DejaVuSans-30" x="63.623047"/>
       <use xlink:href="#DejaVuSans-30" x="127.246094"/>
      </g>
     </g>
    </g>
    <g id="ytick_8">
     <g id="line2d_15">
      <g>
       <use xlink:href="#m4eedb6f0cf" x="57.6" y="89.921043" style="stroke: #000000; stroke-width: 0.8"/>
      </g>
     </g>
     <g id="text_16">
      <!-- 700 -->
      <g transform="translate(31.5125 93.720262) scale(0.1 -0.1)">
       <use xlink:href="#DejaVuSans-37"/>
       <use xlink:href="#DejaVuSans-30" x="63.623047"/>
       <use xlink:href="#DejaVuSans-30" x="127.246094"/>
      </g>
     </g>
    </g>
    <g id="ytick_9">
     <g id="line2d_16">
      <g>
       <use xlink:href="#m4eedb6f0cf" x="57.6" y="58.826335" style="stroke: #000000; stroke-width: 0.8"/>
      </g>
     </g>
     <g id="text_17">
      <!-- 800 -->
      <g transform="translate(31.5125 62.625554) scale(0.1 -0.1)">
       <use xlink:href="#DejaVuSans-38"/>
       <use xlink:href="#DejaVuSans-30" x="63.623047"/>
       <use xlink:href="#DejaVuSans-30" x="127.246094"/>
      </g>
     </g>
    </g>
    <g id="text_18">
     <!-- Intensities [a.u.] -->
     <g transform="translate(25.432812 215.303) rotate(-90) scale(0.1 -0.1)">
      <defs>
       <path id="DejaVuSans-49" d="M 628 4666 
L 1259 4666 
L 1259 0 
L 628 0 
L 628 4666 
z
" transform="scale(0.015625)"/>
       <path id="DejaVuSans-6e" d="M 3513 2113 
L 3513 0 
L 2938 0 
L 2938 2094 
Q 2938 2591 2744 2837 
Q 2550 3084 2163 3084 
Q 1697 3084 1428 2787 
Q 1159 2491 1159 1978 
L 1159 0 
L 581 0 
L 581 3500 
L 1159 3500 
L 1159 2956 
Q 1366 3272 1645 3428 
Q 1925 3584 2291 3584 
Q 2894 3584 3203 3211 
Q 3513 2838 3513 2113 
z
" transform="scale(0.015625)"/>
       <path id="DejaVuSans-74" d="M 1172 4494 
L 1172 3500 
L 2356 3500 
L 2356 3053 
L 1172 3053 
L 1172 1153 
Q 1172 725 1289 603 
Q 1406 481 1766 481 
L 2356 481 
L 2356 0 
L 1766 0 
Q 1100 0 847 248 
Q 594 497 594 1153 
L 594 3053 
L 172 3053 
L 172 3500 
L 594 3500 
L 594 4494 
L 1172 4494 
z
" transform="scale(0.015625)"/>
       <path id="DejaVuSans-65" d="M 3597 1894 
L 3597 1613 
L 953 1613 
Q 991 1019 1311 708 
Q 1631 397 2203 397 
Q 2534 397 2845 478 
Q 3156 559 3463 722 
L 3463 178 
Q 3153 47 2828 -22 
Q 2503 -91 2169 -91 
Q 1331 -91 842 396 
Q 353 884 353 1716 
Q 353 2575 817 3079 
Q 1281 3584 2069 3584 
Q 2775 3584 3186 3129 
Q 3597 2675 3597 1894 
z
M 3022 2063 
Q 3016 2534 2758 2815 
Q 2500 3097 2075 3097 
Q 1594 3097 1305 2825 
Q 1016 2553 972 2059 
L 3022 2063 
z
" transform="scale(0.015625)"/>
       <path id="DejaVuSans-73" d="M 2834 3397 
L 2834 2853 
Q 2591 2978 2328 3040 
Q 2066 3103 1784 3103 
Q 1356 3103 1142 2972 
Q 928 2841 928 2578 
Q 928 2378 1081 2264 
Q 1234 2150 1697 2047 
L 1894 2003 
Q 2506 1872 2764 1633 
Q 3022 1394 3022 966 
Q 3022 478 2636 193 
Q 2250 -91 1575 -91 
Q 1294 -91 989 -36 
Q 684 19 347 128 
L 347 722 
Q 666 556 975 473 
Q 1284 391 1588 391 
Q 1994 391 2212 530 
Q 2431 669 2431 922 
Q 2431 1156 2273 1281 
Q 2116 1406 1581 1522 
L 1381 1569 
Q 847 1681 609 1914 
Q 372 2147 372 2553 
Q 372 3047 722 3315 
Q 1072 3584 1716 3584 
Q 2034 3584 2315 3537 
Q 2597 3491 2834 3397 
z
" transform="scale(0.015625)"/>
       <path id="DejaVuSans-69" d="M 603 3500 
L 1178 3500 
L 1178 0 
L 603 0 
L 603 3500 
z
M 603 4863 
L 1178 4863 
L 1178 4134 
L 603 4134 
L 603 4863 
z
" transform="scale(0.015625)"/>
       <path id="DejaVuSans-20" transform="scale(0.015625)"/>
       <path id="DejaVuSans-5b" d="M 550 4863 
L 1875 4863 
L 1875 4416 
L 1125 4416 
L 1125 -397 
L 1875 -397 
L 1875 -844 
L 550 -844 
L 550 4863 
z
" transform="scale(0.015625)"/>
       <path id="DejaVuSans-61" d="M 2194 1759 
Q 1497 1759 1228 1600 
Q 959 1441 959 1056 
Q 959 750 1161 570 
Q 1363 391 1709 391 
Q 2188 391 2477 730 
Q 2766 1069 2766 1631 
L 2766 1759 
L 2194 1759 
z
M 3341 1997 
L 3341 0 
L 2766 0 
L 2766 531 
Q 2569 213 2275 61 
Q 1981 -91 1556 -91 
Q 1019 -91 701 211 
Q 384 513 384 1019 
Q 384 1609 779 1909 
Q 1175 2209 1959 2209 
L 2766 2209 
L 2766 2266 
Q 2766 2663 2505 2880 
Q 2244 3097 1772 3097 
Q 1472 3097 1187 3025 
Q 903 2953 641 2809 
L 641 3341 
Q 956 3463 1253 3523 
Q 1550 3584 1831 3584 
Q 2591 3584 2966 3190 
Q 3341 2797 3341 1997 
z
" transform="scale(0.015625)"/>
       <path id="DejaVuSans-2e" d="M 684 794 
L 1344 794 
L 1344 0 
L 684 0 
L 684 794 
z
" transform="scale(0.015625)"/>
       <path id="DejaVuSans-75" d="M 544 1381 
L 544 3500 
L 1119 3500 
L 1119 1403 
Q 1119 906 1312 657 
Q 1506 409 1894 409 
Q 2359 409 2629 706 
Q 2900 1003 2900 1516 
L 2900 3500 
L 3475 3500 
L 3475 0 
L 2900 0 
L 2900 538 
Q 2691 219 2414 64 
Q 2138 -91 1772 -91 
Q 1169 -91 856 284 
Q 544 659 544 1381 
z
M 1991 3584 
L 1991 3584 
z
" transform="scale(0.015625)"/>
       <path id="DejaVuSans-5d" d="M 1947 4863 
L 1947 -844 
L 622 -844 
L 622 -397 
L 1369 -397 
L 1369 4416 
L 622 4416 
L 622 4863 
L 1947 4863 
z
" transform="scale(0.015625)"/>
      </defs>
      <use xlink:href="#DejaVuSans-49"/>
      <use xlink:href="#DejaVuSans-6e" x="29.492188"/>
      <use xlink:href="#DejaVuSans-74" x="92.871094"/>
      <use xlink:href="#DejaVuSans-65" x="132.080078"/>
      <use xlink:href="#DejaVuSans-6e" x="193.603516"/>
      <use xlink:href="#DejaVuSans-73" x="256.982422"/>
      <use xlink:href="#DejaVuSans-69" x="309.082031"/>
      <use xlink:href="#DejaVuSans-74" x="336.865234"/>
      <use xlink:href="#DejaVuSans-69" x="376.074219"/>
      <use xlink:href="#DejaVuSans-65" x="403.857422"/>
      <use xlink:href="#DejaVuSans-73" x="465.380859"/>
      <use xlink:href="#DejaVuSans-20" x="517.480469"/>
      <use xlink:href="#DejaVuSans-5b" x="549.267578"/>
      <use xlink:href="#DejaVuSans-61" x="588.28125"/>
      <use xlink:href="#DejaVuSans-2e" x="649.560547"/>
      <use xlink:href="#DejaVuSans-75" x="681.347656"/>
      <use xlink:href="#DejaVuSans-2e" x="744.726562"/>
      <use xlink:href="#DejaVuSans-5d" x="776.513672"/>
     </g>
    </g>
   </g>
   <g id="line2d_17">
    <path d="M 73.832727 307.584 
L 73.865267 303.996874 
L 73.895301 307.584 
L 74.370841 294.422023 
L 74.410882 307.584 
L 74.886421 307.584 
L 74.906449 302.624068 
L 75.374488 307.584 
L 75.387 302.763958 
L 75.915092 307.584 
L 76.340584 302.083354 
L 76.393137 307.584 
L 76.878698 304.358558 
L 76.918739 304.417993 
L 77.389283 307.584 
L 77.88734 298.356337 
L 77.902357 307.584 
L 78.880981 307.584 
L 78.893492 303.87148 
L 78.978585 307.584 
L 79.90464 307.584 
L 79.919658 304.293325 
L 80.41773 307.584 
L 80.462767 303.806247 
L 80.848218 307.584 
L 80.880743 300.245939 
L 80.9283 307.584 
L 81.839338 307.584 
L 81.876889 302.299349 
L 82.402475 307.584 
L 82.852991 307.584 
L 82.883026 265.403921 
L 82.895538 302.911821 
L 83.396116 303.251036 
L 83.411133 302.690026 
L 83.861649 300.953362 
L 83.911696 304.921017 
L 84.387236 304.308546 
L 84.404758 303.337289 
L 84.9629 307.584 
L 85.395893 303.859883 
L 85.415906 304.057759 
L 85.465969 307.584 
L 85.878934 298.657137 
L 85.971543 307.584 
L 86.404536 307.584 
L 86.424564 301.508572 
L 86.477116 302.640014 
L 86.857557 307.584 
L 86.902609 301.18168 
L 86.937639 307.584 
L 86.9802 307.584 
L 87.393166 302.913995 
L 87.413194 307.584 
L 87.433206 301.882579 
L 87.908746 307.584 
L 87.931279 304.494824 
L 88.421836 307.584 
L 88.887369 299.676957 
L 88.919894 307.584 
L 89.365414 307.584 
L 89.397939 297.858387 
L 89.870988 303.988901 
L 89.901022 307.584 
L 90.411592 304.493374 
L 90.927187 307.584 
L 90.969734 302.521144 
L 91.402727 307.584 
L 91.420249 302.192076 
L 91.472802 307.584 
L 92.909442 307.584 
L 92.936971 297.06906 
L 92.987034 307.584 
L 93.399999 299.358036 
L 93.47258 307.584 
L 93.487597 299.807424 
L 93.940618 307.584 
L 93.983164 307.584 
L 94.403646 302.713221 
L 94.431175 307.584 
L 94.864168 307.584 
L 94.894203 300.438016 
L 94.94926 303.522843 
L 95.439817 307.584 
L 96.886464 307.584 
L 96.903986 304.467281 
L 96.951543 304.795624 
L 97.40956 303.001698 
L 97.479651 307.584 
L 97.895121 307.584 
L 97.985225 299.677681 
L 98.435741 307.584 
L 98.490799 302.993725 
L 98.936304 307.584 
L 98.996372 301.415071 
L 99.409338 294.121224 
L 99.481918 307.584 
L 99.499441 302.750911 
L 99.909916 302.042039 
L 100.002509 307.584 
L 100.488071 307.584 
L 100.916053 300.109673 
L 100.993645 307.584 
L 101.409115 307.584 
L 101.446666 304.157059 
L 101.859631 303.422818 
L 101.947229 307.584 
L 102.858267 307.584 
L 102.893312 304.720243 
L 102.960882 307.584 
L 103.433916 307.584 
L 103.86442 302.686402 
L 103.949512 307.584 
L 104.407529 294.43652 
L 104.445079 307.584 
L 104.492621 302.345738 
L 104.910597 296.094179 
L 105.0007 307.584 
L 105.416186 300.846089 
L 105.506274 307.584 
L 105.934272 307.584 
L 105.951795 302.086977 
L 106.011864 307.584 
L 106.424829 307.584 
L 106.497409 300.51992 
L 106.514932 301.462184 
L 106.925392 303.852635 
L 107.002983 307.584 
L 107.020506 296.953089 
L 107.486039 307.584 
L 107.523574 276.473345 
L 108.011641 307.584 
L 108.029148 286.358419 
L 108.447125 307.584 
L 108.512204 304.218668 
L 108.534722 41.472 
L 108.965226 307.584 
L 109.035301 269.318663 
L 109.540875 307.584 
L 109.938823 302.760334 
L 109.956345 303.000973 
L 109.973868 307.584 
L 110.414362 307.584 
L 110.43439 301.167908 
L 110.46693 304.894924 
L 110.967493 307.584 
L 111.42302 297.725745 
L 111.443033 307.584 
L 111.926088 301.71587 
L 111.958628 307.584 
L 112.431662 304.494824 
L 112.521766 307.584 
L 112.967271 307.584 
L 113.007327 304.93044 
L 113.460333 307.584 
L 113.512901 303.586627 
L 113.925866 304.705021 
L 113.963401 307.584 
L 114.018474 303.762033 
L 114.46899 307.584 
L 114.521543 303.599674 
L 114.932018 307.584 
L 115.027117 301.683254 
L 115.410063 307.584 
L 115.532691 292.805678 
L 115.925643 300.981629 
L 116.018252 307.584 
L 116.035775 294.974335 
L 116.421211 299.884979 
L 116.433723 307.584 
L 116.483785 301.027293 
L 116.541349 295.361387 
L 116.924279 304.197649 
L 116.974342 307.584 
L 117.429853 304.39335 
L 117.945449 307.584 
L 117.962956 302.249337 
L 117.982984 307.584 
L 118.438496 307.584 
L 118.461029 302.426917 
L 118.956597 307.584 
L 118.976609 304.684727 
L 119.469672 307.584 
L 119.932699 304.171555 
L 119.947717 307.584 
L 119.985267 301.491177 
L 120.438273 302.621893 
L 120.475824 304.394074 
L 120.956374 307.584 
L 120.978892 303.409046 
L 120.99391 307.584 
L 121.466944 307.584 
L 121.534529 302.946612 
L 121.91746 304.034565 
L 122.025085 307.584 
L 122.438051 307.584 
L 122.530659 303.99325 
L 122.956152 303.924392 
L 123.033728 307.584 
L 123.436687 302.405173 
L 123.471732 307.584 
L 123.539302 302.69655 
L 123.939771 304.344062 
L 124.00734 307.584 
L 124.042385 301.53539 
L 124.445344 297.579332 
L 124.48288 307.584 
L 124.948413 307.584 
L 124.960925 304.130965 
L 124.99597 307.584 
L 125.491537 307.584 
L 125.954565 300.507598 
L 125.989595 307.584 
L 126.983236 307.584 
L 127.058322 301.293301 
L 127.421225 307.584 
L 127.453764 304.047611 
L 127.491315 307.584 
L 127.956833 288.632898 
L 127.994383 307.584 
L 128.462407 301.786903 
L 128.499957 304.865931 
L 128.947968 303.487327 
L 128.980508 307.584 
L 129.003026 304.76953 
L 129.47606 307.584 
L 129.941593 299.693627 
L 129.994161 307.584 
L 130.449672 304.362182 
L 130.53727 307.584 
L 130.987786 307.584 
L 131.002803 303.162608 
L 131.040354 307.584 
L 131.495865 303.374255 
L 131.545928 302.381254 
L 131.928859 307.584 
L 131.961399 302.128292 
L 131.998934 304.433939 
L 132.048996 307.584 
L 132.451955 302.960384 
L 132.471983 307.584 
L 132.491996 304.23244 
L 133.007592 307.584 
L 133.500654 307.584 
L 133.515671 303.988901 
L 133.963682 307.584 
L 133.981189 303.749711 
L 133.998711 307.584 
L 134.491774 307.584 
L 134.524313 298.195427 
L 135.009859 307.584 
L 135.497926 307.584 
L 135.570506 304.705746 
L 135.948442 304.038913 
L 135.998489 301.723844 
L 136.021022 307.584 
L 136.456506 295.038843 
L 136.524091 307.584 
L 136.95959 304.284627 
L 137.009637 307.584 
L 137.452652 304.757933 
L 137.500194 307.584 
L 137.95572 303.340913 
L 138.0208 307.584 
L 138.478817 307.584 
L 138.513862 299.023895 
L 138.946855 307.584 
L 138.964363 301.686878 
L 138.996902 307.584 
L 139.0845 307.584 
L 139.49247 303.182903 
L 139.552539 307.584 
L 139.990543 307.584 
L 140.00805 301.928967 
L 140.478594 307.584 
L 140.496117 302.542888 
L 140.561181 307.584 
L 140.979157 300.706923 
L 141.016708 307.584 
L 141.990305 307.584 
L 142.007828 302.91472 
L 142.02535 307.584 
L 142.475866 303.148111 
L 142.50089 295.945591 
L 142.513402 301.072957 
L 143.01398 307.584 
L 143.436952 307.584 
L 143.469492 303.981653 
L 143.507042 307.584 
L 144.505678 307.584 
L 144.520695 304.655734 
L 144.953689 303.498199 
L 145.003736 307.584 
L 145.514321 307.584 
L 145.979854 304.343337 
L 146.014899 307.584 
L 146.505456 307.584 
L 146.520473 304.157059 
L 146.537996 307.584 
L 146.986006 307.584 
L 147.003513 304.362182 
L 147.023541 304.460758 
L 147.514098 307.584 
L 147.549143 303.208996 
L 147.962109 303.430066 
L 148.032184 307.584 
L 148.522756 307.584 
L 148.983278 303.262633 
L 149.043347 307.584 
L 149.47634 307.584 
L 149.528893 303.748986 
L 149.548921 307.584 
L 150.016944 307.584 
L 150.497494 301.357086 
L 150.522518 307.584 
L 150.998073 307.584 
L 151.025602 304.579628 
L 151.476118 304.644862 
L 151.503647 303.17348 
L 151.516159 307.584 
L 151.981692 307.584 
L 152.001704 302.629142 
L 152.03675 307.584 
L 152.492261 307.584 
L 152.514795 303.100998 
L 152.527306 307.584 
L 153.500919 307.584 
L 153.523437 302.542888 
L 153.535949 307.584 
L 154.512067 307.584 
L 154.527084 303.058234 
L 154.9776 302.966182 
L 154.995122 301.048313 
L 155.015135 307.584 
L 155.030152 307.584 
L 155.523214 307.584 
L 155.538232 303.97223 
L 156.001259 303.852635 
L 156.0413 307.584 
L 156.494322 307.584 
L 156.531872 302.144963 
L 157.014913 307.584 
L 157.034941 303.077079 
L 157.049958 307.584 
L 157.47293 307.584 
L 157.490452 303.748986 
L 157.51048 307.584 
L 158.02357 307.584 
L 158.043583 293.479035 
L 158.061106 304.083127 
L 158.464065 303.21552 
L 158.564174 307.584 
L 158.581697 304.50932 
L 158.984656 304.641238 
L 159.037224 304.39335 
L 159.054731 307.584 
L 159.975791 307.584 
L 159.993298 302.403723 
L 160.048371 304.830415 
L 160.113436 307.584 
L 160.5189 307.584 
L 160.553945 302.908197 
L 160.616519 307.584 
L 161.06453 307.584 
L 161.50753 300.78013 
L 161.567599 307.584 
L 161.993076 301.627443 
L 162.010598 307.584 
L 162.033132 300.723594 
L 162.103207 303.387302 
L 162.466125 304.620218 
L 162.5362 307.584 
L 163.056791 307.584 
L 163.086826 298.080182 
L 163.474767 301.846338 
L 163.489785 307.584 
L 163.539847 304.007746 
L 163.980341 307.584 
L 163.992853 302.038414 
L 164.047926 307.584 
L 165.009012 307.584 
L 165.031545 303.941788 
L 165.086603 307.584 
L 165.479556 307.584 
L 165.514586 303.797549 
L 165.549631 307.584 
L 166.035177 307.584 
L 166.052699 301.561484 
L 166.505721 304.258533 
L 166.560779 307.584 
L 167.026312 307.584 
L 167.04634 304.183152 
L 167.061357 307.584 
L 167.566931 307.584 
L 168.014942 303.338014 
L 168.052477 307.584 
L 168.548044 307.584 
L 168.991044 303.746087 
L 169.09867 307.584 
L 169.554181 307.584 
L 169.984685 303.43514 
L 170.057265 307.584 
L 170.109818 297.64674 
L 170.507781 307.584 
L 170.542811 303.35251 
L 170.557828 307.584 
L 171.503912 307.584 
L 171.538942 303.243788 
L 171.566486 307.584 
L 172.042025 307.584 
L 172.104584 285.372666 
L 172.525066 307.584 
L 172.605163 295.336019 
L 173.070696 307.584 
L 173.503689 307.584 
L 173.523702 301.228792 
L 173.54373 303.627217 
L 174.076833 307.584 
L 174.552372 304.36943 
L 174.60494 307.584 
L 175.070473 307.584 
L 175.538497 299.624045 
L 175.578553 307.584 
L 175.991518 307.584 
L 176.111656 296.807401 
L 176.497092 301.809372 
L 176.512109 307.584 
L 176.567167 302.782803 
L 177.087758 307.584 
L 177.120298 303.771455 
L 177.50824 300.098076 
L 177.560808 307.584 
L 177.573319 304.807946 
L 178.081399 307.584 
L 179.075024 307.584 
L 179.120076 302.456635 
L 179.563075 307.584 
L 179.623144 304.404947 
L 180.016097 301.400575 
L 180.066144 307.584 
L 180.52167 297.603976 
L 180.611774 307.584 
L 181.024739 307.584 
L 181.059784 302.268907 
L 181.114842 303.882353 
L 181.565358 307.584 
L 181.582896 301.913746 
L 181.620416 307.584 
L 182.068427 307.584 
L 182.123485 302.587827 
L 182.611551 307.584 
L 182.629058 301.829667 
L 183.039549 307.584 
L 183.107103 299.985004 
L 183.580168 307.584 
L 183.610202 304.784752 
L 184.033159 303.480803 
L 184.088247 307.584 
L 184.548754 304.620218 
L 184.591316 307.584 
L 184.646374 286.382337 
L 185.09689 307.584 
L 185.126924 297.970009 
L 185.149442 298.053363 
L 185.554891 304.781127 
L 185.58242 307.584 
L 186.087994 307.584 
L 186.135567 299.307299 
L 186.638635 307.584 
L 188.598357 307.584 
L 188.6184 304.669505 
L 189.068916 307.584 
L 189.121468 302.921243 
L 189.534434 307.584 
L 189.556952 302.288477 
L 189.627042 307.584 
L 190.057515 304.043262 
L 190.077558 307.584 
L 190.130111 304.233165 
L 190.598134 307.584 
L 190.635685 302.925592 
L 191.088706 307.584 
L 191.103708 303.0952 
L 191.141259 304.168656 
L 191.576773 307.584 
L 191.644327 293.726198 
L 192.029763 307.584 
L 192.079841 302.262383 
L 192.58291 307.584 
L 193.088484 307.584 
L 193.158543 296.155064 
L 193.594057 307.584 
L 193.661642 304.519468 
L 194.067092 307.584 
L 194.099631 303.673605 
L 194.572665 307.584 
L 195.038183 298.083081 
L 195.090766 307.584 
L 196.084376 307.584 
L 196.534892 304.041813 
L 196.592456 307.584 
L 197.037961 303.946861 
L 197.108051 301.113547 
L 197.140591 307.584 
L 197.596118 307.584 
L 197.636143 303.635189 
L 198.044128 304.655734 
L 198.119199 303.1945 
L 198.139242 307.584 
L 198.60476 307.584 
L 198.642311 304.444812 
L 198.709865 307.584 
L 199.045255 303.805522 
L 199.097807 303.748986 
L 199.145379 307.584 
L 199.210459 307.584 
L 199.570872 301.97753 
L 199.650953 307.584 
L 200.071435 307.584 
L 200.088942 304.037464 
L 200.134009 307.584 
L 200.609549 307.584 
L 201.06257 302.081179 
L 201.080077 298.985479 
L 201.115122 307.584 
L 202.106258 307.584 
L 202.541741 301.264309 
L 202.579292 307.584 
L 203.044809 304.375954 
L 203.084866 307.584 
L 203.590439 307.584 
L 204.053452 302.876305 
L 204.091003 307.584 
L 205.10215 307.584 
L 205.137196 300.293777 
L 205.607724 307.584 
L 205.637759 302.958934 
L 205.725356 307.584 
L 206.095791 307.584 
L 206.115804 302.782078 
L 206.138322 307.584 
L 207.574962 307.584 
L 207.672581 304.472355 
L 208.060523 307.584 
L 208.566097 307.584 
L 208.681224 301.919544 
L 209.064155 307.584 
L 209.104211 304.183152 
L 209.557232 307.584 
L 210.060301 304.634714 
L 210.117864 307.584 
L 211.066438 307.584 
L 211.106494 303.448186 
L 211.126506 307.584 
L 211.979997 307.584 
L 212.062584 304.367981 
L 212.117641 307.584 
L 212.235274 299.716097 
L 212.595686 302.742213 
L 212.62071 307.584 
L 212.740848 269.215016 
L 213.111282 307.584 
L 213.243916 286.71358 
L 214.119924 307.584 
L 214.252558 307.584 
L 214.605486 303.47428 
L 215.131072 307.584 
L 216.084657 307.584 
L 216.104669 303.61272 
L 216.137209 307.584 
L 217.075792 307.584 
L 217.115817 304.229541 
L 217.621391 307.584 
L 218.066927 307.584 
L 218.12449 304.294049 
L 218.747696 307.584 
L 219.068053 304.244037 
L 219.100593 307.584 
L 219.148135 304.007746 
L 219.250765 302.91472 
L 219.571121 302.908922 
L 219.668741 307.584 
L 220.259407 307.584 
L 220.597302 300.454687 
L 220.632347 307.584 
L 220.747474 302.603048 
L 221.120383 307.584 
L 223.155206 307.584 
L 223.588184 299.02462 
L 223.62824 300.16331 
L 223.658274 307.584 
L 223.745872 296.800877 
L 224.088777 307.584 
L 224.24894 303.262633 
L 224.496732 304.293325 
L 224.754514 303.599674 
L 225.077407 307.584 
L 225.119938 302.65596 
L 225.139951 307.584 
L 225.257583 303.71347 
L 225.57797 302.901673 
L 225.628017 303.932365 
L 225.763187 297.325645 
L 226.081039 304.655734 
L 226.266256 302.550137 
L 226.654198 307.584 
L 226.77183 298.386055 
L 227.092186 307.584 
L 227.162277 304.279553 
L 227.274898 307.584 
L 227.69538 307.584 
L 227.780472 301.415071 
L 228.155887 307.584 
L 229.770228 307.584 
L 230.098101 303.535165 
L 230.138157 307.584 
L 230.22826 303.996874 
L 230.275802 304.856509 
L 230.743856 303.222043 
L 230.761363 307.584 
L 231.091741 303.827266 
L 231.146799 304.480328 
L 231.264432 307.584 
L 231.592305 304.705021 
L 231.682408 307.584 
L 231.752498 302.93284 
L 231.770006 304.308546 
L 232.092868 304.022243 
L 232.185476 307.584 
L 232.595936 307.584 
L 232.69105 303.660558 
L 233.081497 304.544837 
L 233.149082 307.584 
L 233.584566 307.584 
L 233.602104 299.502275 
L 233.654656 303.580828 
L 234.087634 303.710571 
L 234.140217 307.584 
L 234.595714 304.328841 
L 235.659445 307.584 
L 236.107455 307.584 
L 236.165018 303.909896 
L 236.768212 303.710571 
L 237.153648 307.584 
L 237.178672 301.505673 
L 237.27128 307.584 
L 237.641684 304.755034 
L 237.77936 272.683269 
L 238.162291 307.584 
L 238.279923 295.788306 
L 238.595269 307.584 
L 239.155931 307.584 
L 239.203473 302.127568 
L 239.709047 307.584 
L 240.212115 307.584 
L 240.602562 304.194025 
L 240.62007 307.584 
L 240.670147 304.378853 
L 241.173216 307.584 
L 241.611205 307.584 
L 241.67879 302.729167 
L 242.166856 304.830415 
L 243.120441 307.584 
L 243.172993 303.169131 
L 243.593475 304.160683 
L 243.676062 307.584 
L 244.171614 301.823869 
L 245.160244 307.584 
L 245.620781 307.584 
L 247.18257 300.5018 
L 247.230112 307.584 
L 247.685638 304.448436 
L 247.73318 300.35901 
L 248.023503 307.584 
L 248.236249 298.818772 
L 248.739317 307.584 
L 249.127259 307.584 
L 249.187328 302.790051 
L 249.600293 304.072255 
L 249.672889 307.584 
L 250.608966 302.754535 
L 250.626473 307.584 
L 251.602576 307.584 
L 251.617608 303.559808 
L 251.675172 307.584 
L 252.598722 307.584 
L 252.68632 304.394074 
L 253.189388 307.584 
L 255.206703 307.584 
L 255.254245 302.007972 
L 255.677232 300.670682 
L 255.759819 302.758159 
L 256.202819 307.584 
L 256.260382 298.296902 
L 256.723425 302.961833 
L 256.763451 307.584 
L 258.185089 307.584 
L 259.191226 303.222043 
L 260.134789 307.584 
L 260.199868 303.17348 
L 260.537763 307.584 
L 260.69044 304.745611 
L 260.830591 307.584 
L 261.211016 307.584 
L 263.21831 302.638564 
L 264.209445 307.584 
L 266.209223 307.584 
L 266.759833 302.105098 
L 267.217865 307.584 
L 272.216041 307.584 
L 272.283626 298.625245 
L 273.224714 307.584 
L 274.233356 307.584 
L 274.758943 304.072255 
L 274.811495 307.584 
L 275.241998 307.584 
L 275.259506 303.462683 
L 275.327091 304.480328 
L 275.842686 300.988153 
L 276.235639 301.651362 
L 276.713684 301.469432 
L 276.851329 307.584 
L 278.225395 304.378853 
L 278.655867 307.584 
L 279.158966 307.584 
L 279.777162 303.218419 
L 280.225172 304.694149 
L 282.325044 307.584 
L 283.333717 303.888151 
L 283.796729 303.462683 
L 284.064534 307.584 
L 284.662716 307.584 
L 284.805372 300.356111 
L 285.165785 304.025142 
L 285.30844 302.068857 
L 285.673864 307.584 
L 285.758956 304.894924 
L 285.814045 288.841646 
L 286.164436 307.584 
L 286.176932 302.291376 
L 286.317113 290.946519 
L 286.332115 307.584 
L 286.792653 307.584 
L 286.822687 304.557883 
L 287.173078 303.691725 
L 287.293216 304.025867 
L 287.325756 307.584 
L 287.83133 304.419443 
L 287.853848 307.584 
L 288.737372 299.297151 
L 288.855005 307.584 
L 289.861142 307.584 
L 289.876143 303.09375 
L 290.349178 298.352713 
L 290.852277 300.773607 
L 291.790829 307.584 
L 291.820863 304.504247 
L 292.293897 303.566332 
L 292.801976 290.862441 
L 292.829505 307.584 
L 293.335079 307.584 
L 293.810619 271.204641 
L 293.835673 307.584 
L 294.313718 307.584 
L 294.338741 299.495752 
L 294.676605 307.584 
L 294.844315 290.555842 
L 295.317349 302.669007 
L 295.347384 300.019071 
L 295.850452 307.584 
L 296.819069 301.32012 
L 297.322138 299.075357 
L 297.367174 302.105823 
L 297.827712 301.25996 
L 297.867737 304.072255 
L 298.33078 307.584 
L 298.373311 301.073681 
L 298.836354 303.219869 
L 299.271838 303.276405 
L 299.354455 302.55521 
L 299.814962 302.700174 
L 299.847502 304.168656 
L 300.262973 303.269881 
L 300.363097 307.584 
L 300.866166 307.584 
L 300.878693 296.704476 
L 301.186523 301.304174 
L 301.329178 300.646038 
L 301.354233 307.584 
L 301.829772 307.584 
L 301.857301 302.567532 
L 302.332841 307.584 
L 303.273898 307.584 
L 303.374023 287.446371 
L 303.874586 292.001854 
L 304.382665 163.892382 
L 304.815674 291.026249 
L 304.885734 236.452502 
L 305.318742 303.219144 
L 305.388802 282.255947 
L 305.891871 300.394527 
L 306.327385 301.741964 
L 306.700294 307.584 
L 306.832959 303.97223 
L 307.195877 307.584 
L 307.336027 303.430066 
L 307.363556 296.287706 
L 307.701451 307.584 
L 307.841601 293.01805 
L 307.866625 297.14879 
L 308.204519 307.584 
L 308.34467 304.269406 
L 308.372198 295.707851 
L 308.707588 307.584 
L 308.845233 298.798476 
L 309.210656 307.584 
L 309.350837 287.911704 
L 309.8514 292.333822 
L 310.359479 239.896112 
L 310.389514 302.943713 
L 310.860043 284.58044 
L 310.892582 304.373055 
L 311.298031 307.584 
L 311.398156 302.428367 
L 311.831134 303.721443 
L 311.901225 307.584 
L 313.337865 307.584 
L 313.367899 304.197649 
L 313.873473 302.764683 
L 314.376542 285.683613 
L 314.714436 304.67023 
L 314.87961 301.436816 
L 315.202472 303.909896 
L 315.357655 304.13314 
L 315.38769 200.302911 
L 315.708046 304.093275 
L 315.860724 303.826542 
L 315.888253 235.192767 
L 316.211145 307.584 
L 316.366298 297.754738 
L 316.393827 261.52614 
L 316.869366 307.584 
L 316.896926 293.700829 
L 317.372465 303.756959 
L 317.405005 283.053971 
L 317.837983 297.696028 
L 317.873028 307.584 
L 317.908073 301.690502 
L 318.356084 299.681305 
L 318.413647 277.138005 
L 318.849131 288.020427 
L 318.916716 296.319597 
L 319.21706 307.584 
L 319.387245 300.354662 
L 319.419784 307.584 
L 319.852762 307.584 
L 319.887808 303.273505 
L 319.922853 307.584 
L 320.10807 307.584 
L 320.355861 303.896849 
L 321.364504 304.221568 
L 321.397044 302.972706 
L 321.867572 307.584 
L 321.900112 303.722168 
L 322.373146 274.685945 
L 322.403181 302.69655 
L 322.428204 301.665133 
L 322.876215 291.726424 
L 322.931273 301.688327 
L 323.381789 128.441511 
L 323.409318 307.584 
L 323.884857 253.081281 
L 324.217741 307.584 
L 324.387926 259.510422 
L 324.422971 304.043262 
L 324.72081 307.584 
L 324.888519 300.448888 
L 325.391588 294.551041 
L 325.411601 307.584 
L 325.434119 303.298874 
L 326.390209 272.815188 
L 326.420243 307.584 
L 326.893277 292.312802 
L 327.371322 307.584 
L 327.398882 279.464671 
L 327.721744 307.584 
L 327.874421 302.289202 
L 327.90195 285.379913 
L 328.37749 298.156287 
L 328.410029 282.855371 
L 328.880558 304.419443 
L 328.913098 292.317876 
L 329.388637 307.584 
L 329.418672 257.326542 
L 329.891706 304.141838 
L 329.92174 279.20881 
L 330.377267 307.584 
L 330.394774 303.823642 
L 330.424809 294.602503 
L 330.897843 307.584 
L 330.962923 303.600398 
L 331.368372 303.009671 
L 331.400911 303.667081 
L 331.465991 307.584 
L 331.868965 307.584 
L 331.90398 304.720243 
L 332.121737 307.584 
L 332.409584 307.584 
L 332.912653 301.789802 
L 333.378171 301.31722 
L 333.408205 300.566309 
L 333.420732 307.584 
L 333.881239 303.697524 
L 333.911274 307.584 
L 334.386813 270.49577 
L 334.426869 307.584 
L 334.889882 283.172118 
L 335.395456 276.888668 
L 335.898555 298.531018 
L 336.406634 281.080293 
L 336.907197 291.774987 
L 337.415276 294.704703 
L 337.915839 301.271557 
L 338.351323 304.50932 
L 338.418908 301.381729 
L 338.879446 307.584 
L 338.919471 300.955536 
L 339.397516 300.962784 
L 339.412548 294.648167 
L 339.900584 304.502797 
L 339.915617 298.953588 
L 340.396167 307.584 
L 340.423696 263.586801 
L 340.89673 302.298624 
L 340.926765 292.251192 
L 341.402304 304.6898 
L 341.905373 307.584 
L 341.967947 303.821468 
L 342.405936 307.584 
L 342.46851 304.525991 
L 342.909035 298.452014 
L 343.414609 304.045437 
L 343.917677 307.584 
L 344.423251 307.584 
L 345.431894 293.860289 
L 346.372951 304.871005 
L 346.402985 282.687938 
L 346.976144 299.98138 
L 347.411658 300.68083 
L 347.479213 302.85601 
L 347.912221 292.779585 
L 348.420301 244.223275 
L 348.885819 302.982853 
L 348.923369 282.920605 
L 348.955909 299.253662 
L 349.391393 307.584 
L 349.426438 294.743118 
L 349.927001 291.432147 
L 349.964552 298.849214 
L 350.465115 302.610296 
L 350.920641 307.584 
L 352.419856 303.293075 
L 353.914059 304.515844 
L 354.422139 301.949262 
L 355.993918 304.609345 
L 356.939987 304.278828 
L 357.44556 307.584 
L 359.890843 307.584 
L 360.00099 303.195225 
L 361.522722 307.584 
L 361.772988 304.892024 
L 361.908158 307.584 
L 363.439882 307.584 
L 367.887448 302.69365 
L 368.393022 304.795624 
L 372.913183 307.584 
L 373.921825 304.350585 
L 375.556179 307.584 
L 383.307498 307.584 
L 383.813072 304.683277 
L 394.940739 307.584 
L 398.487273 303.845387 
L 398.487273 303.845387 
" clip-path="url(#p8794253266)" style="fill: none; stroke: #1f77b4; stroke-width: 1.5; stroke-linecap: square"/>
   </g>
   <g id="patch_3">
    <path d="M 57.6 307.584 
L 57.6 41.472 
" style="fill: none; stroke: #000000; stroke-width: 0.8; stroke-linejoin: miter; stroke-linecap: square"/>
   </g>
   <g id="patch_4">
    <path d="M 414.72 307.584 
L 414.72 41.472 
" style="fill: none; stroke: #000000; stroke-width: 0.8; stroke-linejoin: miter; stroke-linecap: square"/>
   </g>
   <g id="patch_5">
    <path d="M 57.6 307.584 
L 414.72 307.584 
" style="fill: none; stroke: #000000; stroke-width: 0.8; stroke-linejoin: miter; stroke-linecap: square"/>
   </g>
   <g id="patch_6">
    <path d="M 57.6 41.472 
L 414.72 41.472 
" style="fill: none; stroke: #000000; stroke-width: 0.8; stroke-linejoin: miter; stroke-linecap: square"/>
   </g>
   <g id="legend_1">
    <g id="patch_7">
     <path d="M 323.385625 64.150125 
L 407.72 64.150125 
Q 409.72 64.150125 409.72 62.150125 
L 409.72 48.472 
Q 409.72 46.472 407.72 46.472 
L 323.385625 46.472 
Q 321.385625 46.472 321.385625 48.472 
L 321.385625 62.150125 
Q 321.385625 64.150125 323.385625 64.150125 
z
" style="fill: #ffffff; opacity: 0.8; stroke: #cccccc; stroke-linejoin: miter"/>
    </g>
    <g id="line2d_18">
     <path d="M 325.385625 54.570438 
L 335.385625 54.570438 
L 345.385625 54.570438 
" style="fill: none; stroke: #1f77b4; stroke-width: 1.5; stroke-linecap: square"/>
    </g>
    <g id="text_19">
     <!-- (427, 311) -->
     <g transform="translate(353.385625 58.070438) scale(0.1 -0.1)">
      <defs>
       <path id="DejaVuSans-28" d="M 1984 4856 
Q 1566 4138 1362 3434 
Q 1159 2731 1159 2009 
Q 1159 1288 1364 580 
Q 1569 -128 1984 -844 
L 1484 -844 
Q 1016 -109 783 600 
Q 550 1309 550 2009 
Q 550 2706 781 3412 
Q 1013 4119 1484 4856 
L 1984 4856 
z
" transform="scale(0.015625)"/>
       <path id="DejaVuSans-2c" d="M 750 794 
L 1409 794 
L 1409 256 
L 897 -744 
L 494 -744 
L 750 256 
L 750 794 
z
" transform="scale(0.015625)"/>
       <path id="DejaVuSans-29" d="M 513 4856 
L 1013 4856 
Q 1481 4119 1714 3412 
Q 1947 2706 1947 2009 
Q 1947 1309 1714 600 
Q 1481 -109 1013 -844 
L 513 -844 
Q 928 -128 1133 580 
Q 1338 1288 1338 2009 
Q 1338 2731 1133 3434 
Q 928 4138 513 4856 
z
" transform="scale(0.015625)"/>
      </defs>
      <use xlink:href="#DejaVuSans-28"/>
      <use xlink:href="#DejaVuSans-34" x="39.013672"/>
      <use xlink:href="#DejaVuSans-32" x="102.636719"/>
      <use xlink:href="#DejaVuSans-37" x="166.259766"/>
      <use xlink:href="#DejaVuSans-2c" x="229.882812"/>
      <use xlink:href="#DejaVuSans-20" x="261.669922"/>
      <use xlink:href="#DejaVuSans-33" x="293.457031"/>
      <use xlink:href="#DejaVuSans-31" x="357.080078"/>
      <use xlink:href="#DejaVuSans-31" x="420.703125"/>
      <use xlink:href="#DejaVuSans-29" x="484.326172"/>
     </g>
    </g>
   </g>
  </g>
 </g>
 <defs>
  <clipPath id="p8794253266">
   <rect x="57.6" y="41.472" width="357.12" height="266.112"/>
  </clipPath>
 </defs>
</svg>
