<?xml version="1.0" encoding="utf-8" standalone="no"?>
<!DOCTYPE svg PUBLIC "-//W3C//DTD SVG 1.1//EN"
  "http://www.w3.org/Graphics/SVG/1.1/DTD/svg11.dtd">
<svg xmlns:xlink="http://www.w3.org/1999/xlink" width="460.8pt" height="345.6pt" viewBox="0 0 460.8 345.6" xmlns="http://www.w3.org/2000/svg" version="1.1">
 <metadata>
  <rdf:RDF xmlns:dc="http://purl.org/dc/elements/1.1/" xmlns:cc="http://creativecommons.org/ns#" xmlns:rdf="http://www.w3.org/1999/02/22-rdf-syntax-ns#">
   <cc:Work>
    <dc:type rdf:resource="http://purl.org/dc/dcmitype/StillImage"/>
    <dc:date>2025-12-03T20:42:15.785844</dc:date>
    <dc:format>image/svg+xml</dc:format>
    <dc:creator>
     <cc:Agent>
      <dc:title>Matplotlib v3.8.4, https://matplotlib.org/</dc:title>
     </cc:Agent>
    </dc:creator>
   </cc:Work>
  </rdf:RDF>
 </metadata>
 <defs>
  <style type="text/css">*{stroke-linejoin: round; stroke-linecap: butt}</style>
 </defs>
 <g id="figure_1">
  <g id="patch_1">
   <path d="M 0 345.6 
L 460.8 345.6 
L 460.8 0 
L 0 0 
z
" style="fill: #ffffff"/>
  </g>
  <g id="axes_1">
   <g id="patch_2">
    <path d="M 57.6 307.584 
L 414.72 307.584 
L 414.72 41.472 
L 57.6 41.472 
z
" style="fill: #ffffff"/>
   </g>
   <g id="matplotlib.axis_1">
    <g id="xtick_1">
     <g id="line2d_1">
      <defs>
       <path id="mc916618fdf" d="M 0 0 
L 0 3.5 
" style="stroke: #000000; stroke-width: 0.8"/>
      </defs>
      <g>
       <use xlink:href="#mc916618fdf" x="73.818841" y="307.584" style="stroke: #000000; stroke-width: 0.8"/>
      </g>
     </g>
     <g id="text_1">
      <!-- 300 -->
      <g transform="translate(64.275091 322.182437) scale(0.1 -0.1)">
       <defs>
        <path id="DejaVuSans-33" d="M 2597 2516 
Q 3050 2419 3304 2112 
Q 3559 1806 3559 1356 
Q 3559 666 3084 287 
Q 2609 -91 1734 -91 
Q 1441 -91 1130 -33 
Q 819 25 488 141 
L 488 750 
Q 750 597 1062 519 
Q 1375 441 1716 441 
Q 2309 441 2620 675 
Q 2931 909 2931 1356 
Q 2931 1769 2642 2001 
Q 2353 2234 1838 2234 
L 1294 2234 
L 1294 2753 
L 1863 2753 
Q 2328 2753 2575 2939 
Q 2822 3125 2822 3475 
Q 2822 3834 2567 4026 
Q 2313 4219 1838 4219 
Q 1578 4219 1281 4162 
Q 984 4106 628 3988 
L 628 4550 
Q 988 4650 1302 4700 
Q 1616 4750 1894 4750 
Q 2613 4750 3031 4423 
Q 3450 4097 3450 3541 
Q 3450 3153 3228 2886 
Q 3006 2619 2597 2516 
z
" transform="scale(0.015625)"/>
        <path id="DejaVuSans-30" d="M 2034 4250 
Q 1547 4250 1301 3770 
Q 1056 3291 1056 2328 
Q 1056 1369 1301 889 
Q 1547 409 2034 409 
Q 2525 409 2770 889 
Q 3016 1369 3016 2328 
Q 3016 3291 2770 3770 
Q 2525 4250 2034 4250 
z
M 2034 4750 
Q 2819 4750 3233 4129 
Q 3647 3509 3647 2328 
Q 3647 1150 3233 529 
Q 2819 -91 2034 -91 
Q 1250 -91 836 529 
Q 422 1150 422 2328 
Q 422 3509 836 4129 
Q 1250 4750 2034 4750 
z
" transform="scale(0.015625)"/>
       </defs>
       <use xlink:href="#DejaVuSans-33"/>
       <use xlink:href="#DejaVuSans-30" x="63.623047"/>
       <use xlink:href="#DejaVuSans-30" x="127.246094"/>
      </g>
     </g>
    </g>
    <g id="xtick_2">
     <g id="line2d_2">
      <g>
       <use xlink:href="#mc916618fdf" x="123.878205" y="307.584" style="stroke: #000000; stroke-width: 0.8"/>
      </g>
     </g>
     <g id="text_2">
      <!-- 400 -->
      <g transform="translate(114.334455 322.182437) scale(0.1 -0.1)">
       <defs>
        <path id="DejaVuSans-34" d="M 2419 4116 
L 825 1625 
L 2419 1625 
L 2419 4116 
z
M 2253 4666 
L 3047 4666 
L 3047 1625 
L 3713 1625 
L 3713 1100 
L 3047 1100 
L 3047 0 
L 2419 0 
L 2419 1100 
L 313 1100 
L 313 1709 
L 2253 4666 
z
" transform="scale(0.015625)"/>
       </defs>
       <use xlink:href="#DejaVuSans-34"/>
       <use xlink:href="#DejaVuSans-30" x="63.623047"/>
       <use xlink:href="#DejaVuSans-30" x="127.246094"/>
      </g>
     </g>
    </g>
    <g id="xtick_3">
     <g id="line2d_3">
      <g>
       <use xlink:href="#mc916618fdf" x="173.937569" y="307.584" style="stroke: #000000; stroke-width: 0.8"/>
      </g>
     </g>
     <g id="text_3">
      <!-- 500 -->
      <g transform="translate(164.393819 322.182437) scale(0.1 -0.1)">
       <defs>
        <path id="DejaVuSans-35" d="M 691 4666 
L 3169 4666 
L 3169 4134 
L 1269 4134 
L 1269 2991 
Q 1406 3038 1543 3061 
Q 1681 3084 1819 3084 
Q 2600 3084 3056 2656 
Q 3513 2228 3513 1497 
Q 3513 744 3044 326 
Q 2575 -91 1722 -91 
Q 1428 -91 1123 -41 
Q 819 9 494 109 
L 494 744 
Q 775 591 1075 516 
Q 1375 441 1709 441 
Q 2250 441 2565 725 
Q 2881 1009 2881 1497 
Q 2881 1984 2565 2268 
Q 2250 2553 1709 2553 
Q 1456 2553 1204 2497 
Q 953 2441 691 2322 
L 691 4666 
z
" transform="scale(0.015625)"/>
       </defs>
       <use xlink:href="#DejaVuSans-35"/>
       <use xlink:href="#DejaVuSans-30" x="63.623047"/>
       <use xlink:href="#DejaVuSans-30" x="127.246094"/>
      </g>
     </g>
    </g>
    <g id="xtick_4">
     <g id="line2d_4">
      <g>
       <use xlink:href="#mc916618fdf" x="223.996933" y="307.584" style="stroke: #000000; stroke-width: 0.8"/>
      </g>
     </g>
     <g id="text_4">
      <!-- 600 -->
      <g transform="translate(214.453183 322.182437) scale(0.1 -0.1)">
       <defs>
        <path id="DejaVuSans-36" d="M 2113 2584 
Q 1688 2584 1439 2293 
Q 1191 2003 1191 1497 
Q 1191 994 1439 701 
Q 1688 409 2113 409 
Q 2538 409 2786 701 
Q 3034 994 3034 1497 
Q 3034 2003 2786 2293 
Q 2538 2584 2113 2584 
z
M 3366 4563 
L 3366 3988 
Q 3128 4100 2886 4159 
Q 2644 4219 2406 4219 
Q 1781 4219 1451 3797 
Q 1122 3375 1075 2522 
Q 1259 2794 1537 2939 
Q 1816 3084 2150 3084 
Q 2853 3084 3261 2657 
Q 3669 2231 3669 1497 
Q 3669 778 3244 343 
Q 2819 -91 2113 -91 
Q 1303 -91 875 529 
Q 447 1150 447 2328 
Q 447 3434 972 4092 
Q 1497 4750 2381 4750 
Q 2619 4750 2861 4703 
Q 3103 4656 3366 4563 
z
" transform="scale(0.015625)"/>
       </defs>
       <use xlink:href="#DejaVuSans-36"/>
       <use xlink:href="#DejaVuSans-30" x="63.623047"/>
       <use xlink:href="#DejaVuSans-30" x="127.246094"/>
      </g>
     </g>
    </g>
    <g id="xtick_5">
     <g id="line2d_5">
      <g>
       <use xlink:href="#mc916618fdf" x="274.056297" y="307.584" style="stroke: #000000; stroke-width: 0.8"/>
      </g>
     </g>
     <g id="text_5">
      <!-- 700 -->
      <g transform="translate(264.512547 322.182437) scale(0.1 -0.1)">
       <defs>
        <path id="DejaVuSans-37" d="M 525 4666 
L 3525 4666 
L 3525 4397 
L 1831 0 
L 1172 0 
L 2766 4134 
L 525 4134 
L 525 4666 
z
" transform="scale(0.015625)"/>
       </defs>
       <use xlink:href="#DejaVuSans-37"/>
       <use xlink:href="#DejaVuSans-30" x="63.623047"/>
       <use xlink:href="#DejaVuSans-30" x="127.246094"/>
      </g>
     </g>
    </g>
    <g id="xtick_6">
     <g id="line2d_6">
      <g>
       <use xlink:href="#mc916618fdf" x="324.115661" y="307.584" style="stroke: #000000; stroke-width: 0.8"/>
      </g>
     </g>
     <g id="text_6">
      <!-- 800 -->
      <g transform="translate(314.571911 322.182437) scale(0.1 -0.1)">
       <defs>
        <path id="DejaVuSans-38" d="M 2034 2216 
Q 1584 2216 1326 1975 
Q 1069 1734 1069 1313 
Q 1069 891 1326 650 
Q 1584 409 2034 409 
Q 2484 409 2743 651 
Q 3003 894 3003 1313 
Q 3003 1734 2745 1975 
Q 2488 2216 2034 2216 
z
M 1403 2484 
Q 997 2584 770 2862 
Q 544 3141 544 3541 
Q 544 4100 942 4425 
Q 1341 4750 2034 4750 
Q 2731 4750 3128 4425 
Q 3525 4100 3525 3541 
Q 3525 3141 3298 2862 
Q 3072 2584 2669 2484 
Q 3125 2378 3379 2068 
Q 3634 1759 3634 1313 
Q 3634 634 3220 271 
Q 2806 -91 2034 -91 
Q 1263 -91 848 271 
Q 434 634 434 1313 
Q 434 1759 690 2068 
Q 947 2378 1403 2484 
z
M 1172 3481 
Q 1172 3119 1398 2916 
Q 1625 2713 2034 2713 
Q 2441 2713 2670 2916 
Q 2900 3119 2900 3481 
Q 2900 3844 2670 4047 
Q 2441 4250 2034 4250 
Q 1625 4250 1398 4047 
Q 1172 3844 1172 3481 
z
" transform="scale(0.015625)"/>
       </defs>
       <use xlink:href="#DejaVuSans-38"/>
       <use xlink:href="#DejaVuSans-30" x="63.623047"/>
       <use xlink:href="#DejaVuSans-30" x="127.246094"/>
      </g>
     </g>
    </g>
    <g id="xtick_7">
     <g id="line2d_7">
      <g>
       <use xlink:href="#mc916618fdf" x="374.175025" y="307.584" style="stroke: #000000; stroke-width: 0.8"/>
      </g>
     </g>
     <g id="text_7">
      <!-- 900 -->
      <g transform="translate(364.631275 322.182437) scale(0.1 -0.1)">
       <defs>
        <path id="DejaVuSans-39" d="M 703 97 
L 703 672 
Q 941 559 1184 500 
Q 1428 441 1663 441 
Q 2288 441 2617 861 
Q 2947 1281 2994 2138 
Q 2813 1869 2534 1725 
Q 2256 1581 1919 1581 
Q 1219 1581 811 2004 
Q 403 2428 403 3163 
Q 403 3881 828 4315 
Q 1253 4750 1959 4750 
Q 2769 4750 3195 4129 
Q 3622 3509 3622 2328 
Q 3622 1225 3098 567 
Q 2575 -91 1691 -91 
Q 1453 -91 1209 -44 
Q 966 3 703 97 
z
M 1959 2075 
Q 2384 2075 2632 2365 
Q 2881 2656 2881 3163 
Q 2881 3666 2632 3958 
Q 2384 4250 1959 4250 
Q 1534 4250 1286 3958 
Q 1038 3666 1038 3163 
Q 1038 2656 1286 2365 
Q 1534 2075 1959 2075 
z
" transform="scale(0.015625)"/>
       </defs>
       <use xlink:href="#DejaVuSans-39"/>
       <use xlink:href="#DejaVuSans-30" x="63.623047"/>
       <use xlink:href="#DejaVuSans-30" x="127.246094"/>
      </g>
     </g>
    </g>
    <g id="text_8">
     <!-- m/z -->
     <g transform="translate(226.981094 335.860562) scale(0.1 -0.1)">
      <defs>
       <path id="DejaVuSans-6d" d="M 3328 2828 
Q 3544 3216 3844 3400 
Q 4144 3584 4550 3584 
Q 5097 3584 5394 3201 
Q 5691 2819 5691 2113 
L 5691 0 
L 5113 0 
L 5113 2094 
Q 5113 2597 4934 2840 
Q 4756 3084 4391 3084 
Q 3944 3084 3684 2787 
Q 3425 2491 3425 1978 
L 3425 0 
L 2847 0 
L 2847 2094 
Q 2847 2600 2669 2842 
Q 2491 3084 2119 3084 
Q 1678 3084 1418 2786 
Q 1159 2488 1159 1978 
L 1159 0 
L 581 0 
L 581 3500 
L 1159 3500 
L 1159 2956 
Q 1356 3278 1631 3431 
Q 1906 3584 2284 3584 
Q 2666 3584 2933 3390 
Q 3200 3197 3328 2828 
z
" transform="scale(0.015625)"/>
       <path id="DejaVuSans-2f" d="M 1625 4666 
L 2156 4666 
L 531 -594 
L 0 -594 
L 1625 4666 
z
" transform="scale(0.015625)"/>
       <path id="DejaVuSans-7a" d="M 353 3500 
L 3084 3500 
L 3084 2975 
L 922 459 
L 3084 459 
L 3084 0 
L 275 0 
L 275 525 
L 2438 3041 
L 353 3041 
L 353 3500 
z
" transform="scale(0.015625)"/>
      </defs>
      <use xlink:href="#DejaVuSans-6d"/>
      <use xlink:href="#DejaVuSans-2f" x="97.412109"/>
      <use xlink:href="#DejaVuSans-7a" x="131.103516"/>
     </g>
    </g>
   </g>
   <g id="matplotlib.axis_2">
    <g id="ytick_1">
     <g id="line2d_8">
      <defs>
       <path id="m12e8c1d209" d="M 0 0 
L -3.5 0 
" style="stroke: #000000; stroke-width: 0.8"/>
      </defs>
      <g>
       <use xlink:href="#m12e8c1d209" x="57.6" y="307.584" style="stroke: #000000; stroke-width: 0.8"/>
      </g>
     </g>
     <g id="text_9">
      <!-- 0 -->
      <g transform="translate(44.2375 311.383219) scale(0.1 -0.1)">
       <use xlink:href="#DejaVuSans-30"/>
      </g>
     </g>
    </g>
    <g id="ytick_2">
     <g id="line2d_9">
      <g>
       <use xlink:href="#m12e8c1d209" x="57.6" y="276.489292" style="stroke: #000000; stroke-width: 0.8"/>
      </g>
     </g>
     <g id="text_10">
      <!-- 100 -->
      <g transform="translate(31.5125 280.288511) scale(0.1 -0.1)">
       <defs>
        <path id="DejaVuSans-31" d="M 794 531 
L 1825 531 
L 1825 4091 
L 703 3866 
L 703 4441 
L 1819 4666 
L 2450 4666 
L 2450 531 
L 3481 531 
L 3481 0 
L 794 0 
L 794 531 
z
" transform="scale(0.015625)"/>
       </defs>
       <use xlink:href="#DejaVuSans-31"/>
       <use xlink:href="#DejaVuSans-30" x="63.623047"/>
       <use xlink:href="#DejaVuSans-30" x="127.246094"/>
      </g>
     </g>
    </g>
    <g id="ytick_3">
     <g id="line2d_10">
      <g>
       <use xlink:href="#m12e8c1d209" x="57.6" y="245.394584" style="stroke: #000000; stroke-width: 0.8"/>
      </g>
     </g>
     <g id="text_11">
      <!-- 200 -->
      <g transform="translate(31.5125 249.193803) scale(0.1 -0.1)">
       <defs>
        <path id="DejaVuSans-32" d="M 1228 531 
L 3431 531 
L 3431 0 
L 469 0 
L 469 531 
Q 828 903 1448 1529 
Q 2069 2156 2228 2338 
Q 2531 2678 2651 2914 
Q 2772 3150 2772 3378 
Q 2772 3750 2511 3984 
Q 2250 4219 1831 4219 
Q 1534 4219 1204 4116 
Q 875 4013 500 3803 
L 500 4441 
Q 881 4594 1212 4672 
Q 1544 4750 1819 4750 
Q 2544 4750 2975 4387 
Q 3406 4025 3406 3419 
Q 3406 3131 3298 2873 
Q 3191 2616 2906 2266 
Q 2828 2175 2409 1742 
Q 1991 1309 1228 531 
z
" transform="scale(0.015625)"/>
       </defs>
       <use xlink:href="#DejaVuSans-32"/>
       <use xlink:href="#DejaVuSans-30" x="63.623047"/>
       <use xlink:href="#DejaVuSans-30" x="127.246094"/>
      </g>
     </g>
    </g>
    <g id="ytick_4">
     <g id="line2d_11">
      <g>
       <use xlink:href="#m12e8c1d209" x="57.6" y="214.299876" style="stroke: #000000; stroke-width: 0.8"/>
      </g>
     </g>
     <g id="text_12">
      <!-- 300 -->
      <g transform="translate(31.5125 218.099095) scale(0.1 -0.1)">
       <use xlink:href="#DejaVuSans-33"/>
       <use xlink:href="#DejaVuSans-30" x="63.623047"/>
       <use xlink:href="#DejaVuSans-30" x="127.246094"/>
      </g>
     </g>
    </g>
    <g id="ytick_5">
     <g id="line2d_12">
      <g>
       <use xlink:href="#m12e8c1d209" x="57.6" y="183.205168" style="stroke: #000000; stroke-width: 0.8"/>
      </g>
     </g>
     <g id="text_13">
      <!-- 400 -->
      <g transform="translate(31.5125 187.004386) scale(0.1 -0.1)">
       <use xlink:href="#DejaVuSans-34"/>
       <use xlink:href="#DejaVuSans-30" x="63.623047"/>
       <use xlink:href="#DejaVuSans-30" x="127.246094"/>
      </g>
     </g>
    </g>
    <g id="ytick_6">
     <g id="line2d_13">
      <g>
       <use xlink:href="#m12e8c1d209" x="57.6" y="152.11046" style="stroke: #000000; stroke-width: 0.8"/>
      </g>
     </g>
     <g id="text_14">
      <!-- 500 -->
      <g transform="translate(31.5125 155.909678) scale(0.1 -0.1)">
       <use xlink:href="#DejaVuSans-35"/>
       <use xlink:href="#DejaVuSans-30" x="63.623047"/>
       <use xlink:href="#DejaVuSans-30" x="127.246094"/>
      </g>
     </g>
    </g>
    <g id="ytick_7">
     <g id="line2d_14">
      <g>
       <use xlink:href="#m12e8c1d209" x="57.6" y="121.015752" style="stroke: #000000; stroke-width: 0.8"/>
      </g>
     </g>
     <g id="text_15">
      <!-- 600 -->
      <g transform="translate(31.5125 124.81497) scale(0.1 -0.1)">
       <use xlink:href="#DejaVuSans-36"/>
       <use xlink:href="#DejaVuSans-30" x="63.623047"/>
       <use xlink:href="#DejaVuSans-30" x="127.246094"/>
      </g>
     </g>
    </g>
    <g id="ytick_8">
     <g id="line2d_15">
      <g>
       <use xlink:href="#m12e8c1d209" x="57.6" y="89.921043" style="stroke: #000000; stroke-width: 0.8"/>
      </g>
     </g>
     <g id="text_16">
      <!-- 700 -->
      <g transform="translate(31.5125 93.720262) scale(0.1 -0.1)">
       <use xlink:href="#DejaVuSans-37"/>
       <use xlink:href="#DejaVuSans-30" x="63.623047"/>
       <use xlink:href="#DejaVuSans-30" x="127.246094"/>
      </g>
     </g>
    </g>
    <g id="ytick_9">
     <g id="line2d_16">
      <g>
       <use xlink:href="#m12e8c1d209" x="57.6" y="58.826335" style="stroke: #000000; stroke-width: 0.8"/>
      </g>
     </g>
     <g id="text_17">
      <!-- 800 -->
      <g transform="translate(31.5125 62.625554) scale(0.1 -0.1)">
       <use xlink:href="#DejaVuSans-38"/>
       <use xlink:href="#DejaVuSans-30" x="63.623047"/>
       <use xlink:href="#DejaVuSans-30" x="127.246094"/>
      </g>
     </g>
    </g>
    <g id="text_18">
     <!-- Intensities [a.u.] -->
     <g transform="translate(25.432812 215.303) rotate(-90) scale(0.1 -0.1)">
      <defs>
       <path id="DejaVuSans-49" d="M 628 4666 
L 1259 4666 
L 1259 0 
L 628 0 
L 628 4666 
z
" transform="scale(0.015625)"/>
       <path id="DejaVuSans-6e" d="M 3513 2113 
L 3513 0 
L 2938 0 
L 2938 2094 
Q 2938 2591 2744 2837 
Q 2550 3084 2163 3084 
Q 1697 3084 1428 2787 
Q 1159 2491 1159 1978 
L 1159 0 
L 581 0 
L 581 3500 
L 1159 3500 
L 1159 2956 
Q 1366 3272 1645 3428 
Q 1925 3584 2291 3584 
Q 2894 3584 3203 3211 
Q 3513 2838 3513 2113 
z
" transform="scale(0.015625)"/>
       <path id="DejaVuSans-74" d="M 1172 4494 
L 1172 3500 
L 2356 3500 
L 2356 3053 
L 1172 3053 
L 1172 1153 
Q 1172 725 1289 603 
Q 1406 481 1766 481 
L 2356 481 
L 2356 0 
L 1766 0 
Q 1100 0 847 248 
Q 594 497 594 1153 
L 594 3053 
L 172 3053 
L 172 3500 
L 594 3500 
L 594 4494 
L 1172 4494 
z
" transform="scale(0.015625)"/>
       <path id="DejaVuSans-65" d="M 3597 1894 
L 3597 1613 
L 953 1613 
Q 991 1019 1311 708 
Q 1631 397 2203 397 
Q 2534 397 2845 478 
Q 3156 559 3463 722 
L 3463 178 
Q 3153 47 2828 -22 
Q 2503 -91 2169 -91 
Q 1331 -91 842 396 
Q 353 884 353 1716 
Q 353 2575 817 3079 
Q 1281 3584 2069 3584 
Q 2775 3584 3186 3129 
Q 3597 2675 3597 1894 
z
M 3022 2063 
Q 3016 2534 2758 2815 
Q 2500 3097 2075 3097 
Q 1594 3097 1305 2825 
Q 1016 2553 972 2059 
L 3022 2063 
z
" transform="scale(0.015625)"/>
       <path id="DejaVuSans-73" d="M 2834 3397 
L 2834 2853 
Q 2591 2978 2328 3040 
Q 2066 3103 1784 3103 
Q 1356 3103 1142 2972 
Q 928 2841 928 2578 
Q 928 2378 1081 2264 
Q 1234 2150 1697 2047 
L 1894 2003 
Q 2506 1872 2764 1633 
Q 3022 1394 3022 966 
Q 3022 478 2636 193 
Q 2250 -91 1575 -91 
Q 1294 -91 989 -36 
Q 684 19 347 128 
L 347 722 
Q 666 556 975 473 
Q 1284 391 1588 391 
Q 1994 391 2212 530 
Q 2431 669 2431 922 
Q 2431 1156 2273 1281 
Q 2116 1406 1581 1522 
L 1381 1569 
Q 847 1681 609 1914 
Q 372 2147 372 2553 
Q 372 3047 722 3315 
Q 1072 3584 1716 3584 
Q 2034 3584 2315 3537 
Q 2597 3491 2834 3397 
z
" transform="scale(0.015625)"/>
       <path id="DejaVuSans-69" d="M 603 3500 
L 1178 3500 
L 1178 0 
L 603 0 
L 603 3500 
z
M 603 4863 
L 1178 4863 
L 1178 4134 
L 603 4134 
L 603 4863 
z
" transform="scale(0.015625)"/>
       <path id="DejaVuSans-20" transform="scale(0.015625)"/>
       <path id="DejaVuSans-5b" d="M 550 4863 
L 1875 4863 
L 1875 4416 
L 1125 4416 
L 1125 -397 
L 1875 -397 
L 1875 -844 
L 550 -844 
L 550 4863 
z
" transform="scale(0.015625)"/>
       <path id="DejaVuSans-61" d="M 2194 1759 
Q 1497 1759 1228 1600 
Q 959 1441 959 1056 
Q 959 750 1161 570 
Q 1363 391 1709 391 
Q 2188 391 2477 730 
Q 2766 1069 2766 1631 
L 2766 1759 
L 2194 1759 
z
M 3341 1997 
L 3341 0 
L 2766 0 
L 2766 531 
Q 2569 213 2275 61 
Q 1981 -91 1556 -91 
Q 1019 -91 701 211 
Q 384 513 384 1019 
Q 384 1609 779 1909 
Q 1175 2209 1959 2209 
L 2766 2209 
L 2766 2266 
Q 2766 2663 2505 2880 
Q 2244 3097 1772 3097 
Q 1472 3097 1187 3025 
Q 903 2953 641 2809 
L 641 3341 
Q 956 3463 1253 3523 
Q 1550 3584 1831 3584 
Q 2591 3584 2966 3190 
Q 3341 2797 3341 1997 
z
" transform="scale(0.015625)"/>
       <path id="DejaVuSans-2e" d="M 684 794 
L 1344 794 
L 1344 0 
L 684 0 
L 684 794 
z
" transform="scale(0.015625)"/>
       <path id="DejaVuSans-75" d="M 544 1381 
L 544 3500 
L 1119 3500 
L 1119 1403 
Q 1119 906 1312 657 
Q 1506 409 1894 409 
Q 2359 409 2629 706 
Q 2900 1003 2900 1516 
L 2900 3500 
L 3475 3500 
L 3475 0 
L 2900 0 
L 2900 538 
Q 2691 219 2414 64 
Q 2138 -91 1772 -91 
Q 1169 -91 856 284 
Q 544 659 544 1381 
z
M 1991 3584 
L 1991 3584 
z
" transform="scale(0.015625)"/>
       <path id="DejaVuSans-5d" d="M 1947 4863 
L 1947 -844 
L 622 -844 
L 622 -397 
L 1369 -397 
L 1369 4416 
L 622 4416 
L 622 4863 
L 1947 4863 
z
" transform="scale(0.015625)"/>
      </defs>
      <use xlink:href="#DejaVuSans-49"/>
      <use xlink:href="#DejaVuSans-6e" x="29.492188"/>
      <use xlink:href="#DejaVuSans-74" x="92.871094"/>
      <use xlink:href="#DejaVuSans-65" x="132.080078"/>
      <use xlink:href="#DejaVuSans-6e" x="193.603516"/>
      <use xlink:href="#DejaVuSans-73" x="256.982422"/>
      <use xlink:href="#DejaVuSans-69" x="309.082031"/>
      <use xlink:href="#DejaVuSans-74" x="336.865234"/>
      <use xlink:href="#DejaVuSans-69" x="376.074219"/>
      <use xlink:href="#DejaVuSans-65" x="403.857422"/>
      <use xlink:href="#DejaVuSans-73" x="465.380859"/>
      <use xlink:href="#DejaVuSans-20" x="517.480469"/>
      <use xlink:href="#DejaVuSans-5b" x="549.267578"/>
      <use xlink:href="#DejaVuSans-61" x="588.28125"/>
      <use xlink:href="#DejaVuSans-2e" x="649.560547"/>
      <use xlink:href="#DejaVuSans-75" x="681.347656"/>
      <use xlink:href="#DejaVuSans-2e" x="744.726562"/>
      <use xlink:href="#DejaVuSans-5d" x="776.513672"/>
     </g>
    </g>
   </g>
   <g id="line2d_17">
    <path d="M 73.832727 307.584 
L 73.895301 307.584 
L 74.370841 302.580579 
L 74.410882 307.584 
L 74.871404 304.67023 
L 74.886421 307.584 
L 74.906449 304.644137 
L 75.374488 293.329722 
L 75.387 307.584 
L 75.915092 304.404947 
L 76.340584 305.446511 
L 76.373124 307.584 
L 76.393137 303.274955 
L 76.878698 304.607171 
L 76.918739 304.494824 
L 77.351732 307.584 
L 77.389283 301.075856 
L 77.902357 307.584 
L 78.360374 299.663909 
L 78.397925 307.584 
L 78.880981 307.584 
L 78.893492 300.881604 
L 78.978585 305.242112 
L 79.386555 304.267956 
L 79.409073 301.952161 
L 79.459135 306.029265 
L 79.887118 298.836892 
L 79.919658 307.584 
L 80.397702 307.584 
L 80.462767 285.730727 
L 80.848218 307.584 
L 80.880743 289.740421 
L 80.9283 307.584 
L 81.426373 301.791252 
L 81.839338 307.584 
L 81.876889 306.029265 
L 82.402475 307.584 
L 82.852991 307.584 
L 82.883026 295.99053 
L 82.895538 303.231466 
L 83.411133 307.584 
L 84.387236 300.116921 
L 84.404758 306.154658 
L 84.887814 301.460009 
L 84.942872 302.444313 
L 84.9629 307.584 
L 85.395893 302.664658 
L 85.465969 307.584 
L 85.878934 289.595458 
L 85.893951 307.584 
L 85.971543 303.41267 
L 86.424564 307.584 
L 86.477116 304.223017 
L 86.887592 307.584 
L 86.922622 303.660558 
L 86.9802 307.584 
L 87.393166 307.584 
L 87.413194 303.8925 
L 87.433206 305.778477 
L 87.891223 301.780379 
L 87.908746 307.584 
L 87.931279 306.090149 
L 88.396812 302.547962 
L 88.406819 304.842012 
L 88.421836 302.946612 
L 88.887369 302.947337 
L 88.919894 305.778477 
L 89.365414 307.584 
L 89.397939 300.854062 
L 89.901022 307.584 
L 90.411592 305.911119 
L 90.969734 307.584 
L 91.472802 307.584 
L 91.90329 299.586354 
L 91.945851 307.584 
L 91.978376 301.657885 
L 92.411369 302.93719 
L 92.431397 307.584 
L 92.48146 304.419443 
L 92.894425 299.259461 
L 92.936971 296.331919 
L 92.987034 307.584 
L 93.399999 304.515844 
L 93.47258 307.584 
L 93.487597 305.717593 
L 93.85302 307.584 
L 93.940618 303.062583 
L 93.983164 307.584 
L 94.403646 307.584 
L 94.431175 303.896849 
L 94.851656 305.900247 
L 94.906714 301.192551 
L 94.894203 307.584 
L 94.94926 307.584 
L 95.352219 307.584 
L 95.404787 303.706946 
L 95.439817 307.584 
L 95.895344 307.584 
L 95.907856 304.76953 
L 95.942901 307.584 
L 96.400918 303.646062 
L 96.435963 307.584 
L 96.886464 305.839362 
L 96.903986 301.841264 
L 96.951543 304.433939 
L 97.40956 300.746063 
L 97.429588 307.584 
L 97.479651 305.518992 
L 97.947674 307.584 
L 97.985225 303.348886 
L 98.418218 307.584 
L 98.435741 304.755034 
L 98.490799 305.778477 
L 98.976344 307.584 
L 98.996372 293.757364 
L 99.409338 302.178305 
L 99.481918 307.584 
L 99.499441 296.442817 
L 99.909916 303.784502 
L 99.985002 307.584 
L 100.002509 294.338669 
L 100.488071 307.584 
L 100.916053 303.631565 
L 100.956109 305.618293 
L 100.993645 303.269156 
L 101.446666 307.584 
L 102.385233 307.584 
L 102.440291 302.770481 
L 102.960882 307.584 
L 103.86442 307.584 
L 103.901955 300.989603 
L 103.949512 307.584 
L 104.407529 297.566286 
L 104.425051 307.584 
L 104.492621 303.802623 
L 104.910597 299.893677 
L 104.96066 307.584 
L 105.0007 302.170331 
L 105.416186 307.584 
L 105.506274 303.177104 
L 105.991836 307.584 
L 106.011864 301.447688 
L 106.424829 307.584 
L 106.514932 296.286981 
L 106.925392 304.483952 
L 106.965448 307.584 
L 107.002983 298.494053 
L 107.020506 298.655687 
L 107.453499 304.258533 
L 107.486039 307.584 
L 107.503562 300.156786 
L 107.523574 261.888553 
L 107.97409 307.584 
L 108.011641 304.419443 
L 108.029148 262.360406 
L 108.447125 307.584 
L 108.512204 299.50445 
L 108.534722 136.34783 
L 108.965226 307.584 
L 109.035301 232.226808 
L 109.43826 302.546512 
L 109.458288 300.115471 
L 109.540875 293.894355 
L 109.973868 307.584 
L 110.414362 305.439263 
L 110.43439 305.629165 
L 110.46693 307.584 
L 110.932463 307.584 
L 110.939964 305.016693 
L 110.967493 307.584 
L 111.42302 305.736438 
L 111.443033 305.081202 
L 111.941106 307.584 
L 111.958628 304.294049 
L 112.431662 305.721217 
L 112.521766 307.584 
L 112.932241 305.803121 
L 112.949748 307.584 
L 112.967271 304.826791 
L 113.007327 305.618293 
L 113.460333 307.584 
L 113.512901 301.392601 
L 113.925866 302.763958 
L 113.940883 305.903871 
L 113.963401 305.378378 
L 114.018474 291.174113 
L 114.43144 302.763958 
L 114.46899 307.584 
L 114.521543 295.070011 
L 114.972059 307.584 
L 115.027117 293.831296 
L 115.512678 307.584 
L 115.532691 299.499376 
L 115.925643 303.198849 
L 115.980701 307.584 
L 116.018252 305.017418 
L 116.035775 286.310581 
L 116.421211 307.584 
L 116.433723 304.308546 
L 116.44874 302.663933 
L 116.483785 307.584 
L 116.541349 261.182578 
L 116.974342 307.584 
L 117.429853 307.584 
L 117.932922 303.957734 
L 117.945449 302.966182 
L 117.982984 306.151034 
L 118.438496 303.635189 
L 118.461029 307.584 
L 118.976609 307.584 
L 119.447153 300.946838 
L 119.469672 307.584 
L 119.932699 302.483453 
L 119.967745 307.584 
L 119.985267 305.903871 
L 120.458301 307.584 
L 120.475824 301.857935 
L 120.908817 302.101474 
L 120.978892 307.584 
L 120.99391 303.187977 
L 121.446931 304.13314 
L 121.534529 307.584 
L 122.025085 307.584 
L 122.438051 306.029265 
L 122.490619 307.584 
L 122.530659 304.157059 
L 122.928607 305.256608 
L 122.956152 298.360686 
L 122.976164 307.584 
L 123.033728 305.618293 
L 123.471732 307.584 
L 123.539302 293.600804 
L 124.042385 307.584 
L 124.445344 307.584 
L 124.467863 302.67553 
L 124.48288 305.588575 
L 124.93089 303.430791 
L 124.99597 307.584 
L 125.453987 307.584 
L 125.47901 304.294049 
L 125.491537 307.584 
L 125.974578 307.584 
L 125.989595 305.964756 
L 126.462629 307.584 
L 126.485163 305.96838 
L 126.535225 307.584 
L 126.94819 304.419443 
L 126.963208 292.638245 
L 126.983236 307.584 
L 127.058322 300.785929 
L 127.421225 305.331989 
L 127.453764 307.584 
L 127.491315 302.825567 
L 127.994383 307.584 
L 128.462407 304.760108 
L 128.499957 307.584 
L 129.003026 307.584 
L 129.47606 304.478153 
L 129.941593 303.646062 
L 129.994161 307.584 
L 130.449672 305.903871 
L 130.53727 307.584 
L 130.952741 302.65451 
L 131.040354 307.584 
L 131.463326 307.584 
L 131.545928 293.606602 
L 131.998934 307.584 
L 132.048996 300.647488 
L 132.451955 302.460984 
L 132.491996 307.584 
L 132.955024 307.584 
L 132.970041 303.548211 
L 133.007592 307.584 
L 133.460598 307.584 
L 133.515671 301.315046 
L 133.931142 307.584 
L 133.963682 305.964756 
L 133.998711 307.584 
L 134.491774 307.584 
L 134.524313 304.494824 
L 134.939784 303.483702 
L 135.009859 307.584 
L 135.477898 305.081927 
L 135.570506 307.584 
L 135.948442 304.341887 
L 135.963459 304.655734 
L 135.998489 307.584 
L 136.021022 305.331989 
L 136.489046 302.316745 
L 136.524091 307.584 
L 136.95959 303.419194 
L 136.99462 304.097624 
L 137.009637 305.378378 
L 137.452652 307.584 
L 137.500194 303.549661 
L 137.95572 307.584 
L 137.968232 304.279553 
L 138.0208 307.584 
L 138.441266 303.652585 
L 138.478817 307.584 
L 138.513862 301.11862 
L 138.946855 302.826292 
L 138.996902 307.584 
L 139.0845 306.151034 
L 139.469937 307.584 
L 139.49247 300.153887 
L 139.552539 300.955536 
L 140.00805 307.584 
L 140.478594 303.290901 
L 140.496117 305.306621 
L 140.561181 303.025617 
L 140.979157 301.99855 
L 141.016708 307.584 
L 141.487237 300.464109 
L 141.507265 307.584 
L 141.990305 307.584 
L 142.007828 305.614668 
L 142.02535 307.584 
L 142.50089 307.584 
L 142.513402 301.210672 
L 142.963918 301.106298 
L 143.001468 307.584 
L 143.01398 304.414369 
L 143.436952 307.584 
L 143.469492 304.244037 
L 143.507042 305.20877 
L 143.97007 305.192099 
L 144.025128 307.584 
L 144.45062 304.543387 
L 144.468128 304.684727 
L 144.520695 307.584 
L 144.953689 294.923597 
L 145.003736 307.584 
L 145.979854 307.584 
L 145.994871 302.489252 
L 146.014899 302.649437 
L 146.505456 307.584 
L 146.520473 303.645337 
L 146.537996 303.649686 
L 146.986006 307.584 
L 147.023541 302.922693 
L 147.549143 307.584 
L 148.014676 307.584 
L 148.032184 305.276903 
L 148.522756 307.584 
L 148.983278 303.574305 
L 149.005796 301.823144 
L 149.025824 307.584 
L 150.016944 307.584 
L 150.497494 301.17878 
L 150.522518 304.93044 
L 150.970529 302.21672 
L 151.025602 307.584 
L 151.476118 301.424494 
L 151.548698 307.584 
L 152.019227 307.584 
L 152.03675 304.830415 
L 152.457231 301.508572 
L 152.527306 305.883576 
L 152.992839 307.584 
L 153.015358 306.029265 
L 153.030375 307.584 
L 153.465874 299.659561 
L 153.500919 307.584 
L 153.535949 302.084803 
L 154.024015 307.584 
L 154.039033 304.830415 
L 154.527084 307.584 
L 154.9776 301.604248 
L 155.030152 307.584 
L 156.0413 307.584 
L 156.459276 304.247661 
L 156.531872 307.584 
L 157.014913 299.445739 
L 157.049958 307.584 
L 157.47293 307.584 
L 157.490452 304.842012 
L 157.51048 307.584 
L 157.976013 304.460758 
L 158.061106 307.584 
L 158.516617 304.11212 
L 158.531634 302.489252 
L 158.564174 307.584 
L 158.581697 307.584 
L 159.054731 307.584 
L 159.472707 305.166731 
L 159.52778 307.584 
L 159.993298 307.584 
L 160.010821 304.33174 
L 160.048371 307.584 
L 160.5189 307.584 
L 160.616519 303.817844 
L 161.06453 307.584 
L 161.50753 296.895829 
L 161.532553 305.903871 
L 161.567599 304.394074 
L 162.103207 307.584 
L 162.5362 307.584 
L 162.969193 304.705021 
L 163.056791 307.584 
L 163.086826 305.542911 
L 163.474767 307.584 
L 163.489785 302.539989 
L 163.539847 304.383927 
L 163.922778 307.584 
L 163.980341 304.344062 
L 164.022887 307.584 
L 164.047926 307.584 
L 164.488421 304.594124 
L 164.556006 307.584 
L 164.991489 303.574305 
L 165.086603 307.584 
L 165.479556 301.612222 
L 165.549631 307.584 
L 167.061357 307.584 
L 167.511858 303.405422 
L 167.551914 307.584 
L 167.566931 303.675055 
L 168.014942 305.095699 
L 168.052477 305.081202 
L 168.523021 304.580353 
L 168.548044 302.95676 
L 169.008567 307.584 
L 169.026089 304.906521 
L 169.09867 307.584 
L 169.534169 307.584 
L 169.554181 306.025641 
L 170.057265 307.584 
L 170.490259 307.584 
L 170.507781 298.783255 
L 170.557828 307.584 
L 170.995832 307.584 
L 171.048385 304.956533 
L 171.065908 295.634644 
L 171.080925 307.584 
L 171.503912 307.584 
L 171.538942 304.483952 
L 171.566486 307.584 
L 172.042025 307.584 
L 172.104584 292.716526 
L 172.605163 307.584 
L 173.000605 301.525968 
L 173.050668 307.584 
L 173.070696 304.003397 
L 173.54373 307.584 
L 174.006758 304.705021 
L 174.05931 307.584 
L 174.076833 304.684727 
L 174.552372 303.35541 
L 174.60494 307.584 
L 175.991518 307.584 
L 176.111656 303.744637 
L 176.497092 307.584 
L 176.512109 305.653084 
L 176.567167 307.584 
L 177.002666 307.584 
L 177.120298 304.860133 
L 177.50824 303.53444 
L 177.573319 307.584 
L 178.011308 307.584 
L 178.046353 305.96838 
L 178.081399 307.584 
L 178.50188 307.584 
L 178.521893 302.559559 
L 178.56945 307.584 
L 179.039994 307.584 
L 179.057501 302.403723 
L 179.120076 307.584 
L 179.528045 306.215543 
L 179.550563 301.721669 
L 179.623144 307.584 
L 180.048636 307.584 
L 180.066144 304.118644 
L 180.571718 307.584 
L 180.611774 303.821468 
L 181.024739 304.655734 
L 181.114842 307.584 
L 181.565358 307.584 
L 181.582896 305.713969 
L 181.620416 305.903871 
L 182.030907 302.427642 
L 182.050919 307.584 
L 182.123485 305.52769 
L 182.611551 307.584 
L 182.629058 306.045211 
L 183.039549 304.389726 
L 183.079574 307.584 
L 183.107103 299.320346 
L 183.580168 307.584 
L 183.610202 301.923169 
L 184.088247 307.584 
L 184.548754 305.42839 
L 184.573778 307.584 
L 184.591316 305.066706 
L 184.646374 276.149353 
L 185.126924 307.584 
L 185.149442 296.461662 
L 185.554891 303.562708 
L 185.58242 307.584 
L 186.055485 305.743686 
L 186.087994 307.584 
L 186.135567 294.377809 
L 186.566039 307.584 
L 186.581072 302.564633 
L 186.638635 303.082153 
L 187.066633 307.584 
L 187.952632 307.584 
L 188.04023 304.494824 
L 188.075275 307.584 
L 188.092783 304.036739 
L 188.545804 307.584 
L 188.598357 307.584 
L 188.6184 304.944936 
L 189.121468 307.584 
L 189.519401 305.10947 
L 189.534434 303.206822 
L 189.556952 307.584 
L 189.57449 303.756959 
L 189.627042 307.584 
L 190.057515 304.830415 
L 190.077558 307.584 
L 190.130111 302.658134 
L 190.580627 303.47283 
L 190.598134 307.584 
L 190.635685 303.981653 
L 191.031143 298.573783 
L 191.066188 307.584 
L 191.088706 300.99975 
L 191.103708 281.427479 
L 191.141259 303.809871 
L 191.589269 307.584 
L 191.644327 300.835216 
L 192.079841 307.584 
L 192.535337 302.202224 
L 192.58291 307.584 
L 192.652969 279.871295 
L 193.088484 307.584 
L 193.158543 285.271191 
L 193.594057 307.584 
L 193.661642 293.905227 
L 194.047079 307.584 
L 194.067092 306.154658 
L 194.099631 301.540464 
L 194.572665 307.584 
L 195.073229 307.584 
L 195.090766 305.223267 
L 195.543788 306.029265 
L 195.59634 304.419443 
L 196.041845 301.159935 
L 196.084376 307.584 
L 196.534892 304.294049 
L 196.569938 307.584 
L 196.592456 303.87438 
L 197.037961 307.584 
L 197.073006 303.325692 
L 197.140591 307.584 
L 197.581085 304.13314 
L 197.596118 307.584 
L 197.636143 304.504247 
L 198.044128 307.584 
L 198.101692 302.861808 
L 198.139242 307.584 
L 198.542186 305.016693 
L 198.589728 301.902149 
L 198.60476 307.584 
L 198.642311 307.584 
L 198.709865 302.857459 
L 199.045255 307.584 
L 199.0803 303.953385 
L 199.145379 305.618293 
L 199.210459 306.215543 
L 199.570872 307.584 
L 199.630941 299.157262 
L 199.650953 307.584 
L 200.071435 307.584 
L 200.088942 305.414619 
L 200.134009 307.584 
L 201.080077 307.584 
L 201.115122 299.605924 
L 201.568144 307.584 
L 202.091225 307.584 
L 202.106258 305.218193 
L 202.579292 307.584 
L 203.044809 304.935514 
L 203.084866 307.584 
L 205.10215 307.584 
L 205.137196 287.331125 
L 205.587712 302.609571 
L 205.637759 307.584 
L 206.095791 307.584 
L 206.22592 304.27158 
L 206.616367 307.584 
L 208.681224 307.584 
L 209.064155 305.42839 
L 209.104211 307.584 
L 210.060301 307.584 
L 210.097851 305.557408 
L 210.117864 307.584 
L 210.565875 304.511495 
L 210.605931 302.839339 
L 210.620932 306.024916 
L 210.723563 307.584 
L 211.226631 307.584 
L 211.559515 303.777979 
L 211.732205 295.394005 
L 212.062584 307.584 
L 212.235274 304.807946 
L 212.595686 303.388027 
L 212.62071 307.584 
L 212.740848 294.897504 
L 213.111282 307.584 
L 213.243916 298.928944 
L 213.74949 301.206323 
L 214.252558 307.584 
L 216.104669 307.584 
L 216.137209 305.634963 
L 216.612749 307.584 
L 217.075792 307.584 
L 217.115817 305.679177 
L 217.621391 307.584 
L 218.747696 307.584 
L 219.068053 303.059684 
L 219.100593 307.584 
L 219.148135 303.276405 
L 219.250765 307.584 
L 219.608672 307.584 
L 219.668741 303.741013 
L 219.756339 305.442887 
L 220.056683 307.584 
L 220.129248 306.029265 
L 220.259407 307.584 
L 223.12016 307.584 
L 223.140173 304.318693 
L 223.155206 307.584 
L 223.588184 307.584 
L 223.745872 297.129944 
L 224.088777 307.584 
L 224.131308 307.584 
L 224.24894 298.133818 
L 224.496732 307.584 
L 224.754514 307.584 
L 225.119938 305.207321 
L 225.139951 307.584 
L 225.257583 307.584 
L 225.57797 303.040838 
L 225.628017 307.584 
L 225.763187 303.929466 
L 226.148624 307.584 
L 226.654198 307.584 
L 226.77183 301.741239 
L 227.074679 305.653084 
L 227.092186 307.584 
L 227.162277 298.315748 
L 227.274898 302.958209 
L 227.617773 307.584 
L 227.69538 306.184376 
L 227.780472 307.584 
L 228.155887 307.584 
L 228.195943 303.588801 
L 229.091964 302.650161 
L 229.147022 307.584 
L 229.770228 307.584 
L 230.22826 303.717094 
L 230.275802 304.93189 
L 230.761363 307.584 
L 231.264432 307.584 
L 231.592305 306.029265 
L 231.682408 306.211919 
L 231.752498 302.651611 
L 231.770006 307.584 
L 232.185476 307.584 
L 232.595936 297.996827 
L 232.69105 303.284377 
L 233.149082 307.584 
L 233.584566 307.584 
L 233.602104 305.842986 
L 233.654656 307.584 
L 234.140217 307.584 
L 234.595714 302.750911 
L 235.659445 307.584 
L 236.00733 307.584 
L 236.165018 303.821468 
L 236.768212 305.903871 
L 237.113592 307.584 
L 237.178672 302.030442 
L 237.27128 307.584 
L 237.641684 307.584 
L 237.77936 298.415773 
L 238.104727 307.584 
L 238.162291 301.651362 
L 238.279923 301.651362 
L 238.595269 305.96838 
L 239.105853 307.584 
L 239.155931 304.368706 
L 239.203473 307.584 
L 239.611427 307.584 
L 239.709047 304.252735 
L 240.114496 307.584 
L 240.212115 305.177603 
L 240.670147 307.584 
L 241.611205 307.584 
L 241.67879 300.979455 
L 242.166856 305.557408 
L 243.120441 307.584 
L 243.172993 303.559084 
L 243.676062 307.584 
L 247.18257 307.584 
L 247.230112 299.936441 
L 247.685638 307.584 
L 247.73318 290.60368 
L 248.023503 307.584 
L 248.186202 307.584 
L 248.236249 297.471334 
L 248.661741 303.961358 
L 248.739317 307.584 
L 249.187328 302.711046 
L 249.600293 307.584 
L 249.672889 305.027566 
L 250.608966 304.348411 
L 250.626473 307.584 
L 252.120677 307.584 
L 252.175735 305.964756 
L 252.598722 307.584 
L 252.68632 306.025641 
L 253.189388 307.584 
L 254.683592 303.986726 
L 254.748671 294.766311 
L 255.136613 302.728442 
L 255.206703 307.584 
L 255.254245 299.619696 
L 255.677232 307.584 
L 255.759819 290.351444 
L 256.202819 305.964756 
L 256.260382 284.787014 
L 256.723425 307.584 
L 256.763451 293.281159 
L 257.193954 307.584 
L 258.185089 304.332465 
L 259.191226 305.588575 
L 260.134789 307.584 
L 261.143462 307.584 
L 261.211016 303.326417 
L 263.21831 307.584 
L 264.209445 307.584 
L 265.273145 297.877232 
L 265.706154 305.256608 
L 265.741169 305.192099 
L 266.209223 307.584 
L 266.759833 299.724794 
L 267.217865 307.584 
L 270.213758 307.584 
L 271.149835 306.029265 
L 271.237433 307.584 
L 271.783063 304.795624 
L 272.050867 307.584 
L 272.216041 307.584 
L 272.283626 303.859883 
L 273.224714 307.584 
L 274.758943 307.584 
L 274.811495 299.833517 
L 275.241998 305.26748 
L 275.259506 305.142087 
L 275.842686 295.241068 
L 276.235639 305.618293 
L 276.713684 307.584 
L 276.851329 299.055063 
L 278.225395 307.584 
L 278.655867 305.04931 
L 278.798554 306.090149 
L 279.158966 305.318218 
L 279.777162 307.584 
L 282.242457 307.584 
L 282.325044 303.13434 
L 283.333717 307.584 
L 283.796729 307.584 
L 284.064534 301.141814 
L 284.342359 301.782554 
L 284.662716 306.029265 
L 284.805372 305.302997 
L 285.165785 305.177603 
L 285.30844 298.193978 
L 285.758956 307.584 
L 285.814045 304.123717 
L 286.176932 307.584 
L 286.317113 300.096626 
L 286.332115 305.42839 
L 286.67001 307.584 
L 286.792653 303.187977 
L 286.822687 305.42839 
L 287.173078 305.142087 
L 287.293216 307.584 
L 287.325756 305.317493 
L 287.83133 307.584 
L 287.853848 303.848286 
L 288.737372 307.584 
L 288.855005 307.584 
L 289.340535 304.282452 
L 289.360578 307.584 
L 289.861142 307.584 
L 289.876143 306.105371 
L 290.349178 302.997349 
L 290.852277 298.556387 
L 291.790829 303.728691 
L 291.820863 307.584 
L 292.293897 304.544837 
L 292.829505 303.043738 
L 293.302539 304.480328 
L 293.335079 304.257084 
L 293.810619 304.789825 
L 293.835673 303.342363 
L 294.171032 307.584 
L 294.338741 298.521596 
L 294.676605 307.584 
L 294.816786 304.820992 
L 294.844315 293.805203 
L 295.317349 307.584 
L 295.347384 295.732495 
L 295.850452 298.712948 
L 296.356026 299.580556 
L 296.819069 303.73159 
L 297.322138 304.183152 
L 297.367174 301.313596 
L 297.867737 303.618519 
L 298.33078 303.105347 
L 298.373311 299.815397 
L 298.836354 304.706471 
L 299.271838 297.877957 
L 299.354455 307.584 
L 299.814962 307.584 
L 299.847502 299.825544 
L 300.348065 307.584 
L 300.363097 302.223968 
L 300.683454 307.584 
L 300.82611 300.878705 
L 300.878693 307.584 
L 301.329178 307.584 
L 301.354233 303.712745 
L 301.789716 305.839362 
L 301.829772 305.717593 
L 301.857301 307.584 
L 302.332841 307.584 
L 303.273898 301.071507 
L 303.374023 289.006905 
L 303.874586 298.047565 
L 304.382665 277.676545 
L 304.815674 304.186051 
L 304.885734 294.639468 
L 305.318742 307.584 
L 305.388802 298.309949 
L 305.824316 305.331989 
L 305.891871 304.641238 
L 306.327385 304.13314 
L 306.700294 304.164307 
L 306.832959 297.644566 
L 307.195877 305.907495 
L 307.336027 305.055834 
L 307.363556 298.613648 
L 307.701451 305.964756 
L 307.841601 304.201997 
L 307.866625 301.044688 
L 308.094403 307.584 
L 308.204519 303.982378 
L 308.34467 307.584 
L 308.372198 303.375705 
L 308.707588 307.584 
L 308.845233 307.584 
L 309.210656 305.127591 
L 309.350837 303.285102 
L 309.8514 302.107997 
L 310.359479 281.065795 
L 310.389514 304.93044 
L 310.860043 295.372985 
L 310.892582 305.713969 
L 311.298031 307.584 
L 311.398156 297.596728 
L 311.831134 303.756959 
L 311.901225 307.584 
L 312.361762 307.584 
L 313.337865 306.090149 
L 313.367899 304.67023 
L 313.873473 307.584 
L 314.376542 305.732814 
L 314.714436 307.584 
L 314.87961 301.028018 
L 315.202472 302.546512 
L 315.357655 304.358558 
L 315.38769 282.199412 
L 315.708046 307.584 
L 315.860724 307.584 
L 315.888253 284.487663 
L 316.211145 304.952909 
L 316.366298 303.598224 
L 316.393827 295.875284 
L 316.714214 304.020793 
L 316.869366 303.348886 
L 316.896926 302.47403 
L 317.372465 307.584 
L 317.405005 295.483157 
L 317.837983 303.419919 
L 317.873028 307.584 
L 317.908073 302.237015 
L 318.356084 303.105347 
L 318.413647 301.681079 
L 318.849131 302.589277 
L 318.916716 307.584 
L 319.21706 307.584 
L 319.349694 301.29765 
L 319.367232 307.584 
L 319.387245 299.363835 
L 319.419784 303.180004 
L 319.710107 306.215543 
L 319.852762 304.483952 
L 319.887808 302.207297 
L 319.922853 303.996874 
L 320.10807 307.584 
L 320.355861 307.584 
L 321.364504 305.392874 
L 321.397044 291.558991 
L 321.867572 304.120818 
L 321.900112 296.631994 
L 322.373146 276.850253 
L 322.428204 307.584 
L 322.876215 287.562343 
L 322.931273 307.584 
L 323.381789 264.676202 
L 323.409318 303.882353 
L 323.884857 275.990617 
L 324.217741 305.778477 
L 324.387926 296.114474 
L 324.422971 304.921017 
L 324.72081 307.584 
L 324.888519 303.301048 
L 325.434119 307.584 
L 326.390209 301.510022 
L 326.420243 307.584 
L 327.371322 297.071235 
L 327.398882 301.554961 
L 327.721744 307.584 
L 327.874421 306.092324 
L 327.90195 304.559333 
L 328.37749 307.584 
L 328.410029 297.149515 
L 328.880558 305.218193 
L 328.913098 303.331491 
L 329.388637 307.584 
L 329.418672 302.613195 
L 329.891706 303.567057 
L 329.92174 303.946861 
L 330.377267 307.584 
L 330.394774 299.252937 
L 330.424809 302.574055 
L 330.897843 300.680105 
L 330.962923 303.35251 
L 331.368372 304.536864 
L 331.465991 301.805748 
L 331.90398 307.584 
L 332.409584 307.584 
L 332.912653 303.369181 
L 333.378171 305.317493 
L 333.408205 307.584 
L 333.420732 299.66246 
L 333.911274 307.584 
L 334.386813 294.549591 
L 334.426869 307.584 
L 334.889882 301.631067 
L 335.395456 284.069443 
L 335.898555 304.693424 
L 336.406634 301.636141 
L 336.907197 300.164034 
L 337.415276 302.124668 
L 337.915839 297.652539 
L 338.351323 307.584 
L 338.418908 300.566309 
L 338.879446 307.584 
L 338.919471 302.249337 
L 339.397516 307.584 
L 339.412548 296.587056 
L 339.915617 307.584 
L 340.406158 307.584 
L 340.423696 299.233367 
L 340.89673 307.584 
L 340.926765 303.535165 
L 341.402304 301.604248 
L 341.905373 307.584 
L 341.967947 305.96838 
L 342.405936 301.502049 
L 342.46851 304.583252 
L 342.909035 307.584 
L 343.414609 304.525991 
L 343.917677 307.584 
L 344.135404 307.584 
L 344.423251 305.859657 
L 345.431894 307.584 
L 346.372951 304.258533 
L 346.402985 298.791228 
L 346.873545 299.120296 
L 346.976144 307.584 
L 347.411658 305.842986 
L 347.479213 307.584 
L 347.912221 301.887652 
L 348.420301 302.537089 
L 348.885819 300.276381 
L 348.923369 298.040316 
L 348.955909 307.584 
L 349.426438 300.416996 
L 349.927001 303.821468 
L 349.964552 287.017279 
L 350.420078 307.584 
L 350.465115 298.471584 
L 350.920641 307.584 
L 354.422139 307.584 
L 355.993918 306.029265 
L 356.939987 306.151034 
L 357.44556 307.584 
L 360.00099 307.584 
L 361.522722 303.746087 
L 361.772988 305.56828 
L 361.908158 303.446737 
L 362.916801 307.584 
L 367.887448 307.584 
L 368.393022 304.570205 
L 372.913183 307.584 
L 373.921825 307.584 
L 375.556179 294.150941 
L 375.941616 302.87558 
L 376.447189 307.584 
L 380.909787 307.584 
L 382.804429 301.415071 
L 383.307498 307.584 
L 394.940739 307.584 
L 398.487273 305.392874 
L 398.487273 305.392874 
" clip-path="url(#p6b3d40cf8d)" style="fill: none; stroke: #1f77b4; stroke-width: 1.5; stroke-linecap: square"/>
   </g>
   <g id="patch_3">
    <path d="M 57.6 307.584 
L 57.6 41.472 
" style="fill: none; stroke: #000000; stroke-width: 0.8; stroke-linejoin: miter; stroke-linecap: square"/>
   </g>
   <g id="patch_4">
    <path d="M 414.72 307.584 
L 414.72 41.472 
" style="fill: none; stroke: #000000; stroke-width: 0.8; stroke-linejoin: miter; stroke-linecap: square"/>
   </g>
   <g id="patch_5">
    <path d="M 57.6 307.584 
L 414.72 307.584 
" style="fill: none; stroke: #000000; stroke-width: 0.8; stroke-linejoin: miter; stroke-linecap: square"/>
   </g>
   <g id="patch_6">
    <path d="M 57.6 41.472 
L 414.72 41.472 
" style="fill: none; stroke: #000000; stroke-width: 0.8; stroke-linejoin: miter; stroke-linecap: square"/>
   </g>
   <g id="legend_1">
    <g id="patch_7">
     <path d="M 323.385625 64.150125 
L 407.72 64.150125 
Q 409.72 64.150125 409.72 62.150125 
L 409.72 48.472 
Q 409.72 46.472 407.72 46.472 
L 323.385625 46.472 
Q 321.385625 46.472 321.385625 48.472 
L 321.385625 62.150125 
Q 321.385625 64.150125 323.385625 64.150125 
z
" style="fill: #ffffff; opacity: 0.8; stroke: #cccccc; stroke-linejoin: miter"/>
    </g>
    <g id="line2d_18">
     <path d="M 325.385625 54.570438 
L 335.385625 54.570438 
L 345.385625 54.570438 
" style="fill: none; stroke: #1f77b4; stroke-width: 1.5; stroke-linecap: square"/>
    </g>
    <g id="text_19">
     <!-- (283, 389) -->
     <g transform="translate(353.385625 58.070438) scale(0.1 -0.1)">
      <defs>
       <path id="DejaVuSans-28" d="M 1984 4856 
Q 1566 4138 1362 3434 
Q 1159 2731 1159 2009 
Q 1159 1288 1364 580 
Q 1569 -128 1984 -844 
L 1484 -844 
Q 1016 -109 783 600 
Q 550 1309 550 2009 
Q 550 2706 781 3412 
Q 1013 4119 1484 4856 
L 1984 4856 
z
" transform="scale(0.015625)"/>
       <path id="DejaVuSans-2c" d="M 750 794 
L 1409 794 
L 1409 256 
L 897 -744 
L 494 -744 
L 750 256 
L 750 794 
z
" transform="scale(0.015625)"/>
       <path id="DejaVuSans-29" d="M 513 4856 
L 1013 4856 
Q 1481 4119 1714 3412 
Q 1947 2706 1947 2009 
Q 1947 1309 1714 600 
Q 1481 -109 1013 -844 
L 513 -844 
Q 928 -128 1133 580 
Q 1338 1288 1338 2009 
Q 1338 2731 1133 3434 
Q 928 4138 513 4856 
z
" transform="scale(0.015625)"/>
      </defs>
      <use xlink:href="#DejaVuSans-28"/>
      <use xlink:href="#DejaVuSans-32" x="39.013672"/>
      <use xlink:href="#DejaVuSans-38" x="102.636719"/>
      <use xlink:href="#DejaVuSans-33" x="166.259766"/>
      <use xlink:href="#DejaVuSans-2c" x="229.882812"/>
      <use xlink:href="#DejaVuSans-20" x="261.669922"/>
      <use xlink:href="#DejaVuSans-33" x="293.457031"/>
      <use xlink:href="#DejaVuSans-38" x="357.080078"/>
      <use xlink:href="#DejaVuSans-39" x="420.703125"/>
      <use xlink:href="#DejaVuSans-29" x="484.326172"/>
     </g>
    </g>
   </g>
  </g>
 </g>
 <defs>
  <clipPath id="p6b3d40cf8d">
   <rect x="57.6" y="41.472" width="357.12" height="266.112"/>
  </clipPath>
 </defs>
</svg>
