<?xml version="1.0" encoding="utf-8" standalone="no"?>
<!DOCTYPE svg PUBLIC "-//W3C//DTD SVG 1.1//EN"
  "http://www.w3.org/Graphics/SVG/1.1/DTD/svg11.dtd">
<svg xmlns:xlink="http://www.w3.org/1999/xlink" width="460.8pt" height="345.6pt" viewBox="0 0 460.8 345.6" xmlns="http://www.w3.org/2000/svg" version="1.1">
 <metadata>
  <rdf:RDF xmlns:dc="http://purl.org/dc/elements/1.1/" xmlns:cc="http://creativecommons.org/ns#" xmlns:rdf="http://www.w3.org/1999/02/22-rdf-syntax-ns#">
   <cc:Work>
    <dc:type rdf:resource="http://purl.org/dc/dcmitype/StillImage"/>
    <dc:date>2025-12-03T20:42:16.128889</dc:date>
    <dc:format>image/svg+xml</dc:format>
    <dc:creator>
     <cc:Agent>
      <dc:title>Matplotlib v3.8.4, https://matplotlib.org/</dc:title>
     </cc:Agent>
    </dc:creator>
   </cc:Work>
  </rdf:RDF>
 </metadata>
 <defs>
  <style type="text/css">*{stroke-linejoin: round; stroke-linecap: butt}</style>
 </defs>
 <g id="figure_1">
  <g id="patch_1">
   <path d="M 0 345.6 
L 460.8 345.6 
L 460.8 0 
L 0 0 
z
" style="fill: #ffffff"/>
  </g>
  <g id="axes_1">
   <g id="patch_2">
    <path d="M 57.6 307.584 
L 414.72 307.584 
L 414.72 41.472 
L 57.6 41.472 
z
" style="fill: #ffffff"/>
   </g>
   <g id="matplotlib.axis_1">
    <g id="xtick_1">
     <g id="line2d_1">
      <defs>
       <path id="mc9b7d2ee73" d="M 0 0 
L 0 3.5 
" style="stroke: #000000; stroke-width: 0.8"/>
      </defs>
      <g>
       <use xlink:href="#mc9b7d2ee73" x="73.818841" y="307.584" style="stroke: #000000; stroke-width: 0.8"/>
      </g>
     </g>
     <g id="text_1">
      <!-- 300 -->
      <g transform="translate(64.275091 322.182437) scale(0.1 -0.1)">
       <defs>
        <path id="DejaVuSans-33" d="M 2597 2516 
Q 3050 2419 3304 2112 
Q 3559 1806 3559 1356 
Q 3559 666 3084 287 
Q 2609 -91 1734 -91 
Q 1441 -91 1130 -33 
Q 819 25 488 141 
L 488 750 
Q 750 597 1062 519 
Q 1375 441 1716 441 
Q 2309 441 2620 675 
Q 2931 909 2931 1356 
Q 2931 1769 2642 2001 
Q 2353 2234 1838 2234 
L 1294 2234 
L 1294 2753 
L 1863 2753 
Q 2328 2753 2575 2939 
Q 2822 3125 2822 3475 
Q 2822 3834 2567 4026 
Q 2313 4219 1838 4219 
Q 1578 4219 1281 4162 
Q 984 4106 628 3988 
L 628 4550 
Q 988 4650 1302 4700 
Q 1616 4750 1894 4750 
Q 2613 4750 3031 4423 
Q 3450 4097 3450 3541 
Q 3450 3153 3228 2886 
Q 3006 2619 2597 2516 
z
" transform="scale(0.015625)"/>
        <path id="DejaVuSans-30" d="M 2034 4250 
Q 1547 4250 1301 3770 
Q 1056 3291 1056 2328 
Q 1056 1369 1301 889 
Q 1547 409 2034 409 
Q 2525 409 2770 889 
Q 3016 1369 3016 2328 
Q 3016 3291 2770 3770 
Q 2525 4250 2034 4250 
z
M 2034 4750 
Q 2819 4750 3233 4129 
Q 3647 3509 3647 2328 
Q 3647 1150 3233 529 
Q 2819 -91 2034 -91 
Q 1250 -91 836 529 
Q 422 1150 422 2328 
Q 422 3509 836 4129 
Q 1250 4750 2034 4750 
z
" transform="scale(0.015625)"/>
       </defs>
       <use xlink:href="#DejaVuSans-33"/>
       <use xlink:href="#DejaVuSans-30" x="63.623047"/>
       <use xlink:href="#DejaVuSans-30" x="127.246094"/>
      </g>
     </g>
    </g>
    <g id="xtick_2">
     <g id="line2d_2">
      <g>
       <use xlink:href="#mc9b7d2ee73" x="123.878205" y="307.584" style="stroke: #000000; stroke-width: 0.8"/>
      </g>
     </g>
     <g id="text_2">
      <!-- 400 -->
      <g transform="translate(114.334455 322.182437) scale(0.1 -0.1)">
       <defs>
        <path id="DejaVuSans-34" d="M 2419 4116 
L 825 1625 
L 2419 1625 
L 2419 4116 
z
M 2253 4666 
L 3047 4666 
L 3047 1625 
L 3713 1625 
L 3713 1100 
L 3047 1100 
L 3047 0 
L 2419 0 
L 2419 1100 
L 313 1100 
L 313 1709 
L 2253 4666 
z
" transform="scale(0.015625)"/>
       </defs>
       <use xlink:href="#DejaVuSans-34"/>
       <use xlink:href="#DejaVuSans-30" x="63.623047"/>
       <use xlink:href="#DejaVuSans-30" x="127.246094"/>
      </g>
     </g>
    </g>
    <g id="xtick_3">
     <g id="line2d_3">
      <g>
       <use xlink:href="#mc9b7d2ee73" x="173.937569" y="307.584" style="stroke: #000000; stroke-width: 0.8"/>
      </g>
     </g>
     <g id="text_3">
      <!-- 500 -->
      <g transform="translate(164.393819 322.182437) scale(0.1 -0.1)">
       <defs>
        <path id="DejaVuSans-35" d="M 691 4666 
L 3169 4666 
L 3169 4134 
L 1269 4134 
L 1269 2991 
Q 1406 3038 1543 3061 
Q 1681 3084 1819 3084 
Q 2600 3084 3056 2656 
Q 3513 2228 3513 1497 
Q 3513 744 3044 326 
Q 2575 -91 1722 -91 
Q 1428 -91 1123 -41 
Q 819 9 494 109 
L 494 744 
Q 775 591 1075 516 
Q 1375 441 1709 441 
Q 2250 441 2565 725 
Q 2881 1009 2881 1497 
Q 2881 1984 2565 2268 
Q 2250 2553 1709 2553 
Q 1456 2553 1204 2497 
Q 953 2441 691 2322 
L 691 4666 
z
" transform="scale(0.015625)"/>
       </defs>
       <use xlink:href="#DejaVuSans-35"/>
       <use xlink:href="#DejaVuSans-30" x="63.623047"/>
       <use xlink:href="#DejaVuSans-30" x="127.246094"/>
      </g>
     </g>
    </g>
    <g id="xtick_4">
     <g id="line2d_4">
      <g>
       <use xlink:href="#mc9b7d2ee73" x="223.996933" y="307.584" style="stroke: #000000; stroke-width: 0.8"/>
      </g>
     </g>
     <g id="text_4">
      <!-- 600 -->
      <g transform="translate(214.453183 322.182437) scale(0.1 -0.1)">
       <defs>
        <path id="DejaVuSans-36" d="M 2113 2584 
Q 1688 2584 1439 2293 
Q 1191 2003 1191 1497 
Q 1191 994 1439 701 
Q 1688 409 2113 409 
Q 2538 409 2786 701 
Q 3034 994 3034 1497 
Q 3034 2003 2786 2293 
Q 2538 2584 2113 2584 
z
M 3366 4563 
L 3366 3988 
Q 3128 4100 2886 4159 
Q 2644 4219 2406 4219 
Q 1781 4219 1451 3797 
Q 1122 3375 1075 2522 
Q 1259 2794 1537 2939 
Q 1816 3084 2150 3084 
Q 2853 3084 3261 2657 
Q 3669 2231 3669 1497 
Q 3669 778 3244 343 
Q 2819 -91 2113 -91 
Q 1303 -91 875 529 
Q 447 1150 447 2328 
Q 447 3434 972 4092 
Q 1497 4750 2381 4750 
Q 2619 4750 2861 4703 
Q 3103 4656 3366 4563 
z
" transform="scale(0.015625)"/>
       </defs>
       <use xlink:href="#DejaVuSans-36"/>
       <use xlink:href="#DejaVuSans-30" x="63.623047"/>
       <use xlink:href="#DejaVuSans-30" x="127.246094"/>
      </g>
     </g>
    </g>
    <g id="xtick_5">
     <g id="line2d_5">
      <g>
       <use xlink:href="#mc9b7d2ee73" x="274.056297" y="307.584" style="stroke: #000000; stroke-width: 0.8"/>
      </g>
     </g>
     <g id="text_5">
      <!-- 700 -->
      <g transform="translate(264.512547 322.182437) scale(0.1 -0.1)">
       <defs>
        <path id="DejaVuSans-37" d="M 525 4666 
L 3525 4666 
L 3525 4397 
L 1831 0 
L 1172 0 
L 2766 4134 
L 525 4134 
L 525 4666 
z
" transform="scale(0.015625)"/>
       </defs>
       <use xlink:href="#DejaVuSans-37"/>
       <use xlink:href="#DejaVuSans-30" x="63.623047"/>
       <use xlink:href="#DejaVuSans-30" x="127.246094"/>
      </g>
     </g>
    </g>
    <g id="xtick_6">
     <g id="line2d_6">
      <g>
       <use xlink:href="#mc9b7d2ee73" x="324.115661" y="307.584" style="stroke: #000000; stroke-width: 0.8"/>
      </g>
     </g>
     <g id="text_6">
      <!-- 800 -->
      <g transform="translate(314.571911 322.182437) scale(0.1 -0.1)">
       <defs>
        <path id="DejaVuSans-38" d="M 2034 2216 
Q 1584 2216 1326 1975 
Q 1069 1734 1069 1313 
Q 1069 891 1326 650 
Q 1584 409 2034 409 
Q 2484 409 2743 651 
Q 3003 894 3003 1313 
Q 3003 1734 2745 1975 
Q 2488 2216 2034 2216 
z
M 1403 2484 
Q 997 2584 770 2862 
Q 544 3141 544 3541 
Q 544 4100 942 4425 
Q 1341 4750 2034 4750 
Q 2731 4750 3128 4425 
Q 3525 4100 3525 3541 
Q 3525 3141 3298 2862 
Q 3072 2584 2669 2484 
Q 3125 2378 3379 2068 
Q 3634 1759 3634 1313 
Q 3634 634 3220 271 
Q 2806 -91 2034 -91 
Q 1263 -91 848 271 
Q 434 634 434 1313 
Q 434 1759 690 2068 
Q 947 2378 1403 2484 
z
M 1172 3481 
Q 1172 3119 1398 2916 
Q 1625 2713 2034 2713 
Q 2441 2713 2670 2916 
Q 2900 3119 2900 3481 
Q 2900 3844 2670 4047 
Q 2441 4250 2034 4250 
Q 1625 4250 1398 4047 
Q 1172 3844 1172 3481 
z
" transform="scale(0.015625)"/>
       </defs>
       <use xlink:href="#DejaVuSans-38"/>
       <use xlink:href="#DejaVuSans-30" x="63.623047"/>
       <use xlink:href="#DejaVuSans-30" x="127.246094"/>
      </g>
     </g>
    </g>
    <g id="xtick_7">
     <g id="line2d_7">
      <g>
       <use xlink:href="#mc9b7d2ee73" x="374.175025" y="307.584" style="stroke: #000000; stroke-width: 0.8"/>
      </g>
     </g>
     <g id="text_7">
      <!-- 900 -->
      <g transform="translate(364.631275 322.182437) scale(0.1 -0.1)">
       <defs>
        <path id="DejaVuSans-39" d="M 703 97 
L 703 672 
Q 941 559 1184 500 
Q 1428 441 1663 441 
Q 2288 441 2617 861 
Q 2947 1281 2994 2138 
Q 2813 1869 2534 1725 
Q 2256 1581 1919 1581 
Q 1219 1581 811 2004 
Q 403 2428 403 3163 
Q 403 3881 828 4315 
Q 1253 4750 1959 4750 
Q 2769 4750 3195 4129 
Q 3622 3509 3622 2328 
Q 3622 1225 3098 567 
Q 2575 -91 1691 -91 
Q 1453 -91 1209 -44 
Q 966 3 703 97 
z
M 1959 2075 
Q 2384 2075 2632 2365 
Q 2881 2656 2881 3163 
Q 2881 3666 2632 3958 
Q 2384 4250 1959 4250 
Q 1534 4250 1286 3958 
Q 1038 3666 1038 3163 
Q 1038 2656 1286 2365 
Q 1534 2075 1959 2075 
z
" transform="scale(0.015625)"/>
       </defs>
       <use xlink:href="#DejaVuSans-39"/>
       <use xlink:href="#DejaVuSans-30" x="63.623047"/>
       <use xlink:href="#DejaVuSans-30" x="127.246094"/>
      </g>
     </g>
    </g>
    <g id="text_8">
     <!-- m/z -->
     <g transform="translate(226.981094 335.860562) scale(0.1 -0.1)">
      <defs>
       <path id="DejaVuSans-6d" d="M 3328 2828 
Q 3544 3216 3844 3400 
Q 4144 3584 4550 3584 
Q 5097 3584 5394 3201 
Q 5691 2819 5691 2113 
L 5691 0 
L 5113 0 
L 5113 2094 
Q 5113 2597 4934 2840 
Q 4756 3084 4391 3084 
Q 3944 3084 3684 2787 
Q 3425 2491 3425 1978 
L 3425 0 
L 2847 0 
L 2847 2094 
Q 2847 2600 2669 2842 
Q 2491 3084 2119 3084 
Q 1678 3084 1418 2786 
Q 1159 2488 1159 1978 
L 1159 0 
L 581 0 
L 581 3500 
L 1159 3500 
L 1159 2956 
Q 1356 3278 1631 3431 
Q 1906 3584 2284 3584 
Q 2666 3584 2933 3390 
Q 3200 3197 3328 2828 
z
" transform="scale(0.015625)"/>
       <path id="DejaVuSans-2f" d="M 1625 4666 
L 2156 4666 
L 531 -594 
L 0 -594 
L 1625 4666 
z
" transform="scale(0.015625)"/>
       <path id="DejaVuSans-7a" d="M 353 3500 
L 3084 3500 
L 3084 2975 
L 922 459 
L 3084 459 
L 3084 0 
L 275 0 
L 275 525 
L 2438 3041 
L 353 3041 
L 353 3500 
z
" transform="scale(0.015625)"/>
      </defs>
      <use xlink:href="#DejaVuSans-6d"/>
      <use xlink:href="#DejaVuSans-2f" x="97.412109"/>
      <use xlink:href="#DejaVuSans-7a" x="131.103516"/>
     </g>
    </g>
   </g>
   <g id="matplotlib.axis_2">
    <g id="ytick_1">
     <g id="line2d_8">
      <defs>
       <path id="m0ce867ec90" d="M 0 0 
L -3.5 0 
" style="stroke: #000000; stroke-width: 0.8"/>
      </defs>
      <g>
       <use xlink:href="#m0ce867ec90" x="57.6" y="307.584" style="stroke: #000000; stroke-width: 0.8"/>
      </g>
     </g>
     <g id="text_9">
      <!-- 0 -->
      <g transform="translate(44.2375 311.383219) scale(0.1 -0.1)">
       <use xlink:href="#DejaVuSans-30"/>
      </g>
     </g>
    </g>
    <g id="ytick_2">
     <g id="line2d_9">
      <g>
       <use xlink:href="#m0ce867ec90" x="57.6" y="274.38717" style="stroke: #000000; stroke-width: 0.8"/>
      </g>
     </g>
     <g id="text_10">
      <!-- 100 -->
      <g transform="translate(31.5125 278.186389) scale(0.1 -0.1)">
       <defs>
        <path id="DejaVuSans-31" d="M 794 531 
L 1825 531 
L 1825 4091 
L 703 3866 
L 703 4441 
L 1819 4666 
L 2450 4666 
L 2450 531 
L 3481 531 
L 3481 0 
L 794 0 
L 794 531 
z
" transform="scale(0.015625)"/>
       </defs>
       <use xlink:href="#DejaVuSans-31"/>
       <use xlink:href="#DejaVuSans-30" x="63.623047"/>
       <use xlink:href="#DejaVuSans-30" x="127.246094"/>
      </g>
     </g>
    </g>
    <g id="ytick_3">
     <g id="line2d_10">
      <g>
       <use xlink:href="#m0ce867ec90" x="57.6" y="241.19034" style="stroke: #000000; stroke-width: 0.8"/>
      </g>
     </g>
     <g id="text_11">
      <!-- 200 -->
      <g transform="translate(31.5125 244.989559) scale(0.1 -0.1)">
       <defs>
        <path id="DejaVuSans-32" d="M 1228 531 
L 3431 531 
L 3431 0 
L 469 0 
L 469 531 
Q 828 903 1448 1529 
Q 2069 2156 2228 2338 
Q 2531 2678 2651 2914 
Q 2772 3150 2772 3378 
Q 2772 3750 2511 3984 
Q 2250 4219 1831 4219 
Q 1534 4219 1204 4116 
Q 875 4013 500 3803 
L 500 4441 
Q 881 4594 1212 4672 
Q 1544 4750 1819 4750 
Q 2544 4750 2975 4387 
Q 3406 4025 3406 3419 
Q 3406 3131 3298 2873 
Q 3191 2616 2906 2266 
Q 2828 2175 2409 1742 
Q 1991 1309 1228 531 
z
" transform="scale(0.015625)"/>
       </defs>
       <use xlink:href="#DejaVuSans-32"/>
       <use xlink:href="#DejaVuSans-30" x="63.623047"/>
       <use xlink:href="#DejaVuSans-30" x="127.246094"/>
      </g>
     </g>
    </g>
    <g id="ytick_4">
     <g id="line2d_11">
      <g>
       <use xlink:href="#m0ce867ec90" x="57.6" y="207.993511" style="stroke: #000000; stroke-width: 0.8"/>
      </g>
     </g>
     <g id="text_12">
      <!-- 300 -->
      <g transform="translate(31.5125 211.792729) scale(0.1 -0.1)">
       <use xlink:href="#DejaVuSans-33"/>
       <use xlink:href="#DejaVuSans-30" x="63.623047"/>
       <use xlink:href="#DejaVuSans-30" x="127.246094"/>
      </g>
     </g>
    </g>
    <g id="ytick_5">
     <g id="line2d_12">
      <g>
       <use xlink:href="#m0ce867ec90" x="57.6" y="174.796681" style="stroke: #000000; stroke-width: 0.8"/>
      </g>
     </g>
     <g id="text_13">
      <!-- 400 -->
      <g transform="translate(31.5125 178.5959) scale(0.1 -0.1)">
       <use xlink:href="#DejaVuSans-34"/>
       <use xlink:href="#DejaVuSans-30" x="63.623047"/>
       <use xlink:href="#DejaVuSans-30" x="127.246094"/>
      </g>
     </g>
    </g>
    <g id="ytick_6">
     <g id="line2d_13">
      <g>
       <use xlink:href="#m0ce867ec90" x="57.6" y="141.599851" style="stroke: #000000; stroke-width: 0.8"/>
      </g>
     </g>
     <g id="text_14">
      <!-- 500 -->
      <g transform="translate(31.5125 145.39907) scale(0.1 -0.1)">
       <use xlink:href="#DejaVuSans-35"/>
       <use xlink:href="#DejaVuSans-30" x="63.623047"/>
       <use xlink:href="#DejaVuSans-30" x="127.246094"/>
      </g>
     </g>
    </g>
    <g id="ytick_7">
     <g id="line2d_14">
      <g>
       <use xlink:href="#m0ce867ec90" x="57.6" y="108.403021" style="stroke: #000000; stroke-width: 0.8"/>
      </g>
     </g>
     <g id="text_15">
      <!-- 600 -->
      <g transform="translate(31.5125 112.20224) scale(0.1 -0.1)">
       <use xlink:href="#DejaVuSans-36"/>
       <use xlink:href="#DejaVuSans-30" x="63.623047"/>
       <use xlink:href="#DejaVuSans-30" x="127.246094"/>
      </g>
     </g>
    </g>
    <g id="ytick_8">
     <g id="line2d_15">
      <g>
       <use xlink:href="#m0ce867ec90" x="57.6" y="75.206191" style="stroke: #000000; stroke-width: 0.8"/>
      </g>
     </g>
     <g id="text_16">
      <!-- 700 -->
      <g transform="translate(31.5125 79.00541) scale(0.1 -0.1)">
       <use xlink:href="#DejaVuSans-37"/>
       <use xlink:href="#DejaVuSans-30" x="63.623047"/>
       <use xlink:href="#DejaVuSans-30" x="127.246094"/>
      </g>
     </g>
    </g>
    <g id="ytick_9">
     <g id="line2d_16">
      <g>
       <use xlink:href="#m0ce867ec90" x="57.6" y="42.009362" style="stroke: #000000; stroke-width: 0.8"/>
      </g>
     </g>
     <g id="text_17">
      <!-- 800 -->
      <g transform="translate(31.5125 45.80858) scale(0.1 -0.1)">
       <use xlink:href="#DejaVuSans-38"/>
       <use xlink:href="#DejaVuSans-30" x="63.623047"/>
       <use xlink:href="#DejaVuSans-30" x="127.246094"/>
      </g>
     </g>
    </g>
    <g id="text_18">
     <!-- Intensities [a.u.] -->
     <g transform="translate(25.432812 215.303) rotate(-90) scale(0.1 -0.1)">
      <defs>
       <path id="DejaVuSans-49" d="M 628 4666 
L 1259 4666 
L 1259 0 
L 628 0 
L 628 4666 
z
" transform="scale(0.015625)"/>
       <path id="DejaVuSans-6e" d="M 3513 2113 
L 3513 0 
L 2938 0 
L 2938 2094 
Q 2938 2591 2744 2837 
Q 2550 3084 2163 3084 
Q 1697 3084 1428 2787 
Q 1159 2491 1159 1978 
L 1159 0 
L 581 0 
L 581 3500 
L 1159 3500 
L 1159 2956 
Q 1366 3272 1645 3428 
Q 1925 3584 2291 3584 
Q 2894 3584 3203 3211 
Q 3513 2838 3513 2113 
z
" transform="scale(0.015625)"/>
       <path id="DejaVuSans-74" d="M 1172 4494 
L 1172 3500 
L 2356 3500 
L 2356 3053 
L 1172 3053 
L 1172 1153 
Q 1172 725 1289 603 
Q 1406 481 1766 481 
L 2356 481 
L 2356 0 
L 1766 0 
Q 1100 0 847 248 
Q 594 497 594 1153 
L 594 3053 
L 172 3053 
L 172 3500 
L 594 3500 
L 594 4494 
L 1172 4494 
z
" transform="scale(0.015625)"/>
       <path id="DejaVuSans-65" d="M 3597 1894 
L 3597 1613 
L 953 1613 
Q 991 1019 1311 708 
Q 1631 397 2203 397 
Q 2534 397 2845 478 
Q 3156 559 3463 722 
L 3463 178 
Q 3153 47 2828 -22 
Q 2503 -91 2169 -91 
Q 1331 -91 842 396 
Q 353 884 353 1716 
Q 353 2575 817 3079 
Q 1281 3584 2069 3584 
Q 2775 3584 3186 3129 
Q 3597 2675 3597 1894 
z
M 3022 2063 
Q 3016 2534 2758 2815 
Q 2500 3097 2075 3097 
Q 1594 3097 1305 2825 
Q 1016 2553 972 2059 
L 3022 2063 
z
" transform="scale(0.015625)"/>
       <path id="DejaVuSans-73" d="M 2834 3397 
L 2834 2853 
Q 2591 2978 2328 3040 
Q 2066 3103 1784 3103 
Q 1356 3103 1142 2972 
Q 928 2841 928 2578 
Q 928 2378 1081 2264 
Q 1234 2150 1697 2047 
L 1894 2003 
Q 2506 1872 2764 1633 
Q 3022 1394 3022 966 
Q 3022 478 2636 193 
Q 2250 -91 1575 -91 
Q 1294 -91 989 -36 
Q 684 19 347 128 
L 347 722 
Q 666 556 975 473 
Q 1284 391 1588 391 
Q 1994 391 2212 530 
Q 2431 669 2431 922 
Q 2431 1156 2273 1281 
Q 2116 1406 1581 1522 
L 1381 1569 
Q 847 1681 609 1914 
Q 372 2147 372 2553 
Q 372 3047 722 3315 
Q 1072 3584 1716 3584 
Q 2034 3584 2315 3537 
Q 2597 3491 2834 3397 
z
" transform="scale(0.015625)"/>
       <path id="DejaVuSans-69" d="M 603 3500 
L 1178 3500 
L 1178 0 
L 603 0 
L 603 3500 
z
M 603 4863 
L 1178 4863 
L 1178 4134 
L 603 4134 
L 603 4863 
z
" transform="scale(0.015625)"/>
       <path id="DejaVuSans-20" transform="scale(0.015625)"/>
       <path id="DejaVuSans-5b" d="M 550 4863 
L 1875 4863 
L 1875 4416 
L 1125 4416 
L 1125 -397 
L 1875 -397 
L 1875 -844 
L 550 -844 
L 550 4863 
z
" transform="scale(0.015625)"/>
       <path id="DejaVuSans-61" d="M 2194 1759 
Q 1497 1759 1228 1600 
Q 959 1441 959 1056 
Q 959 750 1161 570 
Q 1363 391 1709 391 
Q 2188 391 2477 730 
Q 2766 1069 2766 1631 
L 2766 1759 
L 2194 1759 
z
M 3341 1997 
L 3341 0 
L 2766 0 
L 2766 531 
Q 2569 213 2275 61 
Q 1981 -91 1556 -91 
Q 1019 -91 701 211 
Q 384 513 384 1019 
Q 384 1609 779 1909 
Q 1175 2209 1959 2209 
L 2766 2209 
L 2766 2266 
Q 2766 2663 2505 2880 
Q 2244 3097 1772 3097 
Q 1472 3097 1187 3025 
Q 903 2953 641 2809 
L 641 3341 
Q 956 3463 1253 3523 
Q 1550 3584 1831 3584 
Q 2591 3584 2966 3190 
Q 3341 2797 3341 1997 
z
" transform="scale(0.015625)"/>
       <path id="DejaVuSans-2e" d="M 684 794 
L 1344 794 
L 1344 0 
L 684 0 
L 684 794 
z
" transform="scale(0.015625)"/>
       <path id="DejaVuSans-75" d="M 544 1381 
L 544 3500 
L 1119 3500 
L 1119 1403 
Q 1119 906 1312 657 
Q 1506 409 1894 409 
Q 2359 409 2629 706 
Q 2900 1003 2900 1516 
L 2900 3500 
L 3475 3500 
L 3475 0 
L 2900 0 
L 2900 538 
Q 2691 219 2414 64 
Q 2138 -91 1772 -91 
Q 1169 -91 856 284 
Q 544 659 544 1381 
z
M 1991 3584 
L 1991 3584 
z
" transform="scale(0.015625)"/>
       <path id="DejaVuSans-5d" d="M 1947 4863 
L 1947 -844 
L 622 -844 
L 622 -397 
L 1369 -397 
L 1369 4416 
L 622 4416 
L 622 4863 
L 1947 4863 
z
" transform="scale(0.015625)"/>
      </defs>
      <use xlink:href="#DejaVuSans-49"/>
      <use xlink:href="#DejaVuSans-6e" x="29.492188"/>
      <use xlink:href="#DejaVuSans-74" x="92.871094"/>
      <use xlink:href="#DejaVuSans-65" x="132.080078"/>
      <use xlink:href="#DejaVuSans-6e" x="193.603516"/>
      <use xlink:href="#DejaVuSans-73" x="256.982422"/>
      <use xlink:href="#DejaVuSans-69" x="309.082031"/>
      <use xlink:href="#DejaVuSans-74" x="336.865234"/>
      <use xlink:href="#DejaVuSans-69" x="376.074219"/>
      <use xlink:href="#DejaVuSans-65" x="403.857422"/>
      <use xlink:href="#DejaVuSans-73" x="465.380859"/>
      <use xlink:href="#DejaVuSans-20" x="517.480469"/>
      <use xlink:href="#DejaVuSans-5b" x="549.267578"/>
      <use xlink:href="#DejaVuSans-61" x="588.28125"/>
      <use xlink:href="#DejaVuSans-2e" x="649.560547"/>
      <use xlink:href="#DejaVuSans-75" x="681.347656"/>
      <use xlink:href="#DejaVuSans-2e" x="744.726562"/>
      <use xlink:href="#DejaVuSans-5d" x="776.513672"/>
     </g>
    </g>
   </g>
   <g id="line2d_17">
    <path d="M 73.832727 307.584 
L 73.895301 300.687574 
L 74.370841 302.871683 
L 74.388364 307.584 
L 74.410882 303.680077 
L 74.871404 304.737103 
L 74.906449 307.584 
L 76.393137 307.584 
L 76.878698 303.155342 
L 76.918739 304.23778 
L 77.351732 307.584 
L 77.389283 303.772112 
L 77.88734 307.584 
L 77.902357 302.521401 
L 78.360374 299.7164 
L 78.397925 295.442278 
L 78.911015 307.584 
L 78.978585 303.228145 
L 79.386555 305.032439 
L 79.409073 307.584 
L 79.459135 300.61477 
L 79.919658 307.584 
L 80.41773 307.584 
L 80.462767 300.618891 
L 80.848218 307.584 
L 80.880743 302.213703 
L 80.9283 307.584 
L 81.839338 307.584 
L 81.876889 303.186249 
L 82.3324 307.584 
L 82.402475 303.971292 
L 82.852991 307.584 
L 82.883026 274.056557 
L 82.895538 307.584 
L 83.396116 303.923901 
L 83.411133 304.103849 
L 83.911696 307.584 
L 84.387236 302.695168 
L 84.404758 307.584 
L 84.887814 300.146355 
L 84.942872 304.717872 
L 84.9629 301.509705 
L 85.465969 307.584 
L 85.878934 298.86817 
L 85.971543 307.584 
L 86.887592 307.584 
L 86.902609 304.665674 
L 86.9802 307.584 
L 87.393166 302.098315 
L 87.433206 307.584 
L 87.891223 300.063935 
L 87.908746 307.584 
L 87.931279 299.432741 
L 88.396812 303.784475 
L 88.421836 307.584 
L 88.887369 307.584 
L 88.919894 304.115526 
L 89.365414 307.584 
L 89.397939 302.590084 
L 89.901022 307.584 
L 90.411592 307.584 
L 90.909665 303.899862 
L 90.927187 304.327755 
L 90.969734 307.584 
L 91.402727 299.06735 
L 91.420249 307.584 
L 91.472802 302.513846 
L 91.945851 307.584 
L 91.978376 304.076376 
L 92.431397 307.584 
L 92.48146 300.504878 
L 92.894425 302.379228 
L 92.909442 299.664202 
L 92.936971 307.584 
L 92.987034 303.828432 
L 93.47258 307.584 
L 93.487597 295.557666 
L 93.85302 307.584 
L 93.900577 299.356504 
L 93.940618 307.584 
L 94.894203 307.584 
L 94.94926 300.342786 
L 95.352219 307.584 
L 95.367237 296.884614 
L 95.439817 307.584 
L 95.907856 307.584 
L 95.915357 304.123767 
L 95.942901 307.584 
L 96.400918 301.721247 
L 96.41844 307.584 
L 96.435963 303.842168 
L 96.886464 300.47397 
L 96.903986 298.916934 
L 96.951543 307.584 
L 97.40956 307.584 
L 97.479651 304.256325 
L 97.895121 307.584 
L 97.912644 303.013855 
L 97.985225 303.889559 
L 98.435741 307.584 
L 98.490799 304.375146 
L 98.903764 301.348987 
L 98.956332 307.584 
L 98.996372 304.75084 
L 99.409338 302.406014 
L 99.499441 307.584 
L 99.909916 307.584 
L 100.002509 303.723347 
L 100.420486 307.584 
L 100.438008 303.794777 
L 100.488071 307.584 
L 100.916053 298.023373 
L 100.956109 307.584 
L 100.993645 301.450638 
L 101.421627 307.584 
L 101.446666 301.77482 
L 101.859631 302.888166 
L 101.907188 301.360664 
L 101.947229 307.584 
L 102.385233 303.392984 
L 102.420263 303.737084 
L 102.440291 307.584 
L 102.893312 307.584 
L 102.91082 301.899135 
L 102.960882 302.8916 
L 103.361336 307.584 
L 103.396381 299.557057 
L 103.433916 307.584 
L 103.86442 304.941778 
L 103.949512 307.584 
L 104.445079 307.584 
L 104.492621 302.597638 
L 104.910597 301.061207 
L 104.96066 307.584 
L 105.0007 303.618263 
L 105.416186 298.076258 
L 105.506274 307.584 
L 105.919255 307.584 
L 105.934272 303.240508 
L 106.011864 307.584 
L 106.372261 307.584 
L 106.424829 303.528976 
L 106.444857 303.653291 
L 106.514932 307.584 
L 106.925392 300.594166 
L 106.965448 307.584 
L 107.020506 301.759711 
L 107.486039 307.584 
L 107.523574 276.43916 
L 108.011641 307.584 
L 108.029148 293.532214 
L 108.512204 307.584 
L 108.534722 182.797899 
L 108.912658 307.584 
L 108.965226 304.167724 
L 109.035301 276.432978 
L 109.458288 304.467867 
L 109.540875 302.704097 
L 109.938823 307.584 
L 109.956345 302.54544 
L 109.973868 307.584 
L 110.414362 303.024158 
L 110.43439 303.360703 
L 110.46693 307.584 
L 110.932463 307.584 
L 110.939964 304.103849 
L 110.967493 307.584 
L 111.42302 301.078378 
L 111.443033 301.185523 
L 111.941106 307.584 
L 111.958628 304.43284 
L 112.431662 302.137465 
L 112.521766 307.584 
L 112.932241 304.090113 
L 112.967271 301.206815 
L 113.007327 307.584 
L 113.44032 303.452051 
L 113.512901 307.584 
L 113.925866 298.908693 
L 113.940883 307.584 
L 114.018474 299.079713 
L 114.43144 307.584 
L 114.521543 296.054241 
L 114.949525 307.584 
L 115.027117 303.105204 
L 115.435087 307.584 
L 115.532691 299.886734 
L 115.938155 307.584 
L 116.035775 300.133305 
L 116.421211 304.480231 
L 116.541349 283.239429 
L 116.974342 307.584 
L 117.932922 307.584 
L 117.945449 301.41355 
L 117.982984 307.584 
L 118.438496 300.870957 
L 118.461029 303.728155 
L 118.906534 307.584 
L 118.956597 300.815323 
L 118.976609 307.584 
L 119.447153 299.515847 
L 119.469672 301.768638 
L 119.932699 307.584 
L 119.947717 303.129242 
L 119.985267 305.046862 
L 120.475824 307.584 
L 120.941357 307.584 
L 120.956374 302.9177 
L 120.99391 307.584 
L 121.446931 307.584 
L 121.466944 305.026944 
L 121.534529 307.584 
L 121.947494 307.584 
L 121.98755 304.431466 
L 122.025085 307.584 
L 122.438051 304.959635 
L 122.490619 307.584 
L 122.530659 302.683492 
L 122.928607 300.791284 
L 122.996192 299.847584 
L 123.033728 307.584 
L 123.436687 307.584 
L 123.471732 302.169745 
L 123.539302 302.872369 
L 123.964794 307.584 
L 123.987312 302.684179 
L 124.042385 307.584 
L 124.445344 307.584 
L 124.467863 303.8353 
L 124.48288 307.584 
L 124.93089 300.498697 
L 124.99597 307.584 
L 125.453987 304.466494 
L 125.47901 300.84211 
L 125.491537 303.852471 
L 125.954565 307.584 
L 125.974578 303.544772 
L 125.989595 307.584 
L 126.462629 307.584 
L 126.485163 304.228852 
L 126.535225 307.584 
L 127.453764 307.584 
L 127.473792 300.732904 
L 127.491315 307.584 
L 127.956833 307.584 
L 127.994383 299.728077 
L 128.462407 307.584 
L 128.499957 304.325694 
L 128.947968 303.145726 
L 128.965491 307.584 
L 129.003026 301.327009 
L 129.47606 307.584 
L 129.941593 304.827078 
L 129.994161 307.584 
L 130.449672 307.584 
L 130.487223 304.665674 
L 130.53727 307.584 
L 130.967758 307.584 
L 130.987786 303.452051 
L 131.040354 307.584 
L 131.545928 307.584 
L 131.928859 304.627898 
L 131.961399 304.92186 
L 131.998934 307.584 
L 132.048996 301.102417 
L 132.491996 307.584 
L 132.970041 307.584 
L 132.990069 303.87857 
L 133.007592 307.584 
L 133.480626 307.584 
L 133.500654 297.315255 
L 133.515671 307.584 
L 133.931142 303.366884 
L 133.981189 307.584 
L 133.998711 303.156029 
L 134.491774 307.584 
L 134.524313 303.832553 
L 134.939784 307.584 
L 134.972324 304.405366 
L 135.009859 307.584 
L 135.477898 304.327755 
L 135.497926 304.991229 
L 135.570506 303.441748 
L 135.948442 303.866207 
L 135.963459 301.454759 
L 135.980966 304.599051 
L 136.021022 304.327755 
L 136.456506 304.671168 
L 136.489046 307.584 
L 136.524091 301.107225 
L 136.95959 299.015838 
L 137.009637 307.584 
L 137.452652 303.638868 
L 137.500194 307.584 
L 137.95572 307.584 
L 137.968232 302.290627 
L 138.0208 307.584 
L 138.97938 307.584 
L 138.996902 300.959557 
L 139.0845 304.890953 
L 139.552539 307.584 
L 139.970515 307.584 
L 139.990543 301.378521 
L 140.00805 304.889579 
L 140.561181 307.584 
L 141.016708 307.584 
L 141.507265 303.937637 
L 141.970292 304.543418 
L 142.02535 307.584 
L 142.475866 303.637494 
L 142.513402 307.584 
L 143.436952 307.584 
L 143.469492 303.262487 
L 143.507042 307.584 
L 144.010111 302.358623 
L 144.025128 307.584 
L 144.971211 307.584 
L 145.003736 303.862086 
L 145.476785 304.855925 
L 145.514321 307.584 
L 145.979854 304.411548 
L 145.994871 302.484999 
L 146.014899 307.584 
L 146.520473 307.584 
L 146.537996 304.228852 
L 146.986006 301.117527 
L 147.023541 307.584 
L 147.49407 304.741911 
L 147.514098 300.577681 
L 147.549143 307.584 
L 147.962109 307.584 
L 148.014676 303.501502 
L 148.032184 307.584 
L 148.4827 303.555762 
L 148.502728 298.392199 
L 148.522756 304.241215 
L 149.043347 307.584 
L 149.528893 307.584 
L 149.548921 304.055085 
L 149.979409 301.990484 
L 149.994426 296.789146 
L 150.016944 301.566025 
L 150.497494 307.584 
L 150.522518 303.255618 
L 151.025602 307.584 
L 151.476118 302.993251 
L 151.548698 307.584 
L 151.969165 307.584 
L 151.981692 301.083873 
L 152.03675 307.584 
L 152.457231 304.384075 
L 152.492261 307.584 
L 152.514795 303.947253 
L 152.527306 304.144372 
L 152.975317 303.085285 
L 153.030375 307.584 
L 153.465874 307.584 
L 153.535949 297.656608 
L 154.039033 307.584 
L 154.527084 307.584 
L 154.9776 297.861968 
L 155.030152 307.584 
L 155.498191 301.929356 
L 155.538232 307.584 
L 156.001259 301.266568 
L 156.0413 307.584 
L 156.494322 307.584 
L 156.531872 304.499461 
L 156.977377 307.584 
L 157.014913 304.018683 
L 157.049958 307.584 
L 157.47293 307.584 
L 157.490452 303.80508 
L 157.51048 304.880651 
L 157.976013 307.584 
L 158.061106 300.511059 
L 158.481587 307.584 
L 158.516617 298.841383 
L 158.581697 304.95208 
L 158.984656 301.263134 
L 159.037224 300.244571 
L 159.054731 307.584 
L 159.472707 302.167685 
L 159.52778 307.584 
L 159.975791 304.656745 
L 160.010821 307.584 
L 160.113436 295.630469 
L 160.5189 307.584 
L 160.553945 295.471125 
L 160.616519 300.848978 
L 161.019478 307.584 
L 161.06453 294.703939 
L 161.532553 307.584 
L 161.567599 292.653075 
L 161.993076 307.584 
L 162.010598 304.922547 
L 162.033132 298.821466 
L 162.103207 307.584 
L 163.01675 307.584 
L 163.039269 303.276223 
L 163.086826 307.584 
L 163.474767 303.383368 
L 163.489785 307.584 
L 163.519819 301.319454 
L 163.539847 304.989169 
L 163.992853 307.584 
L 164.022887 303.899862 
L 164.047926 307.584 
L 164.503438 307.584 
L 164.556006 297.247946 
L 164.991489 307.584 
L 165.031545 301.74666 
L 165.086603 307.584 
L 165.497063 303.618263 
L 165.534614 304.842875 
L 165.549631 301.410115 
L 166.035177 307.584 
L 166.052699 303.07567 
L 166.505721 307.584 
L 166.560779 302.614123 
L 167.061357 307.584 
L 167.511858 304.316079 
L 167.536897 298.960205 
L 167.551914 307.584 
L 167.566931 304.833946 
L 168.014942 307.584 
L 168.03746 303.93695 
L 168.052477 304.768698 
L 168.523021 304.641635 
L 168.548044 304.73779 
L 168.991044 301.011756 
L 169.09867 307.584 
L 169.534169 307.584 
L 169.554181 302.713713 
L 169.984685 303.563317 
L 170.057265 303.16015 
L 170.109818 307.584 
L 170.490259 301.948587 
L 170.542811 307.584 
L 170.557828 304.239154 
L 170.995832 307.584 
L 171.048385 302.006281 
L 171.080925 307.584 
L 171.503912 307.584 
L 171.566486 301.649818 
L 172.042025 307.584 
L 172.104584 290.523914 
L 172.512554 307.584 
L 172.572623 302.495301 
L 172.605163 307.584 
L 173.000605 301.566025 
L 173.070696 307.584 
L 174.044293 307.584 
L 174.05931 302.790637 
L 174.076833 302.813989 
L 174.552372 307.584 
L 174.564899 300.353089 
L 174.60494 303.903296 
L 175.070473 307.584 
L 175.538497 307.584 
L 175.563536 302.838028 
L 175.578553 307.584 
L 175.991518 307.584 
L 176.079116 301.657373 
L 176.111656 302.300242 
L 176.549644 307.584 
L 176.567167 300.192371 
L 177.002666 303.654664 
L 177.015178 302.0887 
L 177.070251 307.584 
L 177.120298 307.584 
L 177.50824 303.499442 
L 177.573319 307.584 
L 178.011308 307.584 
L 178.046353 304.275556 
L 178.081399 307.584 
L 178.50188 307.584 
L 178.56945 300.354463 
L 179.039994 307.584 
L 179.057501 301.601053 
L 179.120076 307.584 
L 179.563075 307.584 
L 179.623144 301.808475 
L 180.048636 307.584 
L 180.066144 303.689693 
L 180.559221 307.584 
L 180.571718 296.291883 
L 180.611774 304.419103 
L 181.024739 303.318806 
L 181.114842 307.584 
L 181.54284 307.584 
L 181.565358 301.551602 
L 181.620416 307.584 
L 182.030907 302.8916 
L 182.123485 307.584 
L 182.538955 307.584 
L 182.629058 299.015838 
L 183.039549 307.584 
L 183.062067 304.961009 
L 183.107103 307.584 
L 183.565136 307.584 
L 183.610202 303.410841 
L 184.088247 307.584 
L 184.548754 307.584 
L 184.646374 296.391472 
L 185.09689 307.584 
L 185.149442 298.443711 
L 185.58242 307.584 
L 186.055485 307.584 
L 186.135567 293.22383 
L 186.638635 304.241215 
L 187.044084 304.215116 
L 187.066633 307.584 
L 187.554669 307.584 
L 187.572207 304.007694 
L 188.04023 307.584 
L 188.075275 307.584 
L 188.092783 300.815323 
L 188.545804 307.584 
L 188.598357 304.941778 
L 188.6184 307.584 
L 189.02886 302.30505 
L 189.121468 307.584 
L 189.534434 307.584 
L 189.556952 302.338705 
L 189.627042 307.584 
L 190.057515 307.584 
L 190.077558 304.375146 
L 190.130111 307.584 
L 190.598134 307.584 
L 190.635685 302.21439 
L 191.031143 307.584 
L 191.141259 301.613416 
L 191.576773 307.584 
L 191.606776 301.135385 
L 191.644327 304.35042 
L 192.029763 307.584 
L 192.079841 303.228145 
L 192.567877 307.584 
L 192.652969 299.439609 
L 193.073451 301.429347 
L 193.088484 304.075689 
L 193.158543 289.980632 
L 193.594057 307.584 
L 193.661642 301.036482 
L 194.047079 307.584 
L 194.099631 302.37236 
L 194.572665 307.584 
L 195.073229 307.584 
L 195.090766 302.803 
L 195.543788 304.585315 
L 195.59634 307.584 
L 196.041845 307.584 
L 196.064364 298.098924 
L 196.084376 302.54544 
L 196.534892 307.584 
L 196.549925 304.193824 
L 196.592456 304.836694 
L 197.093049 307.584 
L 197.108051 300.84417 
L 197.140591 307.584 
L 197.581085 304.208934 
L 197.636143 307.584 
L 198.101692 307.584 
L 198.139242 299.232875 
L 198.542186 304.208934 
L 198.589728 301.179342 
L 198.709865 307.584 
L 199.0803 304.20756 
L 199.210459 300.805021 
L 199.570872 307.584 
L 199.630941 297.978729 
L 199.650953 304.604546 
L 200.071435 307.584 
L 200.088942 307.584 
L 200.134009 298.790559 
L 200.609549 307.584 
L 201.06257 307.584 
L 201.080077 304.13407 
L 201.115122 307.584 
L 201.550606 307.584 
L 201.568144 300.666968 
L 202.051169 302.277578 
L 202.091225 307.584 
L 202.106258 302.17524 
L 202.541741 304.428032 
L 202.579292 302.570852 
L 203.044809 307.584 
L 203.084866 304.591496 
L 203.550383 302.484312 
L 203.590439 303.345593 
L 204.053452 304.401245 
L 204.068484 307.584 
L 204.091003 301.470557 
L 204.614084 307.584 
L 205.047092 303.936264 
L 205.082138 303.943819 
L 205.137196 296.37911 
L 205.607724 307.584 
L 205.637759 299.9719 
L 205.725356 307.584 
L 207.106939 307.584 
L 207.119435 304.170471 
L 207.672581 307.584 
L 208.060523 307.584 
L 208.566097 303.509744 
L 208.681224 307.584 
L 209.064155 302.930063 
L 209.104211 307.584 
L 209.557232 304.643008 
L 210.060301 299.287134 
L 210.117864 307.584 
L 210.565875 301.620284 
L 210.620932 307.584 
L 211.066438 307.584 
L 211.106494 294.664791 
L 211.126506 303.379247 
L 211.226631 304.618282 
L 211.559515 304.974745 
L 211.732205 297.725977 
L 212.062584 307.584 
L 212.117641 307.584 
L 212.235274 303.431446 
L 212.62071 307.584 
L 212.740848 301.038542 
L 213.243916 305.022137 
L 213.74949 303.70549 
L 214.119924 307.584 
L 214.605486 307.584 
L 215.111059 303.993957 
L 215.131072 307.584 
L 216.084657 307.584 
L 216.104669 304.846996 
L 216.137209 307.584 
L 216.612749 307.584 
L 217.075792 304.55166 
L 217.115817 307.584 
L 217.621391 307.584 
L 218.066927 302.827725 
L 218.12449 307.584 
L 218.747696 307.584 
L 219.068053 304.327755 
L 219.100593 307.584 
L 219.1181 303.577053 
L 219.148135 299.244551 
L 219.250765 304.04753 
L 219.608672 307.584 
L 219.668741 296.221827 
L 219.756339 307.584 
L 220.056683 307.584 
L 220.171809 304.713065 
L 220.259407 307.584 
L 220.632347 307.584 
L 220.747474 302.458899 
L 221.120383 305.032439 
L 222.129025 307.584 
L 222.73723 304.36347 
L 223.12016 303.514552 
L 223.140173 307.584 
L 223.155206 301.219177 
L 223.588184 307.584 
L 223.745872 302.031007 
L 224.088777 307.584 
L 224.131308 307.584 
L 224.24894 295.510275 
L 224.496732 304.396437 
L 224.754514 298.892896 
L 225.139951 307.584 
L 226.081039 307.584 
L 226.148624 294.723858 
L 226.266256 304.702075 
L 226.654198 307.584 
L 226.77183 297.399734 
L 227.074679 307.584 
L 227.092186 303.784475 
L 227.162277 307.584 
L 227.274898 298.903198 
L 227.617773 307.584 
L 227.69538 295.280187 
L 227.780472 307.584 
L 228.083322 307.584 
L 228.13838 299.416258 
L 228.195943 302.252164 
L 229.147022 307.584 
L 229.770228 301.212996 
L 230.098101 307.584 
L 230.138157 302.410135 
L 230.275802 307.584 
L 230.761363 307.584 
L 231.091741 304.456191 
L 231.146799 307.584 
L 231.264432 307.584 
L 231.682408 302.684179 
L 231.752498 307.584 
L 231.770006 301.351735 
L 232.092868 307.584 
L 232.155442 302.906024 
L 232.185476 304.910184 
L 232.595936 307.584 
L 232.69105 300.022039 
L 233.099035 307.584 
L 233.149082 304.507017 
L 233.654656 307.584 
L 236.107455 307.584 
L 236.165018 304.691773 
L 236.768212 307.584 
L 237.113592 303.535157 
L 237.153648 307.584 
L 237.178672 290.963482 
L 237.27128 307.584 
L 237.641684 307.584 
L 237.77936 297.556331 
L 238.279923 304.266627 
L 238.595269 304.262506 
L 239.105853 300.817384 
L 239.203473 303.827058 
L 239.611427 307.584 
L 239.661505 302.543379 
L 239.709047 307.584 
L 240.114496 307.584 
L 240.212115 304.821583 
L 240.62007 307.584 
L 240.670147 303.121 
L 241.105631 304.723367 
L 241.173216 302.33115 
L 241.67879 307.584 
L 242.166856 303.640928 
L 243.120441 307.584 
L 243.172993 304.599051 
L 243.593475 307.584 
L 243.676062 302.548874 
L 244.171614 304.561963 
L 245.160244 307.584 
L 247.18257 307.584 
L 247.230112 297.175829 
L 247.685638 304.340118 
L 247.73318 271.379308 
L 248.023503 307.584 
L 248.186202 303.464414 
L 248.236249 288.951766 
L 248.661741 307.584 
L 248.739317 304.292727 
L 249.127259 307.584 
L 249.187328 304.038601 
L 249.600293 307.584 
L 249.672889 302.094881 
L 250.608966 307.584 
L 250.626473 303.997391 
L 251.202138 307.584 
L 251.617608 307.584 
L 251.675172 300.54128 
L 252.175735 307.584 
L 252.598722 305.035873 
L 252.68632 299.068036 
L 253.189388 307.584 
L 254.683592 307.584 
L 254.748671 303.563317 
L 255.136613 307.584 
L 255.206703 300.00006 
L 255.254245 266.877844 
L 255.677232 301.151869 
L 255.759819 244.338938 
L 256.202819 301.58663 
L 256.260382 279.873291 
L 256.723425 303.943132 
L 256.763451 299.502111 
L 257.193954 300.75763 
L 258.185089 305.032439 
L 259.191226 304.344238 
L 260.134789 307.584 
L 260.199868 300.633314 
L 260.537763 307.584 
L 261.143462 307.584 
L 261.211016 304.85043 
L 263.21831 307.584 
L 264.209445 307.584 
L 265.273145 293.881122 
L 265.741169 307.584 
L 266.209223 307.584 
L 266.759833 300.14086 
L 267.217865 302.614123 
L 268.211505 304.471302 
L 268.714574 301.867542 
L 270.213758 307.584 
L 271.149835 304.917052 
L 271.237433 307.584 
L 273.224714 307.584 
L 274.233356 303.957555 
L 274.758943 294.137307 
L 274.811495 307.584 
L 275.241998 305.042742 
L 275.259506 301.621658 
L 275.327091 307.584 
L 275.842686 295.916875 
L 276.235639 307.584 
L 276.851329 299.780963 
L 278.162821 301.592124 
L 278.225395 305.032439 
L 278.655867 307.584 
L 278.798554 304.974745 
L 279.158966 303.349027 
L 279.777162 304.361409 
L 280.225172 307.584 
L 283.333717 307.584 
L 283.796729 303.477463 
L 284.064534 307.584 
L 284.567602 307.584 
L 284.662716 303.737084 
L 284.805372 303.826372 
L 285.165785 307.584 
L 285.673864 307.584 
L 285.758956 301.211622 
L 285.814045 301.331817 
L 286.176932 307.584 
L 286.332115 304.289979 
L 286.67001 304.419103 
L 286.792653 307.584 
L 286.822687 302.743933 
L 287.173078 304.880651 
L 287.325756 307.584 
L 287.83133 303.846976 
L 287.853848 307.584 
L 288.737372 301.702703 
L 288.855005 307.584 
L 289.340535 307.584 
L 289.360578 304.490533 
L 289.843604 307.584 
L 289.861142 304.774879 
L 289.876143 307.584 
L 290.349178 303.751507 
L 290.852277 307.584 
L 291.820863 307.584 
L 292.293897 303.228832 
L 292.829505 307.584 
L 293.302539 301.438275 
L 293.335079 307.584 
L 293.810619 302.687613 
L 293.835673 307.584 
L 294.171032 307.584 
L 294.313718 298.949216 
L 294.338741 301.094862 
L 294.676605 307.584 
L 294.816786 303.916346 
L 294.844315 279.116409 
L 295.317349 302.548187 
L 295.347384 301.625092 
L 295.850452 304.024177 
L 296.356026 301.669736 
L 296.819069 307.584 
L 297.322138 307.584 
L 297.367174 304.999471 
L 297.827712 307.584 
L 297.867737 302.692421 
L 298.373311 307.584 
L 298.836354 304.27899 
L 299.271838 303.65123 
L 299.354455 307.584 
L 299.847502 307.584 
L 300.262973 303.722661 
L 300.348065 307.584 
L 300.363097 302.818797 
L 300.683454 307.584 
L 300.851133 307.584 
L 300.878693 300.550895 
L 301.186523 307.584 
L 301.329178 302.941738 
L 301.354233 307.584 
L 301.789716 304.018683 
L 301.857301 307.584 
L 302.332841 303.839421 
L 303.273898 307.584 
L 303.374023 291.905809 
L 303.874586 301.879904 
L 304.382665 233.465786 
L 304.815674 294.030849 
L 304.885734 260.759597 
L 305.318742 304.651937 
L 305.388802 298.972567 
L 305.891871 307.584 
L 306.700294 307.584 
L 306.832959 299.629174 
L 307.195877 307.584 
L 307.866625 307.584 
L 308.34467 302.699289 
L 308.372198 304.914305 
L 308.707588 307.584 
L 308.845233 298.074885 
L 309.210656 307.584 
L 309.350837 301.906004 
L 309.8514 304.991229 
L 310.359479 280.029889 
L 310.389514 304.246709 
L 310.860043 295.406563 
L 310.892582 307.584 
L 311.298031 302.278264 
L 311.398156 303.875823 
L 311.831134 304.377893 
L 311.901225 307.584 
L 313.367899 307.584 
L 313.873473 304.55166 
L 314.376542 300.446497 
L 314.87961 302.838715 
L 315.202472 307.584 
L 315.357655 307.584 
L 315.38769 263.410744 
L 315.708046 307.584 
L 315.860724 303.573619 
L 315.888253 275.630765 
L 316.211145 307.584 
L 316.366298 302.576347 
L 316.393827 284.088348 
L 316.714214 307.584 
L 316.869366 307.584 
L 316.896926 298.458822 
L 317.372465 307.584 
L 317.405005 291.083676 
L 317.837983 297.070057 
L 317.873028 307.584 
L 317.908073 299.816678 
L 318.356084 307.584 
L 318.413647 283.589023 
L 319.21706 307.584 
L 319.349694 304.039974 
L 319.367232 307.584 
L 319.419784 302.084579 
L 319.710107 307.584 
L 319.852762 307.584 
L 319.887808 302.474697 
L 319.922853 307.584 
L 320.10807 307.584 
L 320.355861 303.899862 
L 321.364504 302.824291 
L 321.397044 307.584 
L 321.867572 303.296141 
L 321.900112 304.535177 
L 322.373146 286.817109 
L 322.428204 303.342846 
L 322.876215 303.066741 
L 322.906249 295.418927 
L 322.931273 304.751527 
L 323.381789 233.98091 
L 323.409318 302.925942 
L 323.884857 276.083384 
L 324.217741 307.584 
L 324.387926 285.980556 
L 324.422971 307.584 
L 324.888519 301.4005 
L 325.391588 304.784495 
L 325.434119 307.584 
L 326.390209 279.476992 
L 326.420243 307.584 
L 326.893277 293.549384 
L 327.371322 304.325008 
L 327.398882 295.511648 
L 327.721744 307.584 
L 327.874421 302.038561 
L 327.90195 303.838734 
L 328.37749 307.584 
L 328.410029 279.9825 
L 328.880558 307.584 
L 328.913098 300.946508 
L 329.388637 304.917739 
L 329.418672 279.163801 
L 329.891706 302.929376 
L 329.92174 300.810516 
L 330.377267 307.584 
L 330.394774 303.40672 
L 330.424809 304.052337 
L 330.897843 304.962383 
L 330.962923 300.643617 
L 331.368372 287.532783 
L 331.465991 300.178635 
L 331.868965 300.19924 
L 331.90398 307.584 
L 332.121737 307.584 
L 332.409584 304.899881 
L 332.912653 304.775566 
L 333.378171 304.899195 
L 333.408205 304.314018 
L 333.420732 307.584 
L 333.911274 307.584 
L 334.386813 285.263508 
L 334.426869 299.938933 
L 334.889882 279.702958 
L 335.395456 297.371575 
L 335.898555 301.992544 
L 336.406634 295.507526 
L 336.907197 297.478033 
L 337.415276 291.030104 
L 337.915839 298.493162 
L 338.386368 307.584 
L 338.418908 299.451972 
L 338.919471 307.584 
L 339.397516 307.584 
L 339.412548 301.983616 
L 339.900584 303.197238 
L 339.915617 307.584 
L 340.396167 307.584 
L 340.423696 299.359938 
L 340.89673 307.584 
L 340.926765 303.364137 
L 341.402304 303.008361 
L 341.905373 304.419103 
L 341.967947 307.584 
L 342.405936 307.584 
L 342.46851 304.015249 
L 342.909035 301.148434 
L 343.414609 304.409487 
L 343.917677 305.055791 
L 344.135404 303.47609 
L 344.423251 303.526915 
L 345.431894 301.041976 
L 346.402985 307.584 
L 346.873545 307.584 
L 346.976144 302.576347 
L 347.411658 293.560373 
L 347.479213 304.13613 
L 347.912221 298.632588 
L 348.420301 278.224221 
L 348.885819 307.584 
L 348.923369 291.08299 
L 348.955909 303.831179 
L 349.391393 307.584 
L 349.426438 297.765126 
L 349.927001 299.21433 
L 349.964552 298.320769 
L 350.420078 304.754961 
L 350.465115 307.584 
L 350.920641 307.584 
L 352.419856 303.709611 
L 353.914059 304.431466 
L 354.422139 303.83736 
L 355.993918 307.584 
L 357.44556 300.477405 
L 359.890843 307.584 
L 360.00099 303.353148 
L 361.522722 307.584 
L 361.772988 307.584 
L 361.908158 303.54752 
L 362.916801 304.662239 
L 363.439882 303.923901 
L 367.887448 307.584 
L 368.393022 301.824272 
L 372.913183 303.22059 
L 373.921825 307.584 
L 375.556179 307.584 
L 375.941616 303.780354 
L 376.447189 307.584 
L 380.909787 304.934223 
L 382.804429 307.584 
L 383.813072 307.584 
L 394.940739 303.526228 
L 398.487273 303.140232 
L 398.487273 303.140232 
" clip-path="url(#p69f7dacf6e)" style="fill: none; stroke: #1f77b4; stroke-width: 1.5; stroke-linecap: square"/>
   </g>
   <g id="patch_3">
    <path d="M 57.6 307.584 
L 57.6 41.472 
" style="fill: none; stroke: #000000; stroke-width: 0.8; stroke-linejoin: miter; stroke-linecap: square"/>
   </g>
   <g id="patch_4">
    <path d="M 414.72 307.584 
L 414.72 41.472 
" style="fill: none; stroke: #000000; stroke-width: 0.8; stroke-linejoin: miter; stroke-linecap: square"/>
   </g>
   <g id="patch_5">
    <path d="M 57.6 307.584 
L 414.72 307.584 
" style="fill: none; stroke: #000000; stroke-width: 0.8; stroke-linejoin: miter; stroke-linecap: square"/>
   </g>
   <g id="patch_6">
    <path d="M 57.6 41.472 
L 414.72 41.472 
" style="fill: none; stroke: #000000; stroke-width: 0.8; stroke-linejoin: miter; stroke-linecap: square"/>
   </g>
   <g id="legend_1">
    <g id="patch_7">
     <path d="M 323.385625 64.150125 
L 407.72 64.150125 
Q 409.72 64.150125 409.72 62.150125 
L 409.72 48.472 
Q 409.72 46.472 407.72 46.472 
L 323.385625 46.472 
Q 321.385625 46.472 321.385625 48.472 
L 321.385625 62.150125 
Q 321.385625 64.150125 323.385625 64.150125 
z
" style="fill: #ffffff; opacity: 0.8; stroke: #cccccc; stroke-linejoin: miter"/>
    </g>
    <g id="line2d_18">
     <path d="M 325.385625 54.570438 
L 335.385625 54.570438 
L 345.385625 54.570438 
" style="fill: none; stroke: #1f77b4; stroke-width: 1.5; stroke-linecap: square"/>
    </g>
    <g id="text_19">
     <!-- (171, 408) -->
     <g transform="translate(353.385625 58.070438) scale(0.1 -0.1)">
      <defs>
       <path id="DejaVuSans-28" d="M 1984 4856 
Q 1566 4138 1362 3434 
Q 1159 2731 1159 2009 
Q 1159 1288 1364 580 
Q 1569 -128 1984 -844 
L 1484 -844 
Q 1016 -109 783 600 
Q 550 1309 550 2009 
Q 550 2706 781 3412 
Q 1013 4119 1484 4856 
L 1984 4856 
z
" transform="scale(0.015625)"/>
       <path id="DejaVuSans-2c" d="M 750 794 
L 1409 794 
L 1409 256 
L 897 -744 
L 494 -744 
L 750 256 
L 750 794 
z
" transform="scale(0.015625)"/>
       <path id="DejaVuSans-29" d="M 513 4856 
L 1013 4856 
Q 1481 4119 1714 3412 
Q 1947 2706 1947 2009 
Q 1947 1309 1714 600 
Q 1481 -109 1013 -844 
L 513 -844 
Q 928 -128 1133 580 
Q 1338 1288 1338 2009 
Q 1338 2731 1133 3434 
Q 928 4138 513 4856 
z
" transform="scale(0.015625)"/>
      </defs>
      <use xlink:href="#DejaVuSans-28"/>
      <use xlink:href="#DejaVuSans-31" x="39.013672"/>
      <use xlink:href="#DejaVuSans-37" x="102.636719"/>
      <use xlink:href="#DejaVuSans-31" x="166.259766"/>
      <use xlink:href="#DejaVuSans-2c" x="229.882812"/>
      <use xlink:href="#DejaVuSans-20" x="261.669922"/>
      <use xlink:href="#DejaVuSans-34" x="293.457031"/>
      <use xlink:href="#DejaVuSans-30" x="357.080078"/>
      <use xlink:href="#DejaVuSans-38" x="420.703125"/>
      <use xlink:href="#DejaVuSans-29" x="484.326172"/>
     </g>
    </g>
   </g>
  </g>
 </g>
 <defs>
  <clipPath id="p69f7dacf6e">
   <rect x="57.6" y="41.472" width="357.12" height="266.112"/>
  </clipPath>
 </defs>
</svg>
