<?xml version="1.0" encoding="utf-8" standalone="no"?>
<!DOCTYPE svg PUBLIC "-//W3C//DTD SVG 1.1//EN"
  "http://www.w3.org/Graphics/SVG/1.1/DTD/svg11.dtd">
<svg xmlns:xlink="http://www.w3.org/1999/xlink" width="460.8pt" height="345.6pt" viewBox="0 0 460.8 345.6" xmlns="http://www.w3.org/2000/svg" version="1.1">
 <metadata>
  <rdf:RDF xmlns:dc="http://purl.org/dc/elements/1.1/" xmlns:cc="http://creativecommons.org/ns#" xmlns:rdf="http://www.w3.org/1999/02/22-rdf-syntax-ns#">
   <cc:Work>
    <dc:type rdf:resource="http://purl.org/dc/dcmitype/StillImage"/>
    <dc:date>2025-12-03T20:42:15.955469</dc:date>
    <dc:format>image/svg+xml</dc:format>
    <dc:creator>
     <cc:Agent>
      <dc:title>Matplotlib v3.8.4, https://matplotlib.org/</dc:title>
     </cc:Agent>
    </dc:creator>
   </cc:Work>
  </rdf:RDF>
 </metadata>
 <defs>
  <style type="text/css">*{stroke-linejoin: round; stroke-linecap: butt}</style>
 </defs>
 <g id="figure_1">
  <g id="patch_1">
   <path d="M 0 345.6 
L 460.8 345.6 
L 460.8 0 
L 0 0 
z
" style="fill: #ffffff"/>
  </g>
  <g id="axes_1">
   <g id="patch_2">
    <path d="M 57.6 307.584 
L 414.72 307.584 
L 414.72 41.472 
L 57.6 41.472 
z
" style="fill: #ffffff"/>
   </g>
   <g id="matplotlib.axis_1">
    <g id="xtick_1">
     <g id="line2d_1">
      <defs>
       <path id="ma68fdff370" d="M 0 0 
L 0 3.5 
" style="stroke: #000000; stroke-width: 0.8"/>
      </defs>
      <g>
       <use xlink:href="#ma68fdff370" x="73.818841" y="307.584" style="stroke: #000000; stroke-width: 0.8"/>
      </g>
     </g>
     <g id="text_1">
      <!-- 300 -->
      <g transform="translate(64.275091 322.182437) scale(0.1 -0.1)">
       <defs>
        <path id="DejaVuSans-33" d="M 2597 2516 
Q 3050 2419 3304 2112 
Q 3559 1806 3559 1356 
Q 3559 666 3084 287 
Q 2609 -91 1734 -91 
Q 1441 -91 1130 -33 
Q 819 25 488 141 
L 488 750 
Q 750 597 1062 519 
Q 1375 441 1716 441 
Q 2309 441 2620 675 
Q 2931 909 2931 1356 
Q 2931 1769 2642 2001 
Q 2353 2234 1838 2234 
L 1294 2234 
L 1294 2753 
L 1863 2753 
Q 2328 2753 2575 2939 
Q 2822 3125 2822 3475 
Q 2822 3834 2567 4026 
Q 2313 4219 1838 4219 
Q 1578 4219 1281 4162 
Q 984 4106 628 3988 
L 628 4550 
Q 988 4650 1302 4700 
Q 1616 4750 1894 4750 
Q 2613 4750 3031 4423 
Q 3450 4097 3450 3541 
Q 3450 3153 3228 2886 
Q 3006 2619 2597 2516 
z
" transform="scale(0.015625)"/>
        <path id="DejaVuSans-30" d="M 2034 4250 
Q 1547 4250 1301 3770 
Q 1056 3291 1056 2328 
Q 1056 1369 1301 889 
Q 1547 409 2034 409 
Q 2525 409 2770 889 
Q 3016 1369 3016 2328 
Q 3016 3291 2770 3770 
Q 2525 4250 2034 4250 
z
M 2034 4750 
Q 2819 4750 3233 4129 
Q 3647 3509 3647 2328 
Q 3647 1150 3233 529 
Q 2819 -91 2034 -91 
Q 1250 -91 836 529 
Q 422 1150 422 2328 
Q 422 3509 836 4129 
Q 1250 4750 2034 4750 
z
" transform="scale(0.015625)"/>
       </defs>
       <use xlink:href="#DejaVuSans-33"/>
       <use xlink:href="#DejaVuSans-30" x="63.623047"/>
       <use xlink:href="#DejaVuSans-30" x="127.246094"/>
      </g>
     </g>
    </g>
    <g id="xtick_2">
     <g id="line2d_2">
      <g>
       <use xlink:href="#ma68fdff370" x="123.878205" y="307.584" style="stroke: #000000; stroke-width: 0.8"/>
      </g>
     </g>
     <g id="text_2">
      <!-- 400 -->
      <g transform="translate(114.334455 322.182437) scale(0.1 -0.1)">
       <defs>
        <path id="DejaVuSans-34" d="M 2419 4116 
L 825 1625 
L 2419 1625 
L 2419 4116 
z
M 2253 4666 
L 3047 4666 
L 3047 1625 
L 3713 1625 
L 3713 1100 
L 3047 1100 
L 3047 0 
L 2419 0 
L 2419 1100 
L 313 1100 
L 313 1709 
L 2253 4666 
z
" transform="scale(0.015625)"/>
       </defs>
       <use xlink:href="#DejaVuSans-34"/>
       <use xlink:href="#DejaVuSans-30" x="63.623047"/>
       <use xlink:href="#DejaVuSans-30" x="127.246094"/>
      </g>
     </g>
    </g>
    <g id="xtick_3">
     <g id="line2d_3">
      <g>
       <use xlink:href="#ma68fdff370" x="173.937569" y="307.584" style="stroke: #000000; stroke-width: 0.8"/>
      </g>
     </g>
     <g id="text_3">
      <!-- 500 -->
      <g transform="translate(164.393819 322.182437) scale(0.1 -0.1)">
       <defs>
        <path id="DejaVuSans-35" d="M 691 4666 
L 3169 4666 
L 3169 4134 
L 1269 4134 
L 1269 2991 
Q 1406 3038 1543 3061 
Q 1681 3084 1819 3084 
Q 2600 3084 3056 2656 
Q 3513 2228 3513 1497 
Q 3513 744 3044 326 
Q 2575 -91 1722 -91 
Q 1428 -91 1123 -41 
Q 819 9 494 109 
L 494 744 
Q 775 591 1075 516 
Q 1375 441 1709 441 
Q 2250 441 2565 725 
Q 2881 1009 2881 1497 
Q 2881 1984 2565 2268 
Q 2250 2553 1709 2553 
Q 1456 2553 1204 2497 
Q 953 2441 691 2322 
L 691 4666 
z
" transform="scale(0.015625)"/>
       </defs>
       <use xlink:href="#DejaVuSans-35"/>
       <use xlink:href="#DejaVuSans-30" x="63.623047"/>
       <use xlink:href="#DejaVuSans-30" x="127.246094"/>
      </g>
     </g>
    </g>
    <g id="xtick_4">
     <g id="line2d_4">
      <g>
       <use xlink:href="#ma68fdff370" x="223.996933" y="307.584" style="stroke: #000000; stroke-width: 0.8"/>
      </g>
     </g>
     <g id="text_4">
      <!-- 600 -->
      <g transform="translate(214.453183 322.182437) scale(0.1 -0.1)">
       <defs>
        <path id="DejaVuSans-36" d="M 2113 2584 
Q 1688 2584 1439 2293 
Q 1191 2003 1191 1497 
Q 1191 994 1439 701 
Q 1688 409 2113 409 
Q 2538 409 2786 701 
Q 3034 994 3034 1497 
Q 3034 2003 2786 2293 
Q 2538 2584 2113 2584 
z
M 3366 4563 
L 3366 3988 
Q 3128 4100 2886 4159 
Q 2644 4219 2406 4219 
Q 1781 4219 1451 3797 
Q 1122 3375 1075 2522 
Q 1259 2794 1537 2939 
Q 1816 3084 2150 3084 
Q 2853 3084 3261 2657 
Q 3669 2231 3669 1497 
Q 3669 778 3244 343 
Q 2819 -91 2113 -91 
Q 1303 -91 875 529 
Q 447 1150 447 2328 
Q 447 3434 972 4092 
Q 1497 4750 2381 4750 
Q 2619 4750 2861 4703 
Q 3103 4656 3366 4563 
z
" transform="scale(0.015625)"/>
       </defs>
       <use xlink:href="#DejaVuSans-36"/>
       <use xlink:href="#DejaVuSans-30" x="63.623047"/>
       <use xlink:href="#DejaVuSans-30" x="127.246094"/>
      </g>
     </g>
    </g>
    <g id="xtick_5">
     <g id="line2d_5">
      <g>
       <use xlink:href="#ma68fdff370" x="274.056297" y="307.584" style="stroke: #000000; stroke-width: 0.8"/>
      </g>
     </g>
     <g id="text_5">
      <!-- 700 -->
      <g transform="translate(264.512547 322.182437) scale(0.1 -0.1)">
       <defs>
        <path id="DejaVuSans-37" d="M 525 4666 
L 3525 4666 
L 3525 4397 
L 1831 0 
L 1172 0 
L 2766 4134 
L 525 4134 
L 525 4666 
z
" transform="scale(0.015625)"/>
       </defs>
       <use xlink:href="#DejaVuSans-37"/>
       <use xlink:href="#DejaVuSans-30" x="63.623047"/>
       <use xlink:href="#DejaVuSans-30" x="127.246094"/>
      </g>
     </g>
    </g>
    <g id="xtick_6">
     <g id="line2d_6">
      <g>
       <use xlink:href="#ma68fdff370" x="324.115661" y="307.584" style="stroke: #000000; stroke-width: 0.8"/>
      </g>
     </g>
     <g id="text_6">
      <!-- 800 -->
      <g transform="translate(314.571911 322.182437) scale(0.1 -0.1)">
       <defs>
        <path id="DejaVuSans-38" d="M 2034 2216 
Q 1584 2216 1326 1975 
Q 1069 1734 1069 1313 
Q 1069 891 1326 650 
Q 1584 409 2034 409 
Q 2484 409 2743 651 
Q 3003 894 3003 1313 
Q 3003 1734 2745 1975 
Q 2488 2216 2034 2216 
z
M 1403 2484 
Q 997 2584 770 2862 
Q 544 3141 544 3541 
Q 544 4100 942 4425 
Q 1341 4750 2034 4750 
Q 2731 4750 3128 4425 
Q 3525 4100 3525 3541 
Q 3525 3141 3298 2862 
Q 3072 2584 2669 2484 
Q 3125 2378 3379 2068 
Q 3634 1759 3634 1313 
Q 3634 634 3220 271 
Q 2806 -91 2034 -91 
Q 1263 -91 848 271 
Q 434 634 434 1313 
Q 434 1759 690 2068 
Q 947 2378 1403 2484 
z
M 1172 3481 
Q 1172 3119 1398 2916 
Q 1625 2713 2034 2713 
Q 2441 2713 2670 2916 
Q 2900 3119 2900 3481 
Q 2900 3844 2670 4047 
Q 2441 4250 2034 4250 
Q 1625 4250 1398 4047 
Q 1172 3844 1172 3481 
z
" transform="scale(0.015625)"/>
       </defs>
       <use xlink:href="#DejaVuSans-38"/>
       <use xlink:href="#DejaVuSans-30" x="63.623047"/>
       <use xlink:href="#DejaVuSans-30" x="127.246094"/>
      </g>
     </g>
    </g>
    <g id="xtick_7">
     <g id="line2d_7">
      <g>
       <use xlink:href="#ma68fdff370" x="374.175025" y="307.584" style="stroke: #000000; stroke-width: 0.8"/>
      </g>
     </g>
     <g id="text_7">
      <!-- 900 -->
      <g transform="translate(364.631275 322.182437) scale(0.1 -0.1)">
       <defs>
        <path id="DejaVuSans-39" d="M 703 97 
L 703 672 
Q 941 559 1184 500 
Q 1428 441 1663 441 
Q 2288 441 2617 861 
Q 2947 1281 2994 2138 
Q 2813 1869 2534 1725 
Q 2256 1581 1919 1581 
Q 1219 1581 811 2004 
Q 403 2428 403 3163 
Q 403 3881 828 4315 
Q 1253 4750 1959 4750 
Q 2769 4750 3195 4129 
Q 3622 3509 3622 2328 
Q 3622 1225 3098 567 
Q 2575 -91 1691 -91 
Q 1453 -91 1209 -44 
Q 966 3 703 97 
z
M 1959 2075 
Q 2384 2075 2632 2365 
Q 2881 2656 2881 3163 
Q 2881 3666 2632 3958 
Q 2384 4250 1959 4250 
Q 1534 4250 1286 3958 
Q 1038 3666 1038 3163 
Q 1038 2656 1286 2365 
Q 1534 2075 1959 2075 
z
" transform="scale(0.015625)"/>
       </defs>
       <use xlink:href="#DejaVuSans-39"/>
       <use xlink:href="#DejaVuSans-30" x="63.623047"/>
       <use xlink:href="#DejaVuSans-30" x="127.246094"/>
      </g>
     </g>
    </g>
    <g id="text_8">
     <!-- m/z -->
     <g transform="translate(226.981094 335.860562) scale(0.1 -0.1)">
      <defs>
       <path id="DejaVuSans-6d" d="M 3328 2828 
Q 3544 3216 3844 3400 
Q 4144 3584 4550 3584 
Q 5097 3584 5394 3201 
Q 5691 2819 5691 2113 
L 5691 0 
L 5113 0 
L 5113 2094 
Q 5113 2597 4934 2840 
Q 4756 3084 4391 3084 
Q 3944 3084 3684 2787 
Q 3425 2491 3425 1978 
L 3425 0 
L 2847 0 
L 2847 2094 
Q 2847 2600 2669 2842 
Q 2491 3084 2119 3084 
Q 1678 3084 1418 2786 
Q 1159 2488 1159 1978 
L 1159 0 
L 581 0 
L 581 3500 
L 1159 3500 
L 1159 2956 
Q 1356 3278 1631 3431 
Q 1906 3584 2284 3584 
Q 2666 3584 2933 3390 
Q 3200 3197 3328 2828 
z
" transform="scale(0.015625)"/>
       <path id="DejaVuSans-2f" d="M 1625 4666 
L 2156 4666 
L 531 -594 
L 0 -594 
L 1625 4666 
z
" transform="scale(0.015625)"/>
       <path id="DejaVuSans-7a" d="M 353 3500 
L 3084 3500 
L 3084 2975 
L 922 459 
L 3084 459 
L 3084 0 
L 275 0 
L 275 525 
L 2438 3041 
L 353 3041 
L 353 3500 
z
" transform="scale(0.015625)"/>
      </defs>
      <use xlink:href="#DejaVuSans-6d"/>
      <use xlink:href="#DejaVuSans-2f" x="97.412109"/>
      <use xlink:href="#DejaVuSans-7a" x="131.103516"/>
     </g>
    </g>
   </g>
   <g id="matplotlib.axis_2">
    <g id="ytick_1">
     <g id="line2d_8">
      <defs>
       <path id="me527ce0dd1" d="M 0 0 
L -3.5 0 
" style="stroke: #000000; stroke-width: 0.8"/>
      </defs>
      <g>
       <use xlink:href="#me527ce0dd1" x="57.6" y="307.584" style="stroke: #000000; stroke-width: 0.8"/>
      </g>
     </g>
     <g id="text_9">
      <!-- 0 -->
      <g transform="translate(44.2375 311.383219) scale(0.1 -0.1)">
       <use xlink:href="#DejaVuSans-30"/>
      </g>
     </g>
    </g>
    <g id="ytick_2">
     <g id="line2d_9">
      <g>
       <use xlink:href="#me527ce0dd1" x="57.6" y="274.38717" style="stroke: #000000; stroke-width: 0.8"/>
      </g>
     </g>
     <g id="text_10">
      <!-- 100 -->
      <g transform="translate(31.5125 278.186389) scale(0.1 -0.1)">
       <defs>
        <path id="DejaVuSans-31" d="M 794 531 
L 1825 531 
L 1825 4091 
L 703 3866 
L 703 4441 
L 1819 4666 
L 2450 4666 
L 2450 531 
L 3481 531 
L 3481 0 
L 794 0 
L 794 531 
z
" transform="scale(0.015625)"/>
       </defs>
       <use xlink:href="#DejaVuSans-31"/>
       <use xlink:href="#DejaVuSans-30" x="63.623047"/>
       <use xlink:href="#DejaVuSans-30" x="127.246094"/>
      </g>
     </g>
    </g>
    <g id="ytick_3">
     <g id="line2d_10">
      <g>
       <use xlink:href="#me527ce0dd1" x="57.6" y="241.19034" style="stroke: #000000; stroke-width: 0.8"/>
      </g>
     </g>
     <g id="text_11">
      <!-- 200 -->
      <g transform="translate(31.5125 244.989559) scale(0.1 -0.1)">
       <defs>
        <path id="DejaVuSans-32" d="M 1228 531 
L 3431 531 
L 3431 0 
L 469 0 
L 469 531 
Q 828 903 1448 1529 
Q 2069 2156 2228 2338 
Q 2531 2678 2651 2914 
Q 2772 3150 2772 3378 
Q 2772 3750 2511 3984 
Q 2250 4219 1831 4219 
Q 1534 4219 1204 4116 
Q 875 4013 500 3803 
L 500 4441 
Q 881 4594 1212 4672 
Q 1544 4750 1819 4750 
Q 2544 4750 2975 4387 
Q 3406 4025 3406 3419 
Q 3406 3131 3298 2873 
Q 3191 2616 2906 2266 
Q 2828 2175 2409 1742 
Q 1991 1309 1228 531 
z
" transform="scale(0.015625)"/>
       </defs>
       <use xlink:href="#DejaVuSans-32"/>
       <use xlink:href="#DejaVuSans-30" x="63.623047"/>
       <use xlink:href="#DejaVuSans-30" x="127.246094"/>
      </g>
     </g>
    </g>
    <g id="ytick_4">
     <g id="line2d_11">
      <g>
       <use xlink:href="#me527ce0dd1" x="57.6" y="207.993511" style="stroke: #000000; stroke-width: 0.8"/>
      </g>
     </g>
     <g id="text_12">
      <!-- 300 -->
      <g transform="translate(31.5125 211.792729) scale(0.1 -0.1)">
       <use xlink:href="#DejaVuSans-33"/>
       <use xlink:href="#DejaVuSans-30" x="63.623047"/>
       <use xlink:href="#DejaVuSans-30" x="127.246094"/>
      </g>
     </g>
    </g>
    <g id="ytick_5">
     <g id="line2d_12">
      <g>
       <use xlink:href="#me527ce0dd1" x="57.6" y="174.796681" style="stroke: #000000; stroke-width: 0.8"/>
      </g>
     </g>
     <g id="text_13">
      <!-- 400 -->
      <g transform="translate(31.5125 178.5959) scale(0.1 -0.1)">
       <use xlink:href="#DejaVuSans-34"/>
       <use xlink:href="#DejaVuSans-30" x="63.623047"/>
       <use xlink:href="#DejaVuSans-30" x="127.246094"/>
      </g>
     </g>
    </g>
    <g id="ytick_6">
     <g id="line2d_13">
      <g>
       <use xlink:href="#me527ce0dd1" x="57.6" y="141.599851" style="stroke: #000000; stroke-width: 0.8"/>
      </g>
     </g>
     <g id="text_14">
      <!-- 500 -->
      <g transform="translate(31.5125 145.39907) scale(0.1 -0.1)">
       <use xlink:href="#DejaVuSans-35"/>
       <use xlink:href="#DejaVuSans-30" x="63.623047"/>
       <use xlink:href="#DejaVuSans-30" x="127.246094"/>
      </g>
     </g>
    </g>
    <g id="ytick_7">
     <g id="line2d_14">
      <g>
       <use xlink:href="#me527ce0dd1" x="57.6" y="108.403021" style="stroke: #000000; stroke-width: 0.8"/>
      </g>
     </g>
     <g id="text_15">
      <!-- 600 -->
      <g transform="translate(31.5125 112.20224) scale(0.1 -0.1)">
       <use xlink:href="#DejaVuSans-36"/>
       <use xlink:href="#DejaVuSans-30" x="63.623047"/>
       <use xlink:href="#DejaVuSans-30" x="127.246094"/>
      </g>
     </g>
    </g>
    <g id="ytick_8">
     <g id="line2d_15">
      <g>
       <use xlink:href="#me527ce0dd1" x="57.6" y="75.206191" style="stroke: #000000; stroke-width: 0.8"/>
      </g>
     </g>
     <g id="text_16">
      <!-- 700 -->
      <g transform="translate(31.5125 79.00541) scale(0.1 -0.1)">
       <use xlink:href="#DejaVuSans-37"/>
       <use xlink:href="#DejaVuSans-30" x="63.623047"/>
       <use xlink:href="#DejaVuSans-30" x="127.246094"/>
      </g>
     </g>
    </g>
    <g id="ytick_9">
     <g id="line2d_16">
      <g>
       <use xlink:href="#me527ce0dd1" x="57.6" y="42.009362" style="stroke: #000000; stroke-width: 0.8"/>
      </g>
     </g>
     <g id="text_17">
      <!-- 800 -->
      <g transform="translate(31.5125 45.80858) scale(0.1 -0.1)">
       <use xlink:href="#DejaVuSans-38"/>
       <use xlink:href="#DejaVuSans-30" x="63.623047"/>
       <use xlink:href="#DejaVuSans-30" x="127.246094"/>
      </g>
     </g>
    </g>
    <g id="text_18">
     <!-- Intensities [a.u.] -->
     <g transform="translate(25.432812 215.303) rotate(-90) scale(0.1 -0.1)">
      <defs>
       <path id="DejaVuSans-49" d="M 628 4666 
L 1259 4666 
L 1259 0 
L 628 0 
L 628 4666 
z
" transform="scale(0.015625)"/>
       <path id="DejaVuSans-6e" d="M 3513 2113 
L 3513 0 
L 2938 0 
L 2938 2094 
Q 2938 2591 2744 2837 
Q 2550 3084 2163 3084 
Q 1697 3084 1428 2787 
Q 1159 2491 1159 1978 
L 1159 0 
L 581 0 
L 581 3500 
L 1159 3500 
L 1159 2956 
Q 1366 3272 1645 3428 
Q 1925 3584 2291 3584 
Q 2894 3584 3203 3211 
Q 3513 2838 3513 2113 
z
" transform="scale(0.015625)"/>
       <path id="DejaVuSans-74" d="M 1172 4494 
L 1172 3500 
L 2356 3500 
L 2356 3053 
L 1172 3053 
L 1172 1153 
Q 1172 725 1289 603 
Q 1406 481 1766 481 
L 2356 481 
L 2356 0 
L 1766 0 
Q 1100 0 847 248 
Q 594 497 594 1153 
L 594 3053 
L 172 3053 
L 172 3500 
L 594 3500 
L 594 4494 
L 1172 4494 
z
" transform="scale(0.015625)"/>
       <path id="DejaVuSans-65" d="M 3597 1894 
L 3597 1613 
L 953 1613 
Q 991 1019 1311 708 
Q 1631 397 2203 397 
Q 2534 397 2845 478 
Q 3156 559 3463 722 
L 3463 178 
Q 3153 47 2828 -22 
Q 2503 -91 2169 -91 
Q 1331 -91 842 396 
Q 353 884 353 1716 
Q 353 2575 817 3079 
Q 1281 3584 2069 3584 
Q 2775 3584 3186 3129 
Q 3597 2675 3597 1894 
z
M 3022 2063 
Q 3016 2534 2758 2815 
Q 2500 3097 2075 3097 
Q 1594 3097 1305 2825 
Q 1016 2553 972 2059 
L 3022 2063 
z
" transform="scale(0.015625)"/>
       <path id="DejaVuSans-73" d="M 2834 3397 
L 2834 2853 
Q 2591 2978 2328 3040 
Q 2066 3103 1784 3103 
Q 1356 3103 1142 2972 
Q 928 2841 928 2578 
Q 928 2378 1081 2264 
Q 1234 2150 1697 2047 
L 1894 2003 
Q 2506 1872 2764 1633 
Q 3022 1394 3022 966 
Q 3022 478 2636 193 
Q 2250 -91 1575 -91 
Q 1294 -91 989 -36 
Q 684 19 347 128 
L 347 722 
Q 666 556 975 473 
Q 1284 391 1588 391 
Q 1994 391 2212 530 
Q 2431 669 2431 922 
Q 2431 1156 2273 1281 
Q 2116 1406 1581 1522 
L 1381 1569 
Q 847 1681 609 1914 
Q 372 2147 372 2553 
Q 372 3047 722 3315 
Q 1072 3584 1716 3584 
Q 2034 3584 2315 3537 
Q 2597 3491 2834 3397 
z
" transform="scale(0.015625)"/>
       <path id="DejaVuSans-69" d="M 603 3500 
L 1178 3500 
L 1178 0 
L 603 0 
L 603 3500 
z
M 603 4863 
L 1178 4863 
L 1178 4134 
L 603 4134 
L 603 4863 
z
" transform="scale(0.015625)"/>
       <path id="DejaVuSans-20" transform="scale(0.015625)"/>
       <path id="DejaVuSans-5b" d="M 550 4863 
L 1875 4863 
L 1875 4416 
L 1125 4416 
L 1125 -397 
L 1875 -397 
L 1875 -844 
L 550 -844 
L 550 4863 
z
" transform="scale(0.015625)"/>
       <path id="DejaVuSans-61" d="M 2194 1759 
Q 1497 1759 1228 1600 
Q 959 1441 959 1056 
Q 959 750 1161 570 
Q 1363 391 1709 391 
Q 2188 391 2477 730 
Q 2766 1069 2766 1631 
L 2766 1759 
L 2194 1759 
z
M 3341 1997 
L 3341 0 
L 2766 0 
L 2766 531 
Q 2569 213 2275 61 
Q 1981 -91 1556 -91 
Q 1019 -91 701 211 
Q 384 513 384 1019 
Q 384 1609 779 1909 
Q 1175 2209 1959 2209 
L 2766 2209 
L 2766 2266 
Q 2766 2663 2505 2880 
Q 2244 3097 1772 3097 
Q 1472 3097 1187 3025 
Q 903 2953 641 2809 
L 641 3341 
Q 956 3463 1253 3523 
Q 1550 3584 1831 3584 
Q 2591 3584 2966 3190 
Q 3341 2797 3341 1997 
z
" transform="scale(0.015625)"/>
       <path id="DejaVuSans-2e" d="M 684 794 
L 1344 794 
L 1344 0 
L 684 0 
L 684 794 
z
" transform="scale(0.015625)"/>
       <path id="DejaVuSans-75" d="M 544 1381 
L 544 3500 
L 1119 3500 
L 1119 1403 
Q 1119 906 1312 657 
Q 1506 409 1894 409 
Q 2359 409 2629 706 
Q 2900 1003 2900 1516 
L 2900 3500 
L 3475 3500 
L 3475 0 
L 2900 0 
L 2900 538 
Q 2691 219 2414 64 
Q 2138 -91 1772 -91 
Q 1169 -91 856 284 
Q 544 659 544 1381 
z
M 1991 3584 
L 1991 3584 
z
" transform="scale(0.015625)"/>
       <path id="DejaVuSans-5d" d="M 1947 4863 
L 1947 -844 
L 622 -844 
L 622 -397 
L 1369 -397 
L 1369 4416 
L 622 4416 
L 622 4863 
L 1947 4863 
z
" transform="scale(0.015625)"/>
      </defs>
      <use xlink:href="#DejaVuSans-49"/>
      <use xlink:href="#DejaVuSans-6e" x="29.492188"/>
      <use xlink:href="#DejaVuSans-74" x="92.871094"/>
      <use xlink:href="#DejaVuSans-65" x="132.080078"/>
      <use xlink:href="#DejaVuSans-6e" x="193.603516"/>
      <use xlink:href="#DejaVuSans-73" x="256.982422"/>
      <use xlink:href="#DejaVuSans-69" x="309.082031"/>
      <use xlink:href="#DejaVuSans-74" x="336.865234"/>
      <use xlink:href="#DejaVuSans-69" x="376.074219"/>
      <use xlink:href="#DejaVuSans-65" x="403.857422"/>
      <use xlink:href="#DejaVuSans-73" x="465.380859"/>
      <use xlink:href="#DejaVuSans-20" x="517.480469"/>
      <use xlink:href="#DejaVuSans-5b" x="549.267578"/>
      <use xlink:href="#DejaVuSans-61" x="588.28125"/>
      <use xlink:href="#DejaVuSans-2e" x="649.560547"/>
      <use xlink:href="#DejaVuSans-75" x="681.347656"/>
      <use xlink:href="#DejaVuSans-2e" x="744.726562"/>
      <use xlink:href="#DejaVuSans-5d" x="776.513672"/>
     </g>
    </g>
   </g>
   <g id="line2d_17">
    <path d="M 73.832727 301.246352 
L 73.865267 296.495065 
L 73.895301 307.584 
L 74.370841 302.713761 
L 74.410882 307.584 
L 74.871404 300.825142 
L 74.886421 307.584 
L 74.906449 300.542385 
L 75.374488 307.584 
L 75.387 300.792966 
L 75.915092 307.584 
L 76.373124 307.584 
L 76.393137 301.572984 
L 76.878698 301.986394 
L 76.918739 303.72681 
L 77.351732 297.97515 
L 77.389283 307.584 
L 77.902357 307.584 
L 78.360374 288.436503 
L 78.397925 307.584 
L 78.880981 298.259856 
L 78.978585 307.584 
L 79.386555 307.584 
L 79.409073 305.410674 
L 79.459135 307.584 
L 80.41773 307.584 
L 80.462767 302.430029 
L 80.9283 307.584 
L 81.426373 302.401754 
L 81.839338 307.584 
L 81.876889 304.81786 
L 82.3324 307.584 
L 82.402475 289.434925 
L 82.852991 307.584 
L 82.883026 297.323835 
L 82.895538 307.584 
L 83.396116 307.584 
L 83.411133 304.726208 
L 83.911696 307.584 
L 84.387236 300.53361 
L 84.404758 307.584 
L 84.942872 307.584 
L 84.9629 305.426274 
L 85.395893 305.492576 
L 85.415906 302.570432 
L 85.465969 307.584 
L 85.878934 290.137916 
L 85.971543 307.584 
L 86.424564 307.584 
L 86.477116 298.542613 
L 86.857557 301.997119 
L 86.887592 299.585888 
L 86.9802 307.584 
L 87.393166 302.238925 
L 87.433206 307.584 
L 87.931279 307.584 
L 88.396812 300.278154 
L 88.421836 307.584 
L 88.887369 301.38578 
L 88.919894 307.584 
L 89.397939 307.584 
L 89.870988 300.031473 
L 89.901022 307.584 
L 90.411592 303.529855 
L 90.927187 307.584 
L 90.969734 302.219424 
L 91.472802 307.584 
L 91.90329 302.407604 
L 91.945851 307.584 
L 91.978376 304.536079 
L 92.48146 307.584 
L 92.894425 299.563462 
L 92.936971 307.584 
L 92.987034 301.669512 
L 93.399999 303.151546 
L 93.47258 307.584 
L 93.487597 304.986539 
L 93.918085 307.584 
L 93.940618 304.535104 
L 93.983164 307.584 
L 94.851656 307.584 
L 94.864168 296.904574 
L 94.94926 302.169699 
L 95.352219 307.584 
L 95.367237 287.119246 
L 95.439817 307.584 
L 95.942901 307.584 
L 96.400918 297.825972 
L 96.435963 307.584 
L 96.951543 307.584 
L 97.40956 302.171648 
L 97.429588 307.584 
L 97.479651 300.461459 
L 97.895121 290.015064 
L 97.947674 307.584 
L 97.985225 300.483883 
L 98.435741 307.584 
L 98.490799 303.773611 
L 98.916276 307.584 
L 98.996372 292.991809 
L 99.42686 299.88717 
L 99.481918 307.584 
L 99.499441 299.009649 
L 99.964974 307.584 
L 100.002509 298.610864 
L 100.420486 303.123271 
L 100.488071 307.584 
L 100.916053 299.491311 
L 100.993645 307.584 
L 101.421627 307.584 
L 101.446666 305.155218 
L 101.859631 307.584 
L 101.907188 302.941916 
L 101.947229 307.584 
L 102.385233 307.584 
L 102.420263 305.577403 
L 102.440291 307.584 
L 102.893312 307.584 
L 102.91082 305.068441 
L 102.960882 307.584 
L 103.361336 307.584 
L 103.416409 302.870739 
L 103.433916 307.584 
L 103.86442 307.584 
L 103.901955 296.137232 
L 103.949512 307.584 
L 104.407529 299.46011 
L 104.492621 307.584 
L 105.0007 307.584 
L 105.416186 299.146152 
L 105.453722 307.584 
L 105.506274 303.373851 
L 105.919255 298.301782 
L 106.011864 307.584 
L 106.444857 307.584 
L 106.514932 290.285144 
L 106.925392 301.904492 
L 107.002983 301.670487 
L 107.020506 307.584 
L 107.430966 296.252284 
L 107.503562 307.584 
L 107.523574 272.627481 
L 107.919032 296.319561 
L 107.97409 307.584 
L 108.011641 302.840514 
L 108.029148 274.988987 
L 108.512204 307.584 
L 108.534722 41.472 
L 108.965226 307.584 
L 109.035301 252.124698 
L 109.458288 305.574478 
L 109.540875 291.453222 
L 109.973868 307.584 
L 110.414362 304.115844 
L 110.449407 302.989693 
L 110.46693 307.584 
L 110.917446 295.838875 
L 110.967493 307.584 
L 111.42302 300.411733 
L 111.443033 307.584 
L 111.926088 299.648289 
L 111.958628 307.584 
L 112.431662 305.492576 
L 112.521766 307.584 
L 113.512901 307.584 
L 113.925866 299.532262 
L 114.018474 307.584 
L 114.43144 303.712184 
L 114.446457 307.584 
L 114.521543 304.217246 
L 114.932018 302.781038 
L 115.009594 307.584 
L 115.027117 297.610492 
L 115.410063 307.584 
L 115.532691 300.691564 
L 115.925643 301.737763 
L 116.018252 307.584 
L 116.035775 288.980565 
L 116.433723 307.584 
L 116.541349 245.066512 
L 116.939297 307.584 
L 116.974342 304.366425 
L 117.429853 296.815848 
L 117.945449 307.584 
L 117.962956 301.435506 
L 117.982984 307.584 
L 118.461029 304.857836 
L 118.906534 299.983696 
L 118.976609 307.584 
L 119.932699 307.584 
L 119.967745 295.842776 
L 119.985267 307.584 
L 120.458301 307.584 
L 120.475824 299.406483 
L 120.908817 302.353978 
L 120.941357 300.54141 
L 120.99391 307.584 
L 121.446931 303.213948 
L 121.522017 307.584 
L 121.534529 302.714736 
L 122.025085 307.584 
L 122.438051 305.492576 
L 122.490619 304.279648 
L 122.530659 307.584 
L 122.928607 295.204134 
L 123.033728 307.584 
L 123.471732 307.584 
L 123.539302 305.170818 
L 123.939771 300.695464 
L 124.00734 307.584 
L 124.042385 302.05367 
L 124.445344 307.584 
L 124.467863 305.492576 
L 124.48288 307.584 
L 124.99597 307.584 
L 125.453987 303.326075 
L 125.491537 307.584 
L 125.989595 307.584 
L 126.462629 301.130324 
L 126.535225 307.584 
L 126.963208 307.584 
L 127.058322 299.997347 
L 127.421225 307.584 
L 127.453764 302.927291 
L 127.491315 307.584 
L 127.956833 301.042572 
L 127.974355 307.584 
L 127.994383 302.589933 
L 128.462407 307.584 
L 128.499957 303.002368 
L 128.947968 305.492576 
L 128.980508 307.584 
L 129.003026 302.155073 
L 129.47606 300.483883 
L 129.941593 304.535104 
L 129.994161 307.584 
L 130.449672 302.537282 
L 130.517257 302.325702 
L 130.53727 307.584 
L 130.967758 301.116674 
L 131.002803 302.137522 
L 131.040354 307.584 
L 131.463326 307.584 
L 131.545928 294.079934 
L 131.998934 307.584 
L 132.451955 307.584 
L 132.471983 305.02164 
L 132.491996 307.584 
L 134.939784 307.584 
L 134.972324 301.338004 
L 135.009859 304.048567 
L 135.497926 307.584 
L 135.570506 302.286701 
L 135.948442 301.220027 
L 136.021022 307.584 
L 136.456506 295.85155 
L 136.524091 307.584 
L 136.95959 307.584 
L 136.99462 299.86767 
L 137.009637 307.584 
L 137.452652 304.299148 
L 137.500194 307.584 
L 138.0208 307.584 
L 138.441266 302.131672 
L 138.513862 307.584 
L 138.946855 303.174947 
L 138.996902 307.584 
L 139.0845 304.939738 
L 139.49247 307.584 
L 139.552539 305.297572 
L 140.00805 307.584 
L 140.478594 298.061927 
L 140.496117 307.584 
L 140.561181 304.535104 
L 141.016708 307.584 
L 141.507265 307.584 
L 141.970292 305.073316 
L 141.990305 303.29195 
L 142.007828 307.584 
L 142.02535 307.584 
L 142.50089 307.584 
L 142.513402 301.684137 
L 142.963918 301.142999 
L 143.001468 307.584 
L 143.01398 304.115844 
L 143.436952 307.584 
L 143.469492 302.561657 
L 143.507042 307.584 
L 143.97007 304.939738 
L 144.025128 307.584 
L 144.505678 307.584 
L 144.520695 300.262554 
L 144.953689 307.584 
L 144.971211 301.097173 
L 145.003736 307.584 
L 145.476785 303.563006 
L 145.494308 307.584 
L 145.514321 304.731083 
L 146.014899 307.584 
L 146.485428 304.18312 
L 146.537996 307.584 
L 147.003513 307.584 
L 147.023541 305.661255 
L 147.514098 307.584 
L 147.549143 305.743157 
L 148.032184 307.584 
L 148.4827 307.584 
L 148.502728 302.691335 
L 148.522756 305.492576 
L 149.043347 307.584 
L 149.4438 304.467827 
L 149.47634 299.216354 
L 149.528893 307.584 
L 149.548921 301.293153 
L 150.016944 307.584 
L 150.497494 305.421399 
L 150.522518 307.584 
L 151.025602 307.584 
L 151.476118 304.955338 
L 151.548698 307.584 
L 152.001704 307.584 
L 152.019227 304.304998 
L 152.03675 305.738282 
L 152.457231 307.584 
L 152.492261 304.857836 
L 152.527306 307.584 
L 152.975317 305.170818 
L 153.030375 307.584 
L 153.465874 304.723283 
L 153.500919 307.584 
L 153.535949 303.879888 
L 154.001482 305.661255 
L 154.024015 307.584 
L 154.039033 304.60238 
L 154.512067 301.890842 
L 154.527084 307.584 
L 155.030152 307.584 
L 155.498191 302.360802 
L 155.523214 307.584 
L 155.538232 304.550704 
L 156.001259 295.968554 
L 156.0413 307.584 
L 156.459276 307.584 
L 156.494322 302.137522 
L 156.531872 304.852961 
L 156.96236 307.584 
L 156.977377 303.73071 
L 157.049958 307.584 
L 158.061106 307.584 
L 158.464065 305.155218 
L 158.581697 307.584 
L 159.037224 307.584 
L 159.054731 302.45538 
L 159.472707 301.448181 
L 159.52778 307.584 
L 159.975791 307.584 
L 159.993298 303.091095 
L 160.048371 307.584 
L 160.616519 307.584 
L 161.001956 303.597132 
L 161.06453 307.584 
L 162.466125 307.584 
L 162.513682 304.785684 
L 162.5362 307.584 
L 162.969193 307.584 
L 163.086826 300.567735 
L 163.474767 307.584 
L 163.489785 299.420134 
L 163.539847 307.584 
L 163.980341 307.584 
L 163.992853 298.074602 
L 164.047926 307.584 
L 164.503438 307.584 
L 164.528461 305.155218 
L 164.556006 307.584 
L 165.009012 307.584 
L 165.031545 300.599912 
L 165.086603 307.584 
L 165.479556 307.584 
L 165.497063 303.043318 
L 165.549631 307.584 
L 165.997641 302.860015 
L 166.052699 307.584 
L 167.551914 307.584 
L 167.566931 304.048567 
L 168.014942 307.584 
L 168.03746 303.51328 
L 168.052477 307.584 
L 168.548044 307.584 
L 168.991044 300.219653 
L 169.09867 307.584 
L 169.481601 304.217246 
L 169.534169 307.584 
L 169.554181 305.405799 
L 169.984685 305.492576 
L 170.057265 307.584 
L 170.109818 301.636361 
L 170.557828 307.584 
L 170.995832 303.024793 
L 171.080925 307.584 
L 171.503912 304.872461 
L 171.566486 307.584 
L 172.069554 307.584 
L 172.104584 301.029897 
L 172.512554 303.245148 
L 172.572623 307.584 
L 172.605163 301.067922 
L 173.000605 305.007015 
L 173.02815 304.60238 
L 173.070696 307.584 
L 173.503689 298.37101 
L 173.54373 307.584 
L 174.05931 307.584 
L 174.076833 303.158371 
L 174.552372 299.339207 
L 174.60494 307.584 
L 175.93646 307.584 
L 176.024058 301.703637 
L 176.064099 302.224299 
L 176.111656 307.584 
L 176.512109 307.584 
L 176.549644 303.408952 
L 176.567167 307.584 
L 177.002666 307.584 
L 177.015178 305.155218 
L 177.120298 305.743157 
L 177.573319 307.584 
L 178.50188 307.584 
L 178.521893 302.2477 
L 178.56945 307.584 
L 179.019966 301.1586 
L 179.120076 307.584 
L 179.563075 307.584 
L 179.623144 303.867213 
L 180.016097 303.49573 
L 180.066144 307.584 
L 181.024739 307.584 
L 181.059784 301.071823 
L 181.114842 307.584 
L 181.582896 307.584 
L 181.620416 304.131444 
L 182.068427 307.584 
L 182.123485 301.115699 
L 182.574001 307.584 
L 182.629058 300.1163 
L 183.039549 303.711209 
L 183.079574 307.584 
L 183.107103 297.319935 
L 183.580168 307.584 
L 183.610202 305.574478 
L 184.033159 301.026971 
L 184.07071 307.584 
L 184.088247 304.704757 
L 184.548754 307.584 
L 184.646374 290.850658 
L 185.09689 307.584 
L 185.149442 305.492576 
L 185.58242 307.584 
L 186.055485 307.584 
L 186.135567 295.921752 
L 186.581072 307.584 
L 186.638635 303.879888 
L 187.066633 307.584 
L 188.04023 307.584 
L 188.075275 297.946875 
L 188.092783 307.584 
L 188.545804 307.584 
L 188.598357 302.941916 
L 188.6184 307.584 
L 189.02886 301.390655 
L 189.068916 307.584 
L 189.121468 304.81786 
L 189.519401 302.238925 
L 189.627042 307.584 
L 190.057515 302.545082 
L 190.130111 307.584 
L 190.580627 307.584 
L 190.635685 300.369807 
L 191.088706 307.584 
L 191.103708 301.534958 
L 191.141259 307.584 
L 191.576773 307.584 
L 191.589269 297.394036 
L 191.644327 307.584 
L 192.029763 305.23712 
L 192.079841 307.584 
L 192.535337 304.79056 
L 192.567877 305.02164 
L 192.58291 307.584 
L 192.652969 295.223635 
L 193.088484 307.584 
L 193.158543 295.251912 
L 193.594057 307.584 
L 193.661642 305.323897 
L 194.099631 307.584 
L 195.543788 307.584 
L 195.561295 299.194903 
L 195.59634 307.584 
L 196.084376 307.584 
L 196.534892 305.405799 
L 196.569938 298.010251 
L 196.592456 307.584 
L 197.073006 307.584 
L 197.140591 302.231125 
L 197.636143 307.584 
L 198.119199 307.584 
L 198.139242 305.073316 
L 198.542186 307.584 
L 198.589728 303.683909 
L 198.642311 305.410674 
L 198.709865 307.584 
L 199.045255 307.584 
L 199.145379 302.968242 
L 199.210459 305.492576 
L 199.630941 307.584 
L 199.650953 301.973719 
L 200.071435 307.584 
L 201.568144 307.584 
L 202.051169 305.492576 
L 202.091225 303.664408 
L 202.106258 307.584 
L 202.579292 301.40333 
L 203.044809 307.584 
L 203.084866 303.488904 
L 203.550383 301.182 
L 203.590439 307.584 
L 205.082138 307.584 
L 205.137196 301.216126 
L 205.607724 307.584 
L 205.637759 302.131672 
L 205.725356 307.584 
L 206.095791 300.044149 
L 206.22592 307.584 
L 206.616367 299.991497 
L 206.733999 307.584 
L 207.106939 307.584 
L 207.119435 302.792738 
L 207.672581 307.584 
L 208.060523 303.624432 
L 208.566097 305.410674 
L 208.681224 302.974092 
L 209.104211 307.584 
L 210.605931 307.584 
L 210.620932 300.878768 
L 210.723563 304.202621 
L 211.066438 304.401525 
L 211.106494 302.87659 
L 211.226631 307.584 
L 211.559515 307.584 
L 211.732205 304.130469 
L 212.062584 307.584 
L 212.62071 307.584 
L 212.740848 300.808566 
L 213.076237 304.939738 
L 213.111282 307.584 
L 213.243916 300.059749 
L 213.74949 307.584 
L 217.115817 307.584 
L 217.621391 303.374826 
L 218.066927 302.86879 
L 218.12449 307.584 
L 220.056683 307.584 
L 220.07419 303.74631 
L 220.129248 307.584 
L 220.171809 307.584 
L 220.259407 304.81786 
L 220.632347 307.584 
L 220.747474 304.520478 
L 221.120383 307.584 
L 222.129025 307.584 
L 222.73723 304.483427 
L 223.12016 307.584 
L 223.140173 303.138871 
L 223.155206 307.584 
L 223.658274 307.584 
L 223.745872 302.922416 
L 223.993663 303.966665 
L 224.131308 307.584 
L 224.496732 307.584 
L 224.754514 301.465732 
L 225.077407 303.408952 
L 225.139951 307.584 
L 225.257583 303.597132 
L 225.57797 304.60238 
L 225.628017 305.405799 
L 225.763187 303.95204 
L 226.081039 304.60238 
L 226.148624 307.584 
L 226.266256 303.572756 
L 226.619152 307.584 
L 226.77183 296.934801 
L 227.092186 307.584 
L 227.162277 303.279274 
L 227.577748 307.584 
L 227.69538 307.584 
L 227.780472 300.742265 
L 228.155887 307.584 
L 229.091964 307.584 
L 229.147022 305.574478 
L 229.770228 304.346924 
L 230.098101 307.584 
L 230.138157 299.305081 
L 230.275802 307.584 
L 231.264432 307.584 
L 231.592305 297.936149 
L 231.770006 307.584 
L 232.185476 307.584 
L 232.595936 303.547405 
L 232.69105 307.584 
L 233.081497 304.81786 
L 233.149082 307.584 
L 233.602104 302.503156 
L 233.654656 307.584 
L 234.087634 304.838336 
L 234.140217 307.584 
L 234.595714 300.985045 
L 235.659445 307.584 
L 236.00733 307.584 
L 236.107455 305.492576 
L 236.165018 307.584 
L 237.641684 307.584 
L 237.77936 302.25745 
L 238.104727 307.584 
L 238.162291 304.150944 
L 238.279923 307.584 
L 239.155931 307.584 
L 239.203473 303.524005 
L 239.611427 301.378955 
L 239.661505 307.584 
L 239.709047 305.150343 
L 240.096988 307.584 
L 240.212115 302.66111 
L 240.62007 307.584 
L 240.670147 304.433701 
L 241.173216 307.584 
L 241.611205 300.470234 
L 241.67879 307.584 
L 243.120441 307.584 
L 243.172993 297.008902 
L 243.676062 307.584 
L 244.171614 303.043318 
L 245.160244 307.584 
L 245.620781 303.947165 
L 247.230112 307.584 
L 247.685638 307.584 
L 247.73318 303.962765 
L 248.023503 307.584 
L 250.608966 307.584 
L 250.626473 303.662458 
L 251.202138 301.718263 
L 251.602576 307.584 
L 251.617608 301.251227 
L 251.675172 307.584 
L 252.120677 304.467827 
L 252.175735 307.584 
L 252.68632 307.584 
L 253.189388 302.739112 
L 254.683592 307.584 
L 254.748671 302.744962 
L 255.206703 307.584 
L 255.677232 307.584 
L 255.759819 303.244173 
L 256.202819 305.323897 
L 256.260382 303.009193 
L 256.723425 307.584 
L 256.763451 304.498053 
L 257.193954 307.584 
L 258.185089 304.60238 
L 259.191226 305.241995 
L 260.0372 307.584 
L 260.199868 299.187103 
L 260.537763 307.584 
L 260.69044 305.574478 
L 260.830591 307.584 
L 264.209445 307.584 
L 265.273145 295.192435 
L 265.706154 307.584 
L 265.741169 304.852961 
L 266.209223 307.584 
L 266.759833 304.515603 
L 267.217865 307.584 
L 271.237433 307.584 
L 271.783063 304.193846 
L 272.050867 307.584 
L 272.216041 304.346924 
L 272.283626 307.584 
L 274.758943 307.584 
L 274.811495 302.384203 
L 275.241998 307.584 
L 275.327091 302.185298 
L 275.842686 286.774087 
L 276.235639 307.584 
L 276.713684 307.584 
L 276.851329 299.313856 
L 278.162821 300.338605 
L 278.225395 303.794086 
L 278.655867 304.217246 
L 278.798554 307.584 
L 282.325044 307.584 
L 283.333717 303.447953 
L 283.796729 307.584 
L 284.567602 307.584 
L 284.662716 304.920238 
L 284.805372 304.771059 
L 285.165785 301.013321 
L 285.30844 304.703783 
L 285.673864 303.130096 
L 285.758956 303.875013 
L 285.814045 302.770312 
L 286.176932 307.584 
L 286.792653 307.584 
L 286.822687 305.743157 
L 287.173078 302.341302 
L 287.325756 307.584 
L 287.83133 304.60238 
L 287.853848 307.584 
L 289.876143 307.584 
L 290.349178 305.410674 
L 290.852277 304.385925 
L 291.790829 296.485314 
L 291.820863 307.584 
L 292.293897 303.879888 
L 292.829505 307.584 
L 293.302539 303.192497 
L 293.335079 305.068441 
L 293.810619 302.224299 
L 293.835673 304.299148 
L 294.171032 300.965545 
L 294.313718 301.688037 
L 294.338741 307.584 
L 294.676605 302.275001 
L 294.816786 305.405799 
L 294.844315 281.141382 
L 295.317349 304.366425 
L 295.347384 304.304998 
L 295.850452 298.868271 
L 296.356026 304.986539 
L 296.819069 295.60487 
L 297.322138 301.807964 
L 297.367174 304.885137 
L 297.827712 303.158371 
L 297.867737 307.584 
L 298.373311 301.575909 
L 299.271838 307.584 
L 300.262973 307.584 
L 300.348065 300.464383 
L 300.363097 307.584 
L 300.683454 302.907791 
L 300.82611 307.584 
L 300.851133 302.88829 
L 300.878693 304.918287 
L 301.186523 307.584 
L 301.329178 307.584 
L 301.354233 305.492576 
L 301.789716 303.197372 
L 301.857301 307.584 
L 302.332841 304.805185 
L 303.273898 307.584 
L 303.374023 302.770312 
L 303.874586 307.584 
L 304.382665 265.331387 
L 304.815674 302.739112 
L 304.885734 301.243426 
L 305.318742 289.569478 
L 305.388802 301.521308 
L 305.824316 302.987742 
L 305.891871 307.584 
L 306.327385 305.743157 
L 306.700294 307.584 
L 306.832959 298.346634 
L 307.195877 307.584 
L 308.094403 307.584 
L 308.204519 303.865263 
L 308.34467 305.323897 
L 308.372198 302.049771 
L 308.707588 307.584 
L 308.845233 301.718263 
L 309.210656 307.584 
L 309.350837 303.203223 
L 309.8514 301.644161 
L 310.359479 286.283651 
L 310.389514 303.177872 
L 310.860043 290.390447 
L 310.892582 307.584 
L 313.873473 307.584 
L 314.376542 300.381507 
L 314.714436 307.584 
L 314.87961 303.654658 
L 315.202472 307.584 
L 315.357655 307.584 
L 315.38769 236.020249 
L 315.708046 298.029751 
L 315.860724 304.319624 
L 315.888253 273.132543 
L 316.211145 307.584 
L 316.366298 307.584 
L 316.393827 287.948989 
L 316.714214 305.574478 
L 316.869366 307.584 
L 316.896926 302.282801 
L 317.372465 305.405799 
L 317.405005 297.34431 
L 317.837983 305.574478 
L 317.873028 302.991642 
L 317.908073 307.584 
L 318.356084 307.584 
L 318.413647 304.3869 
L 318.849131 301.672437 
L 318.916716 304.216271 
L 319.21706 307.584 
L 319.349694 298.176004 
L 319.367232 307.584 
L 319.419784 305.155218 
L 319.710107 307.584 
L 319.852762 305.543277 
L 319.887808 298.970648 
L 319.922853 301.279502 
L 320.10807 307.584 
L 320.355861 296.50774 
L 321.397044 302.773237 
L 321.867572 300.237203 
L 321.900112 307.584 
L 322.373146 293.115636 
L 322.428204 305.155218 
L 322.876215 303.237348 
L 322.931273 297.213657 
L 323.381789 246.412043 
L 323.409318 293.054211 
L 323.884857 280.971726 
L 324.217741 304.048567 
L 324.387926 307.584 
L 324.422971 305.068441 
L 324.72081 307.584 
L 324.888519 307.584 
L 325.391588 304.80031 
L 325.434119 307.584 
L 326.390209 289.25162 
L 326.420243 307.584 
L 326.893277 293.311616 
L 327.371322 300.700339 
L 327.398882 295.800849 
L 327.721744 305.410674 
L 327.874421 301.962018 
L 327.90195 303.52108 
L 328.37749 307.584 
L 328.410029 303.529855 
L 328.880558 307.584 
L 328.913098 303.3017 
L 329.388637 307.584 
L 329.418672 271.795788 
L 329.891706 307.584 
L 329.92174 295.40499 
L 330.377267 307.584 
L 330.424809 303.238323 
L 330.897843 303.116445 
L 330.962923 300.228428 
L 331.368372 307.584 
L 331.465991 303.091095 
L 331.868965 307.584 
L 331.90398 304.785684 
L 332.121737 307.584 
L 333.408205 307.584 
L 333.420732 304.265022 
L 333.881239 302.813213 
L 333.911274 307.584 
L 334.386813 275.007511 
L 334.426869 307.584 
L 334.889882 294.880427 
L 335.395456 296.393663 
L 335.898555 298.877046 
L 336.406634 294.489443 
L 336.907197 300.993821 
L 337.415276 299.809168 
L 337.915839 296.554542 
L 338.351323 305.569603 
L 338.386368 297.933224 
L 338.418908 302.005894 
L 338.879446 301.833315 
L 338.919471 293.012284 
L 339.397516 307.584 
L 339.412548 305.492576 
L 339.900584 307.584 
L 339.915617 304.737908 
L 340.396167 302.641609 
L 340.406158 307.584 
L 340.423696 298.986249 
L 340.89673 307.584 
L 340.926765 302.972142 
L 341.402304 303.142771 
L 341.905373 307.584 
L 341.967947 305.661255 
L 342.405936 307.584 
L 342.46851 300.582361 
L 342.909035 307.584 
L 343.414609 302.146298 
L 343.917677 307.584 
L 345.431894 307.584 
L 346.372951 302.137522 
L 346.402985 302.739112 
L 346.873545 295.928578 
L 346.976144 307.584 
L 347.411658 304.382025 
L 347.479213 307.584 
L 347.912221 307.584 
L 348.420301 283.042675 
L 348.885819 302.204799 
L 348.955909 301.694862 
L 349.391393 307.584 
L 349.426438 300.478034 
L 349.927001 302.430029 
L 349.964552 296.837298 
L 350.420078 301.755314 
L 350.465115 295.281162 
L 350.920641 307.584 
L 352.419856 307.584 
L 353.914059 300.831967 
L 354.422139 303.018943 
L 355.993918 304.351799 
L 356.939987 307.584 
L 359.890843 307.584 
L 360.00099 303.597132 
L 361.522722 307.584 
L 363.439882 307.584 
L 367.887448 305.04114 
L 368.393022 307.584 
L 372.913183 307.584 
L 373.921825 304.433701 
L 375.556179 307.584 
L 376.447189 307.584 
L 380.909787 303.428453 
L 382.804429 297.787945 
L 383.307498 301.521308 
L 383.813072 307.584 
L 398.487273 307.584 
L 398.487273 307.584 
" clip-path="url(#p03e18b8066)" style="fill: none; stroke: #1f77b4; stroke-width: 1.5; stroke-linecap: square"/>
   </g>
   <g id="patch_3">
    <path d="M 57.6 307.584 
L 57.6 41.472 
" style="fill: none; stroke: #000000; stroke-width: 0.8; stroke-linejoin: miter; stroke-linecap: square"/>
   </g>
   <g id="patch_4">
    <path d="M 414.72 307.584 
L 414.72 41.472 
" style="fill: none; stroke: #000000; stroke-width: 0.8; stroke-linejoin: miter; stroke-linecap: square"/>
   </g>
   <g id="patch_5">
    <path d="M 57.6 307.584 
L 414.72 307.584 
" style="fill: none; stroke: #000000; stroke-width: 0.8; stroke-linejoin: miter; stroke-linecap: square"/>
   </g>
   <g id="patch_6">
    <path d="M 57.6 41.472 
L 414.72 41.472 
" style="fill: none; stroke: #000000; stroke-width: 0.8; stroke-linejoin: miter; stroke-linecap: square"/>
   </g>
   <g id="legend_1">
    <g id="patch_7">
     <path d="M 323.385625 64.150125 
L 407.72 64.150125 
Q 409.72 64.150125 409.72 62.150125 
L 409.72 48.472 
Q 409.72 46.472 407.72 46.472 
L 323.385625 46.472 
Q 321.385625 46.472 321.385625 48.472 
L 321.385625 62.150125 
Q 321.385625 64.150125 323.385625 64.150125 
z
" style="fill: #ffffff; opacity: 0.8; stroke: #cccccc; stroke-linejoin: miter"/>
    </g>
    <g id="line2d_18">
     <path d="M 325.385625 54.570438 
L 335.385625 54.570438 
L 345.385625 54.570438 
" style="fill: none; stroke: #1f77b4; stroke-width: 1.5; stroke-linecap: square"/>
    </g>
    <g id="text_19">
     <!-- (315, 112) -->
     <g transform="translate(353.385625 58.070438) scale(0.1 -0.1)">
      <defs>
       <path id="DejaVuSans-28" d="M 1984 4856 
Q 1566 4138 1362 3434 
Q 1159 2731 1159 2009 
Q 1159 1288 1364 580 
Q 1569 -128 1984 -844 
L 1484 -844 
Q 1016 -109 783 600 
Q 550 1309 550 2009 
Q 550 2706 781 3412 
Q 1013 4119 1484 4856 
L 1984 4856 
z
" transform="scale(0.015625)"/>
       <path id="DejaVuSans-2c" d="M 750 794 
L 1409 794 
L 1409 256 
L 897 -744 
L 494 -744 
L 750 256 
L 750 794 
z
" transform="scale(0.015625)"/>
       <path id="DejaVuSans-29" d="M 513 4856 
L 1013 4856 
Q 1481 4119 1714 3412 
Q 1947 2706 1947 2009 
Q 1947 1309 1714 600 
Q 1481 -109 1013 -844 
L 513 -844 
Q 928 -128 1133 580 
Q 1338 1288 1338 2009 
Q 1338 2731 1133 3434 
Q 928 4138 513 4856 
z
" transform="scale(0.015625)"/>
      </defs>
      <use xlink:href="#DejaVuSans-28"/>
      <use xlink:href="#DejaVuSans-33" x="39.013672"/>
      <use xlink:href="#DejaVuSans-31" x="102.636719"/>
      <use xlink:href="#DejaVuSans-35" x="166.259766"/>
      <use xlink:href="#DejaVuSans-2c" x="229.882812"/>
      <use xlink:href="#DejaVuSans-20" x="261.669922"/>
      <use xlink:href="#DejaVuSans-31" x="293.457031"/>
      <use xlink:href="#DejaVuSans-31" x="357.080078"/>
      <use xlink:href="#DejaVuSans-32" x="420.703125"/>
      <use xlink:href="#DejaVuSans-29" x="484.326172"/>
     </g>
    </g>
   </g>
  </g>
 </g>
 <defs>
  <clipPath id="p03e18b8066">
   <rect x="57.6" y="41.472" width="357.12" height="266.112"/>
  </clipPath>
 </defs>
</svg>
