<?xml version="1.0" encoding="utf-8" standalone="no"?>
<!DOCTYPE svg PUBLIC "-//W3C//DTD SVG 1.1//EN"
  "http://www.w3.org/Graphics/SVG/1.1/DTD/svg11.dtd">
<svg xmlns:xlink="http://www.w3.org/1999/xlink" width="460.8pt" height="345.6pt" viewBox="0 0 460.8 345.6" xmlns="http://www.w3.org/2000/svg" version="1.1">
 <metadata>
  <rdf:RDF xmlns:dc="http://purl.org/dc/elements/1.1/" xmlns:cc="http://creativecommons.org/ns#" xmlns:rdf="http://www.w3.org/1999/02/22-rdf-syntax-ns#">
   <cc:Work>
    <dc:type rdf:resource="http://purl.org/dc/dcmitype/StillImage"/>
    <dc:date>2025-12-03T20:42:15.842651</dc:date>
    <dc:format>image/svg+xml</dc:format>
    <dc:creator>
     <cc:Agent>
      <dc:title>Matplotlib v3.8.4, https://matplotlib.org/</dc:title>
     </cc:Agent>
    </dc:creator>
   </cc:Work>
  </rdf:RDF>
 </metadata>
 <defs>
  <style type="text/css">*{stroke-linejoin: round; stroke-linecap: butt}</style>
 </defs>
 <g id="figure_1">
  <g id="patch_1">
   <path d="M 0 345.6 
L 460.8 345.6 
L 460.8 0 
L 0 0 
z
" style="fill: #ffffff"/>
  </g>
  <g id="axes_1">
   <g id="patch_2">
    <path d="M 57.6 307.584 
L 414.72 307.584 
L 414.72 41.472 
L 57.6 41.472 
z
" style="fill: #ffffff"/>
   </g>
   <g id="matplotlib.axis_1">
    <g id="xtick_1">
     <g id="line2d_1">
      <defs>
       <path id="m34db6a9c89" d="M 0 0 
L 0 3.5 
" style="stroke: #000000; stroke-width: 0.8"/>
      </defs>
      <g>
       <use xlink:href="#m34db6a9c89" x="73.818841" y="307.584" style="stroke: #000000; stroke-width: 0.8"/>
      </g>
     </g>
     <g id="text_1">
      <!-- 300 -->
      <g transform="translate(64.275091 322.182437) scale(0.1 -0.1)">
       <defs>
        <path id="DejaVuSans-33" d="M 2597 2516 
Q 3050 2419 3304 2112 
Q 3559 1806 3559 1356 
Q 3559 666 3084 287 
Q 2609 -91 1734 -91 
Q 1441 -91 1130 -33 
Q 819 25 488 141 
L 488 750 
Q 750 597 1062 519 
Q 1375 441 1716 441 
Q 2309 441 2620 675 
Q 2931 909 2931 1356 
Q 2931 1769 2642 2001 
Q 2353 2234 1838 2234 
L 1294 2234 
L 1294 2753 
L 1863 2753 
Q 2328 2753 2575 2939 
Q 2822 3125 2822 3475 
Q 2822 3834 2567 4026 
Q 2313 4219 1838 4219 
Q 1578 4219 1281 4162 
Q 984 4106 628 3988 
L 628 4550 
Q 988 4650 1302 4700 
Q 1616 4750 1894 4750 
Q 2613 4750 3031 4423 
Q 3450 4097 3450 3541 
Q 3450 3153 3228 2886 
Q 3006 2619 2597 2516 
z
" transform="scale(0.015625)"/>
        <path id="DejaVuSans-30" d="M 2034 4250 
Q 1547 4250 1301 3770 
Q 1056 3291 1056 2328 
Q 1056 1369 1301 889 
Q 1547 409 2034 409 
Q 2525 409 2770 889 
Q 3016 1369 3016 2328 
Q 3016 3291 2770 3770 
Q 2525 4250 2034 4250 
z
M 2034 4750 
Q 2819 4750 3233 4129 
Q 3647 3509 3647 2328 
Q 3647 1150 3233 529 
Q 2819 -91 2034 -91 
Q 1250 -91 836 529 
Q 422 1150 422 2328 
Q 422 3509 836 4129 
Q 1250 4750 2034 4750 
z
" transform="scale(0.015625)"/>
       </defs>
       <use xlink:href="#DejaVuSans-33"/>
       <use xlink:href="#DejaVuSans-30" x="63.623047"/>
       <use xlink:href="#DejaVuSans-30" x="127.246094"/>
      </g>
     </g>
    </g>
    <g id="xtick_2">
     <g id="line2d_2">
      <g>
       <use xlink:href="#m34db6a9c89" x="123.878205" y="307.584" style="stroke: #000000; stroke-width: 0.8"/>
      </g>
     </g>
     <g id="text_2">
      <!-- 400 -->
      <g transform="translate(114.334455 322.182437) scale(0.1 -0.1)">
       <defs>
        <path id="DejaVuSans-34" d="M 2419 4116 
L 825 1625 
L 2419 1625 
L 2419 4116 
z
M 2253 4666 
L 3047 4666 
L 3047 1625 
L 3713 1625 
L 3713 1100 
L 3047 1100 
L 3047 0 
L 2419 0 
L 2419 1100 
L 313 1100 
L 313 1709 
L 2253 4666 
z
" transform="scale(0.015625)"/>
       </defs>
       <use xlink:href="#DejaVuSans-34"/>
       <use xlink:href="#DejaVuSans-30" x="63.623047"/>
       <use xlink:href="#DejaVuSans-30" x="127.246094"/>
      </g>
     </g>
    </g>
    <g id="xtick_3">
     <g id="line2d_3">
      <g>
       <use xlink:href="#m34db6a9c89" x="173.937569" y="307.584" style="stroke: #000000; stroke-width: 0.8"/>
      </g>
     </g>
     <g id="text_3">
      <!-- 500 -->
      <g transform="translate(164.393819 322.182437) scale(0.1 -0.1)">
       <defs>
        <path id="DejaVuSans-35" d="M 691 4666 
L 3169 4666 
L 3169 4134 
L 1269 4134 
L 1269 2991 
Q 1406 3038 1543 3061 
Q 1681 3084 1819 3084 
Q 2600 3084 3056 2656 
Q 3513 2228 3513 1497 
Q 3513 744 3044 326 
Q 2575 -91 1722 -91 
Q 1428 -91 1123 -41 
Q 819 9 494 109 
L 494 744 
Q 775 591 1075 516 
Q 1375 441 1709 441 
Q 2250 441 2565 725 
Q 2881 1009 2881 1497 
Q 2881 1984 2565 2268 
Q 2250 2553 1709 2553 
Q 1456 2553 1204 2497 
Q 953 2441 691 2322 
L 691 4666 
z
" transform="scale(0.015625)"/>
       </defs>
       <use xlink:href="#DejaVuSans-35"/>
       <use xlink:href="#DejaVuSans-30" x="63.623047"/>
       <use xlink:href="#DejaVuSans-30" x="127.246094"/>
      </g>
     </g>
    </g>
    <g id="xtick_4">
     <g id="line2d_4">
      <g>
       <use xlink:href="#m34db6a9c89" x="223.996933" y="307.584" style="stroke: #000000; stroke-width: 0.8"/>
      </g>
     </g>
     <g id="text_4">
      <!-- 600 -->
      <g transform="translate(214.453183 322.182437) scale(0.1 -0.1)">
       <defs>
        <path id="DejaVuSans-36" d="M 2113 2584 
Q 1688 2584 1439 2293 
Q 1191 2003 1191 1497 
Q 1191 994 1439 701 
Q 1688 409 2113 409 
Q 2538 409 2786 701 
Q 3034 994 3034 1497 
Q 3034 2003 2786 2293 
Q 2538 2584 2113 2584 
z
M 3366 4563 
L 3366 3988 
Q 3128 4100 2886 4159 
Q 2644 4219 2406 4219 
Q 1781 4219 1451 3797 
Q 1122 3375 1075 2522 
Q 1259 2794 1537 2939 
Q 1816 3084 2150 3084 
Q 2853 3084 3261 2657 
Q 3669 2231 3669 1497 
Q 3669 778 3244 343 
Q 2819 -91 2113 -91 
Q 1303 -91 875 529 
Q 447 1150 447 2328 
Q 447 3434 972 4092 
Q 1497 4750 2381 4750 
Q 2619 4750 2861 4703 
Q 3103 4656 3366 4563 
z
" transform="scale(0.015625)"/>
       </defs>
       <use xlink:href="#DejaVuSans-36"/>
       <use xlink:href="#DejaVuSans-30" x="63.623047"/>
       <use xlink:href="#DejaVuSans-30" x="127.246094"/>
      </g>
     </g>
    </g>
    <g id="xtick_5">
     <g id="line2d_5">
      <g>
       <use xlink:href="#m34db6a9c89" x="274.056297" y="307.584" style="stroke: #000000; stroke-width: 0.8"/>
      </g>
     </g>
     <g id="text_5">
      <!-- 700 -->
      <g transform="translate(264.512547 322.182437) scale(0.1 -0.1)">
       <defs>
        <path id="DejaVuSans-37" d="M 525 4666 
L 3525 4666 
L 3525 4397 
L 1831 0 
L 1172 0 
L 2766 4134 
L 525 4134 
L 525 4666 
z
" transform="scale(0.015625)"/>
       </defs>
       <use xlink:href="#DejaVuSans-37"/>
       <use xlink:href="#DejaVuSans-30" x="63.623047"/>
       <use xlink:href="#DejaVuSans-30" x="127.246094"/>
      </g>
     </g>
    </g>
    <g id="xtick_6">
     <g id="line2d_6">
      <g>
       <use xlink:href="#m34db6a9c89" x="324.115661" y="307.584" style="stroke: #000000; stroke-width: 0.8"/>
      </g>
     </g>
     <g id="text_6">
      <!-- 800 -->
      <g transform="translate(314.571911 322.182437) scale(0.1 -0.1)">
       <defs>
        <path id="DejaVuSans-38" d="M 2034 2216 
Q 1584 2216 1326 1975 
Q 1069 1734 1069 1313 
Q 1069 891 1326 650 
Q 1584 409 2034 409 
Q 2484 409 2743 651 
Q 3003 894 3003 1313 
Q 3003 1734 2745 1975 
Q 2488 2216 2034 2216 
z
M 1403 2484 
Q 997 2584 770 2862 
Q 544 3141 544 3541 
Q 544 4100 942 4425 
Q 1341 4750 2034 4750 
Q 2731 4750 3128 4425 
Q 3525 4100 3525 3541 
Q 3525 3141 3298 2862 
Q 3072 2584 2669 2484 
Q 3125 2378 3379 2068 
Q 3634 1759 3634 1313 
Q 3634 634 3220 271 
Q 2806 -91 2034 -91 
Q 1263 -91 848 271 
Q 434 634 434 1313 
Q 434 1759 690 2068 
Q 947 2378 1403 2484 
z
M 1172 3481 
Q 1172 3119 1398 2916 
Q 1625 2713 2034 2713 
Q 2441 2713 2670 2916 
Q 2900 3119 2900 3481 
Q 2900 3844 2670 4047 
Q 2441 4250 2034 4250 
Q 1625 4250 1398 4047 
Q 1172 3844 1172 3481 
z
" transform="scale(0.015625)"/>
       </defs>
       <use xlink:href="#DejaVuSans-38"/>
       <use xlink:href="#DejaVuSans-30" x="63.623047"/>
       <use xlink:href="#DejaVuSans-30" x="127.246094"/>
      </g>
     </g>
    </g>
    <g id="xtick_7">
     <g id="line2d_7">
      <g>
       <use xlink:href="#m34db6a9c89" x="374.175025" y="307.584" style="stroke: #000000; stroke-width: 0.8"/>
      </g>
     </g>
     <g id="text_7">
      <!-- 900 -->
      <g transform="translate(364.631275 322.182437) scale(0.1 -0.1)">
       <defs>
        <path id="DejaVuSans-39" d="M 703 97 
L 703 672 
Q 941 559 1184 500 
Q 1428 441 1663 441 
Q 2288 441 2617 861 
Q 2947 1281 2994 2138 
Q 2813 1869 2534 1725 
Q 2256 1581 1919 1581 
Q 1219 1581 811 2004 
Q 403 2428 403 3163 
Q 403 3881 828 4315 
Q 1253 4750 1959 4750 
Q 2769 4750 3195 4129 
Q 3622 3509 3622 2328 
Q 3622 1225 3098 567 
Q 2575 -91 1691 -91 
Q 1453 -91 1209 -44 
Q 966 3 703 97 
z
M 1959 2075 
Q 2384 2075 2632 2365 
Q 2881 2656 2881 3163 
Q 2881 3666 2632 3958 
Q 2384 4250 1959 4250 
Q 1534 4250 1286 3958 
Q 1038 3666 1038 3163 
Q 1038 2656 1286 2365 
Q 1534 2075 1959 2075 
z
" transform="scale(0.015625)"/>
       </defs>
       <use xlink:href="#DejaVuSans-39"/>
       <use xlink:href="#DejaVuSans-30" x="63.623047"/>
       <use xlink:href="#DejaVuSans-30" x="127.246094"/>
      </g>
     </g>
    </g>
    <g id="text_8">
     <!-- m/z -->
     <g transform="translate(226.981094 335.860562) scale(0.1 -0.1)">
      <defs>
       <path id="DejaVuSans-6d" d="M 3328 2828 
Q 3544 3216 3844 3400 
Q 4144 3584 4550 3584 
Q 5097 3584 5394 3201 
Q 5691 2819 5691 2113 
L 5691 0 
L 5113 0 
L 5113 2094 
Q 5113 2597 4934 2840 
Q 4756 3084 4391 3084 
Q 3944 3084 3684 2787 
Q 3425 2491 3425 1978 
L 3425 0 
L 2847 0 
L 2847 2094 
Q 2847 2600 2669 2842 
Q 2491 3084 2119 3084 
Q 1678 3084 1418 2786 
Q 1159 2488 1159 1978 
L 1159 0 
L 581 0 
L 581 3500 
L 1159 3500 
L 1159 2956 
Q 1356 3278 1631 3431 
Q 1906 3584 2284 3584 
Q 2666 3584 2933 3390 
Q 3200 3197 3328 2828 
z
" transform="scale(0.015625)"/>
       <path id="DejaVuSans-2f" d="M 1625 4666 
L 2156 4666 
L 531 -594 
L 0 -594 
L 1625 4666 
z
" transform="scale(0.015625)"/>
       <path id="DejaVuSans-7a" d="M 353 3500 
L 3084 3500 
L 3084 2975 
L 922 459 
L 3084 459 
L 3084 0 
L 275 0 
L 275 525 
L 2438 3041 
L 353 3041 
L 353 3500 
z
" transform="scale(0.015625)"/>
      </defs>
      <use xlink:href="#DejaVuSans-6d"/>
      <use xlink:href="#DejaVuSans-2f" x="97.412109"/>
      <use xlink:href="#DejaVuSans-7a" x="131.103516"/>
     </g>
    </g>
   </g>
   <g id="matplotlib.axis_2">
    <g id="ytick_1">
     <g id="line2d_8">
      <defs>
       <path id="m6c949c154b" d="M 0 0 
L -3.5 0 
" style="stroke: #000000; stroke-width: 0.8"/>
      </defs>
      <g>
       <use xlink:href="#m6c949c154b" x="57.6" y="307.584" style="stroke: #000000; stroke-width: 0.8"/>
      </g>
     </g>
     <g id="text_9">
      <!-- 0 -->
      <g transform="translate(44.2375 311.383219) scale(0.1 -0.1)">
       <use xlink:href="#DejaVuSans-30"/>
      </g>
     </g>
    </g>
    <g id="ytick_2">
     <g id="line2d_9">
      <g>
       <use xlink:href="#m6c949c154b" x="57.6" y="276.489292" style="stroke: #000000; stroke-width: 0.8"/>
      </g>
     </g>
     <g id="text_10">
      <!-- 100 -->
      <g transform="translate(31.5125 280.288511) scale(0.1 -0.1)">
       <defs>
        <path id="DejaVuSans-31" d="M 794 531 
L 1825 531 
L 1825 4091 
L 703 3866 
L 703 4441 
L 1819 4666 
L 2450 4666 
L 2450 531 
L 3481 531 
L 3481 0 
L 794 0 
L 794 531 
z
" transform="scale(0.015625)"/>
       </defs>
       <use xlink:href="#DejaVuSans-31"/>
       <use xlink:href="#DejaVuSans-30" x="63.623047"/>
       <use xlink:href="#DejaVuSans-30" x="127.246094"/>
      </g>
     </g>
    </g>
    <g id="ytick_3">
     <g id="line2d_10">
      <g>
       <use xlink:href="#m6c949c154b" x="57.6" y="245.394584" style="stroke: #000000; stroke-width: 0.8"/>
      </g>
     </g>
     <g id="text_11">
      <!-- 200 -->
      <g transform="translate(31.5125 249.193803) scale(0.1 -0.1)">
       <defs>
        <path id="DejaVuSans-32" d="M 1228 531 
L 3431 531 
L 3431 0 
L 469 0 
L 469 531 
Q 828 903 1448 1529 
Q 2069 2156 2228 2338 
Q 2531 2678 2651 2914 
Q 2772 3150 2772 3378 
Q 2772 3750 2511 3984 
Q 2250 4219 1831 4219 
Q 1534 4219 1204 4116 
Q 875 4013 500 3803 
L 500 4441 
Q 881 4594 1212 4672 
Q 1544 4750 1819 4750 
Q 2544 4750 2975 4387 
Q 3406 4025 3406 3419 
Q 3406 3131 3298 2873 
Q 3191 2616 2906 2266 
Q 2828 2175 2409 1742 
Q 1991 1309 1228 531 
z
" transform="scale(0.015625)"/>
       </defs>
       <use xlink:href="#DejaVuSans-32"/>
       <use xlink:href="#DejaVuSans-30" x="63.623047"/>
       <use xlink:href="#DejaVuSans-30" x="127.246094"/>
      </g>
     </g>
    </g>
    <g id="ytick_4">
     <g id="line2d_11">
      <g>
       <use xlink:href="#m6c949c154b" x="57.6" y="214.299876" style="stroke: #000000; stroke-width: 0.8"/>
      </g>
     </g>
     <g id="text_12">
      <!-- 300 -->
      <g transform="translate(31.5125 218.099095) scale(0.1 -0.1)">
       <use xlink:href="#DejaVuSans-33"/>
       <use xlink:href="#DejaVuSans-30" x="63.623047"/>
       <use xlink:href="#DejaVuSans-30" x="127.246094"/>
      </g>
     </g>
    </g>
    <g id="ytick_5">
     <g id="line2d_12">
      <g>
       <use xlink:href="#m6c949c154b" x="57.6" y="183.205168" style="stroke: #000000; stroke-width: 0.8"/>
      </g>
     </g>
     <g id="text_13">
      <!-- 400 -->
      <g transform="translate(31.5125 187.004386) scale(0.1 -0.1)">
       <use xlink:href="#DejaVuSans-34"/>
       <use xlink:href="#DejaVuSans-30" x="63.623047"/>
       <use xlink:href="#DejaVuSans-30" x="127.246094"/>
      </g>
     </g>
    </g>
    <g id="ytick_6">
     <g id="line2d_13">
      <g>
       <use xlink:href="#m6c949c154b" x="57.6" y="152.11046" style="stroke: #000000; stroke-width: 0.8"/>
      </g>
     </g>
     <g id="text_14">
      <!-- 500 -->
      <g transform="translate(31.5125 155.909678) scale(0.1 -0.1)">
       <use xlink:href="#DejaVuSans-35"/>
       <use xlink:href="#DejaVuSans-30" x="63.623047"/>
       <use xlink:href="#DejaVuSans-30" x="127.246094"/>
      </g>
     </g>
    </g>
    <g id="ytick_7">
     <g id="line2d_14">
      <g>
       <use xlink:href="#m6c949c154b" x="57.6" y="121.015752" style="stroke: #000000; stroke-width: 0.8"/>
      </g>
     </g>
     <g id="text_15">
      <!-- 600 -->
      <g transform="translate(31.5125 124.81497) scale(0.1 -0.1)">
       <use xlink:href="#DejaVuSans-36"/>
       <use xlink:href="#DejaVuSans-30" x="63.623047"/>
       <use xlink:href="#DejaVuSans-30" x="127.246094"/>
      </g>
     </g>
    </g>
    <g id="ytick_8">
     <g id="line2d_15">
      <g>
       <use xlink:href="#m6c949c154b" x="57.6" y="89.921043" style="stroke: #000000; stroke-width: 0.8"/>
      </g>
     </g>
     <g id="text_16">
      <!-- 700 -->
      <g transform="translate(31.5125 93.720262) scale(0.1 -0.1)">
       <use xlink:href="#DejaVuSans-37"/>
       <use xlink:href="#DejaVuSans-30" x="63.623047"/>
       <use xlink:href="#DejaVuSans-30" x="127.246094"/>
      </g>
     </g>
    </g>
    <g id="ytick_9">
     <g id="line2d_16">
      <g>
       <use xlink:href="#m6c949c154b" x="57.6" y="58.826335" style="stroke: #000000; stroke-width: 0.8"/>
      </g>
     </g>
     <g id="text_17">
      <!-- 800 -->
      <g transform="translate(31.5125 62.625554) scale(0.1 -0.1)">
       <use xlink:href="#DejaVuSans-38"/>
       <use xlink:href="#DejaVuSans-30" x="63.623047"/>
       <use xlink:href="#DejaVuSans-30" x="127.246094"/>
      </g>
     </g>
    </g>
    <g id="text_18">
     <!-- Intensities [a.u.] -->
     <g transform="translate(25.432812 215.303) rotate(-90) scale(0.1 -0.1)">
      <defs>
       <path id="DejaVuSans-49" d="M 628 4666 
L 1259 4666 
L 1259 0 
L 628 0 
L 628 4666 
z
" transform="scale(0.015625)"/>
       <path id="DejaVuSans-6e" d="M 3513 2113 
L 3513 0 
L 2938 0 
L 2938 2094 
Q 2938 2591 2744 2837 
Q 2550 3084 2163 3084 
Q 1697 3084 1428 2787 
Q 1159 2491 1159 1978 
L 1159 0 
L 581 0 
L 581 3500 
L 1159 3500 
L 1159 2956 
Q 1366 3272 1645 3428 
Q 1925 3584 2291 3584 
Q 2894 3584 3203 3211 
Q 3513 2838 3513 2113 
z
" transform="scale(0.015625)"/>
       <path id="DejaVuSans-74" d="M 1172 4494 
L 1172 3500 
L 2356 3500 
L 2356 3053 
L 1172 3053 
L 1172 1153 
Q 1172 725 1289 603 
Q 1406 481 1766 481 
L 2356 481 
L 2356 0 
L 1766 0 
Q 1100 0 847 248 
Q 594 497 594 1153 
L 594 3053 
L 172 3053 
L 172 3500 
L 594 3500 
L 594 4494 
L 1172 4494 
z
" transform="scale(0.015625)"/>
       <path id="DejaVuSans-65" d="M 3597 1894 
L 3597 1613 
L 953 1613 
Q 991 1019 1311 708 
Q 1631 397 2203 397 
Q 2534 397 2845 478 
Q 3156 559 3463 722 
L 3463 178 
Q 3153 47 2828 -22 
Q 2503 -91 2169 -91 
Q 1331 -91 842 396 
Q 353 884 353 1716 
Q 353 2575 817 3079 
Q 1281 3584 2069 3584 
Q 2775 3584 3186 3129 
Q 3597 2675 3597 1894 
z
M 3022 2063 
Q 3016 2534 2758 2815 
Q 2500 3097 2075 3097 
Q 1594 3097 1305 2825 
Q 1016 2553 972 2059 
L 3022 2063 
z
" transform="scale(0.015625)"/>
       <path id="DejaVuSans-73" d="M 2834 3397 
L 2834 2853 
Q 2591 2978 2328 3040 
Q 2066 3103 1784 3103 
Q 1356 3103 1142 2972 
Q 928 2841 928 2578 
Q 928 2378 1081 2264 
Q 1234 2150 1697 2047 
L 1894 2003 
Q 2506 1872 2764 1633 
Q 3022 1394 3022 966 
Q 3022 478 2636 193 
Q 2250 -91 1575 -91 
Q 1294 -91 989 -36 
Q 684 19 347 128 
L 347 722 
Q 666 556 975 473 
Q 1284 391 1588 391 
Q 1994 391 2212 530 
Q 2431 669 2431 922 
Q 2431 1156 2273 1281 
Q 2116 1406 1581 1522 
L 1381 1569 
Q 847 1681 609 1914 
Q 372 2147 372 2553 
Q 372 3047 722 3315 
Q 1072 3584 1716 3584 
Q 2034 3584 2315 3537 
Q 2597 3491 2834 3397 
z
" transform="scale(0.015625)"/>
       <path id="DejaVuSans-69" d="M 603 3500 
L 1178 3500 
L 1178 0 
L 603 0 
L 603 3500 
z
M 603 4863 
L 1178 4863 
L 1178 4134 
L 603 4134 
L 603 4863 
z
" transform="scale(0.015625)"/>
       <path id="DejaVuSans-20" transform="scale(0.015625)"/>
       <path id="DejaVuSans-5b" d="M 550 4863 
L 1875 4863 
L 1875 4416 
L 1125 4416 
L 1125 -397 
L 1875 -397 
L 1875 -844 
L 550 -844 
L 550 4863 
z
" transform="scale(0.015625)"/>
       <path id="DejaVuSans-61" d="M 2194 1759 
Q 1497 1759 1228 1600 
Q 959 1441 959 1056 
Q 959 750 1161 570 
Q 1363 391 1709 391 
Q 2188 391 2477 730 
Q 2766 1069 2766 1631 
L 2766 1759 
L 2194 1759 
z
M 3341 1997 
L 3341 0 
L 2766 0 
L 2766 531 
Q 2569 213 2275 61 
Q 1981 -91 1556 -91 
Q 1019 -91 701 211 
Q 384 513 384 1019 
Q 384 1609 779 1909 
Q 1175 2209 1959 2209 
L 2766 2209 
L 2766 2266 
Q 2766 2663 2505 2880 
Q 2244 3097 1772 3097 
Q 1472 3097 1187 3025 
Q 903 2953 641 2809 
L 641 3341 
Q 956 3463 1253 3523 
Q 1550 3584 1831 3584 
Q 2591 3584 2966 3190 
Q 3341 2797 3341 1997 
z
" transform="scale(0.015625)"/>
       <path id="DejaVuSans-2e" d="M 684 794 
L 1344 794 
L 1344 0 
L 684 0 
L 684 794 
z
" transform="scale(0.015625)"/>
       <path id="DejaVuSans-75" d="M 544 1381 
L 544 3500 
L 1119 3500 
L 1119 1403 
Q 1119 906 1312 657 
Q 1506 409 1894 409 
Q 2359 409 2629 706 
Q 2900 1003 2900 1516 
L 2900 3500 
L 3475 3500 
L 3475 0 
L 2900 0 
L 2900 538 
Q 2691 219 2414 64 
Q 2138 -91 1772 -91 
Q 1169 -91 856 284 
Q 544 659 544 1381 
z
M 1991 3584 
L 1991 3584 
z
" transform="scale(0.015625)"/>
       <path id="DejaVuSans-5d" d="M 1947 4863 
L 1947 -844 
L 622 -844 
L 622 -397 
L 1369 -397 
L 1369 4416 
L 622 4416 
L 622 4863 
L 1947 4863 
z
" transform="scale(0.015625)"/>
      </defs>
      <use xlink:href="#DejaVuSans-49"/>
      <use xlink:href="#DejaVuSans-6e" x="29.492188"/>
      <use xlink:href="#DejaVuSans-74" x="92.871094"/>
      <use xlink:href="#DejaVuSans-65" x="132.080078"/>
      <use xlink:href="#DejaVuSans-6e" x="193.603516"/>
      <use xlink:href="#DejaVuSans-73" x="256.982422"/>
      <use xlink:href="#DejaVuSans-69" x="309.082031"/>
      <use xlink:href="#DejaVuSans-74" x="336.865234"/>
      <use xlink:href="#DejaVuSans-69" x="376.074219"/>
      <use xlink:href="#DejaVuSans-65" x="403.857422"/>
      <use xlink:href="#DejaVuSans-73" x="465.380859"/>
      <use xlink:href="#DejaVuSans-20" x="517.480469"/>
      <use xlink:href="#DejaVuSans-5b" x="549.267578"/>
      <use xlink:href="#DejaVuSans-61" x="588.28125"/>
      <use xlink:href="#DejaVuSans-2e" x="649.560547"/>
      <use xlink:href="#DejaVuSans-75" x="681.347656"/>
      <use xlink:href="#DejaVuSans-2e" x="744.726562"/>
      <use xlink:href="#DejaVuSans-5d" x="776.513672"/>
     </g>
    </g>
   </g>
   <g id="line2d_17">
    <path d="M 73.832727 307.584 
L 73.895301 300.306099 
L 74.370841 302.611021 
L 74.388364 307.584 
L 74.410882 303.464132 
L 74.871404 304.579628 
L 74.906449 307.584 
L 76.393137 307.584 
L 76.878698 302.910371 
L 76.918739 304.052685 
L 77.351732 307.584 
L 77.389283 303.561258 
L 77.88734 307.584 
L 77.902357 302.241364 
L 78.360374 299.281206 
L 78.397925 294.770661 
L 78.911015 307.584 
L 78.978585 302.987202 
L 79.386555 304.8913 
L 79.409073 307.584 
L 79.459135 300.229268 
L 79.919658 307.584 
L 80.41773 307.584 
L 80.462767 300.233617 
L 80.848218 307.584 
L 80.880743 301.916645 
L 80.9283 307.584 
L 81.839338 307.584 
L 81.876889 302.942988 
L 82.3324 307.584 
L 82.402475 303.771455 
L 82.852991 307.584 
L 82.883026 272.201991 
L 82.895538 307.584 
L 83.396116 303.721443 
L 83.411133 303.911345 
L 83.911696 307.584 
L 84.387236 302.424743 
L 84.404758 307.584 
L 84.887814 299.734942 
L 84.942872 304.559333 
L 84.9629 301.173706 
L 85.465969 307.584 
L 85.878934 298.386055 
L 85.971543 307.584 
L 86.887592 307.584 
L 86.902609 304.504247 
L 86.9802 307.584 
L 87.393166 301.794876 
L 87.433206 307.584 
L 87.891223 299.647964 
L 87.908746 307.584 
L 87.931279 298.981856 
L 88.396812 303.574305 
L 88.421836 307.584 
L 88.887369 307.584 
L 88.919894 303.923667 
L 89.365414 307.584 
L 89.397939 302.313846 
L 89.901022 307.584 
L 90.411592 307.584 
L 90.909665 303.696074 
L 90.927187 304.147636 
L 90.969734 307.584 
L 91.402727 298.596252 
L 91.420249 307.584 
L 91.472802 302.233391 
L 91.945851 307.584 
L 91.978376 303.882353 
L 92.431397 307.584 
L 92.48146 300.113297 
L 92.894425 302.091327 
L 92.909442 299.226119 
L 92.936971 307.584 
L 92.987034 303.620693 
L 93.47258 307.584 
L 93.487597 294.892431 
L 93.85302 307.584 
L 93.900577 298.901401 
L 93.940618 307.584 
L 94.894203 307.584 
L 94.94926 299.94224 
L 95.352219 307.584 
L 95.367237 296.292779 
L 95.439817 307.584 
L 95.907856 307.584 
L 95.915357 303.932365 
L 95.942901 307.584 
L 96.400918 301.39695 
L 96.41844 307.584 
L 96.435963 303.635189 
L 96.886464 300.08068 
L 96.903986 298.437517 
L 96.951543 307.584 
L 97.40956 307.584 
L 97.479651 304.072255 
L 97.895121 307.584 
L 97.912644 302.761059 
L 97.985225 303.685202 
L 98.435741 307.584 
L 98.490799 304.197649 
L 98.903764 301.004099 
L 98.956332 307.584 
L 98.996372 304.594124 
L 99.409338 302.119594 
L 99.499441 307.584 
L 99.909916 307.584 
L 100.002509 303.509796 
L 100.420486 307.584 
L 100.438008 303.585177 
L 100.488071 307.584 
L 100.916053 297.494529 
L 100.956109 307.584 
L 100.993645 301.111372 
L 101.421627 307.584 
L 101.446666 301.453486 
L 101.859631 302.628417 
L 101.907188 301.016421 
L 101.947229 307.584 
L 102.385233 303.161158 
L 102.420263 303.524292 
L 102.440291 307.584 
L 102.893312 307.584 
L 102.91082 301.584678 
L 102.960882 302.632041 
L 103.361336 307.584 
L 103.396381 299.113048 
L 103.433916 307.584 
L 103.86442 304.795624 
L 103.949512 307.584 
L 104.445079 307.584 
L 104.492621 302.321819 
L 104.910597 300.7004 
L 104.96066 307.584 
L 105.0007 303.398899 
L 105.416186 297.550339 
L 105.506274 307.584 
L 105.919255 307.584 
L 105.934272 303.000249 
L 106.011864 307.584 
L 106.372261 307.584 
L 106.424829 303.304672 
L 106.444857 303.435864 
L 106.514932 307.584 
L 106.925392 300.207524 
L 106.965448 307.584 
L 107.020506 301.43754 
L 107.486039 307.584 
L 107.523574 274.716387 
L 108.011641 307.584 
L 108.029148 292.754941 
L 108.512204 307.584 
L 108.534722 175.895378 
L 108.912658 307.584 
L 108.965226 303.978754 
L 109.035301 274.709863 
L 109.458288 304.295499 
L 109.540875 302.434166 
L 109.938823 307.584 
L 109.956345 302.266732 
L 109.973868 307.584 
L 110.414362 302.771931 
L 110.43439 303.127092 
L 110.46693 307.584 
L 110.932463 307.584 
L 110.939964 303.911345 
L 110.967493 307.584 
L 111.42302 300.71852 
L 111.443033 300.831592 
L 111.941106 307.584 
L 111.958628 304.258533 
L 112.431662 301.83619 
L 112.521766 307.584 
L 112.932241 303.896849 
L 112.967271 300.854062 
L 113.007327 307.584 
L 113.44032 303.223493 
L 113.512901 307.584 
L 113.925866 298.428819 
L 113.940883 307.584 
L 114.018474 298.609299 
L 114.43144 307.584 
L 114.521543 295.416474 
L 114.949525 307.584 
L 115.027117 302.857459 
L 115.435087 307.584 
L 115.532691 299.460961 
L 115.938155 307.584 
L 116.035775 299.721171 
L 116.421211 304.308546 
L 116.541349 281.892814 
L 116.974342 307.584 
L 117.932922 307.584 
L 117.945449 301.072232 
L 117.982984 307.584 
L 118.438496 300.499625 
L 118.461029 303.51487 
L 118.906534 307.584 
L 118.956597 300.440915 
L 118.976609 307.584 
L 119.447153 299.069559 
L 119.469672 301.446963 
L 119.932699 307.584 
L 119.947717 302.882828 
L 119.985267 304.906521 
L 120.475824 307.584 
L 120.941357 307.584 
L 120.956374 302.659584 
L 120.99391 307.584 
L 121.446931 307.584 
L 121.466944 304.885501 
L 121.534529 307.584 
L 121.947494 307.584 
L 121.98755 304.257084 
L 122.025085 307.584 
L 122.438051 304.814469 
L 122.490619 307.584 
L 122.530659 302.412421 
L 122.928607 300.415546 
L 122.996192 299.419646 
L 123.033728 307.584 
L 123.436687 307.584 
L 123.471732 301.870257 
L 123.539302 302.611746 
L 123.964794 307.584 
L 123.987312 302.413146 
L 124.042385 307.584 
L 124.445344 307.584 
L 124.467863 303.627941 
L 124.48288 307.584 
L 124.93089 300.106774 
L 124.99597 307.584 
L 125.453987 304.294049 
L 125.47901 300.469183 
L 125.491537 303.646062 
L 125.954565 307.584 
L 125.974578 303.321343 
L 125.989595 307.584 
L 126.462629 307.584 
L 126.485163 304.043262 
L 126.535225 307.584 
L 127.453764 307.584 
L 127.473792 300.353937 
L 127.491315 307.584 
L 127.956833 307.584 
L 127.994383 299.293528 
L 128.462407 307.584 
L 128.499957 304.145462 
L 128.947968 302.900224 
L 128.965491 307.584 
L 129.003026 300.980905 
L 129.47606 307.584 
L 129.941593 304.674579 
L 129.994161 307.584 
L 130.449672 307.584 
L 130.487223 304.504247 
L 130.53727 307.584 
L 130.967758 307.584 
L 130.987786 303.223493 
L 131.040354 307.584 
L 131.545928 307.584 
L 131.928859 304.464382 
L 131.961399 304.774604 
L 131.998934 307.584 
L 132.048996 300.743889 
L 132.491996 307.584 
L 132.970041 307.584 
L 132.990069 303.673605 
L 133.007592 307.584 
L 133.480626 307.584 
L 133.500654 296.747241 
L 133.515671 307.584 
L 133.931142 303.133615 
L 133.981189 307.584 
L 133.998711 302.911096 
L 134.491774 307.584 
L 134.524313 303.625042 
L 134.939784 307.584 
L 134.972324 304.229541 
L 135.009859 307.584 
L 135.477898 304.147636 
L 135.497926 304.847811 
L 135.570506 303.21262 
L 135.948442 303.660558 
L 135.963459 301.115721 
L 135.980966 304.433939 
L 136.021022 304.147636 
L 136.456506 304.510045 
L 136.489046 307.584 
L 136.524091 300.748963 
L 136.95959 298.541891 
L 137.009637 307.584 
L 137.452652 303.420643 
L 137.500194 307.584 
L 137.95572 307.584 
L 137.968232 301.997825 
L 138.0208 307.584 
L 138.97938 307.584 
L 138.996902 300.593127 
L 139.0845 304.741987 
L 139.552539 307.584 
L 139.970515 307.584 
L 139.990543 301.035266 
L 140.00805 304.740538 
L 140.561181 307.584 
L 141.016708 307.584 
L 141.507265 303.735939 
L 141.970292 304.375229 
L 142.02535 307.584 
L 142.475866 303.419194 
L 142.513402 307.584 
L 143.436952 307.584 
L 143.469492 303.023443 
L 143.507042 307.584 
L 144.010111 302.069582 
L 144.025128 307.584 
L 144.971211 307.584 
L 145.003736 303.656209 
L 145.476785 304.705021 
L 145.514321 307.584 
L 145.979854 304.236064 
L 145.994871 302.202949 
L 146.014899 307.584 
L 146.520473 307.584 
L 146.537996 304.043262 
L 146.986006 300.759835 
L 147.023541 307.584 
L 147.49407 304.584701 
L 147.514098 300.190128 
L 147.549143 307.584 
L 147.962109 307.584 
L 148.014676 303.275679 
L 148.032184 307.584 
L 148.4827 303.33294 
L 148.502728 297.883756 
L 148.522756 304.056309 
L 149.043347 307.584 
L 149.528893 307.584 
L 149.548921 303.859883 
L 149.979409 301.681079 
L 149.994426 296.19203 
L 150.016944 301.233142 
L 150.497494 307.584 
L 150.522518 303.016195 
L 151.025602 307.584 
L 151.476118 302.739314 
L 151.548698 307.584 
L 151.969165 307.584 
L 151.981692 300.724319 
L 152.03675 307.584 
L 152.457231 304.207071 
L 152.492261 307.584 
L 152.514795 303.746087 
L 152.527306 303.95411 
L 152.975317 302.83644 
L 153.030375 307.584 
L 153.465874 307.584 
L 153.535949 297.107476 
L 154.039033 307.584 
L 154.527084 307.584 
L 154.9776 297.324196 
L 155.030152 307.584 
L 155.498191 301.61657 
L 155.538232 307.584 
L 156.001259 300.917121 
L 156.0413 307.584 
L 156.494322 307.584 
L 156.531872 304.328841 
L 156.977377 307.584 
L 157.014913 303.821468 
L 157.049958 307.584 
L 157.47293 307.584 
L 157.490452 303.596049 
L 157.51048 304.731115 
L 157.976013 307.584 
L 158.061106 300.119821 
L 158.481587 307.584 
L 158.516617 298.357787 
L 158.581697 304.806496 
L 158.984656 300.913496 
L 159.037224 299.838591 
L 159.054731 307.584 
L 159.472707 301.868082 
L 159.52778 307.584 
L 159.975791 304.494824 
L 160.010821 307.584 
L 160.113436 294.969261 
L 160.5189 307.584 
L 160.553945 294.801103 
L 160.616519 300.476431 
L 161.019478 307.584 
L 161.06453 293.991481 
L 161.532553 307.584 
L 161.567599 291.827173 
L 161.993076 307.584 
L 162.010598 304.775329 
L 162.033132 298.336767 
L 162.103207 307.584 
L 163.01675 307.584 
L 163.039269 303.037939 
L 163.086826 307.584 
L 163.474767 303.151011 
L 163.489785 307.584 
L 163.519819 300.972932 
L 163.539847 304.845636 
L 163.992853 307.584 
L 164.022887 303.696074 
L 164.047926 307.584 
L 164.503438 307.584 
L 164.556006 296.676208 
L 164.991489 307.584 
L 165.031545 301.423768 
L 165.086603 307.584 
L 165.497063 303.398899 
L 165.534614 304.69125 
L 165.549631 301.068607 
L 166.035177 307.584 
L 166.052699 302.826292 
L 166.505721 307.584 
L 166.560779 302.339214 
L 167.061357 307.584 
L 167.511858 304.135314 
L 167.536897 298.483181 
L 167.551914 307.584 
L 167.566931 304.681827 
L 168.014942 307.584 
L 168.03746 303.735214 
L 168.052477 304.61297 
L 168.523021 304.478878 
L 168.548044 304.580353 
L 168.991044 300.648213 
L 169.09867 307.584 
L 169.534169 307.584 
L 169.554181 302.444313 
L 169.984685 303.340913 
L 170.057265 302.915445 
L 170.109818 307.584 
L 170.490259 301.636865 
L 170.542811 307.584 
L 170.557828 304.054135 
L 170.995832 307.584 
L 171.048385 301.69775 
L 171.080925 307.584 
L 171.503912 307.584 
L 171.566486 301.321569 
L 172.042025 307.584 
L 172.104584 289.580237 
L 172.512554 307.584 
L 172.572623 302.21382 
L 172.605163 307.584 
L 173.000605 301.233142 
L 173.070696 307.584 
L 174.044293 307.584 
L 174.05931 302.525493 
L 174.076833 302.550137 
L 174.552372 307.584 
L 174.564899 299.953112 
L 174.60494 303.699698 
L 175.070473 307.584 
L 175.538497 307.584 
L 175.563536 302.575505 
L 175.578553 307.584 
L 175.991518 307.584 
L 176.079116 301.329542 
L 176.111656 302.007972 
L 176.549644 307.584 
L 176.567167 299.783505 
L 177.002666 303.437314 
L 177.015178 301.784728 
L 177.070251 307.584 
L 177.120298 307.584 
L 177.50824 303.273505 
L 177.573319 307.584 
L 178.011308 307.584 
L 178.046353 304.09255 
L 178.081399 307.584 
L 178.50188 307.584 
L 178.56945 299.954562 
L 179.039994 307.584 
L 179.057501 301.270107 
L 179.120076 307.584 
L 179.563075 307.584 
L 179.623144 301.489002 
L 180.048636 307.584 
L 180.066144 303.47428 
L 180.559221 307.584 
L 180.571718 295.667261 
L 180.611774 304.244037 
L 181.024739 303.082878 
L 181.114842 307.584 
L 181.54284 307.584 
L 181.565358 301.21792 
L 181.620416 307.584 
L 182.030907 302.632041 
L 182.123485 307.584 
L 182.538955 307.584 
L 182.629058 298.541891 
L 183.039549 307.584 
L 183.062067 304.815919 
L 183.107103 307.584 
L 183.565136 307.584 
L 183.610202 303.180004 
L 184.088247 307.584 
L 184.548754 307.584 
L 184.646374 295.772359 
L 185.09689 307.584 
L 185.149442 297.938117 
L 185.58242 307.584 
L 186.055485 307.584 
L 186.135567 292.429498 
L 186.638635 304.056309 
L 187.044084 304.028766 
L 187.066633 307.584 
L 187.554669 307.584 
L 187.572207 303.809871 
L 188.04023 307.584 
L 188.075275 307.584 
L 188.092783 300.440915 
L 188.545804 307.584 
L 188.598357 304.795624 
L 188.6184 307.584 
L 189.02886 302.013046 
L 189.121468 307.584 
L 189.534434 307.584 
L 189.556952 302.048562 
L 189.627042 307.584 
L 190.057515 307.584 
L 190.077558 304.197649 
L 190.130111 307.584 
L 190.598134 307.584 
L 190.635685 301.91737 
L 191.031143 307.584 
L 191.141259 301.283154 
L 191.576773 307.584 
L 191.606776 300.77868 
L 191.644327 304.171555 
L 192.029763 307.584 
L 192.079841 302.987202 
L 192.567877 307.584 
L 192.652969 298.989104 
L 193.073451 301.088903 
L 193.088484 303.881628 
L 193.158543 289.006905 
L 193.594057 307.584 
L 193.661642 300.674307 
L 194.047079 307.584 
L 194.099631 302.084078 
L 194.572665 307.584 
L 195.073229 307.584 
L 195.090766 302.53854 
L 195.543788 304.419443 
L 195.59634 307.584 
L 196.041845 307.584 
L 196.064364 297.574258 
L 196.084376 302.266732 
L 196.534892 307.584 
L 196.549925 304.006296 
L 196.592456 304.684727 
L 197.093049 307.584 
L 197.108051 300.471357 
L 197.140591 307.584 
L 197.581085 304.022243 
L 197.636143 307.584 
L 198.101692 307.584 
L 198.139242 298.770934 
L 198.542186 304.022243 
L 198.589728 300.825069 
L 198.709865 307.584 
L 199.0803 304.020793 
L 199.210459 300.430043 
L 199.570872 307.584 
L 199.630941 297.447415 
L 199.650953 304.439738 
L 200.071435 307.584 
L 200.088942 307.584 
L 200.134009 298.304151 
L 200.609549 307.584 
L 201.06257 307.584 
L 201.080077 303.943237 
L 201.115122 307.584 
L 201.550606 307.584 
L 201.568144 300.284354 
L 202.051169 301.984054 
L 202.091225 307.584 
L 202.106258 301.876055 
L 202.541741 304.25346 
L 202.579292 302.293551 
L 203.044809 307.584 
L 203.084866 304.425966 
L 203.550383 302.202224 
L 203.590439 303.111146 
L 204.053452 304.225192 
L 204.068484 307.584 
L 204.091003 301.132392 
L 204.614084 307.584 
L 205.047092 303.73449 
L 205.082138 303.742463 
L 205.137196 295.759313 
L 205.607724 307.584 
L 205.637759 299.550838 
L 205.725356 307.584 
L 207.106939 307.584 
L 207.119435 303.981653 
L 207.672581 307.584 
L 208.060523 307.584 
L 208.566097 303.284377 
L 208.681224 307.584 
L 209.064155 302.672631 
L 209.104211 307.584 
L 209.557232 304.480328 
L 210.060301 298.828194 
L 210.117864 307.584 
L 210.565875 301.290402 
L 210.620932 307.584 
L 211.066438 307.584 
L 211.106494 293.950167 
L 211.126506 303.146662 
L 211.226631 304.454234 
L 211.559515 304.830415 
L 211.732205 297.180682 
L 212.062584 307.584 
L 212.117641 307.584 
L 212.235274 303.201748 
L 212.62071 307.584 
L 212.740848 300.676481 
L 213.243916 304.880428 
L 213.74949 303.490951 
L 214.119924 307.584 
L 214.605486 307.584 
L 215.111059 303.795375 
L 215.131072 307.584 
L 216.084657 307.584 
L 216.104669 304.695599 
L 216.137209 307.584 
L 216.612749 307.584 
L 217.075792 304.383927 
L 217.115817 307.584 
L 217.621391 307.584 
L 218.066927 302.564633 
L 218.12449 307.584 
L 218.747696 307.584 
L 219.068053 304.147636 
L 219.100593 307.584 
L 219.1181 303.35541 
L 219.148135 298.783255 
L 219.250765 303.85191 
L 219.608672 307.584 
L 219.668741 295.59333 
L 219.756339 307.584 
L 220.056683 307.584 
L 220.171809 304.554259 
L 220.259407 307.584 
L 220.632347 307.584 
L 220.747474 302.175405 
L 221.120383 304.8913 
L 222.129025 307.584 
L 222.73723 304.185327 
L 223.12016 303.289451 
L 223.140173 307.584 
L 223.155206 300.867108 
L 223.588184 307.584 
L 223.745872 301.723844 
L 224.088777 307.584 
L 224.131308 307.584 
L 224.24894 294.842418 
L 224.496732 304.220118 
L 224.754514 298.412148 
L 225.139951 307.584 
L 226.081039 307.584 
L 226.148624 294.012501 
L 226.266256 304.542662 
L 226.654198 307.584 
L 226.77183 296.836393 
L 227.074679 307.584 
L 227.092186 303.574305 
L 227.162277 307.584 
L 227.274898 298.423021 
L 227.617773 307.584 
L 227.69538 294.599604 
L 227.780472 307.584 
L 228.083322 307.584 
L 228.13838 298.96446 
L 228.195943 301.957235 
L 229.147022 307.584 
L 229.770228 300.860585 
L 230.098101 307.584 
L 230.138157 302.123943 
L 230.275802 307.584 
L 230.761363 307.584 
L 231.091741 304.283177 
L 231.146799 307.584 
L 231.264432 307.584 
L 231.682408 302.413146 
L 231.752498 307.584 
L 231.770006 301.006998 
L 232.092868 307.584 
L 232.155442 302.647262 
L 232.185476 304.762282 
L 232.595936 307.584 
L 232.69105 299.60375 
L 233.099035 307.584 
L 233.149082 304.336814 
L 233.654656 307.584 
L 236.107455 307.584 
L 236.165018 304.53179 
L 236.768212 307.584 
L 237.113592 303.311196 
L 237.153648 307.584 
L 237.178672 290.04412 
L 237.27128 307.584 
L 237.641684 307.584 
L 237.77936 297.001652 
L 238.279923 304.083127 
L 238.595269 304.078778 
L 239.105853 300.44309 
L 239.203473 303.619244 
L 239.611427 307.584 
L 239.661505 302.264558 
L 239.709047 307.584 
L 240.114496 307.584 
L 240.212115 304.66878 
L 240.62007 307.584 
L 240.670147 302.87413 
L 241.105631 304.565131 
L 241.173216 302.040589 
L 241.67879 307.584 
L 242.166856 303.422818 
L 243.120441 307.584 
L 243.172993 304.433939 
L 243.593475 307.584 
L 243.676062 302.270357 
L 244.171614 304.394799 
L 245.160244 307.584 
L 247.18257 307.584 
L 247.230112 296.600103 
L 247.685638 304.160683 
L 247.73318 269.37665 
L 248.023503 307.584 
L 248.186202 303.236539 
L 248.236249 287.921127 
L 248.661741 307.584 
L 248.739317 304.11067 
L 249.127259 307.584 
L 249.187328 303.842488 
L 249.600293 307.584 
L 249.672889 301.791252 
L 250.608966 307.584 
L 250.626473 303.798999 
L 251.202138 307.584 
L 251.617608 307.584 
L 251.675172 300.151712 
L 252.175735 307.584 
L 252.598722 304.894924 
L 252.68632 298.596977 
L 253.189388 307.584 
L 254.683592 307.584 
L 254.748671 303.340913 
L 255.136613 307.584 
L 255.206703 299.580556 
L 255.254245 264.626188 
L 255.677232 300.796076 
L 255.759819 240.840549 
L 256.202819 301.254886 
L 256.260382 278.340477 
L 256.723425 303.741738 
L 256.763451 299.055063 
L 257.193954 300.38003 
L 258.185089 304.8913 
L 259.191226 304.165032 
L 260.134789 307.584 
L 260.199868 300.248838 
L 260.537763 307.584 
L 261.143462 307.584 
L 261.211016 304.699223 
L 263.21831 307.584 
L 264.209445 307.584 
L 265.273145 293.123148 
L 265.741169 307.584 
L 266.209223 307.584 
L 266.759833 299.729143 
L 267.217865 302.339214 
L 268.211505 304.299123 
L 268.714574 301.551337 
L 270.213758 307.584 
L 271.149835 304.76953 
L 271.237433 307.584 
L 273.224714 307.584 
L 274.233356 303.756959 
L 274.758943 293.393506 
L 274.811495 307.584 
L 275.241998 304.902172 
L 275.259506 301.291852 
L 275.327091 307.584 
L 275.842686 295.27151 
L 276.235639 307.584 
L 276.851329 299.349339 
L 278.162821 301.260684 
L 278.225395 304.8913 
L 278.655867 307.584 
L 278.798554 304.830415 
L 279.158966 303.11477 
L 279.777162 304.183152 
L 280.225172 307.584 
L 283.333717 307.584 
L 283.796729 303.250311 
L 284.064534 307.584 
L 284.567602 307.584 
L 284.662716 303.524292 
L 284.805372 303.618519 
L 285.165785 307.584 
L 285.673864 307.584 
L 285.758956 300.859135 
L 285.814045 300.985978 
L 286.176932 307.584 
L 286.332115 304.107771 
L 286.67001 304.244037 
L 286.792653 307.584 
L 286.822687 302.476205 
L 287.173078 304.731115 
L 287.325756 307.584 
L 287.83133 303.640263 
L 287.853848 307.584 
L 288.737372 301.37738 
L 288.855005 307.584 
L 289.340535 307.584 
L 289.360578 304.319418 
L 289.843604 307.584 
L 289.861142 304.619493 
L 289.876143 307.584 
L 290.349178 303.539513 
L 290.852277 307.584 
L 291.820863 307.584 
L 292.293897 302.987927 
L 292.829505 307.584 
L 293.302539 301.098325 
L 293.335079 307.584 
L 293.810619 302.41677 
L 293.835673 307.584 
L 294.171032 307.584 
L 294.313718 298.471584 
L 294.338741 300.735916 
L 294.676605 307.584 
L 294.816786 303.71347 
L 294.844315 277.541727 
L 295.317349 302.269631 
L 295.347384 301.295476 
L 295.850452 303.827266 
L 296.356026 301.342589 
L 296.819069 307.584 
L 297.322138 307.584 
L 297.367174 304.856509 
L 297.827712 307.584 
L 297.867737 302.421844 
L 298.373311 307.584 
L 298.836354 304.096174 
L 299.271838 303.43369 
L 299.354455 307.584 
L 299.847502 307.584 
L 300.262973 303.509071 
L 300.348065 307.584 
L 300.363097 302.55521 
L 300.683454 307.584 
L 300.851133 307.584 
L 300.878693 300.16186 
L 301.186523 307.584 
L 301.329178 302.684952 
L 301.354233 307.584 
L 301.789716 303.821468 
L 301.857301 307.584 
L 302.332841 303.63229 
L 303.273898 307.584 
L 303.374023 291.038571 
L 303.874586 301.564383 
L 304.382665 229.365949 
L 304.815674 293.281159 
L 304.885734 258.16951 
L 305.318742 304.48975 
L 305.388802 298.496227 
L 305.891871 307.584 
L 306.700294 307.584 
L 306.832959 299.189154 
L 307.195877 307.584 
L 307.866625 307.584 
L 308.34467 302.429092 
L 308.372198 304.766631 
L 308.707588 307.584 
L 308.845233 297.548889 
L 309.210656 307.584 
L 309.350837 301.591926 
L 309.8514 304.847811 
L 310.359479 278.505736 
L 310.389514 304.062107 
L 310.860043 294.732971 
L 310.892582 307.584 
L 311.298031 301.984778 
L 311.398156 303.670705 
L 311.831134 304.200548 
L 311.901225 307.584 
L 313.367899 307.584 
L 313.873473 304.383927 
L 314.376542 300.051688 
L 314.87961 302.57623 
L 315.202472 307.584 
L 315.357655 307.584 
L 315.38769 260.967308 
L 315.708046 307.584 
L 315.860724 303.351786 
L 315.888253 273.863275 
L 316.211145 307.584 
L 316.366298 302.299349 
L 316.393827 282.788689 
L 316.714214 307.584 
L 316.869366 307.584 
L 316.896926 297.954063 
L 317.372465 307.584 
L 317.405005 290.170963 
L 317.837983 296.48848 
L 317.873028 307.584 
L 317.908073 299.387029 
L 318.356084 307.584 
L 318.413647 282.261745 
L 319.21706 307.584 
L 319.349694 303.843937 
L 319.367232 307.584 
L 319.419784 301.780379 
L 319.710107 307.584 
L 319.852762 307.584 
L 319.887808 302.192076 
L 319.922853 307.584 
L 320.10807 307.584 
L 320.355861 303.696074 
L 321.364504 302.561009 
L 321.397044 307.584 
L 321.867572 303.058959 
L 321.900112 304.366531 
L 322.373146 285.668392 
L 322.428204 303.108247 
L 322.876215 302.81687 
L 322.906249 294.746017 
L 322.931273 304.594849 
L 323.381789 229.909565 
L 323.409318 302.668282 
L 323.884857 274.340931 
L 324.217741 307.584 
L 324.387926 284.785564 
L 324.422971 307.584 
L 324.888519 301.05846 
L 325.391588 304.62964 
L 325.434119 307.584 
L 326.390209 277.922258 
L 326.420243 307.584 
L 326.893277 292.773061 
L 327.371322 304.144737 
L 327.398882 294.843868 
L 327.721744 307.584 
L 327.874421 301.731816 
L 327.90195 303.631565 
L 328.37749 307.584 
L 328.410029 278.455725 
L 328.880558 307.584 
L 328.913098 300.579355 
L 329.388637 304.770255 
L 329.418672 277.591741 
L 329.891706 302.671906 
L 329.92174 300.435841 
L 330.377267 307.584 
L 330.394774 303.175655 
L 330.424809 303.856984 
L 330.897843 304.817368 
L 330.962923 300.25971 
L 331.368372 286.423652 
L 331.465991 299.769008 
L 331.868965 299.790753 
L 331.90398 307.584 
L 332.121737 307.584 
L 332.409584 304.75141 
L 332.912653 304.620218 
L 333.378171 304.750685 
L 333.408205 304.13314 
L 333.420732 307.584 
L 333.911274 307.584 
L 334.386813 284.028852 
L 334.426869 299.516047 
L 334.889882 278.160723 
L 335.395456 296.806676 
L 335.898555 301.683254 
L 336.406634 294.839518 
L 336.907197 296.919023 
L 337.415276 290.114427 
L 337.915839 297.990304 
L 338.386368 307.584 
L 338.418908 299.00215 
L 338.919471 307.584 
L 339.397516 307.584 
L 339.412548 301.673831 
L 339.900584 302.954585 
L 339.915617 307.584 
L 340.396167 307.584 
L 340.423696 298.905025 
L 340.89673 307.584 
L 340.926765 303.130716 
L 341.402304 302.75526 
L 341.905373 304.244037 
L 341.967947 307.584 
L 342.405936 307.584 
L 342.46851 303.817844 
L 342.909035 300.792452 
L 343.414609 304.23389 
L 343.917677 304.915944 
L 344.135404 303.248861 
L 344.423251 303.302498 
L 345.431894 300.680105 
L 346.402985 307.584 
L 346.873545 307.584 
L 346.976144 302.299349 
L 347.411658 292.784658 
L 347.479213 303.945412 
L 347.912221 298.137442 
L 348.420301 276.600189 
L 348.885819 307.584 
L 348.923369 290.170239 
L 348.955909 303.623592 
L 349.391393 307.584 
L 349.426438 297.221997 
L 349.927001 298.751364 
L 349.964552 297.808375 
L 350.420078 304.598473 
L 350.465115 307.584 
L 350.920641 307.584 
L 352.419856 303.4953 
L 353.914059 304.257084 
L 354.422139 303.630116 
L 355.993918 307.584 
L 357.44556 300.084304 
L 359.890843 307.584 
L 360.00099 303.119119 
L 361.522722 307.584 
L 361.772988 307.584 
L 361.908158 303.324242 
L 362.916801 304.500623 
L 363.439882 303.721443 
L 367.887448 307.584 
L 368.393022 301.505673 
L 372.913183 302.979229 
L 373.921825 307.584 
L 375.556179 307.584 
L 375.941616 303.569956 
L 376.447189 307.584 
L 380.909787 304.787651 
L 382.804429 307.584 
L 383.813072 307.584 
L 394.940739 303.301773 
L 398.487273 302.894425 
L 398.487273 302.894425 
" clip-path="url(#p4e75f7dc2f)" style="fill: none; stroke: #1f77b4; stroke-width: 1.5; stroke-linecap: square"/>
   </g>
   <g id="patch_3">
    <path d="M 57.6 307.584 
L 57.6 41.472 
" style="fill: none; stroke: #000000; stroke-width: 0.8; stroke-linejoin: miter; stroke-linecap: square"/>
   </g>
   <g id="patch_4">
    <path d="M 414.72 307.584 
L 414.72 41.472 
" style="fill: none; stroke: #000000; stroke-width: 0.8; stroke-linejoin: miter; stroke-linecap: square"/>
   </g>
   <g id="patch_5">
    <path d="M 57.6 307.584 
L 414.72 307.584 
" style="fill: none; stroke: #000000; stroke-width: 0.8; stroke-linejoin: miter; stroke-linecap: square"/>
   </g>
   <g id="patch_6">
    <path d="M 57.6 41.472 
L 414.72 41.472 
" style="fill: none; stroke: #000000; stroke-width: 0.8; stroke-linejoin: miter; stroke-linecap: square"/>
   </g>
   <g id="legend_1">
    <g id="patch_7">
     <path d="M 323.385625 64.150125 
L 407.72 64.150125 
Q 409.72 64.150125 409.72 62.150125 
L 409.72 48.472 
Q 409.72 46.472 407.72 46.472 
L 323.385625 46.472 
Q 321.385625 46.472 321.385625 48.472 
L 321.385625 62.150125 
Q 321.385625 64.150125 323.385625 64.150125 
z
" style="fill: #ffffff; opacity: 0.8; stroke: #cccccc; stroke-linejoin: miter"/>
    </g>
    <g id="line2d_18">
     <path d="M 325.385625 54.570438 
L 335.385625 54.570438 
L 345.385625 54.570438 
" style="fill: none; stroke: #1f77b4; stroke-width: 1.5; stroke-linecap: square"/>
    </g>
    <g id="text_19">
     <!-- (171, 408) -->
     <g transform="translate(353.385625 58.070438) scale(0.1 -0.1)">
      <defs>
       <path id="DejaVuSans-28" d="M 1984 4856 
Q 1566 4138 1362 3434 
Q 1159 2731 1159 2009 
Q 1159 1288 1364 580 
Q 1569 -128 1984 -844 
L 1484 -844 
Q 1016 -109 783 600 
Q 550 1309 550 2009 
Q 550 2706 781 3412 
Q 1013 4119 1484 4856 
L 1984 4856 
z
" transform="scale(0.015625)"/>
       <path id="DejaVuSans-2c" d="M 750 794 
L 1409 794 
L 1409 256 
L 897 -744 
L 494 -744 
L 750 256 
L 750 794 
z
" transform="scale(0.015625)"/>
       <path id="DejaVuSans-29" d="M 513 4856 
L 1013 4856 
Q 1481 4119 1714 3412 
Q 1947 2706 1947 2009 
Q 1947 1309 1714 600 
Q 1481 -109 1013 -844 
L 513 -844 
Q 928 -128 1133 580 
Q 1338 1288 1338 2009 
Q 1338 2731 1133 3434 
Q 928 4138 513 4856 
z
" transform="scale(0.015625)"/>
      </defs>
      <use xlink:href="#DejaVuSans-28"/>
      <use xlink:href="#DejaVuSans-31" x="39.013672"/>
      <use xlink:href="#DejaVuSans-37" x="102.636719"/>
      <use xlink:href="#DejaVuSans-31" x="166.259766"/>
      <use xlink:href="#DejaVuSans-2c" x="229.882812"/>
      <use xlink:href="#DejaVuSans-20" x="261.669922"/>
      <use xlink:href="#DejaVuSans-34" x="293.457031"/>
      <use xlink:href="#DejaVuSans-30" x="357.080078"/>
      <use xlink:href="#DejaVuSans-38" x="420.703125"/>
      <use xlink:href="#DejaVuSans-29" x="484.326172"/>
     </g>
    </g>
   </g>
  </g>
 </g>
 <defs>
  <clipPath id="p4e75f7dc2f">
   <rect x="57.6" y="41.472" width="357.12" height="266.112"/>
  </clipPath>
 </defs>
</svg>
