<?xml version="1.0" encoding="utf-8" standalone="no"?>
<!DOCTYPE svg PUBLIC "-//W3C//DTD SVG 1.1//EN"
  "http://www.w3.org/Graphics/SVG/1.1/DTD/svg11.dtd">
<svg xmlns:xlink="http://www.w3.org/1999/xlink" width="460.8pt" height="345.6pt" viewBox="0 0 460.8 345.6" xmlns="http://www.w3.org/2000/svg" version="1.1">
 <metadata>
  <rdf:RDF xmlns:dc="http://purl.org/dc/elements/1.1/" xmlns:cc="http://creativecommons.org/ns#" xmlns:rdf="http://www.w3.org/1999/02/22-rdf-syntax-ns#">
   <cc:Work>
    <dc:type rdf:resource="http://purl.org/dc/dcmitype/StillImage"/>
    <dc:date>2025-12-03T20:42:16.185907</dc:date>
    <dc:format>image/svg+xml</dc:format>
    <dc:creator>
     <cc:Agent>
      <dc:title>Matplotlib v3.8.4, https://matplotlib.org/</dc:title>
     </cc:Agent>
    </dc:creator>
   </cc:Work>
  </rdf:RDF>
 </metadata>
 <defs>
  <style type="text/css">*{stroke-linejoin: round; stroke-linecap: butt}</style>
 </defs>
 <g id="figure_1">
  <g id="patch_1">
   <path d="M 0 345.6 
L 460.8 345.6 
L 460.8 0 
L 0 0 
z
" style="fill: #ffffff"/>
  </g>
  <g id="axes_1">
   <g id="patch_2">
    <path d="M 57.6 307.584 
L 414.72 307.584 
L 414.72 41.472 
L 57.6 41.472 
z
" style="fill: #ffffff"/>
   </g>
   <g id="matplotlib.axis_1">
    <g id="xtick_1">
     <g id="line2d_1">
      <defs>
       <path id="m33e4bf0214" d="M 0 0 
L 0 3.5 
" style="stroke: #000000; stroke-width: 0.8"/>
      </defs>
      <g>
       <use xlink:href="#m33e4bf0214" x="73.818841" y="307.584" style="stroke: #000000; stroke-width: 0.8"/>
      </g>
     </g>
     <g id="text_1">
      <!-- 300 -->
      <g transform="translate(64.275091 322.182437) scale(0.1 -0.1)">
       <defs>
        <path id="DejaVuSans-33" d="M 2597 2516 
Q 3050 2419 3304 2112 
Q 3559 1806 3559 1356 
Q 3559 666 3084 287 
Q 2609 -91 1734 -91 
Q 1441 -91 1130 -33 
Q 819 25 488 141 
L 488 750 
Q 750 597 1062 519 
Q 1375 441 1716 441 
Q 2309 441 2620 675 
Q 2931 909 2931 1356 
Q 2931 1769 2642 2001 
Q 2353 2234 1838 2234 
L 1294 2234 
L 1294 2753 
L 1863 2753 
Q 2328 2753 2575 2939 
Q 2822 3125 2822 3475 
Q 2822 3834 2567 4026 
Q 2313 4219 1838 4219 
Q 1578 4219 1281 4162 
Q 984 4106 628 3988 
L 628 4550 
Q 988 4650 1302 4700 
Q 1616 4750 1894 4750 
Q 2613 4750 3031 4423 
Q 3450 4097 3450 3541 
Q 3450 3153 3228 2886 
Q 3006 2619 2597 2516 
z
" transform="scale(0.015625)"/>
        <path id="DejaVuSans-30" d="M 2034 4250 
Q 1547 4250 1301 3770 
Q 1056 3291 1056 2328 
Q 1056 1369 1301 889 
Q 1547 409 2034 409 
Q 2525 409 2770 889 
Q 3016 1369 3016 2328 
Q 3016 3291 2770 3770 
Q 2525 4250 2034 4250 
z
M 2034 4750 
Q 2819 4750 3233 4129 
Q 3647 3509 3647 2328 
Q 3647 1150 3233 529 
Q 2819 -91 2034 -91 
Q 1250 -91 836 529 
Q 422 1150 422 2328 
Q 422 3509 836 4129 
Q 1250 4750 2034 4750 
z
" transform="scale(0.015625)"/>
       </defs>
       <use xlink:href="#DejaVuSans-33"/>
       <use xlink:href="#DejaVuSans-30" x="63.623047"/>
       <use xlink:href="#DejaVuSans-30" x="127.246094"/>
      </g>
     </g>
    </g>
    <g id="xtick_2">
     <g id="line2d_2">
      <g>
       <use xlink:href="#m33e4bf0214" x="123.878205" y="307.584" style="stroke: #000000; stroke-width: 0.8"/>
      </g>
     </g>
     <g id="text_2">
      <!-- 400 -->
      <g transform="translate(114.334455 322.182437) scale(0.1 -0.1)">
       <defs>
        <path id="DejaVuSans-34" d="M 2419 4116 
L 825 1625 
L 2419 1625 
L 2419 4116 
z
M 2253 4666 
L 3047 4666 
L 3047 1625 
L 3713 1625 
L 3713 1100 
L 3047 1100 
L 3047 0 
L 2419 0 
L 2419 1100 
L 313 1100 
L 313 1709 
L 2253 4666 
z
" transform="scale(0.015625)"/>
       </defs>
       <use xlink:href="#DejaVuSans-34"/>
       <use xlink:href="#DejaVuSans-30" x="63.623047"/>
       <use xlink:href="#DejaVuSans-30" x="127.246094"/>
      </g>
     </g>
    </g>
    <g id="xtick_3">
     <g id="line2d_3">
      <g>
       <use xlink:href="#m33e4bf0214" x="173.937569" y="307.584" style="stroke: #000000; stroke-width: 0.8"/>
      </g>
     </g>
     <g id="text_3">
      <!-- 500 -->
      <g transform="translate(164.393819 322.182437) scale(0.1 -0.1)">
       <defs>
        <path id="DejaVuSans-35" d="M 691 4666 
L 3169 4666 
L 3169 4134 
L 1269 4134 
L 1269 2991 
Q 1406 3038 1543 3061 
Q 1681 3084 1819 3084 
Q 2600 3084 3056 2656 
Q 3513 2228 3513 1497 
Q 3513 744 3044 326 
Q 2575 -91 1722 -91 
Q 1428 -91 1123 -41 
Q 819 9 494 109 
L 494 744 
Q 775 591 1075 516 
Q 1375 441 1709 441 
Q 2250 441 2565 725 
Q 2881 1009 2881 1497 
Q 2881 1984 2565 2268 
Q 2250 2553 1709 2553 
Q 1456 2553 1204 2497 
Q 953 2441 691 2322 
L 691 4666 
z
" transform="scale(0.015625)"/>
       </defs>
       <use xlink:href="#DejaVuSans-35"/>
       <use xlink:href="#DejaVuSans-30" x="63.623047"/>
       <use xlink:href="#DejaVuSans-30" x="127.246094"/>
      </g>
     </g>
    </g>
    <g id="xtick_4">
     <g id="line2d_4">
      <g>
       <use xlink:href="#m33e4bf0214" x="223.996933" y="307.584" style="stroke: #000000; stroke-width: 0.8"/>
      </g>
     </g>
     <g id="text_4">
      <!-- 600 -->
      <g transform="translate(214.453183 322.182437) scale(0.1 -0.1)">
       <defs>
        <path id="DejaVuSans-36" d="M 2113 2584 
Q 1688 2584 1439 2293 
Q 1191 2003 1191 1497 
Q 1191 994 1439 701 
Q 1688 409 2113 409 
Q 2538 409 2786 701 
Q 3034 994 3034 1497 
Q 3034 2003 2786 2293 
Q 2538 2584 2113 2584 
z
M 3366 4563 
L 3366 3988 
Q 3128 4100 2886 4159 
Q 2644 4219 2406 4219 
Q 1781 4219 1451 3797 
Q 1122 3375 1075 2522 
Q 1259 2794 1537 2939 
Q 1816 3084 2150 3084 
Q 2853 3084 3261 2657 
Q 3669 2231 3669 1497 
Q 3669 778 3244 343 
Q 2819 -91 2113 -91 
Q 1303 -91 875 529 
Q 447 1150 447 2328 
Q 447 3434 972 4092 
Q 1497 4750 2381 4750 
Q 2619 4750 2861 4703 
Q 3103 4656 3366 4563 
z
" transform="scale(0.015625)"/>
       </defs>
       <use xlink:href="#DejaVuSans-36"/>
       <use xlink:href="#DejaVuSans-30" x="63.623047"/>
       <use xlink:href="#DejaVuSans-30" x="127.246094"/>
      </g>
     </g>
    </g>
    <g id="xtick_5">
     <g id="line2d_5">
      <g>
       <use xlink:href="#m33e4bf0214" x="274.056297" y="307.584" style="stroke: #000000; stroke-width: 0.8"/>
      </g>
     </g>
     <g id="text_5">
      <!-- 700 -->
      <g transform="translate(264.512547 322.182437) scale(0.1 -0.1)">
       <defs>
        <path id="DejaVuSans-37" d="M 525 4666 
L 3525 4666 
L 3525 4397 
L 1831 0 
L 1172 0 
L 2766 4134 
L 525 4134 
L 525 4666 
z
" transform="scale(0.015625)"/>
       </defs>
       <use xlink:href="#DejaVuSans-37"/>
       <use xlink:href="#DejaVuSans-30" x="63.623047"/>
       <use xlink:href="#DejaVuSans-30" x="127.246094"/>
      </g>
     </g>
    </g>
    <g id="xtick_6">
     <g id="line2d_6">
      <g>
       <use xlink:href="#m33e4bf0214" x="324.115661" y="307.584" style="stroke: #000000; stroke-width: 0.8"/>
      </g>
     </g>
     <g id="text_6">
      <!-- 800 -->
      <g transform="translate(314.571911 322.182437) scale(0.1 -0.1)">
       <defs>
        <path id="DejaVuSans-38" d="M 2034 2216 
Q 1584 2216 1326 1975 
Q 1069 1734 1069 1313 
Q 1069 891 1326 650 
Q 1584 409 2034 409 
Q 2484 409 2743 651 
Q 3003 894 3003 1313 
Q 3003 1734 2745 1975 
Q 2488 2216 2034 2216 
z
M 1403 2484 
Q 997 2584 770 2862 
Q 544 3141 544 3541 
Q 544 4100 942 4425 
Q 1341 4750 2034 4750 
Q 2731 4750 3128 4425 
Q 3525 4100 3525 3541 
Q 3525 3141 3298 2862 
Q 3072 2584 2669 2484 
Q 3125 2378 3379 2068 
Q 3634 1759 3634 1313 
Q 3634 634 3220 271 
Q 2806 -91 2034 -91 
Q 1263 -91 848 271 
Q 434 634 434 1313 
Q 434 1759 690 2068 
Q 947 2378 1403 2484 
z
M 1172 3481 
Q 1172 3119 1398 2916 
Q 1625 2713 2034 2713 
Q 2441 2713 2670 2916 
Q 2900 3119 2900 3481 
Q 2900 3844 2670 4047 
Q 2441 4250 2034 4250 
Q 1625 4250 1398 4047 
Q 1172 3844 1172 3481 
z
" transform="scale(0.015625)"/>
       </defs>
       <use xlink:href="#DejaVuSans-38"/>
       <use xlink:href="#DejaVuSans-30" x="63.623047"/>
       <use xlink:href="#DejaVuSans-30" x="127.246094"/>
      </g>
     </g>
    </g>
    <g id="xtick_7">
     <g id="line2d_7">
      <g>
       <use xlink:href="#m33e4bf0214" x="374.175025" y="307.584" style="stroke: #000000; stroke-width: 0.8"/>
      </g>
     </g>
     <g id="text_7">
      <!-- 900 -->
      <g transform="translate(364.631275 322.182437) scale(0.1 -0.1)">
       <defs>
        <path id="DejaVuSans-39" d="M 703 97 
L 703 672 
Q 941 559 1184 500 
Q 1428 441 1663 441 
Q 2288 441 2617 861 
Q 2947 1281 2994 2138 
Q 2813 1869 2534 1725 
Q 2256 1581 1919 1581 
Q 1219 1581 811 2004 
Q 403 2428 403 3163 
Q 403 3881 828 4315 
Q 1253 4750 1959 4750 
Q 2769 4750 3195 4129 
Q 3622 3509 3622 2328 
Q 3622 1225 3098 567 
Q 2575 -91 1691 -91 
Q 1453 -91 1209 -44 
Q 966 3 703 97 
z
M 1959 2075 
Q 2384 2075 2632 2365 
Q 2881 2656 2881 3163 
Q 2881 3666 2632 3958 
Q 2384 4250 1959 4250 
Q 1534 4250 1286 3958 
Q 1038 3666 1038 3163 
Q 1038 2656 1286 2365 
Q 1534 2075 1959 2075 
z
" transform="scale(0.015625)"/>
       </defs>
       <use xlink:href="#DejaVuSans-39"/>
       <use xlink:href="#DejaVuSans-30" x="63.623047"/>
       <use xlink:href="#DejaVuSans-30" x="127.246094"/>
      </g>
     </g>
    </g>
    <g id="text_8">
     <!-- m/z -->
     <g transform="translate(226.981094 335.860562) scale(0.1 -0.1)">
      <defs>
       <path id="DejaVuSans-6d" d="M 3328 2828 
Q 3544 3216 3844 3400 
Q 4144 3584 4550 3584 
Q 5097 3584 5394 3201 
Q 5691 2819 5691 2113 
L 5691 0 
L 5113 0 
L 5113 2094 
Q 5113 2597 4934 2840 
Q 4756 3084 4391 3084 
Q 3944 3084 3684 2787 
Q 3425 2491 3425 1978 
L 3425 0 
L 2847 0 
L 2847 2094 
Q 2847 2600 2669 2842 
Q 2491 3084 2119 3084 
Q 1678 3084 1418 2786 
Q 1159 2488 1159 1978 
L 1159 0 
L 581 0 
L 581 3500 
L 1159 3500 
L 1159 2956 
Q 1356 3278 1631 3431 
Q 1906 3584 2284 3584 
Q 2666 3584 2933 3390 
Q 3200 3197 3328 2828 
z
" transform="scale(0.015625)"/>
       <path id="DejaVuSans-2f" d="M 1625 4666 
L 2156 4666 
L 531 -594 
L 0 -594 
L 1625 4666 
z
" transform="scale(0.015625)"/>
       <path id="DejaVuSans-7a" d="M 353 3500 
L 3084 3500 
L 3084 2975 
L 922 459 
L 3084 459 
L 3084 0 
L 275 0 
L 275 525 
L 2438 3041 
L 353 3041 
L 353 3500 
z
" transform="scale(0.015625)"/>
      </defs>
      <use xlink:href="#DejaVuSans-6d"/>
      <use xlink:href="#DejaVuSans-2f" x="97.412109"/>
      <use xlink:href="#DejaVuSans-7a" x="131.103516"/>
     </g>
    </g>
   </g>
   <g id="matplotlib.axis_2">
    <g id="ytick_1">
     <g id="line2d_8">
      <defs>
       <path id="m7c5ff1b062" d="M 0 0 
L -3.5 0 
" style="stroke: #000000; stroke-width: 0.8"/>
      </defs>
      <g>
       <use xlink:href="#m7c5ff1b062" x="57.6" y="307.584" style="stroke: #000000; stroke-width: 0.8"/>
      </g>
     </g>
     <g id="text_9">
      <!-- 0 -->
      <g transform="translate(44.2375 311.383219) scale(0.1 -0.1)">
       <use xlink:href="#DejaVuSans-30"/>
      </g>
     </g>
    </g>
    <g id="ytick_2">
     <g id="line2d_9">
      <g>
       <use xlink:href="#m7c5ff1b062" x="57.6" y="274.38717" style="stroke: #000000; stroke-width: 0.8"/>
      </g>
     </g>
     <g id="text_10">
      <!-- 100 -->
      <g transform="translate(31.5125 278.186389) scale(0.1 -0.1)">
       <defs>
        <path id="DejaVuSans-31" d="M 794 531 
L 1825 531 
L 1825 4091 
L 703 3866 
L 703 4441 
L 1819 4666 
L 2450 4666 
L 2450 531 
L 3481 531 
L 3481 0 
L 794 0 
L 794 531 
z
" transform="scale(0.015625)"/>
       </defs>
       <use xlink:href="#DejaVuSans-31"/>
       <use xlink:href="#DejaVuSans-30" x="63.623047"/>
       <use xlink:href="#DejaVuSans-30" x="127.246094"/>
      </g>
     </g>
    </g>
    <g id="ytick_3">
     <g id="line2d_10">
      <g>
       <use xlink:href="#m7c5ff1b062" x="57.6" y="241.19034" style="stroke: #000000; stroke-width: 0.8"/>
      </g>
     </g>
     <g id="text_11">
      <!-- 200 -->
      <g transform="translate(31.5125 244.989559) scale(0.1 -0.1)">
       <defs>
        <path id="DejaVuSans-32" d="M 1228 531 
L 3431 531 
L 3431 0 
L 469 0 
L 469 531 
Q 828 903 1448 1529 
Q 2069 2156 2228 2338 
Q 2531 2678 2651 2914 
Q 2772 3150 2772 3378 
Q 2772 3750 2511 3984 
Q 2250 4219 1831 4219 
Q 1534 4219 1204 4116 
Q 875 4013 500 3803 
L 500 4441 
Q 881 4594 1212 4672 
Q 1544 4750 1819 4750 
Q 2544 4750 2975 4387 
Q 3406 4025 3406 3419 
Q 3406 3131 3298 2873 
Q 3191 2616 2906 2266 
Q 2828 2175 2409 1742 
Q 1991 1309 1228 531 
z
" transform="scale(0.015625)"/>
       </defs>
       <use xlink:href="#DejaVuSans-32"/>
       <use xlink:href="#DejaVuSans-30" x="63.623047"/>
       <use xlink:href="#DejaVuSans-30" x="127.246094"/>
      </g>
     </g>
    </g>
    <g id="ytick_4">
     <g id="line2d_11">
      <g>
       <use xlink:href="#m7c5ff1b062" x="57.6" y="207.993511" style="stroke: #000000; stroke-width: 0.8"/>
      </g>
     </g>
     <g id="text_12">
      <!-- 300 -->
      <g transform="translate(31.5125 211.792729) scale(0.1 -0.1)">
       <use xlink:href="#DejaVuSans-33"/>
       <use xlink:href="#DejaVuSans-30" x="63.623047"/>
       <use xlink:href="#DejaVuSans-30" x="127.246094"/>
      </g>
     </g>
    </g>
    <g id="ytick_5">
     <g id="line2d_12">
      <g>
       <use xlink:href="#m7c5ff1b062" x="57.6" y="174.796681" style="stroke: #000000; stroke-width: 0.8"/>
      </g>
     </g>
     <g id="text_13">
      <!-- 400 -->
      <g transform="translate(31.5125 178.5959) scale(0.1 -0.1)">
       <use xlink:href="#DejaVuSans-34"/>
       <use xlink:href="#DejaVuSans-30" x="63.623047"/>
       <use xlink:href="#DejaVuSans-30" x="127.246094"/>
      </g>
     </g>
    </g>
    <g id="ytick_6">
     <g id="line2d_13">
      <g>
       <use xlink:href="#m7c5ff1b062" x="57.6" y="141.599851" style="stroke: #000000; stroke-width: 0.8"/>
      </g>
     </g>
     <g id="text_14">
      <!-- 500 -->
      <g transform="translate(31.5125 145.39907) scale(0.1 -0.1)">
       <use xlink:href="#DejaVuSans-35"/>
       <use xlink:href="#DejaVuSans-30" x="63.623047"/>
       <use xlink:href="#DejaVuSans-30" x="127.246094"/>
      </g>
     </g>
    </g>
    <g id="ytick_7">
     <g id="line2d_14">
      <g>
       <use xlink:href="#m7c5ff1b062" x="57.6" y="108.403021" style="stroke: #000000; stroke-width: 0.8"/>
      </g>
     </g>
     <g id="text_15">
      <!-- 600 -->
      <g transform="translate(31.5125 112.20224) scale(0.1 -0.1)">
       <use xlink:href="#DejaVuSans-36"/>
       <use xlink:href="#DejaVuSans-30" x="63.623047"/>
       <use xlink:href="#DejaVuSans-30" x="127.246094"/>
      </g>
     </g>
    </g>
    <g id="ytick_8">
     <g id="line2d_15">
      <g>
       <use xlink:href="#m7c5ff1b062" x="57.6" y="75.206191" style="stroke: #000000; stroke-width: 0.8"/>
      </g>
     </g>
     <g id="text_16">
      <!-- 700 -->
      <g transform="translate(31.5125 79.00541) scale(0.1 -0.1)">
       <use xlink:href="#DejaVuSans-37"/>
       <use xlink:href="#DejaVuSans-30" x="63.623047"/>
       <use xlink:href="#DejaVuSans-30" x="127.246094"/>
      </g>
     </g>
    </g>
    <g id="ytick_9">
     <g id="line2d_16">
      <g>
       <use xlink:href="#m7c5ff1b062" x="57.6" y="42.009362" style="stroke: #000000; stroke-width: 0.8"/>
      </g>
     </g>
     <g id="text_17">
      <!-- 800 -->
      <g transform="translate(31.5125 45.80858) scale(0.1 -0.1)">
       <use xlink:href="#DejaVuSans-38"/>
       <use xlink:href="#DejaVuSans-30" x="63.623047"/>
       <use xlink:href="#DejaVuSans-30" x="127.246094"/>
      </g>
     </g>
    </g>
    <g id="text_18">
     <!-- Intensities [a.u.] -->
     <g transform="translate(25.432812 215.303) rotate(-90) scale(0.1 -0.1)">
      <defs>
       <path id="DejaVuSans-49" d="M 628 4666 
L 1259 4666 
L 1259 0 
L 628 0 
L 628 4666 
z
" transform="scale(0.015625)"/>
       <path id="DejaVuSans-6e" d="M 3513 2113 
L 3513 0 
L 2938 0 
L 2938 2094 
Q 2938 2591 2744 2837 
Q 2550 3084 2163 3084 
Q 1697 3084 1428 2787 
Q 1159 2491 1159 1978 
L 1159 0 
L 581 0 
L 581 3500 
L 1159 3500 
L 1159 2956 
Q 1366 3272 1645 3428 
Q 1925 3584 2291 3584 
Q 2894 3584 3203 3211 
Q 3513 2838 3513 2113 
z
" transform="scale(0.015625)"/>
       <path id="DejaVuSans-74" d="M 1172 4494 
L 1172 3500 
L 2356 3500 
L 2356 3053 
L 1172 3053 
L 1172 1153 
Q 1172 725 1289 603 
Q 1406 481 1766 481 
L 2356 481 
L 2356 0 
L 1766 0 
Q 1100 0 847 248 
Q 594 497 594 1153 
L 594 3053 
L 172 3053 
L 172 3500 
L 594 3500 
L 594 4494 
L 1172 4494 
z
" transform="scale(0.015625)"/>
       <path id="DejaVuSans-65" d="M 3597 1894 
L 3597 1613 
L 953 1613 
Q 991 1019 1311 708 
Q 1631 397 2203 397 
Q 2534 397 2845 478 
Q 3156 559 3463 722 
L 3463 178 
Q 3153 47 2828 -22 
Q 2503 -91 2169 -91 
Q 1331 -91 842 396 
Q 353 884 353 1716 
Q 353 2575 817 3079 
Q 1281 3584 2069 3584 
Q 2775 3584 3186 3129 
Q 3597 2675 3597 1894 
z
M 3022 2063 
Q 3016 2534 2758 2815 
Q 2500 3097 2075 3097 
Q 1594 3097 1305 2825 
Q 1016 2553 972 2059 
L 3022 2063 
z
" transform="scale(0.015625)"/>
       <path id="DejaVuSans-73" d="M 2834 3397 
L 2834 2853 
Q 2591 2978 2328 3040 
Q 2066 3103 1784 3103 
Q 1356 3103 1142 2972 
Q 928 2841 928 2578 
Q 928 2378 1081 2264 
Q 1234 2150 1697 2047 
L 1894 2003 
Q 2506 1872 2764 1633 
Q 3022 1394 3022 966 
Q 3022 478 2636 193 
Q 2250 -91 1575 -91 
Q 1294 -91 989 -36 
Q 684 19 347 128 
L 347 722 
Q 666 556 975 473 
Q 1284 391 1588 391 
Q 1994 391 2212 530 
Q 2431 669 2431 922 
Q 2431 1156 2273 1281 
Q 2116 1406 1581 1522 
L 1381 1569 
Q 847 1681 609 1914 
Q 372 2147 372 2553 
Q 372 3047 722 3315 
Q 1072 3584 1716 3584 
Q 2034 3584 2315 3537 
Q 2597 3491 2834 3397 
z
" transform="scale(0.015625)"/>
       <path id="DejaVuSans-69" d="M 603 3500 
L 1178 3500 
L 1178 0 
L 603 0 
L 603 3500 
z
M 603 4863 
L 1178 4863 
L 1178 4134 
L 603 4134 
L 603 4863 
z
" transform="scale(0.015625)"/>
       <path id="DejaVuSans-20" transform="scale(0.015625)"/>
       <path id="DejaVuSans-5b" d="M 550 4863 
L 1875 4863 
L 1875 4416 
L 1125 4416 
L 1125 -397 
L 1875 -397 
L 1875 -844 
L 550 -844 
L 550 4863 
z
" transform="scale(0.015625)"/>
       <path id="DejaVuSans-61" d="M 2194 1759 
Q 1497 1759 1228 1600 
Q 959 1441 959 1056 
Q 959 750 1161 570 
Q 1363 391 1709 391 
Q 2188 391 2477 730 
Q 2766 1069 2766 1631 
L 2766 1759 
L 2194 1759 
z
M 3341 1997 
L 3341 0 
L 2766 0 
L 2766 531 
Q 2569 213 2275 61 
Q 1981 -91 1556 -91 
Q 1019 -91 701 211 
Q 384 513 384 1019 
Q 384 1609 779 1909 
Q 1175 2209 1959 2209 
L 2766 2209 
L 2766 2266 
Q 2766 2663 2505 2880 
Q 2244 3097 1772 3097 
Q 1472 3097 1187 3025 
Q 903 2953 641 2809 
L 641 3341 
Q 956 3463 1253 3523 
Q 1550 3584 1831 3584 
Q 2591 3584 2966 3190 
Q 3341 2797 3341 1997 
z
" transform="scale(0.015625)"/>
       <path id="DejaVuSans-2e" d="M 684 794 
L 1344 794 
L 1344 0 
L 684 0 
L 684 794 
z
" transform="scale(0.015625)"/>
       <path id="DejaVuSans-75" d="M 544 1381 
L 544 3500 
L 1119 3500 
L 1119 1403 
Q 1119 906 1312 657 
Q 1506 409 1894 409 
Q 2359 409 2629 706 
Q 2900 1003 2900 1516 
L 2900 3500 
L 3475 3500 
L 3475 0 
L 2900 0 
L 2900 538 
Q 2691 219 2414 64 
Q 2138 -91 1772 -91 
Q 1169 -91 856 284 
Q 544 659 544 1381 
z
M 1991 3584 
L 1991 3584 
z
" transform="scale(0.015625)"/>
       <path id="DejaVuSans-5d" d="M 1947 4863 
L 1947 -844 
L 622 -844 
L 622 -397 
L 1369 -397 
L 1369 4416 
L 622 4416 
L 622 4863 
L 1947 4863 
z
" transform="scale(0.015625)"/>
      </defs>
      <use xlink:href="#DejaVuSans-49"/>
      <use xlink:href="#DejaVuSans-6e" x="29.492188"/>
      <use xlink:href="#DejaVuSans-74" x="92.871094"/>
      <use xlink:href="#DejaVuSans-65" x="132.080078"/>
      <use xlink:href="#DejaVuSans-6e" x="193.603516"/>
      <use xlink:href="#DejaVuSans-73" x="256.982422"/>
      <use xlink:href="#DejaVuSans-69" x="309.082031"/>
      <use xlink:href="#DejaVuSans-74" x="336.865234"/>
      <use xlink:href="#DejaVuSans-69" x="376.074219"/>
      <use xlink:href="#DejaVuSans-65" x="403.857422"/>
      <use xlink:href="#DejaVuSans-73" x="465.380859"/>
      <use xlink:href="#DejaVuSans-20" x="517.480469"/>
      <use xlink:href="#DejaVuSans-5b" x="549.267578"/>
      <use xlink:href="#DejaVuSans-61" x="588.28125"/>
      <use xlink:href="#DejaVuSans-2e" x="649.560547"/>
      <use xlink:href="#DejaVuSans-75" x="681.347656"/>
      <use xlink:href="#DejaVuSans-2e" x="744.726562"/>
      <use xlink:href="#DejaVuSans-5d" x="776.513672"/>
     </g>
    </g>
   </g>
   <g id="line2d_17">
    <path d="M 73.832727 307.584 
L 73.865267 304.113864 
L 73.895301 307.584 
L 74.370841 294.851288 
L 74.410882 307.584 
L 74.886421 307.584 
L 74.906449 302.785831 
L 75.374488 307.584 
L 75.387 302.921158 
L 75.915092 307.584 
L 76.340584 302.262751 
L 76.393137 307.584 
L 76.878698 304.463753 
L 76.918739 304.521249 
L 77.389283 307.584 
L 77.88734 298.657287 
L 77.902357 307.584 
L 78.880981 307.584 
L 78.893492 303.99256 
L 78.978585 307.584 
L 79.90464 307.584 
L 79.919658 304.400647 
L 80.41773 307.584 
L 80.462767 303.929454 
L 80.848218 307.584 
L 80.880743 300.485262 
L 80.9283 307.584 
L 81.839338 307.584 
L 81.876889 302.471702 
L 82.402475 307.584 
L 82.852991 307.584 
L 82.883026 266.779579 
L 82.895538 303.064199 
L 83.396116 303.392351 
L 83.411133 302.849638 
L 83.861649 301.169613 
L 83.911696 305.007868 
L 84.387236 304.415371 
L 84.404758 303.475791 
L 84.9629 307.584 
L 85.395893 303.981341 
L 85.415906 304.172763 
L 85.465969 307.584 
L 85.878934 298.948277 
L 85.971543 307.584 
L 86.404536 307.584 
L 86.424564 301.706716 
L 86.477116 302.801257 
L 86.857557 307.584 
L 86.902609 301.390485 
L 86.937639 307.584 
L 86.9802 307.584 
L 87.393166 303.066302 
L 87.413194 307.584 
L 87.433206 302.068524 
L 87.908746 307.584 
L 87.931279 304.595574 
L 88.421836 307.584 
L 88.887369 299.934837 
L 88.919894 307.584 
L 89.365414 307.584 
L 89.397939 298.175578 
L 89.870988 304.106151 
L 89.901022 307.584 
L 90.411592 304.594172 
L 90.927187 307.584 
L 90.969734 302.686263 
L 91.402727 307.584 
L 91.420249 302.367928 
L 91.472802 307.584 
L 92.909442 307.584 
L 92.936971 297.411994 
L 92.987034 307.584 
L 93.399999 299.626317 
L 93.47258 307.584 
L 93.487597 300.061049 
L 93.940618 307.584 
L 93.983164 307.584 
L 94.403646 302.872076 
L 94.431175 307.584 
L 94.864168 307.584 
L 94.894203 300.671074 
L 94.94926 303.655293 
L 95.439817 307.584 
L 96.886464 307.584 
L 96.903986 304.568929 
L 96.951543 304.886564 
L 97.40956 303.151145 
L 97.479651 307.584 
L 97.895121 307.584 
L 97.985225 299.935537 
L 98.435741 307.584 
L 98.490799 303.143432 
L 98.936304 307.584 
L 98.996372 301.616264 
L 99.409338 294.560297 
L 99.481918 307.584 
L 99.499441 302.908537 
L 99.909916 302.222784 
L 100.002509 307.584 
L 100.488071 307.584 
L 100.916053 300.35344 
L 100.993645 307.584 
L 101.409115 307.584 
L 101.446666 304.268825 
L 101.859631 303.55853 
L 101.947229 307.584 
L 102.858267 307.584 
L 102.893312 304.813641 
L 102.960882 307.584 
L 103.433916 307.584 
L 103.86442 302.846132 
L 103.949512 307.584 
L 104.407529 294.86531 
L 104.445079 307.584 
L 104.492621 302.516578 
L 104.910597 296.468908 
L 105.0007 307.584 
L 105.416186 301.065838 
L 105.506274 307.584 
L 105.934272 307.584 
L 105.951795 302.266257 
L 106.011864 307.584 
L 106.424829 307.584 
L 106.497409 300.750308 
L 106.514932 301.661841 
L 106.925392 303.974329 
L 107.002983 307.584 
L 107.020506 297.299805 
L 107.486039 307.584 
L 107.523574 277.487986 
L 108.011641 307.584 
L 108.029148 287.050668 
L 108.447125 307.584 
L 108.512204 304.328425 
L 108.534722 50.150953 
L 108.965226 307.584 
L 109.035301 270.566645 
L 109.540875 307.584 
L 109.938823 302.917653 
L 109.956345 303.150444 
L 109.973868 307.584 
L 110.414362 307.584 
L 110.43439 301.377161 
L 110.46693 304.982625 
L 110.967493 307.584 
L 111.42302 298.047262 
L 111.443033 307.584 
L 111.926088 301.907253 
L 111.958628 307.584 
L 112.431662 304.595574 
L 112.521766 307.584 
L 112.967271 307.584 
L 113.007327 305.016983 
L 113.460333 307.584 
L 113.512901 303.716997 
L 113.925866 304.798916 
L 113.963401 307.584 
L 114.018474 303.886682 
L 114.46899 307.584 
L 114.521543 303.729618 
L 114.932018 307.584 
L 115.027117 301.8757 
L 115.410063 307.584 
L 115.532691 293.287658 
L 115.925643 301.196959 
L 116.018252 307.584 
L 116.035775 295.385585 
L 116.421211 300.136074 
L 116.433723 307.584 
L 116.483785 301.241133 
L 116.541349 295.760015 
L 116.924279 304.308091 
L 116.974342 307.584 
L 117.429853 304.497409 
L 117.945449 307.584 
L 117.962956 302.423321 
L 117.982984 307.584 
L 118.438496 307.584 
L 118.461029 302.59511 
L 118.956597 307.584 
L 118.976609 304.779283 
L 119.469672 307.584 
L 119.932699 304.282849 
L 119.947717 307.584 
L 119.985267 301.689887 
L 120.438273 302.783727 
L 120.475824 304.49811 
L 120.956374 307.584 
L 120.978892 303.545208 
L 120.99391 307.584 
L 121.466944 307.584 
L 121.534529 303.097855 
L 121.91746 304.150325 
L 122.025085 307.584 
L 122.438051 307.584 
L 122.530659 304.110358 
L 122.956152 304.043746 
L 123.033728 307.584 
L 123.436687 302.574074 
L 123.471732 307.584 
L 123.539302 302.855949 
L 123.939771 304.449729 
L 124.00734 307.584 
L 124.042385 301.732659 
L 124.445344 297.905624 
L 124.48288 307.584 
L 124.948413 307.584 
L 124.960925 304.243582 
L 124.99597 307.584 
L 125.491537 307.584 
L 125.954565 300.738387 
L 125.989595 307.584 
L 126.983236 307.584 
L 127.058322 301.498465 
L 127.421225 307.584 
L 127.453764 304.162947 
L 127.491315 307.584 
L 127.956833 289.250968 
L 127.994383 307.584 
L 128.462407 301.975969 
L 128.499957 304.954578 
L 128.947968 303.620935 
L 128.980508 307.584 
L 129.003026 304.861321 
L 129.47606 307.584 
L 129.941593 299.950963 
L 129.994161 307.584 
L 130.449672 304.467259 
L 130.53727 307.584 
L 130.987786 307.584 
L 131.002803 303.306807 
L 131.040354 307.584 
L 131.495865 303.511551 
L 131.545928 302.550935 
L 131.928859 307.584 
L 131.961399 302.306224 
L 131.998934 304.536675 
L 132.048996 307.584 
L 132.451955 303.111178 
L 132.471983 307.584 
L 132.491996 304.341747 
L 133.007592 307.584 
L 133.500654 307.584 
L 133.515671 304.106151 
L 133.963682 307.584 
L 133.981189 303.874762 
L 133.998711 307.584 
L 134.491774 307.584 
L 134.524313 298.501626 
L 135.009859 307.584 
L 135.497926 307.584 
L 135.570506 304.799617 
L 135.948442 304.154533 
L 135.998489 301.914966 
L 136.021022 307.584 
L 136.456506 295.44799 
L 136.524091 307.584 
L 136.95959 304.392232 
L 137.009637 307.584 
L 137.452652 304.850102 
L 137.500194 307.584 
L 137.95572 303.479297 
L 138.0208 307.584 
L 138.478817 307.584 
L 138.513862 299.303074 
L 138.946855 307.584 
L 138.964363 301.879206 
L 138.996902 307.584 
L 139.0845 307.584 
L 139.49247 303.32644 
L 139.552539 307.584 
L 139.990543 307.584 
L 140.00805 302.1134 
L 140.478594 307.584 
L 140.496117 302.707298 
L 140.561181 307.584 
L 140.979157 300.931212 
L 141.016708 307.584 
L 141.990305 307.584 
L 142.007828 303.067003 
L 142.02535 307.584 
L 142.475866 303.292783 
L 142.50089 296.325166 
L 142.513402 301.285307 
L 143.01398 307.584 
L 143.436952 307.584 
L 143.469492 304.099139 
L 143.507042 307.584 
L 144.505678 307.584 
L 144.520695 304.751236 
L 144.953689 303.631453 
L 145.003736 307.584 
L 145.514321 307.584 
L 145.979854 304.449028 
L 146.014899 307.584 
L 146.505456 307.584 
L 146.520473 304.268825 
L 146.537996 307.584 
L 146.986006 307.584 
L 147.003513 304.467259 
L 147.023541 304.562619 
L 147.514098 307.584 
L 147.549143 303.351682 
L 147.962109 303.565542 
L 148.032184 307.584 
L 148.522756 307.584 
L 148.983278 303.40357 
L 149.043347 307.584 
L 149.47634 307.584 
L 149.528893 303.874061 
L 149.548921 307.584 
L 150.016944 307.584 
L 150.497494 301.56017 
L 150.522518 307.584 
L 150.998073 307.584 
L 151.025602 304.677612 
L 151.476118 304.740718 
L 151.503647 303.317325 
L 151.516159 307.584 
L 151.981692 307.584 
L 152.001704 302.790739 
L 152.03675 307.584 
L 152.492261 307.584 
L 152.514795 303.247207 
L 152.527306 307.584 
L 153.500919 307.584 
L 153.523437 302.707298 
L 153.535949 307.584 
L 154.512067 307.584 
L 154.527084 303.205837 
L 154.9776 303.116787 
L 154.995122 301.261467 
L 155.015135 307.584 
L 155.030152 307.584 
L 155.523214 307.584 
L 155.538232 304.090024 
L 156.001259 303.974329 
L 156.0413 307.584 
L 156.494322 307.584 
L 156.531872 302.322351 
L 157.014913 307.584 
L 157.034941 303.224068 
L 157.049958 307.584 
L 157.47293 307.584 
L 157.490452 303.874061 
L 157.51048 307.584 
L 158.02357 307.584 
L 158.043583 293.939052 
L 158.061106 304.197304 
L 158.464065 303.357993 
L 158.564174 307.584 
L 158.581697 304.609598 
L 158.984656 304.737213 
L 159.037224 304.497409 
L 159.054731 307.584 
L 159.975791 307.584 
L 159.993298 302.572672 
L 160.048371 304.92022 
L 160.113436 307.584 
L 160.5189 307.584 
L 160.553945 303.060693 
L 160.616519 307.584 
L 161.06453 307.584 
L 161.50753 301.002031 
L 161.567599 307.584 
L 161.993076 301.821709 
L 162.010598 307.584 
L 162.033132 300.947339 
L 162.103207 303.524172 
L 162.466125 304.716878 
L 162.5362 307.584 
L 163.056791 307.584 
L 163.086826 298.390139 
L 163.474767 302.033465 
L 163.489785 307.584 
L 163.539847 304.124382 
L 163.980341 307.584 
L 163.992853 302.219278 
L 164.047926 307.584 
L 165.009012 307.584 
L 165.031545 304.060574 
L 165.086603 307.584 
L 165.479556 307.584 
L 165.514586 303.92104 
L 165.549631 307.584 
L 166.035177 307.584 
L 166.052699 301.757902 
L 166.505721 304.36699 
L 166.560779 307.584 
L 167.026312 307.584 
L 167.04634 304.294067 
L 167.061357 307.584 
L 167.566931 307.584 
L 168.014942 303.476492 
L 168.052477 307.584 
L 168.548044 307.584 
L 168.991044 303.871256 
L 169.09867 307.584 
L 169.554181 307.584 
L 169.984685 303.57045 
L 170.057265 307.584 
L 170.109818 297.970833 
L 170.507781 307.584 
L 170.542811 303.490516 
L 170.557828 307.584 
L 171.503912 307.584 
L 171.538942 303.385339 
L 171.566486 307.584 
L 172.042025 307.584 
L 172.104584 286.097064 
L 172.525066 307.584 
L 172.605163 295.735473 
L 173.070696 307.584 
L 173.503689 307.584 
L 173.523702 301.436061 
L 173.54373 303.756263 
L 174.076833 307.584 
L 174.552372 304.47427 
L 174.60494 307.584 
L 175.070473 307.584 
L 175.538497 299.88365 
L 175.578553 307.584 
L 175.991518 307.584 
L 176.111656 297.158868 
L 176.497092 301.997705 
L 176.512109 307.584 
L 176.567167 302.939389 
L 177.087758 307.584 
L 177.120298 303.895797 
L 177.50824 300.342221 
L 177.560808 307.584 
L 177.573319 304.898484 
L 178.081399 307.584 
L 179.075024 307.584 
L 179.120076 302.623859 
L 179.563075 307.584 
L 179.623144 304.508628 
L 180.016097 301.60224 
L 180.066144 307.584 
L 180.52167 297.929464 
L 180.611774 307.584 
L 181.024739 307.584 
L 181.059784 302.442253 
L 181.114842 304.003078 
L 181.565358 307.584 
L 181.582896 302.098675 
L 181.620416 307.584 
L 182.068427 307.584 
L 182.123485 302.750772 
L 182.611551 307.584 
L 182.629058 302.017339 
L 183.039549 307.584 
L 183.107103 300.232837 
L 183.580168 307.584 
L 183.610202 304.876046 
L 184.033159 303.614624 
L 184.088247 307.584 
L 184.548754 304.716878 
L 184.591316 307.584 
L 184.646374 287.073807 
L 185.09689 307.584 
L 185.126924 298.283559 
L 185.149442 298.364194 
L 185.554891 304.87254 
L 185.58242 307.584 
L 186.087994 307.584 
L 186.135567 299.577235 
L 186.638635 307.584 
L 188.598357 307.584 
L 188.6184 304.764558 
L 189.068916 307.584 
L 189.121468 303.073314 
L 189.534434 307.584 
L 189.556952 302.461185 
L 189.627042 307.584 
L 190.057515 304.158739 
L 190.077558 307.584 
L 190.130111 304.342448 
L 190.598134 307.584 
L 190.635685 303.077521 
L 191.088706 307.584 
L 191.103708 303.241597 
L 191.141259 304.280044 
L 191.576773 307.584 
L 191.644327 294.178155 
L 192.029763 307.584 
L 192.079841 302.435942 
L 192.58291 307.584 
L 193.088484 307.584 
L 193.158543 296.527806 
L 193.594057 307.584 
L 193.661642 304.619414 
L 194.067092 307.584 
L 194.099631 303.801138 
L 194.572665 307.584 
L 195.038183 298.392943 
L 195.090766 307.584 
L 196.084376 307.584 
L 196.534892 304.157337 
L 196.592456 307.584 
L 197.037961 304.065483 
L 197.108051 301.324573 
L 197.140591 307.584 
L 197.596118 307.584 
L 197.636143 303.763976 
L 198.044128 304.751236 
L 198.119199 303.337659 
L 198.139242 307.584 
L 198.60476 307.584 
L 198.642311 304.547193 
L 198.709865 307.584 
L 199.045255 303.928753 
L 199.097807 303.874061 
L 199.145379 307.584 
L 199.210459 307.584 
L 199.570872 302.160379 
L 199.650953 307.584 
L 200.071435 307.584 
L 200.088942 304.15313 
L 200.134009 307.584 
L 200.609549 307.584 
L 201.06257 302.260647 
L 201.080077 299.265911 
L 201.115122 307.584 
L 202.106258 307.584 
L 202.541741 301.470419 
L 202.579292 307.584 
L 203.044809 304.480581 
L 203.084866 307.584 
L 203.590439 307.584 
L 204.053452 303.029841 
L 204.091003 307.584 
L 205.10215 307.584 
L 205.137196 300.53154 
L 205.607724 307.584 
L 205.637759 303.109776 
L 205.725356 307.584 
L 206.095791 307.584 
L 206.115804 302.938688 
L 206.138322 307.584 
L 207.574962 307.584 
L 207.672581 304.573838 
L 208.060523 307.584 
L 208.566097 307.584 
L 208.681224 302.104284 
L 209.064155 307.584 
L 209.104211 304.294067 
L 209.557232 307.584 
L 210.060301 304.730902 
L 210.117864 307.584 
L 211.066438 307.584 
L 211.106494 303.583072 
L 211.126506 307.584 
L 211.979997 307.584 
L 212.062584 304.472868 
L 212.117641 307.584 
L 212.235274 299.9727 
L 212.595686 302.900123 
L 212.62071 307.584 
L 212.740848 270.46638 
L 213.111282 307.584 
L 213.243916 287.394247 
L 214.119924 307.584 
L 214.252558 307.584 
L 214.605486 303.608314 
L 215.131072 307.584 
L 216.084657 307.584 
L 216.104669 303.742239 
L 216.137209 307.584 
L 217.075792 307.584 
L 217.115817 304.338943 
L 217.621391 307.584 
L 218.066927 307.584 
L 218.12449 304.401347 
L 218.747696 307.584 
L 219.068053 304.352966 
L 219.100593 307.584 
L 219.148135 304.124382 
L 219.250765 303.067003 
L 219.571121 303.061394 
L 219.668741 307.584 
L 220.259407 307.584 
L 220.597302 300.687202 
L 220.632347 307.584 
L 220.747474 302.765497 
L 221.120383 307.584 
L 223.155206 307.584 
L 223.588184 299.303775 
L 223.62824 300.405327 
L 223.658274 307.584 
L 223.745872 297.152557 
L 224.088777 307.584 
L 224.24894 303.40357 
L 224.496732 304.400647 
L 224.754514 303.729618 
L 225.077407 307.584 
L 225.119938 302.816683 
L 225.139951 307.584 
L 225.257583 303.839703 
L 225.57797 303.054382 
L 225.628017 304.051459 
L 225.763187 297.66021 
L 226.081039 304.751236 
L 226.266256 302.714311 
L 226.654198 307.584 
L 226.77183 298.686036 
L 227.092186 307.584 
L 227.162277 304.387324 
L 227.274898 307.584 
L 227.69538 307.584 
L 227.780472 301.616264 
L 228.155887 307.584 
L 229.770228 307.584 
L 230.098101 303.667213 
L 230.138157 307.584 
L 230.22826 304.113864 
L 230.275802 304.945463 
L 230.743856 303.364304 
L 230.761363 307.584 
L 231.091741 303.949788 
L 231.146799 304.581551 
L 231.264432 307.584 
L 231.592305 304.798916 
L 231.682408 307.584 
L 231.752498 303.084533 
L 231.770006 304.415371 
L 232.092868 304.138406 
L 232.185476 307.584 
L 232.595936 307.584 
L 232.69105 303.788517 
L 233.081497 304.643956 
L 233.149082 307.584 
L 233.584566 307.584 
L 233.602104 299.765852 
L 233.654656 303.711388 
L 234.087634 303.836898 
L 234.140217 307.584 
L 234.595714 304.435004 
L 235.659445 307.584 
L 236.107455 307.584 
L 236.165018 304.029723 
L 236.768212 303.836898 
L 237.153648 307.584 
L 237.178672 301.703912 
L 237.27128 307.584 
L 237.641684 304.847298 
L 237.77936 273.821518 
L 238.162291 307.584 
L 238.279923 296.17301 
L 238.595269 307.584 
L 239.155931 307.584 
L 239.203473 302.305523 
L 239.709047 307.584 
L 240.212115 307.584 
L 240.602562 304.304585 
L 240.62007 307.584 
L 240.670147 304.483386 
L 241.173216 307.584 
L 241.611205 307.584 
L 241.67879 302.887502 
L 242.166856 304.92022 
L 243.120441 307.584 
L 243.172993 303.313117 
L 243.593475 304.272331 
L 243.676062 307.584 
L 244.171614 302.011729 
L 245.160244 307.584 
L 245.620781 307.584 
L 247.18257 300.732778 
L 247.230112 307.584 
L 247.685638 304.550699 
L 247.73318 300.594645 
L 248.023503 307.584 
L 248.236249 299.10464 
L 248.739317 307.584 
L 249.127259 307.584 
L 249.187328 302.946401 
L 249.600293 304.186787 
L 249.672889 307.584 
L 250.608966 302.912043 
L 250.626473 307.584 
L 251.602576 307.584 
L 251.617608 303.691053 
L 251.675172 307.584 
L 252.598722 307.584 
L 252.68632 304.49811 
L 253.189388 307.584 
L 255.206703 307.584 
L 255.254245 302.189828 
L 255.677232 300.896153 
L 255.759819 302.915549 
L 256.202819 307.584 
L 256.260382 298.599791 
L 256.723425 303.11258 
L 256.763451 307.584 
L 258.185089 307.584 
L 259.191226 303.364304 
L 260.134789 307.584 
L 260.199868 303.317325 
L 260.537763 307.584 
L 260.69044 304.838182 
L 260.830591 307.584 
L 261.211016 307.584 
L 263.21831 302.799854 
L 264.209445 307.584 
L 266.209223 307.584 
L 266.759833 302.283786 
L 267.217865 307.584 
L 272.216041 307.584 
L 272.283626 298.917425 
L 273.224714 307.584 
L 274.233356 307.584 
L 274.758943 304.186787 
L 274.811495 307.584 
L 275.241998 307.584 
L 275.259506 303.597095 
L 275.327091 304.581551 
L 275.842686 301.203269 
L 276.235639 301.844848 
L 276.713684 301.668852 
L 276.851329 307.584 
L 278.225395 304.483386 
L 278.655867 307.584 
L 279.158966 307.584 
L 279.777162 303.360798 
L 280.225172 304.788399 
L 282.325044 307.584 
L 283.333717 304.008687 
L 283.796729 303.597095 
L 284.064534 307.584 
L 284.662716 307.584 
L 284.805372 300.591841 
L 285.165785 304.14121 
L 285.30844 302.248728 
L 285.673864 307.584 
L 285.758956 304.982625 
L 285.814045 289.452908 
L 286.164436 307.584 
L 286.176932 302.46399 
L 286.317113 291.489132 
L 286.332115 307.584 
L 286.792653 307.584 
L 286.822687 304.656577 
L 287.173078 303.818668 
L 287.293216 304.141911 
L 287.325756 307.584 
L 287.83133 304.522652 
L 287.853848 307.584 
L 288.737372 299.567418 
L 288.855005 307.584 
L 289.861142 307.584 
L 289.876143 303.240195 
L 290.349178 298.653782 
L 290.852277 300.99572 
L 291.790829 307.584 
L 291.820863 304.60469 
L 292.293897 303.697364 
L 292.801976 291.407797 
L 292.829505 307.584 
L 293.335079 307.584 
L 293.810619 272.391116 
L 293.835673 307.584 
L 294.313718 307.584 
L 294.338741 299.759541 
L 294.676605 307.584 
L 294.844315 291.111196 
L 295.317349 302.829304 
L 295.347384 300.265793 
L 295.850452 307.584 
L 296.819069 301.52441 
L 297.322138 299.352857 
L 297.367174 302.284488 
L 297.827712 301.466212 
L 297.867737 304.186787 
L 298.33078 307.584 
L 298.373311 301.286008 
L 298.836354 303.3622 
L 299.271838 303.416892 
L 299.354455 302.719218 
L 299.814962 302.859454 
L 299.847502 304.280044 
L 300.262973 303.410581 
L 300.363097 307.584 
L 300.866166 307.584 
L 300.878693 297.0593 
L 301.186523 301.508984 
L 301.329178 300.872312 
L 301.354233 307.584 
L 301.829772 307.584 
L 301.857301 302.731139 
L 302.332841 307.584 
L 303.273898 307.584 
L 303.374023 288.103138 
L 303.874586 292.510049 
L 304.382665 168.578729 
L 304.815674 291.566262 
L 304.885734 238.772381 
L 305.318742 303.361499 
L 305.388802 283.081996 
L 305.891871 300.629004 
L 306.327385 301.932496 
L 306.700294 307.584 
L 306.832959 304.090024 
L 307.195877 307.584 
L 307.336027 303.565542 
L 307.363556 296.656122 
L 307.701451 307.584 
L 307.841601 293.493103 
L 307.866625 297.489123 
L 308.204519 307.584 
L 308.34467 304.377508 
L 308.372198 296.095179 
L 308.707588 307.584 
L 308.845233 299.085007 
L 309.210656 307.584 
L 309.350837 288.553295 
L 309.8514 292.83119 
L 310.359479 242.103679 
L 310.389514 303.095051 
L 310.860043 285.330676 
L 310.892582 304.477776 
L 311.298031 307.584 
L 311.398156 302.596512 
L 311.831134 303.847416 
L 311.901225 307.584 
L 313.337865 307.584 
L 313.367899 304.308091 
L 313.873473 302.921859 
L 314.376542 286.397871 
L 314.714436 304.76526 
L 314.87961 301.637299 
L 315.202472 304.029723 
L 315.357655 304.245686 
L 315.38769 203.801773 
L 315.708046 304.207121 
L 315.860724 303.949087 
L 315.888253 237.553728 
L 316.211145 307.584 
L 316.366298 298.075309 
L 316.393827 263.028268 
L 316.869366 307.584 
L 316.896926 294.153614 
L 317.372465 303.881774 
L 317.405005 283.853991 
L 317.837983 298.018513 
L 317.873028 307.584 
L 317.908073 301.882712 
L 318.356084 299.939043 
L 318.413647 278.130969 
L 318.849131 288.658473 
L 318.916716 296.686973 
L 319.21706 307.584 
L 319.387245 300.590439 
L 319.419784 307.584 
L 319.852762 307.584 
L 319.887808 303.414087 
L 319.922853 307.584 
L 320.10807 307.584 
L 320.355861 304.017101 
L 321.364504 304.33123 
L 321.397044 303.123098 
L 321.867572 307.584 
L 321.900112 303.848117 
L 322.373146 275.75888 
L 322.403181 302.855949 
L 322.428204 301.858171 
L 322.876215 292.243601 
L 322.931273 301.880609 
L 323.381789 134.284047 
L 323.409318 307.584 
L 323.884857 254.858827 
L 324.217741 307.584 
L 324.387926 261.078289 
L 324.422971 304.158739 
L 324.72081 307.584 
L 324.888519 300.681592 
L 325.391588 294.976096 
L 325.411601 307.584 
L 325.434119 303.438628 
L 326.390209 273.949134 
L 326.420243 307.584 
L 326.893277 292.810855 
L 327.371322 307.584 
L 327.398882 280.381752 
L 327.721744 307.584 
L 327.874421 302.461886 
L 327.90195 286.104074 
L 328.37749 298.463762 
L 328.410029 283.661869 
L 328.880558 304.522652 
L 328.913098 292.815764 
L 329.388637 307.584 
L 329.418672 258.965633 
L 329.891706 304.2541 
L 329.92174 280.134237 
L 330.377267 307.584 
L 330.394774 303.946282 
L 330.424809 295.025881 
L 330.897843 307.584 
L 330.962923 303.730319 
L 331.368372 303.158858 
L 331.400911 303.794828 
L 331.465991 307.584 
L 331.868965 307.584 
L 331.90398 304.813641 
L 332.121737 307.584 
L 332.409584 307.584 
L 332.912653 301.978773 
L 333.378171 301.521605 
L 333.408205 300.795183 
L 333.420732 307.584 
L 333.881239 303.824277 
L 333.911274 307.584 
L 334.386813 271.705362 
L 334.426869 307.584 
L 334.889882 283.968285 
L 335.395456 277.889763 
L 335.898555 298.826271 
L 336.406634 281.944682 
L 336.907197 292.29058 
L 337.415276 295.124748 
L 337.915839 301.47743 
L 338.351323 304.609598 
L 338.418908 301.58401 
L 338.879446 307.584 
L 338.919471 301.171716 
L 339.397516 301.178728 
L 339.412548 295.070055 
L 339.900584 304.603287 
L 339.915617 299.235059 
L 340.396167 307.584 
L 340.423696 265.021719 
L 340.89673 302.471001 
L 340.926765 292.751255 
L 341.402304 304.784191 
L 341.905373 307.584 
L 341.967947 303.944179 
L 342.405936 307.584 
L 342.46851 304.625725 
L 342.909035 298.749843 
L 343.414609 304.160843 
L 343.917677 307.584 
L 344.423251 307.584 
L 345.431894 294.307873 
L 346.372951 304.959486 
L 346.402985 283.499897 
L 346.976144 300.229331 
L 347.411658 300.90597 
L 347.479213 303.010208 
L 347.912221 293.262415 
L 348.420301 246.289718 
L 348.885819 303.132914 
L 348.923369 283.724974 
L 348.955909 299.525347 
L 349.391393 307.584 
L 349.426438 295.16191 
L 349.927001 291.958922 
L 349.964552 299.134089 
L 350.465115 302.772508 
L 350.920641 307.584 
L 352.419856 303.433019 
L 353.914059 304.615908 
L 354.422139 302.133033 
L 355.993918 304.70636 
L 356.939987 304.386623 
L 357.44556 307.584 
L 359.890843 307.584 
L 360.00099 303.33836 
L 361.522722 307.584 
L 361.772988 304.97982 
L 361.908158 307.584 
L 363.439882 307.584 
L 367.887448 302.853144 
L 368.393022 304.886564 
L 372.913183 307.584 
L 373.921825 304.45604 
L 375.556179 307.584 
L 383.307498 307.584 
L 383.813072 304.777881 
L 394.940739 307.584 
L 398.487273 303.967318 
L 398.487273 303.967318 
" clip-path="url(#pa1ce6916ce)" style="fill: none; stroke: #1f77b4; stroke-width: 1.5; stroke-linecap: square"/>
   </g>
   <g id="patch_3">
    <path d="M 57.6 307.584 
L 57.6 41.472 
" style="fill: none; stroke: #000000; stroke-width: 0.8; stroke-linejoin: miter; stroke-linecap: square"/>
   </g>
   <g id="patch_4">
    <path d="M 414.72 307.584 
L 414.72 41.472 
" style="fill: none; stroke: #000000; stroke-width: 0.8; stroke-linejoin: miter; stroke-linecap: square"/>
   </g>
   <g id="patch_5">
    <path d="M 57.6 307.584 
L 414.72 307.584 
" style="fill: none; stroke: #000000; stroke-width: 0.8; stroke-linejoin: miter; stroke-linecap: square"/>
   </g>
   <g id="patch_6">
    <path d="M 57.6 41.472 
L 414.72 41.472 
" style="fill: none; stroke: #000000; stroke-width: 0.8; stroke-linejoin: miter; stroke-linecap: square"/>
   </g>
   <g id="legend_1">
    <g id="patch_7">
     <path d="M 323.385625 64.150125 
L 407.72 64.150125 
Q 409.72 64.150125 409.72 62.150125 
L 409.72 48.472 
Q 409.72 46.472 407.72 46.472 
L 323.385625 46.472 
Q 321.385625 46.472 321.385625 48.472 
L 321.385625 62.150125 
Q 321.385625 64.150125 323.385625 64.150125 
z
" style="fill: #ffffff; opacity: 0.8; stroke: #cccccc; stroke-linejoin: miter"/>
    </g>
    <g id="line2d_18">
     <path d="M 325.385625 54.570438 
L 335.385625 54.570438 
L 345.385625 54.570438 
" style="fill: none; stroke: #1f77b4; stroke-width: 1.5; stroke-linecap: square"/>
    </g>
    <g id="text_19">
     <!-- (427, 311) -->
     <g transform="translate(353.385625 58.070438) scale(0.1 -0.1)">
      <defs>
       <path id="DejaVuSans-28" d="M 1984 4856 
Q 1566 4138 1362 3434 
Q 1159 2731 1159 2009 
Q 1159 1288 1364 580 
Q 1569 -128 1984 -844 
L 1484 -844 
Q 1016 -109 783 600 
Q 550 1309 550 2009 
Q 550 2706 781 3412 
Q 1013 4119 1484 4856 
L 1984 4856 
z
" transform="scale(0.015625)"/>
       <path id="DejaVuSans-2c" d="M 750 794 
L 1409 794 
L 1409 256 
L 897 -744 
L 494 -744 
L 750 256 
L 750 794 
z
" transform="scale(0.015625)"/>
       <path id="DejaVuSans-29" d="M 513 4856 
L 1013 4856 
Q 1481 4119 1714 3412 
Q 1947 2706 1947 2009 
Q 1947 1309 1714 600 
Q 1481 -109 1013 -844 
L 513 -844 
Q 928 -128 1133 580 
Q 1338 1288 1338 2009 
Q 1338 2731 1133 3434 
Q 928 4138 513 4856 
z
" transform="scale(0.015625)"/>
      </defs>
      <use xlink:href="#DejaVuSans-28"/>
      <use xlink:href="#DejaVuSans-34" x="39.013672"/>
      <use xlink:href="#DejaVuSans-32" x="102.636719"/>
      <use xlink:href="#DejaVuSans-37" x="166.259766"/>
      <use xlink:href="#DejaVuSans-2c" x="229.882812"/>
      <use xlink:href="#DejaVuSans-20" x="261.669922"/>
      <use xlink:href="#DejaVuSans-33" x="293.457031"/>
      <use xlink:href="#DejaVuSans-31" x="357.080078"/>
      <use xlink:href="#DejaVuSans-31" x="420.703125"/>
      <use xlink:href="#DejaVuSans-29" x="484.326172"/>
     </g>
    </g>
   </g>
  </g>
 </g>
 <defs>
  <clipPath id="pa1ce6916ce">
   <rect x="57.6" y="41.472" width="357.12" height="266.112"/>
  </clipPath>
 </defs>
</svg>
