<?xml version="1.0" encoding="utf-8" standalone="no"?>
<!DOCTYPE svg PUBLIC "-//W3C//DTD SVG 1.1//EN"
  "http://www.w3.org/Graphics/SVG/1.1/DTD/svg11.dtd">
<svg xmlns:xlink="http://www.w3.org/1999/xlink" width="460.8pt" height="345.6pt" viewBox="0 0 460.8 345.6" xmlns="http://www.w3.org/2000/svg" version="1.1">
 <metadata>
  <rdf:RDF xmlns:dc="http://purl.org/dc/elements/1.1/" xmlns:cc="http://creativecommons.org/ns#" xmlns:rdf="http://www.w3.org/1999/02/22-rdf-syntax-ns#">
   <cc:Work>
    <dc:type rdf:resource="http://purl.org/dc/dcmitype/StillImage"/>
    <dc:date>2025-12-03T20:42:15.673359</dc:date>
    <dc:format>image/svg+xml</dc:format>
    <dc:creator>
     <cc:Agent>
      <dc:title>Matplotlib v3.8.4, https://matplotlib.org/</dc:title>
     </cc:Agent>
    </dc:creator>
   </cc:Work>
  </rdf:RDF>
 </metadata>
 <defs>
  <style type="text/css">*{stroke-linejoin: round; stroke-linecap: butt}</style>
 </defs>
 <g id="figure_1">
  <g id="patch_1">
   <path d="M 0 345.6 
L 460.8 345.6 
L 460.8 0 
L 0 0 
z
" style="fill: #ffffff"/>
  </g>
  <g id="axes_1">
   <g id="patch_2">
    <path d="M 57.6 307.584 
L 414.72 307.584 
L 414.72 41.472 
L 57.6 41.472 
z
" style="fill: #ffffff"/>
   </g>
   <g id="matplotlib.axis_1">
    <g id="xtick_1">
     <g id="line2d_1">
      <defs>
       <path id="mf03a029784" d="M 0 0 
L 0 3.5 
" style="stroke: #000000; stroke-width: 0.8"/>
      </defs>
      <g>
       <use xlink:href="#mf03a029784" x="73.818841" y="307.584" style="stroke: #000000; stroke-width: 0.8"/>
      </g>
     </g>
     <g id="text_1">
      <!-- 300 -->
      <g transform="translate(64.275091 322.182437) scale(0.1 -0.1)">
       <defs>
        <path id="DejaVuSans-33" d="M 2597 2516 
Q 3050 2419 3304 2112 
Q 3559 1806 3559 1356 
Q 3559 666 3084 287 
Q 2609 -91 1734 -91 
Q 1441 -91 1130 -33 
Q 819 25 488 141 
L 488 750 
Q 750 597 1062 519 
Q 1375 441 1716 441 
Q 2309 441 2620 675 
Q 2931 909 2931 1356 
Q 2931 1769 2642 2001 
Q 2353 2234 1838 2234 
L 1294 2234 
L 1294 2753 
L 1863 2753 
Q 2328 2753 2575 2939 
Q 2822 3125 2822 3475 
Q 2822 3834 2567 4026 
Q 2313 4219 1838 4219 
Q 1578 4219 1281 4162 
Q 984 4106 628 3988 
L 628 4550 
Q 988 4650 1302 4700 
Q 1616 4750 1894 4750 
Q 2613 4750 3031 4423 
Q 3450 4097 3450 3541 
Q 3450 3153 3228 2886 
Q 3006 2619 2597 2516 
z
" transform="scale(0.015625)"/>
        <path id="DejaVuSans-30" d="M 2034 4250 
Q 1547 4250 1301 3770 
Q 1056 3291 1056 2328 
Q 1056 1369 1301 889 
Q 1547 409 2034 409 
Q 2525 409 2770 889 
Q 3016 1369 3016 2328 
Q 3016 3291 2770 3770 
Q 2525 4250 2034 4250 
z
M 2034 4750 
Q 2819 4750 3233 4129 
Q 3647 3509 3647 2328 
Q 3647 1150 3233 529 
Q 2819 -91 2034 -91 
Q 1250 -91 836 529 
Q 422 1150 422 2328 
Q 422 3509 836 4129 
Q 1250 4750 2034 4750 
z
" transform="scale(0.015625)"/>
       </defs>
       <use xlink:href="#DejaVuSans-33"/>
       <use xlink:href="#DejaVuSans-30" x="63.623047"/>
       <use xlink:href="#DejaVuSans-30" x="127.246094"/>
      </g>
     </g>
    </g>
    <g id="xtick_2">
     <g id="line2d_2">
      <g>
       <use xlink:href="#mf03a029784" x="123.878205" y="307.584" style="stroke: #000000; stroke-width: 0.8"/>
      </g>
     </g>
     <g id="text_2">
      <!-- 400 -->
      <g transform="translate(114.334455 322.182437) scale(0.1 -0.1)">
       <defs>
        <path id="DejaVuSans-34" d="M 2419 4116 
L 825 1625 
L 2419 1625 
L 2419 4116 
z
M 2253 4666 
L 3047 4666 
L 3047 1625 
L 3713 1625 
L 3713 1100 
L 3047 1100 
L 3047 0 
L 2419 0 
L 2419 1100 
L 313 1100 
L 313 1709 
L 2253 4666 
z
" transform="scale(0.015625)"/>
       </defs>
       <use xlink:href="#DejaVuSans-34"/>
       <use xlink:href="#DejaVuSans-30" x="63.623047"/>
       <use xlink:href="#DejaVuSans-30" x="127.246094"/>
      </g>
     </g>
    </g>
    <g id="xtick_3">
     <g id="line2d_3">
      <g>
       <use xlink:href="#mf03a029784" x="173.937569" y="307.584" style="stroke: #000000; stroke-width: 0.8"/>
      </g>
     </g>
     <g id="text_3">
      <!-- 500 -->
      <g transform="translate(164.393819 322.182437) scale(0.1 -0.1)">
       <defs>
        <path id="DejaVuSans-35" d="M 691 4666 
L 3169 4666 
L 3169 4134 
L 1269 4134 
L 1269 2991 
Q 1406 3038 1543 3061 
Q 1681 3084 1819 3084 
Q 2600 3084 3056 2656 
Q 3513 2228 3513 1497 
Q 3513 744 3044 326 
Q 2575 -91 1722 -91 
Q 1428 -91 1123 -41 
Q 819 9 494 109 
L 494 744 
Q 775 591 1075 516 
Q 1375 441 1709 441 
Q 2250 441 2565 725 
Q 2881 1009 2881 1497 
Q 2881 1984 2565 2268 
Q 2250 2553 1709 2553 
Q 1456 2553 1204 2497 
Q 953 2441 691 2322 
L 691 4666 
z
" transform="scale(0.015625)"/>
       </defs>
       <use xlink:href="#DejaVuSans-35"/>
       <use xlink:href="#DejaVuSans-30" x="63.623047"/>
       <use xlink:href="#DejaVuSans-30" x="127.246094"/>
      </g>
     </g>
    </g>
    <g id="xtick_4">
     <g id="line2d_4">
      <g>
       <use xlink:href="#mf03a029784" x="223.996933" y="307.584" style="stroke: #000000; stroke-width: 0.8"/>
      </g>
     </g>
     <g id="text_4">
      <!-- 600 -->
      <g transform="translate(214.453183 322.182437) scale(0.1 -0.1)">
       <defs>
        <path id="DejaVuSans-36" d="M 2113 2584 
Q 1688 2584 1439 2293 
Q 1191 2003 1191 1497 
Q 1191 994 1439 701 
Q 1688 409 2113 409 
Q 2538 409 2786 701 
Q 3034 994 3034 1497 
Q 3034 2003 2786 2293 
Q 2538 2584 2113 2584 
z
M 3366 4563 
L 3366 3988 
Q 3128 4100 2886 4159 
Q 2644 4219 2406 4219 
Q 1781 4219 1451 3797 
Q 1122 3375 1075 2522 
Q 1259 2794 1537 2939 
Q 1816 3084 2150 3084 
Q 2853 3084 3261 2657 
Q 3669 2231 3669 1497 
Q 3669 778 3244 343 
Q 2819 -91 2113 -91 
Q 1303 -91 875 529 
Q 447 1150 447 2328 
Q 447 3434 972 4092 
Q 1497 4750 2381 4750 
Q 2619 4750 2861 4703 
Q 3103 4656 3366 4563 
z
" transform="scale(0.015625)"/>
       </defs>
       <use xlink:href="#DejaVuSans-36"/>
       <use xlink:href="#DejaVuSans-30" x="63.623047"/>
       <use xlink:href="#DejaVuSans-30" x="127.246094"/>
      </g>
     </g>
    </g>
    <g id="xtick_5">
     <g id="line2d_5">
      <g>
       <use xlink:href="#mf03a029784" x="274.056297" y="307.584" style="stroke: #000000; stroke-width: 0.8"/>
      </g>
     </g>
     <g id="text_5">
      <!-- 700 -->
      <g transform="translate(264.512547 322.182437) scale(0.1 -0.1)">
       <defs>
        <path id="DejaVuSans-37" d="M 525 4666 
L 3525 4666 
L 3525 4397 
L 1831 0 
L 1172 0 
L 2766 4134 
L 525 4134 
L 525 4666 
z
" transform="scale(0.015625)"/>
       </defs>
       <use xlink:href="#DejaVuSans-37"/>
       <use xlink:href="#DejaVuSans-30" x="63.623047"/>
       <use xlink:href="#DejaVuSans-30" x="127.246094"/>
      </g>
     </g>
    </g>
    <g id="xtick_6">
     <g id="line2d_6">
      <g>
       <use xlink:href="#mf03a029784" x="324.115661" y="307.584" style="stroke: #000000; stroke-width: 0.8"/>
      </g>
     </g>
     <g id="text_6">
      <!-- 800 -->
      <g transform="translate(314.571911 322.182437) scale(0.1 -0.1)">
       <defs>
        <path id="DejaVuSans-38" d="M 2034 2216 
Q 1584 2216 1326 1975 
Q 1069 1734 1069 1313 
Q 1069 891 1326 650 
Q 1584 409 2034 409 
Q 2484 409 2743 651 
Q 3003 894 3003 1313 
Q 3003 1734 2745 1975 
Q 2488 2216 2034 2216 
z
M 1403 2484 
Q 997 2584 770 2862 
Q 544 3141 544 3541 
Q 544 4100 942 4425 
Q 1341 4750 2034 4750 
Q 2731 4750 3128 4425 
Q 3525 4100 3525 3541 
Q 3525 3141 3298 2862 
Q 3072 2584 2669 2484 
Q 3125 2378 3379 2068 
Q 3634 1759 3634 1313 
Q 3634 634 3220 271 
Q 2806 -91 2034 -91 
Q 1263 -91 848 271 
Q 434 634 434 1313 
Q 434 1759 690 2068 
Q 947 2378 1403 2484 
z
M 1172 3481 
Q 1172 3119 1398 2916 
Q 1625 2713 2034 2713 
Q 2441 2713 2670 2916 
Q 2900 3119 2900 3481 
Q 2900 3844 2670 4047 
Q 2441 4250 2034 4250 
Q 1625 4250 1398 4047 
Q 1172 3844 1172 3481 
z
" transform="scale(0.015625)"/>
       </defs>
       <use xlink:href="#DejaVuSans-38"/>
       <use xlink:href="#DejaVuSans-30" x="63.623047"/>
       <use xlink:href="#DejaVuSans-30" x="127.246094"/>
      </g>
     </g>
    </g>
    <g id="xtick_7">
     <g id="line2d_7">
      <g>
       <use xlink:href="#mf03a029784" x="374.175025" y="307.584" style="stroke: #000000; stroke-width: 0.8"/>
      </g>
     </g>
     <g id="text_7">
      <!-- 900 -->
      <g transform="translate(364.631275 322.182437) scale(0.1 -0.1)">
       <defs>
        <path id="DejaVuSans-39" d="M 703 97 
L 703 672 
Q 941 559 1184 500 
Q 1428 441 1663 441 
Q 2288 441 2617 861 
Q 2947 1281 2994 2138 
Q 2813 1869 2534 1725 
Q 2256 1581 1919 1581 
Q 1219 1581 811 2004 
Q 403 2428 403 3163 
Q 403 3881 828 4315 
Q 1253 4750 1959 4750 
Q 2769 4750 3195 4129 
Q 3622 3509 3622 2328 
Q 3622 1225 3098 567 
Q 2575 -91 1691 -91 
Q 1453 -91 1209 -44 
Q 966 3 703 97 
z
M 1959 2075 
Q 2384 2075 2632 2365 
Q 2881 2656 2881 3163 
Q 2881 3666 2632 3958 
Q 2384 4250 1959 4250 
Q 1534 4250 1286 3958 
Q 1038 3666 1038 3163 
Q 1038 2656 1286 2365 
Q 1534 2075 1959 2075 
z
" transform="scale(0.015625)"/>
       </defs>
       <use xlink:href="#DejaVuSans-39"/>
       <use xlink:href="#DejaVuSans-30" x="63.623047"/>
       <use xlink:href="#DejaVuSans-30" x="127.246094"/>
      </g>
     </g>
    </g>
    <g id="text_8">
     <!-- m/z -->
     <g transform="translate(226.981094 335.860562) scale(0.1 -0.1)">
      <defs>
       <path id="DejaVuSans-6d" d="M 3328 2828 
Q 3544 3216 3844 3400 
Q 4144 3584 4550 3584 
Q 5097 3584 5394 3201 
Q 5691 2819 5691 2113 
L 5691 0 
L 5113 0 
L 5113 2094 
Q 5113 2597 4934 2840 
Q 4756 3084 4391 3084 
Q 3944 3084 3684 2787 
Q 3425 2491 3425 1978 
L 3425 0 
L 2847 0 
L 2847 2094 
Q 2847 2600 2669 2842 
Q 2491 3084 2119 3084 
Q 1678 3084 1418 2786 
Q 1159 2488 1159 1978 
L 1159 0 
L 581 0 
L 581 3500 
L 1159 3500 
L 1159 2956 
Q 1356 3278 1631 3431 
Q 1906 3584 2284 3584 
Q 2666 3584 2933 3390 
Q 3200 3197 3328 2828 
z
" transform="scale(0.015625)"/>
       <path id="DejaVuSans-2f" d="M 1625 4666 
L 2156 4666 
L 531 -594 
L 0 -594 
L 1625 4666 
z
" transform="scale(0.015625)"/>
       <path id="DejaVuSans-7a" d="M 353 3500 
L 3084 3500 
L 3084 2975 
L 922 459 
L 3084 459 
L 3084 0 
L 275 0 
L 275 525 
L 2438 3041 
L 353 3041 
L 353 3500 
z
" transform="scale(0.015625)"/>
      </defs>
      <use xlink:href="#DejaVuSans-6d"/>
      <use xlink:href="#DejaVuSans-2f" x="97.412109"/>
      <use xlink:href="#DejaVuSans-7a" x="131.103516"/>
     </g>
    </g>
   </g>
   <g id="matplotlib.axis_2">
    <g id="ytick_1">
     <g id="line2d_8">
      <defs>
       <path id="m76671e0152" d="M 0 0 
L -3.5 0 
" style="stroke: #000000; stroke-width: 0.8"/>
      </defs>
      <g>
       <use xlink:href="#m76671e0152" x="57.6" y="307.584" style="stroke: #000000; stroke-width: 0.8"/>
      </g>
     </g>
     <g id="text_9">
      <!-- 0 -->
      <g transform="translate(44.2375 311.383219) scale(0.1 -0.1)">
       <use xlink:href="#DejaVuSans-30"/>
      </g>
     </g>
    </g>
    <g id="ytick_2">
     <g id="line2d_9">
      <g>
       <use xlink:href="#m76671e0152" x="57.6" y="276.489292" style="stroke: #000000; stroke-width: 0.8"/>
      </g>
     </g>
     <g id="text_10">
      <!-- 100 -->
      <g transform="translate(31.5125 280.288511) scale(0.1 -0.1)">
       <defs>
        <path id="DejaVuSans-31" d="M 794 531 
L 1825 531 
L 1825 4091 
L 703 3866 
L 703 4441 
L 1819 4666 
L 2450 4666 
L 2450 531 
L 3481 531 
L 3481 0 
L 794 0 
L 794 531 
z
" transform="scale(0.015625)"/>
       </defs>
       <use xlink:href="#DejaVuSans-31"/>
       <use xlink:href="#DejaVuSans-30" x="63.623047"/>
       <use xlink:href="#DejaVuSans-30" x="127.246094"/>
      </g>
     </g>
    </g>
    <g id="ytick_3">
     <g id="line2d_10">
      <g>
       <use xlink:href="#m76671e0152" x="57.6" y="245.394584" style="stroke: #000000; stroke-width: 0.8"/>
      </g>
     </g>
     <g id="text_11">
      <!-- 200 -->
      <g transform="translate(31.5125 249.193803) scale(0.1 -0.1)">
       <defs>
        <path id="DejaVuSans-32" d="M 1228 531 
L 3431 531 
L 3431 0 
L 469 0 
L 469 531 
Q 828 903 1448 1529 
Q 2069 2156 2228 2338 
Q 2531 2678 2651 2914 
Q 2772 3150 2772 3378 
Q 2772 3750 2511 3984 
Q 2250 4219 1831 4219 
Q 1534 4219 1204 4116 
Q 875 4013 500 3803 
L 500 4441 
Q 881 4594 1212 4672 
Q 1544 4750 1819 4750 
Q 2544 4750 2975 4387 
Q 3406 4025 3406 3419 
Q 3406 3131 3298 2873 
Q 3191 2616 2906 2266 
Q 2828 2175 2409 1742 
Q 1991 1309 1228 531 
z
" transform="scale(0.015625)"/>
       </defs>
       <use xlink:href="#DejaVuSans-32"/>
       <use xlink:href="#DejaVuSans-30" x="63.623047"/>
       <use xlink:href="#DejaVuSans-30" x="127.246094"/>
      </g>
     </g>
    </g>
    <g id="ytick_4">
     <g id="line2d_11">
      <g>
       <use xlink:href="#m76671e0152" x="57.6" y="214.299876" style="stroke: #000000; stroke-width: 0.8"/>
      </g>
     </g>
     <g id="text_12">
      <!-- 300 -->
      <g transform="translate(31.5125 218.099095) scale(0.1 -0.1)">
       <use xlink:href="#DejaVuSans-33"/>
       <use xlink:href="#DejaVuSans-30" x="63.623047"/>
       <use xlink:href="#DejaVuSans-30" x="127.246094"/>
      </g>
     </g>
    </g>
    <g id="ytick_5">
     <g id="line2d_12">
      <g>
       <use xlink:href="#m76671e0152" x="57.6" y="183.205168" style="stroke: #000000; stroke-width: 0.8"/>
      </g>
     </g>
     <g id="text_13">
      <!-- 400 -->
      <g transform="translate(31.5125 187.004386) scale(0.1 -0.1)">
       <use xlink:href="#DejaVuSans-34"/>
       <use xlink:href="#DejaVuSans-30" x="63.623047"/>
       <use xlink:href="#DejaVuSans-30" x="127.246094"/>
      </g>
     </g>
    </g>
    <g id="ytick_6">
     <g id="line2d_13">
      <g>
       <use xlink:href="#m76671e0152" x="57.6" y="152.11046" style="stroke: #000000; stroke-width: 0.8"/>
      </g>
     </g>
     <g id="text_14">
      <!-- 500 -->
      <g transform="translate(31.5125 155.909678) scale(0.1 -0.1)">
       <use xlink:href="#DejaVuSans-35"/>
       <use xlink:href="#DejaVuSans-30" x="63.623047"/>
       <use xlink:href="#DejaVuSans-30" x="127.246094"/>
      </g>
     </g>
    </g>
    <g id="ytick_7">
     <g id="line2d_14">
      <g>
       <use xlink:href="#m76671e0152" x="57.6" y="121.015752" style="stroke: #000000; stroke-width: 0.8"/>
      </g>
     </g>
     <g id="text_15">
      <!-- 600 -->
      <g transform="translate(31.5125 124.81497) scale(0.1 -0.1)">
       <use xlink:href="#DejaVuSans-36"/>
       <use xlink:href="#DejaVuSans-30" x="63.623047"/>
       <use xlink:href="#DejaVuSans-30" x="127.246094"/>
      </g>
     </g>
    </g>
    <g id="ytick_8">
     <g id="line2d_15">
      <g>
       <use xlink:href="#m76671e0152" x="57.6" y="89.921043" style="stroke: #000000; stroke-width: 0.8"/>
      </g>
     </g>
     <g id="text_16">
      <!-- 700 -->
      <g transform="translate(31.5125 93.720262) scale(0.1 -0.1)">
       <use xlink:href="#DejaVuSans-37"/>
       <use xlink:href="#DejaVuSans-30" x="63.623047"/>
       <use xlink:href="#DejaVuSans-30" x="127.246094"/>
      </g>
     </g>
    </g>
    <g id="ytick_9">
     <g id="line2d_16">
      <g>
       <use xlink:href="#m76671e0152" x="57.6" y="58.826335" style="stroke: #000000; stroke-width: 0.8"/>
      </g>
     </g>
     <g id="text_17">
      <!-- 800 -->
      <g transform="translate(31.5125 62.625554) scale(0.1 -0.1)">
       <use xlink:href="#DejaVuSans-38"/>
       <use xlink:href="#DejaVuSans-30" x="63.623047"/>
       <use xlink:href="#DejaVuSans-30" x="127.246094"/>
      </g>
     </g>
    </g>
    <g id="text_18">
     <!-- Intensities [a.u.] -->
     <g transform="translate(25.432812 215.303) rotate(-90) scale(0.1 -0.1)">
      <defs>
       <path id="DejaVuSans-49" d="M 628 4666 
L 1259 4666 
L 1259 0 
L 628 0 
L 628 4666 
z
" transform="scale(0.015625)"/>
       <path id="DejaVuSans-6e" d="M 3513 2113 
L 3513 0 
L 2938 0 
L 2938 2094 
Q 2938 2591 2744 2837 
Q 2550 3084 2163 3084 
Q 1697 3084 1428 2787 
Q 1159 2491 1159 1978 
L 1159 0 
L 581 0 
L 581 3500 
L 1159 3500 
L 1159 2956 
Q 1366 3272 1645 3428 
Q 1925 3584 2291 3584 
Q 2894 3584 3203 3211 
Q 3513 2838 3513 2113 
z
" transform="scale(0.015625)"/>
       <path id="DejaVuSans-74" d="M 1172 4494 
L 1172 3500 
L 2356 3500 
L 2356 3053 
L 1172 3053 
L 1172 1153 
Q 1172 725 1289 603 
Q 1406 481 1766 481 
L 2356 481 
L 2356 0 
L 1766 0 
Q 1100 0 847 248 
Q 594 497 594 1153 
L 594 3053 
L 172 3053 
L 172 3500 
L 594 3500 
L 594 4494 
L 1172 4494 
z
" transform="scale(0.015625)"/>
       <path id="DejaVuSans-65" d="M 3597 1894 
L 3597 1613 
L 953 1613 
Q 991 1019 1311 708 
Q 1631 397 2203 397 
Q 2534 397 2845 478 
Q 3156 559 3463 722 
L 3463 178 
Q 3153 47 2828 -22 
Q 2503 -91 2169 -91 
Q 1331 -91 842 396 
Q 353 884 353 1716 
Q 353 2575 817 3079 
Q 1281 3584 2069 3584 
Q 2775 3584 3186 3129 
Q 3597 2675 3597 1894 
z
M 3022 2063 
Q 3016 2534 2758 2815 
Q 2500 3097 2075 3097 
Q 1594 3097 1305 2825 
Q 1016 2553 972 2059 
L 3022 2063 
z
" transform="scale(0.015625)"/>
       <path id="DejaVuSans-73" d="M 2834 3397 
L 2834 2853 
Q 2591 2978 2328 3040 
Q 2066 3103 1784 3103 
Q 1356 3103 1142 2972 
Q 928 2841 928 2578 
Q 928 2378 1081 2264 
Q 1234 2150 1697 2047 
L 1894 2003 
Q 2506 1872 2764 1633 
Q 3022 1394 3022 966 
Q 3022 478 2636 193 
Q 2250 -91 1575 -91 
Q 1294 -91 989 -36 
Q 684 19 347 128 
L 347 722 
Q 666 556 975 473 
Q 1284 391 1588 391 
Q 1994 391 2212 530 
Q 2431 669 2431 922 
Q 2431 1156 2273 1281 
Q 2116 1406 1581 1522 
L 1381 1569 
Q 847 1681 609 1914 
Q 372 2147 372 2553 
Q 372 3047 722 3315 
Q 1072 3584 1716 3584 
Q 2034 3584 2315 3537 
Q 2597 3491 2834 3397 
z
" transform="scale(0.015625)"/>
       <path id="DejaVuSans-69" d="M 603 3500 
L 1178 3500 
L 1178 0 
L 603 0 
L 603 3500 
z
M 603 4863 
L 1178 4863 
L 1178 4134 
L 603 4134 
L 603 4863 
z
" transform="scale(0.015625)"/>
       <path id="DejaVuSans-20" transform="scale(0.015625)"/>
       <path id="DejaVuSans-5b" d="M 550 4863 
L 1875 4863 
L 1875 4416 
L 1125 4416 
L 1125 -397 
L 1875 -397 
L 1875 -844 
L 550 -844 
L 550 4863 
z
" transform="scale(0.015625)"/>
       <path id="DejaVuSans-61" d="M 2194 1759 
Q 1497 1759 1228 1600 
Q 959 1441 959 1056 
Q 959 750 1161 570 
Q 1363 391 1709 391 
Q 2188 391 2477 730 
Q 2766 1069 2766 1631 
L 2766 1759 
L 2194 1759 
z
M 3341 1997 
L 3341 0 
L 2766 0 
L 2766 531 
Q 2569 213 2275 61 
Q 1981 -91 1556 -91 
Q 1019 -91 701 211 
Q 384 513 384 1019 
Q 384 1609 779 1909 
Q 1175 2209 1959 2209 
L 2766 2209 
L 2766 2266 
Q 2766 2663 2505 2880 
Q 2244 3097 1772 3097 
Q 1472 3097 1187 3025 
Q 903 2953 641 2809 
L 641 3341 
Q 956 3463 1253 3523 
Q 1550 3584 1831 3584 
Q 2591 3584 2966 3190 
Q 3341 2797 3341 1997 
z
" transform="scale(0.015625)"/>
       <path id="DejaVuSans-2e" d="M 684 794 
L 1344 794 
L 1344 0 
L 684 0 
L 684 794 
z
" transform="scale(0.015625)"/>
       <path id="DejaVuSans-75" d="M 544 1381 
L 544 3500 
L 1119 3500 
L 1119 1403 
Q 1119 906 1312 657 
Q 1506 409 1894 409 
Q 2359 409 2629 706 
Q 2900 1003 2900 1516 
L 2900 3500 
L 3475 3500 
L 3475 0 
L 2900 0 
L 2900 538 
Q 2691 219 2414 64 
Q 2138 -91 1772 -91 
Q 1169 -91 856 284 
Q 544 659 544 1381 
z
M 1991 3584 
L 1991 3584 
z
" transform="scale(0.015625)"/>
       <path id="DejaVuSans-5d" d="M 1947 4863 
L 1947 -844 
L 622 -844 
L 622 -397 
L 1369 -397 
L 1369 4416 
L 622 4416 
L 622 4863 
L 1947 4863 
z
" transform="scale(0.015625)"/>
      </defs>
      <use xlink:href="#DejaVuSans-49"/>
      <use xlink:href="#DejaVuSans-6e" x="29.492188"/>
      <use xlink:href="#DejaVuSans-74" x="92.871094"/>
      <use xlink:href="#DejaVuSans-65" x="132.080078"/>
      <use xlink:href="#DejaVuSans-6e" x="193.603516"/>
      <use xlink:href="#DejaVuSans-73" x="256.982422"/>
      <use xlink:href="#DejaVuSans-69" x="309.082031"/>
      <use xlink:href="#DejaVuSans-74" x="336.865234"/>
      <use xlink:href="#DejaVuSans-69" x="376.074219"/>
      <use xlink:href="#DejaVuSans-65" x="403.857422"/>
      <use xlink:href="#DejaVuSans-73" x="465.380859"/>
      <use xlink:href="#DejaVuSans-20" x="517.480469"/>
      <use xlink:href="#DejaVuSans-5b" x="549.267578"/>
      <use xlink:href="#DejaVuSans-61" x="588.28125"/>
      <use xlink:href="#DejaVuSans-2e" x="649.560547"/>
      <use xlink:href="#DejaVuSans-75" x="681.347656"/>
      <use xlink:href="#DejaVuSans-2e" x="744.726562"/>
      <use xlink:href="#DejaVuSans-5d" x="776.513672"/>
     </g>
    </g>
   </g>
   <g id="line2d_17">
    <path d="M 73.832727 302.872681 
L 73.865267 299.34064 
L 73.895301 307.584 
L 74.370841 303.963532 
L 74.410882 307.584 
L 74.871404 302.559559 
L 74.886421 307.584 
L 74.906449 302.349362 
L 75.374488 307.584 
L 75.387 302.53564 
L 75.915092 307.584 
L 76.373124 307.584 
L 76.393137 303.115495 
L 76.878698 303.422818 
L 76.918739 304.716619 
L 77.351732 300.440915 
L 77.389283 307.584 
L 77.902357 307.584 
L 78.360374 293.350017 
L 78.397925 307.584 
L 78.880981 300.652562 
L 78.978585 307.584 
L 79.386555 307.584 
L 79.409073 305.96838 
L 79.459135 307.584 
L 80.41773 307.584 
L 80.462767 303.75261 
L 80.9283 307.584 
L 81.426373 303.73159 
L 81.839338 307.584 
L 81.876889 305.52769 
L 82.3324 307.584 
L 82.402475 294.092231 
L 82.852991 307.584 
L 82.883026 299.956737 
L 82.895538 307.584 
L 83.396116 307.584 
L 83.411133 305.459557 
L 83.911696 307.584 
L 84.387236 302.342838 
L 84.404758 307.584 
L 84.942872 307.584 
L 84.9629 305.979977 
L 85.395893 306.029265 
L 85.415906 303.856984 
L 85.465969 307.584 
L 85.878934 294.614825 
L 85.971543 307.584 
L 86.424564 307.584 
L 86.477116 300.862759 
L 86.857557 303.430791 
L 86.887592 301.638315 
L 86.9802 307.584 
L 87.393166 303.610546 
L 87.433206 307.584 
L 87.931279 307.584 
L 88.396812 302.152936 
L 88.421836 307.584 
L 88.887369 302.97633 
L 88.919894 307.584 
L 89.397939 307.584 
L 89.870988 301.969557 
L 89.901022 307.584 
L 90.411592 304.570205 
L 90.927187 307.584 
L 90.969734 303.596049 
L 91.472802 307.584 
L 91.90329 303.735939 
L 91.945851 307.584 
L 91.978376 305.318218 
L 92.48146 307.584 
L 92.894425 301.621644 
L 92.936971 307.584 
L 92.987034 303.187252 
L 93.399999 304.288976 
L 93.47258 307.584 
L 93.487597 305.653084 
L 93.918085 307.584 
L 93.940618 305.317493 
L 93.983164 307.584 
L 94.851656 307.584 
L 94.864168 299.645064 
L 94.94926 303.559084 
L 95.352219 307.584 
L 95.367237 292.370787 
L 95.439817 307.584 
L 95.942901 307.584 
L 96.400918 300.330018 
L 96.435963 307.584 
L 96.951543 307.584 
L 97.40956 303.560533 
L 97.429588 307.584 
L 97.479651 302.289202 
L 97.895121 294.523498 
L 97.947674 307.584 
L 97.985225 302.305872 
L 98.435741 307.584 
L 98.490799 304.75141 
L 98.916276 307.584 
L 98.996372 296.736368 
L 99.42686 301.862284 
L 99.481918 307.584 
L 99.499441 301.209947 
L 99.964974 307.584 
L 100.002509 300.913496 
L 100.420486 304.267956 
L 100.488071 307.584 
L 100.916053 301.568008 
L 100.993645 307.584 
L 101.421627 307.584 
L 101.446666 305.778477 
L 101.859631 307.584 
L 101.907188 304.13314 
L 101.947229 307.584 
L 102.385233 307.584 
L 102.420263 306.092324 
L 102.440291 307.584 
L 102.893312 307.584 
L 102.91082 305.713969 
L 102.960882 307.584 
L 103.361336 307.584 
L 103.416409 304.080228 
L 103.433916 307.584 
L 103.86442 307.584 
L 103.901955 299.074633 
L 103.949512 307.584 
L 104.407529 301.544813 
L 104.492621 307.584 
L 105.0007 307.584 
L 105.416186 301.311422 
L 105.453722 307.584 
L 105.506274 304.454234 
L 105.919255 300.683729 
L 106.011864 307.584 
L 106.444857 307.584 
L 106.514932 294.724272 
L 106.925392 303.361933 
L 107.002983 303.187977 
L 107.020506 307.584 
L 107.430966 299.160161 
L 107.503562 307.584 
L 107.523574 281.597811 
L 107.919032 299.210173 
L 107.97409 307.584 
L 108.011641 304.057759 
L 108.029148 283.353322 
L 108.512204 307.584 
L 108.534722 109.760052 
L 108.965226 307.584 
L 109.035301 266.35633 
L 109.458288 306.090149 
L 109.540875 295.592605 
L 109.973868 307.584 
L 110.414362 305.005821 
L 110.449407 304.168656 
L 110.46693 307.584 
L 110.917446 298.852838 
L 110.967493 307.584 
L 111.42302 302.252236 
L 111.443033 307.584 
L 111.926088 301.684703 
L 111.958628 307.584 
L 112.431662 306.029265 
L 112.521766 307.584 
L 113.512901 307.584 
L 113.925866 301.59845 
L 114.018474 307.584 
L 114.43144 304.705746 
L 114.446457 307.584 
L 114.521543 305.081202 
L 114.932018 304.013545 
L 115.009594 307.584 
L 115.027117 300.169833 
L 115.410063 307.584 
L 115.532691 302.460259 
L 115.925643 303.237989 
L 116.018252 307.584 
L 116.035775 293.754465 
L 116.433723 307.584 
L 116.541349 261.109373 
L 116.939297 307.584 
L 116.974342 305.192099 
L 117.429853 299.579106 
L 117.945449 307.584 
L 117.962956 303.013295 
L 117.982984 307.584 
L 118.461029 305.557408 
L 118.906534 301.934041 
L 118.976609 307.584 
L 119.932699 307.584 
L 119.967745 298.855737 
L 119.985267 307.584 
L 120.458301 307.584 
L 120.475824 301.504948 
L 120.908817 303.696074 
L 120.941357 302.348637 
L 120.99391 307.584 
L 121.446931 304.335364 
L 121.522017 307.584 
L 121.534529 303.964257 
L 122.025085 307.584 
L 122.438051 306.029265 
L 122.490619 305.127591 
L 122.530659 307.584 
L 122.928607 298.380981 
L 123.033728 307.584 
L 123.471732 307.584 
L 123.539302 305.790075 
L 123.939771 302.463158 
L 124.00734 307.584 
L 124.042385 303.47283 
L 124.445344 307.584 
L 124.467863 306.029265 
L 124.48288 307.584 
L 124.99597 307.584 
L 125.453987 304.418718 
L 125.491537 307.584 
L 125.989595 307.584 
L 126.462629 302.786427 
L 126.535225 307.584 
L 126.963208 307.584 
L 127.058322 301.944188 
L 127.421225 307.584 
L 127.453764 304.122268 
L 127.491315 307.584 
L 127.956833 302.721194 
L 127.974355 307.584 
L 127.994383 303.87148 
L 128.462407 307.584 
L 128.499957 304.178079 
L 128.947968 306.029265 
L 128.980508 307.584 
L 129.003026 303.548211 
L 129.47606 302.305872 
L 129.941593 305.317493 
L 129.994161 307.584 
L 130.449672 303.83234 
L 130.517257 303.675055 
L 130.53727 307.584 
L 130.967758 302.77628 
L 131.002803 303.535165 
L 131.040354 307.584 
L 131.463326 307.584 
L 131.545928 297.545266 
L 131.998934 307.584 
L 132.451955 307.584 
L 132.471983 305.679177 
L 132.491996 307.584 
L 134.939784 307.584 
L 134.972324 302.940814 
L 135.009859 304.955809 
L 135.497926 307.584 
L 135.570506 303.646062 
L 135.948442 302.853111 
L 136.021022 307.584 
L 136.456506 298.862261 
L 136.524091 307.584 
L 136.95959 307.584 
L 136.99462 301.847788 
L 137.009637 307.584 
L 137.452652 305.142087 
L 137.500194 307.584 
L 138.0208 307.584 
L 138.441266 303.530816 
L 138.513862 307.584 
L 138.946855 304.306371 
L 138.996902 307.584 
L 139.0845 305.618293 
L 139.49247 307.584 
L 139.552539 305.884301 
L 140.00805 307.584 
L 140.478594 300.505424 
L 140.496117 307.584 
L 140.561181 305.317493 
L 141.016708 307.584 
L 141.507265 307.584 
L 141.970292 305.717593 
L 141.990305 304.39335 
L 142.007828 307.584 
L 142.02535 307.584 
L 142.50089 307.584 
L 142.513402 303.198124 
L 142.963918 302.79585 
L 143.001468 307.584 
L 143.01398 305.005821 
L 143.436952 307.584 
L 143.469492 303.85046 
L 143.507042 307.584 
L 143.97007 305.618293 
L 144.025128 307.584 
L 144.505678 307.584 
L 144.520695 302.141339 
L 144.953689 307.584 
L 144.971211 302.761783 
L 145.003736 307.584 
L 145.476785 304.594849 
L 145.494308 307.584 
L 145.514321 305.463181 
L 146.014899 307.584 
L 146.485428 305.055834 
L 146.537996 307.584 
L 147.003513 307.584 
L 147.023541 306.154658 
L 147.514098 307.584 
L 147.549143 306.215543 
L 148.032184 307.584 
L 148.4827 307.584 
L 148.502728 303.946861 
L 148.522756 306.029265 
L 149.043347 307.584 
L 149.4438 305.26748 
L 149.47634 301.363609 
L 149.528893 307.584 
L 149.548921 302.907472 
L 150.016944 307.584 
L 150.497494 305.976353 
L 150.522518 307.584 
L 151.025602 307.584 
L 151.476118 305.62989 
L 151.548698 307.584 
L 152.001704 307.584 
L 152.019227 305.146436 
L 152.03675 306.211919 
L 152.457231 307.584 
L 152.492261 305.557408 
L 152.527306 307.584 
L 152.975317 305.790075 
L 153.030375 307.584 
L 153.465874 305.457383 
L 153.500919 307.584 
L 153.535949 304.830415 
L 154.001482 306.154658 
L 154.024015 307.584 
L 154.039033 305.367505 
L 154.512067 303.351786 
L 154.527084 307.584 
L 155.030152 307.584 
L 155.498191 303.701148 
L 155.523214 307.584 
L 155.538232 305.32909 
L 156.001259 298.949239 
L 156.0413 307.584 
L 156.459276 307.584 
L 156.494322 303.535165 
L 156.531872 305.553784 
L 156.96236 307.584 
L 156.977377 304.719518 
L 157.049958 307.584 
L 158.061106 307.584 
L 158.464065 305.778477 
L 158.581697 307.584 
L 159.037224 307.584 
L 159.054731 303.771455 
L 159.472707 303.022718 
L 159.52778 307.584 
L 159.975791 307.584 
L 159.993298 304.244037 
L 160.048371 307.584 
L 160.616519 307.584 
L 161.001956 304.620218 
L 161.06453 307.584 
L 162.466125 307.584 
L 162.513682 305.503771 
L 162.5362 307.584 
L 162.969193 307.584 
L 163.086826 302.368207 
L 163.474767 307.584 
L 163.489785 301.515096 
L 163.539847 307.584 
L 163.980341 307.584 
L 163.992853 300.514846 
L 164.047926 307.584 
L 164.503438 307.584 
L 164.528461 305.778477 
L 164.556006 307.584 
L 165.009012 307.584 
L 165.031545 302.392126 
L 165.086603 307.584 
L 165.479556 307.584 
L 165.497063 304.208521 
L 165.549631 307.584 
L 165.997641 304.072255 
L 166.052699 307.584 
L 167.551914 307.584 
L 167.566931 304.955809 
L 168.014942 307.584 
L 168.03746 304.557883 
L 168.052477 307.584 
L 168.548044 307.584 
L 168.991044 302.109447 
L 169.09867 307.584 
L 169.481601 305.081202 
L 169.534169 307.584 
L 169.554181 305.964756 
L 169.984685 306.029265 
L 170.057265 307.584 
L 170.109818 303.162608 
L 170.557828 307.584 
L 170.995832 304.194749 
L 171.080925 307.584 
L 171.503912 305.56828 
L 171.566486 307.584 
L 172.069554 307.584 
L 172.104584 302.711771 
L 172.512554 304.358558 
L 172.572623 307.584 
L 172.605163 302.740039 
L 173.000605 305.668305 
L 173.02815 305.367505 
L 173.070696 307.584 
L 173.503689 300.735191 
L 173.54373 307.584 
L 174.05931 307.584 
L 174.076833 304.294049 
L 174.552372 301.454936 
L 174.60494 307.584 
L 175.93646 307.584 
L 176.024058 303.21262 
L 176.064099 303.599674 
L 176.111656 307.584 
L 176.512109 307.584 
L 176.549644 304.480328 
L 176.567167 307.584 
L 177.002666 307.584 
L 177.015178 305.778477 
L 177.120298 306.215543 
L 177.573319 307.584 
L 178.50188 307.584 
L 178.521893 303.617069 
L 178.56945 307.584 
L 179.019966 302.807447 
L 179.120076 307.584 
L 179.563075 307.584 
L 179.623144 304.820992 
L 180.016097 304.544837 
L 180.066144 307.584 
L 181.024739 307.584 
L 181.059784 302.742938 
L 181.114842 307.584 
L 181.582896 307.584 
L 181.620416 305.017418 
L 182.068427 307.584 
L 182.123485 302.775555 
L 182.574001 307.584 
L 182.629058 302.032616 
L 183.039549 304.705021 
L 183.079574 307.584 
L 183.107103 299.953837 
L 183.580168 307.584 
L 183.610202 306.090149 
L 184.033159 302.709596 
L 184.07071 307.584 
L 184.088247 305.443611 
L 184.548754 307.584 
L 184.646374 295.144667 
L 185.09689 307.584 
L 185.149442 306.029265 
L 185.58242 307.584 
L 186.055485 307.584 
L 186.135567 298.914448 
L 186.581072 307.584 
L 186.638635 304.830415 
L 187.066633 307.584 
L 188.04023 307.584 
L 188.075275 300.419895 
L 188.092783 307.584 
L 188.545804 307.584 
L 188.598357 304.13314 
L 188.6184 307.584 
L 189.02886 302.979954 
L 189.068916 307.584 
L 189.121468 305.52769 
L 189.519401 303.610546 
L 189.627042 307.584 
L 190.057515 303.838139 
L 190.130111 307.584 
L 190.580627 307.584 
L 190.635685 302.221069 
L 191.088706 307.584 
L 191.103708 303.087227 
L 191.141259 307.584 
L 191.576773 307.584 
L 191.589269 300.008923 
L 191.644327 307.584 
L 192.029763 305.839362 
L 192.079841 307.584 
L 192.535337 305.507395 
L 192.567877 305.679177 
L 192.58291 307.584 
L 192.652969 298.395477 
L 193.088484 307.584 
L 193.158543 298.416497 
L 193.594057 307.584 
L 193.661642 305.903871 
L 194.099631 307.584 
L 195.543788 307.584 
L 195.561295 301.347663 
L 195.59634 307.584 
L 196.084376 307.584 
L 196.534892 305.964756 
L 196.569938 300.467009 
L 196.592456 307.584 
L 197.073006 307.584 
L 197.140591 303.604747 
L 197.636143 307.584 
L 198.119199 307.584 
L 198.139242 305.717593 
L 198.542186 307.584 
L 198.589728 304.684727 
L 198.642311 305.96838 
L 198.709865 307.584 
L 199.045255 307.584 
L 199.145379 304.15271 
L 199.210459 306.029265 
L 199.630941 307.584 
L 199.650953 303.413395 
L 200.071435 307.584 
L 201.568144 307.584 
L 202.051169 306.029265 
L 202.091225 304.67023 
L 202.106258 307.584 
L 202.579292 302.989376 
L 203.044809 307.584 
L 203.084866 304.539763 
L 203.550383 302.824842 
L 203.590439 307.584 
L 205.082138 307.584 
L 205.137196 302.850211 
L 205.607724 307.584 
L 205.637759 303.530816 
L 205.725356 307.584 
L 206.095791 301.97898 
L 206.22592 307.584 
L 206.616367 301.939839 
L 206.733999 307.584 
L 207.106939 307.584 
L 207.119435 304.022243 
L 207.672581 307.584 
L 208.060523 304.640512 
L 208.566097 305.96838 
L 208.681224 304.157059 
L 209.104211 307.584 
L 210.605931 307.584 
L 210.620932 302.599424 
L 210.723563 305.07033 
L 211.066438 305.218193 
L 211.106494 304.084577 
L 211.226631 307.584 
L 211.559515 307.584 
L 211.732205 305.016693 
L 212.062584 307.584 
L 212.62071 307.584 
L 212.740848 302.547237 
L 213.076237 305.618293 
L 213.111282 307.584 
L 213.243916 301.990577 
L 213.74949 307.584 
L 217.115817 307.584 
L 217.621391 304.454959 
L 218.066927 304.078778 
L 218.12449 307.584 
L 220.056683 307.584 
L 220.07419 304.731115 
L 220.129248 307.584 
L 220.171809 307.584 
L 220.259407 305.52769 
L 220.632347 307.584 
L 220.747474 305.306621 
L 221.120383 307.584 
L 222.129025 307.584 
L 222.73723 305.279078 
L 223.12016 307.584 
L 223.140173 304.279553 
L 223.155206 307.584 
L 223.658274 307.584 
L 223.745872 304.118644 
L 223.993663 304.894924 
L 224.131308 307.584 
L 224.496732 307.584 
L 224.754514 303.035765 
L 225.077407 304.480328 
L 225.139951 307.584 
L 225.257583 304.620218 
L 225.57797 305.367505 
L 225.628017 305.964756 
L 225.763187 304.884052 
L 226.081039 305.367505 
L 226.148624 307.584 
L 226.266256 304.602097 
L 226.619152 307.584 
L 226.77183 299.667534 
L 227.092186 307.584 
L 227.162277 304.383927 
L 227.577748 307.584 
L 227.69538 307.584 
L 227.780472 302.497949 
L 228.155887 307.584 
L 229.091964 307.584 
L 229.147022 306.090149 
L 229.770228 305.177603 
L 230.098101 307.584 
L 230.138157 301.429567 
L 230.275802 307.584 
L 231.264432 307.584 
L 231.592305 300.411922 
L 231.770006 307.584 
L 232.185476 307.584 
L 232.595936 304.583252 
L 232.69105 307.584 
L 233.081497 305.52769 
L 233.149082 307.584 
L 233.602104 303.806971 
L 233.654656 307.584 
L 234.087634 305.542911 
L 234.140217 307.584 
L 234.595714 302.678429 
L 235.659445 307.584 
L 236.00733 307.584 
L 236.107455 306.029265 
L 236.165018 307.584 
L 237.641684 307.584 
L 237.77936 303.624317 
L 238.104727 307.584 
L 238.162291 305.031914 
L 238.279923 307.584 
L 239.155931 307.584 
L 239.203473 304.565856 
L 239.611427 302.971256 
L 239.661505 307.584 
L 239.709047 305.774853 
L 240.096988 307.584 
L 240.212115 303.924392 
L 240.62007 307.584 
L 240.670147 305.242112 
L 241.173216 307.584 
L 241.611205 302.295725 
L 241.67879 307.584 
L 243.120441 307.584 
L 243.172993 299.72262 
L 243.676062 307.584 
L 244.171614 304.208521 
L 245.160244 307.584 
L 245.620781 304.880428 
L 247.230112 307.584 
L 247.685638 307.584 
L 247.73318 304.892024 
L 248.023503 307.584 
L 250.608966 307.584 
L 250.626473 304.66878 
L 251.202138 303.223493 
L 251.602576 307.584 
L 251.617608 302.876305 
L 251.675172 307.584 
L 252.120677 305.26748 
L 252.175735 307.584 
L 252.68632 307.584 
L 253.189388 303.982378 
L 254.683592 307.584 
L 254.748671 303.986726 
L 255.206703 307.584 
L 255.677232 307.584 
L 255.759819 304.357833 
L 256.202819 305.903871 
L 256.260382 304.183152 
L 256.723425 307.584 
L 256.763451 305.28995 
L 257.193954 307.584 
L 258.185089 305.367505 
L 259.191226 305.842986 
L 260.0372 307.584 
L 260.199868 301.341864 
L 260.537763 307.584 
L 260.69044 306.090149 
L 260.830591 307.584 
L 264.209445 307.584 
L 265.273145 298.372283 
L 265.706154 307.584 
L 265.741169 305.553784 
L 266.209223 307.584 
L 266.759833 305.302997 
L 267.217865 307.584 
L 271.237433 307.584 
L 271.783063 305.063807 
L 272.050867 307.584 
L 272.216041 305.177603 
L 272.283626 307.584 
L 274.758943 307.584 
L 274.811495 303.718544 
L 275.241998 307.584 
L 275.327091 303.570681 
L 275.842686 292.114201 
L 276.235639 307.584 
L 276.713684 307.584 
L 276.851329 301.43609 
L 278.162821 302.197875 
L 278.225395 304.766631 
L 278.655867 305.081202 
L 278.798554 307.584 
L 282.325044 307.584 
L 283.333717 304.50932 
L 283.796729 307.584 
L 284.567602 307.584 
L 284.662716 305.603796 
L 284.805372 305.492899 
L 285.165785 302.699449 
L 285.30844 305.442887 
L 285.673864 304.27303 
L 285.758956 304.826791 
L 285.814045 304.005572 
L 286.176932 307.584 
L 286.792653 307.584 
L 286.822687 306.215543 
L 287.173078 303.686652 
L 287.325756 307.584 
L 287.83133 305.367505 
L 287.853848 307.584 
L 289.876143 307.584 
L 290.349178 305.96838 
L 290.852277 305.206596 
L 291.790829 299.333392 
L 291.820863 307.584 
L 292.293897 304.830415 
L 292.829505 307.584 
L 293.302539 304.319418 
L 293.335079 305.713969 
L 293.810619 303.599674 
L 293.835673 305.142087 
L 294.171032 302.663933 
L 294.313718 303.201023 
L 294.338741 307.584 
L 294.676605 303.637364 
L 294.816786 305.964756 
L 294.844315 287.926926 
L 295.317349 305.192099 
L 295.347384 305.146436 
L 295.850452 301.104848 
L 296.356026 305.653084 
L 296.819069 298.678881 
L 297.322138 303.290176 
L 297.367174 305.577703 
L 297.827712 304.294049 
L 297.867737 307.584 
L 298.373311 303.117669 
L 299.271838 307.584 
L 300.262973 307.584 
L 300.348065 302.291376 
L 300.363097 307.584 
L 300.683454 304.107771 
L 300.82611 307.584 
L 300.851133 304.093275 
L 300.878693 305.602347 
L 301.186523 307.584 
L 301.329178 307.584 
L 301.354233 306.029265 
L 301.789716 304.323042 
L 301.857301 307.584 
L 302.332841 305.518268 
L 303.273898 307.584 
L 303.374023 304.005572 
L 303.874586 307.584 
L 304.382665 276.173996 
L 304.815674 303.982378 
L 304.885734 302.870506 
L 305.318742 294.192255 
L 305.388802 303.077079 
L 305.824316 304.167206 
L 305.891871 307.584 
L 306.327385 306.215543 
L 306.700294 307.584 
L 306.832959 300.717071 
L 307.195877 307.584 
L 308.094403 307.584 
L 308.204519 304.819543 
L 308.34467 305.903871 
L 308.372198 303.469931 
L 308.707588 307.584 
L 308.845233 303.223493 
L 309.210656 307.584 
L 309.350837 304.327391 
L 309.8514 303.168407 
L 310.359479 291.749618 
L 310.389514 304.308546 
L 310.860043 294.802552 
L 310.892582 307.584 
L 313.873473 307.584 
L 314.376542 302.229767 
L 314.714436 307.584 
L 314.87961 304.662982 
L 315.202472 307.584 
L 315.357655 307.584 
L 315.38769 254.384506 
L 315.708046 300.481505 
L 315.860724 305.157308 
L 315.888253 281.973267 
L 316.211145 307.584 
L 316.366298 307.584 
L 316.393827 292.987607 
L 316.714214 306.090149 
L 316.869366 307.584 
L 316.896926 303.643163 
L 317.372465 305.964756 
L 317.405005 299.971957 
L 317.837983 306.090149 
L 317.873028 304.170105 
L 317.908073 307.584 
L 318.356084 307.584 
L 318.413647 305.207321 
L 318.849131 303.189426 
L 318.916716 305.080477 
L 319.21706 307.584 
L 319.349694 300.590227 
L 319.367232 307.584 
L 319.419784 305.778477 
L 319.710107 307.584 
L 319.852762 306.066955 
L 319.887808 301.180954 
L 319.922853 302.897324 
L 320.10807 307.584 
L 320.355861 299.350063 
L 321.397044 304.007746 
L 321.867572 302.122494 
L 321.900112 307.584 
L 322.373146 296.82842 
L 322.428204 305.778477 
L 322.876215 304.35276 
L 322.931273 299.874832 
L 323.381789 262.109622 
L 323.409318 296.782757 
L 323.884857 287.800807 
L 324.217741 304.955809 
L 324.387926 307.584 
L 324.422971 305.713969 
L 324.72081 307.584 
L 324.888519 307.584 
L 325.391588 305.514644 
L 325.434119 307.584 
L 326.390209 293.955965 
L 326.420243 307.584 
L 326.893277 296.974109 
L 327.371322 302.466782 
L 327.398882 298.82457 
L 327.721744 305.96838 
L 327.874421 303.404697 
L 327.90195 304.563682 
L 328.37749 307.584 
L 328.410029 304.570205 
L 328.880558 307.584 
L 328.913098 304.400598 
L 329.388637 307.584 
L 329.418672 280.979542 
L 329.891706 307.584 
L 329.92174 298.530294 
L 330.377267 307.584 
L 330.424809 304.353485 
L 330.897843 304.262882 
L 330.962923 302.11597 
L 331.368372 307.584 
L 331.465991 304.244037 
L 331.868965 307.584 
L 331.90398 305.503771 
L 332.121737 307.584 
L 333.408205 307.584 
L 333.420732 305.116718 
L 333.881239 304.037464 
L 333.911274 307.584 
L 334.386813 283.367093 
L 334.426869 307.584 
L 334.889882 298.140341 
L 335.395456 299.265259 
L 335.898555 301.111372 
L 336.406634 297.849689 
L 336.907197 302.684952 
L 337.415276 301.804299 
L 337.915839 299.384855 
L 338.351323 306.086525 
L 338.386368 300.409748 
L 338.418908 303.437314 
L 338.879446 303.309021 
L 338.919471 296.751589 
L 339.397516 307.584 
L 339.412548 306.029265 
L 339.900584 307.584 
L 339.915617 305.468255 
L 340.396167 303.909896 
L 340.406158 307.584 
L 340.423696 301.192551 
L 340.89673 307.584 
L 340.926765 304.155609 
L 341.402304 304.282452 
L 341.905373 307.584 
L 341.967947 306.154658 
L 342.405936 307.584 
L 342.46851 302.379079 
L 342.909035 307.584 
L 343.414609 303.541688 
L 343.917677 307.584 
L 345.431894 307.584 
L 346.372951 303.535165 
L 346.402985 303.982378 
L 346.873545 298.919521 
L 346.976144 307.584 
L 347.411658 305.203696 
L 347.479213 307.584 
L 347.912221 307.584 
L 348.420301 289.340321 
L 348.885819 303.585177 
L 348.955909 303.206097 
L 349.391393 307.584 
L 349.426438 302.301524 
L 349.927001 303.75261 
L 349.964552 299.595052 
L 350.420078 303.251036 
L 350.465115 298.438242 
L 350.920641 307.584 
L 352.419856 307.584 
L 353.914059 302.564633 
L 354.422139 304.190401 
L 355.993918 305.181227 
L 356.939987 307.584 
L 359.890843 307.584 
L 360.00099 304.620218 
L 361.522722 307.584 
L 363.439882 307.584 
L 367.887448 305.693674 
L 368.393022 307.584 
L 372.913183 307.584 
L 373.921825 305.242112 
L 375.556179 307.584 
L 376.447189 307.584 
L 380.909787 304.494824 
L 382.804429 300.30175 
L 383.307498 303.077079 
L 383.813072 307.584 
L 398.487273 307.584 
L 398.487273 307.584 
" clip-path="url(#peedf628d47)" style="fill: none; stroke: #1f77b4; stroke-width: 1.5; stroke-linecap: square"/>
   </g>
   <g id="patch_3">
    <path d="M 57.6 307.584 
L 57.6 41.472 
" style="fill: none; stroke: #000000; stroke-width: 0.8; stroke-linejoin: miter; stroke-linecap: square"/>
   </g>
   <g id="patch_4">
    <path d="M 414.72 307.584 
L 414.72 41.472 
" style="fill: none; stroke: #000000; stroke-width: 0.8; stroke-linejoin: miter; stroke-linecap: square"/>
   </g>
   <g id="patch_5">
    <path d="M 57.6 307.584 
L 414.72 307.584 
" style="fill: none; stroke: #000000; stroke-width: 0.8; stroke-linejoin: miter; stroke-linecap: square"/>
   </g>
   <g id="patch_6">
    <path d="M 57.6 41.472 
L 414.72 41.472 
" style="fill: none; stroke: #000000; stroke-width: 0.8; stroke-linejoin: miter; stroke-linecap: square"/>
   </g>
   <g id="legend_1">
    <g id="patch_7">
     <path d="M 323.385625 64.150125 
L 407.72 64.150125 
Q 409.72 64.150125 409.72 62.150125 
L 409.72 48.472 
Q 409.72 46.472 407.72 46.472 
L 323.385625 46.472 
Q 321.385625 46.472 321.385625 48.472 
L 321.385625 62.150125 
Q 321.385625 64.150125 323.385625 64.150125 
z
" style="fill: #ffffff; opacity: 0.8; stroke: #cccccc; stroke-linejoin: miter"/>
    </g>
    <g id="line2d_18">
     <path d="M 325.385625 54.570438 
L 335.385625 54.570438 
L 345.385625 54.570438 
" style="fill: none; stroke: #1f77b4; stroke-width: 1.5; stroke-linecap: square"/>
    </g>
    <g id="text_19">
     <!-- (315, 112) -->
     <g transform="translate(353.385625 58.070438) scale(0.1 -0.1)">
      <defs>
       <path id="DejaVuSans-28" d="M 1984 4856 
Q 1566 4138 1362 3434 
Q 1159 2731 1159 2009 
Q 1159 1288 1364 580 
Q 1569 -128 1984 -844 
L 1484 -844 
Q 1016 -109 783 600 
Q 550 1309 550 2009 
Q 550 2706 781 3412 
Q 1013 4119 1484 4856 
L 1984 4856 
z
" transform="scale(0.015625)"/>
       <path id="DejaVuSans-2c" d="M 750 794 
L 1409 794 
L 1409 256 
L 897 -744 
L 494 -744 
L 750 256 
L 750 794 
z
" transform="scale(0.015625)"/>
       <path id="DejaVuSans-29" d="M 513 4856 
L 1013 4856 
Q 1481 4119 1714 3412 
Q 1947 2706 1947 2009 
Q 1947 1309 1714 600 
Q 1481 -109 1013 -844 
L 513 -844 
Q 928 -128 1133 580 
Q 1338 1288 1338 2009 
Q 1338 2731 1133 3434 
Q 928 4138 513 4856 
z
" transform="scale(0.015625)"/>
      </defs>
      <use xlink:href="#DejaVuSans-28"/>
      <use xlink:href="#DejaVuSans-33" x="39.013672"/>
      <use xlink:href="#DejaVuSans-31" x="102.636719"/>
      <use xlink:href="#DejaVuSans-35" x="166.259766"/>
      <use xlink:href="#DejaVuSans-2c" x="229.882812"/>
      <use xlink:href="#DejaVuSans-20" x="261.669922"/>
      <use xlink:href="#DejaVuSans-31" x="293.457031"/>
      <use xlink:href="#DejaVuSans-31" x="357.080078"/>
      <use xlink:href="#DejaVuSans-32" x="420.703125"/>
      <use xlink:href="#DejaVuSans-29" x="484.326172"/>
     </g>
    </g>
   </g>
  </g>
 </g>
 <defs>
  <clipPath id="peedf628d47">
   <rect x="57.6" y="41.472" width="357.12" height="266.112"/>
  </clipPath>
 </defs>
</svg>
