<?xml version="1.0" encoding="utf-8" standalone="no"?>
<!DOCTYPE svg PUBLIC "-//W3C//DTD SVG 1.1//EN"
  "http://www.w3.org/Graphics/SVG/1.1/DTD/svg11.dtd">
<svg xmlns:xlink="http://www.w3.org/1999/xlink" width="460.8pt" height="345.6pt" viewBox="0 0 460.8 345.6" xmlns="http://www.w3.org/2000/svg" version="1.1">
 <metadata>
  <rdf:RDF xmlns:dc="http://purl.org/dc/elements/1.1/" xmlns:cc="http://creativecommons.org/ns#" xmlns:rdf="http://www.w3.org/1999/02/22-rdf-syntax-ns#">
   <cc:Work>
    <dc:type rdf:resource="http://purl.org/dc/dcmitype/StillImage"/>
    <dc:date>2025-12-03T20:42:16.070940</dc:date>
    <dc:format>image/svg+xml</dc:format>
    <dc:creator>
     <cc:Agent>
      <dc:title>Matplotlib v3.8.4, https://matplotlib.org/</dc:title>
     </cc:Agent>
    </dc:creator>
   </cc:Work>
  </rdf:RDF>
 </metadata>
 <defs>
  <style type="text/css">*{stroke-linejoin: round; stroke-linecap: butt}</style>
 </defs>
 <g id="figure_1">
  <g id="patch_1">
   <path d="M 0 345.6 
L 460.8 345.6 
L 460.8 0 
L 0 0 
z
" style="fill: #ffffff"/>
  </g>
  <g id="axes_1">
   <g id="patch_2">
    <path d="M 57.6 307.584 
L 414.72 307.584 
L 414.72 41.472 
L 57.6 41.472 
z
" style="fill: #ffffff"/>
   </g>
   <g id="matplotlib.axis_1">
    <g id="xtick_1">
     <g id="line2d_1">
      <defs>
       <path id="mc39a72e7fa" d="M 0 0 
L 0 3.5 
" style="stroke: #000000; stroke-width: 0.8"/>
      </defs>
      <g>
       <use xlink:href="#mc39a72e7fa" x="73.818841" y="307.584" style="stroke: #000000; stroke-width: 0.8"/>
      </g>
     </g>
     <g id="text_1">
      <!-- 300 -->
      <g transform="translate(64.275091 322.182437) scale(0.1 -0.1)">
       <defs>
        <path id="DejaVuSans-33" d="M 2597 2516 
Q 3050 2419 3304 2112 
Q 3559 1806 3559 1356 
Q 3559 666 3084 287 
Q 2609 -91 1734 -91 
Q 1441 -91 1130 -33 
Q 819 25 488 141 
L 488 750 
Q 750 597 1062 519 
Q 1375 441 1716 441 
Q 2309 441 2620 675 
Q 2931 909 2931 1356 
Q 2931 1769 2642 2001 
Q 2353 2234 1838 2234 
L 1294 2234 
L 1294 2753 
L 1863 2753 
Q 2328 2753 2575 2939 
Q 2822 3125 2822 3475 
Q 2822 3834 2567 4026 
Q 2313 4219 1838 4219 
Q 1578 4219 1281 4162 
Q 984 4106 628 3988 
L 628 4550 
Q 988 4650 1302 4700 
Q 1616 4750 1894 4750 
Q 2613 4750 3031 4423 
Q 3450 4097 3450 3541 
Q 3450 3153 3228 2886 
Q 3006 2619 2597 2516 
z
" transform="scale(0.015625)"/>
        <path id="DejaVuSans-30" d="M 2034 4250 
Q 1547 4250 1301 3770 
Q 1056 3291 1056 2328 
Q 1056 1369 1301 889 
Q 1547 409 2034 409 
Q 2525 409 2770 889 
Q 3016 1369 3016 2328 
Q 3016 3291 2770 3770 
Q 2525 4250 2034 4250 
z
M 2034 4750 
Q 2819 4750 3233 4129 
Q 3647 3509 3647 2328 
Q 3647 1150 3233 529 
Q 2819 -91 2034 -91 
Q 1250 -91 836 529 
Q 422 1150 422 2328 
Q 422 3509 836 4129 
Q 1250 4750 2034 4750 
z
" transform="scale(0.015625)"/>
       </defs>
       <use xlink:href="#DejaVuSans-33"/>
       <use xlink:href="#DejaVuSans-30" x="63.623047"/>
       <use xlink:href="#DejaVuSans-30" x="127.246094"/>
      </g>
     </g>
    </g>
    <g id="xtick_2">
     <g id="line2d_2">
      <g>
       <use xlink:href="#mc39a72e7fa" x="123.878205" y="307.584" style="stroke: #000000; stroke-width: 0.8"/>
      </g>
     </g>
     <g id="text_2">
      <!-- 400 -->
      <g transform="translate(114.334455 322.182437) scale(0.1 -0.1)">
       <defs>
        <path id="DejaVuSans-34" d="M 2419 4116 
L 825 1625 
L 2419 1625 
L 2419 4116 
z
M 2253 4666 
L 3047 4666 
L 3047 1625 
L 3713 1625 
L 3713 1100 
L 3047 1100 
L 3047 0 
L 2419 0 
L 2419 1100 
L 313 1100 
L 313 1709 
L 2253 4666 
z
" transform="scale(0.015625)"/>
       </defs>
       <use xlink:href="#DejaVuSans-34"/>
       <use xlink:href="#DejaVuSans-30" x="63.623047"/>
       <use xlink:href="#DejaVuSans-30" x="127.246094"/>
      </g>
     </g>
    </g>
    <g id="xtick_3">
     <g id="line2d_3">
      <g>
       <use xlink:href="#mc39a72e7fa" x="173.937569" y="307.584" style="stroke: #000000; stroke-width: 0.8"/>
      </g>
     </g>
     <g id="text_3">
      <!-- 500 -->
      <g transform="translate(164.393819 322.182437) scale(0.1 -0.1)">
       <defs>
        <path id="DejaVuSans-35" d="M 691 4666 
L 3169 4666 
L 3169 4134 
L 1269 4134 
L 1269 2991 
Q 1406 3038 1543 3061 
Q 1681 3084 1819 3084 
Q 2600 3084 3056 2656 
Q 3513 2228 3513 1497 
Q 3513 744 3044 326 
Q 2575 -91 1722 -91 
Q 1428 -91 1123 -41 
Q 819 9 494 109 
L 494 744 
Q 775 591 1075 516 
Q 1375 441 1709 441 
Q 2250 441 2565 725 
Q 2881 1009 2881 1497 
Q 2881 1984 2565 2268 
Q 2250 2553 1709 2553 
Q 1456 2553 1204 2497 
Q 953 2441 691 2322 
L 691 4666 
z
" transform="scale(0.015625)"/>
       </defs>
       <use xlink:href="#DejaVuSans-35"/>
       <use xlink:href="#DejaVuSans-30" x="63.623047"/>
       <use xlink:href="#DejaVuSans-30" x="127.246094"/>
      </g>
     </g>
    </g>
    <g id="xtick_4">
     <g id="line2d_4">
      <g>
       <use xlink:href="#mc39a72e7fa" x="223.996933" y="307.584" style="stroke: #000000; stroke-width: 0.8"/>
      </g>
     </g>
     <g id="text_4">
      <!-- 600 -->
      <g transform="translate(214.453183 322.182437) scale(0.1 -0.1)">
       <defs>
        <path id="DejaVuSans-36" d="M 2113 2584 
Q 1688 2584 1439 2293 
Q 1191 2003 1191 1497 
Q 1191 994 1439 701 
Q 1688 409 2113 409 
Q 2538 409 2786 701 
Q 3034 994 3034 1497 
Q 3034 2003 2786 2293 
Q 2538 2584 2113 2584 
z
M 3366 4563 
L 3366 3988 
Q 3128 4100 2886 4159 
Q 2644 4219 2406 4219 
Q 1781 4219 1451 3797 
Q 1122 3375 1075 2522 
Q 1259 2794 1537 2939 
Q 1816 3084 2150 3084 
Q 2853 3084 3261 2657 
Q 3669 2231 3669 1497 
Q 3669 778 3244 343 
Q 2819 -91 2113 -91 
Q 1303 -91 875 529 
Q 447 1150 447 2328 
Q 447 3434 972 4092 
Q 1497 4750 2381 4750 
Q 2619 4750 2861 4703 
Q 3103 4656 3366 4563 
z
" transform="scale(0.015625)"/>
       </defs>
       <use xlink:href="#DejaVuSans-36"/>
       <use xlink:href="#DejaVuSans-30" x="63.623047"/>
       <use xlink:href="#DejaVuSans-30" x="127.246094"/>
      </g>
     </g>
    </g>
    <g id="xtick_5">
     <g id="line2d_5">
      <g>
       <use xlink:href="#mc39a72e7fa" x="274.056297" y="307.584" style="stroke: #000000; stroke-width: 0.8"/>
      </g>
     </g>
     <g id="text_5">
      <!-- 700 -->
      <g transform="translate(264.512547 322.182437) scale(0.1 -0.1)">
       <defs>
        <path id="DejaVuSans-37" d="M 525 4666 
L 3525 4666 
L 3525 4397 
L 1831 0 
L 1172 0 
L 2766 4134 
L 525 4134 
L 525 4666 
z
" transform="scale(0.015625)"/>
       </defs>
       <use xlink:href="#DejaVuSans-37"/>
       <use xlink:href="#DejaVuSans-30" x="63.623047"/>
       <use xlink:href="#DejaVuSans-30" x="127.246094"/>
      </g>
     </g>
    </g>
    <g id="xtick_6">
     <g id="line2d_6">
      <g>
       <use xlink:href="#mc39a72e7fa" x="324.115661" y="307.584" style="stroke: #000000; stroke-width: 0.8"/>
      </g>
     </g>
     <g id="text_6">
      <!-- 800 -->
      <g transform="translate(314.571911 322.182437) scale(0.1 -0.1)">
       <defs>
        <path id="DejaVuSans-38" d="M 2034 2216 
Q 1584 2216 1326 1975 
Q 1069 1734 1069 1313 
Q 1069 891 1326 650 
Q 1584 409 2034 409 
Q 2484 409 2743 651 
Q 3003 894 3003 1313 
Q 3003 1734 2745 1975 
Q 2488 2216 2034 2216 
z
M 1403 2484 
Q 997 2584 770 2862 
Q 544 3141 544 3541 
Q 544 4100 942 4425 
Q 1341 4750 2034 4750 
Q 2731 4750 3128 4425 
Q 3525 4100 3525 3541 
Q 3525 3141 3298 2862 
Q 3072 2584 2669 2484 
Q 3125 2378 3379 2068 
Q 3634 1759 3634 1313 
Q 3634 634 3220 271 
Q 2806 -91 2034 -91 
Q 1263 -91 848 271 
Q 434 634 434 1313 
Q 434 1759 690 2068 
Q 947 2378 1403 2484 
z
M 1172 3481 
Q 1172 3119 1398 2916 
Q 1625 2713 2034 2713 
Q 2441 2713 2670 2916 
Q 2900 3119 2900 3481 
Q 2900 3844 2670 4047 
Q 2441 4250 2034 4250 
Q 1625 4250 1398 4047 
Q 1172 3844 1172 3481 
z
" transform="scale(0.015625)"/>
       </defs>
       <use xlink:href="#DejaVuSans-38"/>
       <use xlink:href="#DejaVuSans-30" x="63.623047"/>
       <use xlink:href="#DejaVuSans-30" x="127.246094"/>
      </g>
     </g>
    </g>
    <g id="xtick_7">
     <g id="line2d_7">
      <g>
       <use xlink:href="#mc39a72e7fa" x="374.175025" y="307.584" style="stroke: #000000; stroke-width: 0.8"/>
      </g>
     </g>
     <g id="text_7">
      <!-- 900 -->
      <g transform="translate(364.631275 322.182437) scale(0.1 -0.1)">
       <defs>
        <path id="DejaVuSans-39" d="M 703 97 
L 703 672 
Q 941 559 1184 500 
Q 1428 441 1663 441 
Q 2288 441 2617 861 
Q 2947 1281 2994 2138 
Q 2813 1869 2534 1725 
Q 2256 1581 1919 1581 
Q 1219 1581 811 2004 
Q 403 2428 403 3163 
Q 403 3881 828 4315 
Q 1253 4750 1959 4750 
Q 2769 4750 3195 4129 
Q 3622 3509 3622 2328 
Q 3622 1225 3098 567 
Q 2575 -91 1691 -91 
Q 1453 -91 1209 -44 
Q 966 3 703 97 
z
M 1959 2075 
Q 2384 2075 2632 2365 
Q 2881 2656 2881 3163 
Q 2881 3666 2632 3958 
Q 2384 4250 1959 4250 
Q 1534 4250 1286 3958 
Q 1038 3666 1038 3163 
Q 1038 2656 1286 2365 
Q 1534 2075 1959 2075 
z
" transform="scale(0.015625)"/>
       </defs>
       <use xlink:href="#DejaVuSans-39"/>
       <use xlink:href="#DejaVuSans-30" x="63.623047"/>
       <use xlink:href="#DejaVuSans-30" x="127.246094"/>
      </g>
     </g>
    </g>
    <g id="text_8">
     <!-- m/z -->
     <g transform="translate(226.981094 335.860562) scale(0.1 -0.1)">
      <defs>
       <path id="DejaVuSans-6d" d="M 3328 2828 
Q 3544 3216 3844 3400 
Q 4144 3584 4550 3584 
Q 5097 3584 5394 3201 
Q 5691 2819 5691 2113 
L 5691 0 
L 5113 0 
L 5113 2094 
Q 5113 2597 4934 2840 
Q 4756 3084 4391 3084 
Q 3944 3084 3684 2787 
Q 3425 2491 3425 1978 
L 3425 0 
L 2847 0 
L 2847 2094 
Q 2847 2600 2669 2842 
Q 2491 3084 2119 3084 
Q 1678 3084 1418 2786 
Q 1159 2488 1159 1978 
L 1159 0 
L 581 0 
L 581 3500 
L 1159 3500 
L 1159 2956 
Q 1356 3278 1631 3431 
Q 1906 3584 2284 3584 
Q 2666 3584 2933 3390 
Q 3200 3197 3328 2828 
z
" transform="scale(0.015625)"/>
       <path id="DejaVuSans-2f" d="M 1625 4666 
L 2156 4666 
L 531 -594 
L 0 -594 
L 1625 4666 
z
" transform="scale(0.015625)"/>
       <path id="DejaVuSans-7a" d="M 353 3500 
L 3084 3500 
L 3084 2975 
L 922 459 
L 3084 459 
L 3084 0 
L 275 0 
L 275 525 
L 2438 3041 
L 353 3041 
L 353 3500 
z
" transform="scale(0.015625)"/>
      </defs>
      <use xlink:href="#DejaVuSans-6d"/>
      <use xlink:href="#DejaVuSans-2f" x="97.412109"/>
      <use xlink:href="#DejaVuSans-7a" x="131.103516"/>
     </g>
    </g>
   </g>
   <g id="matplotlib.axis_2">
    <g id="ytick_1">
     <g id="line2d_8">
      <defs>
       <path id="m2da3cab039" d="M 0 0 
L -3.5 0 
" style="stroke: #000000; stroke-width: 0.8"/>
      </defs>
      <g>
       <use xlink:href="#m2da3cab039" x="57.6" y="307.584" style="stroke: #000000; stroke-width: 0.8"/>
      </g>
     </g>
     <g id="text_9">
      <!-- 0 -->
      <g transform="translate(44.2375 311.383219) scale(0.1 -0.1)">
       <use xlink:href="#DejaVuSans-30"/>
      </g>
     </g>
    </g>
    <g id="ytick_2">
     <g id="line2d_9">
      <g>
       <use xlink:href="#m2da3cab039" x="57.6" y="274.38717" style="stroke: #000000; stroke-width: 0.8"/>
      </g>
     </g>
     <g id="text_10">
      <!-- 100 -->
      <g transform="translate(31.5125 278.186389) scale(0.1 -0.1)">
       <defs>
        <path id="DejaVuSans-31" d="M 794 531 
L 1825 531 
L 1825 4091 
L 703 3866 
L 703 4441 
L 1819 4666 
L 2450 4666 
L 2450 531 
L 3481 531 
L 3481 0 
L 794 0 
L 794 531 
z
" transform="scale(0.015625)"/>
       </defs>
       <use xlink:href="#DejaVuSans-31"/>
       <use xlink:href="#DejaVuSans-30" x="63.623047"/>
       <use xlink:href="#DejaVuSans-30" x="127.246094"/>
      </g>
     </g>
    </g>
    <g id="ytick_3">
     <g id="line2d_10">
      <g>
       <use xlink:href="#m2da3cab039" x="57.6" y="241.19034" style="stroke: #000000; stroke-width: 0.8"/>
      </g>
     </g>
     <g id="text_11">
      <!-- 200 -->
      <g transform="translate(31.5125 244.989559) scale(0.1 -0.1)">
       <defs>
        <path id="DejaVuSans-32" d="M 1228 531 
L 3431 531 
L 3431 0 
L 469 0 
L 469 531 
Q 828 903 1448 1529 
Q 2069 2156 2228 2338 
Q 2531 2678 2651 2914 
Q 2772 3150 2772 3378 
Q 2772 3750 2511 3984 
Q 2250 4219 1831 4219 
Q 1534 4219 1204 4116 
Q 875 4013 500 3803 
L 500 4441 
Q 881 4594 1212 4672 
Q 1544 4750 1819 4750 
Q 2544 4750 2975 4387 
Q 3406 4025 3406 3419 
Q 3406 3131 3298 2873 
Q 3191 2616 2906 2266 
Q 2828 2175 2409 1742 
Q 1991 1309 1228 531 
z
" transform="scale(0.015625)"/>
       </defs>
       <use xlink:href="#DejaVuSans-32"/>
       <use xlink:href="#DejaVuSans-30" x="63.623047"/>
       <use xlink:href="#DejaVuSans-30" x="127.246094"/>
      </g>
     </g>
    </g>
    <g id="ytick_4">
     <g id="line2d_11">
      <g>
       <use xlink:href="#m2da3cab039" x="57.6" y="207.993511" style="stroke: #000000; stroke-width: 0.8"/>
      </g>
     </g>
     <g id="text_12">
      <!-- 300 -->
      <g transform="translate(31.5125 211.792729) scale(0.1 -0.1)">
       <use xlink:href="#DejaVuSans-33"/>
       <use xlink:href="#DejaVuSans-30" x="63.623047"/>
       <use xlink:href="#DejaVuSans-30" x="127.246094"/>
      </g>
     </g>
    </g>
    <g id="ytick_5">
     <g id="line2d_12">
      <g>
       <use xlink:href="#m2da3cab039" x="57.6" y="174.796681" style="stroke: #000000; stroke-width: 0.8"/>
      </g>
     </g>
     <g id="text_13">
      <!-- 400 -->
      <g transform="translate(31.5125 178.5959) scale(0.1 -0.1)">
       <use xlink:href="#DejaVuSans-34"/>
       <use xlink:href="#DejaVuSans-30" x="63.623047"/>
       <use xlink:href="#DejaVuSans-30" x="127.246094"/>
      </g>
     </g>
    </g>
    <g id="ytick_6">
     <g id="line2d_13">
      <g>
       <use xlink:href="#m2da3cab039" x="57.6" y="141.599851" style="stroke: #000000; stroke-width: 0.8"/>
      </g>
     </g>
     <g id="text_14">
      <!-- 500 -->
      <g transform="translate(31.5125 145.39907) scale(0.1 -0.1)">
       <use xlink:href="#DejaVuSans-35"/>
       <use xlink:href="#DejaVuSans-30" x="63.623047"/>
       <use xlink:href="#DejaVuSans-30" x="127.246094"/>
      </g>
     </g>
    </g>
    <g id="ytick_7">
     <g id="line2d_14">
      <g>
       <use xlink:href="#m2da3cab039" x="57.6" y="108.403021" style="stroke: #000000; stroke-width: 0.8"/>
      </g>
     </g>
     <g id="text_15">
      <!-- 600 -->
      <g transform="translate(31.5125 112.20224) scale(0.1 -0.1)">
       <use xlink:href="#DejaVuSans-36"/>
       <use xlink:href="#DejaVuSans-30" x="63.623047"/>
       <use xlink:href="#DejaVuSans-30" x="127.246094"/>
      </g>
     </g>
    </g>
    <g id="ytick_8">
     <g id="line2d_15">
      <g>
       <use xlink:href="#m2da3cab039" x="57.6" y="75.206191" style="stroke: #000000; stroke-width: 0.8"/>
      </g>
     </g>
     <g id="text_16">
      <!-- 700 -->
      <g transform="translate(31.5125 79.00541) scale(0.1 -0.1)">
       <use xlink:href="#DejaVuSans-37"/>
       <use xlink:href="#DejaVuSans-30" x="63.623047"/>
       <use xlink:href="#DejaVuSans-30" x="127.246094"/>
      </g>
     </g>
    </g>
    <g id="ytick_9">
     <g id="line2d_16">
      <g>
       <use xlink:href="#m2da3cab039" x="57.6" y="42.009362" style="stroke: #000000; stroke-width: 0.8"/>
      </g>
     </g>
     <g id="text_17">
      <!-- 800 -->
      <g transform="translate(31.5125 45.80858) scale(0.1 -0.1)">
       <use xlink:href="#DejaVuSans-38"/>
       <use xlink:href="#DejaVuSans-30" x="63.623047"/>
       <use xlink:href="#DejaVuSans-30" x="127.246094"/>
      </g>
     </g>
    </g>
    <g id="text_18">
     <!-- Intensities [a.u.] -->
     <g transform="translate(25.432812 215.303) rotate(-90) scale(0.1 -0.1)">
      <defs>
       <path id="DejaVuSans-49" d="M 628 4666 
L 1259 4666 
L 1259 0 
L 628 0 
L 628 4666 
z
" transform="scale(0.015625)"/>
       <path id="DejaVuSans-6e" d="M 3513 2113 
L 3513 0 
L 2938 0 
L 2938 2094 
Q 2938 2591 2744 2837 
Q 2550 3084 2163 3084 
Q 1697 3084 1428 2787 
Q 1159 2491 1159 1978 
L 1159 0 
L 581 0 
L 581 3500 
L 1159 3500 
L 1159 2956 
Q 1366 3272 1645 3428 
Q 1925 3584 2291 3584 
Q 2894 3584 3203 3211 
Q 3513 2838 3513 2113 
z
" transform="scale(0.015625)"/>
       <path id="DejaVuSans-74" d="M 1172 4494 
L 1172 3500 
L 2356 3500 
L 2356 3053 
L 1172 3053 
L 1172 1153 
Q 1172 725 1289 603 
Q 1406 481 1766 481 
L 2356 481 
L 2356 0 
L 1766 0 
Q 1100 0 847 248 
Q 594 497 594 1153 
L 594 3053 
L 172 3053 
L 172 3500 
L 594 3500 
L 594 4494 
L 1172 4494 
z
" transform="scale(0.015625)"/>
       <path id="DejaVuSans-65" d="M 3597 1894 
L 3597 1613 
L 953 1613 
Q 991 1019 1311 708 
Q 1631 397 2203 397 
Q 2534 397 2845 478 
Q 3156 559 3463 722 
L 3463 178 
Q 3153 47 2828 -22 
Q 2503 -91 2169 -91 
Q 1331 -91 842 396 
Q 353 884 353 1716 
Q 353 2575 817 3079 
Q 1281 3584 2069 3584 
Q 2775 3584 3186 3129 
Q 3597 2675 3597 1894 
z
M 3022 2063 
Q 3016 2534 2758 2815 
Q 2500 3097 2075 3097 
Q 1594 3097 1305 2825 
Q 1016 2553 972 2059 
L 3022 2063 
z
" transform="scale(0.015625)"/>
       <path id="DejaVuSans-73" d="M 2834 3397 
L 2834 2853 
Q 2591 2978 2328 3040 
Q 2066 3103 1784 3103 
Q 1356 3103 1142 2972 
Q 928 2841 928 2578 
Q 928 2378 1081 2264 
Q 1234 2150 1697 2047 
L 1894 2003 
Q 2506 1872 2764 1633 
Q 3022 1394 3022 966 
Q 3022 478 2636 193 
Q 2250 -91 1575 -91 
Q 1294 -91 989 -36 
Q 684 19 347 128 
L 347 722 
Q 666 556 975 473 
Q 1284 391 1588 391 
Q 1994 391 2212 530 
Q 2431 669 2431 922 
Q 2431 1156 2273 1281 
Q 2116 1406 1581 1522 
L 1381 1569 
Q 847 1681 609 1914 
Q 372 2147 372 2553 
Q 372 3047 722 3315 
Q 1072 3584 1716 3584 
Q 2034 3584 2315 3537 
Q 2597 3491 2834 3397 
z
" transform="scale(0.015625)"/>
       <path id="DejaVuSans-69" d="M 603 3500 
L 1178 3500 
L 1178 0 
L 603 0 
L 603 3500 
z
M 603 4863 
L 1178 4863 
L 1178 4134 
L 603 4134 
L 603 4863 
z
" transform="scale(0.015625)"/>
       <path id="DejaVuSans-20" transform="scale(0.015625)"/>
       <path id="DejaVuSans-5b" d="M 550 4863 
L 1875 4863 
L 1875 4416 
L 1125 4416 
L 1125 -397 
L 1875 -397 
L 1875 -844 
L 550 -844 
L 550 4863 
z
" transform="scale(0.015625)"/>
       <path id="DejaVuSans-61" d="M 2194 1759 
Q 1497 1759 1228 1600 
Q 959 1441 959 1056 
Q 959 750 1161 570 
Q 1363 391 1709 391 
Q 2188 391 2477 730 
Q 2766 1069 2766 1631 
L 2766 1759 
L 2194 1759 
z
M 3341 1997 
L 3341 0 
L 2766 0 
L 2766 531 
Q 2569 213 2275 61 
Q 1981 -91 1556 -91 
Q 1019 -91 701 211 
Q 384 513 384 1019 
Q 384 1609 779 1909 
Q 1175 2209 1959 2209 
L 2766 2209 
L 2766 2266 
Q 2766 2663 2505 2880 
Q 2244 3097 1772 3097 
Q 1472 3097 1187 3025 
Q 903 2953 641 2809 
L 641 3341 
Q 956 3463 1253 3523 
Q 1550 3584 1831 3584 
Q 2591 3584 2966 3190 
Q 3341 2797 3341 1997 
z
" transform="scale(0.015625)"/>
       <path id="DejaVuSans-2e" d="M 684 794 
L 1344 794 
L 1344 0 
L 684 0 
L 684 794 
z
" transform="scale(0.015625)"/>
       <path id="DejaVuSans-75" d="M 544 1381 
L 544 3500 
L 1119 3500 
L 1119 1403 
Q 1119 906 1312 657 
Q 1506 409 1894 409 
Q 2359 409 2629 706 
Q 2900 1003 2900 1516 
L 2900 3500 
L 3475 3500 
L 3475 0 
L 2900 0 
L 2900 538 
Q 2691 219 2414 64 
Q 2138 -91 1772 -91 
Q 1169 -91 856 284 
Q 544 659 544 1381 
z
M 1991 3584 
L 1991 3584 
z
" transform="scale(0.015625)"/>
       <path id="DejaVuSans-5d" d="M 1947 4863 
L 1947 -844 
L 622 -844 
L 622 -397 
L 1369 -397 
L 1369 4416 
L 622 4416 
L 622 4863 
L 1947 4863 
z
" transform="scale(0.015625)"/>
      </defs>
      <use xlink:href="#DejaVuSans-49"/>
      <use xlink:href="#DejaVuSans-6e" x="29.492188"/>
      <use xlink:href="#DejaVuSans-74" x="92.871094"/>
      <use xlink:href="#DejaVuSans-65" x="132.080078"/>
      <use xlink:href="#DejaVuSans-6e" x="193.603516"/>
      <use xlink:href="#DejaVuSans-73" x="256.982422"/>
      <use xlink:href="#DejaVuSans-69" x="309.082031"/>
      <use xlink:href="#DejaVuSans-74" x="336.865234"/>
      <use xlink:href="#DejaVuSans-69" x="376.074219"/>
      <use xlink:href="#DejaVuSans-65" x="403.857422"/>
      <use xlink:href="#DejaVuSans-73" x="465.380859"/>
      <use xlink:href="#DejaVuSans-20" x="517.480469"/>
      <use xlink:href="#DejaVuSans-5b" x="549.267578"/>
      <use xlink:href="#DejaVuSans-61" x="588.28125"/>
      <use xlink:href="#DejaVuSans-2e" x="649.560547"/>
      <use xlink:href="#DejaVuSans-75" x="681.347656"/>
      <use xlink:href="#DejaVuSans-2e" x="744.726562"/>
      <use xlink:href="#DejaVuSans-5d" x="776.513672"/>
     </g>
    </g>
   </g>
   <g id="line2d_17">
    <path d="M 73.832727 307.584 
L 73.895301 307.584 
L 74.370841 301.361622 
L 74.410882 307.584 
L 74.871404 303.960364 
L 74.886421 307.584 
L 74.906449 303.927914 
L 75.374488 289.857029 
L 75.387 307.584 
L 75.915092 303.630451 
L 76.340584 304.925766 
L 76.373124 307.584 
L 76.393137 302.225165 
L 76.878698 303.881942 
L 76.918739 303.742225 
L 77.351732 307.584 
L 77.389283 299.490311 
L 77.902357 307.584 
L 78.360374 297.73438 
L 78.397925 307.584 
L 78.880981 307.584 
L 78.893492 299.248736 
L 78.978585 304.67157 
L 79.386555 303.460086 
L 79.409073 300.580106 
L 79.459135 305.650493 
L 79.887118 296.705881 
L 79.919658 307.584 
L 80.397702 307.584 
L 80.462767 280.406732 
L 80.848218 307.584 
L 80.880743 285.393285 
L 80.9283 307.584 
L 81.426373 300.379996 
L 81.839338 307.584 
L 81.876889 305.650493 
L 82.402475 307.584 
L 82.852991 307.584 
L 82.883026 293.166076 
L 82.895538 302.171081 
L 83.411133 307.584 
L 84.387236 298.297757 
L 84.404758 305.806435 
L 84.887814 299.968054 
L 84.942872 301.192159 
L 84.9629 307.584 
L 85.395893 301.466185 
L 85.465969 307.584 
L 85.878934 285.213006 
L 85.893951 307.584 
L 85.971543 302.396432 
L 86.424564 307.584 
L 86.477116 303.404199 
L 86.887592 307.584 
L 86.922622 302.704711 
L 86.9802 307.584 
L 87.393166 307.584 
L 87.413194 302.99316 
L 87.433206 305.338608 
L 87.891223 300.366475 
L 87.908746 307.584 
L 87.931279 305.726211 
L 88.396812 301.321059 
L 88.406819 304.173996 
L 88.421836 301.81683 
L 88.887369 301.817732 
L 88.919894 305.338608 
L 89.365414 307.584 
L 89.397939 299.214483 
L 89.901022 307.584 
L 90.411592 305.503564 
L 90.969734 307.584 
L 91.472802 307.584 
L 91.90329 297.637931 
L 91.945851 307.584 
L 91.978376 300.214138 
L 92.411369 301.805112 
L 92.431397 307.584 
L 92.48146 303.648479 
L 92.894425 297.231398 
L 92.936971 293.590635 
L 92.987034 307.584 
L 93.399999 303.768365 
L 93.47258 307.584 
L 93.487597 305.26289 
L 93.85302 307.584 
L 93.940618 301.961055 
L 93.983164 307.584 
L 94.403646 307.584 
L 94.431175 302.998568 
L 94.851656 305.490043 
L 94.906714 299.635437 
L 94.894203 307.584 
L 94.94926 307.584 
L 95.352219 307.584 
L 95.404787 302.762401 
L 95.439817 307.584 
L 95.895344 307.584 
L 95.907856 304.083856 
L 95.942901 307.584 
L 96.400918 302.686683 
L 96.435963 307.584 
L 96.886464 305.414326 
L 96.903986 300.442192 
L 96.951543 303.666507 
L 97.40956 299.080174 
L 97.429588 307.584 
L 97.479651 305.015906 
L 97.947674 307.584 
L 97.985225 302.317108 
L 98.418218 307.584 
L 98.435741 304.065828 
L 98.490799 305.338608 
L 98.976344 307.584 
L 98.996372 290.388855 
L 99.409338 300.861344 
L 99.481918 307.584 
L 99.499441 293.728551 
L 99.909916 302.858851 
L 99.985002 307.584 
L 100.002509 291.11178 
L 100.488071 307.584 
L 100.916053 302.668655 
L 100.956109 305.139398 
L 100.993645 302.217954 
L 101.446666 307.584 
L 102.385233 307.584 
L 102.440291 301.597789 
L 102.960882 307.584 
L 103.86442 307.584 
L 103.901955 299.383046 
L 103.949512 307.584 
L 104.407529 295.125724 
L 104.425051 307.584 
L 104.492621 302.881386 
L 104.910597 298.020125 
L 104.96066 307.584 
L 105.0007 300.851428 
L 105.416186 307.584 
L 105.506274 302.103476 
L 105.991836 307.584 
L 106.011864 299.952731 
L 106.424829 307.584 
L 106.514932 293.53475 
L 106.925392 303.728704 
L 106.965448 307.584 
L 107.002983 296.279517 
L 107.020506 296.48053 
L 107.453499 303.448368 
L 107.486039 307.584 
L 107.503562 298.347335 
L 107.523574 250.756018 
L 107.97409 307.584 
L 108.011641 303.648479 
L 108.029148 251.342828 
L 108.447125 307.584 
L 108.512204 297.536072 
L 108.534722 94.63049 
L 108.965226 307.584 
L 109.035301 213.867945 
L 109.43826 301.319256 
L 109.458288 298.295954 
L 109.540875 290.559221 
L 109.973868 307.584 
L 110.414362 304.916752 
L 110.43439 305.152919 
L 110.46693 307.584 
L 110.932463 307.584 
L 110.939964 304.391234 
L 110.967493 307.584 
L 111.42302 305.286326 
L 111.443033 304.471459 
L 111.941106 307.584 
L 111.958628 303.492536 
L 112.431662 305.267397 
L 112.521766 307.584 
L 112.932241 305.369256 
L 112.949748 307.584 
L 112.967271 304.155067 
L 113.007327 305.139398 
L 113.460333 307.584 
L 113.512901 299.884224 
L 113.925866 301.589677 
L 113.940883 305.49455 
L 113.963401 304.841034 
L 114.018474 287.176261 
L 114.43144 301.589677 
L 114.46899 307.584 
L 114.521543 292.021295 
L 114.972059 307.584 
L 115.027117 290.480799 
L 115.512678 307.584 
L 115.532691 297.529763 
L 115.925643 302.130518 
L 115.980701 307.584 
L 116.018252 304.392136 
L 116.035775 281.127852 
L 116.421211 307.584 
L 116.433723 303.510565 
L 116.44874 301.465283 
L 116.483785 307.584 
L 116.541349 249.878051 
L 116.974342 307.584 
L 117.429853 307.584 
L 117.932922 303.074286 
L 117.945449 301.841168 
L 117.982984 305.801928 
L 118.438496 302.673162 
L 118.461029 307.584 
L 118.976609 307.584 
L 119.447153 299.329862 
L 119.469672 307.584 
L 119.932699 301.240835 
L 119.967745 307.584 
L 119.985267 305.49455 
L 120.458301 307.584 
L 120.475824 300.462925 
L 120.908817 300.765795 
L 120.978892 307.584 
L 120.99391 302.116997 
L 121.446931 303.292425 
L 121.534529 307.584 
L 122.025085 307.584 
L 122.438051 305.650493 
L 122.490619 307.584 
L 122.530659 303.322172 
L 122.928607 304.689598 
L 122.956152 296.11366 
L 122.976164 307.584 
L 123.033728 305.139398 
L 123.471732 307.584 
L 123.539302 290.194154 
L 124.042385 307.584 
L 124.445344 307.584 
L 124.467863 301.479706 
L 124.48288 305.10244 
L 124.93089 302.418967 
L 124.99597 307.584 
L 125.453987 307.584 
L 125.47901 303.492536 
L 125.491537 307.584 
L 125.974578 307.584 
L 125.989595 305.570268 
L 126.462629 307.584 
L 126.485163 305.574775 
L 126.535225 307.584 
L 126.94819 303.648479 
L 126.963208 288.997091 
L 126.983236 307.584 
L 127.058322 299.129751 
L 127.421225 304.783344 
L 127.453764 307.584 
L 127.491315 301.666296 
L 127.994383 307.584 
L 128.462407 304.072138 
L 128.499957 307.584 
L 129.003026 307.584 
L 129.47606 303.721492 
L 129.941593 302.686683 
L 129.994161 307.584 
L 130.449672 305.49455 
L 130.53727 307.584 
L 130.952741 301.453565 
L 131.040354 307.584 
L 131.463326 307.584 
L 131.545928 290.201365 
L 131.998934 307.584 
L 132.048996 298.957583 
L 132.451955 301.212891 
L 132.491996 307.584 
L 132.955024 307.584 
L 132.970041 302.564994 
L 133.007592 307.584 
L 133.460598 307.584 
L 133.515671 299.787774 
L 133.931142 307.584 
L 133.963682 305.570268 
L 133.998711 307.584 
L 134.491774 307.584 
L 134.524313 303.742225 
L 134.939784 302.484769 
L 135.009859 307.584 
L 135.477898 304.47236 
L 135.570506 307.584 
L 135.948442 303.552029 
L 135.963459 303.942336 
L 135.998489 307.584 
L 136.021022 304.783344 
L 136.489046 301.033512 
L 136.524091 307.584 
L 136.95959 302.404544 
L 136.99462 303.248257 
L 137.009637 304.841034 
L 137.452652 307.584 
L 137.500194 302.566797 
L 137.95572 307.584 
L 137.968232 303.474508 
L 138.0208 307.584 
L 138.441266 302.694796 
L 138.478817 307.584 
L 138.513862 299.543494 
L 138.946855 301.667197 
L 138.996902 307.584 
L 139.0845 305.801928 
L 139.469937 307.584 
L 139.49247 298.343729 
L 139.552539 299.340679 
L 140.00805 307.584 
L 140.478594 302.244996 
L 140.496117 304.751795 
L 140.561181 301.915083 
L 140.979157 300.637797 
L 141.016708 307.584 
L 141.487237 298.729529 
L 141.507265 307.584 
L 141.990305 307.584 
L 142.007828 305.134891 
L 142.02535 307.584 
L 142.50089 307.584 
L 142.513402 299.657973 
L 142.963918 299.52817 
L 143.001468 307.584 
L 143.01398 303.642169 
L 143.436952 307.584 
L 143.469492 303.43034 
L 143.507042 304.630106 
L 143.97007 304.609374 
L 144.025128 307.584 
L 144.45062 303.802619 
L 144.468128 303.978392 
L 144.520695 307.584 
L 144.953689 291.839212 
L 145.003736 307.584 
L 145.979854 307.584 
L 145.994871 301.248046 
L 146.014899 301.447256 
L 146.505456 307.584 
L 146.520473 302.685782 
L 146.537996 302.69119 
L 146.986006 307.584 
L 147.023541 301.787084 
L 147.549143 307.584 
L 148.014676 307.584 
L 148.032184 304.714838 
L 148.522756 307.584 
L 148.983278 302.597444 
L 149.005796 300.419657 
L 149.025824 307.584 
L 150.016944 307.584 
L 150.497494 299.618311 
L 150.522518 304.283967 
L 150.970529 300.909118 
L 151.025602 307.584 
L 151.476118 299.923886 
L 151.548698 307.584 
L 152.019227 307.584 
L 152.03675 304.159574 
L 152.457231 300.028449 
L 152.527306 305.469311 
L 152.992839 307.584 
L 153.015358 305.650493 
L 153.030375 307.584 
L 153.465874 297.728972 
L 153.500919 307.584 
L 153.535949 300.745064 
L 154.024015 307.584 
L 154.039033 304.159574 
L 154.527084 307.584 
L 154.9776 300.147433 
L 155.030152 307.584 
L 156.0413 307.584 
L 156.459276 303.434847 
L 156.531872 307.584 
L 157.014913 297.463059 
L 157.049958 307.584 
L 157.47293 307.584 
L 157.490452 304.173996 
L 157.51048 307.584 
L 157.976013 303.699859 
L 158.061106 307.584 
L 158.516617 303.266284 
L 158.531634 301.248046 
L 158.564174 307.584 
L 158.581697 307.584 
L 159.054731 307.584 
L 159.472707 304.577824 
L 159.52778 307.584 
L 159.993298 307.584 
L 160.010821 303.539409 
L 160.048371 307.584 
L 160.5189 307.584 
L 160.616519 302.900316 
L 161.06453 307.584 
L 161.50753 294.291927 
L 161.532553 305.49455 
L 161.567599 303.61693 
L 162.103207 307.584 
L 162.5362 307.584 
L 162.969193 304.003631 
L 163.056791 307.584 
L 163.086826 305.045652 
L 163.474767 307.584 
L 163.489785 301.311144 
L 163.539847 303.60431 
L 163.922778 307.584 
L 163.980341 303.554733 
L 164.022887 307.584 
L 164.047926 307.584 
L 164.488421 303.865717 
L 164.556006 307.584 
L 164.991489 302.597444 
L 165.086603 307.584 
L 165.479556 300.15735 
L 165.549631 307.584 
L 167.061357 307.584 
L 167.511858 302.387418 
L 167.551914 307.584 
L 167.566931 302.722739 
L 168.014942 304.489487 
L 168.052477 304.471459 
L 168.523021 303.84859 
L 168.548044 301.82945 
L 169.008567 307.584 
L 169.026089 304.254221 
L 169.09867 307.584 
L 169.534169 307.584 
L 169.554181 305.645986 
L 170.057265 307.584 
L 170.490259 307.584 
L 170.507781 296.639177 
L 170.557828 307.584 
L 170.995832 307.584 
L 171.048385 304.316418 
L 171.065908 292.723487 
L 171.080925 307.584 
L 171.503912 307.584 
L 171.538942 303.728704 
L 171.566486 307.584 
L 172.042025 307.584 
L 172.104584 289.094443 
L 172.605163 307.584 
L 173.000605 300.050083 
L 173.050668 307.584 
L 173.070696 303.131074 
L 173.54373 307.584 
L 174.006758 304.003631 
L 174.05931 307.584 
L 174.076833 303.978392 
L 174.552372 302.325221 
L 174.60494 307.584 
L 175.991518 307.584 
L 176.111656 302.809274 
L 176.497092 307.584 
L 176.512109 305.182665 
L 176.567167 307.584 
L 177.002666 307.584 
L 177.120298 304.196531 
L 177.50824 302.547867 
L 177.573319 307.584 
L 178.011308 307.584 
L 178.046353 305.574775 
L 178.081399 307.584 
L 178.50188 307.584 
L 178.521893 301.335482 
L 178.56945 307.584 
L 179.039994 307.584 
L 179.057501 301.14168 
L 179.120076 307.584 
L 179.528045 305.882153 
L 179.550563 300.29346 
L 179.623144 307.584 
L 180.048636 307.584 
L 180.066144 303.274397 
L 180.571718 307.584 
L 180.611774 302.904823 
L 181.024739 303.942336 
L 181.114842 307.584 
L 181.565358 307.584 
L 181.582896 305.258383 
L 181.620416 305.49455 
L 182.030907 301.171427 
L 182.050919 307.584 
L 182.123485 305.026723 
L 182.611551 307.584 
L 182.629058 305.670324 
L 183.039549 303.611522 
L 183.079574 307.584 
L 183.107103 297.307116 
L 183.580168 307.584 
L 183.610202 300.544051 
L 184.088247 307.584 
L 184.548754 304.903231 
L 184.573778 307.584 
L 184.591316 304.453431 
L 184.646374 268.491098 
L 185.126924 307.584 
L 185.149442 293.751987 
L 185.554891 302.583022 
L 185.58242 307.584 
L 186.055485 305.29534 
L 186.087994 307.584 
L 186.135567 291.160457 
L 186.566039 307.584 
L 186.581072 301.341791 
L 186.638635 301.985392 
L 187.066633 307.584 
L 187.952632 307.584 
L 188.04023 303.742225 
L 188.075275 307.584 
L 188.092783 303.172539 
L 188.545804 307.584 
L 188.598357 307.584 
L 188.6184 304.301995 
L 189.121468 307.584 
L 189.519401 304.506614 
L 189.534434 302.140434 
L 189.556952 307.584 
L 189.57449 302.824597 
L 189.627042 307.584 
L 190.057515 304.159574 
L 190.077558 307.584 
L 190.130111 301.458072 
L 190.580627 302.471248 
L 190.598134 307.584 
L 190.635685 303.104032 
L 191.031143 296.378672 
L 191.066188 307.584 
L 191.088706 299.395664 
L 191.103708 275.055108 
L 191.141259 302.8904 
L 191.589269 307.584 
L 191.644327 299.191047 
L 192.079841 307.584 
L 192.535337 300.89109 
L 192.58291 307.584 
L 192.652969 273.119799 
L 193.088484 307.584 
L 193.158543 279.835242 
L 193.594057 307.584 
L 193.661642 290.572742 
L 194.047079 307.584 
L 194.067092 305.806435 
L 194.099631 300.06811 
L 194.572665 307.584 
L 195.073229 307.584 
L 195.090766 304.648134 
L 195.543788 305.650493 
L 195.59634 303.648479 
L 196.041845 299.594874 
L 196.084376 307.584 
L 196.534892 303.492536 
L 196.569938 307.584 
L 196.592456 302.970625 
L 197.037961 307.584 
L 197.073006 302.288264 
L 197.140591 307.584 
L 197.581085 303.292425 
L 197.596118 307.584 
L 197.636143 303.753943 
L 198.044128 307.584 
L 198.101692 301.711366 
L 198.139242 307.584 
L 198.542186 304.391234 
L 198.589728 300.51791 
L 198.60476 307.584 
L 198.642311 307.584 
L 198.709865 301.705958 
L 199.045255 307.584 
L 199.0803 303.068877 
L 199.145379 305.139398 
L 199.210459 305.882153 
L 199.570872 307.584 
L 199.630941 297.104301 
L 199.650953 307.584 
L 200.071435 307.584 
L 200.088942 304.886104 
L 200.134009 307.584 
L 201.080077 307.584 
L 201.115122 297.662269 
L 201.568144 307.584 
L 202.091225 307.584 
L 202.106258 304.641824 
L 202.579292 307.584 
L 203.044809 304.290277 
L 203.084866 307.584 
L 205.10215 307.584 
L 205.137196 282.397027 
L 205.587712 301.397678 
L 205.637759 307.584 
L 206.095791 307.584 
L 206.22592 303.464593 
L 206.616367 307.584 
L 208.681224 307.584 
L 209.064155 304.903231 
L 209.104211 307.584 
L 210.060301 307.584 
L 210.097851 305.06368 
L 210.117864 307.584 
L 210.565875 303.762957 
L 210.605931 301.683423 
L 210.620932 305.645084 
L 210.723563 307.584 
L 211.226631 307.584 
L 211.559515 302.850738 
L 211.732205 292.424222 
L 212.062584 307.584 
L 212.235274 304.131631 
L 212.595686 302.365784 
L 212.62071 307.584 
L 212.740848 291.806762 
L 213.111282 307.584 
L 213.243916 296.820359 
L 213.74949 299.652564 
L 214.252558 307.584 
L 216.104669 307.584 
L 216.137209 305.16013 
L 216.612749 307.584 
L 217.075792 307.584 
L 217.115817 305.215116 
L 217.621391 307.584 
L 218.747696 307.584 
L 219.068053 301.957449 
L 219.100593 307.584 
L 219.148135 302.226968 
L 219.250765 307.584 
L 219.608672 307.584 
L 219.668741 302.804767 
L 219.756339 304.921259 
L 220.056683 307.584 
L 220.129248 305.650493 
L 220.259407 307.584 
L 223.12016 307.584 
L 223.140173 303.523184 
L 223.155206 307.584 
L 223.588184 307.584 
L 223.745872 294.583079 
L 224.088777 307.584 
L 224.131308 307.584 
L 224.24894 295.831521 
L 224.496732 307.584 
L 224.754514 307.584 
L 225.119938 304.628303 
L 225.139951 307.584 
L 225.257583 307.584 
L 225.57797 301.934013 
L 225.628017 307.584 
L 225.763187 303.039132 
L 226.148624 307.584 
L 226.654198 307.584 
L 226.77183 300.317799 
L 227.074679 305.182665 
L 227.092186 307.584 
L 227.162277 296.057773 
L 227.274898 301.831253 
L 227.617773 307.584 
L 227.69538 305.843393 
L 227.780472 307.584 
L 228.155887 307.584 
L 228.195943 302.615472 
L 229.091964 301.448157 
L 229.147022 307.584 
L 229.770228 307.584 
L 230.22826 302.77502 
L 230.275802 304.28577 
L 230.761363 307.584 
L 231.264432 307.584 
L 231.592305 305.650493 
L 231.682408 305.877646 
L 231.752498 301.44996 
L 231.770006 307.584 
L 232.185476 307.584 
L 232.595936 295.661156 
L 232.69105 302.236883 
L 233.149082 307.584 
L 233.584566 307.584 
L 233.602104 305.418833 
L 233.654656 307.584 
L 234.140217 307.584 
L 234.595714 301.573452 
L 235.659445 307.584 
L 236.00733 307.584 
L 236.165018 302.904823 
L 236.768212 305.49455 
L 237.113592 307.584 
L 237.178672 300.677458 
L 237.27128 307.584 
L 237.641684 307.584 
L 237.77936 296.182167 
L 238.104727 307.584 
L 238.162291 300.206025 
L 238.279923 300.206025 
L 238.595269 305.574775 
L 239.105853 307.584 
L 239.155931 303.585381 
L 239.203473 307.584 
L 239.611427 307.584 
L 239.709047 303.441157 
L 240.114496 307.584 
L 240.212115 304.591346 
L 240.670147 307.584 
L 241.611205 307.584 
L 241.67879 299.370426 
L 242.166856 305.06368 
L 243.120441 307.584 
L 243.172993 302.578515 
L 243.676062 307.584 
L 247.18257 307.584 
L 247.230112 298.073308 
L 247.685638 307.584 
L 247.73318 286.466857 
L 248.023503 307.584 
L 248.186202 307.584 
L 248.236249 295.00764 
L 248.661741 303.078793 
L 248.739317 307.584 
L 249.187328 301.523875 
L 249.600293 307.584 
L 249.672889 304.404755 
L 250.608966 303.560142 
L 250.626473 307.584 
L 252.120677 307.584 
L 252.175735 305.570268 
L 252.598722 307.584 
L 252.68632 305.645986 
L 253.189388 307.584 
L 254.683592 303.110342 
L 254.748671 291.643607 
L 255.136613 301.545508 
L 255.206703 307.584 
L 255.254245 297.679395 
L 255.677232 307.584 
L 255.759819 286.153168 
L 256.202819 305.570268 
L 256.260382 279.233106 
L 256.723425 307.584 
L 256.763451 289.796635 
L 257.193954 307.584 
L 258.185089 303.540311 
L 259.191226 305.10244 
L 260.134789 307.584 
L 261.143462 307.584 
L 261.211016 302.289165 
L 263.21831 307.584 
L 264.209445 307.584 
L 265.273145 295.512424 
L 265.706154 304.689598 
L 265.741169 304.609374 
L 266.209223 307.584 
L 266.759833 297.810098 
L 267.217865 307.584 
L 270.213758 307.584 
L 271.149835 305.650493 
L 271.237433 307.584 
L 271.783063 304.116307 
L 272.050867 307.584 
L 272.216041 307.584 
L 272.283626 302.952597 
L 273.224714 307.584 
L 274.758943 307.584 
L 274.811495 297.945309 
L 275.241998 304.703119 
L 275.259506 304.547177 
L 275.842686 292.234027 
L 276.235639 305.139398 
L 276.713684 307.584 
L 276.851329 296.977204 
L 278.225395 307.584 
L 278.655867 304.431797 
L 278.798554 305.726211 
L 279.158966 304.766218 
L 279.777162 307.584 
L 282.242457 307.584 
L 282.325044 302.050294 
L 283.333717 307.584 
L 283.796729 307.584 
L 284.064534 299.57234 
L 284.342359 300.369179 
L 284.662716 305.650493 
L 284.805372 304.747288 
L 285.165785 304.591346 
L 285.30844 295.906338 
L 285.758956 307.584 
L 285.814045 303.280707 
L 286.176932 307.584 
L 286.317113 298.272517 
L 286.332115 304.903231 
L 286.67001 307.584 
L 286.792653 302.116997 
L 286.822687 304.903231 
L 287.173078 304.547177 
L 287.293216 307.584 
L 287.325756 304.765316 
L 287.83133 307.584 
L 287.853848 302.938174 
L 288.737372 307.584 
L 288.855005 307.584 
L 289.340535 303.478114 
L 289.360578 307.584 
L 289.861142 307.584 
L 289.876143 305.74514 
L 290.349178 301.879928 
L 290.852277 296.357039 
L 291.790829 302.789443 
L 291.820863 307.584 
L 292.293897 303.804422 
L 292.829505 301.937618 
L 293.302539 303.724197 
L 293.335079 303.446565 
L 293.810619 304.109095 
L 293.835673 302.308996 
L 294.171032 307.584 
L 294.338741 296.313771 
L 294.676605 307.584 
L 294.816786 304.147856 
L 294.844315 290.448349 
L 295.317349 307.584 
L 295.347384 292.845177 
L 295.850452 296.551741 
L 296.356026 297.630719 
L 296.819069 302.793049 
L 297.322138 303.354622 
L 297.367174 299.785972 
L 297.867737 302.65243 
L 298.33078 302.014237 
L 298.373311 297.922774 
L 298.836354 304.005434 
L 299.271838 295.513326 
L 299.354455 307.584 
L 299.814962 307.584 
L 299.847502 297.935393 
L 300.348065 307.584 
L 300.363097 300.918132 
L 300.683454 307.584 
L 300.82611 299.245131 
L 300.878693 307.584 
L 301.329178 307.584 
L 301.354233 302.769612 
L 301.789716 305.414326 
L 301.829772 305.26289 
L 301.857301 307.584 
L 302.332841 307.584 
L 303.273898 299.484904 
L 303.374023 284.481066 
L 303.874586 295.724255 
L 304.382665 270.390353 
L 304.815674 303.358228 
L 304.885734 291.485863 
L 305.318742 307.584 
L 305.388802 296.050562 
L 305.824316 304.783344 
L 305.891871 303.924308 
L 306.327385 303.292425 
L 306.700294 303.331186 
L 306.832959 295.223075 
L 307.195877 305.499057 
L 307.336027 304.43991 
L 307.363556 296.42825 
L 307.701451 305.570268 
L 307.841601 303.378058 
L 307.866625 299.451551 
L 308.094403 307.584 
L 308.204519 303.104934 
L 308.34467 307.584 
L 308.372198 302.35046 
L 308.707588 307.584 
L 308.845233 307.584 
L 309.210656 304.529149 
L 309.350837 302.237785 
L 309.8514 300.773908 
L 310.359479 274.605308 
L 310.389514 304.283967 
L 310.860043 292.398081 
L 310.892582 305.258383 
L 311.298031 307.584 
L 311.398156 295.163582 
L 311.831134 302.824597 
L 311.901225 307.584 
L 312.361762 307.584 
L 313.337865 305.726211 
L 313.367899 303.960364 
L 313.873473 307.584 
L 314.376542 305.281819 
L 314.714436 307.584 
L 314.87961 299.43082 
L 315.202472 301.319256 
L 315.357655 303.572761 
L 315.38769 276.015102 
L 315.708046 307.584 
L 315.860724 307.584 
L 315.888253 278.860827 
L 316.211145 304.311911 
L 316.366298 302.627191 
L 316.393827 293.022753 
L 316.714214 303.152708 
L 316.869366 302.317108 
L 316.896926 301.229116 
L 317.372465 307.584 
L 317.405005 292.535094 
L 317.837983 302.405446 
L 317.873028 307.584 
L 317.908073 300.934358 
L 318.356084 302.014237 
L 318.413647 300.242983 
L 318.849131 301.372439 
L 318.916716 307.584 
L 319.21706 307.584 
L 319.349694 299.766141 
L 319.367232 307.584 
L 319.387245 297.3612 
L 319.419784 302.107082 
L 319.710107 305.882153 
L 319.852762 303.728704 
L 319.887808 300.8974 
L 319.922853 303.122962 
L 320.10807 307.584 
L 320.355861 307.584 
L 321.364504 304.859062 
L 321.397044 287.654905 
L 321.867572 303.277101 
L 321.900112 293.963816 
L 322.373146 269.362756 
L 322.428204 307.584 
L 322.876215 282.684574 
L 322.931273 307.584 
L 323.381789 254.222806 
L 323.409318 302.98054 
L 323.884857 268.293691 
L 324.217741 305.338608 
L 324.387926 293.320216 
L 324.422971 304.272249 
L 324.72081 307.584 
L 324.888519 302.257616 
L 325.434119 307.584 
L 326.390209 300.030252 
L 326.420243 307.584 
L 327.371322 294.510066 
L 327.398882 300.086139 
L 327.721744 307.584 
L 327.874421 305.728915 
L 327.90195 303.822449 
L 328.37749 307.584 
L 328.410029 294.607417 
L 328.880558 304.641824 
L 328.913098 302.295475 
L 329.388637 307.584 
L 329.418672 301.402185 
L 329.891706 302.58843 
L 329.92174 303.060765 
L 330.377267 307.584 
L 330.394774 297.223286 
L 330.424809 301.35351 
L 330.897843 298.998147 
L 330.962923 302.321615 
L 331.368372 303.794506 
L 331.465991 300.398024 
L 331.90398 307.584 
L 332.409584 307.584 
L 332.912653 302.342348 
L 333.378171 304.765316 
L 333.408205 307.584 
L 333.420732 297.732578 
L 333.911274 307.584 
L 334.386813 291.374089 
L 334.426869 307.584 
L 334.889882 300.180786 
L 335.395456 278.340719 
L 335.898555 303.989209 
L 336.406634 300.187096 
L 336.907197 298.356348 
L 337.415276 300.79464 
L 337.915839 295.232991 
L 338.351323 307.584 
L 338.418908 298.856627 
L 338.879446 307.584 
L 338.919471 300.949682 
L 339.397516 307.584 
L 339.412548 293.907929 
L 339.915617 307.584 
L 340.406158 307.584 
L 340.423696 297.198948 
L 340.89673 307.584 
L 340.926765 302.548769 
L 341.402304 300.147433 
L 341.905373 307.584 
L 341.967947 305.574775 
L 342.405936 300.020336 
L 342.46851 303.852196 
L 342.909035 307.584 
L 343.414609 303.780985 
L 343.917677 307.584 
L 344.135404 307.584 
L 344.423251 305.439565 
L 345.431894 307.584 
L 346.372951 303.448368 
L 346.402985 296.649093 
L 346.873545 297.058329 
L 346.976144 307.584 
L 347.411658 305.418833 
L 347.479213 307.584 
L 347.912221 300.499882 
L 348.420301 301.307538 
L 348.885819 298.496066 
L 348.923369 295.715241 
L 348.955909 307.584 
L 349.426438 298.670938 
L 349.927001 302.904823 
L 349.964552 282.00672 
L 350.420078 307.584 
L 350.465115 296.251575 
L 350.920641 307.584 
L 354.422139 307.584 
L 355.993918 305.650493 
L 356.939987 305.801928 
L 357.44556 307.584 
L 360.00099 307.584 
L 361.522722 302.811077 
L 361.772988 305.077201 
L 361.908158 302.438798 
L 362.916801 307.584 
L 367.887448 307.584 
L 368.393022 303.835971 
L 372.913183 307.584 
L 373.921825 307.584 
L 375.556179 290.878317 
L 375.941616 301.728493 
L 376.447189 307.584 
L 380.909787 307.584 
L 382.804429 299.912168 
L 383.307498 307.584 
L 394.940739 307.584 
L 398.487273 304.859062 
L 398.487273 304.859062 
" clip-path="url(#pa7ce690d16)" style="fill: none; stroke: #1f77b4; stroke-width: 1.5; stroke-linecap: square"/>
   </g>
   <g id="patch_3">
    <path d="M 57.6 307.584 
L 57.6 41.472 
" style="fill: none; stroke: #000000; stroke-width: 0.8; stroke-linejoin: miter; stroke-linecap: square"/>
   </g>
   <g id="patch_4">
    <path d="M 414.72 307.584 
L 414.72 41.472 
" style="fill: none; stroke: #000000; stroke-width: 0.8; stroke-linejoin: miter; stroke-linecap: square"/>
   </g>
   <g id="patch_5">
    <path d="M 57.6 307.584 
L 414.72 307.584 
" style="fill: none; stroke: #000000; stroke-width: 0.8; stroke-linejoin: miter; stroke-linecap: square"/>
   </g>
   <g id="patch_6">
    <path d="M 57.6 41.472 
L 414.72 41.472 
" style="fill: none; stroke: #000000; stroke-width: 0.8; stroke-linejoin: miter; stroke-linecap: square"/>
   </g>
   <g id="legend_1">
    <g id="patch_7">
     <path d="M 323.385625 64.150125 
L 407.72 64.150125 
Q 409.72 64.150125 409.72 62.150125 
L 409.72 48.472 
Q 409.72 46.472 407.72 46.472 
L 323.385625 46.472 
Q 321.385625 46.472 321.385625 48.472 
L 321.385625 62.150125 
Q 321.385625 64.150125 323.385625 64.150125 
z
" style="fill: #ffffff; opacity: 0.8; stroke: #cccccc; stroke-linejoin: miter"/>
    </g>
    <g id="line2d_18">
     <path d="M 325.385625 54.570438 
L 335.385625 54.570438 
L 345.385625 54.570438 
" style="fill: none; stroke: #1f77b4; stroke-width: 1.5; stroke-linecap: square"/>
    </g>
    <g id="text_19">
     <!-- (283, 389) -->
     <g transform="translate(353.385625 58.070438) scale(0.1 -0.1)">
      <defs>
       <path id="DejaVuSans-28" d="M 1984 4856 
Q 1566 4138 1362 3434 
Q 1159 2731 1159 2009 
Q 1159 1288 1364 580 
Q 1569 -128 1984 -844 
L 1484 -844 
Q 1016 -109 783 600 
Q 550 1309 550 2009 
Q 550 2706 781 3412 
Q 1013 4119 1484 4856 
L 1984 4856 
z
" transform="scale(0.015625)"/>
       <path id="DejaVuSans-2c" d="M 750 794 
L 1409 794 
L 1409 256 
L 897 -744 
L 494 -744 
L 750 256 
L 750 794 
z
" transform="scale(0.015625)"/>
       <path id="DejaVuSans-29" d="M 513 4856 
L 1013 4856 
Q 1481 4119 1714 3412 
Q 1947 2706 1947 2009 
Q 1947 1309 1714 600 
Q 1481 -109 1013 -844 
L 513 -844 
Q 928 -128 1133 580 
Q 1338 1288 1338 2009 
Q 1338 2731 1133 3434 
Q 928 4138 513 4856 
z
" transform="scale(0.015625)"/>
      </defs>
      <use xlink:href="#DejaVuSans-28"/>
      <use xlink:href="#DejaVuSans-32" x="39.013672"/>
      <use xlink:href="#DejaVuSans-38" x="102.636719"/>
      <use xlink:href="#DejaVuSans-33" x="166.259766"/>
      <use xlink:href="#DejaVuSans-2c" x="229.882812"/>
      <use xlink:href="#DejaVuSans-20" x="261.669922"/>
      <use xlink:href="#DejaVuSans-33" x="293.457031"/>
      <use xlink:href="#DejaVuSans-38" x="357.080078"/>
      <use xlink:href="#DejaVuSans-39" x="420.703125"/>
      <use xlink:href="#DejaVuSans-29" x="484.326172"/>
     </g>
    </g>
   </g>
  </g>
 </g>
 <defs>
  <clipPath id="pa7ce690d16">
   <rect x="57.6" y="41.472" width="357.12" height="266.112"/>
  </clipPath>
 </defs>
</svg>
