<?xml version="1.0" encoding="utf-8" standalone="no"?>
<!DOCTYPE svg PUBLIC "-//W3C//DTD SVG 1.1//EN"
  "http://www.w3.org/Graphics/SVG/1.1/DTD/svg11.dtd">
<svg xmlns:xlink="http://www.w3.org/1999/xlink" width="720pt" height="360pt" viewBox="0 0 720 360" xmlns="http://www.w3.org/2000/svg" version="1.1">
 <metadata>
  <rdf:RDF xmlns:dc="http://purl.org/dc/elements/1.1/" xmlns:cc="http://creativecommons.org/ns#" xmlns:rdf="http://www.w3.org/1999/02/22-rdf-syntax-ns#">
   <cc:Work>
    <dc:type rdf:resource="http://purl.org/dc/dcmitype/StillImage"/>
    <dc:date>2025-12-03T17:25:51.285200</dc:date>
    <dc:format>image/svg+xml</dc:format>
    <dc:creator>
     <cc:Agent>
      <dc:title>Matplotlib v3.8.4, https://matplotlib.org/</dc:title>
     </cc:Agent>
    </dc:creator>
   </cc:Work>
  </rdf:RDF>
 </metadata>
 <defs>
  <style type="text/css">*{stroke-linejoin: round; stroke-linecap: butt}</style>
 </defs>
 <g id="figure_1">
  <g id="patch_1">
   <path d="M 0 360 
L 720 360 
L 720 0 
L 0 0 
z
" style="fill: #ffffff"/>
  </g>
  <g id="axes_1">
   <g id="patch_2">
    <path d="M 90 320.4 
L 648 320.4 
L 648 43.2 
L 90 43.2 
z
" style="fill: #ffffff"/>
   </g>
   <g id="PolyCollection_1">
    <defs>
     <path id="mb5f28b0a3b" d="M 119.12426 -52.2 
L 116.67574 -52.2 
L 116.482743 -54.600995 
L 116.266851 -57.00199 
L 116.026701 -59.402985 
L 115.761079 -61.80398 
L 115.468968 -64.204974 
L 115.149592 -66.605969 
L 114.802464 -69.006964 
L 114.427433 -71.407959 
L 114.024726 -73.808954 
L 113.594991 -76.209949 
L 113.13933 -78.610944 
L 112.659327 -81.011939 
L 112.157067 -83.412934 
L 111.635145 -85.813928 
L 111.096664 -88.214923 
L 110.545221 -90.615918 
L 109.984879 -93.016913 
L 109.420126 -95.417908 
L 108.855821 -97.818903 
L 108.297128 -100.219898 
L 107.749436 -102.620893 
L 107.21827 -105.021888 
L 106.709195 -107.422882 
L 106.227711 -109.823877 
L 105.779143 -112.224872 
L 105.368536 -114.625867 
L 105.000544 -117.026862 
L 104.679332 -119.427857 
L 104.408477 -121.828852 
L 104.190886 -124.229847 
L 104.028729 -126.630842 
L 103.923377 -129.031836 
L 103.87537 -131.432831 
L 103.884399 -133.833826 
L 103.949302 -136.234821 
L 104.068087 -138.635816 
L 104.237973 -141.036811 
L 104.455448 -143.437806 
L 104.716342 -145.838801 
L 105.015921 -148.239795 
L 105.348987 -150.64079 
L 105.709993 -153.041785 
L 106.093163 -155.44278 
L 106.492611 -157.843775 
L 106.90247 -160.24477 
L 107.31701 -162.645765 
L 107.730752 -165.04676 
L 108.138576 -167.447755 
L 108.535815 -169.848749 
L 108.918336 -172.249744 
L 109.282604 -174.650739 
L 109.625737 -177.051734 
L 109.94553 -179.452729 
L 110.240478 -181.853724 
L 110.509766 -184.254719 
L 110.753255 -186.655714 
L 110.971441 -189.056709 
L 111.165408 -191.457703 
L 111.33677 -193.858698 
L 111.48759 -196.259693 
L 111.620308 -198.660688 
L 111.737649 -201.061683 
L 111.842539 -203.462678 
L 111.938012 -205.863673 
L 112.027124 -208.264668 
L 112.11287 -210.665663 
L 112.198108 -213.066657 
L 112.285486 -215.467652 
L 112.377387 -217.868647 
L 112.475877 -220.269642 
L 112.582671 -222.670637 
L 112.699103 -225.071632 
L 112.826117 -227.472627 
L 112.964264 -229.873622 
L 113.113709 -232.274617 
L 113.274253 -234.675611 
L 113.445358 -237.076606 
L 113.626186 -239.477601 
L 113.815638 -241.878596 
L 114.012399 -244.279591 
L 114.214989 -246.680586 
L 114.421809 -249.081581 
L 114.631192 -251.482576 
L 114.841448 -253.883571 
L 115.050908 -256.284565 
L 115.257965 -258.68556 
L 115.461105 -261.086555 
L 115.65894 -263.48755 
L 115.850225 -265.888545 
L 116.033882 -268.28954 
L 116.209005 -270.690535 
L 116.374869 -273.09153 
L 116.530928 -275.492525 
L 116.67681 -277.893519 
L 116.812312 -280.294514 
L 116.937383 -282.695509 
L 117.052115 -285.096504 
L 117.15672 -287.497499 
L 117.25152 -289.898494 
L 118.54848 -289.898494 
L 118.54848 -289.898494 
L 118.64328 -287.497499 
L 118.747885 -285.096504 
L 118.862617 -282.695509 
L 118.987688 -280.294514 
L 119.12319 -277.893519 
L 119.269072 -275.492525 
L 119.425131 -273.09153 
L 119.590995 -270.690535 
L 119.766118 -268.28954 
L 119.949775 -265.888545 
L 120.14106 -263.48755 
L 120.338895 -261.086555 
L 120.542035 -258.68556 
L 120.749092 -256.284565 
L 120.958552 -253.883571 
L 121.168808 -251.482576 
L 121.378191 -249.081581 
L 121.585011 -246.680586 
L 121.787601 -244.279591 
L 121.984362 -241.878596 
L 122.173814 -239.477601 
L 122.354642 -237.076606 
L 122.525747 -234.675611 
L 122.686291 -232.274617 
L 122.835736 -229.873622 
L 122.973883 -227.472627 
L 123.100897 -225.071632 
L 123.217329 -222.670637 
L 123.324123 -220.269642 
L 123.422613 -217.868647 
L 123.514514 -215.467652 
L 123.601892 -213.066657 
L 123.68713 -210.665663 
L 123.772876 -208.264668 
L 123.861988 -205.863673 
L 123.957461 -203.462678 
L 124.062351 -201.061683 
L 124.179692 -198.660688 
L 124.31241 -196.259693 
L 124.46323 -193.858698 
L 124.634592 -191.457703 
L 124.828559 -189.056709 
L 125.046745 -186.655714 
L 125.290234 -184.254719 
L 125.559522 -181.853724 
L 125.85447 -179.452729 
L 126.174263 -177.051734 
L 126.517396 -174.650739 
L 126.881664 -172.249744 
L 127.264185 -169.848749 
L 127.661424 -167.447755 
L 128.069248 -165.04676 
L 128.48299 -162.645765 
L 128.89753 -160.24477 
L 129.307389 -157.843775 
L 129.706837 -155.44278 
L 130.090007 -153.041785 
L 130.451013 -150.64079 
L 130.784079 -148.239795 
L 131.083658 -145.838801 
L 131.344552 -143.437806 
L 131.562027 -141.036811 
L 131.731913 -138.635816 
L 131.850698 -136.234821 
L 131.915601 -133.833826 
L 131.92463 -131.432831 
L 131.876623 -129.031836 
L 131.771271 -126.630842 
L 131.609114 -124.229847 
L 131.391523 -121.828852 
L 131.120668 -119.427857 
L 130.799456 -117.026862 
L 130.431464 -114.625867 
L 130.020857 -112.224872 
L 129.572289 -109.823877 
L 129.090805 -107.422882 
L 128.58173 -105.021888 
L 128.050564 -102.620893 
L 127.502872 -100.219898 
L 126.944179 -97.818903 
L 126.379874 -95.417908 
L 125.815121 -93.016913 
L 125.254779 -90.615918 
L 124.703336 -88.214923 
L 124.164855 -85.813928 
L 123.642933 -83.412934 
L 123.140673 -81.011939 
L 122.66067 -78.610944 
L 122.205009 -76.209949 
L 121.775274 -73.808954 
L 121.372567 -71.407959 
L 120.997536 -69.006964 
L 120.650408 -66.605969 
L 120.331032 -64.204974 
L 120.038921 -61.80398 
L 119.773299 -59.402985 
L 119.533149 -57.00199 
L 119.317257 -54.600995 
L 119.12426 -52.2 
z
" style="stroke: #3f3f3f; stroke-width: 1.25"/>
    </defs>
    <g clip-path="url(#pdc262f08ee)">
     <use xlink:href="#mb5f28b0a3b" x="0" y="360" style="fill: #3274a1; stroke: #3f3f3f; stroke-width: 1.25"/>
    </g>
   </g>
   <g id="PolyCollection_2">
    <defs>
     <path id="m52a9b34933" d="M 175.305317 -89.000581 
L 172.094683 -89.000581 
L 171.833311 -90.489197 
L 171.539313 -91.977814 
L 171.210425 -93.46643 
L 170.844538 -94.955046 
L 170.439757 -96.443663 
L 169.994468 -97.932279 
L 169.507405 -99.420895 
L 168.977719 -100.909511 
L 168.405046 -102.398128 
L 167.789573 -103.886744 
L 167.132095 -105.37536 
L 166.43407 -106.863977 
L 165.697658 -108.352593 
L 164.925753 -109.841209 
L 164.122003 -111.329826 
L 163.290805 -112.818442 
L 162.437291 -114.307058 
L 161.567298 -115.795675 
L 160.687306 -117.284291 
L 159.804374 -118.772907 
L 158.926047 -120.261524 
L 158.060245 -121.75014 
L 157.215148 -123.238756 
L 156.399053 -124.727373 
L 155.620229 -126.215989 
L 154.88677 -127.704605 
L 154.206429 -129.193222 
L 153.586471 -130.681838 
L 153.033517 -132.170454 
L 152.553403 -133.659071 
L 152.151051 -135.147687 
L 151.830357 -136.636303 
L 151.594097 -138.12492 
L 151.44386 -139.613536 
L 151.38 -141.102152 
L 151.401623 -142.590769 
L 151.506596 -144.079385 
L 151.691586 -145.568001 
L 151.952127 -147.056618 
L 152.282711 -148.545234 
L 152.676909 -150.03385 
L 153.127504 -151.522467 
L 153.62665 -153.011083 
L 154.166037 -154.499699 
L 154.737076 -155.988316 
L 155.331075 -157.476932 
L 155.939426 -158.965548 
L 156.553786 -160.454165 
L 157.166239 -161.942781 
L 157.769457 -163.431397 
L 158.356837 -164.920013 
L 158.922616 -166.40863 
L 159.461964 -167.897246 
L 159.971052 -169.385862 
L 160.447093 -170.874479 
L 160.888351 -172.363095 
L 161.294131 -173.851711 
L 161.664733 -175.340328 
L 162.001387 -176.828944 
L 162.30617 -178.31756 
L 162.581892 -179.806177 
L 162.831978 -181.294793 
L 163.060336 -182.783409 
L 163.271214 -184.272026 
L 163.469057 -185.760642 
L 163.658369 -187.249258 
L 163.84357 -188.737875 
L 164.028876 -190.226491 
L 164.218182 -191.715107 
L 164.414962 -193.203724 
L 164.622194 -194.69234 
L 164.84229 -196.180956 
L 165.077064 -197.669573 
L 165.327705 -199.158189 
L 165.594779 -200.646805 
L 165.878246 -202.135422 
L 166.177493 -203.624038 
L 166.491388 -205.112654 
L 166.818338 -206.601271 
L 167.156362 -208.089887 
L 167.503168 -209.578503 
L 167.856236 -211.06712 
L 168.212899 -212.555736 
L 168.570424 -214.044352 
L 168.926089 -215.532969 
L 169.277251 -217.021585 
L 169.621407 -218.510201 
L 169.956251 -219.998818 
L 170.279712 -221.487434 
L 170.589986 -222.97605 
L 170.885561 -224.464667 
L 171.165225 -225.953283 
L 171.42807 -227.441899 
L 171.673487 -228.930516 
L 171.901147 -230.419132 
L 172.110988 -231.907748 
L 172.303186 -233.396364 
L 172.478131 -234.884981 
L 172.636391 -236.373597 
L 174.763609 -236.373597 
L 174.763609 -236.373597 
L 174.921869 -234.884981 
L 175.096814 -233.396364 
L 175.289012 -231.907748 
L 175.498853 -230.419132 
L 175.726513 -228.930516 
L 175.97193 -227.441899 
L 176.234775 -225.953283 
L 176.514439 -224.464667 
L 176.810014 -222.97605 
L 177.120288 -221.487434 
L 177.443749 -219.998818 
L 177.778593 -218.510201 
L 178.122749 -217.021585 
L 178.473911 -215.532969 
L 178.829576 -214.044352 
L 179.187101 -212.555736 
L 179.543764 -211.06712 
L 179.896832 -209.578503 
L 180.243638 -208.089887 
L 180.581662 -206.601271 
L 180.908612 -205.112654 
L 181.222507 -203.624038 
L 181.521754 -202.135422 
L 181.805221 -200.646805 
L 182.072295 -199.158189 
L 182.322936 -197.669573 
L 182.55771 -196.180956 
L 182.777806 -194.69234 
L 182.985038 -193.203724 
L 183.181818 -191.715107 
L 183.371124 -190.226491 
L 183.55643 -188.737875 
L 183.741631 -187.249258 
L 183.930943 -185.760642 
L 184.128786 -184.272026 
L 184.339664 -182.783409 
L 184.568022 -181.294793 
L 184.818108 -179.806177 
L 185.09383 -178.31756 
L 185.398613 -176.828944 
L 185.735267 -175.340328 
L 186.105869 -173.851711 
L 186.511649 -172.363095 
L 186.952907 -170.874479 
L 187.428948 -169.385862 
L 187.938036 -167.897246 
L 188.477384 -166.40863 
L 189.043163 -164.920013 
L 189.630543 -163.431397 
L 190.233761 -161.942781 
L 190.846214 -160.454165 
L 191.460574 -158.965548 
L 192.068925 -157.476932 
L 192.662924 -155.988316 
L 193.233963 -154.499699 
L 193.77335 -153.011083 
L 194.272496 -151.522467 
L 194.723091 -150.03385 
L 195.117289 -148.545234 
L 195.447873 -147.056618 
L 195.708414 -145.568001 
L 195.893404 -144.079385 
L 195.998377 -142.590769 
L 196.02 -141.102152 
L 195.95614 -139.613536 
L 195.805903 -138.12492 
L 195.569643 -136.636303 
L 195.248949 -135.147687 
L 194.846597 -133.659071 
L 194.366483 -132.170454 
L 193.813529 -130.681838 
L 193.193571 -129.193222 
L 192.51323 -127.704605 
L 191.779771 -126.215989 
L 191.000947 -124.727373 
L 190.184852 -123.238756 
L 189.339755 -121.75014 
L 188.473953 -120.261524 
L 187.595626 -118.772907 
L 186.712694 -117.284291 
L 185.832702 -115.795675 
L 184.962709 -114.307058 
L 184.109195 -112.818442 
L 183.277997 -111.329826 
L 182.474247 -109.841209 
L 181.702342 -108.352593 
L 180.96593 -106.863977 
L 180.267905 -105.37536 
L 179.610427 -103.886744 
L 178.994954 -102.398128 
L 178.422281 -100.909511 
L 177.892595 -99.420895 
L 177.405532 -97.932279 
L 176.960243 -96.443663 
L 176.555462 -94.955046 
L 176.189575 -93.46643 
L 175.860687 -91.977814 
L 175.566689 -90.489197 
L 175.305317 -89.000581 
z
" style="stroke: #3f3f3f; stroke-width: 1.25"/>
    </defs>
    <g clip-path="url(#pdc262f08ee)">
     <use xlink:href="#m52a9b34933" x="0" y="360" style="fill: #3274a1; stroke: #3f3f3f; stroke-width: 1.25"/>
    </g>
   </g>
   <g id="PolyCollection_3">
    <defs>
     <path id="mdd12428058" d="M 230.702753 -64.314698 
L 228.297247 -64.314698 
L 228.104534 -66.737782 
L 227.888433 -69.160866 
L 227.647476 -71.583949 
L 227.380343 -74.007033 
L 227.085906 -76.430117 
L 226.763283 -78.853201 
L 226.41189 -81.276285 
L 226.031489 -83.699369 
L 225.622237 -86.122453 
L 225.184734 -88.545536 
L 224.72006 -90.96862 
L 224.229809 -93.391704 
L 223.716114 -95.814788 
L 223.181657 -98.237872 
L 222.629669 -100.660956 
L 222.063922 -103.08404 
L 221.488697 -105.507123 
L 220.908743 -107.930207 
L 220.329222 -110.353291 
L 219.755632 -112.776375 
L 219.193728 -115.199459 
L 218.649421 -117.622543 
L 218.128672 -120.045627 
L 217.637376 -122.468711 
L 217.181244 -124.891794 
L 216.765679 -127.314878 
L 216.395659 -129.737962 
L 216.075623 -132.161046 
L 215.809364 -134.58413 
L 215.599936 -137.007214 
L 215.449578 -139.430298 
L 215.35965 -141.853381 
L 215.330595 -144.276465 
L 215.361922 -146.699549 
L 215.452203 -149.122633 
L 215.599106 -151.545717 
L 215.799437 -153.968801 
L 216.049213 -156.391885 
L 216.343748 -158.814968 
L 216.677756 -161.238052 
L 217.045471 -163.661136 
L 217.440776 -166.08422 
L 217.857332 -168.507304 
L 218.288725 -170.930388 
L 218.728595 -173.353472 
L 219.170773 -175.776555 
L 219.609406 -178.199639 
L 220.039066 -180.622723 
L 220.454855 -183.045807 
L 220.852487 -185.468891 
L 221.228353 -187.891975 
L 221.579568 -190.315059 
L 221.904 -192.738142 
L 222.200278 -195.161226 
L 222.467781 -197.58431 
L 222.706608 -200.007394 
L 222.917533 -202.430478 
L 223.101947 -204.853562 
L 223.261786 -207.276646 
L 223.399446 -209.699729 
L 223.517698 -212.122813 
L 223.619588 -214.545897 
L 223.70835 -216.968981 
L 223.787303 -219.392065 
L 223.859763 -221.815149 
L 223.928955 -224.238233 
L 223.997936 -226.661316 
L 224.069524 -229.0844 
L 224.146236 -231.507484 
L 224.230248 -233.930568 
L 224.323351 -236.353652 
L 224.426932 -238.776736 
L 224.541965 -241.19982 
L 224.669009 -243.622904 
L 224.808221 -246.045987 
L 224.95938 -248.469071 
L 225.121917 -250.892155 
L 225.294951 -253.315239 
L 225.477336 -255.738323 
L 225.667707 -258.161407 
L 225.864533 -260.584491 
L 226.066162 -263.007574 
L 226.270875 -265.430658 
L 226.476934 -267.853742 
L 226.682625 -270.276826 
L 226.886296 -272.69991 
L 227.086395 -275.122994 
L 227.281497 -277.546078 
L 227.470328 -279.969161 
L 227.651777 -282.392245 
L 227.824916 -284.815329 
L 227.988995 -287.238413 
L 228.143448 -289.661497 
L 228.287887 -292.084581 
L 228.422091 -294.507665 
L 228.545998 -296.930748 
L 228.659685 -299.353832 
L 228.763355 -301.776916 
L 228.857319 -304.2 
L 230.142681 -304.2 
L 230.142681 -304.2 
L 230.236645 -301.776916 
L 230.340315 -299.353832 
L 230.454002 -296.930748 
L 230.577909 -294.507665 
L 230.712113 -292.084581 
L 230.856552 -289.661497 
L 231.011005 -287.238413 
L 231.175084 -284.815329 
L 231.348223 -282.392245 
L 231.529672 -279.969161 
L 231.718503 -277.546078 
L 231.913605 -275.122994 
L 232.113704 -272.69991 
L 232.317375 -270.276826 
L 232.523066 -267.853742 
L 232.729125 -265.430658 
L 232.933838 -263.007574 
L 233.135467 -260.584491 
L 233.332293 -258.161407 
L 233.522664 -255.738323 
L 233.705049 -253.315239 
L 233.878083 -250.892155 
L 234.04062 -248.469071 
L 234.191779 -246.045987 
L 234.330991 -243.622904 
L 234.458035 -241.19982 
L 234.573068 -238.776736 
L 234.676649 -236.353652 
L 234.769752 -233.930568 
L 234.853764 -231.507484 
L 234.930476 -229.0844 
L 235.002064 -226.661316 
L 235.071045 -224.238233 
L 235.140237 -221.815149 
L 235.212697 -219.392065 
L 235.29165 -216.968981 
L 235.380412 -214.545897 
L 235.482302 -212.122813 
L 235.600554 -209.699729 
L 235.738214 -207.276646 
L 235.898053 -204.853562 
L 236.082467 -202.430478 
L 236.293392 -200.007394 
L 236.532219 -197.58431 
L 236.799722 -195.161226 
L 237.096 -192.738142 
L 237.420432 -190.315059 
L 237.771647 -187.891975 
L 238.147513 -185.468891 
L 238.545145 -183.045807 
L 238.960934 -180.622723 
L 239.390594 -178.199639 
L 239.829227 -175.776555 
L 240.271405 -173.353472 
L 240.711275 -170.930388 
L 241.142668 -168.507304 
L 241.559224 -166.08422 
L 241.954529 -163.661136 
L 242.322244 -161.238052 
L 242.656252 -158.814968 
L 242.950787 -156.391885 
L 243.200563 -153.968801 
L 243.400894 -151.545717 
L 243.547797 -149.122633 
L 243.638078 -146.699549 
L 243.669405 -144.276465 
L 243.64035 -141.853381 
L 243.550422 -139.430298 
L 243.400064 -137.007214 
L 243.190636 -134.58413 
L 242.924377 -132.161046 
L 242.604341 -129.737962 
L 242.234321 -127.314878 
L 241.818756 -124.891794 
L 241.362624 -122.468711 
L 240.871328 -120.045627 
L 240.350579 -117.622543 
L 239.806272 -115.199459 
L 239.244368 -112.776375 
L 238.670778 -110.353291 
L 238.091257 -107.930207 
L 237.511303 -105.507123 
L 236.936078 -103.08404 
L 236.370331 -100.660956 
L 235.818343 -98.237872 
L 235.283886 -95.814788 
L 234.770191 -93.391704 
L 234.27994 -90.96862 
L 233.815266 -88.545536 
L 233.377763 -86.122453 
L 232.968511 -83.699369 
L 232.58811 -81.276285 
L 232.236717 -78.853201 
L 231.914094 -76.430117 
L 231.619657 -74.007033 
L 231.352524 -71.583949 
L 231.111567 -69.160866 
L 230.895466 -66.737782 
L 230.702753 -64.314698 
z
" style="stroke: #3f3f3f; stroke-width: 1.25"/>
    </defs>
    <g clip-path="url(#pdc262f08ee)">
     <use xlink:href="#mdd12428058" x="0" y="360" style="fill: #3274a1; stroke: #3f3f3f; stroke-width: 1.25"/>
    </g>
   </g>
   <g id="PolyCollection_4">
    <defs>
     <path id="m3e3d693f1c" d="M 286.65153 -88.665454 
L 283.94847 -88.665454 
L 283.729695 -90.253138 
L 283.483902 -91.840821 
L 283.209267 -93.428505 
L 282.904095 -95.016189 
L 282.566869 -96.603873 
L 282.1963 -98.191556 
L 281.791383 -99.77924 
L 281.351441 -101.366924 
L 280.876183 -102.954607 
L 280.365742 -104.542291 
L 279.820726 -106.129975 
L 279.242244 -107.717659 
L 278.631939 -109.305342 
L 277.992004 -110.893026 
L 277.325186 -112.48071 
L 276.634787 -114.068394 
L 275.92464 -115.656077 
L 275.199081 -117.243761 
L 274.46291 -118.831445 
L 273.721328 -120.419128 
L 272.979877 -122.006812 
L 272.244356 -123.594496 
L 271.520739 -125.18218 
L 270.81508 -126.769863 
L 270.133414 -128.357547 
L 269.481655 -129.945231 
L 268.865495 -131.532915 
L 268.290304 -133.120598 
L 267.761033 -134.708282 
L 267.28213 -136.295966 
L 266.857454 -137.883649 
L 266.490211 -139.471333 
L 266.182895 -141.059017 
L 265.937247 -142.646701 
L 265.754222 -144.234384 
L 265.633984 -145.822068 
L 265.575899 -147.409752 
L 265.578563 -148.997436 
L 265.639825 -150.585119 
L 265.756842 -152.172803 
L 265.926135 -153.760487 
L 266.143663 -155.34817 
L 266.404908 -156.935854 
L 266.704963 -158.523538 
L 267.038637 -160.111222 
L 267.400552 -161.698905 
L 267.785256 -163.286589 
L 268.187324 -164.874273 
L 268.601471 -166.461957 
L 269.022646 -168.04964 
L 269.446129 -169.637324 
L 269.867619 -171.225008 
L 270.283306 -172.812691 
L 270.689932 -174.400375 
L 271.084844 -175.988059 
L 271.466019 -177.575743 
L 271.832084 -179.163426 
L 272.182311 -180.75111 
L 272.516603 -182.338794 
L 272.835451 -183.926478 
L 273.139888 -185.514161 
L 273.431426 -187.101845 
L 273.711974 -188.689529 
L 273.983755 -190.277212 
L 274.249213 -191.864896 
L 274.510916 -193.45258 
L 274.771461 -195.040264 
L 275.033376 -196.627947 
L 275.299034 -198.215631 
L 275.570572 -199.803315 
L 275.84982 -201.390999 
L 276.138247 -202.978682 
L 276.436913 -204.566366 
L 276.746447 -206.15405 
L 277.067032 -207.741733 
L 277.398408 -209.329417 
L 277.739891 -210.917101 
L 278.090404 -212.504785 
L 278.448517 -214.092468 
L 278.812502 -215.680152 
L 279.180387 -217.267836 
L 279.550027 -218.85552 
L 279.919161 -220.443203 
L 280.285484 -222.030887 
L 280.646707 -223.618571 
L 281.000617 -225.206254 
L 281.345127 -226.793938 
L 281.678325 -228.381622 
L 281.998508 -229.969306 
L 282.30421 -231.556989 
L 282.594226 -233.144673 
L 282.867614 -234.732357 
L 283.123706 -236.320041 
L 283.362095 -237.907724 
L 283.58263 -239.495408 
L 283.785389 -241.083092 
L 283.970668 -242.670775 
L 284.138946 -244.258459 
L 284.290862 -245.846143 
L 286.309138 -245.846143 
L 286.309138 -245.846143 
L 286.461054 -244.258459 
L 286.629332 -242.670775 
L 286.814611 -241.083092 
L 287.01737 -239.495408 
L 287.237905 -237.907724 
L 287.476294 -236.320041 
L 287.732386 -234.732357 
L 288.005774 -233.144673 
L 288.29579 -231.556989 
L 288.601492 -229.969306 
L 288.921675 -228.381622 
L 289.254873 -226.793938 
L 289.599383 -225.206254 
L 289.953293 -223.618571 
L 290.314516 -222.030887 
L 290.680839 -220.443203 
L 291.049973 -218.85552 
L 291.419613 -217.267836 
L 291.787498 -215.680152 
L 292.151483 -214.092468 
L 292.509596 -212.504785 
L 292.860109 -210.917101 
L 293.201592 -209.329417 
L 293.532968 -207.741733 
L 293.853553 -206.15405 
L 294.163087 -204.566366 
L 294.461753 -202.978682 
L 294.75018 -201.390999 
L 295.029428 -199.803315 
L 295.300966 -198.215631 
L 295.566624 -196.627947 
L 295.828539 -195.040264 
L 296.089084 -193.45258 
L 296.350787 -191.864896 
L 296.616245 -190.277212 
L 296.888026 -188.689529 
L 297.168574 -187.101845 
L 297.460112 -185.514161 
L 297.764549 -183.926478 
L 298.083397 -182.338794 
L 298.417689 -180.75111 
L 298.767916 -179.163426 
L 299.133981 -177.575743 
L 299.515156 -175.988059 
L 299.910068 -174.400375 
L 300.316694 -172.812691 
L 300.732381 -171.225008 
L 301.153871 -169.637324 
L 301.577354 -168.04964 
L 301.998529 -166.461957 
L 302.412676 -164.874273 
L 302.814744 -163.286589 
L 303.199448 -161.698905 
L 303.561363 -160.111222 
L 303.895037 -158.523538 
L 304.195092 -156.935854 
L 304.456337 -155.34817 
L 304.673865 -153.760487 
L 304.843158 -152.172803 
L 304.960175 -150.585119 
L 305.021437 -148.997436 
L 305.024101 -147.409752 
L 304.966016 -145.822068 
L 304.845778 -144.234384 
L 304.662753 -142.646701 
L 304.417105 -141.059017 
L 304.109789 -139.471333 
L 303.742546 -137.883649 
L 303.31787 -136.295966 
L 302.838967 -134.708282 
L 302.309696 -133.120598 
L 301.734505 -131.532915 
L 301.118345 -129.945231 
L 300.466586 -128.357547 
L 299.78492 -126.769863 
L 299.079261 -125.18218 
L 298.355644 -123.594496 
L 297.620123 -122.006812 
L 296.878672 -120.419128 
L 296.13709 -118.831445 
L 295.400919 -117.243761 
L 294.67536 -115.656077 
L 293.965213 -114.068394 
L 293.274814 -112.48071 
L 292.607996 -110.893026 
L 291.968061 -109.305342 
L 291.357756 -107.717659 
L 290.779274 -106.129975 
L 290.234258 -104.542291 
L 289.723817 -102.954607 
L 289.248559 -101.366924 
L 288.808617 -99.77924 
L 288.4037 -98.191556 
L 288.033131 -96.603873 
L 287.695905 -95.016189 
L 287.390733 -93.428505 
L 287.116098 -91.840821 
L 286.870305 -90.253138 
L 286.65153 -88.665454 
z
" style="stroke: #3f3f3f; stroke-width: 1.25"/>
    </defs>
    <g clip-path="url(#pdc262f08ee)">
     <use xlink:href="#m3e3d693f1c" x="0" y="360" style="fill: #3274a1; stroke: #3f3f3f; stroke-width: 1.25"/>
    </g>
   </g>
   <g id="PolyCollection_5">
    <defs>
     <path id="mbc600d570c" d="M 343.259083 -91.719531 
L 338.940917 -91.719531 
L 338.641913 -93.025726 
L 338.313319 -94.33192 
L 337.95413 -95.638115 
L 337.563615 -96.944309 
L 337.141365 -98.250503 
L 336.687336 -99.556698 
L 336.201892 -100.862892 
L 335.685841 -102.169087 
L 335.140468 -103.475281 
L 334.567553 -104.781475 
L 333.969387 -106.08767 
L 333.348774 -107.393864 
L 332.709022 -108.700058 
L 332.053917 -110.006253 
L 331.387693 -111.312447 
L 330.714974 -112.618642 
L 330.040721 -113.924836 
L 329.370148 -115.23103 
L 328.708638 -116.537225 
L 328.06165 -117.843419 
L 327.434606 -119.149614 
L 326.832789 -120.455808 
L 326.261226 -121.762002 
L 325.724575 -123.068197 
L 325.227022 -124.374391 
L 324.772173 -125.680586 
L 324.362967 -126.98678 
L 324.001599 -128.292974 
L 323.689454 -129.599169 
L 323.427069 -130.905363 
L 323.214109 -132.211558 
L 323.049364 -133.517752 
L 322.930776 -134.823946 
L 322.855482 -136.130141 
L 322.819878 -137.436335 
L 322.819714 -138.74253 
L 322.850193 -140.048724 
L 322.906101 -141.354918 
L 322.981936 -142.661113 
L 323.072055 -143.967307 
L 323.170826 -145.273501 
L 323.272774 -146.579696 
L 323.372732 -147.88589 
L 323.465976 -149.192085 
L 323.548357 -150.498279 
L 323.616408 -151.804473 
L 323.667441 -153.110668 
L 323.699615 -154.416862 
L 323.711986 -155.723057 
L 323.704529 -157.029251 
L 323.678136 -158.335445 
L 323.634587 -159.64164 
L 323.576497 -160.947834 
L 323.507241 -162.254029 
L 323.430859 -163.560223 
L 323.351944 -164.866417 
L 323.275508 -166.172612 
L 323.206854 -167.478806 
L 323.151423 -168.785001 
L 323.114654 -170.091195 
L 323.101835 -171.397389 
L 323.117969 -172.703584 
L 323.167644 -174.009778 
L 323.254916 -175.315973 
L 323.383211 -176.622167 
L 323.555245 -177.928361 
L 323.772962 -179.234556 
L 324.037494 -180.54075 
L 324.349142 -181.846944 
L 324.707381 -183.153139 
L 325.110883 -184.459333 
L 325.557556 -185.765528 
L 326.044608 -187.071722 
L 326.568621 -188.377916 
L 327.125634 -189.684111 
L 327.71124 -190.990305 
L 328.320689 -192.2965 
L 328.948993 -193.602694 
L 329.59103 -194.908888 
L 330.241644 -196.215083 
L 330.895748 -197.521277 
L 331.548412 -198.827472 
L 332.19494 -200.133666 
L 332.830948 -201.43986 
L 333.452415 -202.746055 
L 334.055735 -204.052249 
L 334.63775 -205.358444 
L 335.195769 -206.664638 
L 335.727582 -207.970832 
L 336.231455 -209.277027 
L 336.706123 -210.583221 
L 337.150764 -211.889416 
L 337.56498 -213.19561 
L 337.948756 -214.501804 
L 338.302427 -215.807999 
L 338.626635 -217.114193 
L 338.922286 -218.420387 
L 339.190509 -219.726582 
L 339.432609 -221.032776 
L 342.767391 -221.032776 
L 342.767391 -221.032776 
L 343.009491 -219.726582 
L 343.277714 -218.420387 
L 343.573365 -217.114193 
L 343.897573 -215.807999 
L 344.251244 -214.501804 
L 344.63502 -213.19561 
L 345.049236 -211.889416 
L 345.493877 -210.583221 
L 345.968545 -209.277027 
L 346.472418 -207.970832 
L 347.004231 -206.664638 
L 347.56225 -205.358444 
L 348.144265 -204.052249 
L 348.747585 -202.746055 
L 349.369052 -201.43986 
L 350.00506 -200.133666 
L 350.651588 -198.827472 
L 351.304252 -197.521277 
L 351.958356 -196.215083 
L 352.60897 -194.908888 
L 353.251007 -193.602694 
L 353.879311 -192.2965 
L 354.48876 -190.990305 
L 355.074366 -189.684111 
L 355.631379 -188.377916 
L 356.155392 -187.071722 
L 356.642444 -185.765528 
L 357.089117 -184.459333 
L 357.492619 -183.153139 
L 357.850858 -181.846944 
L 358.162506 -180.54075 
L 358.427038 -179.234556 
L 358.644755 -177.928361 
L 358.816789 -176.622167 
L 358.945084 -175.315973 
L 359.032356 -174.009778 
L 359.082031 -172.703584 
L 359.098165 -171.397389 
L 359.085346 -170.091195 
L 359.048577 -168.785001 
L 358.993146 -167.478806 
L 358.924492 -166.172612 
L 358.848056 -164.866417 
L 358.769141 -163.560223 
L 358.692759 -162.254029 
L 358.623503 -160.947834 
L 358.565413 -159.64164 
L 358.521864 -158.335445 
L 358.495471 -157.029251 
L 358.488014 -155.723057 
L 358.500385 -154.416862 
L 358.532559 -153.110668 
L 358.583592 -151.804473 
L 358.651643 -150.498279 
L 358.734024 -149.192085 
L 358.827268 -147.88589 
L 358.927226 -146.579696 
L 359.029174 -145.273501 
L 359.127945 -143.967307 
L 359.218064 -142.661113 
L 359.293899 -141.354918 
L 359.349807 -140.048724 
L 359.380286 -138.74253 
L 359.380122 -137.436335 
L 359.344518 -136.130141 
L 359.269224 -134.823946 
L 359.150636 -133.517752 
L 358.985891 -132.211558 
L 358.772931 -130.905363 
L 358.510546 -129.599169 
L 358.198401 -128.292974 
L 357.837033 -126.98678 
L 357.427827 -125.680586 
L 356.972978 -124.374391 
L 356.475425 -123.068197 
L 355.938774 -121.762002 
L 355.367211 -120.455808 
L 354.765394 -119.149614 
L 354.13835 -117.843419 
L 353.491362 -116.537225 
L 352.829852 -115.23103 
L 352.159279 -113.924836 
L 351.485026 -112.618642 
L 350.812307 -111.312447 
L 350.146083 -110.006253 
L 349.490978 -108.700058 
L 348.851226 -107.393864 
L 348.230613 -106.08767 
L 347.632447 -104.781475 
L 347.059532 -103.475281 
L 346.514159 -102.169087 
L 345.998108 -100.862892 
L 345.512664 -99.556698 
L 345.058635 -98.250503 
L 344.636385 -96.944309 
L 344.24587 -95.638115 
L 343.886681 -94.33192 
L 343.558087 -93.025726 
L 343.259083 -91.719531 
z
" style="stroke: #3f3f3f; stroke-width: 1.25"/>
    </defs>
    <g clip-path="url(#pdc262f08ee)">
     <use xlink:href="#mbc600d570c" x="0" y="360" style="fill: #3274a1; stroke: #3f3f3f; stroke-width: 1.25"/>
    </g>
   </g>
   <g id="PolyCollection_6">
    <defs>
     <path id="mc664dde53e" d="M 398.342569 -89.645724 
L 395.457431 -89.645724 
L 395.226129 -90.988272 
L 394.966688 -92.330819 
L 394.677278 -93.673367 
L 394.356212 -95.015915 
L 394.001996 -96.358463 
L 393.613377 -97.70101 
L 393.189397 -99.043558 
L 392.729442 -100.386106 
L 392.233286 -101.728654 
L 391.701138 -103.071201 
L 391.133674 -104.413749 
L 390.532072 -105.756297 
L 389.898027 -107.098845 
L 389.233766 -108.441392 
L 388.542043 -109.78394 
L 387.826128 -111.126488 
L 387.089783 -112.469036 
L 386.337217 -113.811583 
L 385.573046 -115.154131 
L 384.80222 -116.496679 
L 384.029962 -117.839227 
L 383.261677 -119.181775 
L 382.502873 -120.524322 
L 381.759066 -121.86687 
L 381.035687 -123.209418 
L 380.337988 -124.551966 
L 379.670956 -125.894513 
L 379.03922 -127.237061 
L 378.446986 -128.579609 
L 377.897959 -129.922157 
L 377.395295 -131.264704 
L 376.941555 -132.607252 
L 376.538675 -133.9498 
L 376.187957 -135.292348 
L 375.89006 -136.634895 
L 375.64502 -137.977443 
L 375.452271 -139.319991 
L 375.310685 -140.662539 
L 375.21862 -142.005087 
L 375.173975 -143.347634 
L 375.174252 -144.690182 
L 375.216631 -146.03273 
L 375.298031 -147.375278 
L 375.415193 -148.717825 
L 375.564749 -150.060373 
L 375.743293 -151.402921 
L 375.947449 -152.745469 
L 376.173938 -154.088016 
L 376.419637 -155.430564 
L 376.68163 -156.773112 
L 376.957256 -158.11566 
L 377.244147 -159.458207 
L 377.540261 -160.800755 
L 377.843904 -162.143303 
L 378.153741 -163.485851 
L 378.468804 -164.828398 
L 378.788489 -166.170946 
L 379.112538 -167.513494 
L 379.441018 -168.856042 
L 379.774294 -170.19859 
L 380.112983 -171.541137 
L 380.457914 -172.883685 
L 380.810073 -174.226233 
L 381.170546 -175.568781 
L 381.540459 -176.911328 
L 381.920917 -178.253876 
L 382.312941 -179.596424 
L 382.717411 -180.938972 
L 383.13501 -182.281519 
L 383.566178 -183.624067 
L 384.011067 -184.966615 
L 384.469514 -186.309163 
L 384.94102 -187.65171 
L 385.424738 -188.994258 
L 385.919477 -190.336806 
L 386.423717 -191.679354 
L 386.93563 -193.021902 
L 387.453121 -194.364449 
L 387.973864 -195.706997 
L 388.495359 -197.049545 
L 389.014983 -198.392093 
L 389.530053 -199.73464 
L 390.037883 -201.077188 
L 390.535845 -202.419736 
L 391.021422 -203.762284 
L 391.492262 -205.104831 
L 391.946224 -206.447379 
L 392.38141 -207.789927 
L 392.7962 -209.132475 
L 393.189271 -210.475022 
L 393.559608 -211.81757 
L 393.906507 -213.160118 
L 394.229572 -214.502666 
L 394.5287 -215.845213 
L 394.804066 -217.187761 
L 395.056094 -218.530309 
L 395.285437 -219.872857 
L 395.492937 -221.215405 
L 395.6796 -222.557952 
L 398.1204 -222.557952 
L 398.1204 -222.557952 
L 398.307063 -221.215405 
L 398.514563 -219.872857 
L 398.743906 -218.530309 
L 398.995934 -217.187761 
L 399.2713 -215.845213 
L 399.570428 -214.502666 
L 399.893493 -213.160118 
L 400.240392 -211.81757 
L 400.610729 -210.475022 
L 401.0038 -209.132475 
L 401.41859 -207.789927 
L 401.853776 -206.447379 
L 402.307738 -205.104831 
L 402.778578 -203.762284 
L 403.264155 -202.419736 
L 403.762117 -201.077188 
L 404.269947 -199.73464 
L 404.785017 -198.392093 
L 405.304641 -197.049545 
L 405.826136 -195.706997 
L 406.346879 -194.364449 
L 406.86437 -193.021902 
L 407.376283 -191.679354 
L 407.880523 -190.336806 
L 408.375262 -188.994258 
L 408.85898 -187.65171 
L 409.330486 -186.309163 
L 409.788933 -184.966615 
L 410.233822 -183.624067 
L 410.66499 -182.281519 
L 411.082589 -180.938972 
L 411.487059 -179.596424 
L 411.879083 -178.253876 
L 412.259541 -176.911328 
L 412.629454 -175.568781 
L 412.989927 -174.226233 
L 413.342086 -172.883685 
L 413.687017 -171.541137 
L 414.025706 -170.19859 
L 414.358982 -168.856042 
L 414.687462 -167.513494 
L 415.011511 -166.170946 
L 415.331196 -164.828398 
L 415.646259 -163.485851 
L 415.956096 -162.143303 
L 416.259739 -160.800755 
L 416.555853 -159.458207 
L 416.842744 -158.11566 
L 417.11837 -156.773112 
L 417.380363 -155.430564 
L 417.626062 -154.088016 
L 417.852551 -152.745469 
L 418.056707 -151.402921 
L 418.235251 -150.060373 
L 418.384807 -148.717825 
L 418.501969 -147.375278 
L 418.583369 -146.03273 
L 418.625748 -144.690182 
L 418.626025 -143.347634 
L 418.58138 -142.005087 
L 418.489315 -140.662539 
L 418.347729 -139.319991 
L 418.15498 -137.977443 
L 417.90994 -136.634895 
L 417.612043 -135.292348 
L 417.261325 -133.9498 
L 416.858445 -132.607252 
L 416.404705 -131.264704 
L 415.902041 -129.922157 
L 415.353014 -128.579609 
L 414.76078 -127.237061 
L 414.129044 -125.894513 
L 413.462012 -124.551966 
L 412.764313 -123.209418 
L 412.040934 -121.86687 
L 411.297127 -120.524322 
L 410.538323 -119.181775 
L 409.770038 -117.839227 
L 408.99778 -116.496679 
L 408.226954 -115.154131 
L 407.462783 -113.811583 
L 406.710217 -112.469036 
L 405.973872 -111.126488 
L 405.257957 -109.78394 
L 404.566234 -108.441392 
L 403.901973 -107.098845 
L 403.267928 -105.756297 
L 402.666326 -104.413749 
L 402.098862 -103.071201 
L 401.566714 -101.728654 
L 401.070558 -100.386106 
L 400.610603 -99.043558 
L 400.186623 -97.70101 
L 399.798004 -96.358463 
L 399.443788 -95.015915 
L 399.122722 -93.673367 
L 398.833312 -92.330819 
L 398.573871 -90.988272 
L 398.342569 -89.645724 
z
" style="stroke: #3f3f3f; stroke-width: 1.25"/>
    </defs>
    <g clip-path="url(#pdc262f08ee)">
     <use xlink:href="#mc664dde53e" x="0" y="360" style="fill: #3274a1; stroke: #3f3f3f; stroke-width: 1.25"/>
    </g>
   </g>
   <g id="PolyCollection_7">
    <defs>
     <path id="ma5eb6442fa" d="M 454.262785 -88.498594 
L 451.137215 -88.498594 
L 450.889864 -90.229602 
L 450.612989 -91.96061 
L 450.304789 -93.691619 
L 449.963641 -95.422627 
L 449.588164 -97.153635 
L 449.177269 -98.884643 
L 448.730223 -100.615651 
L 448.246703 -102.34666 
L 447.726853 -104.077668 
L 447.171335 -105.808676 
L 446.581368 -107.539684 
L 445.958772 -109.270692 
L 445.305982 -111.001701 
L 444.62607 -112.732709 
L 443.922741 -114.463717 
L 443.200318 -116.194725 
L 442.46371 -117.925733 
L 441.71837 -119.656742 
L 440.970228 -121.38775 
L 440.225616 -123.118758 
L 439.491178 -124.849766 
L 438.773762 -126.580775 
L 438.080311 -128.311783 
L 437.417737 -130.042791 
L 436.792794 -131.773799 
L 436.21195 -133.504807 
L 435.681259 -135.235816 
L 435.206237 -136.966824 
L 434.791746 -138.697832 
L 434.44189 -140.42884 
L 434.159927 -142.159848 
L 433.948194 -143.890857 
L 433.808053 -145.621865 
L 433.739857 -147.352873 
L 433.742941 -149.083881 
L 433.81563 -150.814889 
L 433.955271 -152.545898 
L 434.158292 -154.276906 
L 434.420272 -156.007914 
L 434.736039 -157.738922 
L 435.099776 -159.46993 
L 435.505146 -161.200939 
L 435.945424 -162.931947 
L 436.41364 -164.662955 
L 436.902723 -166.393963 
L 437.405642 -168.124971 
L 437.915552 -169.85598 
L 438.425924 -171.586988 
L 438.930671 -173.317996 
L 439.424255 -175.049004 
L 439.901789 -176.780012 
L 440.359109 -178.511021 
L 440.792831 -180.242029 
L 441.200396 -181.973037 
L 441.580079 -183.704045 
L 441.930989 -185.435053 
L 442.253041 -187.166062 
L 442.546918 -188.89707 
L 442.814004 -190.628078 
L 443.056307 -192.359086 
L 443.276374 -194.090094 
L 443.477185 -195.821103 
L 443.662049 -197.552111 
L 443.834494 -199.283119 
L 443.998149 -201.014127 
L 444.156639 -202.745135 
L 444.313483 -204.476144 
L 444.471993 -206.207152 
L 444.63519 -207.93816 
L 444.805734 -209.669168 
L 444.985864 -211.400176 
L 445.177356 -213.131185 
L 445.381493 -214.862193 
L 445.599057 -216.593201 
L 445.830332 -218.324209 
L 446.075121 -220.055218 
L 446.332777 -221.786226 
L 446.602247 -223.517234 
L 446.882121 -225.248242 
L 447.170693 -226.97925 
L 447.466022 -228.710259 
L 447.765998 -230.441267 
L 448.068407 -232.172275 
L 448.370996 -233.903283 
L 448.671533 -235.634291 
L 448.967858 -237.3653 
L 449.257937 -239.096308 
L 449.5399 -240.827316 
L 449.812074 -242.558324 
L 450.073007 -244.289332 
L 450.321484 -246.020341 
L 450.556539 -247.751349 
L 450.777449 -249.482357 
L 450.983737 -251.213365 
L 451.175153 -252.944373 
L 451.351663 -254.675382 
L 451.513425 -256.40639 
L 451.660771 -258.137398 
L 451.794178 -259.868406 
L 453.605822 -259.868406 
L 453.605822 -259.868406 
L 453.739229 -258.137398 
L 453.886575 -256.40639 
L 454.048337 -254.675382 
L 454.224847 -252.944373 
L 454.416263 -251.213365 
L 454.622551 -249.482357 
L 454.843461 -247.751349 
L 455.078516 -246.020341 
L 455.326993 -244.289332 
L 455.587926 -242.558324 
L 455.8601 -240.827316 
L 456.142063 -239.096308 
L 456.432142 -237.3653 
L 456.728467 -235.634291 
L 457.029004 -233.903283 
L 457.331593 -232.172275 
L 457.634002 -230.441267 
L 457.933978 -228.710259 
L 458.229307 -226.97925 
L 458.517879 -225.248242 
L 458.797753 -223.517234 
L 459.067223 -221.786226 
L 459.324879 -220.055218 
L 459.569668 -218.324209 
L 459.800943 -216.593201 
L 460.018507 -214.862193 
L 460.222644 -213.131185 
L 460.414136 -211.400176 
L 460.594266 -209.669168 
L 460.76481 -207.93816 
L 460.928007 -206.207152 
L 461.086517 -204.476144 
L 461.243361 -202.745135 
L 461.401851 -201.014127 
L 461.565506 -199.283119 
L 461.737951 -197.552111 
L 461.922815 -195.821103 
L 462.123626 -194.090094 
L 462.343693 -192.359086 
L 462.585996 -190.628078 
L 462.853082 -188.89707 
L 463.146959 -187.166062 
L 463.469011 -185.435053 
L 463.819921 -183.704045 
L 464.199604 -181.973037 
L 464.607169 -180.242029 
L 465.040891 -178.511021 
L 465.498211 -176.780012 
L 465.975745 -175.049004 
L 466.469329 -173.317996 
L 466.974076 -171.586988 
L 467.484448 -169.85598 
L 467.994358 -168.124971 
L 468.497277 -166.393963 
L 468.98636 -164.662955 
L 469.454576 -162.931947 
L 469.894854 -161.200939 
L 470.300224 -159.46993 
L 470.663961 -157.738922 
L 470.979728 -156.007914 
L 471.241708 -154.276906 
L 471.444729 -152.545898 
L 471.58437 -150.814889 
L 471.657059 -149.083881 
L 471.660143 -147.352873 
L 471.591947 -145.621865 
L 471.451806 -143.890857 
L 471.240073 -142.159848 
L 470.95811 -140.42884 
L 470.608254 -138.697832 
L 470.193763 -136.966824 
L 469.718741 -135.235816 
L 469.18805 -133.504807 
L 468.607206 -131.773799 
L 467.982263 -130.042791 
L 467.319689 -128.311783 
L 466.626238 -126.580775 
L 465.908822 -124.849766 
L 465.174384 -123.118758 
L 464.429772 -121.38775 
L 463.68163 -119.656742 
L 462.93629 -117.925733 
L 462.199682 -116.194725 
L 461.477259 -114.463717 
L 460.77393 -112.732709 
L 460.094018 -111.001701 
L 459.441228 -109.270692 
L 458.818632 -107.539684 
L 458.228665 -105.808676 
L 457.673147 -104.077668 
L 457.153297 -102.34666 
L 456.669777 -100.615651 
L 456.222731 -98.884643 
L 455.811836 -97.153635 
L 455.436359 -95.422627 
L 455.095211 -93.691619 
L 454.787011 -91.96061 
L 454.510136 -90.229602 
L 454.262785 -88.498594 
z
" style="stroke: #3f3f3f; stroke-width: 1.25"/>
    </defs>
    <g clip-path="url(#pdc262f08ee)">
     <use xlink:href="#ma5eb6442fa" x="0" y="360" style="fill: #3274a1; stroke: #3f3f3f; stroke-width: 1.25"/>
    </g>
   </g>
   <g id="PolyCollection_8">
    <defs>
     <path id="mb147de910f" d="M 510.425874 -86.449815 
L 506.574126 -86.449815 
L 506.301125 -87.926907 
L 506.000408 -89.403999 
L 505.670981 -90.881091 
L 505.312112 -92.358184 
L 504.923377 -93.835276 
L 504.504699 -95.312368 
L 504.056396 -96.78946 
L 503.579212 -98.266553 
L 503.074346 -99.743645 
L 502.543479 -101.220737 
L 501.988779 -102.697829 
L 501.412908 -104.174921 
L 500.819008 -105.652014 
L 500.21068 -107.129106 
L 499.591944 -108.606198 
L 498.967192 -110.08329 
L 498.341123 -111.560382 
L 497.718669 -113.037475 
L 497.104909 -114.514567 
L 496.504972 -115.991659 
L 495.923936 -117.468751 
L 495.366725 -118.945844 
L 494.837997 -120.422936 
L 494.342038 -121.900028 
L 493.882666 -123.37712 
L 493.463135 -124.854212 
L 493.086054 -126.331305 
L 492.75332 -127.808397 
L 492.46607 -129.285489 
L 492.224649 -130.762581 
L 492.028595 -132.239674 
L 491.87666 -133.716766 
L 491.76683 -135.193858 
L 491.696389 -136.67095 
L 491.661986 -138.148042 
L 491.659728 -139.625135 
L 491.685289 -141.102227 
L 491.734026 -142.579319 
L 491.801113 -144.056411 
L 491.881668 -145.533503 
L 491.970894 -147.010596 
L 492.064208 -148.487688 
L 492.157367 -149.96478 
L 492.246583 -151.441872 
L 492.328624 -152.918965 
L 492.400897 -154.396057 
L 492.461515 -155.873149 
L 492.509335 -157.350241 
L 492.543986 -158.827333 
L 492.565863 -160.304426 
L 492.576105 -161.781518 
L 492.576552 -163.25861 
L 492.569679 -164.735702 
L 492.558516 -166.212795 
L 492.546553 -167.689887 
L 492.537632 -169.166979 
L 492.535834 -170.644071 
L 492.545358 -172.121163 
L 492.5704 -173.598256 
L 492.615039 -175.075348 
L 492.683121 -176.55244 
L 492.778158 -178.029532 
L 492.903234 -179.506624 
L 493.06093 -180.983717 
L 493.253258 -182.460809 
L 493.481617 -183.937901 
L 493.746761 -185.414993 
L 494.048787 -186.892086 
L 494.387142 -188.369178 
L 494.760644 -189.84627 
L 495.167512 -191.323362 
L 495.605422 -192.800454 
L 496.071562 -194.277547 
L 496.562702 -195.754639 
L 497.075272 -197.231731 
L 497.60544 -198.708823 
L 498.149194 -200.185915 
L 498.702428 -201.663008 
L 499.261016 -203.1401 
L 499.820896 -204.617192 
L 500.378133 -206.094284 
L 500.928986 -207.571377 
L 501.469963 -209.048469 
L 501.997866 -210.525561 
L 502.509828 -212.002653 
L 503.003337 -213.479745 
L 503.476257 -214.956838 
L 503.926837 -216.43393 
L 504.353704 -217.911022 
L 504.755861 -219.388114 
L 505.132669 -220.865207 
L 505.483826 -222.342299 
L 505.809341 -223.819391 
L 506.109507 -225.296483 
L 506.384864 -226.773575 
L 506.636169 -228.250668 
L 506.864357 -229.72776 
L 507.070515 -231.204852 
L 507.255841 -232.681944 
L 509.744159 -232.681944 
L 509.744159 -232.681944 
L 509.929485 -231.204852 
L 510.135643 -229.72776 
L 510.363831 -228.250668 
L 510.615136 -226.773575 
L 510.890493 -225.296483 
L 511.190659 -223.819391 
L 511.516174 -222.342299 
L 511.867331 -220.865207 
L 512.244139 -219.388114 
L 512.646296 -217.911022 
L 513.073163 -216.43393 
L 513.523743 -214.956838 
L 513.996663 -213.479745 
L 514.490172 -212.002653 
L 515.002134 -210.525561 
L 515.530037 -209.048469 
L 516.071014 -207.571377 
L 516.621867 -206.094284 
L 517.179104 -204.617192 
L 517.738984 -203.1401 
L 518.297572 -201.663008 
L 518.850806 -200.185915 
L 519.39456 -198.708823 
L 519.924728 -197.231731 
L 520.437298 -195.754639 
L 520.928438 -194.277547 
L 521.394578 -192.800454 
L 521.832488 -191.323362 
L 522.239356 -189.84627 
L 522.612858 -188.369178 
L 522.951213 -186.892086 
L 523.253239 -185.414993 
L 523.518383 -183.937901 
L 523.746742 -182.460809 
L 523.93907 -180.983717 
L 524.096766 -179.506624 
L 524.221842 -178.029532 
L 524.316879 -176.55244 
L 524.384961 -175.075348 
L 524.4296 -173.598256 
L 524.454642 -172.121163 
L 524.464166 -170.644071 
L 524.462368 -169.166979 
L 524.453447 -167.689887 
L 524.441484 -166.212795 
L 524.430321 -164.735702 
L 524.423448 -163.25861 
L 524.423895 -161.781518 
L 524.434137 -160.304426 
L 524.456014 -158.827333 
L 524.490665 -157.350241 
L 524.538485 -155.873149 
L 524.599103 -154.396057 
L 524.671376 -152.918965 
L 524.753417 -151.441872 
L 524.842633 -149.96478 
L 524.935792 -148.487688 
L 525.029106 -147.010596 
L 525.118332 -145.533503 
L 525.198887 -144.056411 
L 525.265974 -142.579319 
L 525.314711 -141.102227 
L 525.340272 -139.625135 
L 525.338014 -138.148042 
L 525.303611 -136.67095 
L 525.23317 -135.193858 
L 525.12334 -133.716766 
L 524.971405 -132.239674 
L 524.775351 -130.762581 
L 524.53393 -129.285489 
L 524.24668 -127.808397 
L 523.913946 -126.331305 
L 523.536865 -124.854212 
L 523.117334 -123.37712 
L 522.657962 -121.900028 
L 522.162003 -120.422936 
L 521.633275 -118.945844 
L 521.076064 -117.468751 
L 520.495028 -115.991659 
L 519.895091 -114.514567 
L 519.281331 -113.037475 
L 518.658877 -111.560382 
L 518.032808 -110.08329 
L 517.408056 -108.606198 
L 516.78932 -107.129106 
L 516.180992 -105.652014 
L 515.587092 -104.174921 
L 515.011221 -102.697829 
L 514.456521 -101.220737 
L 513.925654 -99.743645 
L 513.420788 -98.266553 
L 512.943604 -96.78946 
L 512.495301 -95.312368 
L 512.076623 -93.835276 
L 511.687888 -92.358184 
L 511.329019 -90.881091 
L 510.999592 -89.403999 
L 510.698875 -87.926907 
L 510.425874 -86.449815 
z
" style="stroke: #3f3f3f; stroke-width: 1.25"/>
    </defs>
    <g clip-path="url(#pdc262f08ee)">
     <use xlink:href="#mb147de910f" x="0" y="360" style="fill: #3274a1; stroke: #3f3f3f; stroke-width: 1.25"/>
    </g>
   </g>
   <g id="PolyCollection_9">
    <defs>
     <path id="m99a6de7359" d="M 566.038894 -96.526442 
L 562.561106 -96.526442 
L 562.292648 -97.743179 
L 561.993139 -98.959917 
L 561.660815 -100.176655 
L 561.294117 -101.393392 
L 560.891748 -102.61013 
L 560.452731 -103.826868 
L 559.976465 -105.043606 
L 559.462782 -106.260343 
L 558.911998 -107.477081 
L 558.324957 -108.693819 
L 557.703068 -109.910556 
L 557.048334 -111.127294 
L 556.363368 -112.344032 
L 555.651388 -113.560769 
L 554.916211 -114.777507 
L 554.162218 -115.994245 
L 553.394311 -117.210982 
L 552.617846 -118.42772 
L 551.838557 -119.644458 
L 551.06246 -120.861196 
L 550.295748 -122.077933 
L 549.544669 -123.294671 
L 548.815401 -124.511409 
L 548.113925 -125.728146 
L 547.445886 -126.944884 
L 546.81647 -128.161622 
L 546.230282 -129.378359 
L 545.691233 -130.595097 
L 545.202445 -131.811835 
L 544.76618 -133.028572 
L 544.383778 -134.24531 
L 544.055632 -135.462048 
L 543.781181 -136.678786 
L 543.558932 -137.895523 
L 543.386511 -139.112261 
L 543.260732 -140.328999 
L 543.177701 -141.545736 
L 543.13293 -142.762474 
L 543.121475 -143.979212 
L 543.138087 -145.195949 
L 543.177366 -146.412687 
L 543.233928 -147.629425 
L 543.302562 -148.846162 
L 543.378383 -150.0629 
L 543.456977 -151.279638 
L 543.534529 -152.496376 
L 543.607922 -153.713113 
L 543.674831 -154.929851 
L 543.733773 -156.146589 
L 543.784142 -157.363326 
L 543.82621 -158.580064 
L 543.861108 -159.796802 
L 543.890771 -161.013539 
L 543.917866 -162.230277 
L 543.945697 -163.447015 
L 543.978091 -164.663752 
L 544.01927 -165.88049 
L 544.073715 -167.097228 
L 544.146022 -168.313965 
L 544.240761 -169.530703 
L 544.362329 -170.747441 
L 544.514827 -171.964179 
L 544.701929 -173.180916 
L 544.926781 -174.397654 
L 545.191908 -175.614392 
L 545.499143 -176.831129 
L 545.849579 -178.047867 
L 546.243536 -179.264605 
L 546.680556 -180.481342 
L 547.159414 -181.69808 
L 547.67815 -182.914818 
L 548.234122 -184.131555 
L 548.824065 -185.348293 
L 549.444176 -186.565031 
L 550.090199 -187.781769 
L 550.757522 -188.998506 
L 551.441279 -190.215244 
L 552.13645 -191.431982 
L 552.837963 -192.648719 
L 553.540792 -193.865457 
L 554.240047 -195.082195 
L 554.931055 -196.298932 
L 555.609438 -197.51567 
L 556.271171 -198.732408 
L 556.912633 -199.949145 
L 557.530646 -201.165883 
L 558.1225 -202.382621 
L 558.685966 -203.599359 
L 559.219302 -204.816096 
L 559.72124 -206.032834 
L 560.19097 -207.249572 
L 560.628119 -208.466309 
L 561.032712 -209.683047 
L 561.405139 -210.899785 
L 561.746112 -212.116522 
L 562.056622 -213.33326 
L 562.337892 -214.549998 
L 562.591339 -215.766735 
L 562.818521 -216.983473 
L 565.781479 -216.983473 
L 565.781479 -216.983473 
L 566.008661 -215.766735 
L 566.262108 -214.549998 
L 566.543378 -213.33326 
L 566.853888 -212.116522 
L 567.194861 -210.899785 
L 567.567288 -209.683047 
L 567.971881 -208.466309 
L 568.40903 -207.249572 
L 568.87876 -206.032834 
L 569.380698 -204.816096 
L 569.914034 -203.599359 
L 570.4775 -202.382621 
L 571.069354 -201.165883 
L 571.687367 -199.949145 
L 572.328829 -198.732408 
L 572.990562 -197.51567 
L 573.668945 -196.298932 
L 574.359953 -195.082195 
L 575.059208 -193.865457 
L 575.762037 -192.648719 
L 576.46355 -191.431982 
L 577.158721 -190.215244 
L 577.842478 -188.998506 
L 578.509801 -187.781769 
L 579.155824 -186.565031 
L 579.775935 -185.348293 
L 580.365878 -184.131555 
L 580.92185 -182.914818 
L 581.440586 -181.69808 
L 581.919444 -180.481342 
L 582.356464 -179.264605 
L 582.750421 -178.047867 
L 583.100857 -176.831129 
L 583.408092 -175.614392 
L 583.673219 -174.397654 
L 583.898071 -173.180916 
L 584.085173 -171.964179 
L 584.237671 -170.747441 
L 584.359239 -169.530703 
L 584.453978 -168.313965 
L 584.526285 -167.097228 
L 584.58073 -165.88049 
L 584.621909 -164.663752 
L 584.654303 -163.447015 
L 584.682134 -162.230277 
L 584.709229 -161.013539 
L 584.738892 -159.796802 
L 584.77379 -158.580064 
L 584.815858 -157.363326 
L 584.866227 -156.146589 
L 584.925169 -154.929851 
L 584.992078 -153.713113 
L 585.065471 -152.496376 
L 585.143023 -151.279638 
L 585.221617 -150.0629 
L 585.297438 -148.846162 
L 585.366072 -147.629425 
L 585.422634 -146.412687 
L 585.461913 -145.195949 
L 585.478525 -143.979212 
L 585.46707 -142.762474 
L 585.422299 -141.545736 
L 585.339268 -140.328999 
L 585.213489 -139.112261 
L 585.041068 -137.895523 
L 584.818819 -136.678786 
L 584.544368 -135.462048 
L 584.216222 -134.24531 
L 583.83382 -133.028572 
L 583.397555 -131.811835 
L 582.908767 -130.595097 
L 582.369718 -129.378359 
L 581.78353 -128.161622 
L 581.154114 -126.944884 
L 580.486075 -125.728146 
L 579.784599 -124.511409 
L 579.055331 -123.294671 
L 578.304252 -122.077933 
L 577.53754 -120.861196 
L 576.761443 -119.644458 
L 575.982154 -118.42772 
L 575.205689 -117.210982 
L 574.437782 -115.994245 
L 573.683789 -114.777507 
L 572.948612 -113.560769 
L 572.236632 -112.344032 
L 571.551666 -111.127294 
L 570.896932 -109.910556 
L 570.275043 -108.693819 
L 569.688002 -107.477081 
L 569.137218 -106.260343 
L 568.623535 -105.043606 
L 568.147269 -103.826868 
L 567.708252 -102.61013 
L 567.305883 -101.393392 
L 566.939185 -100.176655 
L 566.606861 -98.959917 
L 566.307352 -97.743179 
L 566.038894 -96.526442 
z
" style="stroke: #3f3f3f; stroke-width: 1.25"/>
    </defs>
    <g clip-path="url(#pdc262f08ee)">
     <use xlink:href="#m99a6de7359" x="0" y="360" style="fill: #3274a1; stroke: #3f3f3f; stroke-width: 1.25"/>
    </g>
   </g>
   <g id="PolyCollection_10">
    <defs>
     <path id="m4768883766" d="M 621.907368 -99.095613 
L 618.292632 -99.095613 
L 618.013703 -100.337535 
L 617.702677 -101.579457 
L 617.357792 -102.821378 
L 616.977507 -104.0633 
L 616.560571 -105.305222 
L 616.106075 -106.547144 
L 615.613517 -107.789066 
L 615.082855 -109.030988 
L 614.51456 -110.272909 
L 613.909659 -111.514831 
L 613.269771 -112.756753 
L 612.597131 -113.998675 
L 611.894602 -115.240597 
L 611.16567 -116.482518 
L 610.414424 -117.72444 
L 609.645519 -118.966362 
L 608.864123 -120.208284 
L 608.075847 -121.450206 
L 607.286654 -122.692128 
L 606.502762 -123.934049 
L 605.730524 -125.175971 
L 604.976312 -126.417893 
L 604.24638 -127.659815 
L 603.54673 -128.901737 
L 602.882988 -130.143658 
L 602.260267 -131.38558 
L 601.683058 -132.627502 
L 601.155119 -133.869424 
L 600.679396 -135.111346 
L 600.25795 -136.353268 
L 599.891918 -137.595189 
L 599.581494 -138.837111 
L 599.325937 -140.079033 
L 599.123607 -141.320955 
L 598.972021 -142.562877 
L 598.867938 -143.804799 
L 598.807469 -145.04672 
L 598.78619 -146.288642 
L 598.799288 -147.530564 
L 598.841702 -148.772486 
L 598.908277 -150.014408 
L 598.993915 -151.256329 
L 599.093721 -152.498251 
L 599.203141 -153.740173 
L 599.318084 -154.982095 
L 599.435032 -156.224017 
L 599.551123 -157.465939 
L 599.664214 -158.70786 
L 599.772923 -159.949782 
L 599.876643 -161.191704 
L 599.975532 -162.433626 
L 600.070482 -163.675548 
L 600.163063 -164.91747 
L 600.255453 -166.159391 
L 600.350342 -167.401313 
L 600.45084 -168.643235 
L 600.560354 -169.885157 
L 600.682481 -171.127079 
L 600.820878 -172.369 
L 600.979155 -173.610922 
L 601.160752 -174.852844 
L 601.368839 -176.094766 
L 601.606221 -177.336688 
L 601.875253 -178.57861 
L 602.177776 -179.820531 
L 602.515061 -181.062453 
L 602.887774 -182.304375 
L 603.295959 -183.546297 
L 603.739035 -184.788219 
L 604.215806 -186.030141 
L 604.724489 -187.272062 
L 605.26276 -188.513984 
L 605.827801 -189.755906 
L 606.416366 -190.997828 
L 607.024849 -192.23975 
L 607.649364 -193.481671 
L 608.28582 -194.723593 
L 608.930006 -195.965515 
L 609.577671 -197.207437 
L 610.224598 -198.449359 
L 610.866683 -199.691281 
L 611.499999 -200.933202 
L 612.120857 -202.175124 
L 612.725859 -203.417046 
L 613.311937 -204.658968 
L 613.876393 -205.90089 
L 614.416914 -207.142811 
L 614.931595 -208.384733 
L 615.418935 -209.626655 
L 615.87784 -210.868577 
L 616.307605 -212.110499 
L 616.707898 -213.352421 
L 617.078736 -214.594342 
L 617.42045 -215.836264 
L 617.733659 -217.078186 
L 618.019224 -218.320108 
L 618.278221 -219.56203 
L 618.511895 -220.803952 
L 618.721626 -222.045873 
L 621.478374 -222.045873 
L 621.478374 -222.045873 
L 621.688105 -220.803952 
L 621.921779 -219.56203 
L 622.180776 -218.320108 
L 622.466341 -217.078186 
L 622.77955 -215.836264 
L 623.121264 -214.594342 
L 623.492102 -213.352421 
L 623.892395 -212.110499 
L 624.32216 -210.868577 
L 624.781065 -209.626655 
L 625.268405 -208.384733 
L 625.783086 -207.142811 
L 626.323607 -205.90089 
L 626.888063 -204.658968 
L 627.474141 -203.417046 
L 628.079143 -202.175124 
L 628.700001 -200.933202 
L 629.333317 -199.691281 
L 629.975402 -198.449359 
L 630.622329 -197.207437 
L 631.269994 -195.965515 
L 631.91418 -194.723593 
L 632.550636 -193.481671 
L 633.175151 -192.23975 
L 633.783634 -190.997828 
L 634.372199 -189.755906 
L 634.93724 -188.513984 
L 635.475511 -187.272062 
L 635.984194 -186.030141 
L 636.460965 -184.788219 
L 636.904041 -183.546297 
L 637.312226 -182.304375 
L 637.684939 -181.062453 
L 638.022224 -179.820531 
L 638.324747 -178.57861 
L 638.593779 -177.336688 
L 638.831161 -176.094766 
L 639.039248 -174.852844 
L 639.220845 -173.610922 
L 639.379122 -172.369 
L 639.517519 -171.127079 
L 639.639646 -169.885157 
L 639.74916 -168.643235 
L 639.849658 -167.401313 
L 639.944547 -166.159391 
L 640.036937 -164.91747 
L 640.129518 -163.675548 
L 640.224468 -162.433626 
L 640.323357 -161.191704 
L 640.427077 -159.949782 
L 640.535786 -158.70786 
L 640.648877 -157.465939 
L 640.764968 -156.224017 
L 640.881916 -154.982095 
L 640.996859 -153.740173 
L 641.106279 -152.498251 
L 641.206085 -151.256329 
L 641.291723 -150.014408 
L 641.358298 -148.772486 
L 641.400712 -147.530564 
L 641.41381 -146.288642 
L 641.392531 -145.04672 
L 641.332062 -143.804799 
L 641.227979 -142.562877 
L 641.076393 -141.320955 
L 640.874063 -140.079033 
L 640.618506 -138.837111 
L 640.308082 -137.595189 
L 639.94205 -136.353268 
L 639.520604 -135.111346 
L 639.044881 -133.869424 
L 638.516942 -132.627502 
L 637.939733 -131.38558 
L 637.317012 -130.143658 
L 636.65327 -128.901737 
L 635.95362 -127.659815 
L 635.223688 -126.417893 
L 634.469476 -125.175971 
L 633.697238 -123.934049 
L 632.913346 -122.692128 
L 632.124153 -121.450206 
L 631.335877 -120.208284 
L 630.554481 -118.966362 
L 629.785576 -117.72444 
L 629.03433 -116.482518 
L 628.305398 -115.240597 
L 627.602869 -113.998675 
L 626.930229 -112.756753 
L 626.290341 -111.514831 
L 625.68544 -110.272909 
L 625.117145 -109.030988 
L 624.586483 -107.789066 
L 624.093925 -106.547144 
L 623.639429 -105.305222 
L 623.222493 -104.0633 
L 622.842208 -102.821378 
L 622.497323 -101.579457 
L 622.186297 -100.337535 
L 621.907368 -99.095613 
z
" style="stroke: #3f3f3f; stroke-width: 1.25"/>
    </defs>
    <g clip-path="url(#pdc262f08ee)">
     <use xlink:href="#m4768883766" x="0" y="360" style="fill: #3274a1; stroke: #3f3f3f; stroke-width: 1.25"/>
    </g>
   </g>
   <g id="matplotlib.axis_1">
    <g id="xtick_1">
     <g id="line2d_1">
      <defs>
       <path id="m0bb701cc70" d="M 0 0 
L 0 3.5 
" style="stroke: #000000; stroke-width: 0.8"/>
      </defs>
      <g>
       <use xlink:href="#m0bb701cc70" x="117.9" y="320.4" style="stroke: #000000; stroke-width: 0.8"/>
      </g>
     </g>
     <g id="text_1">
      <!-- 746.6023 -->
      <g transform="translate(94.042188 334.998438) scale(0.1 -0.1)">
       <defs>
        <path id="DejaVuSans-37" d="M 525 4666 
L 3525 4666 
L 3525 4397 
L 1831 0 
L 1172 0 
L 2766 4134 
L 525 4134 
L 525 4666 
z
" transform="scale(0.015625)"/>
        <path id="DejaVuSans-34" d="M 2419 4116 
L 825 1625 
L 2419 1625 
L 2419 4116 
z
M 2253 4666 
L 3047 4666 
L 3047 1625 
L 3713 1625 
L 3713 1100 
L 3047 1100 
L 3047 0 
L 2419 0 
L 2419 1100 
L 313 1100 
L 313 1709 
L 2253 4666 
z
" transform="scale(0.015625)"/>
        <path id="DejaVuSans-36" d="M 2113 2584 
Q 1688 2584 1439 2293 
Q 1191 2003 1191 1497 
Q 1191 994 1439 701 
Q 1688 409 2113 409 
Q 2538 409 2786 701 
Q 3034 994 3034 1497 
Q 3034 2003 2786 2293 
Q 2538 2584 2113 2584 
z
M 3366 4563 
L 3366 3988 
Q 3128 4100 2886 4159 
Q 2644 4219 2406 4219 
Q 1781 4219 1451 3797 
Q 1122 3375 1075 2522 
Q 1259 2794 1537 2939 
Q 1816 3084 2150 3084 
Q 2853 3084 3261 2657 
Q 3669 2231 3669 1497 
Q 3669 778 3244 343 
Q 2819 -91 2113 -91 
Q 1303 -91 875 529 
Q 447 1150 447 2328 
Q 447 3434 972 4092 
Q 1497 4750 2381 4750 
Q 2619 4750 2861 4703 
Q 3103 4656 3366 4563 
z
" transform="scale(0.015625)"/>
        <path id="DejaVuSans-2e" d="M 684 794 
L 1344 794 
L 1344 0 
L 684 0 
L 684 794 
z
" transform="scale(0.015625)"/>
        <path id="DejaVuSans-30" d="M 2034 4250 
Q 1547 4250 1301 3770 
Q 1056 3291 1056 2328 
Q 1056 1369 1301 889 
Q 1547 409 2034 409 
Q 2525 409 2770 889 
Q 3016 1369 3016 2328 
Q 3016 3291 2770 3770 
Q 2525 4250 2034 4250 
z
M 2034 4750 
Q 2819 4750 3233 4129 
Q 3647 3509 3647 2328 
Q 3647 1150 3233 529 
Q 2819 -91 2034 -91 
Q 1250 -91 836 529 
Q 422 1150 422 2328 
Q 422 3509 836 4129 
Q 1250 4750 2034 4750 
z
" transform="scale(0.015625)"/>
        <path id="DejaVuSans-32" d="M 1228 531 
L 3431 531 
L 3431 0 
L 469 0 
L 469 531 
Q 828 903 1448 1529 
Q 2069 2156 2228 2338 
Q 2531 2678 2651 2914 
Q 2772 3150 2772 3378 
Q 2772 3750 2511 3984 
Q 2250 4219 1831 4219 
Q 1534 4219 1204 4116 
Q 875 4013 500 3803 
L 500 4441 
Q 881 4594 1212 4672 
Q 1544 4750 1819 4750 
Q 2544 4750 2975 4387 
Q 3406 4025 3406 3419 
Q 3406 3131 3298 2873 
Q 3191 2616 2906 2266 
Q 2828 2175 2409 1742 
Q 1991 1309 1228 531 
z
" transform="scale(0.015625)"/>
        <path id="DejaVuSans-33" d="M 2597 2516 
Q 3050 2419 3304 2112 
Q 3559 1806 3559 1356 
Q 3559 666 3084 287 
Q 2609 -91 1734 -91 
Q 1441 -91 1130 -33 
Q 819 25 488 141 
L 488 750 
Q 750 597 1062 519 
Q 1375 441 1716 441 
Q 2309 441 2620 675 
Q 2931 909 2931 1356 
Q 2931 1769 2642 2001 
Q 2353 2234 1838 2234 
L 1294 2234 
L 1294 2753 
L 1863 2753 
Q 2328 2753 2575 2939 
Q 2822 3125 2822 3475 
Q 2822 3834 2567 4026 
Q 2313 4219 1838 4219 
Q 1578 4219 1281 4162 
Q 984 4106 628 3988 
L 628 4550 
Q 988 4650 1302 4700 
Q 1616 4750 1894 4750 
Q 2613 4750 3031 4423 
Q 3450 4097 3450 3541 
Q 3450 3153 3228 2886 
Q 3006 2619 2597 2516 
z
" transform="scale(0.015625)"/>
       </defs>
       <use xlink:href="#DejaVuSans-37"/>
       <use xlink:href="#DejaVuSans-34" x="63.623047"/>
       <use xlink:href="#DejaVuSans-36" x="127.246094"/>
       <use xlink:href="#DejaVuSans-2e" x="190.869141"/>
       <use xlink:href="#DejaVuSans-36" x="222.65625"/>
       <use xlink:href="#DejaVuSans-30" x="286.279297"/>
       <use xlink:href="#DejaVuSans-32" x="349.902344"/>
       <use xlink:href="#DejaVuSans-33" x="413.525391"/>
      </g>
     </g>
    </g>
    <g id="xtick_2">
     <g id="line2d_2">
      <g>
       <use xlink:href="#m0bb701cc70" x="173.7" y="320.4" style="stroke: #000000; stroke-width: 0.8"/>
      </g>
     </g>
     <g id="text_2">
      <!-- 758.5668 -->
      <g transform="translate(149.842188 334.998438) scale(0.1 -0.1)">
       <defs>
        <path id="DejaVuSans-35" d="M 691 4666 
L 3169 4666 
L 3169 4134 
L 1269 4134 
L 1269 2991 
Q 1406 3038 1543 3061 
Q 1681 3084 1819 3084 
Q 2600 3084 3056 2656 
Q 3513 2228 3513 1497 
Q 3513 744 3044 326 
Q 2575 -91 1722 -91 
Q 1428 -91 1123 -41 
Q 819 9 494 109 
L 494 744 
Q 775 591 1075 516 
Q 1375 441 1709 441 
Q 2250 441 2565 725 
Q 2881 1009 2881 1497 
Q 2881 1984 2565 2268 
Q 2250 2553 1709 2553 
Q 1456 2553 1204 2497 
Q 953 2441 691 2322 
L 691 4666 
z
" transform="scale(0.015625)"/>
        <path id="DejaVuSans-38" d="M 2034 2216 
Q 1584 2216 1326 1975 
Q 1069 1734 1069 1313 
Q 1069 891 1326 650 
Q 1584 409 2034 409 
Q 2484 409 2743 651 
Q 3003 894 3003 1313 
Q 3003 1734 2745 1975 
Q 2488 2216 2034 2216 
z
M 1403 2484 
Q 997 2584 770 2862 
Q 544 3141 544 3541 
Q 544 4100 942 4425 
Q 1341 4750 2034 4750 
Q 2731 4750 3128 4425 
Q 3525 4100 3525 3541 
Q 3525 3141 3298 2862 
Q 3072 2584 2669 2484 
Q 3125 2378 3379 2068 
Q 3634 1759 3634 1313 
Q 3634 634 3220 271 
Q 2806 -91 2034 -91 
Q 1263 -91 848 271 
Q 434 634 434 1313 
Q 434 1759 690 2068 
Q 947 2378 1403 2484 
z
M 1172 3481 
Q 1172 3119 1398 2916 
Q 1625 2713 2034 2713 
Q 2441 2713 2670 2916 
Q 2900 3119 2900 3481 
Q 2900 3844 2670 4047 
Q 2441 4250 2034 4250 
Q 1625 4250 1398 4047 
Q 1172 3844 1172 3481 
z
" transform="scale(0.015625)"/>
       </defs>
       <use xlink:href="#DejaVuSans-37"/>
       <use xlink:href="#DejaVuSans-35" x="63.623047"/>
       <use xlink:href="#DejaVuSans-38" x="127.246094"/>
       <use xlink:href="#DejaVuSans-2e" x="190.869141"/>
       <use xlink:href="#DejaVuSans-35" x="222.65625"/>
       <use xlink:href="#DejaVuSans-36" x="286.279297"/>
       <use xlink:href="#DejaVuSans-36" x="349.902344"/>
       <use xlink:href="#DejaVuSans-38" x="413.525391"/>
      </g>
     </g>
    </g>
    <g id="xtick_3">
     <g id="line2d_3">
      <g>
       <use xlink:href="#m0bb701cc70" x="229.5" y="320.4" style="stroke: #000000; stroke-width: 0.8"/>
      </g>
     </g>
     <g id="text_3">
      <!-- 768.5863 -->
      <g transform="translate(205.642188 334.998438) scale(0.1 -0.1)">
       <use xlink:href="#DejaVuSans-37"/>
       <use xlink:href="#DejaVuSans-36" x="63.623047"/>
       <use xlink:href="#DejaVuSans-38" x="127.246094"/>
       <use xlink:href="#DejaVuSans-2e" x="190.869141"/>
       <use xlink:href="#DejaVuSans-35" x="222.65625"/>
       <use xlink:href="#DejaVuSans-38" x="286.279297"/>
       <use xlink:href="#DejaVuSans-36" x="349.902344"/>
       <use xlink:href="#DejaVuSans-33" x="413.525391"/>
      </g>
     </g>
    </g>
    <g id="xtick_4">
     <g id="line2d_4">
      <g>
       <use xlink:href="#m0bb701cc70" x="285.3" y="320.4" style="stroke: #000000; stroke-width: 0.8"/>
      </g>
     </g>
     <g id="text_4">
      <!-- 780.5508 -->
      <g transform="translate(261.442187 334.998438) scale(0.1 -0.1)">
       <use xlink:href="#DejaVuSans-37"/>
       <use xlink:href="#DejaVuSans-38" x="63.623047"/>
       <use xlink:href="#DejaVuSans-30" x="127.246094"/>
       <use xlink:href="#DejaVuSans-2e" x="190.869141"/>
       <use xlink:href="#DejaVuSans-35" x="222.65625"/>
       <use xlink:href="#DejaVuSans-35" x="286.279297"/>
       <use xlink:href="#DejaVuSans-30" x="349.902344"/>
       <use xlink:href="#DejaVuSans-38" x="413.525391"/>
      </g>
     </g>
    </g>
    <g id="xtick_5">
     <g id="line2d_5">
      <g>
       <use xlink:href="#m0bb701cc70" x="341.1" y="320.4" style="stroke: #000000; stroke-width: 0.8"/>
      </g>
     </g>
     <g id="text_5">
      <!-- 782.5656 -->
      <g transform="translate(317.242188 334.998438) scale(0.1 -0.1)">
       <use xlink:href="#DejaVuSans-37"/>
       <use xlink:href="#DejaVuSans-38" x="63.623047"/>
       <use xlink:href="#DejaVuSans-32" x="127.246094"/>
       <use xlink:href="#DejaVuSans-2e" x="190.869141"/>
       <use xlink:href="#DejaVuSans-35" x="222.65625"/>
       <use xlink:href="#DejaVuSans-36" x="286.279297"/>
       <use xlink:href="#DejaVuSans-35" x="349.902344"/>
       <use xlink:href="#DejaVuSans-36" x="413.525391"/>
      </g>
     </g>
    </g>
    <g id="xtick_6">
     <g id="line2d_6">
      <g>
       <use xlink:href="#m0bb701cc70" x="396.9" y="320.4" style="stroke: #000000; stroke-width: 0.8"/>
      </g>
     </g>
     <g id="text_6">
      <!-- 786.6004 -->
      <g transform="translate(373.042187 334.998438) scale(0.1 -0.1)">
       <use xlink:href="#DejaVuSans-37"/>
       <use xlink:href="#DejaVuSans-38" x="63.623047"/>
       <use xlink:href="#DejaVuSans-36" x="127.246094"/>
       <use xlink:href="#DejaVuSans-2e" x="190.869141"/>
       <use xlink:href="#DejaVuSans-36" x="222.65625"/>
       <use xlink:href="#DejaVuSans-30" x="286.279297"/>
       <use xlink:href="#DejaVuSans-30" x="349.902344"/>
       <use xlink:href="#DejaVuSans-34" x="413.525391"/>
      </g>
     </g>
    </g>
    <g id="xtick_7">
     <g id="line2d_7">
      <g>
       <use xlink:href="#m0bb701cc70" x="452.7" y="320.4" style="stroke: #000000; stroke-width: 0.8"/>
      </g>
     </g>
     <g id="text_7">
      <!-- 796.525 -->
      <g transform="translate(432.023438 334.998438) scale(0.1 -0.1)">
       <defs>
        <path id="DejaVuSans-39" d="M 703 97 
L 703 672 
Q 941 559 1184 500 
Q 1428 441 1663 441 
Q 2288 441 2617 861 
Q 2947 1281 2994 2138 
Q 2813 1869 2534 1725 
Q 2256 1581 1919 1581 
Q 1219 1581 811 2004 
Q 403 2428 403 3163 
Q 403 3881 828 4315 
Q 1253 4750 1959 4750 
Q 2769 4750 3195 4129 
Q 3622 3509 3622 2328 
Q 3622 1225 3098 567 
Q 2575 -91 1691 -91 
Q 1453 -91 1209 -44 
Q 966 3 703 97 
z
M 1959 2075 
Q 2384 2075 2632 2365 
Q 2881 2656 2881 3163 
Q 2881 3666 2632 3958 
Q 2384 4250 1959 4250 
Q 1534 4250 1286 3958 
Q 1038 3666 1038 3163 
Q 1038 2656 1286 2365 
Q 1534 2075 1959 2075 
z
" transform="scale(0.015625)"/>
       </defs>
       <use xlink:href="#DejaVuSans-37"/>
       <use xlink:href="#DejaVuSans-39" x="63.623047"/>
       <use xlink:href="#DejaVuSans-36" x="127.246094"/>
       <use xlink:href="#DejaVuSans-2e" x="190.869141"/>
       <use xlink:href="#DejaVuSans-35" x="222.65625"/>
       <use xlink:href="#DejaVuSans-32" x="286.279297"/>
       <use xlink:href="#DejaVuSans-35" x="349.902344"/>
      </g>
     </g>
    </g>
    <g id="xtick_8">
     <g id="line2d_8">
      <g>
       <use xlink:href="#m0bb701cc70" x="508.5" y="320.4" style="stroke: #000000; stroke-width: 0.8"/>
      </g>
     </g>
     <g id="text_8">
      <!-- 798.54 -->
      <g transform="translate(491.004687 334.998438) scale(0.1 -0.1)">
       <use xlink:href="#DejaVuSans-37"/>
       <use xlink:href="#DejaVuSans-39" x="63.623047"/>
       <use xlink:href="#DejaVuSans-38" x="127.246094"/>
       <use xlink:href="#DejaVuSans-2e" x="190.869141"/>
       <use xlink:href="#DejaVuSans-35" x="222.65625"/>
       <use xlink:href="#DejaVuSans-34" x="286.279297"/>
      </g>
     </g>
    </g>
    <g id="xtick_9">
     <g id="line2d_9">
      <g>
       <use xlink:href="#m0bb701cc70" x="564.3" y="320.4" style="stroke: #000000; stroke-width: 0.8"/>
      </g>
     </g>
     <g id="text_9">
      <!-- 808.5794 -->
      <g transform="translate(540.442188 334.998438) scale(0.1 -0.1)">
       <use xlink:href="#DejaVuSans-38"/>
       <use xlink:href="#DejaVuSans-30" x="63.623047"/>
       <use xlink:href="#DejaVuSans-38" x="127.246094"/>
       <use xlink:href="#DejaVuSans-2e" x="190.869141"/>
       <use xlink:href="#DejaVuSans-35" x="222.65625"/>
       <use xlink:href="#DejaVuSans-37" x="286.279297"/>
       <use xlink:href="#DejaVuSans-39" x="349.902344"/>
       <use xlink:href="#DejaVuSans-34" x="413.525391"/>
      </g>
     </g>
    </g>
    <g id="xtick_10">
     <g id="line2d_10">
      <g>
       <use xlink:href="#m0bb701cc70" x="620.1" y="320.4" style="stroke: #000000; stroke-width: 0.8"/>
      </g>
     </g>
     <g id="text_10">
      <!-- 824.5538 -->
      <g transform="translate(596.242188 334.998438) scale(0.1 -0.1)">
       <use xlink:href="#DejaVuSans-38"/>
       <use xlink:href="#DejaVuSans-32" x="63.623047"/>
       <use xlink:href="#DejaVuSans-34" x="127.246094"/>
       <use xlink:href="#DejaVuSans-2e" x="190.869141"/>
       <use xlink:href="#DejaVuSans-35" x="222.65625"/>
       <use xlink:href="#DejaVuSans-35" x="286.279297"/>
       <use xlink:href="#DejaVuSans-33" x="349.902344"/>
       <use xlink:href="#DejaVuSans-38" x="413.525391"/>
      </g>
     </g>
    </g>
    <g id="text_11">
     <!-- m/z values -->
     <g transform="translate(341.969531 348.676562) scale(0.1 -0.1)">
      <defs>
       <path id="DejaVuSans-6d" d="M 3328 2828 
Q 3544 3216 3844 3400 
Q 4144 3584 4550 3584 
Q 5097 3584 5394 3201 
Q 5691 2819 5691 2113 
L 5691 0 
L 5113 0 
L 5113 2094 
Q 5113 2597 4934 2840 
Q 4756 3084 4391 3084 
Q 3944 3084 3684 2787 
Q 3425 2491 3425 1978 
L 3425 0 
L 2847 0 
L 2847 2094 
Q 2847 2600 2669 2842 
Q 2491 3084 2119 3084 
Q 1678 3084 1418 2786 
Q 1159 2488 1159 1978 
L 1159 0 
L 581 0 
L 581 3500 
L 1159 3500 
L 1159 2956 
Q 1356 3278 1631 3431 
Q 1906 3584 2284 3584 
Q 2666 3584 2933 3390 
Q 3200 3197 3328 2828 
z
" transform="scale(0.015625)"/>
       <path id="DejaVuSans-2f" d="M 1625 4666 
L 2156 4666 
L 531 -594 
L 0 -594 
L 1625 4666 
z
" transform="scale(0.015625)"/>
       <path id="DejaVuSans-7a" d="M 353 3500 
L 3084 3500 
L 3084 2975 
L 922 459 
L 3084 459 
L 3084 0 
L 275 0 
L 275 525 
L 2438 3041 
L 353 3041 
L 353 3500 
z
" transform="scale(0.015625)"/>
       <path id="DejaVuSans-20" transform="scale(0.015625)"/>
       <path id="DejaVuSans-76" d="M 191 3500 
L 800 3500 
L 1894 563 
L 2988 3500 
L 3597 3500 
L 2284 0 
L 1503 0 
L 191 3500 
z
" transform="scale(0.015625)"/>
       <path id="DejaVuSans-61" d="M 2194 1759 
Q 1497 1759 1228 1600 
Q 959 1441 959 1056 
Q 959 750 1161 570 
Q 1363 391 1709 391 
Q 2188 391 2477 730 
Q 2766 1069 2766 1631 
L 2766 1759 
L 2194 1759 
z
M 3341 1997 
L 3341 0 
L 2766 0 
L 2766 531 
Q 2569 213 2275 61 
Q 1981 -91 1556 -91 
Q 1019 -91 701 211 
Q 384 513 384 1019 
Q 384 1609 779 1909 
Q 1175 2209 1959 2209 
L 2766 2209 
L 2766 2266 
Q 2766 2663 2505 2880 
Q 2244 3097 1772 3097 
Q 1472 3097 1187 3025 
Q 903 2953 641 2809 
L 641 3341 
Q 956 3463 1253 3523 
Q 1550 3584 1831 3584 
Q 2591 3584 2966 3190 
Q 3341 2797 3341 1997 
z
" transform="scale(0.015625)"/>
       <path id="DejaVuSans-6c" d="M 603 4863 
L 1178 4863 
L 1178 0 
L 603 0 
L 603 4863 
z
" transform="scale(0.015625)"/>
       <path id="DejaVuSans-75" d="M 544 1381 
L 544 3500 
L 1119 3500 
L 1119 1403 
Q 1119 906 1312 657 
Q 1506 409 1894 409 
Q 2359 409 2629 706 
Q 2900 1003 2900 1516 
L 2900 3500 
L 3475 3500 
L 3475 0 
L 2900 0 
L 2900 538 
Q 2691 219 2414 64 
Q 2138 -91 1772 -91 
Q 1169 -91 856 284 
Q 544 659 544 1381 
z
M 1991 3584 
L 1991 3584 
z
" transform="scale(0.015625)"/>
       <path id="DejaVuSans-65" d="M 3597 1894 
L 3597 1613 
L 953 1613 
Q 991 1019 1311 708 
Q 1631 397 2203 397 
Q 2534 397 2845 478 
Q 3156 559 3463 722 
L 3463 178 
Q 3153 47 2828 -22 
Q 2503 -91 2169 -91 
Q 1331 -91 842 396 
Q 353 884 353 1716 
Q 353 2575 817 3079 
Q 1281 3584 2069 3584 
Q 2775 3584 3186 3129 
Q 3597 2675 3597 1894 
z
M 3022 2063 
Q 3016 2534 2758 2815 
Q 2500 3097 2075 3097 
Q 1594 3097 1305 2825 
Q 1016 2553 972 2059 
L 3022 2063 
z
" transform="scale(0.015625)"/>
       <path id="DejaVuSans-73" d="M 2834 3397 
L 2834 2853 
Q 2591 2978 2328 3040 
Q 2066 3103 1784 3103 
Q 1356 3103 1142 2972 
Q 928 2841 928 2578 
Q 928 2378 1081 2264 
Q 1234 2150 1697 2047 
L 1894 2003 
Q 2506 1872 2764 1633 
Q 3022 1394 3022 966 
Q 3022 478 2636 193 
Q 2250 -91 1575 -91 
Q 1294 -91 989 -36 
Q 684 19 347 128 
L 347 722 
Q 666 556 975 473 
Q 1284 391 1588 391 
Q 1994 391 2212 530 
Q 2431 669 2431 922 
Q 2431 1156 2273 1281 
Q 2116 1406 1581 1522 
L 1381 1569 
Q 847 1681 609 1914 
Q 372 2147 372 2553 
Q 372 3047 722 3315 
Q 1072 3584 1716 3584 
Q 2034 3584 2315 3537 
Q 2597 3491 2834 3397 
z
" transform="scale(0.015625)"/>
      </defs>
      <use xlink:href="#DejaVuSans-6d"/>
      <use xlink:href="#DejaVuSans-2f" x="97.412109"/>
      <use xlink:href="#DejaVuSans-7a" x="131.103516"/>
      <use xlink:href="#DejaVuSans-20" x="183.59375"/>
      <use xlink:href="#DejaVuSans-76" x="215.380859"/>
      <use xlink:href="#DejaVuSans-61" x="274.560547"/>
      <use xlink:href="#DejaVuSans-6c" x="335.839844"/>
      <use xlink:href="#DejaVuSans-75" x="363.623047"/>
      <use xlink:href="#DejaVuSans-65" x="427.001953"/>
      <use xlink:href="#DejaVuSans-73" x="488.525391"/>
     </g>
    </g>
   </g>
   <g id="matplotlib.axis_2">
    <g id="ytick_1">
     <g id="line2d_11">
      <defs>
       <path id="m419f24b8e0" d="M 0 0 
L -3.5 0 
" style="stroke: #000000; stroke-width: 0.8"/>
      </defs>
      <g>
       <use xlink:href="#m419f24b8e0" x="90" y="282.955086" style="stroke: #000000; stroke-width: 0.8"/>
      </g>
     </g>
     <g id="text_12">
      <!-- 0.05 -->
      <g transform="translate(60.734375 286.754305) scale(0.1 -0.1)">
       <use xlink:href="#DejaVuSans-30"/>
       <use xlink:href="#DejaVuSans-2e" x="63.623047"/>
       <use xlink:href="#DejaVuSans-30" x="95.410156"/>
       <use xlink:href="#DejaVuSans-35" x="159.033203"/>
      </g>
     </g>
    </g>
    <g id="ytick_2">
     <g id="line2d_12">
      <g>
       <use xlink:href="#m419f24b8e0" x="90" y="237.153952" style="stroke: #000000; stroke-width: 0.8"/>
      </g>
     </g>
     <g id="text_13">
      <!-- 0.10 -->
      <g transform="translate(60.734375 240.953171) scale(0.1 -0.1)">
       <defs>
        <path id="DejaVuSans-31" d="M 794 531 
L 1825 531 
L 1825 4091 
L 703 3866 
L 703 4441 
L 1819 4666 
L 2450 4666 
L 2450 531 
L 3481 531 
L 3481 0 
L 794 0 
L 794 531 
z
" transform="scale(0.015625)"/>
       </defs>
       <use xlink:href="#DejaVuSans-30"/>
       <use xlink:href="#DejaVuSans-2e" x="63.623047"/>
       <use xlink:href="#DejaVuSans-31" x="95.410156"/>
       <use xlink:href="#DejaVuSans-30" x="159.033203"/>
      </g>
     </g>
    </g>
    <g id="ytick_3">
     <g id="line2d_13">
      <g>
       <use xlink:href="#m419f24b8e0" x="90" y="191.352818" style="stroke: #000000; stroke-width: 0.8"/>
      </g>
     </g>
     <g id="text_14">
      <!-- 0.15 -->
      <g transform="translate(60.734375 195.152037) scale(0.1 -0.1)">
       <use xlink:href="#DejaVuSans-30"/>
       <use xlink:href="#DejaVuSans-2e" x="63.623047"/>
       <use xlink:href="#DejaVuSans-31" x="95.410156"/>
       <use xlink:href="#DejaVuSans-35" x="159.033203"/>
      </g>
     </g>
    </g>
    <g id="ytick_4">
     <g id="line2d_14">
      <g>
       <use xlink:href="#m419f24b8e0" x="90" y="145.551684" style="stroke: #000000; stroke-width: 0.8"/>
      </g>
     </g>
     <g id="text_15">
      <!-- 0.20 -->
      <g transform="translate(60.734375 149.350903) scale(0.1 -0.1)">
       <use xlink:href="#DejaVuSans-30"/>
       <use xlink:href="#DejaVuSans-2e" x="63.623047"/>
       <use xlink:href="#DejaVuSans-32" x="95.410156"/>
       <use xlink:href="#DejaVuSans-30" x="159.033203"/>
      </g>
     </g>
    </g>
    <g id="ytick_5">
     <g id="line2d_15">
      <g>
       <use xlink:href="#m419f24b8e0" x="90" y="99.75055" style="stroke: #000000; stroke-width: 0.8"/>
      </g>
     </g>
     <g id="text_16">
      <!-- 0.25 -->
      <g transform="translate(60.734375 103.549769) scale(0.1 -0.1)">
       <use xlink:href="#DejaVuSans-30"/>
       <use xlink:href="#DejaVuSans-2e" x="63.623047"/>
       <use xlink:href="#DejaVuSans-32" x="95.410156"/>
       <use xlink:href="#DejaVuSans-35" x="159.033203"/>
      </g>
     </g>
    </g>
    <g id="ytick_6">
     <g id="line2d_16">
      <g>
       <use xlink:href="#m419f24b8e0" x="90" y="53.949416" style="stroke: #000000; stroke-width: 0.8"/>
      </g>
     </g>
     <g id="text_17">
      <!-- 0.30 -->
      <g transform="translate(60.734375 57.748635) scale(0.1 -0.1)">
       <use xlink:href="#DejaVuSans-30"/>
       <use xlink:href="#DejaVuSans-2e" x="63.623047"/>
       <use xlink:href="#DejaVuSans-33" x="95.410156"/>
       <use xlink:href="#DejaVuSans-30" x="159.033203"/>
      </g>
     </g>
    </g>
    <g id="text_18">
     <!-- Cosine Similarity -->
     <g transform="translate(54.654687 223.81875) rotate(-90) scale(0.1 -0.1)">
      <defs>
       <path id="DejaVuSans-43" d="M 4122 4306 
L 4122 3641 
Q 3803 3938 3442 4084 
Q 3081 4231 2675 4231 
Q 1875 4231 1450 3742 
Q 1025 3253 1025 2328 
Q 1025 1406 1450 917 
Q 1875 428 2675 428 
Q 3081 428 3442 575 
Q 3803 722 4122 1019 
L 4122 359 
Q 3791 134 3420 21 
Q 3050 -91 2638 -91 
Q 1578 -91 968 557 
Q 359 1206 359 2328 
Q 359 3453 968 4101 
Q 1578 4750 2638 4750 
Q 3056 4750 3426 4639 
Q 3797 4528 4122 4306 
z
" transform="scale(0.015625)"/>
       <path id="DejaVuSans-6f" d="M 1959 3097 
Q 1497 3097 1228 2736 
Q 959 2375 959 1747 
Q 959 1119 1226 758 
Q 1494 397 1959 397 
Q 2419 397 2687 759 
Q 2956 1122 2956 1747 
Q 2956 2369 2687 2733 
Q 2419 3097 1959 3097 
z
M 1959 3584 
Q 2709 3584 3137 3096 
Q 3566 2609 3566 1747 
Q 3566 888 3137 398 
Q 2709 -91 1959 -91 
Q 1206 -91 779 398 
Q 353 888 353 1747 
Q 353 2609 779 3096 
Q 1206 3584 1959 3584 
z
" transform="scale(0.015625)"/>
       <path id="DejaVuSans-69" d="M 603 3500 
L 1178 3500 
L 1178 0 
L 603 0 
L 603 3500 
z
M 603 4863 
L 1178 4863 
L 1178 4134 
L 603 4134 
L 603 4863 
z
" transform="scale(0.015625)"/>
       <path id="DejaVuSans-6e" d="M 3513 2113 
L 3513 0 
L 2938 0 
L 2938 2094 
Q 2938 2591 2744 2837 
Q 2550 3084 2163 3084 
Q 1697 3084 1428 2787 
Q 1159 2491 1159 1978 
L 1159 0 
L 581 0 
L 581 3500 
L 1159 3500 
L 1159 2956 
Q 1366 3272 1645 3428 
Q 1925 3584 2291 3584 
Q 2894 3584 3203 3211 
Q 3513 2838 3513 2113 
z
" transform="scale(0.015625)"/>
       <path id="DejaVuSans-53" d="M 3425 4513 
L 3425 3897 
Q 3066 4069 2747 4153 
Q 2428 4238 2131 4238 
Q 1616 4238 1336 4038 
Q 1056 3838 1056 3469 
Q 1056 3159 1242 3001 
Q 1428 2844 1947 2747 
L 2328 2669 
Q 3034 2534 3370 2195 
Q 3706 1856 3706 1288 
Q 3706 609 3251 259 
Q 2797 -91 1919 -91 
Q 1588 -91 1214 -16 
Q 841 59 441 206 
L 441 856 
Q 825 641 1194 531 
Q 1563 422 1919 422 
Q 2459 422 2753 634 
Q 3047 847 3047 1241 
Q 3047 1584 2836 1778 
Q 2625 1972 2144 2069 
L 1759 2144 
Q 1053 2284 737 2584 
Q 422 2884 422 3419 
Q 422 4038 858 4394 
Q 1294 4750 2059 4750 
Q 2388 4750 2728 4690 
Q 3069 4631 3425 4513 
z
" transform="scale(0.015625)"/>
       <path id="DejaVuSans-72" d="M 2631 2963 
Q 2534 3019 2420 3045 
Q 2306 3072 2169 3072 
Q 1681 3072 1420 2755 
Q 1159 2438 1159 1844 
L 1159 0 
L 581 0 
L 581 3500 
L 1159 3500 
L 1159 2956 
Q 1341 3275 1631 3429 
Q 1922 3584 2338 3584 
Q 2397 3584 2469 3576 
Q 2541 3569 2628 3553 
L 2631 2963 
z
" transform="scale(0.015625)"/>
       <path id="DejaVuSans-74" d="M 1172 4494 
L 1172 3500 
L 2356 3500 
L 2356 3053 
L 1172 3053 
L 1172 1153 
Q 1172 725 1289 603 
Q 1406 481 1766 481 
L 2356 481 
L 2356 0 
L 1766 0 
Q 1100 0 847 248 
Q 594 497 594 1153 
L 594 3053 
L 172 3053 
L 172 3500 
L 594 3500 
L 594 4494 
L 1172 4494 
z
" transform="scale(0.015625)"/>
       <path id="DejaVuSans-79" d="M 2059 -325 
Q 1816 -950 1584 -1140 
Q 1353 -1331 966 -1331 
L 506 -1331 
L 506 -850 
L 844 -850 
Q 1081 -850 1212 -737 
Q 1344 -625 1503 -206 
L 1606 56 
L 191 3500 
L 800 3500 
L 1894 763 
L 2988 3500 
L 3597 3500 
L 2059 -325 
z
" transform="scale(0.015625)"/>
      </defs>
      <use xlink:href="#DejaVuSans-43"/>
      <use xlink:href="#DejaVuSans-6f" x="69.824219"/>
      <use xlink:href="#DejaVuSans-73" x="131.005859"/>
      <use xlink:href="#DejaVuSans-69" x="183.105469"/>
      <use xlink:href="#DejaVuSans-6e" x="210.888672"/>
      <use xlink:href="#DejaVuSans-65" x="274.267578"/>
      <use xlink:href="#DejaVuSans-20" x="335.791016"/>
      <use xlink:href="#DejaVuSans-53" x="367.578125"/>
      <use xlink:href="#DejaVuSans-69" x="431.054688"/>
      <use xlink:href="#DejaVuSans-6d" x="458.837891"/>
      <use xlink:href="#DejaVuSans-69" x="556.25"/>
      <use xlink:href="#DejaVuSans-6c" x="584.033203"/>
      <use xlink:href="#DejaVuSans-61" x="611.816406"/>
      <use xlink:href="#DejaVuSans-72" x="673.095703"/>
      <use xlink:href="#DejaVuSans-69" x="714.208984"/>
      <use xlink:href="#DejaVuSans-74" x="741.992188"/>
      <use xlink:href="#DejaVuSans-79" x="781.201172"/>
     </g>
    </g>
   </g>
   <g id="patch_3">
    <path d="M 90 320.4 
L 90 43.2 
" style="fill: none; stroke: #000000; stroke-width: 0.8; stroke-linejoin: miter; stroke-linecap: square"/>
   </g>
   <g id="patch_4">
    <path d="M 648 320.4 
L 648 43.2 
" style="fill: none; stroke: #000000; stroke-width: 0.8; stroke-linejoin: miter; stroke-linecap: square"/>
   </g>
   <g id="patch_5">
    <path d="M 90 320.4 
L 648 320.4 
" style="fill: none; stroke: #000000; stroke-width: 0.8; stroke-linejoin: miter; stroke-linecap: square"/>
   </g>
   <g id="patch_6">
    <path d="M 90 43.2 
L 648 43.2 
" style="fill: none; stroke: #000000; stroke-width: 0.8; stroke-linejoin: miter; stroke-linecap: square"/>
   </g>
   <g id="PathCollection_1">
    <defs>
     <path id="m072da52182" d="M 0 2.5 
C 0.663008 2.5 1.29895 2.236584 1.767767 1.767767 
C 2.236584 1.29895 2.5 0.663008 2.5 0 
C 2.5 -0.663008 2.236584 -1.29895 1.767767 -1.767767 
C 1.29895 -2.236584 0.663008 -2.5 0 -2.5 
C -0.663008 -2.5 -1.29895 -2.236584 -1.767767 -1.767767 
C -2.236584 -1.29895 -2.5 -0.663008 -2.5 0 
C -2.5 0.663008 -2.236584 1.29895 -1.767767 1.767767 
C -1.29895 2.236584 -0.663008 2.5 0 2.5 
z
"/>
    </defs>
    <g clip-path="url(#pdc262f08ee)">
     <use xlink:href="#m072da52182" x="117.9" y="238.526248" style="fill: #ffffff"/>
     <use xlink:href="#m072da52182" x="117.9" y="231.791769" style="fill: #ffffff"/>
     <use xlink:href="#m072da52182" x="117.9" y="216.266325" style="fill: #ffffff"/>
     <use xlink:href="#m072da52182" x="117.9" y="139.375258" style="fill: #ffffff"/>
    </g>
   </g>
   <g id="PathCollection_2">
    <g clip-path="url(#pdc262f08ee)">
     <use xlink:href="#m072da52182" x="173.7" y="228.722485" style="fill: #ffffff"/>
     <use xlink:href="#m072da52182" x="173.7" y="209.550737" style="fill: #ffffff"/>
     <use xlink:href="#m072da52182" x="173.7" y="220.046519" style="fill: #ffffff"/>
     <use xlink:href="#m072da52182" x="173.7" y="165.903337" style="fill: #ffffff"/>
    </g>
   </g>
   <g id="PathCollection_3">
    <g clip-path="url(#pdc262f08ee)">
     <use xlink:href="#m072da52182" x="229.5" y="225.822076" style="fill: #ffffff"/>
     <use xlink:href="#m072da52182" x="229.5" y="213.694669" style="fill: #ffffff"/>
     <use xlink:href="#m072da52182" x="224.828461" y="211.413081" style="fill: #ffffff"/>
     <use xlink:href="#m072da52182" x="229.5" y="125.663226" style="fill: #ffffff"/>
    </g>
   </g>
   <g id="PathCollection_4">
    <g clip-path="url(#pdc262f08ee)">
     <use xlink:href="#m072da52182" x="285.3" y="226.519209" style="fill: #ffffff"/>
     <use xlink:href="#m072da52182" x="285.3" y="197.256855" style="fill: #ffffff"/>
     <use xlink:href="#m072da52182" x="285.3" y="215.146943" style="fill: #ffffff"/>
     <use xlink:href="#m072da52182" x="285.3" y="158.969194" style="fill: #ffffff"/>
    </g>
   </g>
   <g id="PathCollection_5">
    <g clip-path="url(#pdc262f08ee)">
     <use xlink:href="#m072da52182" x="341.1" y="228.23561" style="fill: #ffffff"/>
     <use xlink:href="#m072da52182" x="341.1" y="185.656794" style="fill: #ffffff"/>
     <use xlink:href="#m072da52182" x="335.912936" y="227.463728" style="fill: #ffffff"/>
     <use xlink:href="#m072da52182" x="341.1" y="179.012083" style="fill: #ffffff"/>
    </g>
   </g>
   <g id="PathCollection_6">
    <g clip-path="url(#pdc262f08ee)">
     <use xlink:href="#m072da52182" x="396.9" y="232.551711" style="fill: #ffffff"/>
     <use xlink:href="#m072da52182" x="396.9" y="200.636752" style="fill: #ffffff"/>
     <use xlink:href="#m072da52182" x="396.9" y="219.817944" style="fill: #ffffff"/>
     <use xlink:href="#m072da52182" x="396.9" y="175.244613" style="fill: #ffffff"/>
    </g>
   </g>
   <g id="PathCollection_7">
    <g clip-path="url(#pdc262f08ee)">
     <use xlink:href="#m072da52182" x="452.7" y="221.843229" style="fill: #ffffff"/>
     <use xlink:href="#m072da52182" x="452.7" y="199.836793" style="fill: #ffffff"/>
     <use xlink:href="#m072da52182" x="452.7" y="216.133249" style="fill: #ffffff"/>
     <use xlink:href="#m072da52182" x="452.7" y="149.78977" style="fill: #ffffff"/>
    </g>
   </g>
   <g id="PathCollection_8">
    <g clip-path="url(#pdc262f08ee)">
     <use xlink:href="#m072da52182" x="503.380277" y="228.00791" style="fill: #ffffff"/>
     <use xlink:href="#m072da52182" x="508.5" y="185.784095" style="fill: #ffffff"/>
     <use xlink:href="#m072da52182" x="508.5" y="229.114859" style="fill: #ffffff"/>
     <use xlink:href="#m072da52182" x="508.5" y="171.753382" style="fill: #ffffff"/>
    </g>
   </g>
   <g id="PathCollection_9">
    <g clip-path="url(#pdc262f08ee)">
     <use xlink:href="#m072da52182" x="564.3" y="228.032714" style="fill: #ffffff"/>
     <use xlink:href="#m072da52182" x="564.3" y="191.705342" style="fill: #ffffff"/>
     <use xlink:href="#m072da52182" x="564.3" y="220.136632" style="fill: #ffffff"/>
     <use xlink:href="#m072da52182" x="564.3" y="178.457371" style="fill: #ffffff"/>
    </g>
   </g>
   <g id="PathCollection_10">
    <g clip-path="url(#pdc262f08ee)">
     <use xlink:href="#m072da52182" x="620.1" y="224.820938" style="fill: #ffffff"/>
     <use xlink:href="#m072da52182" x="620.1" y="190.400874" style="fill: #ffffff"/>
     <use xlink:href="#m072da52182" x="620.1" y="218.218546" style="fill: #ffffff"/>
     <use xlink:href="#m072da52182" x="620.1" y="174.037576" style="fill: #ffffff"/>
    </g>
   </g>
  </g>
 </g>
 <defs>
  <clipPath id="pdc262f08ee">
   <rect x="90" y="43.2" width="558" height="277.2"/>
  </clipPath>
 </defs>
</svg>
